# SimpleCAD BREP tessellation for MuJoCo
v 11 -2.69422295812e-15 2
v 10.9737899953 0.758902588448 2
v 10.8952848839 1.51418866046 2
v 10.7648587783 2.26225893395 2
v 10.5831332183 2.99954851338 2
v 10.350974209 3.72254387817 2
v 10.0694880938 4.42779962614 2
v 9.74001628219 5.11195489248 2
v 9.36412885743 5.77174936579 2
v 8.94361709426 6.40403882493 2
v 8.48048492274 7.00581012268 2
v 7.97693937858 7.57419554478 2
v 7.43538008559 8.10648647583 2
v 6.85838782045 8.60014630715 2
v 6.24871221404 9.05282252483 2
v 5.60925864829 9.46235792055 2
v 4.94307441064 9.82680087164 2
v 4.25333417236 10.1444146415 2
v 3.54332485978 10.4136856558 2
v 2.81642999063 10.6333307156 2
v 2.07611354998 10.8023031122 2
v 1.32590348281 10.9197976151 2
v 0.569374881726 10.9852543095 2
v -0.189867049959 10.9983612644 2
v -0.948204178687 10.9590560194 2
v -1.70202268269 10.8675258816 2
v -2.44773027352 10.724207034 2
v -3.1817733149 10.5297824561 2
v -3.90065375747 10.2851786695 2
v -4.60094580853 9.99156132278 2
v -5.27931225756 9.65032963619 2
v -5.93252037949 9.26310973415 2
v -6.55745734016 8.83174689583 2
v -7.15114503036 8.35829676159 2
v -7.71075425787 7.84501553694 2
v -8.23361822988 7.29434924065 2
v -8.71724526146 6.7089220484 2
v -9.15933064956 6.09152378737 2
v -9.55776765598 5.44509664142 2
v -9.91065754693 4.77272113029 2
v -10.2163186414 4.0776014295 2
v -10.473294325 3.36305010096 2
v -10.6803599917 2.63247230716 2
v -10.8365288792 1.889349584 2
v -10.9410567716 1.13722324967 2
v -10.9934455461 0.379677528667 2
v -10.9934455461 -0.379677528667 2
v -10.9410567716 -1.13722324967 2
v -10.8365288792 -1.889349584 2
v -10.6803599917 -2.63247230716 2
v -10.473294325 -3.36305010096 2
v -10.2163186414 -4.0776014295 2
v -9.91065754693 -4.77272113029 2
v -9.55776765598 -5.44509664142 2
v -9.15933064956 -6.09152378737 2
v -8.71724526146 -6.7089220484 2
v -8.23361822988 -7.29434924065 2
v -7.71075425787 -7.84501553694 2
v -7.15114503036 -8.35829676159 2
v -6.55745734016 -8.83174689583 2
v -5.93252037949 -9.26310973415 2
v -5.27931225756 -9.65032963619 2
v -4.60094580853 -9.99156132278 2
v -3.90065375747 -10.2851786695 2
v -3.1817733149 -10.5297824561 2
v -2.44773027352 -10.724207034 2
v -1.70202268269 -10.8675258816 2
v -0.948204178687 -10.9590560194 2
v -0.189867049959 -10.9983612644 2
v 0.569374881726 -10.9852543095 2
v 1.32590348281 -10.9197976151 2
v 2.07611354998 -10.8023031122 2
v 2.81642999063 -10.6333307156 2
v 3.54332485978 -10.4136856558 2
v 4.25333417236 -10.1444146415 2
v 4.94307441064 -9.82680087164 2
v 5.60925864829 -9.46235792055 2
v 6.24871221404 -9.05282252483 2
v 6.85838782045 -8.60014630715 2
v 7.43538008559 -8.10648647583 2
v 7.97693937858 -7.57419554478 2
v 8.48048492274 -7.00581012268 2
v 8.94361709426 -6.40403882493 2
v 9.36412885743 -5.77174936579 2
v 9.74001628219 -5.11195489248 2
v 10.0694880938 -4.42779962614 2
v 10.350974209 -3.72254387817 2
v 10.5831332183 -2.99954851338 2
v 10.7648587783 -2.26225893395 2
v 10.8952848839 -1.51418866046 2
v 10.9737899953 -0.758902588448 2
v 11 -2.69422295812e-15 0
v 10.9737899953 0.758902588448 0
v 10.8952848839 1.51418866046 0
v 10.7648587783 2.26225893395 0
v 10.5831332183 2.99954851338 0
v 10.350974209 3.72254387817 0
v 10.0694880938 4.42779962614 0
v 9.74001628219 5.11195489248 0
v 9.36412885743 5.77174936579 0
v 8.94361709426 6.40403882493 0
v 8.48048492274 7.00581012268 0
v 7.97693937858 7.57419554478 0
v 7.43538008559 8.10648647583 0
v 6.85838782045 8.60014630715 0
v 6.24871221404 9.05282252483 0
v 5.60925864829 9.46235792055 0
v 4.94307441064 9.82680087164 0
v 4.25333417236 10.1444146415 0
v 3.54332485978 10.4136856558 0
v 2.81642999063 10.6333307156 0
v 2.07611354998 10.8023031122 0
v 1.32590348281 10.9197976151 0
v 0.569374881726 10.9852543095 0
v -0.189867049959 10.9983612644 0
v -0.948204178687 10.9590560194 0
v -1.70202268269 10.8675258816 0
v -2.44773027352 10.724207034 0
v -3.1817733149 10.5297824561 0
v -3.90065375747 10.2851786695 0
v -4.60094580853 9.99156132278 0
v -5.27931225756 9.65032963619 0
v -5.93252037949 9.26310973415 0
v -6.55745734016 8.83174689583 0
v -7.15114503036 8.35829676159 0
v -7.71075425787 7.84501553694 0
v -8.23361822988 7.29434924065 0
v -8.71724526146 6.7089220484 0
v -9.15933064956 6.09152378737 0
v -9.55776765598 5.44509664142 0
v -9.91065754693 4.77272113029 0
v -10.2163186414 4.0776014295 0
v -10.473294325 3.36305010096 0
v -10.6803599917 2.63247230716 0
v -10.8365288792 1.889349584 0
v -10.9410567716 1.13722324967 0
v -10.9934455461 0.379677528667 0
v -10.9934455461 -0.379677528667 0
v -10.9410567716 -1.13722324967 0
v -10.8365288792 -1.889349584 0
v -10.6803599917 -2.63247230716 0
v -10.473294325 -3.36305010096 0
v -10.2163186414 -4.0776014295 0
v -9.91065754693 -4.77272113029 0
v -9.55776765598 -5.44509664142 0
v -9.15933064956 -6.09152378737 0
v -8.71724526146 -6.7089220484 0
v -8.23361822988 -7.29434924065 0
v -7.71075425787 -7.84501553694 0
v -7.15114503036 -8.35829676159 0
v -6.55745734016 -8.83174689583 0
v -5.93252037949 -9.26310973415 0
v -5.27931225756 -9.65032963619 0
v -4.60094580853 -9.99156132278 0
v -3.90065375747 -10.2851786695 0
v -3.1817733149 -10.5297824561 0
v -2.44773027352 -10.724207034 0
v -1.70202268269 -10.8675258816 0
v -0.948204178687 -10.9590560194 0
v -0.189867049959 -10.9983612644 0
v 0.569374881726 -10.9852543095 0
v 1.32590348281 -10.9197976151 0
v 2.07611354998 -10.8023031122 0
v 2.81642999063 -10.6333307156 0
v 3.54332485978 -10.4136856558 0
v 4.25333417236 -10.1444146415 0
v 4.94307441064 -9.82680087164 0
v 5.60925864829 -9.46235792055 0
v 6.24871221404 -9.05282252483 0
v 6.85838782045 -8.60014630715 0
v 7.43538008559 -8.10648647583 0
v 7.97693937858 -7.57419554478 0
v 8.48048492274 -7.00581012268 0
v 8.94361709426 -6.40403882493 0
v 9.36412885743 -5.77174936579 0
v 9.74001628219 -5.11195489248 0
v 10.0694880938 -4.42779962614 0
v 10.350974209 -3.72254387817 0
v 10.5831332183 -2.99954851338 0
v 10.7648587783 -2.26225893395 0
v 10.8952848839 -1.51418866046 0
v 10.9737899953 -0.758902588448 0
v 8.1 -1.98392781462e-15 2
v 8.08069990564 0.558828269675 2
v 8.0228915963 1.11499346816 2
v 7.9268505549 1.665845215 2
v 7.79303446073 2.20875845076 2
v 7.62208100844 2.74114594665 2
v 7.41480486906 3.26047063379 2
v 7.17219380779 3.76425769355 2
v 6.89540397683 4.25010635117 2
v 6.58575440578 4.71570131654 2
v 6.24472071584 5.15882381761 2
v 5.87392808786 5.57736217388 2
v 5.47514351757 5.96932185947 2
v 5.05026739506 6.33283500799 2
v 4.60132444852 6.66616931374 2
v 4.13045409556 6.96773628695 2
v 3.63990024783 7.23609882366 2
v 3.13200061783 7.46997805418 2
v 2.60917557857 7.66825943746 2
v 2.07391662947 7.82999807242 2
v 1.52877452317 7.95442320079 2
v 0.976347110068 8.04094188019 2
v 0.419266958362 8.08914180971 2
v -0.139811191334 8.09879329473 2
v -0.698223077033 8.06985034153 2
v -1.2533076118 8.00245087646 2
v -1.80241956505 7.89691608867 2
v -2.34294216825 7.75374889948 2
v -2.87229958504 7.57363156575 2
v -3.38796918628 7.3574224286 2
v -3.88749357147 7.10615182302 2
v -4.36849227944 6.82101716787 2
v -4.8286731323 6.50337725965 2
v -5.26584315872 6.15474579717 2
v -5.67791904443 5.77678416811 2
v -6.06293706019 5.37129353175 2
v -6.4190624198 4.94020623564 2
v -6.74459802377 4.48557660706 2
v -7.03799254667 4.00957116323 2
v -7.29784783001 3.51445828685 2
v -7.52292554501 3.00259741627 2
v -7.71215309388 2.47642780161 2
v -7.86462872115 1.93845688073 2
v -7.97962581104 1.39124833004 2
v -8.05659635003 0.837409847486 2
v -8.09517353846 0.279580725655 2
v -8.09517353846 -0.279580725655 2
v -8.05659635003 -0.837409847486 2
v -7.97962581104 -1.39124833004 2
v -7.86462872115 -1.93845688073 2
v -7.71215309388 -2.47642780161 2
v -7.52292554501 -3.00259741627 2
v -7.29784783001 -3.51445828685 2
v -7.03799254667 -4.00957116323 2
v -6.74459802377 -4.48557660706 2
v -6.4190624198 -4.94020623564 2
v -6.06293706019 -5.37129353175 2
v -5.67791904443 -5.77678416811 2
v -5.26584315872 -6.15474579717 2
v -4.8286731323 -6.50337725965 2
v -4.36849227944 -6.82101716787 2
v -3.88749357147 -7.10615182302 2
v -3.38796918628 -7.3574224286 2
v -2.87229958504 -7.57363156575 2
v -2.34294216825 -7.75374889948 2
v -1.80241956505 -7.89691608867 2
v -1.2533076118 -8.00245087646 2
v -0.698223077033 -8.06985034153 2
v -0.139811191334 -8.09879329473 2
v 0.419266958362 -8.08914180971 2
v 0.976347110068 -8.04094188019 2
v 1.52877452317 -7.95442320079 2
v 2.07391662947 -7.82999807242 2
v 2.60917557857 -7.66825943746 2
v 3.13200061783 -7.46997805418 2
v 3.63990024783 -7.23609882366 2
v 4.13045409556 -6.96773628695 2
v 4.60132444852 -6.66616931374 2
v 5.05026739506 -6.33283500799 2
v 5.47514351757 -5.96932185947 2
v 5.87392808786 -5.57736217388 2
v 6.24472071584 -5.15882381761 2
v 6.58575440578 -4.71570131654 2
v 6.89540397683 -4.25010635117 2
v 7.17219380779 -3.76425769355 2
v 7.41480486906 -3.26047063379 2
v 7.62208100844 -2.74114594665 2
v 7.79303446073 -2.20875845076 2
v 7.9268505549 -1.665845215 2
v 8.0228915963 -1.11499346816 2
v 8.08069990564 -0.558828269675 2
v 8.1 -1.98392781462e-15 0
v 8.08069990564 0.558828269675 0
v 8.0228915963 1.11499346816 0
v 7.9268505549 1.665845215 0
v 7.79303446073 2.20875845076 0
v 7.62208100844 2.74114594665 0
v 7.41480486906 3.26047063379 0
v 7.17219380779 3.76425769355 0
v 6.89540397683 4.25010635117 0
v 6.58575440578 4.71570131654 0
v 6.24472071584 5.15882381761 0
v 5.87392808786 5.57736217388 0
v 5.47514351757 5.96932185947 0
v 5.05026739506 6.33283500799 0
v 4.60132444852 6.66616931374 0
v 4.13045409556 6.96773628695 0
v 3.63990024783 7.23609882366 0
v 3.13200061783 7.46997805418 0
v 2.60917557857 7.66825943746 0
v 2.07391662947 7.82999807242 0
v 1.52877452317 7.95442320079 0
v 0.976347110068 8.04094188019 0
v 0.419266958362 8.08914180971 0
v -0.139811191334 8.09879329473 0
v -0.698223077033 8.06985034153 0
v -1.2533076118 8.00245087646 0
v -1.80241956505 7.89691608867 0
v -2.34294216825 7.75374889948 0
v -2.87229958504 7.57363156575 0
v -3.38796918628 7.3574224286 0
v -3.88749357147 7.10615182302 0
v -4.36849227944 6.82101716787 0
v -4.8286731323 6.50337725965 0
v -5.26584315872 6.15474579717 0
v -5.67791904443 5.77678416811 0
v -6.06293706019 5.37129353175 0
v -6.4190624198 4.94020623564 0
v -6.74459802377 4.48557660706 0
v -7.03799254667 4.00957116323 0
v -7.29784783001 3.51445828685 0
v -7.52292554501 3.00259741627 0
v -7.71215309388 2.47642780161 0
v -7.86462872115 1.93845688073 0
v -7.97962581104 1.39124833004 0
v -8.05659635003 0.837409847486 0
v -8.09517353846 0.279580725655 0
v -8.09517353846 -0.279580725655 0
v -8.05659635003 -0.837409847486 0
v -7.97962581104 -1.39124833004 0
v -7.86462872115 -1.93845688073 0
v -7.71215309388 -2.47642780161 0
v -7.52292554501 -3.00259741627 0
v -7.29784783001 -3.51445828685 0
v -7.03799254667 -4.00957116323 0
v -6.74459802377 -4.48557660706 0
v -6.4190624198 -4.94020623564 0
v -6.06293706019 -5.37129353175 0
v -5.67791904443 -5.77678416811 0
v -5.26584315872 -6.15474579717 0
v -4.8286731323 -6.50337725965 0
v -4.36849227944 -6.82101716787 0
v -3.88749357147 -7.10615182302 0
v -3.38796918628 -7.3574224286 0
v -2.87229958504 -7.57363156575 0
v -2.34294216825 -7.75374889948 0
v -1.80241956505 -7.89691608867 0
v -1.2533076118 -8.00245087646 0
v -0.698223077033 -8.06985034153 0
v -0.139811191334 -8.09879329473 0
v 0.419266958362 -8.08914180971 0
v 0.976347110068 -8.04094188019 0
v 1.52877452317 -7.95442320079 0
v 2.07391662947 -7.82999807242 0
v 2.60917557857 -7.66825943746 0
v 3.13200061783 -7.46997805418 0
v 3.63990024783 -7.23609882366 0
v 4.13045409556 -6.96773628695 0
v 4.60132444852 -6.66616931374 0
v 5.05026739506 -6.33283500799 0
v 5.47514351757 -5.96932185947 0
v 5.87392808786 -5.57736217388 0
v 6.24472071584 -5.15882381761 0
v 6.58575440578 -4.71570131654 0
v 6.89540397683 -4.25010635117 0
v 7.17219380779 -3.76425769355 0
v 7.41480486906 -3.26047063379 0
v 7.62208100844 -2.74114594665 0
v 7.79303446073 -2.20875845076 0
v 7.9268505549 -1.665845215 0
v 8.0228915963 -1.11499346816 0
v 8.08069990564 -0.558828269675 0
f 2 1 92
f 2 92 93
f 3 93 94
f 3 2 93
f 4 94 95
f 4 3 94
f 5 4 95
f 5 95 96
f 6 5 96
f 6 96 97
f 7 6 97
f 7 97 98
f 8 7 98
f 8 98 99
f 9 8 99
f 9 99 100
f 10 100 101
f 10 9 100
f 11 101 102
f 11 102 103
f 11 10 101
f 12 11 103
f 13 103 104
f 13 104 105
f 13 12 103
f 14 13 105
f 15 105 106
f 15 14 105
f 16 106 107
f 16 107 108
f 16 15 106
f 17 16 108
f 18 108 109
f 18 109 110
f 18 17 108
f 19 18 110
f 20 110 111
f 20 19 110
f 21 111 112
f 21 20 111
f 22 112 113
f 22 21 112
f 23 113 114
f 23 22 113
f 24 114 115
f 24 23 114
f 25 115 116
f 25 24 115
f 26 116 117
f 26 117 118
f 26 25 116
f 27 26 118
f 28 118 119
f 28 27 118
f 29 119 120
f 29 28 119
f 30 29 120
f 30 120 121
f 31 30 121
f 31 121 122
f 32 31 122
f 32 122 123
f 32 123 124
f 33 32 124
f 34 33 124
f 34 124 125
f 35 34 125
f 35 125 126
f 35 126 127
f 36 35 127
f 37 127 128
f 37 36 127
f 38 128 129
f 38 37 128
f 39 129 130
f 39 38 129
f 40 130 131
f 40 39 130
f 41 131 132
f 41 132 133
f 41 40 131
f 42 41 133
f 43 133 134
f 43 134 135
f 43 42 133
f 44 43 135
f 45 135 136
f 45 44 135
f 46 136 137
f 46 45 136
f 47 137 138
f 47 46 137
f 48 138 139
f 48 47 138
f 49 139 140
f 49 140 141
f 49 48 139
f 50 49 141
f 51 141 142
f 51 50 141
f 52 142 143
f 52 51 142
f 53 143 144
f 53 52 143
f 54 144 145
f 54 53 144
f 55 145 146
f 55 146 147
f 55 54 145
f 56 55 147
f 57 56 147
f 57 147 148
f 57 148 149
f 58 57 149
f 59 58 149
f 59 149 150
f 60 59 150
f 60 150 151
f 61 60 151
f 61 151 152
f 62 61 152
f 62 152 153
f 62 153 154
f 63 62 154
f 64 63 154
f 64 154 155
f 64 155 156
f 65 64 156
f 66 65 156
f 66 156 157
f 67 66 157
f 67 157 158
f 68 67 158
f 68 158 159
f 68 159 160
f 69 68 160
f 70 69 160
f 70 160 161
f 71 161 162
f 71 70 161
f 72 162 163
f 72 163 164
f 72 71 162
f 73 72 164
f 74 164 165
f 74 73 164
f 75 165 166
f 75 74 165
f 76 166 167
f 76 167 168
f 76 75 166
f 77 76 168
f 78 168 169
f 78 77 168
f 79 169 170
f 79 170 171
f 79 78 169
f 80 79 171
f 81 80 171
f 81 171 172
f 82 81 172
f 82 172 173
f 83 82 173
f 83 173 174
f 84 83 174
f 84 174 175
f 85 84 175
f 85 175 176
f 86 85 176
f 86 176 177
f 87 86 177
f 87 177 178
f 88 87 178
f 88 178 179
f 88 179 180
f 89 88 180
f 90 89 180
f 90 180 181
f 91 90 181
f 91 181 182
f 1 91 182
f 1 182 92
f 239 58 240
f 239 57 58
f 241 240 58
f 241 58 59
f 238 57 239
f 238 56 57
f 242 241 59
f 242 59 60
f 237 56 238
f 237 55 56
f 243 242 60
f 243 60 61
f 236 55 237
f 236 53 54
f 236 54 55
f 244 61 62
f 244 243 61
f 235 53 236
f 245 62 63
f 245 244 62
f 234 53 235
f 234 52 53
f 246 245 63
f 246 63 64
f 246 64 65
f 233 51 52
f 233 52 234
f 247 246 65
f 232 50 51
f 232 51 233
f 248 247 65
f 248 65 66
f 248 66 67
f 231 49 50
f 231 50 232
f 249 248 67
f 230 48 49
f 230 49 231
f 250 249 67
f 250 67 68
f 229 48 230
f 229 47 48
f 251 68 69
f 251 250 68
f 228 45 46
f 228 46 47
f 228 47 229
f 252 251 69
f 252 69 70
f 252 70 71
f 227 45 228
f 253 252 71
f 226 44 45
f 226 45 227
f 254 71 72
f 254 253 71
f 254 72 73
f 225 43 44
f 225 44 226
f 255 254 73
f 224 42 43
f 224 43 225
f 256 255 73
f 256 73 74
f 223 41 42
f 223 42 224
f 257 256 74
f 257 74 75
f 222 41 223
f 222 40 41
f 258 257 75
f 258 75 76
f 221 40 222
f 221 39 40
f 259 258 76
f 259 76 77
f 220 38 39
f 220 39 221
f 260 259 77
f 260 77 78
f 37 38 220
f 219 37 220
f 261 260 78
f 261 78 79
f 218 36 37
f 218 37 219
f 262 79 80
f 262 261 79
f 217 36 218
f 35 36 217
f 81 262 80
f 81 263 262
f 264 263 81
f 34 217 216
f 34 35 217
f 82 264 81
f 215 34 216
f 265 264 82
f 33 34 215
f 214 33 215
f 83 265 82
f 32 214 213
f 32 33 214
f 84 266 265
f 84 265 83
f 31 32 213
f 85 267 266
f 85 266 84
f 30 31 213
f 30 213 212
f 86 268 267
f 86 269 268
f 86 267 85
f 29 30 212
f 29 212 211
f 87 269 86
f 28 211 210
f 28 29 211
f 88 269 87
f 88 270 269
f 27 210 209
f 27 28 210
f 89 271 270
f 89 270 88
f 26 27 209
f 26 209 208
f 90 271 89
f 90 272 271
f 25 207 206
f 25 208 207
f 25 26 208
f 91 272 90
f 91 273 272
f 91 183 273
f 24 25 206
f 1 183 91
f 1 184 183
f 23 206 205
f 23 24 206
f 2 184 1
f 22 205 204
f 22 23 205
f 3 184 2
f 3 185 184
f 3 186 185
f 21 22 204
f 21 203 202
f 21 204 203
f 4 186 3
f 4 187 186
f 20 21 202
f 5 188 187
f 5 187 4
f 19 201 200
f 19 202 201
f 19 20 202
f 6 188 5
f 18 200 199
f 18 19 200
f 7 188 6
f 7 189 188
f 7 190 189
f 17 18 199
f 8 190 7
f 16 199 198
f 16 17 199
f 9 190 8
f 9 191 190
f 15 16 198
f 15 198 197
f 10 191 9
f 10 192 191
f 14 197 196
f 14 15 197
f 11 193 192
f 11 192 10
f 13 196 195
f 13 14 196
f 12 194 193
f 12 195 194
f 12 193 11
f 12 13 195
f 330 331 149
f 330 149 148
f 332 149 331
f 332 150 149
f 329 330 148
f 329 148 147
f 333 150 332
f 333 151 150
f 328 329 147
f 328 147 146
f 334 151 333
f 334 152 151
f 327 328 146
f 327 145 144
f 327 146 145
f 335 153 152
f 335 152 334
f 326 327 144
f 336 154 153
f 336 153 335
f 325 326 144
f 325 144 143
f 337 154 336
f 337 155 154
f 337 156 155
f 324 143 142
f 324 325 143
f 338 156 337
f 323 142 141
f 323 324 142
f 339 156 338
f 339 157 156
f 339 158 157
f 322 141 140
f 322 323 141
f 340 158 339
f 321 140 139
f 321 322 140
f 341 158 340
f 341 159 158
f 320 321 139
f 320 139 138
f 342 160 159
f 342 159 341
f 319 137 136
f 319 138 137
f 319 320 138
f 343 160 342
f 343 161 160
f 343 162 161
f 318 319 136
f 344 162 343
f 317 136 135
f 317 318 136
f 345 163 162
f 345 162 344
f 345 164 163
f 316 135 134
f 316 317 135
f 346 164 345
f 315 134 133
f 315 316 134
f 347 164 346
f 347 165 164
f 314 133 132
f 314 315 133
f 348 165 347
f 348 166 165
f 313 314 132
f 313 132 131
f 349 166 348
f 349 167 166
f 312 313 131
f 312 131 130
f 350 167 349
f 350 168 167
f 311 130 129
f 311 312 130
f 351 168 350
f 351 169 168
f 128 311 129
f 310 311 128
f 352 169 351
f 352 170 169
f 309 128 127
f 309 310 128
f 353 171 170
f 353 170 352
f 308 309 127
f 126 308 127
f 172 171 353
f 172 353 354
f 355 172 354
f 125 307 308
f 125 308 126
f 173 172 355
f 306 307 125
f 356 173 355
f 124 306 125
f 305 306 124
f 174 173 356
f 123 304 305
f 123 305 124
f 175 356 357
f 175 174 356
f 122 304 123
f 176 357 358
f 176 175 357
f 121 304 122
f 121 303 304
f 177 358 359
f 177 359 360
f 177 176 358
f 120 303 121
f 120 302 303
f 178 177 360
f 119 301 302
f 119 302 120
f 179 178 360
f 179 360 361
f 118 300 301
f 118 301 119
f 180 361 362
f 180 179 361
f 117 300 118
f 117 299 300
f 181 180 362
f 181 362 363
f 116 297 298
f 116 298 299
f 116 299 117
f 182 181 363
f 182 363 364
f 182 364 274
f 115 297 116
f 92 182 274
f 92 274 275
f 114 296 297
f 114 297 115
f 93 92 275
f 113 295 296
f 113 296 114
f 94 93 275
f 94 275 276
f 94 276 277
f 112 295 113
f 112 293 294
f 112 294 295
f 95 94 277
f 95 277 278
f 111 293 112
f 96 278 279
f 96 95 278
f 110 291 292
f 110 292 293
f 110 293 111
f 97 96 279
f 109 290 291
f 109 291 110
f 98 97 279
f 98 279 280
f 98 280 281
f 108 290 109
f 99 98 281
f 107 289 290
f 107 290 108
f 100 99 281
f 100 281 282
f 106 289 107
f 106 288 289
f 101 100 282
f 101 282 283
f 105 287 288
f 105 288 106
f 102 283 284
f 102 101 283
f 104 286 287
f 104 287 105
f 103 284 285
f 103 285 286
f 103 102 284
f 103 286 104
f 184 274 183
f 184 275 274
f 185 276 275
f 185 275 184
f 186 277 276
f 186 276 185
f 187 277 186
f 187 278 277
f 188 278 187
f 188 279 278
f 188 280 279
f 189 280 188
f 190 280 189
f 190 281 280
f 191 281 190
f 191 282 281
f 192 283 282
f 192 282 191
f 193 284 283
f 193 283 192
f 194 285 284
f 194 284 193
f 195 286 285
f 195 285 194
f 196 287 286
f 196 286 195
f 197 288 287
f 197 289 288
f 197 287 196
f 198 289 197
f 199 290 289
f 199 289 198
f 200 291 290
f 200 290 199
f 201 292 291
f 201 291 200
f 202 293 292
f 202 292 201
f 203 294 293
f 203 293 202
f 204 295 294
f 204 294 203
f 205 296 295
f 205 295 204
f 206 297 296
f 206 298 297
f 206 296 205
f 207 298 206
f 208 299 298
f 208 298 207
f 209 300 299
f 209 299 208
f 210 301 300
f 210 300 209
f 211 302 301
f 211 303 302
f 211 301 210
f 212 303 211
f 212 304 303
f 213 304 212
f 214 304 213
f 214 305 304
f 215 305 214
f 215 306 305
f 216 306 215
f 216 307 306
f 216 308 307
f 217 308 216
f 218 309 308
f 218 308 217
f 219 310 309
f 219 311 310
f 219 309 218
f 220 311 219
f 221 312 311
f 221 311 220
f 222 313 312
f 222 312 221
f 223 314 313
f 223 313 222
f 224 315 314
f 224 316 315
f 224 314 223
f 225 316 224
f 226 317 316
f 226 316 225
f 227 318 317
f 227 319 318
f 227 317 226
f 228 319 227
f 229 320 319
f 229 321 320
f 229 319 228
f 230 321 229
f 231 322 321
f 231 321 230
f 232 323 322
f 232 322 231
f 233 324 323
f 233 323 232
f 234 325 324
f 234 326 325
f 234 324 233
f 235 326 234
f 236 327 326
f 236 326 235
f 237 328 327
f 237 329 328
f 237 327 236
f 238 329 237
f 239 329 238
f 239 330 329
f 240 330 239
f 240 331 330
f 241 331 240
f 241 332 331
f 242 332 241
f 242 333 332
f 243 333 242
f 243 334 333
f 244 334 243
f 244 335 334
f 245 335 244
f 245 336 335
f 246 336 245
f 246 337 336
f 247 337 246
f 247 338 337
f 247 339 338
f 248 339 247
f 249 339 248
f 249 340 339
f 249 341 340
f 250 341 249
f 251 341 250
f 251 342 341
f 252 342 251
f 252 343 342
f 253 344 343
f 253 345 344
f 253 343 252
f 254 345 253
f 255 346 345
f 255 347 346
f 255 345 254
f 256 347 255
f 257 348 347
f 257 347 256
f 258 349 348
f 258 348 257
f 259 350 349
f 259 351 350
f 259 349 258
f 260 351 259
f 261 352 351
f 261 351 260
f 262 353 352
f 262 352 261
f 263 353 262
f 263 354 353
f 264 354 263
f 264 355 354
f 265 355 264
f 265 356 355
f 266 356 265
f 266 357 356
f 267 357 266
f 267 358 357
f 268 358 267
f 268 359 358
f 268 360 359
f 269 360 268
f 270 360 269
f 270 361 360
f 271 361 270
f 271 362 361
f 271 363 362
f 272 363 271
f 273 363 272
f 273 364 363
f 183 364 273
f 183 274 364
