# SimpleCAD BREP tessellation for MuJoCo
v -1.95943487864e-15 -90 268
v 0.551929155235 -90 267.980938178
v 1.1012281167 -90 267.923843552
v 1.64527922469 -90 267.828988202
v 2.18148982792 -90 267.696824159
v 2.70730463867 -90 267.527981243
v 3.22021790992 -90 267.323264068
v 3.71778537635 -90 267.083648205
v 4.19763590239 -90 266.810275533
v 4.65748278177 -90 266.504448796
v 5.09513463468 -90 266.167625398
v 5.50850585075 -90 265.801410457
v 5.89562652787 -90 265.407549153
v 6.25465185974 -90 264.987918415
v 6.58387092715 -90 264.544517974
v 6.88171485131 -90 264.079460835
v 7.14676427028 -90 263.594963208
v 7.37775610289 -90 263.093333944
v 7.57358956786 -90 262.576963534
v 7.73333142955 -90 262.04831272
v 7.85622044523 -90 261.509900764
v 7.94167099278 -90 260.964293442
v 7.98927586144 -90 260.414090823
v 7.99880819233 -90 259.861914873
v 7.97022255954 -90 259.310396961
v 7.90365518663 -90 258.762165322
v 7.79942329745 -90 258.219832528
v 7.65802360443 -90 257.685983044
v 7.48012994148 -90 257.163160904
v 7.26659005293 -90 256.653857594
v 7.0184215536 -90 256.160500176
v 6.73680707938 -90 255.685439724
v 6.42308865151 -90 255.230940116
v 6.07876128116 -90 254.799167251
v 5.70546584504 -90 254.392178722
v 5.30498126593 -90 254.011914015
v 4.8792160352 -90 253.660185264
v 4.43019911808 -90 253.338668619
v 3.96007028467 -90 253.04889625
v 3.47106991294 -90 252.792249057
v 2.96552831236 -90 252.569950079
v 2.44585461888 -90 252.383058673
v 1.9145253143 -90 252.232465461
v 1.37407242473 -90 252.118888088
v 0.827071454307 -90 252.042867802
v 0.276129111758 -90 252.004766876
v -0.276129111758 -90 252.004766876
v -0.827071454307 -90 252.042867802
v -1.37407242473 -90 252.118888088
v -1.9145253143 -90 252.232465461
v -2.44585461888 -90 252.383058673
v -2.96552831236 -90 252.569950079
v -3.47106991294 -90 252.792249057
v -3.96007028467 -90 253.04889625
v -4.43019911808 -90 253.338668619
v -4.8792160352 -90 253.660185264
v -5.30498126593 -90 254.011914015
v -5.70546584504 -90 254.392178722
v -6.07876128116 -90 254.799167251
v -6.42308865151 -90 255.230940116
v -6.73680707938 -90 255.685439724
v -7.0184215536 -90 256.160500176
v -7.26659005293 -90 256.653857594
v -7.48012994148 -90 257.163160904
v -7.65802360443 -90 257.685983044
v -7.79942329745 -90 258.219832528
v -7.90365518663 -90 258.762165322
v -7.97022255954 -90 259.310396961
v -7.99880819233 -90 259.861914873
v -7.98927586144 -90 260.414090823
v -7.94167099278 -90 260.964293442
v -7.85622044523 -90 261.509900764
v -7.73333142955 -90 262.04831272
v -7.57358956786 -90 262.576963534
v -7.37775610289 -90 263.093333944
v -7.14676427028 -90 263.594963208
v -6.88171485131 -90 264.079460835
v -6.58387092715 -90 264.544517974
v -6.25465185974 -90 264.987918415
v -5.89562652787 -90 265.407549153
v -5.50850585075 -90 265.801410457
v -5.09513463468 -90 266.167625398
v -4.65748278177 -90 266.504448796
v -4.19763590239 -90 266.810275533
v -3.71778537635 -90 267.083648205
v -3.22021790992 -90 267.323264068
v -2.70730463867 -90 267.527981243
v -2.18148982792 -90 267.696824159
v -1.64527922469 -90 267.828988202
v -1.1012281167 -90 267.923843552
v -0.551929155235 -90 267.980938178
v -1.95943487864e-15 -156 268
v 0.551929155235 -156 267.980938178
v 1.1012281167 -156 267.923843552
v 1.64527922469 -156 267.828988202
v 2.18148982792 -156 267.696824159
v 2.70730463867 -156 267.527981243
v 3.22021790992 -156 267.323264068
v 3.71778537635 -156 267.083648205
v 4.19763590239 -156 266.810275533
v 4.65748278177 -156 266.504448796
v 5.09513463468 -156 266.167625398
v 5.50850585075 -156 265.801410457
v 5.89562652787 -156 265.407549153
v 6.25465185974 -156 264.987918415
v 6.58387092715 -156 264.544517974
v 6.88171485131 -156 264.079460835
v 7.14676427028 -156 263.594963208
v 7.37775610289 -156 263.093333944
v 7.57358956786 -156 262.576963534
v 7.73333142955 -156 262.04831272
v 7.85622044523 -156 261.509900764
v 7.94167099278 -156 260.964293442
v 7.98927586144 -156 260.414090823
v 7.99880819233 -156 259.861914873
v 7.97022255954 -156 259.310396961
v 7.90365518663 -156 258.762165322
v 7.79942329745 -156 258.219832528
v 7.65802360443 -156 257.685983044
v 7.48012994148 -156 257.163160904
v 7.26659005293 -156 256.653857594
v 7.0184215536 -156 256.160500176
v 6.73680707938 -156 255.685439724
v 6.42308865151 -156 255.230940116
v 6.07876128116 -156 254.799167251
v 5.70546584504 -156 254.392178722
v 5.30498126593 -156 254.011914015
v 4.8792160352 -156 253.660185264
v 4.43019911808 -156 253.338668619
v 3.96007028467 -156 253.04889625
v 3.47106991294 -156 252.792249057
v 2.96552831236 -156 252.569950079
v 2.44585461888 -156 252.383058673
v 1.9145253143 -156 252.232465461
v 1.37407242473 -156 252.118888088
v 0.827071454307 -156 252.042867802
v 0.276129111758 -156 252.004766876
v -0.276129111758 -156 252.004766876
v -0.827071454307 -156 252.042867802
v -1.37407242473 -156 252.118888088
v -1.9145253143 -156 252.232465461
v -2.44585461888 -156 252.383058673
v -2.96552831236 -156 252.569950079
v -3.47106991294 -156 252.792249057
v -3.96007028467 -156 253.04889625
v -4.43019911808 -156 253.338668619
v -4.8792160352 -156 253.660185264
v -5.30498126593 -156 254.011914015
v -5.70546584504 -156 254.392178722
v -6.07876128116 -156 254.799167251
v -6.42308865151 -156 255.230940116
v -6.73680707938 -156 255.685439724
v -7.0184215536 -156 256.160500176
v -7.26659005293 -156 256.653857594
v -7.48012994148 -156 257.163160904
v -7.65802360443 -156 257.685983044
v -7.79942329745 -156 258.219832528
v -7.90365518663 -156 258.762165322
v -7.97022255954 -156 259.310396961
v -7.99880819233 -156 259.861914873
v -7.98927586144 -156 260.414090823
v -7.94167099278 -156 260.964293442
v -7.85622044523 -156 261.509900764
v -7.73333142955 -156 262.04831272
v -7.57358956786 -156 262.576963534
v -7.37775610289 -156 263.093333944
v -7.14676427028 -156 263.594963208
v -6.88171485131 -156 264.079460835
v -6.58387092715 -156 264.544517974
v -6.25465185974 -156 264.987918415
v -5.89562652787 -156 265.407549153
v -5.50850585075 -156 265.801410457
v -5.09513463468 -156 266.167625398
v -4.65748278177 -156 266.504448796
v -4.19763590239 -156 266.810275533
v -3.71778537635 -156 267.083648205
v -3.22021790992 -156 267.323264068
v -2.70730463867 -156 267.527981243
v -2.18148982792 -156 267.696824159
v -1.64527922469 -156 267.828988202
v -1.1012281167 -156 267.923843552
v -0.551929155235 -156 267.980938178
f 1 92 93
f 2 1 93
f 3 93 94
f 3 2 93
f 4 94 95
f 4 95 96
f 4 3 94
f 5 4 96
f 6 5 96
f 6 96 97
f 7 6 97
f 7 97 98
f 7 98 99
f 8 7 99
f 9 8 99
f 9 99 100
f 10 100 101
f 10 101 102
f 10 9 100
f 11 102 103
f 11 10 102
f 12 103 104
f 12 11 103
f 13 12 104
f 14 104 105
f 14 13 104
f 15 105 106
f 15 14 105
f 16 106 107
f 16 15 106
f 17 107 108
f 17 108 109
f 17 16 107
f 18 17 109
f 19 109 110
f 19 110 111
f 19 18 109
f 20 19 111
f 21 111 112
f 21 20 111
f 22 112 113
f 22 21 112
f 23 113 114
f 23 22 113
f 24 114 115
f 24 23 114
f 25 115 116
f 25 24 115
f 26 116 117
f 26 25 116
f 27 117 118
f 27 26 117
f 28 118 119
f 28 27 118
f 29 119 120
f 29 28 119
f 30 120 121
f 30 121 122
f 30 29 120
f 31 30 122
f 32 31 122
f 32 122 123
f 32 123 124
f 33 32 124
f 34 33 124
f 34 124 125
f 34 125 126
f 35 34 126
f 35 126 127
f 36 35 127
f 37 36 127
f 37 127 128
f 38 128 129
f 38 129 130
f 38 37 128
f 39 38 130
f 40 39 130
f 40 130 131
f 41 131 132
f 41 132 133
f 41 40 131
f 42 41 133
f 43 133 134
f 43 42 133
f 44 134 135
f 44 43 134
f 45 135 136
f 45 44 135
f 46 136 137
f 46 45 136
f 47 137 138
f 47 46 137
f 48 138 139
f 48 47 138
f 49 139 140
f 49 140 141
f 49 48 139
f 50 49 141
f 51 141 142
f 51 50 141
f 52 142 143
f 52 143 144
f 52 51 142
f 53 52 144
f 54 144 145
f 54 53 144
f 55 145 146
f 55 146 147
f 55 54 145
f 56 55 147
f 57 56 147
f 57 147 148
f 58 57 148
f 58 148 149
f 59 58 149
f 59 149 150
f 60 59 150
f 60 150 151
f 61 60 151
f 61 151 152
f 62 61 152
f 62 152 153
f 63 62 153
f 63 153 154
f 63 154 155
f 64 63 155
f 64 155 156
f 65 64 156
f 66 65 156
f 66 156 157
f 67 66 157
f 67 157 158
f 68 67 158
f 68 158 159
f 69 68 159
f 69 159 160
f 70 69 160
f 70 160 161
f 71 161 162
f 71 70 161
f 72 162 163
f 72 71 162
f 73 163 164
f 73 72 163
f 74 164 165
f 74 73 164
f 75 165 166
f 75 74 165
f 76 166 167
f 76 75 166
f 77 167 168
f 77 76 167
f 78 168 169
f 78 77 168
f 79 169 170
f 79 78 169
f 80 170 171
f 80 79 170
f 81 80 171
f 81 171 172
f 81 172 173
f 82 81 173
f 83 82 173
f 83 173 174
f 83 174 175
f 84 83 175
f 85 84 175
f 85 175 176
f 86 85 176
f 86 176 177
f 87 86 177
f 87 177 178
f 88 87 178
f 88 178 179
f 89 88 179
f 89 179 180
f 90 89 180
f 90 180 181
f 91 90 181
f 91 181 182
f 1 91 182
f 1 182 92
f 55 56 57
f 55 57 58
f 54 55 58
f 54 58 59
f 62 59 60
f 62 60 61
f 64 59 62
f 64 62 63
f 50 51 52
f 50 52 53
f 48 54 59
f 48 50 53
f 48 49 50
f 48 53 54
f 68 66 67
f 69 66 68
f 69 65 66
f 46 47 48
f 44 48 59
f 44 46 48
f 44 45 46
f 72 65 69
f 72 69 70
f 72 70 71
f 42 43 44
f 40 41 42
f 76 72 73
f 76 73 74
f 76 74 75
f 37 38 39
f 37 39 40
f 36 37 40
f 80 77 78
f 80 78 79
f 81 77 80
f 34 35 36
f 82 76 77
f 82 77 81
f 32 33 34
f 32 42 44
f 32 40 42
f 32 36 40
f 32 34 36
f 31 59 64
f 31 44 59
f 31 65 72
f 31 64 65
f 31 72 76
f 31 32 44
f 85 82 83
f 85 83 84
f 86 82 85
f 87 82 86
f 87 76 82
f 28 29 30
f 28 30 31
f 25 28 31
f 25 26 27
f 25 27 28
f 24 25 31
f 3 1 2
f 3 89 90
f 3 90 91
f 3 91 1
f 4 89 3
f 4 88 89
f 5 88 4
f 19 20 21
f 19 21 22
f 19 22 23
f 6 88 5
f 17 18 19
f 8 6 7
f 9 6 8
f 9 88 6
f 14 15 16
f 14 16 17
f 14 23 24
f 14 19 23
f 14 17 19
f 13 24 31
f 13 14 24
f 12 76 87
f 12 9 10
f 12 10 11
f 12 13 31
f 12 31 76
f 12 88 9
f 12 87 88
f 146 148 147
f 146 149 148
f 145 149 146
f 145 150 149
f 153 151 150
f 153 152 151
f 155 153 150
f 155 154 153
f 141 143 142
f 141 144 143
f 139 150 145
f 139 144 141
f 139 141 140
f 139 145 144
f 159 158 157
f 160 159 157
f 160 157 156
f 137 139 138
f 135 150 139
f 135 139 137
f 135 137 136
f 163 160 156
f 163 161 160
f 163 162 161
f 133 135 134
f 131 133 132
f 167 164 163
f 167 165 164
f 167 166 165
f 128 130 129
f 128 131 130
f 127 131 128
f 171 169 168
f 171 170 169
f 172 171 168
f 125 127 126
f 173 168 167
f 173 172 168
f 123 125 124
f 123 135 133
f 123 133 131
f 123 131 127
f 123 127 125
f 122 155 150
f 122 150 135
f 122 163 156
f 122 156 155
f 122 167 163
f 122 135 123
f 176 174 173
f 176 175 174
f 177 176 173
f 178 177 173
f 178 173 167
f 119 121 120
f 119 122 121
f 116 122 119
f 116 118 117
f 116 119 118
f 115 122 116
f 94 93 92
f 94 181 180
f 94 182 181
f 94 92 182
f 95 94 180
f 95 180 179
f 96 95 179
f 110 112 111
f 110 113 112
f 110 114 113
f 97 96 179
f 108 110 109
f 99 98 97
f 100 99 97
f 100 97 179
f 105 107 106
f 105 108 107
f 105 115 114
f 105 114 110
f 105 110 108
f 104 122 115
f 104 115 105
f 103 178 167
f 103 101 100
f 103 102 101
f 103 122 104
f 103 167 122
f 103 100 179
f 103 179 178
