# SimpleCAD BREP tessellation for MuJoCo
v 10 -2.44929359829e-15 5
v 9.97617272301 0.689911444043 5
v 9.90480443988 1.37653514587 5
v 9.78623525296 2.05659903086 5
v 9.62103019844 2.72686228489 5
v 9.40997655362 3.38413079834 5
v 9.15408008525 4.0252723874 5
v 8.85456025653 4.64723172044 5
v 8.51284441584 5.24704487799 5
v 8.13056099479 5.82185347721 5
v 7.70953174795 6.36891829335 5
v 7.25176307143 6.88563231343 5
v 6.75943644145 7.36953315984 5
v 6.23489801859 7.81831482468 5
v 5.68064746731 8.22983865894 5
v 5.0993260439 8.60214356414 5
v 4.49370400967 8.93345533786 5
v 3.86666742941 9.22219512862 5
v 3.22120441798 9.46698695983 5
v 2.56039090058 9.66666428693 5
v 1.88737595453 9.82027555653 5
v 1.20536680255 9.92708874098 5
v 0.517613528842 9.9865948268 5
v -0.172606409054 9.99851024041 5
v -0.862003798806 9.96277819942 5
v -1.5472933479 9.87956898329 5
v -2.22520933956 9.74927912182 5
v -2.89252119537 9.57252950554 5
v -3.54604887043 9.35016242685 5
v -4.18267800776 9.08323756617 5
v -4.7993747796 8.77302694199 5
v -5.39320034499 8.42100884923 5
v -5.96132485469 8.02886081439 5
v -6.50104093669 7.59845160145 5
v -7.00977659806 7.13183230631 5
v -7.48510748171 6.63122658241 5
v -7.92476841951 6.099020044 5
v -8.32666422687 5.53774889761 5
v -8.68887968725 4.95008785584 5
v -9.00968867902 4.33883739118 5
v -9.28756240125 3.70691039045 5
v -9.52117665911 3.0573182736 5
v -9.70941817426 2.39315664288 5
v -9.85138989017 1.71759053091 5
v -9.94641524695 1.03383931788 5
v -9.99404140551 0.345161389697 5
v -9.99404140551 -0.345161389697 5
v -9.94641524695 -1.03383931788 5
v -9.85138989017 -1.71759053091 5
v -9.70941817426 -2.39315664288 5
v -9.52117665911 -3.0573182736 5
v -9.28756240125 -3.70691039045 5
v -9.00968867902 -4.33883739118 5
v -8.68887968725 -4.95008785584 5
v -8.32666422687 -5.53774889761 5
v -7.92476841951 -6.099020044 5
v -7.48510748171 -6.63122658241 5
v -7.00977659806 -7.13183230631 5
v -6.50104093669 -7.59845160145 5
v -5.96132485469 -8.02886081439 5
v -5.39320034499 -8.42100884923 5
v -4.7993747796 -8.77302694199 5
v -4.18267800776 -9.08323756617 5
v -3.54604887043 -9.35016242685 5
v -2.89252119537 -9.57252950554 5
v -2.22520933956 -9.74927912182 5
v -1.5472933479 -9.87956898329 5
v -0.862003798806 -9.96277819942 5
v -0.172606409054 -9.99851024041 5
v 0.517613528842 -9.9865948268 5
v 1.20536680255 -9.92708874098 5
v 1.88737595453 -9.82027555653 5
v 2.56039090058 -9.66666428693 5
v 3.22120441798 -9.46698695983 5
v 3.86666742941 -9.22219512862 5
v 4.49370400967 -8.93345533786 5
v 5.0993260439 -8.60214356413 5
v 5.68064746731 -8.22983865894 5
v 6.23489801859 -7.81831482468 5
v 6.75943644145 -7.36953315984 5
v 7.25176307143 -6.88563231343 5
v 7.70953174795 -6.36891829335 5
v 8.13056099479 -5.82185347721 5
v 8.51284441584 -5.24704487799 5
v 8.85456025653 -4.64723172044 5
v 9.15408008525 -4.0252723874 5
v 9.40997655362 -3.38413079834 5
v 9.62103019844 -2.72686228489 5
v 9.78623525296 -2.05659903086 5
v 9.90480443988 -1.37653514587 5
v 9.97617272301 -0.689911444043 5
v 10 -2.44929359829e-15 0
v 9.97617272301 0.689911444043 0
v 9.90480443988 1.37653514587 0
v 9.78623525296 2.05659903086 0
v 9.62103019844 2.72686228489 0
v 9.40997655362 3.38413079834 0
v 9.15408008525 4.0252723874 0
v 8.85456025653 4.64723172044 0
v 8.51284441584 5.24704487799 0
v 8.13056099479 5.82185347721 0
v 7.70953174795 6.36891829335 0
v 7.25176307143 6.88563231343 0
v 6.75943644145 7.36953315984 0
v 6.23489801859 7.81831482468 0
v 5.68064746731 8.22983865894 0
v 5.0993260439 8.60214356414 0
v 4.49370400967 8.93345533786 0
v 3.86666742941 9.22219512862 0
v 3.22120441798 9.46698695983 0
v 2.56039090058 9.66666428693 0
v 1.88737595453 9.82027555653 0
v 1.20536680255 9.92708874098 0
v 0.517613528842 9.9865948268 0
v -0.172606409054 9.99851024041 0
v -0.862003798806 9.96277819942 0
v -1.5472933479 9.87956898329 0
v -2.22520933956 9.74927912182 0
v -2.89252119537 9.57252950554 0
v -3.54604887043 9.35016242685 0
v -4.18267800776 9.08323756617 0
v -4.7993747796 8.77302694199 0
v -5.39320034499 8.42100884923 0
v -5.96132485469 8.02886081439 0
v -6.50104093669 7.59845160145 0
v -7.00977659806 7.13183230631 0
v -7.48510748171 6.63122658241 0
v -7.92476841951 6.099020044 0
v -8.32666422687 5.53774889761 0
v -8.68887968725 4.95008785584 0
v -9.00968867902 4.33883739118 0
v -9.28756240125 3.70691039045 0
v -9.52117665911 3.0573182736 0
v -9.70941817426 2.39315664288 0
v -9.85138989017 1.71759053091 0
v -9.94641524695 1.03383931788 0
v -9.99404140551 0.345161389697 0
v -9.99404140551 -0.345161389697 0
v -9.94641524695 -1.03383931788 0
v -9.85138989017 -1.71759053091 0
v -9.70941817426 -2.39315664288 0
v -9.52117665911 -3.0573182736 0
v -9.28756240125 -3.70691039045 0
v -9.00968867902 -4.33883739118 0
v -8.68887968725 -4.95008785584 0
v -8.32666422687 -5.53774889761 0
v -7.92476841951 -6.099020044 0
v -7.48510748171 -6.63122658241 0
v -7.00977659806 -7.13183230631 0
v -6.50104093669 -7.59845160145 0
v -5.96132485469 -8.02886081439 0
v -5.39320034499 -8.42100884923 0
v -4.7993747796 -8.77302694199 0
v -4.18267800776 -9.08323756617 0
v -3.54604887043 -9.35016242685 0
v -2.89252119537 -9.57252950554 0
v -2.22520933956 -9.74927912182 0
v -1.5472933479 -9.87956898329 0
v -0.862003798806 -9.96277819942 0
v -0.172606409054 -9.99851024041 0
v 0.517613528842 -9.9865948268 0
v 1.20536680255 -9.92708874098 0
v 1.88737595453 -9.82027555653 0
v 2.56039090058 -9.66666428693 0
v 3.22120441798 -9.46698695983 0
v 3.86666742941 -9.22219512862 0
v 4.49370400967 -8.93345533786 0
v 5.0993260439 -8.60214356413 0
v 5.68064746731 -8.22983865894 0
v 6.23489801859 -7.81831482468 0
v 6.75943644145 -7.36953315984 0
v 7.25176307143 -6.88563231343 0
v 7.70953174795 -6.36891829335 0
v 8.13056099479 -5.82185347721 0
v 8.51284441584 -5.24704487799 0
v 8.85456025653 -4.64723172044 0
v 9.15408008525 -4.0252723874 0
v 9.40997655362 -3.38413079834 0
v 9.62103019844 -2.72686228489 0
v 9.78623525296 -2.05659903086 0
v 9.90480443988 -1.37653514587 0
v 9.97617272301 -0.689911444043 0
v 8.1 -1.98392781462e-15 5
v 8.08069990564 0.558828269675 5
v 8.0228915963 1.11499346816 5
v 7.9268505549 1.665845215 5
v 7.79303446073 2.20875845076 5
v 7.62208100844 2.74114594665 5
v 7.41480486906 3.26047063379 5
v 7.17219380779 3.76425769355 5
v 6.89540397683 4.25010635117 5
v 6.58575440578 4.71570131654 5
v 6.24472071584 5.15882381761 5
v 5.87392808786 5.57736217388 5
v 5.47514351757 5.96932185947 5
v 5.05026739506 6.33283500799 5
v 4.60132444852 6.66616931374 5
v 4.13045409556 6.96773628695 5
v 3.63990024783 7.23609882366 5
v 3.13200061783 7.46997805418 5
v 2.60917557857 7.66825943746 5
v 2.07391662947 7.82999807242 5
v 1.52877452317 7.95442320079 5
v 0.976347110068 8.04094188019 5
v 0.419266958362 8.08914180971 5
v -0.139811191334 8.09879329473 5
v -0.698223077033 8.06985034153 5
v -1.2533076118 8.00245087646 5
v -1.80241956505 7.89691608867 5
v -2.34294216825 7.75374889948 5
v -2.87229958504 7.57363156575 5
v -3.38796918628 7.3574224286 5
v -3.88749357147 7.10615182302 5
v -4.36849227944 6.82101716787 5
v -4.8286731323 6.50337725965 5
v -5.26584315872 6.15474579717 5
v -5.67791904443 5.77678416811 5
v -6.06293706019 5.37129353175 5
v -6.4190624198 4.94020623564 5
v -6.74459802377 4.48557660706 5
v -7.03799254667 4.00957116323 5
v -7.29784783001 3.51445828685 5
v -7.52292554501 3.00259741627 5
v -7.71215309388 2.47642780161 5
v -7.86462872115 1.93845688073 5
v -7.97962581104 1.39124833004 5
v -8.05659635003 0.837409847486 5
v -8.09517353846 0.279580725655 5
v -8.09517353846 -0.279580725655 5
v -8.05659635003 -0.837409847486 5
v -7.97962581104 -1.39124833004 5
v -7.86462872115 -1.93845688073 5
v -7.71215309388 -2.47642780161 5
v -7.52292554501 -3.00259741627 5
v -7.29784783001 -3.51445828685 5
v -7.03799254667 -4.00957116323 5
v -6.74459802377 -4.48557660706 5
v -6.4190624198 -4.94020623564 5
v -6.06293706019 -5.37129353175 5
v -5.67791904443 -5.77678416811 5
v -5.26584315872 -6.15474579717 5
v -4.8286731323 -6.50337725965 5
v -4.36849227944 -6.82101716787 5
v -3.88749357147 -7.10615182302 5
v -3.38796918628 -7.3574224286 5
v -2.87229958504 -7.57363156575 5
v -2.34294216825 -7.75374889948 5
v -1.80241956505 -7.89691608867 5
v -1.2533076118 -8.00245087646 5
v -0.698223077033 -8.06985034153 5
v -0.139811191334 -8.09879329473 5
v 0.419266958362 -8.08914180971 5
v 0.976347110068 -8.04094188019 5
v 1.52877452317 -7.95442320079 5
v 2.07391662947 -7.82999807242 5
v 2.60917557857 -7.66825943746 5
v 3.13200061783 -7.46997805418 5
v 3.63990024783 -7.23609882366 5
v 4.13045409556 -6.96773628695 5
v 4.60132444852 -6.66616931374 5
v 5.05026739506 -6.33283500799 5
v 5.47514351757 -5.96932185947 5
v 5.87392808786 -5.57736217388 5
v 6.24472071584 -5.15882381761 5
v 6.58575440578 -4.71570131654 5
v 6.89540397683 -4.25010635117 5
v 7.17219380779 -3.76425769355 5
v 7.41480486906 -3.26047063379 5
v 7.62208100844 -2.74114594665 5
v 7.79303446073 -2.20875845076 5
v 7.9268505549 -1.665845215 5
v 8.0228915963 -1.11499346816 5
v 8.08069990564 -0.558828269675 5
v 8.1 -1.98392781462e-15 0
v 8.08069990564 0.558828269675 0
v 8.0228915963 1.11499346816 0
v 7.9268505549 1.665845215 0
v 7.79303446073 2.20875845076 0
v 7.62208100844 2.74114594665 0
v 7.41480486906 3.26047063379 0
v 7.17219380779 3.76425769355 0
v 6.89540397683 4.25010635117 0
v 6.58575440578 4.71570131654 0
v 6.24472071584 5.15882381761 0
v 5.87392808786 5.57736217388 0
v 5.47514351757 5.96932185947 0
v 5.05026739506 6.33283500799 0
v 4.60132444852 6.66616931374 0
v 4.13045409556 6.96773628695 0
v 3.63990024783 7.23609882366 0
v 3.13200061783 7.46997805418 0
v 2.60917557857 7.66825943746 0
v 2.07391662947 7.82999807242 0
v 1.52877452317 7.95442320079 0
v 0.976347110068 8.04094188019 0
v 0.419266958362 8.08914180971 0
v -0.139811191334 8.09879329473 0
v -0.698223077033 8.06985034153 0
v -1.2533076118 8.00245087646 0
v -1.80241956505 7.89691608867 0
v -2.34294216825 7.75374889948 0
v -2.87229958504 7.57363156575 0
v -3.38796918628 7.3574224286 0
v -3.88749357147 7.10615182302 0
v -4.36849227944 6.82101716787 0
v -4.8286731323 6.50337725965 0
v -5.26584315872 6.15474579717 0
v -5.67791904443 5.77678416811 0
v -6.06293706019 5.37129353175 0
v -6.4190624198 4.94020623564 0
v -6.74459802377 4.48557660706 0
v -7.03799254667 4.00957116323 0
v -7.29784783001 3.51445828685 0
v -7.52292554501 3.00259741627 0
v -7.71215309388 2.47642780161 0
v -7.86462872115 1.93845688073 0
v -7.97962581104 1.39124833004 0
v -8.05659635003 0.837409847486 0
v -8.09517353846 0.279580725655 0
v -8.09517353846 -0.279580725655 0
v -8.05659635003 -0.837409847486 0
v -7.97962581104 -1.39124833004 0
v -7.86462872115 -1.93845688073 0
v -7.71215309388 -2.47642780161 0
v -7.52292554501 -3.00259741627 0
v -7.29784783001 -3.51445828685 0
v -7.03799254667 -4.00957116323 0
v -6.74459802377 -4.48557660706 0
v -6.4190624198 -4.94020623564 0
v -6.06293706019 -5.37129353175 0
v -5.67791904443 -5.77678416811 0
v -5.26584315872 -6.15474579717 0
v -4.8286731323 -6.50337725965 0
v -4.36849227944 -6.82101716787 0
v -3.88749357147 -7.10615182302 0
v -3.38796918628 -7.3574224286 0
v -2.87229958504 -7.57363156575 0
v -2.34294216825 -7.75374889948 0
v -1.80241956505 -7.89691608867 0
v -1.2533076118 -8.00245087646 0
v -0.698223077033 -8.06985034153 0
v -0.139811191334 -8.09879329473 0
v 0.419266958362 -8.08914180971 0
v 0.976347110068 -8.04094188019 0
v 1.52877452317 -7.95442320079 0
v 2.07391662947 -7.82999807242 0
v 2.60917557857 -7.66825943746 0
v 3.13200061783 -7.46997805418 0
v 3.63990024783 -7.23609882366 0
v 4.13045409556 -6.96773628695 0
v 4.60132444852 -6.66616931374 0
v 5.05026739506 -6.33283500799 0
v 5.47514351757 -5.96932185947 0
v 5.87392808786 -5.57736217388 0
v 6.24472071584 -5.15882381761 0
v 6.58575440578 -4.71570131654 0
v 6.89540397683 -4.25010635117 0
v 7.17219380779 -3.76425769355 0
v 7.41480486906 -3.26047063379 0
v 7.62208100844 -2.74114594665 0
v 7.79303446073 -2.20875845076 0
v 7.9268505549 -1.665845215 0
v 8.0228915963 -1.11499346816 0
v 8.08069990564 -0.558828269675 0
f 2 1 92
f 2 92 93
f 3 93 94
f 3 2 93
f 4 94 95
f 4 3 94
f 5 4 95
f 5 95 96
f 6 5 96
f 6 96 97
f 7 6 97
f 7 97 98
f 8 7 98
f 8 98 99
f 9 8 99
f 9 99 100
f 10 100 101
f 10 9 100
f 11 101 102
f 11 10 101
f 12 102 103
f 12 11 102
f 13 103 104
f 13 12 103
f 14 104 105
f 14 13 104
f 15 105 106
f 15 14 105
f 16 106 107
f 16 107 108
f 16 15 106
f 17 16 108
f 18 108 109
f 18 17 108
f 19 109 110
f 19 18 109
f 20 110 111
f 20 19 110
f 21 111 112
f 21 112 113
f 21 20 111
f 22 113 114
f 22 21 113
f 23 22 114
f 24 114 115
f 24 23 114
f 25 115 116
f 25 24 115
f 26 116 117
f 26 25 116
f 27 117 118
f 27 118 119
f 27 26 117
f 28 27 119
f 29 119 120
f 29 28 119
f 30 29 120
f 30 120 121
f 30 121 122
f 31 30 122
f 32 31 122
f 32 122 123
f 32 123 124
f 33 32 124
f 34 33 124
f 34 124 125
f 35 34 125
f 35 125 126
f 36 126 127
f 36 35 126
f 37 127 128
f 37 128 129
f 37 36 127
f 38 37 129
f 39 129 130
f 39 130 131
f 39 38 129
f 40 39 131
f 41 131 132
f 41 40 131
f 42 132 133
f 42 41 132
f 43 133 134
f 43 42 133
f 44 134 135
f 44 135 136
f 44 43 134
f 45 44 136
f 46 136 137
f 46 137 138
f 46 45 136
f 47 46 138
f 48 138 139
f 48 47 138
f 49 139 140
f 49 48 139
f 50 140 141
f 50 49 140
f 51 141 142
f 51 50 141
f 52 142 143
f 52 51 142
f 53 143 144
f 53 52 143
f 54 144 145
f 54 145 146
f 54 53 144
f 55 54 146
f 56 55 146
f 56 146 147
f 57 56 147
f 57 147 148
f 57 148 149
f 58 57 149
f 59 58 149
f 59 149 150
f 60 59 150
f 60 150 151
f 61 60 151
f 61 151 152
f 62 61 152
f 62 152 153
f 63 62 153
f 63 153 154
f 64 63 154
f 64 154 155
f 65 64 155
f 65 155 156
f 66 65 156
f 66 156 157
f 67 66 157
f 67 157 158
f 67 158 159
f 68 67 159
f 68 159 160
f 69 68 160
f 70 69 160
f 70 160 161
f 71 161 162
f 71 70 161
f 72 162 163
f 72 71 162
f 73 163 164
f 73 164 165
f 73 72 163
f 74 165 166
f 74 73 165
f 75 74 166
f 76 166 167
f 76 75 166
f 77 167 168
f 77 168 169
f 77 76 167
f 78 77 169
f 79 169 170
f 79 78 169
f 80 170 171
f 80 171 172
f 80 79 170
f 81 80 172
f 82 81 172
f 82 172 173
f 83 82 173
f 83 173 174
f 84 83 174
f 84 174 175
f 85 84 175
f 85 175 176
f 85 176 177
f 86 85 177
f 87 86 177
f 87 177 178
f 88 87 178
f 88 178 179
f 88 179 180
f 89 88 180
f 90 89 180
f 90 180 181
f 91 90 181
f 91 181 182
f 1 91 182
f 1 182 92
f 240 58 59
f 239 58 240
f 239 57 58
f 241 240 59
f 238 57 239
f 238 56 57
f 242 241 59
f 242 59 60
f 237 56 238
f 237 55 56
f 243 60 61
f 243 242 60
f 236 55 237
f 236 54 55
f 244 61 62
f 244 243 61
f 235 54 236
f 235 52 53
f 235 53 54
f 245 244 62
f 245 62 63
f 234 52 235
f 234 51 52
f 246 245 63
f 246 63 64
f 246 64 65
f 233 50 51
f 233 51 234
f 247 246 65
f 247 65 66
f 232 50 233
f 248 247 66
f 231 49 50
f 231 50 232
f 249 248 66
f 249 66 67
f 230 49 231
f 230 48 49
f 250 249 67
f 250 67 68
f 229 47 48
f 229 48 230
f 251 68 69
f 251 250 68
f 228 46 47
f 228 47 229
f 252 69 70
f 252 70 71
f 252 251 69
f 227 45 46
f 227 46 228
f 253 71 72
f 253 252 71
f 226 45 227
f 226 44 45
f 254 253 72
f 225 44 226
f 225 43 44
f 255 72 73
f 255 254 72
f 224 43 225
f 224 42 43
f 256 255 73
f 256 73 74
f 256 74 75
f 223 42 224
f 223 41 42
f 257 256 75
f 222 41 223
f 222 40 41
f 258 257 75
f 258 75 76
f 77 258 76
f 221 39 40
f 221 40 222
f 259 258 77
f 220 39 221
f 220 38 39
f 260 259 77
f 260 77 78
f 219 37 38
f 219 38 220
f 261 260 78
f 261 78 79
f 36 37 219
f 218 36 219
f 262 261 79
f 262 79 80
f 35 218 217
f 35 36 218
f 263 262 80
f 81 263 80
f 216 35 217
f 264 263 81
f 34 35 216
f 82 264 81
f 33 216 215
f 33 34 216
f 83 265 264
f 83 264 82
f 214 33 215
f 32 33 214
f 84 266 265
f 84 265 83
f 31 214 213
f 31 32 214
f 85 267 266
f 85 266 84
f 30 31 213
f 30 212 211
f 30 213 212
f 86 267 85
f 86 268 267
f 86 269 268
f 29 30 211
f 87 269 86
f 28 210 209
f 28 211 210
f 28 29 211
f 88 269 87
f 88 270 269
f 27 28 209
f 27 209 208
f 89 270 88
f 89 271 270
f 89 272 271
f 26 208 207
f 26 27 208
f 90 272 89
f 90 273 272
f 25 26 207
f 91 273 90
f 24 207 206
f 24 25 207
f 1 273 91
f 1 183 273
f 1 184 183
f 23 205 204
f 23 206 205
f 23 24 206
f 2 184 1
f 22 23 204
f 3 184 2
f 3 185 184
f 21 204 203
f 21 22 204
f 4 185 3
f 4 186 185
f 20 203 202
f 20 21 203
f 5 187 186
f 5 188 187
f 5 186 4
f 19 201 200
f 19 202 201
f 19 20 202
f 6 188 5
f 18 19 200
f 7 188 6
f 7 189 188
f 7 190 189
f 17 200 199
f 17 18 200
f 8 190 7
f 8 191 190
f 16 199 198
f 16 17 199
f 9 191 8
f 15 197 196
f 15 198 197
f 15 16 198
f 10 191 9
f 10 192 191
f 14 196 195
f 14 15 196
f 11 193 192
f 11 192 10
f 13 195 194
f 13 14 195
f 12 194 193
f 12 13 194
f 12 193 11
f 331 150 149
f 330 331 149
f 330 149 148
f 332 150 331
f 329 330 148
f 329 148 147
f 333 150 332
f 333 151 150
f 328 329 147
f 328 147 146
f 334 152 151
f 334 151 333
f 327 328 146
f 327 146 145
f 335 153 152
f 335 152 334
f 326 327 145
f 326 144 143
f 326 145 144
f 336 153 335
f 336 154 153
f 325 326 143
f 325 143 142
f 337 154 336
f 337 155 154
f 337 156 155
f 324 142 141
f 324 325 142
f 338 156 337
f 338 157 156
f 323 324 141
f 339 157 338
f 322 141 140
f 322 323 141
f 340 157 339
f 340 158 157
f 321 322 140
f 321 140 139
f 341 158 340
f 341 159 158
f 320 139 138
f 320 321 139
f 342 160 159
f 342 159 341
f 319 138 137
f 319 320 138
f 343 161 160
f 343 162 161
f 343 160 342
f 318 137 136
f 318 319 137
f 344 163 162
f 344 162 343
f 317 318 136
f 317 136 135
f 345 163 344
f 316 317 135
f 316 135 134
f 346 164 163
f 346 163 345
f 315 316 134
f 315 134 133
f 347 164 346
f 347 165 164
f 347 166 165
f 314 315 133
f 314 133 132
f 348 166 347
f 313 314 132
f 313 132 131
f 349 166 348
f 349 167 166
f 168 167 349
f 312 131 130
f 312 313 131
f 350 168 349
f 311 312 130
f 311 130 129
f 351 168 350
f 351 169 168
f 310 129 128
f 310 311 129
f 352 169 351
f 352 170 169
f 127 310 128
f 309 310 127
f 353 170 352
f 353 171 170
f 126 308 309
f 126 309 127
f 354 171 353
f 172 171 354
f 307 308 126
f 355 172 354
f 125 307 126
f 173 172 355
f 124 306 307
f 124 307 125
f 174 355 356
f 174 173 355
f 305 306 124
f 123 305 124
f 175 356 357
f 175 174 356
f 122 304 305
f 122 305 123
f 176 357 358
f 176 175 357
f 121 304 122
f 121 302 303
f 121 303 304
f 177 176 358
f 177 358 359
f 177 359 360
f 120 302 121
f 178 177 360
f 119 300 301
f 119 301 302
f 119 302 120
f 179 178 360
f 179 360 361
f 118 300 119
f 118 299 300
f 180 179 361
f 180 361 362
f 180 362 363
f 117 298 299
f 117 299 118
f 181 180 363
f 181 363 364
f 116 298 117
f 182 181 364
f 115 297 298
f 115 298 116
f 92 182 364
f 92 364 274
f 92 274 275
f 114 295 296
f 114 296 297
f 114 297 115
f 93 92 275
f 113 295 114
f 94 93 275
f 94 275 276
f 112 294 295
f 112 295 113
f 95 94 276
f 95 276 277
f 111 293 294
f 111 294 112
f 96 277 278
f 96 278 279
f 96 95 277
f 110 291 292
f 110 292 293
f 110 293 111
f 97 96 279
f 109 291 110
f 98 97 279
f 98 279 280
f 98 280 281
f 108 290 291
f 108 291 109
f 99 98 281
f 99 281 282
f 107 289 290
f 107 290 108
f 100 99 282
f 106 287 288
f 106 288 289
f 106 289 107
f 101 100 282
f 101 282 283
f 105 286 287
f 105 287 106
f 102 283 284
f 102 101 283
f 104 285 286
f 104 286 105
f 103 284 285
f 103 285 104
f 103 102 284
f 184 274 183
f 184 275 274
f 185 276 275
f 185 275 184
f 186 277 276
f 186 276 185
f 187 277 186
f 187 278 277
f 188 278 187
f 188 279 278
f 189 279 188
f 189 280 279
f 190 280 189
f 190 281 280
f 191 281 190
f 191 282 281
f 192 283 282
f 192 282 191
f 193 284 283
f 193 285 284
f 193 283 192
f 194 285 193
f 195 286 285
f 195 285 194
f 196 287 286
f 196 288 287
f 196 286 195
f 197 288 196
f 198 289 288
f 198 288 197
f 199 290 289
f 199 289 198
f 200 291 290
f 200 290 199
f 201 292 291
f 201 291 200
f 202 293 292
f 202 292 201
f 203 294 293
f 203 295 294
f 203 293 202
f 204 296 295
f 204 295 203
f 205 296 204
f 206 297 296
f 206 296 205
f 207 298 297
f 207 299 298
f 207 297 206
f 208 299 207
f 209 300 299
f 209 301 300
f 209 299 208
f 210 301 209
f 211 302 301
f 211 301 210
f 212 303 302
f 212 302 211
f 213 303 212
f 213 304 303
f 213 305 304
f 214 305 213
f 215 305 214
f 215 306 305
f 216 306 215
f 216 307 306
f 217 307 216
f 217 308 307
f 218 309 308
f 218 308 217
f 219 310 309
f 219 309 218
f 220 311 310
f 220 312 311
f 220 310 219
f 221 312 220
f 222 312 221
f 222 313 312
f 222 314 313
f 223 314 222
f 224 315 314
f 224 314 223
f 225 316 315
f 225 315 224
f 226 317 316
f 226 316 225
f 227 318 317
f 227 317 226
f 228 319 318
f 228 318 227
f 229 320 319
f 229 319 228
f 230 321 320
f 230 320 229
f 231 322 321
f 231 323 322
f 231 321 230
f 232 323 231
f 233 324 323
f 233 323 232
f 234 325 324
f 234 326 325
f 234 324 233
f 235 326 234
f 236 327 326
f 236 326 235
f 237 328 327
f 237 327 236
f 238 328 237
f 238 329 328
f 239 329 238
f 239 330 329
f 240 330 239
f 240 331 330
f 240 332 331
f 241 332 240
f 242 332 241
f 242 333 332
f 243 333 242
f 243 334 333
f 243 335 334
f 244 335 243
f 245 335 244
f 245 336 335
f 246 336 245
f 246 337 336
f 247 337 246
f 247 338 337
f 248 338 247
f 248 339 338
f 249 339 248
f 249 340 339
f 250 340 249
f 250 341 340
f 251 341 250
f 251 342 341
f 252 342 251
f 252 343 342
f 253 344 343
f 253 345 344
f 253 343 252
f 254 345 253
f 255 346 345
f 255 345 254
f 256 347 346
f 256 346 255
f 257 348 347
f 257 347 256
f 258 349 348
f 258 348 257
f 259 350 349
f 259 349 258
f 260 351 350
f 260 350 259
f 261 352 351
f 261 351 260
f 262 353 352
f 262 352 261
f 263 353 262
f 263 354 353
f 264 354 263
f 264 355 354
f 264 356 355
f 265 356 264
f 266 356 265
f 266 357 356
f 267 357 266
f 267 358 357
f 268 358 267
f 268 359 358
f 268 360 359
f 269 360 268
f 270 360 269
f 270 361 360
f 271 361 270
f 271 362 361
f 272 362 271
f 272 363 362
f 273 363 272
f 273 364 363
f 183 364 273
f 183 274 364
