# SimpleCAD BREP tessellation for MuJoCo
v 3.2 -7.83773951454e-16 2.4
v 3.19237527136 0.220771662094 2.4
v 3.16953742076 0.440491246679 2.4
v 3.13159528095 0.658111689875 2.4
v 3.0787296635 0.872595931166 2.4
v 3.01119249716 1.08292185547 2.4
v 2.92930562728 1.28808716397 2.4
v 2.83345928209 1.48711415054 2.4
v 2.72411021307 1.67905436096 2.4
v 2.60177951833 1.86299311271 2.4
v 2.46705015934 2.03805385387 2.4
v 2.32056418286 2.2034023403 2.4
v 2.16301966126 2.35825061115 2.4
v 1.99516736595 2.5018607439 2.4
v 1.81780718954 2.63354837086 2.4
v 1.63178433405 2.75268594052 2.4
v 1.43798528309 2.85870570811 2.4
v 1.23733357741 2.95110244116 2.4
v 1.03078541376 3.02943582714 2.4
v 0.819325088184 3.09333257182 2.4
v 0.603960305449 3.14248817809 2.4
v 0.385717376817 3.17666839711 2.4
v 0.165636329229 3.19571034458 2.4
v -0.0552340508972 3.19952327693 2.4
v -0.275841215618 3.18808902381 2.4
v -0.495133871329 3.16146207465 2.4
v -0.71206698866 3.11976931898 2.4
v -0.925606782517 3.06320944177 2.4
v -1.13473563854 2.99205197659 2.4
v -1.33845696248 2.90663602117 2.4
v -1.53579992947 2.80736862144 2.4
v -1.7258241104 2.69472283175 2.4
v -1.9076239535 2.5692354606 2.4
v -2.08033309974 2.43150451246 2.4
v -2.24312851138 2.28218633802 2.4
v -2.39523439415 2.12199250637 2.4
v -2.53592589424 1.95168641408 2.4
v -2.6645325526 1.77207964723 2.4
v -2.78044149992 1.58402811387 2.4
v -2.88310037729 1.38842796518 2.4
v -2.9720199684 1.18621132494 2.4
v -3.04677653091 0.978341847551 2.4
v -3.10701381576 0.76581012572 2.4
v -3.15244476485 0.549628969892 2.4
v -3.18285287902 0.330828581723 2.4
v -3.19809324976 0.110451644703 2.4
v -3.19809324976 -0.110451644703 2.4
v -3.18285287902 -0.330828581723 2.4
v -3.15244476485 -0.549628969892 2.4
v -3.10701381576 -0.76581012572 2.4
v -3.04677653091 -0.978341847551 2.4
v -2.9720199684 -1.18621132494 2.4
v -2.88310037729 -1.38842796518 2.4
v -2.78044149992 -1.58402811387 2.4
v -2.6645325526 -1.77207964723 2.4
v -2.53592589424 -1.95168641408 2.4
v -2.39523439415 -2.12199250637 2.4
v -2.24312851138 -2.28218633802 2.4
v -2.08033309974 -2.43150451246 2.4
v -1.9076239535 -2.5692354606 2.4
v -1.7258241104 -2.69472283175 2.4
v -1.53579992947 -2.80736862144 2.4
v -1.33845696248 -2.90663602117 2.4
v -1.13473563854 -2.99205197659 2.4
v -0.925606782517 -3.06320944177 2.4
v -0.71206698866 -3.11976931898 2.4
v -0.495133871329 -3.16146207465 2.4
v -0.275841215618 -3.18808902381 2.4
v -0.0552340508972 -3.19952327693 2.4
v 0.165636329229 -3.19571034458 2.4
v 0.385717376817 -3.17666839711 2.4
v 0.603960305449 -3.14248817809 2.4
v 0.819325088184 -3.09333257182 2.4
v 1.03078541376 -3.02943582714 2.4
v 1.23733357741 -2.95110244116 2.4
v 1.43798528309 -2.85870570811 2.4
v 1.63178433405 -2.75268594052 2.4
v 1.81780718954 -2.63354837086 2.4
v 1.99516736595 -2.5018607439 2.4
v 2.16301966126 -2.35825061115 2.4
v 2.32056418286 -2.2034023403 2.4
v 2.46705015934 -2.03805385387 2.4
v 2.60177951833 -1.86299311271 2.4
v 2.72411021307 -1.67905436096 2.4
v 2.83345928209 -1.48711415054 2.4
v 2.92930562728 -1.28808716397 2.4
v 3.01119249716 -1.08292185547 2.4
v 3.0787296635 -0.872595931166 2.4
v 3.13159528095 -0.658111689875 2.4
v 3.16953742076 -0.440491246679 2.4
v 3.19237527136 -0.220771662094 2.4
v 3.2 -7.83773951454e-16 0
v 3.19237527136 0.220771662094 0
v 3.16953742076 0.440491246679 0
v 3.13159528095 0.658111689875 0
v 3.0787296635 0.872595931166 0
v 3.01119249716 1.08292185547 0
v 2.92930562728 1.28808716397 0
v 2.83345928209 1.48711415054 0
v 2.72411021307 1.67905436096 0
v 2.60177951833 1.86299311271 0
v 2.46705015934 2.03805385387 0
v 2.32056418286 2.2034023403 0
v 2.16301966126 2.35825061115 0
v 1.99516736595 2.5018607439 0
v 1.81780718954 2.63354837086 0
v 1.63178433405 2.75268594052 0
v 1.43798528309 2.85870570811 0
v 1.23733357741 2.95110244116 0
v 1.03078541376 3.02943582714 0
v 0.819325088184 3.09333257182 0
v 0.603960305449 3.14248817809 0
v 0.385717376817 3.17666839711 0
v 0.165636329229 3.19571034458 0
v -0.0552340508972 3.19952327693 0
v -0.275841215618 3.18808902381 0
v -0.495133871329 3.16146207465 0
v -0.71206698866 3.11976931898 0
v -0.925606782517 3.06320944177 0
v -1.13473563854 2.99205197659 0
v -1.33845696248 2.90663602117 0
v -1.53579992947 2.80736862144 0
v -1.7258241104 2.69472283175 0
v -1.9076239535 2.5692354606 0
v -2.08033309974 2.43150451246 0
v -2.24312851138 2.28218633802 0
v -2.39523439415 2.12199250637 0
v -2.53592589424 1.95168641408 0
v -2.6645325526 1.77207964723 0
v -2.78044149992 1.58402811387 0
v -2.88310037729 1.38842796518 0
v -2.9720199684 1.18621132494 0
v -3.04677653091 0.978341847551 0
v -3.10701381576 0.76581012572 0
v -3.15244476485 0.549628969892 0
v -3.18285287902 0.330828581723 0
v -3.19809324976 0.110451644703 0
v -3.19809324976 -0.110451644703 0
v -3.18285287902 -0.330828581723 0
v -3.15244476485 -0.549628969892 0
v -3.10701381576 -0.76581012572 0
v -3.04677653091 -0.978341847551 0
v -2.9720199684 -1.18621132494 0
v -2.88310037729 -1.38842796518 0
v -2.78044149992 -1.58402811387 0
v -2.6645325526 -1.77207964723 0
v -2.53592589424 -1.95168641408 0
v -2.39523439415 -2.12199250637 0
v -2.24312851138 -2.28218633802 0
v -2.08033309974 -2.43150451246 0
v -1.9076239535 -2.5692354606 0
v -1.7258241104 -2.69472283175 0
v -1.53579992947 -2.80736862144 0
v -1.33845696248 -2.90663602117 0
v -1.13473563854 -2.99205197659 0
v -0.925606782517 -3.06320944177 0
v -0.71206698866 -3.11976931898 0
v -0.495133871329 -3.16146207465 0
v -0.275841215618 -3.18808902381 0
v -0.0552340508972 -3.19952327693 0
v 0.165636329229 -3.19571034458 0
v 0.385717376817 -3.17666839711 0
v 0.603960305449 -3.14248817809 0
v 0.819325088184 -3.09333257182 0
v 1.03078541376 -3.02943582714 0
v 1.23733357741 -2.95110244116 0
v 1.43798528309 -2.85870570811 0
v 1.63178433405 -2.75268594052 0
v 1.81780718954 -2.63354837086 0
v 1.99516736595 -2.5018607439 0
v 2.16301966126 -2.35825061115 0
v 2.32056418286 -2.2034023403 0
v 2.46705015934 -2.03805385387 0
v 2.60177951833 -1.86299311271 0
v 2.72411021307 -1.67905436096 0
v 2.83345928209 -1.48711415054 0
v 2.92930562728 -1.28808716397 0
v 3.01119249716 -1.08292185547 0
v 3.0787296635 -0.872595931166 0
v 3.13159528095 -0.658111689875 0
v 3.16953742076 -0.440491246679 0
v 3.19237527136 -0.220771662094 0
v 0.9 -2.20436423847e-16 2.4
v 0.897855545071 0.0620920299639 2.4
v 0.891432399589 0.123888163128 2.4
v 0.880761172766 0.185093912777 2.4
v 0.865892717859 0.245417605641 2.4
v 0.846897889826 0.30457177185 2.4
v 0.823867207673 0.362274514866 2.4
v 0.796910423088 0.418250854839 2.4
v 0.766155997426 0.472234039019 2.4
v 0.731750489531 0.523966812949 2.4
v 0.693857857315 0.573202646401 2.4
v 0.652658676429 0.619706908209 2.4
v 0.60834927973 0.663257984386 2.4
v 0.561140821673 0.703648334221 2.4
v 0.511258272058 0.740685479304 2.4
v 0.458939343951 0.774192920772 2.4
v 0.40443336087 0.804010980407 2.4
v 0.348000068647 0.829997561576 2.4
v 0.289908397619 0.852028826385 2.4
v 0.230435181052 0.869999785824 2.4
v 0.169863835908 0.883824800088 2.4
v 0.10848301223 0.893437986688 2.4
v 0.0465852175958 0.898793534412 2.4
v -0.0155345768149 0.899865921637 2.4
v -0.0775803418926 0.896650037948 2.4
v -0.139256401311 0.889161208496 2.4
v -0.200268840561 0.877435120964 2.4
v -0.260326907583 0.861527655498 2.4
v -0.319144398338 0.841514618417 2.4
v -0.376441020698 0.817491380955 2.4
v -0.431943730164 0.789572424779 2.4
v -0.485388031049 0.757890796431 2.4
v -0.536519236922 0.722597473295 2.4
v -0.585093684302 0.68386064413 2.4
v -0.630879893826 0.641864907568 2.4
v -0.673659673354 0.596810392417 2.4
v -0.713229157756 0.54891180396 2.4
v -0.749399780418 0.498397400784 2.4
v -0.781999171853 0.445507907025 2.4
v -0.810871981112 0.390495365206 2.4
v -0.835880616113 0.333621935141 2.4
v -0.85690589932 0.275158644624 2.4
v -0.873847635683 0.215384097859 2.4
v -0.886625090115 0.154583147782 2.4
v -0.895177372226 0.0930455386095 2.4
v -0.899463726496 0.0310645250727 2.4
v -0.899463726496 -0.0310645250727 2.4
v -0.895177372226 -0.0930455386095 2.4
v -0.886625090115 -0.154583147782 2.4
v -0.873847635683 -0.215384097859 2.4
v -0.85690589932 -0.275158644624 2.4
v -0.835880616113 -0.333621935141 2.4
v -0.810871981112 -0.390495365206 2.4
v -0.781999171853 -0.445507907025 2.4
v -0.749399780418 -0.498397400784 2.4
v -0.713229157756 -0.54891180396 2.4
v -0.673659673354 -0.596810392417 2.4
v -0.630879893826 -0.641864907568 2.4
v -0.585093684302 -0.68386064413 2.4
v -0.536519236922 -0.722597473295 2.4
v -0.485388031049 -0.757890796431 2.4
v -0.431943730164 -0.789572424779 2.4
v -0.376441020698 -0.817491380955 2.4
v -0.319144398338 -0.841514618417 2.4
v -0.260326907583 -0.861527655498 2.4
v -0.200268840561 -0.877435120964 2.4
v -0.139256401311 -0.889161208496 2.4
v -0.0775803418926 -0.896650037948 2.4
v -0.0155345768148 -0.899865921637 2.4
v 0.0465852175958 -0.898793534412 2.4
v 0.10848301223 -0.893437986688 2.4
v 0.169863835908 -0.883824800088 2.4
v 0.230435181052 -0.869999785824 2.4
v 0.289908397619 -0.852028826385 2.4
v 0.348000068647 -0.829997561576 2.4
v 0.40443336087 -0.804010980407 2.4
v 0.458939343951 -0.774192920772 2.4
v 0.511258272058 -0.740685479304 2.4
v 0.561140821673 -0.703648334221 2.4
v 0.60834927973 -0.663257984386 2.4
v 0.652658676429 -0.619706908209 2.4
v 0.693857857315 -0.573202646401 2.4
v 0.731750489531 -0.523966812949 2.4
v 0.766155997426 -0.472234039019 2.4
v 0.796910423088 -0.418250854839 2.4
v 0.823867207673 -0.362274514866 2.4
v 0.846897889826 -0.30457177185 2.4
v 0.865892717859 -0.245417605641 2.4
v 0.880761172766 -0.185093912777 2.4
v 0.891432399589 -0.123888163128 2.4
v 0.897855545071 -0.0620920299639 2.4
v 1.9 -4.65365783676e-16 0
v 1.89547281737 0.131083174368 0
v 1.88191284358 0.261541677716 0
v 1.85938469806 0.390753815863 0
v 1.8279957377 0.51810383413 0
v 1.78789554519 0.642984851684 0
v 1.7392752162 0.764801753606 0
v 1.68236644874 0.882974026883 0
v 1.61744043901 0.996938526818 0
v 1.54480658901 1.10615216067 0
v 1.46481103211 1.21009447574 0
v 1.37783498357 1.30827013955 0
v 1.28429292388 1.40021130037 0
v 1.18463062353 1.48547981669 0
v 1.07932301879 1.5636693452 0
v 0.968871948341 1.63440727719 0
v 0.853803761838 1.69735651419 0
v 0.734666811589 1.75221707444 0
v 0.612028839417 1.79872752237 0
v 0.486474271109 1.83666621452 0
v 0.358601431361 1.86585235574 0
v 0.229019692485 1.88614686079 0
v 0.09834657048 1.89745301709 0
v -0.0327952177202 1.89971694568 0
v -0.163780721773 1.89292785789 0
v -0.293985736102 1.87711810682 0
v -0.422789774517 1.85236303315 0
v -0.549579027119 1.81878060605 0
v -0.673749285381 1.7765308611 0
v -0.794708821474 1.72581513757 0
v -0.911881208124 1.66687511898 0
v -1.02470806555 1.59999168135 0
v -1.13265172239 1.52548355473 0
v -1.23519777797 1.44370580427 0
v -1.33185755363 1.3550481382 0
v -1.42217042153 1.25993305066 0
v -1.50570599971 1.15881380836 0
v -1.58206620311 1.05217229055 0
v -1.65088714058 0.940516692609 0
v -1.71184084901 0.824379104323 0
v -1.76463685624 0.704312974186 0
v -1.80902356523 0.580890471984 0
v -1.84478945311 0.454699762146 0
v -1.87176407913 0.326342200873 0
v -1.88981889692 0.196429470398 0
v -1.89886786705 0.0655806640424 0
v -1.89886786705 -0.0655806640425 0
v -1.88981889692 -0.196429470398 0
v -1.87176407913 -0.326342200873 0
v -1.84478945311 -0.454699762146 0
v -1.80902356523 -0.580890471984 0
v -1.76463685624 -0.704312974186 0
v -1.71184084901 -0.824379104323 0
v -1.65088714058 -0.940516692609 0
v -1.58206620311 -1.05217229055 0
v -1.50570599971 -1.15881380836 0
v -1.42217042153 -1.25993305066 0
v -1.33185755363 -1.3550481382 0
v -1.23519777797 -1.44370580427 0
v -1.13265172239 -1.52548355473 0
v -1.02470806555 -1.59999168135 0
v -0.911881208124 -1.66687511898 0
v -0.794708821474 -1.72581513757 0
v -0.673749285381 -1.7765308611 0
v -0.549579027119 -1.81878060605 0
v -0.422789774517 -1.85236303315 0
v -0.293985736102 -1.87711810682 0
v -0.163780721773 -1.89292785789 0
v -0.0327952177202 -1.89971694568 0
v 0.09834657048 -1.89745301709 0
v 0.229019692485 -1.88614686079 0
v 0.358601431361 -1.86585235574 0
v 0.486474271109 -1.83666621452 0
v 0.612028839417 -1.79872752237 0
v 0.734666811589 -1.75221707444 0
v 0.853803761838 -1.69735651419 0
v 0.968871948341 -1.63440727719 0
v 1.07932301879 -1.5636693452 0
v 1.18463062353 -1.48547981669 0
v 1.28429292388 -1.40021130037 0
v 1.37783498357 -1.30827013955 0
v 1.46481103211 -1.21009447574 0
v 1.54480658901 -1.10615216067 0
v 1.61744043901 -0.996938526818 0
v 1.68236644874 -0.882974026883 0
v 1.7392752162 -0.764801753606 0
v 1.78789554519 -0.642984851684 0
v 1.8279957377 -0.51810383413 0
v 1.85938469806 -0.390753815863 0
v 1.88191284358 -0.261541677716 0
v 1.89547281737 -0.131083174368 0
v 0.9 -2.20436423847e-16 0.4
v 0.897855545071 0.0620920299639 0.4
v 0.891432399589 0.123888163128 0.4
v 0.880761172766 0.185093912777 0.4
v 0.865892717859 0.245417605641 0.4
v 0.846897889826 0.30457177185 0.4
v 0.823867207673 0.362274514866 0.4
v 0.796910423088 0.418250854839 0.4
v 0.766155997426 0.472234039019 0.4
v 0.731750489531 0.523966812949 0.4
v 0.693857857315 0.573202646401 0.4
v 0.652658676429 0.619706908209 0.4
v 0.60834927973 0.663257984386 0.4
v 0.561140821673 0.703648334221 0.4
v 0.511258272058 0.740685479304 0.4
v 0.458939343951 0.774192920772 0.4
v 0.40443336087 0.804010980407 0.4
v 0.348000068647 0.829997561576 0.4
v 0.289908397619 0.852028826385 0.4
v 0.230435181052 0.869999785824 0.4
v 0.169863835908 0.883824800088 0.4
v 0.10848301223 0.893437986688 0.4
v 0.0465852175958 0.898793534412 0.4
v -0.0155345768149 0.899865921637 0.4
v -0.0775803418926 0.896650037948 0.4
v -0.139256401311 0.889161208496 0.4
v -0.200268840561 0.877435120964 0.4
v -0.260326907583 0.861527655498 0.4
v -0.319144398338 0.841514618417 0.4
v -0.376441020698 0.817491380955 0.4
v -0.431943730164 0.789572424779 0.4
v -0.485388031049 0.757890796431 0.4
v -0.536519236922 0.722597473295 0.4
v -0.585093684302 0.68386064413 0.4
v -0.630879893826 0.641864907568 0.4
v -0.673659673354 0.596810392417 0.4
v -0.713229157756 0.54891180396 0.4
v -0.749399780418 0.498397400784 0.4
v -0.781999171853 0.445507907025 0.4
v -0.810871981112 0.390495365206 0.4
v -0.835880616113 0.333621935141 0.4
v -0.85690589932 0.275158644624 0.4
v -0.873847635683 0.215384097859 0.4
v -0.886625090115 0.154583147782 0.4
v -0.895177372226 0.0930455386095 0.4
v -0.899463726496 0.0310645250727 0.4
v -0.899463726496 -0.0310645250727 0.4
v -0.895177372226 -0.0930455386095 0.4
v -0.886625090115 -0.154583147782 0.4
v -0.873847635683 -0.215384097859 0.4
v -0.85690589932 -0.275158644624 0.4
v -0.835880616113 -0.333621935141 0.4
v -0.810871981112 -0.390495365206 0.4
v -0.781999171853 -0.445507907025 0.4
v -0.749399780418 -0.498397400784 0.4
v -0.713229157756 -0.54891180396 0.4
v -0.673659673354 -0.596810392417 0.4
v -0.630879893826 -0.641864907568 0.4
v -0.585093684302 -0.68386064413 0.4
v -0.536519236922 -0.722597473295 0.4
v -0.485388031049 -0.757890796431 0.4
v -0.431943730164 -0.789572424779 0.4
v -0.376441020698 -0.817491380955 0.4
v -0.319144398338 -0.841514618417 0.4
v -0.260326907583 -0.861527655498 0.4
v -0.200268840561 -0.877435120964 0.4
v -0.139256401311 -0.889161208496 0.4
v -0.0775803418926 -0.896650037948 0.4
v -0.0155345768148 -0.899865921637 0.4
v 0.0465852175958 -0.898793534412 0.4
v 0.10848301223 -0.893437986688 0.4
v 0.169863835908 -0.883824800088 0.4
v 0.230435181052 -0.869999785824 0.4
v 0.289908397619 -0.852028826385 0.4
v 0.348000068647 -0.829997561576 0.4
v 0.40443336087 -0.804010980407 0.4
v 0.458939343951 -0.774192920772 0.4
v 0.511258272058 -0.740685479304 0.4
v 0.561140821673 -0.703648334221 0.4
v 0.60834927973 -0.663257984386 0.4
v 0.652658676429 -0.619706908209 0.4
v 0.693857857315 -0.573202646401 0.4
v 0.731750489531 -0.523966812949 0.4
v 0.766155997426 -0.472234039019 0.4
v 0.796910423088 -0.418250854839 0.4
v 0.823867207673 -0.362274514866 0.4
v 0.846897889826 -0.30457177185 0.4
v 0.865892717859 -0.245417605641 0.4
v 0.880761172766 -0.185093912777 0.4
v 0.891432399589 -0.123888163128 0.4
v 0.897855545071 -0.0620920299639 0.4
v 1.9 -4.65365783676e-16 -5
v 1.89547281737 0.131083174368 -5
v 1.88191284358 0.261541677716 -5
v 1.85938469806 0.390753815863 -5
v 1.8279957377 0.51810383413 -5
v 1.78789554519 0.642984851684 -5
v 1.7392752162 0.764801753606 -5
v 1.68236644874 0.882974026883 -5
v 1.61744043901 0.996938526818 -5
v 1.54480658901 1.10615216067 -5
v 1.46481103211 1.21009447574 -5
v 1.37783498357 1.30827013955 -5
v 1.28429292388 1.40021130037 -5
v 1.18463062353 1.48547981669 -5
v 1.07932301879 1.5636693452 -5
v 0.968871948341 1.63440727719 -5
v 0.853803761838 1.69735651419 -5
v 0.734666811589 1.75221707444 -5
v 0.612028839417 1.79872752237 -5
v 0.486474271109 1.83666621452 -5
v 0.358601431361 1.86585235574 -5
v 0.229019692485 1.88614686079 -5
v 0.09834657048 1.89745301709 -5
v -0.0327952177202 1.89971694568 -5
v -0.163780721773 1.89292785789 -5
v -0.293985736102 1.87711810682 -5
v -0.422789774517 1.85236303315 -5
v -0.549579027119 1.81878060605 -5
v -0.673749285381 1.7765308611 -5
v -0.794708821474 1.72581513757 -5
v -0.911881208124 1.66687511898 -5
v -1.02470806555 1.59999168135 -5
v -1.13265172239 1.52548355473 -5
v -1.23519777797 1.44370580427 -5
v -1.33185755363 1.3550481382 -5
v -1.42217042153 1.25993305066 -5
v -1.50570599971 1.15881380836 -5
v -1.58206620311 1.05217229055 -5
v -1.65088714058 0.940516692609 -5
v -1.71184084901 0.824379104323 -5
v -1.76463685624 0.704312974186 -5
v -1.80902356523 0.580890471984 -5
v -1.84478945311 0.454699762146 -5
v -1.87176407913 0.326342200873 -5
v -1.88981889692 0.196429470398 -5
v -1.89886786705 0.0655806640424 -5
v -1.89886786705 -0.0655806640425 -5
v -1.88981889692 -0.196429470398 -5
v -1.87176407913 -0.326342200873 -5
v -1.84478945311 -0.454699762146 -5
v -1.80902356523 -0.580890471984 -5
v -1.76463685624 -0.704312974186 -5
v -1.71184084901 -0.824379104323 -5
v -1.65088714058 -0.940516692609 -5
v -1.58206620311 -1.05217229055 -5
v -1.50570599971 -1.15881380836 -5
v -1.42217042153 -1.25993305066 -5
v -1.33185755363 -1.3550481382 -5
v -1.23519777797 -1.44370580427 -5
v -1.13265172239 -1.52548355473 -5
v -1.02470806555 -1.59999168135 -5
v -0.911881208124 -1.66687511898 -5
v -0.794708821474 -1.72581513757 -5
v -0.673749285381 -1.7765308611 -5
v -0.549579027119 -1.81878060605 -5
v -0.422789774517 -1.85236303315 -5
v -0.293985736102 -1.87711810682 -5
v -0.163780721773 -1.89292785789 -5
v -0.0327952177202 -1.89971694568 -5
v 0.09834657048 -1.89745301709 -5
v 0.229019692485 -1.88614686079 -5
v 0.358601431361 -1.86585235574 -5
v 0.486474271109 -1.83666621452 -5
v 0.612028839417 -1.79872752237 -5
v 0.734666811589 -1.75221707444 -5
v 0.853803761838 -1.69735651419 -5
v 0.968871948341 -1.63440727719 -5
v 1.07932301879 -1.5636693452 -5
v 1.18463062353 -1.48547981669 -5
v 1.28429292388 -1.40021130037 -5
v 1.37783498357 -1.30827013955 -5
v 1.46481103211 -1.21009447574 -5
v 1.54480658901 -1.10615216067 -5
v 1.61744043901 -0.996938526818 -5
v 1.68236644874 -0.882974026883 -5
v 1.7392752162 -0.764801753606 -5
v 1.78789554519 -0.642984851684 -5
v 1.8279957377 -0.51810383413 -5
v 1.85938469806 -0.390753815863 -5
v 1.88191284358 -0.261541677716 -5
v 1.89547281737 -0.131083174368 -5
f 2 1 92
f 2 92 93
f 3 93 94
f 3 2 93
f 4 94 95
f 4 3 94
f 5 4 95
f 5 95 96
f 6 5 96
f 6 96 97
f 7 6 97
f 7 97 98
f 7 98 99
f 8 7 99
f 9 8 99
f 9 99 100
f 10 100 101
f 10 9 100
f 11 101 102
f 11 10 101
f 12 102 103
f 12 11 102
f 13 103 104
f 13 12 103
f 14 104 105
f 14 105 106
f 14 13 104
f 15 106 107
f 15 14 106
f 16 15 107
f 17 107 108
f 17 16 107
f 18 108 109
f 18 17 108
f 19 109 110
f 19 110 111
f 19 18 109
f 20 111 112
f 20 19 111
f 21 20 112
f 22 112 113
f 22 21 112
f 23 113 114
f 23 22 113
f 24 114 115
f 24 115 116
f 24 23 114
f 25 24 116
f 26 116 117
f 26 25 116
f 27 117 118
f 27 26 117
f 28 118 119
f 28 119 120
f 28 27 118
f 29 28 120
f 30 29 120
f 30 120 121
f 31 30 121
f 31 121 122
f 32 31 122
f 32 122 123
f 33 32 123
f 33 123 124
f 34 33 124
f 34 124 125
f 35 34 125
f 35 125 126
f 36 126 127
f 36 127 128
f 36 35 126
f 37 36 128
f 38 128 129
f 38 37 128
f 39 129 130
f 39 38 129
f 40 130 131
f 40 131 132
f 40 39 130
f 41 40 132
f 42 132 133
f 42 41 132
f 43 133 134
f 43 134 135
f 43 42 133
f 44 43 135
f 45 135 136
f 45 44 135
f 46 136 137
f 46 137 138
f 46 45 136
f 47 138 139
f 47 46 138
f 48 139 140
f 48 47 139
f 49 48 140
f 50 140 141
f 50 49 140
f 51 141 142
f 51 50 141
f 52 142 143
f 52 143 144
f 52 51 142
f 53 144 145
f 53 52 144
f 54 145 146
f 54 53 145
f 55 54 146
f 56 55 146
f 56 146 147
f 56 147 148
f 57 56 148
f 58 57 148
f 58 148 149
f 58 149 150
f 59 58 150
f 59 150 151
f 60 59 151
f 61 60 151
f 61 151 152
f 62 61 152
f 62 152 153
f 62 153 154
f 63 62 154
f 64 63 154
f 64 154 155
f 65 64 155
f 65 155 156
f 66 65 156
f 66 156 157
f 67 66 157
f 67 157 158
f 68 67 158
f 68 158 159
f 68 159 160
f 69 68 160
f 70 69 160
f 70 160 161
f 71 161 162
f 71 70 161
f 72 162 163
f 72 71 162
f 73 163 164
f 73 164 165
f 73 72 163
f 74 73 165
f 75 165 166
f 75 74 165
f 76 166 167
f 76 75 166
f 77 167 168
f 77 76 167
f 78 168 169
f 78 77 168
f 79 169 170
f 79 170 171
f 79 78 169
f 80 79 171
f 81 80 171
f 81 171 172
f 82 81 172
f 82 172 173
f 83 82 173
f 83 173 174
f 84 83 174
f 84 174 175
f 84 175 176
f 85 84 176
f 85 176 177
f 86 85 177
f 86 177 178
f 87 86 178
f 88 87 178
f 88 178 179
f 89 88 179
f 89 179 180
f 90 89 180
f 90 180 181
f 91 90 181
f 91 181 182
f 1 91 182
f 1 182 92
f 239 58 240
f 239 57 58
f 241 240 58
f 241 58 59
f 238 56 57
f 238 57 239
f 242 59 60
f 242 241 59
f 237 55 56
f 237 56 238
f 243 60 61
f 243 242 60
f 236 54 55
f 236 55 237
f 244 61 62
f 244 243 61
f 235 54 236
f 235 53 54
f 245 244 62
f 245 62 63
f 234 52 53
f 234 53 235
f 246 245 63
f 246 63 64
f 233 52 234
f 233 51 52
f 247 64 65
f 247 246 64
f 232 51 233
f 232 50 51
f 248 65 66
f 248 247 65
f 231 50 232
f 231 49 50
f 249 66 67
f 249 248 66
f 230 49 231
f 230 48 49
f 250 249 67
f 250 67 68
f 229 47 48
f 229 48 230
f 251 250 68
f 251 68 69
f 228 46 47
f 228 47 229
f 252 69 70
f 252 251 69
f 227 46 228
f 227 45 46
f 253 70 71
f 253 252 70
f 226 45 227
f 226 44 45
f 254 253 71
f 254 71 72
f 225 44 226
f 225 43 44
f 255 254 72
f 255 72 73
f 224 43 225
f 224 42 43
f 256 255 73
f 256 73 74
f 223 42 224
f 223 41 42
f 257 256 74
f 257 74 75
f 222 41 223
f 222 40 41
f 258 257 75
f 258 75 76
f 221 39 40
f 221 40 222
f 259 258 76
f 259 76 77
f 220 38 39
f 220 39 221
f 260 259 77
f 260 77 78
f 219 37 38
f 219 38 220
f 261 260 78
f 261 78 79
f 218 36 37
f 218 37 219
f 262 261 79
f 262 79 80
f 35 36 218
f 35 218 217
f 81 262 80
f 81 263 262
f 264 263 81
f 34 216 215
f 34 217 216
f 34 35 217
f 82 264 81
f 33 34 215
f 83 264 82
f 83 265 264
f 32 33 215
f 32 215 214
f 84 266 265
f 84 265 83
f 31 213 212
f 31 214 213
f 31 32 214
f 85 266 84
f 85 267 266
f 30 31 212
f 86 267 85
f 86 268 267
f 29 212 211
f 29 30 212
f 87 268 86
f 87 269 268
f 87 270 269
f 28 211 210
f 28 29 211
f 88 270 87
f 27 210 209
f 27 28 210
f 89 270 88
f 89 271 270
f 26 209 208
f 26 27 209
f 90 272 271
f 90 271 89
f 25 207 206
f 25 208 207
f 25 26 208
f 91 273 272
f 91 183 273
f 91 272 90
f 24 25 206
f 1 183 91
f 23 205 204
f 23 206 205
f 23 24 206
f 2 183 1
f 2 184 183
f 22 23 204
f 3 184 2
f 3 185 184
f 3 186 185
f 21 22 204
f 21 203 202
f 21 204 203
f 4 186 3
f 20 21 202
f 5 186 4
f 5 187 186
f 19 202 201
f 19 20 202
f 6 187 5
f 6 188 187
f 6 189 188
f 18 201 200
f 18 19 201
f 7 189 6
f 17 200 199
f 17 18 200
f 8 189 7
f 8 190 189
f 16 17 199
f 16 198 197
f 16 199 198
f 9 190 8
f 9 191 190
f 9 192 191
f 15 16 197
f 10 192 9
f 14 197 196
f 14 15 197
f 11 193 192
f 11 192 10
f 13 196 195
f 13 14 196
f 12 194 193
f 12 195 194
f 12 193 11
f 12 13 195
f 330 149 148
f 330 331 149
f 332 150 149
f 332 149 331
f 329 330 148
f 329 148 147
f 333 150 332
f 333 151 150
f 328 329 147
f 328 147 146
f 334 151 333
f 334 152 151
f 327 328 146
f 327 146 145
f 335 153 152
f 335 152 334
f 326 145 144
f 326 327 145
f 336 153 335
f 336 154 153
f 325 144 143
f 325 326 144
f 337 154 336
f 337 155 154
f 324 143 142
f 324 325 143
f 338 155 337
f 338 156 155
f 323 142 141
f 323 324 142
f 339 156 338
f 339 157 156
f 339 158 157
f 322 323 141
f 322 141 140
f 340 158 339
f 321 140 139
f 321 322 140
f 341 158 340
f 341 159 158
f 320 321 139
f 320 139 138
f 342 159 341
f 342 160 159
f 319 320 138
f 319 138 137
f 343 161 160
f 343 160 342
f 318 137 136
f 318 319 137
f 344 162 161
f 344 161 343
f 317 135 134
f 317 136 135
f 317 318 136
f 345 163 162
f 345 162 344
f 316 317 134
f 346 163 345
f 346 164 163
f 315 316 134
f 315 134 133
f 347 164 346
f 347 165 164
f 314 133 132
f 314 315 133
f 348 165 347
f 348 166 165
f 313 314 132
f 313 132 131
f 349 166 348
f 349 167 166
f 312 313 131
f 312 131 130
f 350 167 349
f 350 168 167
f 350 169 168
f 311 130 129
f 311 312 130
f 351 169 350
f 310 129 128
f 310 311 129
f 352 169 351
f 352 170 169
f 309 128 127
f 309 310 128
f 353 170 352
f 353 171 170
f 126 308 309
f 126 309 127
f 172 171 353
f 172 353 354
f 125 307 308
f 125 308 126
f 306 307 125
f 173 172 354
f 173 354 355
f 124 306 125
f 174 355 356
f 174 356 357
f 174 173 355
f 123 305 306
f 123 306 124
f 175 174 357
f 122 304 305
f 122 305 123
f 176 175 357
f 176 357 358
f 121 304 122
f 121 302 303
f 121 303 304
f 177 176 358
f 177 358 359
f 120 302 121
f 178 359 360
f 178 177 359
f 119 300 301
f 119 301 302
f 119 302 120
f 179 178 360
f 179 360 361
f 118 300 119
f 180 179 361
f 180 361 362
f 117 299 300
f 117 300 118
f 181 180 362
f 181 362 363
f 181 363 364
f 116 297 298
f 116 298 299
f 116 299 117
f 182 181 364
f 115 297 116
f 115 296 297
f 92 364 274
f 92 182 364
f 114 296 115
f 93 92 274
f 93 274 275
f 113 294 295
f 113 295 296
f 113 296 114
f 94 93 275
f 94 275 276
f 112 294 113
f 95 94 276
f 95 276 277
f 95 277 278
f 111 292 293
f 111 293 294
f 111 294 112
f 96 95 278
f 110 291 292
f 110 292 111
f 97 96 278
f 97 278 279
f 109 291 110
f 98 97 279
f 98 279 280
f 98 280 281
f 108 290 291
f 108 291 109
f 99 98 281
f 107 288 289
f 107 289 290
f 107 290 108
f 100 99 281
f 100 281 282
f 100 282 283
f 106 288 107
f 101 283 284
f 101 100 283
f 105 287 288
f 105 288 106
f 102 101 284
f 104 286 287
f 104 287 105
f 103 284 285
f 103 285 286
f 103 102 284
f 103 286 104
f 184 365 183
f 184 366 365
f 185 367 366
f 185 366 184
f 186 368 367
f 186 367 185
f 187 368 186
f 187 369 368
f 188 369 187
f 188 370 369
f 189 370 188
f 189 371 370
f 190 371 189
f 190 372 371
f 191 372 190
f 191 373 372
f 192 374 373
f 192 375 374
f 192 373 191
f 193 375 192
f 194 376 375
f 194 375 193
f 195 377 376
f 195 376 194
f 196 378 377
f 196 377 195
f 197 379 378
f 197 378 196
f 198 380 379
f 198 379 197
f 199 381 380
f 199 380 198
f 200 382 381
f 200 381 199
f 201 383 382
f 201 384 383
f 201 382 200
f 202 384 201
f 203 385 384
f 203 384 202
f 204 386 385
f 204 385 203
f 205 387 386
f 205 386 204
f 206 388 387
f 206 389 388
f 206 387 205
f 207 389 206
f 208 390 389
f 208 389 207
f 209 391 390
f 209 390 208
f 210 392 391
f 210 391 209
f 211 393 392
f 211 394 393
f 211 392 210
f 212 394 211
f 212 395 394
f 213 395 212
f 214 395 213
f 214 396 395
f 215 396 214
f 215 397 396
f 216 397 215
f 216 398 397
f 217 398 216
f 217 399 398
f 218 400 399
f 218 399 217
f 219 401 400
f 219 400 218
f 220 402 401
f 220 401 219
f 221 403 402
f 221 402 220
f 222 404 403
f 222 405 404
f 222 403 221
f 223 405 222
f 224 406 405
f 224 407 406
f 224 405 223
f 225 408 407
f 225 407 224
f 226 408 225
f 227 409 408
f 227 408 226
f 228 410 409
f 228 409 227
f 229 411 410
f 229 412 411
f 229 410 228
f 230 413 412
f 230 412 229
f 231 413 230
f 232 414 413
f 232 413 231
f 233 415 414
f 233 414 232
f 234 416 415
f 234 417 416
f 234 415 233
f 235 417 234
f 236 418 417
f 236 417 235
f 237 419 418
f 237 418 236
f 238 419 237
f 238 420 419
f 239 420 238
f 239 421 420
f 240 421 239
f 240 422 421
f 241 422 240
f 241 423 422
f 242 423 241
f 242 424 423
f 242 425 424
f 243 425 242
f 244 425 243
f 244 426 425
f 245 426 244
f 245 427 426
f 246 427 245
f 246 428 427
f 247 428 246
f 247 429 428
f 247 430 429
f 248 430 247
f 248 431 430
f 249 431 248
f 250 431 249
f 250 432 431
f 251 432 250
f 251 433 432
f 252 433 251
f 252 434 433
f 253 435 434
f 253 434 252
f 254 436 435
f 254 437 436
f 254 435 253
f 255 438 437
f 255 437 254
f 256 438 255
f 257 439 438
f 257 438 256
f 258 440 439
f 258 441 440
f 258 439 257
f 259 441 258
f 260 442 441
f 260 441 259
f 261 443 442
f 261 442 260
f 262 443 261
f 262 444 443
f 263 444 262
f 263 445 444
f 263 446 445
f 264 446 263
f 265 446 264
f 265 447 446
f 266 447 265
f 266 448 447
f 267 448 266
f 267 449 448
f 267 450 449
f 268 450 267
f 269 450 268
f 269 451 450
f 270 451 269
f 270 452 451
f 271 452 270
f 271 453 452
f 271 454 453
f 272 454 271
f 273 454 272
f 273 455 454
f 183 455 273
f 183 365 455
f 275 274 456
f 275 456 457
f 276 457 458
f 276 275 457
f 277 458 459
f 277 276 458
f 278 277 459
f 278 459 460
f 279 278 460
f 279 460 461
f 280 279 461
f 280 461 462
f 281 280 462
f 281 462 463
f 282 281 463
f 282 463 464
f 283 464 465
f 283 282 464
f 284 465 466
f 284 466 467
f 284 283 465
f 285 284 467
f 286 467 468
f 286 285 467
f 287 468 469
f 287 469 470
f 287 286 468
f 288 287 470
f 289 470 471
f 289 288 470
f 290 471 472
f 290 289 471
f 291 472 473
f 291 290 472
f 292 473 474
f 292 291 473
f 293 474 475
f 293 292 474
f 294 475 476
f 294 476 477
f 294 293 475
f 295 477 478
f 295 294 477
f 296 295 478
f 297 478 479
f 297 296 478
f 298 479 480
f 298 480 481
f 298 297 479
f 299 298 481
f 300 481 482
f 300 482 483
f 300 299 481
f 301 300 483
f 302 483 484
f 302 301 483
f 303 484 485
f 303 302 484
f 304 303 485
f 304 485 486
f 304 486 487
f 305 304 487
f 306 305 487
f 306 487 488
f 307 306 488
f 307 488 489
f 308 307 489
f 308 489 490
f 309 490 491
f 309 308 490
f 310 491 492
f 310 309 491
f 311 492 493
f 311 493 494
f 311 310 492
f 312 311 494
f 313 312 494
f 313 494 495
f 313 495 496
f 314 313 496
f 315 496 497
f 315 314 496
f 316 497 498
f 316 315 497
f 317 498 499
f 317 316 498
f 318 499 500
f 318 317 499
f 319 500 501
f 319 318 500
f 320 501 502
f 320 319 501
f 321 502 503
f 321 320 502
f 322 503 504
f 322 504 505
f 322 321 503
f 323 322 505
f 324 505 506
f 324 323 505
f 325 506 507
f 325 507 508
f 325 324 506
f 326 325 508
f 327 508 509
f 327 326 508
f 328 509 510
f 328 327 509
f 329 328 510
f 329 510 511
f 330 329 511
f 330 511 512
f 331 330 512
f 331 512 513
f 331 513 514
f 332 331 514
f 333 332 514
f 333 514 515
f 334 333 515
f 334 515 516
f 334 516 517
f 335 334 517
f 336 335 517
f 336 517 518
f 337 336 518
f 337 518 519
f 338 337 519
f 338 519 520
f 339 338 520
f 339 520 521
f 340 339 521
f 340 521 522
f 341 340 522
f 341 522 523
f 342 341 523
f 342 523 524
f 343 342 524
f 343 524 525
f 344 525 526
f 344 526 527
f 344 343 525
f 345 344 527
f 346 527 528
f 346 345 527
f 347 528 529
f 347 346 528
f 348 529 530
f 348 347 529
f 349 530 531
f 349 348 530
f 350 531 532
f 350 349 531
f 351 532 533
f 351 350 532
f 352 533 534
f 352 351 533
f 353 534 535
f 353 352 534
f 354 353 535
f 354 535 536
f 355 354 536
f 355 536 537
f 355 537 538
f 356 355 538
f 357 356 538
f 357 538 539
f 358 357 539
f 358 539 540
f 359 358 540
f 359 540 541
f 359 541 542
f 360 359 542
f 361 360 542
f 361 542 543
f 362 361 543
f 362 543 544
f 363 362 544
f 363 544 545
f 364 363 545
f 364 545 546
f 274 364 546
f 274 546 456
f 412 413 414
f 440 438 439
f 403 404 405
f 403 405 406
f 443 441 442
f 399 400 401
f 399 401 402
f 398 399 402
f 447 443 444
f 447 444 445
f 447 441 443
f 447 445 446
f 449 438 440
f 449 440 441
f 449 447 448
f 449 441 447
f 394 395 396
f 394 396 397
f 393 397 398
f 393 402 403
f 393 394 397
f 393 398 402
f 451 449 450
f 391 392 393
f 454 449 451
f 454 451 452
f 454 452 453
f 367 365 366
f 367 454 455
f 367 455 365
f 385 386 387
f 370 368 369
f 381 382 383
f 381 383 384
f 372 370 371
f 372 368 370
f 380 384 385
f 380 387 388
f 380 388 389
f 380 381 384
f 380 385 387
f 373 368 372
f 377 378 379
f 377 379 380
f 376 454 367
f 376 367 368
f 376 373 374
f 376 374 375
f 376 391 393
f 376 380 389
f 376 389 390
f 376 390 391
f 376 412 414
f 376 377 380
f 376 403 406
f 376 406 407
f 376 407 408
f 376 408 409
f 376 438 449
f 376 409 410
f 376 410 411
f 376 411 412
f 376 449 454
f 376 414 415
f 376 415 416
f 376 416 417
f 376 417 418
f 376 418 419
f 376 419 420
f 376 420 421
f 376 421 422
f 376 422 423
f 376 423 424
f 376 424 425
f 376 425 426
f 376 426 427
f 376 427 428
f 376 428 429
f 376 429 430
f 376 430 431
f 376 431 432
f 376 432 433
f 376 433 434
f 376 434 435
f 376 435 436
f 376 436 437
f 376 437 438
f 376 393 403
f 376 368 373
f 508 510 509
f 506 508 507
f 520 515 514
f 520 516 515
f 520 517 516
f 520 518 517
f 520 519 518
f 523 521 520
f 523 522 521
f 526 525 524
f 498 500 499
f 498 501 500
f 528 527 526
f 530 528 526
f 530 529 528
f 495 497 496
f 531 530 526
f 532 531 526
f 492 494 493
f 492 495 494
f 534 533 532
f 491 495 492
f 536 534 532
f 536 535 534
f 489 491 490
f 488 491 489
f 488 498 497
f 488 497 495
f 488 495 491
f 486 488 487
f 540 539 538
f 484 486 485
f 484 488 486
f 542 540 538
f 542 541 540
f 482 488 484
f 482 484 483
f 545 542 538
f 545 543 542
f 545 544 543
f 478 480 479
f 478 481 480
f 478 482 481
f 457 546 545
f 457 456 546
f 476 478 477
f 459 458 457
f 459 457 545
f 459 545 538
f 474 476 475
f 474 478 476
f 461 460 459
f 463 462 461
f 463 510 508
f 463 459 538
f 463 508 506
f 463 520 514
f 463 523 520
f 463 461 459
f 463 532 526
f 463 536 532
f 463 501 498
f 463 502 501
f 463 503 502
f 463 526 524
f 463 504 503
f 463 505 504
f 463 506 505
f 463 498 488
f 463 511 510
f 463 512 511
f 463 513 512
f 463 514 513
f 463 524 523
f 463 537 536
f 463 538 537
f 463 488 482
f 471 473 472
f 471 474 473
f 470 478 474
f 470 474 471
f 465 464 463
f 468 470 469
f 467 466 465
f 467 482 478
f 467 463 482
f 467 478 470
f 467 465 463
f 467 470 468
