# SimpleCAD BREP tessellation for MuJoCo
v 8 -1.95943487864e-15 2
v 7.98093817841 0.551929155235 2
v 7.9238435519 1.1012281167 2
v 7.82898820237 1.64527922469 2
v 7.69682415875 2.18148982792 2
v 7.5279812429 2.70730463867 2
v 7.3232640682 3.22021790992 2
v 7.08364820523 3.71778537635 2
v 6.81027553267 4.19763590239 2
v 6.50444879583 4.65748278177 2
v 6.16762539836 5.09513463468 2
v 5.80141045715 5.50850585075 2
v 5.40754915316 5.89562652787 2
v 4.98791841487 6.25465185974 2
v 4.54451797385 6.58387092715 2
v 4.07946083512 6.88171485131 2
v 3.59496320774 7.14676427028 2
v 3.09333394353 7.37775610289 2
v 2.57696353439 7.57358956786 2
v 2.04831272046 7.73333142955 2
v 1.50990076362 7.85622044523 2
v 0.964293442043 7.94167099278 2
v 0.414090823074 7.98927586144 2
v -0.138085127243 7.99880819233 2
v -0.689603039045 7.97022255954 2
v -1.23783467832 7.90365518663 2
v -1.78016747165 7.79942329745 2
v -2.31401695629 7.65802360443 2
v -2.83683909634 7.48012994148 2
v -3.3461424062 7.26659005293 2
v -3.83949982368 7.0184215536 2
v -4.31456027599 6.73680707938 2
v -4.76905988375 6.42308865151 2
v -5.20083274935 6.07876128116 2
v -5.60782127845 5.70546584504 2
v -5.98808598537 5.30498126593 2
v -6.33981473561 4.8792160352 2
v -6.6613313815 4.43019911808 2
v -6.9511037498 3.96007028467 2
v -7.20775094322 3.47106991294 2
v -7.430049921 2.96552831236 2
v -7.61694132729 2.44585461888 2
v -7.76753453941 1.9145253143 2
v -7.88111191213 1.37407242473 2
v -7.95713219756 0.827071454307 2
v -7.99523312441 0.276129111758 2
v -7.99523312441 -0.276129111758 2
v -7.95713219756 -0.827071454307 2
v -7.88111191213 -1.37407242473 2
v -7.76753453941 -1.9145253143 2
v -7.61694132729 -2.44585461888 2
v -7.430049921 -2.96552831236 2
v -7.20775094322 -3.47106991294 2
v -6.9511037498 -3.96007028467 2
v -6.6613313815 -4.43019911808 2
v -6.33981473561 -4.8792160352 2
v -5.98808598537 -5.30498126593 2
v -5.60782127845 -5.70546584504 2
v -5.20083274935 -6.07876128116 2
v -4.76905988375 -6.42308865151 2
v -4.31456027599 -6.73680707938 2
v -3.83949982368 -7.0184215536 2
v -3.3461424062 -7.26659005293 2
v -2.83683909634 -7.48012994148 2
v -2.31401695629 -7.65802360443 2
v -1.78016747165 -7.79942329745 2
v -1.23783467832 -7.90365518663 2
v -0.689603039045 -7.97022255954 2
v -0.138085127243 -7.99880819233 2
v 0.414090823074 -7.98927586144 2
v 0.964293442043 -7.94167099278 2
v 1.50990076362 -7.85622044523 2
v 2.04831272046 -7.73333142955 2
v 2.57696353439 -7.57358956786 2
v 3.09333394353 -7.37775610289 2
v 3.59496320774 -7.14676427028 2
v 4.07946083512 -6.88171485131 2
v 4.54451797385 -6.58387092715 2
v 4.98791841487 -6.25465185974 2
v 5.40754915316 -5.89562652787 2
v 5.80141045715 -5.50850585075 2
v 6.16762539836 -5.09513463468 2
v 6.50444879583 -4.65748278177 2
v 6.81027553267 -4.19763590239 2
v 7.08364820523 -3.71778537635 2
v 7.3232640682 -3.22021790992 2
v 7.5279812429 -2.70730463867 2
v 7.69682415875 -2.18148982792 2
v 7.82898820237 -1.64527922469 2
v 7.9238435519 -1.1012281167 2
v 7.98093817841 -0.551929155235 2
v 8 -1.95943487864e-15 0
v 7.98093817841 0.551929155235 0
v 7.9238435519 1.1012281167 0
v 7.82898820237 1.64527922469 0
v 7.69682415875 2.18148982792 0
v 7.5279812429 2.70730463867 0
v 7.3232640682 3.22021790992 0
v 7.08364820523 3.71778537635 0
v 6.81027553267 4.19763590239 0
v 6.50444879583 4.65748278177 0
v 6.16762539836 5.09513463468 0
v 5.80141045715 5.50850585075 0
v 5.40754915316 5.89562652787 0
v 4.98791841487 6.25465185974 0
v 4.54451797385 6.58387092715 0
v 4.07946083512 6.88171485131 0
v 3.59496320774 7.14676427028 0
v 3.09333394353 7.37775610289 0
v 2.57696353439 7.57358956786 0
v 2.04831272046 7.73333142955 0
v 1.50990076362 7.85622044523 0
v 0.964293442043 7.94167099278 0
v 0.414090823074 7.98927586144 0
v -0.138085127243 7.99880819233 0
v -0.689603039045 7.97022255954 0
v -1.23783467832 7.90365518663 0
v -1.78016747165 7.79942329745 0
v -2.31401695629 7.65802360443 0
v -2.83683909634 7.48012994148 0
v -3.3461424062 7.26659005293 0
v -3.83949982368 7.0184215536 0
v -4.31456027599 6.73680707938 0
v -4.76905988375 6.42308865151 0
v -5.20083274935 6.07876128116 0
v -5.60782127845 5.70546584504 0
v -5.98808598537 5.30498126593 0
v -6.33981473561 4.8792160352 0
v -6.6613313815 4.43019911808 0
v -6.9511037498 3.96007028467 0
v -7.20775094322 3.47106991294 0
v -7.430049921 2.96552831236 0
v -7.61694132729 2.44585461888 0
v -7.76753453941 1.9145253143 0
v -7.88111191213 1.37407242473 0
v -7.95713219756 0.827071454307 0
v -7.99523312441 0.276129111758 0
v -7.99523312441 -0.276129111758 0
v -7.95713219756 -0.827071454307 0
v -7.88111191213 -1.37407242473 0
v -7.76753453941 -1.9145253143 0
v -7.61694132729 -2.44585461888 0
v -7.430049921 -2.96552831236 0
v -7.20775094322 -3.47106991294 0
v -6.9511037498 -3.96007028467 0
v -6.6613313815 -4.43019911808 0
v -6.33981473561 -4.8792160352 0
v -5.98808598537 -5.30498126593 0
v -5.60782127845 -5.70546584504 0
v -5.20083274935 -6.07876128116 0
v -4.76905988375 -6.42308865151 0
v -4.31456027599 -6.73680707938 0
v -3.83949982368 -7.0184215536 0
v -3.3461424062 -7.26659005293 0
v -2.83683909634 -7.48012994148 0
v -2.31401695629 -7.65802360443 0
v -1.78016747165 -7.79942329745 0
v -1.23783467832 -7.90365518663 0
v -0.689603039045 -7.97022255954 0
v -0.138085127243 -7.99880819233 0
v 0.414090823074 -7.98927586144 0
v 0.964293442043 -7.94167099278 0
v 1.50990076362 -7.85622044523 0
v 2.04831272046 -7.73333142955 0
v 2.57696353439 -7.57358956786 0
v 3.09333394353 -7.37775610289 0
v 3.59496320774 -7.14676427028 0
v 4.07946083512 -6.88171485131 0
v 4.54451797385 -6.58387092715 0
v 4.98791841487 -6.25465185974 0
v 5.40754915316 -5.89562652787 0
v 5.80141045715 -5.50850585075 0
v 6.16762539836 -5.09513463468 0
v 6.50444879583 -4.65748278177 0
v 6.81027553267 -4.19763590239 0
v 7.08364820523 -3.71778537635 0
v 7.3232640682 -3.22021790992 0
v 7.5279812429 -2.70730463867 0
v 7.69682415875 -2.18148982792 0
v 7.82898820237 -1.64527922469 0
v 7.9238435519 -1.1012281167 0
v 7.98093817841 -0.551929155235 0
v 4.5 -1.10218211923e-15 2
v 4.48927772536 0.310460149819 2
v 4.45716199794 0.619440815642 2
v 4.40380586383 0.925469563887 2
v 4.3294635893 1.2270880282 2
v 4.23448944913 1.52285885925 2
v 4.11933603836 1.81137257433 2
v 3.98455211544 2.0912542742 2
v 3.83077998713 2.3611701951 2
v 3.65875244765 2.61983406474 2
v 3.46928928658 2.86601323201 2
v 3.26329338215 3.09853454104 2
v 3.04174639865 3.31628992193 2
v 2.80570410836 3.51824167111 2
v 2.55629136029 3.70342739652 2
v 2.29469671976 3.87096460386 2
v 2.02216680435 4.02005490204 2
v 1.74000034324 4.14998780788 2
v 1.44954198809 4.26014413192 2
v 1.15217590526 4.34999892912 2
v 0.849319179538 4.41912400044 2
v 0.542415061149 4.46718993344 2
v 0.232926087979 4.49396767206 2
v -0.0776728840743 4.49932960818 2
v -0.387901709463 4.48325018974 2
v -0.696282006556 4.44580604248 2
v -1.0013442028 4.38717560482 2
v -1.30163453791 4.30763827749 2
v -1.59572199169 4.20757309208 2
v -1.88220510349 4.08745690478 2
v -2.15971865082 3.9478621239 2
v -2.42694015525 3.78945398215 2
v -2.68259618461 3.61298736647 2
v -2.92546842151 3.41930322065 2
v -3.15439946913 3.20932453784 2
v -3.36829836677 2.98405196208 2
v -3.56614578878 2.7445590198 2
v -3.74699890209 2.49198700392 2
v -3.90999585926 2.22753953513 2
v -4.05435990556 1.95247682603 2
v -4.17940308056 1.6681096757 2
v -4.2845294966 1.37579322312 2
v -4.36923817842 1.07692048929 2
v -4.43312545058 0.772915738911 2
v -4.47588686113 0.465227693048 2
v -4.49731863248 0.155322625364 2
v -4.49731863248 -0.155322625364 2
v -4.47588686113 -0.465227693048 2
v -4.43312545058 -0.772915738911 2
v -4.36923817842 -1.07692048929 2
v -4.2845294966 -1.37579322312 2
v -4.17940308056 -1.6681096757 2
v -4.05435990556 -1.95247682603 2
v -3.90999585926 -2.22753953513 2
v -3.74699890209 -2.49198700392 2
v -3.56614578878 -2.7445590198 2
v -3.36829836677 -2.98405196208 2
v -3.15439946913 -3.20932453784 2
v -2.92546842151 -3.41930322065 2
v -2.68259618461 -3.61298736647 2
v -2.42694015525 -3.78945398215 2
v -2.15971865082 -3.9478621239 2
v -1.88220510349 -4.08745690478 2
v -1.59572199169 -4.20757309208 2
v -1.30163453791 -4.30763827749 2
v -1.0013442028 -4.38717560482 2
v -0.696282006556 -4.44580604248 2
v -0.387901709463 -4.48325018974 2
v -0.0776728840742 -4.49932960818 2
v 0.232926087979 -4.49396767206 2
v 0.542415061149 -4.46718993344 2
v 0.849319179538 -4.41912400044 2
v 1.15217590526 -4.34999892912 2
v 1.44954198809 -4.26014413192 2
v 1.74000034324 -4.14998780788 2
v 2.02216680435 -4.02005490204 2
v 2.29469671976 -3.87096460386 2
v 2.55629136029 -3.70342739652 2
v 2.80570410836 -3.51824167111 2
v 3.04174639865 -3.31628992193 2
v 3.26329338215 -3.09853454104 2
v 3.46928928658 -2.86601323201 2
v 3.65875244765 -2.61983406474 2
v 3.83077998713 -2.3611701951 2
v 3.98455211544 -2.0912542742 2
v 4.11933603836 -1.81137257433 2
v 4.23448944913 -1.52285885925 2
v 4.3294635893 -1.2270880282 2
v 4.40380586383 -0.925469563887 2
v 4.45716199794 -0.619440815642 2
v 4.48927772536 -0.310460149819 2
v 4.5 -1.10218211923e-15 0
v 4.48927772536 0.310460149819 0
v 4.45716199794 0.619440815642 0
v 4.40380586383 0.925469563887 0
v 4.3294635893 1.2270880282 0
v 4.23448944913 1.52285885925 0
v 4.11933603836 1.81137257433 0
v 3.98455211544 2.0912542742 0
v 3.83077998713 2.3611701951 0
v 3.65875244765 2.61983406474 0
v 3.46928928658 2.86601323201 0
v 3.26329338215 3.09853454104 0
v 3.04174639865 3.31628992193 0
v 2.80570410836 3.51824167111 0
v 2.55629136029 3.70342739652 0
v 2.29469671976 3.87096460386 0
v 2.02216680435 4.02005490204 0
v 1.74000034324 4.14998780788 0
v 1.44954198809 4.26014413192 0
v 1.15217590526 4.34999892912 0
v 0.849319179538 4.41912400044 0
v 0.542415061149 4.46718993344 0
v 0.232926087979 4.49396767206 0
v -0.0776728840743 4.49932960818 0
v -0.387901709463 4.48325018974 0
v -0.696282006556 4.44580604248 0
v -1.0013442028 4.38717560482 0
v -1.30163453791 4.30763827749 0
v -1.59572199169 4.20757309208 0
v -1.88220510349 4.08745690478 0
v -2.15971865082 3.9478621239 0
v -2.42694015525 3.78945398215 0
v -2.68259618461 3.61298736647 0
v -2.92546842151 3.41930322065 0
v -3.15439946913 3.20932453784 0
v -3.36829836677 2.98405196208 0
v -3.56614578878 2.7445590198 0
v -3.74699890209 2.49198700392 0
v -3.90999585926 2.22753953513 0
v -4.05435990556 1.95247682603 0
v -4.17940308056 1.6681096757 0
v -4.2845294966 1.37579322312 0
v -4.36923817842 1.07692048929 0
v -4.43312545058 0.772915738911 0
v -4.47588686113 0.465227693048 0
v -4.49731863248 0.155322625364 0
v -4.49731863248 -0.155322625364 0
v -4.47588686113 -0.465227693048 0
v -4.43312545058 -0.772915738911 0
v -4.36923817842 -1.07692048929 0
v -4.2845294966 -1.37579322312 0
v -4.17940308056 -1.6681096757 0
v -4.05435990556 -1.95247682603 0
v -3.90999585926 -2.22753953513 0
v -3.74699890209 -2.49198700392 0
v -3.56614578878 -2.7445590198 0
v -3.36829836677 -2.98405196208 0
v -3.15439946913 -3.20932453784 0
v -2.92546842151 -3.41930322065 0
v -2.68259618461 -3.61298736647 0
v -2.42694015525 -3.78945398215 0
v -2.15971865082 -3.9478621239 0
v -1.88220510349 -4.08745690478 0
v -1.59572199169 -4.20757309208 0
v -1.30163453791 -4.30763827749 0
v -1.0013442028 -4.38717560482 0
v -0.696282006556 -4.44580604248 0
v -0.387901709463 -4.48325018974 0
v -0.0776728840742 -4.49932960818 0
v 0.232926087979 -4.49396767206 0
v 0.542415061149 -4.46718993344 0
v 0.849319179538 -4.41912400044 0
v 1.15217590526 -4.34999892912 0
v 1.44954198809 -4.26014413192 0
v 1.74000034324 -4.14998780788 0
v 2.02216680435 -4.02005490204 0
v 2.29469671976 -3.87096460386 0
v 2.55629136029 -3.70342739652 0
v 2.80570410836 -3.51824167111 0
v 3.04174639865 -3.31628992193 0
v 3.26329338215 -3.09853454104 0
v 3.46928928658 -2.86601323201 0
v 3.65875244765 -2.61983406474 0
v 3.83077998713 -2.3611701951 0
v 3.98455211544 -2.0912542742 0
v 4.11933603836 -1.81137257433 0
v 4.23448944913 -1.52285885925 0
v 4.3294635893 -1.2270880282 0
v 4.40380586383 -0.925469563887 0
v 4.45716199794 -0.619440815642 0
v 4.48927772536 -0.310460149819 0
f 2 1 92
f 2 92 93
f 3 93 94
f 3 2 93
f 4 94 95
f 4 3 94
f 5 4 95
f 5 95 96
f 6 5 96
f 6 96 97
f 7 6 97
f 7 97 98
f 8 7 98
f 8 98 99
f 9 8 99
f 9 99 100
f 10 100 101
f 10 101 102
f 10 9 100
f 11 10 102
f 12 102 103
f 12 11 102
f 13 103 104
f 13 12 103
f 14 104 105
f 14 13 104
f 15 105 106
f 15 14 105
f 16 106 107
f 16 15 106
f 17 107 108
f 17 16 107
f 18 108 109
f 18 17 108
f 19 109 110
f 19 110 111
f 19 18 109
f 20 19 111
f 21 111 112
f 21 20 111
f 22 112 113
f 22 21 112
f 23 113 114
f 23 22 113
f 24 114 115
f 24 115 116
f 24 23 114
f 25 24 116
f 26 116 117
f 26 25 116
f 27 117 118
f 27 26 117
f 28 118 119
f 28 27 118
f 29 119 120
f 29 120 121
f 29 28 119
f 30 29 121
f 30 121 122
f 31 30 122
f 32 31 122
f 32 122 123
f 33 32 123
f 33 123 124
f 34 33 124
f 34 124 125
f 35 34 125
f 35 125 126
f 36 126 127
f 36 35 126
f 37 127 128
f 37 36 127
f 38 128 129
f 38 37 128
f 39 129 130
f 39 38 129
f 40 130 131
f 40 131 132
f 40 39 130
f 41 40 132
f 42 132 133
f 42 133 134
f 42 41 132
f 43 134 135
f 43 42 134
f 44 43 135
f 45 135 136
f 45 44 135
f 46 136 137
f 46 45 136
f 47 137 138
f 47 138 139
f 47 46 137
f 48 139 140
f 48 47 139
f 49 48 140
f 50 140 141
f 50 49 140
f 51 141 142
f 51 50 141
f 52 142 143
f 52 143 144
f 52 51 142
f 53 52 144
f 54 144 145
f 54 53 144
f 55 145 146
f 55 54 145
f 56 55 146
f 56 146 147
f 57 56 147
f 57 147 148
f 58 57 148
f 58 148 149
f 59 58 149
f 59 149 150
f 60 59 150
f 60 150 151
f 60 151 152
f 61 60 152
f 62 61 152
f 62 152 153
f 63 62 153
f 63 153 154
f 64 63 154
f 64 154 155
f 65 64 155
f 65 155 156
f 65 156 157
f 66 65 157
f 66 157 158
f 67 66 158
f 68 67 158
f 68 158 159
f 69 68 159
f 69 159 160
f 70 69 160
f 70 160 161
f 71 161 162
f 71 70 161
f 72 162 163
f 72 163 164
f 72 71 162
f 73 164 165
f 73 72 164
f 74 73 165
f 75 165 166
f 75 74 165
f 76 166 167
f 76 167 168
f 76 75 166
f 77 76 168
f 78 168 169
f 78 77 168
f 79 169 170
f 79 78 169
f 80 79 170
f 80 170 171
f 81 80 171
f 81 171 172
f 81 172 173
f 82 81 173
f 83 82 173
f 83 173 174
f 84 83 174
f 84 174 175
f 85 84 175
f 85 175 176
f 85 176 177
f 86 85 177
f 87 86 177
f 87 177 178
f 88 87 178
f 88 178 179
f 89 88 179
f 89 179 180
f 89 180 181
f 90 89 181
f 91 90 181
f 91 181 182
f 1 91 182
f 1 182 92
f 240 58 59
f 239 58 240
f 239 57 58
f 241 240 59
f 238 57 239
f 238 56 57
f 242 241 59
f 242 59 60
f 237 56 238
f 237 54 55
f 237 55 56
f 243 242 60
f 243 60 61
f 236 54 237
f 244 243 61
f 244 61 62
f 235 53 54
f 235 54 236
f 245 244 62
f 245 62 63
f 234 52 53
f 234 53 235
f 246 245 63
f 246 63 64
f 233 52 234
f 233 51 52
f 247 64 65
f 247 246 64
f 232 51 233
f 232 50 51
f 248 65 66
f 248 66 67
f 248 247 65
f 231 50 232
f 231 49 50
f 249 248 67
f 230 48 49
f 230 49 231
f 250 67 68
f 250 249 67
f 229 47 48
f 229 48 230
f 251 68 69
f 251 250 68
f 228 46 47
f 228 47 229
f 252 251 69
f 252 69 70
f 227 46 228
f 227 45 46
f 253 70 71
f 253 252 70
f 226 45 227
f 226 44 45
f 254 253 71
f 254 71 72
f 254 72 73
f 225 44 226
f 225 43 44
f 255 254 73
f 224 43 225
f 224 42 43
f 256 255 73
f 256 73 74
f 223 42 224
f 223 40 41
f 223 41 42
f 257 256 74
f 257 74 75
f 222 40 223
f 258 257 75
f 258 75 76
f 221 39 40
f 221 40 222
f 259 258 76
f 259 76 77
f 220 38 39
f 220 39 221
f 260 259 77
f 260 77 78
f 219 37 38
f 219 38 220
f 261 260 78
f 261 78 79
f 218 36 37
f 218 37 219
f 262 261 79
f 262 79 80
f 35 218 217
f 35 36 218
f 263 262 80
f 81 263 80
f 216 35 217
f 34 35 216
f 82 263 81
f 82 264 263
f 82 265 264
f 33 216 215
f 33 34 216
f 83 266 265
f 83 265 82
f 32 214 213
f 32 215 214
f 32 33 215
f 84 267 266
f 84 266 83
f 31 32 213
f 85 267 84
f 30 31 213
f 30 213 212
f 86 267 85
f 86 268 267
f 29 212 211
f 29 30 212
f 87 268 86
f 87 269 268
f 28 211 210
f 28 29 211
f 88 270 269
f 88 269 87
f 27 28 210
f 27 210 209
f 89 270 88
f 89 271 270
f 26 209 208
f 26 27 209
f 90 271 89
f 90 272 271
f 25 207 206
f 25 208 207
f 25 26 208
f 91 272 90
f 91 273 272
f 91 183 273
f 24 25 206
f 1 183 91
f 23 206 205
f 23 24 206
f 2 183 1
f 2 184 183
f 2 185 184
f 22 23 205
f 22 205 204
f 3 185 2
f 21 22 204
f 21 204 203
f 4 185 3
f 4 186 185
f 20 203 202
f 20 21 203
f 5 186 4
f 5 187 186
f 5 188 187
f 19 202 201
f 19 20 202
f 6 188 5
f 18 201 200
f 18 19 201
f 7 188 6
f 7 189 188
f 17 199 198
f 17 200 199
f 17 18 200
f 8 189 7
f 8 190 189
f 16 17 198
f 9 190 8
f 9 191 190
f 15 197 196
f 15 198 197
f 15 16 198
f 10 193 192
f 10 191 9
f 10 192 191
f 14 15 196
f 11 193 10
f 13 196 195
f 13 14 196
f 12 194 193
f 12 195 194
f 12 193 11
f 12 13 195
f 331 150 149
f 330 331 149
f 330 149 148
f 332 150 331
f 329 330 148
f 329 148 147
f 333 150 332
f 333 151 150
f 328 329 147
f 328 146 145
f 328 147 146
f 334 151 333
f 334 152 151
f 327 328 145
f 335 152 334
f 335 153 152
f 326 145 144
f 326 327 145
f 336 153 335
f 336 154 153
f 325 144 143
f 325 326 144
f 337 154 336
f 337 155 154
f 324 325 143
f 324 143 142
f 338 156 155
f 338 155 337
f 323 324 142
f 323 142 141
f 339 157 156
f 339 158 157
f 339 156 338
f 322 323 141
f 322 141 140
f 340 158 339
f 321 140 139
f 321 322 140
f 341 159 158
f 341 158 340
f 320 139 138
f 320 321 139
f 342 160 159
f 342 159 341
f 319 138 137
f 319 320 138
f 343 160 342
f 343 161 160
f 318 319 137
f 318 137 136
f 344 162 161
f 344 161 343
f 317 318 136
f 317 136 135
f 345 162 344
f 345 163 162
f 345 164 163
f 316 317 135
f 316 135 134
f 346 164 345
f 315 316 134
f 315 134 133
f 347 164 346
f 347 165 164
f 314 315 133
f 314 132 131
f 314 133 132
f 348 165 347
f 348 166 165
f 313 314 131
f 349 166 348
f 349 167 166
f 312 131 130
f 312 313 131
f 350 167 349
f 350 168 167
f 311 130 129
f 311 312 130
f 351 168 350
f 351 169 168
f 310 129 128
f 310 311 129
f 352 169 351
f 352 170 169
f 309 128 127
f 309 310 128
f 353 170 352
f 353 171 170
f 126 308 309
f 126 309 127
f 354 171 353
f 172 171 354
f 307 308 126
f 125 307 126
f 173 172 354
f 173 354 355
f 173 355 356
f 124 306 307
f 124 307 125
f 174 356 357
f 174 173 356
f 123 304 305
f 123 305 306
f 123 306 124
f 175 357 358
f 175 174 357
f 122 304 123
f 176 175 358
f 121 304 122
f 121 303 304
f 177 176 358
f 177 358 359
f 120 302 303
f 120 303 121
f 178 177 359
f 178 359 360
f 119 301 302
f 119 302 120
f 179 360 361
f 179 178 360
f 118 301 119
f 118 300 301
f 180 179 361
f 180 361 362
f 117 299 300
f 117 300 118
f 181 180 362
f 181 362 363
f 116 297 298
f 116 298 299
f 116 299 117
f 182 181 363
f 182 363 364
f 182 364 274
f 115 297 116
f 92 182 274
f 114 296 297
f 114 297 115
f 93 92 274
f 93 274 275
f 93 275 276
f 113 296 114
f 113 295 296
f 94 93 276
f 112 295 113
f 112 294 295
f 95 94 276
f 95 276 277
f 111 293 294
f 111 294 112
f 96 95 277
f 96 277 278
f 96 278 279
f 110 292 293
f 110 293 111
f 97 96 279
f 109 291 292
f 109 292 110
f 98 97 279
f 98 279 280
f 108 289 290
f 108 290 291
f 108 291 109
f 99 98 280
f 99 280 281
f 107 289 108
f 100 99 281
f 100 281 282
f 106 287 288
f 106 288 289
f 106 289 107
f 101 283 284
f 101 100 282
f 101 282 283
f 105 287 106
f 102 101 284
f 104 286 287
f 104 287 105
f 103 284 285
f 103 285 286
f 103 102 284
f 103 286 104
f 184 274 183
f 184 275 274
f 185 276 275
f 185 275 184
f 186 277 276
f 186 276 185
f 187 277 186
f 187 278 277
f 188 278 187
f 188 279 278
f 188 280 279
f 189 280 188
f 190 280 189
f 190 281 280
f 191 281 190
f 191 282 281
f 192 283 282
f 192 282 191
f 193 284 283
f 193 283 192
f 194 285 284
f 194 284 193
f 195 286 285
f 195 285 194
f 196 287 286
f 196 286 195
f 197 288 287
f 197 289 288
f 197 287 196
f 198 289 197
f 199 290 289
f 199 289 198
f 200 291 290
f 200 290 199
f 201 292 291
f 201 291 200
f 202 293 292
f 202 292 201
f 203 294 293
f 203 293 202
f 204 295 294
f 204 294 203
f 205 296 295
f 205 295 204
f 206 297 296
f 206 298 297
f 206 296 205
f 207 298 206
f 208 299 298
f 208 298 207
f 209 300 299
f 209 299 208
f 210 301 300
f 210 300 209
f 211 302 301
f 211 303 302
f 211 301 210
f 212 303 211
f 212 304 303
f 213 304 212
f 214 304 213
f 214 305 304
f 215 305 214
f 215 306 305
f 216 306 215
f 216 307 306
f 216 308 307
f 217 308 216
f 218 309 308
f 218 308 217
f 219 310 309
f 219 311 310
f 219 309 218
f 220 311 219
f 221 312 311
f 221 311 220
f 222 313 312
f 222 312 221
f 223 314 313
f 223 313 222
f 224 315 314
f 224 316 315
f 224 314 223
f 225 316 224
f 226 317 316
f 226 316 225
f 227 318 317
f 227 319 318
f 227 317 226
f 228 319 227
f 229 320 319
f 229 321 320
f 229 319 228
f 230 321 229
f 231 322 321
f 231 321 230
f 232 323 322
f 232 322 231
f 233 324 323
f 233 323 232
f 234 325 324
f 234 326 325
f 234 324 233
f 235 326 234
f 236 327 326
f 236 326 235
f 237 328 327
f 237 329 328
f 237 327 236
f 238 329 237
f 239 329 238
f 239 330 329
f 240 330 239
f 240 331 330
f 241 331 240
f 241 332 331
f 242 332 241
f 242 333 332
f 243 333 242
f 243 334 333
f 244 334 243
f 244 335 334
f 245 335 244
f 245 336 335
f 246 336 245
f 246 337 336
f 247 337 246
f 247 338 337
f 247 339 338
f 248 339 247
f 249 339 248
f 249 340 339
f 249 341 340
f 250 341 249
f 251 341 250
f 251 342 341
f 252 342 251
f 252 343 342
f 253 344 343
f 253 345 344
f 253 343 252
f 254 345 253
f 255 346 345
f 255 347 346
f 255 345 254
f 256 347 255
f 257 348 347
f 257 347 256
f 258 349 348
f 258 348 257
f 259 350 349
f 259 351 350
f 259 349 258
f 260 351 259
f 261 352 351
f 261 351 260
f 262 353 352
f 262 352 261
f 263 353 262
f 263 354 353
f 264 354 263
f 264 355 354
f 265 355 264
f 265 356 355
f 266 356 265
f 266 357 356
f 267 357 266
f 267 358 357
f 268 358 267
f 268 359 358
f 268 360 359
f 269 360 268
f 270 360 269
f 270 361 360
f 271 361 270
f 271 362 361
f 271 363 362
f 272 363 271
f 273 363 272
f 273 364 363
f 183 364 273
f 183 274 364
