# SimpleCAD BREP tessellation for MuJoCo
v 4.8 -1.17566092718e-15 3.6
v 4.78856290705 0.331157493141 3.6
v 4.75430613114 0.660736870018 3.6
v 4.69739292142 0.987167534812 3.6
v 4.61809449525 1.30889389675 3.6
v 4.51678874574 1.6243827832 3.6
v 4.39395844092 1.93213074595 3.6
v 4.25018892314 2.23067122581 3.6
v 4.0861653196 2.51858154144 3.6
v 3.9026692775 2.79448966906 3.6
v 3.70057523902 3.05708078081 3.6
v 3.48084627429 3.30510351045 3.6
v 3.24452949189 3.53737591672 3.6
v 2.99275104892 3.75279111585 3.6
v 2.72671078431 3.95032255629 3.6
v 2.44767650107 4.12902891078 3.6
v 2.15697792464 4.28805856217 3.6
v 1.85600036612 4.42665366174 3.6
v 1.54617812063 4.54415374072 3.6
v 1.22898763228 4.63999885773 3.6
v 0.905940458174 4.71373226714 3.6
v 0.578576065226 4.76500259567 3.6
v 0.248454493844 4.79356551687 3.6
v -0.0828510763459 4.7992849154 3.6
v -0.413761823427 4.78213353572 3.6
v -0.742700806993 4.74219311198 3.6
v -1.06810048299 4.67965397847 3.6
v -1.38841017378 4.59481416266 3.6
v -1.7021034578 4.48807796489 3.6
v -2.00768544372 4.35995403176 3.6
v -2.30369989421 4.21105293216 3.6
v -2.5887361656 4.04208424763 3.6
v -2.86143593025 3.85385319091 3.6
v -3.12049964961 3.64725676869 3.6
v -3.36469276707 3.42327950703 3.6
v -3.59285159122 3.18298875956 3.6
v -3.80388884137 2.92752962112 3.6
v -3.9967988289 2.65811947085 3.6
v -4.17066224988 2.3760421708 3.6
v -4.32465056593 2.08264194776 3.6
v -4.4580299526 1.77931698742 3.6
v -4.57016479637 1.46751277133 3.6
v -4.66052072365 1.14871518858 3.6
v -4.72866714728 0.824443454838 3.6
v -4.77427931854 0.496242872584 3.6
v -4.79713987465 0.165677467055 3.6
v -4.79713987465 -0.165677467055 3.6
v -4.77427931854 -0.496242872584 3.6
v -4.72866714728 -0.824443454838 3.6
v -4.66052072365 -1.14871518858 3.6
v -4.57016479637 -1.46751277133 3.6
v -4.4580299526 -1.77931698742 3.6
v -4.32465056593 -2.08264194776 3.6
v -4.17066224988 -2.3760421708 3.6
v -3.9967988289 -2.65811947085 3.6
v -3.80388884137 -2.92752962112 3.6
v -3.59285159122 -3.18298875956 3.6
v -3.36469276707 -3.42327950703 3.6
v -3.12049964961 -3.64725676869 3.6
v -2.86143593025 -3.85385319091 3.6
v -2.5887361656 -4.04208424763 3.6
v -2.30369989421 -4.21105293216 3.6
v -2.00768544372 -4.35995403176 3.6
v -1.7021034578 -4.48807796489 3.6
v -1.38841017378 -4.59481416266 3.6
v -1.06810048299 -4.67965397847 3.6
v -0.742700806993 -4.74219311198 3.6
v -0.413761823427 -4.78213353572 3.6
v -0.0828510763458 -4.7992849154 3.6
v 0.248454493844 -4.79356551687 3.6
v 0.578576065226 -4.76500259567 3.6
v 0.905940458174 -4.71373226714 3.6
v 1.22898763228 -4.63999885773 3.6
v 1.54617812063 -4.54415374072 3.6
v 1.85600036612 -4.42665366174 3.6
v 2.15697792464 -4.28805856217 3.6
v 2.44767650107 -4.12902891078 3.6
v 2.72671078431 -3.95032255629 3.6
v 2.99275104892 -3.75279111585 3.6
v 3.24452949189 -3.53737591672 3.6
v 3.48084627429 -3.30510351045 3.6
v 3.70057523902 -3.05708078081 3.6
v 3.9026692775 -2.79448966906 3.6
v 4.0861653196 -2.51858154144 3.6
v 4.25018892314 -2.23067122581 3.6
v 4.39395844092 -1.93213074595 3.6
v 4.51678874574 -1.6243827832 3.6
v 4.61809449525 -1.30889389675 3.6
v 4.69739292142 -0.987167534812 3.6
v 4.75430613114 -0.660736870018 3.6
v 4.78856290705 -0.331157493141 3.6
v 4.8 -1.17566092718e-15 0
v 4.78856290705 0.331157493141 0
v 4.75430613114 0.660736870018 0
v 4.69739292142 0.987167534812 0
v 4.61809449525 1.30889389675 0
v 4.51678874574 1.6243827832 0
v 4.39395844092 1.93213074595 0
v 4.25018892314 2.23067122581 0
v 4.0861653196 2.51858154144 0
v 3.9026692775 2.79448966906 0
v 3.70057523902 3.05708078081 0
v 3.48084627429 3.30510351045 0
v 3.24452949189 3.53737591672 0
v 2.99275104892 3.75279111585 0
v 2.72671078431 3.95032255629 0
v 2.44767650107 4.12902891078 0
v 2.15697792464 4.28805856217 0
v 1.85600036612 4.42665366174 0
v 1.54617812063 4.54415374072 0
v 1.22898763228 4.63999885773 0
v 0.905940458174 4.71373226714 0
v 0.578576065226 4.76500259567 0
v 0.248454493844 4.79356551687 0
v -0.0828510763459 4.7992849154 0
v -0.413761823427 4.78213353572 0
v -0.742700806993 4.74219311198 0
v -1.06810048299 4.67965397847 0
v -1.38841017378 4.59481416266 0
v -1.7021034578 4.48807796489 0
v -2.00768544372 4.35995403176 0
v -2.30369989421 4.21105293216 0
v -2.5887361656 4.04208424763 0
v -2.86143593025 3.85385319091 0
v -3.12049964961 3.64725676869 0
v -3.36469276707 3.42327950703 0
v -3.59285159122 3.18298875956 0
v -3.80388884137 2.92752962112 0
v -3.9967988289 2.65811947085 0
v -4.17066224988 2.3760421708 0
v -4.32465056593 2.08264194776 0
v -4.4580299526 1.77931698742 0
v -4.57016479637 1.46751277133 0
v -4.66052072365 1.14871518858 0
v -4.72866714728 0.824443454838 0
v -4.77427931854 0.496242872584 0
v -4.79713987465 0.165677467055 0
v -4.79713987465 -0.165677467055 0
v -4.77427931854 -0.496242872584 0
v -4.72866714728 -0.824443454838 0
v -4.66052072365 -1.14871518858 0
v -4.57016479637 -1.46751277133 0
v -4.4580299526 -1.77931698742 0
v -4.32465056593 -2.08264194776 0
v -4.17066224988 -2.3760421708 0
v -3.9967988289 -2.65811947085 0
v -3.80388884137 -2.92752962112 0
v -3.59285159122 -3.18298875956 0
v -3.36469276707 -3.42327950703 0
v -3.12049964961 -3.64725676869 0
v -2.86143593025 -3.85385319091 0
v -2.5887361656 -4.04208424763 0
v -2.30369989421 -4.21105293216 0
v -2.00768544372 -4.35995403176 0
v -1.7021034578 -4.48807796489 0
v -1.38841017378 -4.59481416266 0
v -1.06810048299 -4.67965397847 0
v -0.742700806993 -4.74219311198 0
v -0.413761823427 -4.78213353572 0
v -0.0828510763458 -4.7992849154 0
v 0.248454493844 -4.79356551687 0
v 0.578576065226 -4.76500259567 0
v 0.905940458174 -4.71373226714 0
v 1.22898763228 -4.63999885773 0
v 1.54617812063 -4.54415374072 0
v 1.85600036612 -4.42665366174 0
v 2.15697792464 -4.28805856217 0
v 2.44767650107 -4.12902891078 0
v 2.72671078431 -3.95032255629 0
v 2.99275104892 -3.75279111585 0
v 3.24452949189 -3.53737591672 0
v 3.48084627429 -3.30510351045 0
v 3.70057523902 -3.05708078081 0
v 3.9026692775 -2.79448966906 0
v 4.0861653196 -2.51858154144 0
v 4.25018892314 -2.23067122581 0
v 4.39395844092 -1.93213074595 0
v 4.51678874574 -1.6243827832 0
v 4.61809449525 -1.30889389675 0
v 4.69739292142 -0.987167534812 0
v 4.75430613114 -0.660736870018 0
v 4.78856290705 -0.331157493141 0
v 1.35 -3.3065463577e-16 3.6
v 1.34678331761 0.0931380449458 3.6
v 1.33714859938 0.185832244693 3.6
v 1.32114175915 0.277640869166 3.6
v 1.29883907679 0.368126408461 3.6
v 1.27034683474 0.456857657775 3.6
v 1.23580081151 0.543411772299 3.6
v 1.19536563463 0.627376282259 3.6
v 1.14923399614 0.708351058529 3.6
v 1.0976257343 0.785950219423 3.6
v 1.04078678597 0.859803969602 3.6
v 0.978988014644 0.929560362313 3.6
v 0.912523919595 0.994886976579 3.6
v 0.841711232509 1.05547250133 3.6
v 0.766887408087 1.11102821896 3.6
v 0.688409015927 1.16128938116 3.6
v 0.606650041306 1.20601647061 3.6
v 0.522000102971 1.24499634236 3.6
v 0.434862596428 1.27804323958 3.6
v 0.345652771578 1.30499967874 3.6
v 0.254795753861 1.32573720013 3.6
v 0.162724518345 1.34015698003 3.6
v 0.0698778263937 1.34819030162 3.6
v -0.0233018652223 1.34979888246 3.6
v -0.116370512839 1.34497505692 3.6
v -0.208884601967 1.33374181274 3.6
v -0.300403260841 1.31615268145 3.6
v -0.390490361374 1.29229148325 3.6
v -0.478716597507 1.26227192763 3.6
v -0.564661531047 1.22623707143 3.6
v -0.647915595246 1.18435863717 3.6
v -0.728082046574 1.13683619465 3.6
v -0.804778855383 1.08389620994 3.6
v -0.877640526453 1.0257909662 3.6
v -0.946319840738 0.962797361351 3.6
v -1.01048951003 0.895215588625 3.6
v -1.06984373663 0.82336770594 3.6
v -1.12409967063 0.747596101177 3.6
v -1.17299875778 0.668261860538 3.6
v -1.21630797167 0.585743047809 3.6
v -1.25382092417 0.500432902711 3.6
v -1.28535884898 0.412737966936 3.6
v -1.31077145353 0.323076146788 3.6
v -1.32993763517 0.231874721673 3.6
v -1.34276605834 0.139568307914 3.6
v -1.34919558974 0.0465967876091 3.6
v -1.34919558974 -0.0465967876091 3.6
v -1.34276605834 -0.139568307914 3.6
v -1.32993763517 -0.231874721673 3.6
v -1.31077145353 -0.323076146788 3.6
v -1.28535884898 -0.412737966936 3.6
v -1.25382092417 -0.500432902711 3.6
v -1.21630797167 -0.585743047809 3.6
v -1.17299875778 -0.668261860538 3.6
v -1.12409967063 -0.747596101177 3.6
v -1.06984373663 -0.82336770594 3.6
v -1.01048951003 -0.895215588625 3.6
v -0.946319840738 -0.962797361351 3.6
v -0.877640526453 -1.0257909662 3.6
v -0.804778855383 -1.08389620994 3.6
v -0.728082046574 -1.13683619465 3.6
v -0.647915595246 -1.18435863717 3.6
v -0.564661531047 -1.22623707143 3.6
v -0.478716597507 -1.26227192763 3.6
v -0.390490361374 -1.29229148325 3.6
v -0.300403260841 -1.31615268145 3.6
v -0.208884601967 -1.33374181274 3.6
v -0.116370512839 -1.34497505692 3.6
v -0.0233018652223 -1.34979888246 3.6
v 0.0698778263937 -1.34819030162 3.6
v 0.162724518345 -1.34015698003 3.6
v 0.254795753861 -1.32573720013 3.6
v 0.345652771578 -1.30499967874 3.6
v 0.434862596428 -1.27804323958 3.6
v 0.522000102971 -1.24499634236 3.6
v 0.606650041306 -1.20601647061 3.6
v 0.688409015927 -1.16128938116 3.6
v 0.766887408087 -1.11102821896 3.6
v 0.841711232509 -1.05547250133 3.6
v 0.912523919595 -0.994886976579 3.6
v 0.978988014644 -0.929560362313 3.6
v 1.04078678597 -0.859803969602 3.6
v 1.0976257343 -0.785950219423 3.6
v 1.14923399614 -0.708351058529 3.6
v 1.19536563463 -0.627376282259 3.6
v 1.23580081151 -0.543411772299 3.6
v 1.27034683474 -0.456857657775 3.6
v 1.29883907679 -0.368126408461 3.6
v 1.32114175915 -0.277640869166 3.6
v 1.33714859938 -0.185832244693 3.6
v 1.34678331761 -0.0931380449458 3.6
v 2.9 -7.10295143505e-16 0
v 2.89309008967 0.200074318773 0
v 2.87239328756 0.399195192303 0
v 2.83800822336 0.596413718949 0
v 2.79009875755 0.79079006262 0
v 2.72889320055 0.981397931518 0
v 2.65468322472 1.16732899235 0
v 2.56782247439 1.34769719893 0
v 2.46872488059 1.52164301462 0
v 2.35786268849 1.68833750839 0
v 2.23576420691 1.84698630507 0
v 2.10301129072 1.9968333709 0
v 1.96023656802 2.13716461635 0
v 1.80812042539 2.26731129916 0
v 1.64738776552 2.38665321109 0
v 1.47880455273 2.4946216336 0
v 1.3031741628 2.59070204798 0
v 1.12133355453 2.6744365873 0
v 0.934149281216 2.74542621835 0
v 0.742513361167 2.80333264321 0
v 0.547339026813 2.84787991139 0
v 0.34955637274 2.87885573488 0
v 0.150107923364 2.89611249977 0
v -0.0500558586256 2.89956796972 0
v -0.249981101654 2.88920567783 0
v -0.448715070892 2.86507500515 0
v -0.645310708473 2.82729094533 0
v -0.838831146656 2.77603355661 0
v -1.02835417242 2.71154710379 0
v -1.21297662225 2.63413889419 0
v -1.39181868608 2.54417781318 0
v -1.56402810005 2.44209256628 0
v -1.72878420786 2.32836963617 0
v -1.88530187164 2.20355096442 0
v -2.03283521344 2.06823136883 0
v -2.1706811697 1.9230557089 0
v -2.29818284166 1.76871581276 0
v -2.41473262579 1.60594718031 0
v -2.5197751093 1.43552547819 0
v -2.61280971692 1.25826284344 0
v -2.69339309636 1.07500401323 0
v -2.76114123114 0.886622299343 0
v -2.81573127054 0.694015426434 0
v -2.85690306815 0.498101253965 0
v -2.88446042162 0.299813402186 0
v -2.8982720076 0.100096803012 0
v -2.8982720076 -0.100096803012 0
v -2.88446042162 -0.299813402186 0
v -2.85690306815 -0.498101253965 0
v -2.81573127054 -0.694015426434 0
v -2.76114123114 -0.886622299343 0
v -2.69339309636 -1.07500401323 0
v -2.61280971692 -1.25826284344 0
v -2.5197751093 -1.43552547819 0
v -2.41473262579 -1.60594718031 0
v -2.29818284166 -1.76871581276 0
v -2.1706811697 -1.9230557089 0
v -2.03283521344 -2.06823136883 0
v -1.88530187164 -2.20355096442 0
v -1.72878420786 -2.32836963617 0
v -1.56402810005 -2.44209256628 0
v -1.39181868608 -2.54417781318 0
v -1.21297662225 -2.63413889419 0
v -1.02835417242 -2.71154710379 0
v -0.838831146656 -2.77603355661 0
v -0.645310708473 -2.82729094533 0
v -0.448715070892 -2.86507500515 0
v -0.249981101654 -2.88920567783 0
v -0.0500558586256 -2.89956796972 0
v 0.150107923364 -2.89611249977 0
v 0.34955637274 -2.87885573488 0
v 0.547339026813 -2.84787991139 0
v 0.742513361167 -2.80333264321 0
v 0.934149281216 -2.74542621835 0
v 1.12133355453 -2.6744365873 0
v 1.3031741628 -2.59070204798 0
v 1.47880455273 -2.4946216336 0
v 1.64738776552 -2.38665321109 0
v 1.80812042539 -2.26731129916 0
v 1.96023656802 -2.13716461635 0
v 2.10301129072 -1.9968333709 0
v 2.23576420691 -1.84698630507 0
v 2.35786268849 -1.68833750839 0
v 2.46872488059 -1.52164301462 0
v 2.56782247439 -1.34769719893 0
v 2.65468322472 -1.16732899235 0
v 2.72889320055 -0.981397931518 0
v 2.79009875755 -0.79079006262 0
v 2.83800822336 -0.596413718949 0
v 2.87239328756 -0.399195192303 0
v 2.89309008967 -0.200074318773 0
v 1.35 -3.3065463577e-16 1.6
v 1.34678331761 0.0931380449458 1.6
v 1.33714859938 0.185832244693 1.6
v 1.32114175915 0.277640869166 1.6
v 1.29883907679 0.368126408461 1.6
v 1.27034683474 0.456857657775 1.6
v 1.23580081151 0.543411772299 1.6
v 1.19536563463 0.627376282259 1.6
v 1.14923399614 0.708351058529 1.6
v 1.0976257343 0.785950219423 1.6
v 1.04078678597 0.859803969602 1.6
v 0.978988014644 0.929560362313 1.6
v 0.912523919595 0.994886976579 1.6
v 0.841711232509 1.05547250133 1.6
v 0.766887408087 1.11102821896 1.6
v 0.688409015927 1.16128938116 1.6
v 0.606650041306 1.20601647061 1.6
v 0.522000102971 1.24499634236 1.6
v 0.434862596428 1.27804323958 1.6
v 0.345652771578 1.30499967874 1.6
v 0.254795753861 1.32573720013 1.6
v 0.162724518345 1.34015698003 1.6
v 0.0698778263937 1.34819030162 1.6
v -0.0233018652223 1.34979888246 1.6
v -0.116370512839 1.34497505692 1.6
v -0.208884601967 1.33374181274 1.6
v -0.300403260841 1.31615268145 1.6
v -0.390490361374 1.29229148325 1.6
v -0.478716597507 1.26227192763 1.6
v -0.564661531047 1.22623707143 1.6
v -0.647915595246 1.18435863717 1.6
v -0.728082046574 1.13683619465 1.6
v -0.804778855383 1.08389620994 1.6
v -0.877640526453 1.0257909662 1.6
v -0.946319840738 0.962797361351 1.6
v -1.01048951003 0.895215588625 1.6
v -1.06984373663 0.82336770594 1.6
v -1.12409967063 0.747596101177 1.6
v -1.17299875778 0.668261860538 1.6
v -1.21630797167 0.585743047809 1.6
v -1.25382092417 0.500432902711 1.6
v -1.28535884898 0.412737966936 1.6
v -1.31077145353 0.323076146788 1.6
v -1.32993763517 0.231874721673 1.6
v -1.34276605834 0.139568307914 1.6
v -1.34919558974 0.0465967876091 1.6
v -1.34919558974 -0.0465967876091 1.6
v -1.34276605834 -0.139568307914 1.6
v -1.32993763517 -0.231874721673 1.6
v -1.31077145353 -0.323076146788 1.6
v -1.28535884898 -0.412737966936 1.6
v -1.25382092417 -0.500432902711 1.6
v -1.21630797167 -0.585743047809 1.6
v -1.17299875778 -0.668261860538 1.6
v -1.12409967063 -0.747596101177 1.6
v -1.06984373663 -0.82336770594 1.6
v -1.01048951003 -0.895215588625 1.6
v -0.946319840738 -0.962797361351 1.6
v -0.877640526453 -1.0257909662 1.6
v -0.804778855383 -1.08389620994 1.6
v -0.728082046574 -1.13683619465 1.6
v -0.647915595246 -1.18435863717 1.6
v -0.564661531047 -1.22623707143 1.6
v -0.478716597507 -1.26227192763 1.6
v -0.390490361374 -1.29229148325 1.6
v -0.300403260841 -1.31615268145 1.6
v -0.208884601967 -1.33374181274 1.6
v -0.116370512839 -1.34497505692 1.6
v -0.0233018652223 -1.34979888246 1.6
v 0.0698778263937 -1.34819030162 1.6
v 0.162724518345 -1.34015698003 1.6
v 0.254795753861 -1.32573720013 1.6
v 0.345652771578 -1.30499967874 1.6
v 0.434862596428 -1.27804323958 1.6
v 0.522000102971 -1.24499634236 1.6
v 0.606650041306 -1.20601647061 1.6
v 0.688409015927 -1.16128938116 1.6
v 0.766887408087 -1.11102821896 1.6
v 0.841711232509 -1.05547250133 1.6
v 0.912523919595 -0.994886976579 1.6
v 0.978988014644 -0.929560362313 1.6
v 1.04078678597 -0.859803969602 1.6
v 1.0976257343 -0.785950219423 1.6
v 1.14923399614 -0.708351058529 1.6
v 1.19536563463 -0.627376282259 1.6
v 1.23580081151 -0.543411772299 1.6
v 1.27034683474 -0.456857657775 1.6
v 1.29883907679 -0.368126408461 1.6
v 1.32114175915 -0.277640869166 1.6
v 1.33714859938 -0.185832244693 1.6
v 1.34678331761 -0.0931380449458 1.6
v 2.9 -7.10295143505e-16 -63.636232708
v 2.89309008967 0.200074318773 -63.636232708
v 2.87239328756 0.399195192303 -63.636232708
v 2.83800822336 0.596413718949 -63.636232708
v 2.79009875755 0.79079006262 -63.636232708
v 2.72889320055 0.981397931518 -63.636232708
v 2.65468322472 1.16732899235 -63.636232708
v 2.56782247439 1.34769719893 -63.636232708
v 2.46872488059 1.52164301462 -63.636232708
v 2.35786268849 1.68833750839 -63.636232708
v 2.23576420691 1.84698630507 -63.636232708
v 2.10301129072 1.9968333709 -63.636232708
v 1.96023656802 2.13716461635 -63.636232708
v 1.80812042539 2.26731129916 -63.636232708
v 1.64738776552 2.38665321109 -63.636232708
v 1.47880455273 2.4946216336 -63.636232708
v 1.3031741628 2.59070204798 -63.636232708
v 1.12133355453 2.6744365873 -63.636232708
v 0.934149281216 2.74542621835 -63.636232708
v 0.742513361167 2.80333264321 -63.636232708
v 0.547339026813 2.84787991139 -63.636232708
v 0.34955637274 2.87885573488 -63.636232708
v 0.150107923364 2.89611249977 -63.636232708
v -0.0500558586256 2.89956796972 -63.636232708
v -0.249981101654 2.88920567783 -63.636232708
v -0.448715070892 2.86507500515 -63.636232708
v -0.645310708473 2.82729094533 -63.636232708
v -0.838831146656 2.77603355661 -63.636232708
v -1.02835417242 2.71154710379 -63.636232708
v -1.21297662225 2.63413889419 -63.636232708
v -1.39181868608 2.54417781318 -63.636232708
v -1.56402810005 2.44209256628 -63.636232708
v -1.72878420786 2.32836963617 -63.636232708
v -1.88530187164 2.20355096442 -63.636232708
v -2.03283521344 2.06823136883 -63.636232708
v -2.1706811697 1.9230557089 -63.636232708
v -2.29818284166 1.76871581276 -63.636232708
v -2.41473262579 1.60594718031 -63.636232708
v -2.5197751093 1.43552547819 -63.636232708
v -2.61280971692 1.25826284344 -63.636232708
v -2.69339309636 1.07500401323 -63.636232708
v -2.76114123114 0.886622299343 -63.636232708
v -2.81573127054 0.694015426434 -63.636232708
v -2.85690306815 0.498101253965 -63.636232708
v -2.88446042162 0.299813402186 -63.636232708
v -2.8982720076 0.100096803012 -63.636232708
v -2.8982720076 -0.100096803012 -63.636232708
v -2.88446042162 -0.299813402186 -63.636232708
v -2.85690306815 -0.498101253965 -63.636232708
v -2.81573127054 -0.694015426434 -63.636232708
v -2.76114123114 -0.886622299343 -63.636232708
v -2.69339309636 -1.07500401323 -63.636232708
v -2.61280971692 -1.25826284344 -63.636232708
v -2.5197751093 -1.43552547819 -63.636232708
v -2.41473262579 -1.60594718031 -63.636232708
v -2.29818284166 -1.76871581276 -63.636232708
v -2.1706811697 -1.9230557089 -63.636232708
v -2.03283521344 -2.06823136883 -63.636232708
v -1.88530187164 -2.20355096442 -63.636232708
v -1.72878420786 -2.32836963617 -63.636232708
v -1.56402810005 -2.44209256628 -63.636232708
v -1.39181868608 -2.54417781318 -63.636232708
v -1.21297662225 -2.63413889419 -63.636232708
v -1.02835417242 -2.71154710379 -63.636232708
v -0.838831146656 -2.77603355661 -63.636232708
v -0.645310708473 -2.82729094533 -63.636232708
v -0.448715070892 -2.86507500515 -63.636232708
v -0.249981101654 -2.88920567783 -63.636232708
v -0.0500558586256 -2.89956796972 -63.636232708
v 0.150107923364 -2.89611249977 -63.636232708
v 0.34955637274 -2.87885573488 -63.636232708
v 0.547339026813 -2.84787991139 -63.636232708
v 0.742513361167 -2.80333264321 -63.636232708
v 0.934149281216 -2.74542621835 -63.636232708
v 1.12133355453 -2.6744365873 -63.636232708
v 1.3031741628 -2.59070204798 -63.636232708
v 1.47880455273 -2.4946216336 -63.636232708
v 1.64738776552 -2.38665321109 -63.636232708
v 1.80812042539 -2.26731129916 -63.636232708
v 1.96023656802 -2.13716461635 -63.636232708
v 2.10301129072 -1.9968333709 -63.636232708
v 2.23576420691 -1.84698630507 -63.636232708
v 2.35786268849 -1.68833750839 -63.636232708
v 2.46872488059 -1.52164301462 -63.636232708
v 2.56782247439 -1.34769719893 -63.636232708
v 2.65468322472 -1.16732899235 -63.636232708
v 2.72889320055 -0.981397931518 -63.636232708
v 2.79009875755 -0.79079006262 -63.636232708
v 2.83800822336 -0.596413718949 -63.636232708
v 2.87239328756 -0.399195192303 -63.636232708
v 2.89309008967 -0.200074318773 -63.636232708
f 2 1 92
f 2 92 93
f 3 93 94
f 3 2 93
f 4 94 95
f 4 3 94
f 5 4 95
f 5 95 96
f 5 96 97
f 6 5 97
f 7 6 97
f 7 97 98
f 8 7 98
f 8 98 99
f 9 8 99
f 9 99 100
f 10 100 101
f 10 9 100
f 11 101 102
f 11 10 101
f 12 102 103
f 12 11 102
f 13 103 104
f 13 104 105
f 13 12 103
f 14 13 105
f 15 105 106
f 15 14 105
f 16 106 107
f 16 15 106
f 17 107 108
f 17 16 107
f 18 108 109
f 18 109 110
f 18 17 108
f 19 18 110
f 20 110 111
f 20 19 110
f 21 111 112
f 21 112 113
f 21 20 111
f 22 113 114
f 22 21 113
f 23 22 114
f 24 114 115
f 24 115 116
f 24 23 114
f 25 24 116
f 26 116 117
f 26 25 116
f 27 117 118
f 27 118 119
f 27 26 117
f 28 27 119
f 29 119 120
f 29 120 121
f 29 28 119
f 30 29 121
f 31 30 121
f 31 121 122
f 32 31 122
f 32 122 123
f 33 32 123
f 33 123 124
f 33 124 125
f 34 33 125
f 35 34 125
f 35 125 126
f 35 126 127
f 36 127 128
f 36 35 127
f 37 36 128
f 38 128 129
f 38 37 128
f 39 129 130
f 39 38 129
f 40 130 131
f 40 39 130
f 41 131 132
f 41 40 131
f 42 132 133
f 42 41 132
f 43 133 134
f 43 42 133
f 44 134 135
f 44 43 134
f 45 135 136
f 45 44 135
f 46 136 137
f 46 45 136
f 47 137 138
f 47 46 137
f 48 138 139
f 48 47 138
f 49 139 140
f 49 140 141
f 49 48 139
f 50 49 141
f 51 141 142
f 51 50 141
f 52 142 143
f 52 51 142
f 53 143 144
f 53 144 145
f 53 52 143
f 54 53 145
f 55 145 146
f 55 54 145
f 56 55 146
f 56 146 147
f 57 56 147
f 57 147 148
f 58 57 148
f 58 148 149
f 58 149 150
f 59 58 150
f 60 59 150
f 60 150 151
f 61 60 151
f 61 151 152
f 62 61 152
f 62 152 153
f 62 153 154
f 63 62 154
f 64 63 154
f 64 154 155
f 64 155 156
f 65 64 156
f 66 65 156
f 66 156 157
f 67 66 157
f 67 157 158
f 68 67 158
f 68 158 159
f 68 159 160
f 69 68 160
f 70 160 161
f 70 69 160
f 70 161 162
f 71 70 162
f 72 162 163
f 72 71 162
f 73 163 164
f 73 72 163
f 74 164 165
f 74 73 164
f 75 165 166
f 75 74 165
f 76 166 167
f 76 75 166
f 77 167 168
f 77 168 169
f 77 76 167
f 78 77 169
f 79 169 170
f 79 78 169
f 80 170 171
f 80 171 172
f 80 79 170
f 81 80 172
f 81 172 173
f 82 81 173
f 83 82 173
f 83 173 174
f 84 83 174
f 84 174 175
f 85 84 175
f 85 175 176
f 85 176 177
f 86 85 177
f 87 86 177
f 87 177 178
f 88 87 178
f 88 178 179
f 89 88 179
f 89 179 180
f 90 89 180
f 90 180 181
f 91 90 181
f 91 181 182
f 91 182 92
f 1 91 92
f 239 58 240
f 239 57 58
f 241 240 58
f 241 58 59
f 238 56 57
f 238 57 239
f 242 59 60
f 242 241 59
f 237 55 56
f 237 56 238
f 243 242 60
f 243 60 61
f 236 55 237
f 236 54 55
f 244 61 62
f 244 243 61
f 235 53 54
f 235 54 236
f 245 244 62
f 245 62 63
f 245 63 64
f 234 53 235
f 234 52 53
f 246 245 64
f 233 52 234
f 233 51 52
f 247 64 65
f 247 246 64
f 232 50 51
f 232 51 233
f 248 65 66
f 248 247 65
f 231 49 50
f 231 50 232
f 249 66 67
f 249 248 66
f 230 48 49
f 230 49 231
f 250 67 68
f 250 249 67
f 229 48 230
f 229 47 48
f 251 68 69
f 251 250 68
f 228 47 229
f 228 46 47
f 252 69 70
f 252 251 69
f 227 46 228
f 227 45 46
f 253 70 71
f 253 252 70
f 226 44 45
f 226 45 227
f 254 253 71
f 254 71 72
f 225 44 226
f 225 43 44
f 255 72 73
f 255 254 72
f 224 43 225
f 224 42 43
f 256 255 73
f 256 73 74
f 223 42 224
f 223 41 42
f 257 256 74
f 257 74 75
f 222 41 223
f 222 39 40
f 222 40 41
f 258 257 75
f 258 75 76
f 221 39 222
f 259 258 76
f 259 76 77
f 220 38 39
f 220 39 221
f 260 259 77
f 260 77 78
f 219 38 220
f 219 36 37
f 219 37 38
f 261 260 78
f 261 78 79
f 218 36 219
f 262 261 79
f 262 79 80
f 217 36 218
f 35 36 217
f 216 35 217
f 81 262 80
f 81 263 262
f 34 35 216
f 82 264 263
f 82 263 81
f 33 215 214
f 33 216 215
f 33 34 216
f 83 265 264
f 83 264 82
f 32 214 213
f 32 33 214
f 84 266 265
f 84 265 83
f 31 32 213
f 85 266 84
f 85 267 266
f 30 213 212
f 30 31 213
f 86 267 85
f 86 268 267
f 29 211 210
f 29 212 211
f 29 30 212
f 87 268 86
f 87 269 268
f 28 29 210
f 88 269 87
f 88 270 269
f 88 271 270
f 27 209 208
f 27 210 209
f 27 28 210
f 89 271 88
f 26 27 208
f 90 271 89
f 90 272 271
f 90 273 272
f 25 26 208
f 25 208 207
f 91 273 90
f 24 206 205
f 24 207 206
f 24 25 207
f 1 273 91
f 1 183 273
f 23 24 205
f 2 184 183
f 2 183 1
f 22 204 203
f 22 205 204
f 22 23 205
f 3 184 2
f 3 185 184
f 21 203 202
f 21 22 203
f 4 186 185
f 4 185 3
f 4 187 186
f 20 21 202
f 5 187 4
f 19 202 201
f 19 20 202
f 6 187 5
f 6 188 187
f 18 201 200
f 18 19 201
f 7 188 6
f 7 189 188
f 17 200 199
f 17 18 200
f 8 189 7
f 8 190 189
f 8 191 190
f 16 199 198
f 16 17 199
f 9 191 8
f 9 192 191
f 15 16 198
f 15 198 197
f 10 192 9
f 14 197 196
f 14 15 197
f 11 193 192
f 11 192 10
f 13 196 195
f 13 14 196
f 12 194 193
f 12 195 194
f 12 193 11
f 12 13 195
f 331 150 149
f 330 331 149
f 330 149 148
f 332 150 331
f 332 151 150
f 329 330 148
f 329 148 147
f 333 151 332
f 328 329 147
f 328 147 146
f 334 151 333
f 334 152 151
f 327 328 146
f 327 146 145
f 335 153 152
f 335 154 153
f 335 152 334
f 326 145 144
f 326 327 145
f 336 154 335
f 325 326 144
f 325 144 143
f 337 154 336
f 337 155 154
f 337 156 155
f 324 143 142
f 324 325 143
f 338 156 337
f 323 324 142
f 323 142 141
f 339 157 156
f 339 156 338
f 322 323 141
f 322 140 139
f 322 141 140
f 340 157 339
f 340 158 157
f 321 322 139
f 341 159 158
f 341 158 340
f 320 139 138
f 320 321 139
f 342 160 159
f 342 159 341
f 319 138 137
f 319 320 138
f 343 161 160
f 343 160 342
f 318 137 136
f 318 319 137
f 344 162 161
f 344 161 343
f 317 136 135
f 317 318 136
f 345 163 162
f 345 162 344
f 316 135 134
f 316 317 135
f 346 163 345
f 346 164 163
f 315 316 134
f 315 134 133
f 347 164 346
f 347 165 164
f 314 133 132
f 314 315 133
f 348 165 347
f 348 166 165
f 348 167 166
f 313 314 132
f 313 132 131
f 349 167 348
f 312 313 131
f 312 131 130
f 350 167 349
f 350 168 167
f 311 312 130
f 311 130 129
f 351 168 350
f 351 169 168
f 310 129 128
f 310 311 129
f 352 169 351
f 352 170 169
f 309 310 128
f 309 128 127
f 353 170 352
f 353 171 170
f 126 308 309
f 126 309 127
f 354 171 353
f 172 171 354
f 125 307 308
f 125 308 126
f 173 172 354
f 173 354 355
f 124 306 307
f 124 307 125
f 174 173 355
f 174 355 356
f 123 305 306
f 123 306 124
f 175 356 357
f 175 357 358
f 175 174 356
f 122 303 304
f 122 304 305
f 122 305 123
f 176 175 358
f 121 303 122
f 177 358 359
f 177 176 358
f 120 302 303
f 120 303 121
f 178 177 359
f 178 359 360
f 119 301 302
f 119 302 120
f 179 178 360
f 179 360 361
f 179 361 362
f 118 299 300
f 118 300 301
f 118 301 119
f 180 179 362
f 117 299 118
f 117 298 299
f 181 180 362
f 181 362 363
f 116 298 117
f 182 181 363
f 182 363 364
f 115 296 297
f 115 297 298
f 115 298 116
f 92 364 274
f 92 182 364
f 114 296 115
f 93 274 275
f 93 92 274
f 113 295 296
f 113 296 114
f 94 93 275
f 94 275 276
f 112 294 295
f 112 295 113
f 95 94 276
f 95 276 277
f 95 277 278
f 111 293 294
f 111 294 112
f 96 95 278
f 96 278 279
f 110 292 293
f 110 293 111
f 97 96 279
f 109 291 292
f 109 292 110
f 98 97 279
f 98 279 280
f 108 289 290
f 108 290 291
f 108 291 109
f 99 98 280
f 99 280 281
f 107 288 289
f 107 289 108
f 100 99 281
f 100 281 282
f 106 288 107
f 101 100 282
f 101 282 283
f 105 287 288
f 105 288 106
f 102 283 284
f 102 101 283
f 104 287 105
f 104 286 287
f 103 284 285
f 103 285 286
f 103 286 104
f 103 102 284
f 184 365 183
f 184 366 365
f 185 367 366
f 185 366 184
f 186 368 367
f 186 367 185
f 187 368 186
f 187 369 368
f 188 369 187
f 188 370 369
f 189 370 188
f 189 371 370
f 189 372 371
f 190 372 189
f 191 372 190
f 191 373 372
f 192 374 373
f 192 373 191
f 193 375 374
f 193 374 192
f 194 376 375
f 194 375 193
f 195 377 376
f 195 376 194
f 196 378 377
f 196 377 195
f 197 379 378
f 197 378 196
f 198 380 379
f 198 381 380
f 198 379 197
f 199 381 198
f 200 382 381
f 200 381 199
f 201 383 382
f 201 382 200
f 202 384 383
f 202 383 201
f 203 385 384
f 203 384 202
f 204 386 385
f 204 385 203
f 205 387 386
f 205 386 204
f 206 388 387
f 206 387 205
f 207 389 388
f 207 388 206
f 208 390 389
f 208 389 207
f 209 391 390
f 209 390 208
f 210 392 391
f 210 391 209
f 211 393 392
f 211 394 393
f 211 392 210
f 212 394 211
f 213 394 212
f 213 395 394
f 214 395 213
f 214 396 395
f 215 396 214
f 215 397 396
f 216 397 215
f 216 398 397
f 217 398 216
f 217 399 398
f 218 400 399
f 218 401 400
f 218 399 217
f 219 401 218
f 220 402 401
f 220 401 219
f 221 403 402
f 221 402 220
f 222 404 403
f 222 405 404
f 222 403 221
f 223 405 222
f 224 406 405
f 224 405 223
f 225 407 406
f 225 406 224
f 226 408 407
f 226 409 408
f 226 407 225
f 227 409 226
f 228 410 409
f 228 409 227
f 229 411 410
f 229 410 228
f 230 412 411
f 230 413 412
f 230 411 229
f 231 414 413
f 231 413 230
f 232 414 231
f 233 415 414
f 233 416 415
f 233 414 232
f 234 417 416
f 234 416 233
f 235 417 234
f 236 418 417
f 236 417 235
f 237 419 418
f 237 418 236
f 238 419 237
f 238 420 419
f 239 420 238
f 239 421 420
f 240 421 239
f 240 422 421
f 241 422 240
f 241 423 422
f 241 424 423
f 242 424 241
f 243 424 242
f 243 425 424
f 244 425 243
f 244 426 425
f 245 426 244
f 245 427 426
f 246 427 245
f 246 428 427
f 247 428 246
f 247 429 428
f 248 429 247
f 248 430 429
f 248 431 430
f 249 431 248
f 250 431 249
f 250 432 431
f 251 432 250
f 251 433 432
f 252 433 251
f 252 434 433
f 253 435 434
f 253 434 252
f 254 436 435
f 254 435 253
f 255 437 436
f 255 436 254
f 256 438 437
f 256 439 438
f 256 437 255
f 257 439 256
f 258 440 439
f 258 439 257
f 259 441 440
f 259 440 258
f 260 442 441
f 260 441 259
f 261 443 442
f 261 442 260
f 262 443 261
f 262 444 443
f 263 444 262
f 263 445 444
f 263 446 445
f 264 446 263
f 265 446 264
f 265 447 446
f 265 448 447
f 266 448 265
f 267 448 266
f 267 449 448
f 267 450 449
f 268 450 267
f 269 450 268
f 269 451 450
f 270 451 269
f 270 452 451
f 271 452 270
f 271 453 452
f 272 453 271
f 272 454 453
f 273 454 272
f 273 455 454
f 183 455 273
f 183 365 455
f 274 456 457
f 275 274 457
f 276 457 458
f 276 275 457
f 277 458 459
f 277 276 458
f 278 277 459
f 278 459 460
f 279 278 460
f 279 460 461
f 279 461 462
f 280 279 462
f 281 280 462
f 281 462 463
f 281 463 464
f 282 281 464
f 283 464 465
f 283 282 464
f 284 465 466
f 284 283 465
f 285 466 467
f 285 467 468
f 285 284 466
f 286 285 468
f 287 468 469
f 287 469 470
f 287 286 468
f 288 287 470
f 289 470 471
f 289 288 470
f 290 471 472
f 290 289 471
f 291 472 473
f 291 290 472
f 292 473 474
f 292 291 473
f 293 474 475
f 293 292 474
f 294 475 476
f 294 293 475
f 295 476 477
f 295 294 476
f 296 477 478
f 296 478 479
f 296 295 477
f 297 296 479
f 298 479 480
f 298 297 479
f 299 480 481
f 299 298 480
f 300 481 482
f 300 299 481
f 301 482 483
f 301 483 484
f 301 300 482
f 302 301 484
f 303 302 484
f 303 484 485
f 304 303 485
f 304 485 486
f 305 304 486
f 305 486 487
f 306 305 487
f 306 487 488
f 307 306 488
f 307 488 489
f 308 307 489
f 308 489 490
f 308 490 491
f 309 491 492
f 309 308 491
f 310 309 492
f 311 492 493
f 311 310 492
f 312 493 494
f 312 311 493
f 313 494 495
f 313 495 496
f 313 312 494
f 314 313 496
f 315 496 497
f 315 314 496
f 316 497 498
f 316 315 497
f 317 498 499
f 317 316 498
f 318 499 500
f 318 500 501
f 318 317 499
f 319 501 502
f 319 318 501
f 320 319 502
f 321 502 503
f 321 320 502
f 322 503 504
f 322 321 503
f 323 504 505
f 323 322 504
f 324 505 506
f 324 323 505
f 325 506 507
f 325 324 506
f 326 507 508
f 326 325 507
f 327 508 509
f 327 509 510
f 327 326 508
f 328 327 510
f 328 510 511
f 329 328 511
f 329 511 512
f 330 329 512
f 331 330 512
f 331 512 513
f 332 331 513
f 332 513 514
f 332 514 515
f 333 332 515
f 333 515 516
f 334 333 516
f 335 334 516
f 335 516 517
f 335 517 518
f 336 335 518
f 336 518 519
f 337 336 519
f 337 519 520
f 338 337 520
f 339 338 520
f 339 520 521
f 340 339 521
f 340 521 522
f 341 340 522
f 341 522 523
f 342 341 523
f 342 523 524
f 342 524 525
f 343 342 525
f 343 525 526
f 344 343 526
f 345 526 527
f 345 344 526
f 346 527 528
f 346 345 527
f 347 528 529
f 347 346 528
f 348 529 530
f 348 347 529
f 349 530 531
f 349 531 532
f 349 348 530
f 350 349 532
f 351 532 533
f 351 350 532
f 352 533 534
f 352 534 535
f 352 351 533
f 353 535 536
f 353 352 535
f 354 353 536
f 355 354 536
f 355 536 537
f 356 355 537
f 356 537 538
f 357 356 538
f 357 538 539
f 358 357 539
f 358 539 540
f 359 358 540
f 359 540 541
f 360 359 541
f 360 541 542
f 361 360 542
f 361 542 543
f 361 543 544
f 362 361 544
f 362 544 545
f 363 362 545
f 363 545 546
f 364 363 546
f 364 546 456
f 274 364 456
f 426 424 425
f 428 426 427
f 414 415 416
f 412 413 414
f 435 433 434
f 439 435 436
f 439 436 437
f 439 437 438
f 403 404 405
f 403 405 406
f 403 406 407
f 403 407 408
f 403 408 409
f 442 439 440
f 442 440 441
f 401 402 403
f 443 439 442
f 443 435 439
f 443 433 435
f 443 428 429
f 443 429 430
f 443 430 431
f 443 431 432
f 443 432 433
f 445 443 444
f 398 399 400
f 398 400 401
f 397 398 401
f 447 445 446
f 396 403 409
f 396 424 426
f 396 412 414
f 396 414 416
f 396 409 410
f 396 410 411
f 396 411 412
f 396 416 417
f 396 397 401
f 396 417 418
f 396 418 419
f 396 419 420
f 396 401 403
f 396 420 421
f 396 421 422
f 396 422 423
f 396 423 424
f 449 447 448
f 449 445 447
f 394 395 396
f 392 394 396
f 392 393 394
f 452 443 445
f 452 449 450
f 452 450 451
f 452 445 449
f 454 452 453
f 389 390 391
f 389 391 392
f 366 454 455
f 366 455 365
f 366 452 454
f 367 452 366
f 385 386 387
f 385 387 388
f 385 388 389
f 370 368 369
f 381 382 383
f 372 370 371
f 380 381 383
f 373 370 372
f 379 367 368
f 379 426 428
f 379 443 452
f 379 383 384
f 379 384 385
f 379 389 392
f 379 385 389
f 379 452 367
f 379 428 443
f 379 380 383
f 379 396 426
f 379 392 396
f 374 370 373
f 376 374 375
f 376 377 378
f 376 378 379
f 376 368 370
f 376 370 374
f 376 379 368
f 514 513 512
f 510 512 511
f 508 510 509
f 518 517 516
f 506 508 507
f 520 518 516
f 520 515 514
f 520 516 515
f 520 519 518
f 505 512 510
f 505 510 508
f 505 508 506
f 502 504 503
f 502 505 504
f 525 521 520
f 525 522 521
f 525 523 522
f 525 524 523
f 527 526 525
f 498 500 499
f 497 501 500
f 497 502 501
f 497 500 498
f 496 505 502
f 496 502 497
f 496 514 512
f 496 512 505
f 531 529 528
f 531 530 529
f 493 495 494
f 493 496 495
f 533 531 528
f 533 532 531
f 492 496 493
f 535 534 533
f 490 492 491
f 489 525 520
f 489 527 525
f 489 492 490
f 489 514 496
f 489 496 492
f 489 528 527
f 489 520 514
f 537 536 535
f 538 537 535
f 486 488 487
f 540 535 533
f 540 538 535
f 540 539 538
f 484 486 485
f 484 489 488
f 484 528 489
f 484 488 486
f 481 483 482
f 481 484 483
f 480 484 481
f 546 544 543
f 546 545 544
f 476 528 484
f 476 484 480
f 476 478 477
f 476 479 478
f 476 480 479
f 476 533 528
f 459 458 457
f 460 459 457
f 461 457 456
f 461 546 543
f 461 460 457
f 461 542 541
f 461 543 542
f 461 456 546
f 473 475 474
f 471 533 476
f 471 473 472
f 471 476 475
f 471 475 473
f 471 540 533
f 471 541 540
f 464 463 462
f 465 464 462
f 469 471 470
f 466 465 462
f 468 461 541
f 468 541 471
f 468 471 469
f 467 462 461
f 467 466 462
f 467 461 468
