# SimpleCAD BREP tessellation for MuJoCo
v -1.95943487864e-15 -71 268
v 0.551929155235 -71 267.980938178
v 1.1012281167 -71 267.923843552
v 1.64527922469 -71 267.828988202
v 2.18148982792 -71 267.696824159
v 2.70730463867 -71 267.527981243
v 3.22021790992 -71 267.323264068
v 3.71778537635 -71 267.083648205
v 4.19763590239 -71 266.810275533
v 4.65748278177 -71 266.504448796
v 5.09513463468 -71 266.167625398
v 5.50850585075 -71 265.801410457
v 5.89562652787 -71 265.407549153
v 6.25465185974 -71 264.987918415
v 6.58387092715 -71 264.544517974
v 6.88171485131 -71 264.079460835
v 7.14676427028 -71 263.594963208
v 7.37775610289 -71 263.093333944
v 7.57358956786 -71 262.576963534
v 7.73333142955 -71 262.04831272
v 7.85622044523 -71 261.509900764
v 7.94167099278 -71 260.964293442
v 7.98927586144 -71 260.414090823
v 7.99880819233 -71 259.861914873
v 7.97022255954 -71 259.310396961
v 7.90365518663 -71 258.762165322
v 7.79942329745 -71 258.219832528
v 7.65802360443 -71 257.685983044
v 7.48012994148 -71 257.163160904
v 7.26659005293 -71 256.653857594
v 7.0184215536 -71 256.160500176
v 6.73680707938 -71 255.685439724
v 6.42308865151 -71 255.230940116
v 6.07876128116 -71 254.799167251
v 5.70546584504 -71 254.392178722
v 5.30498126593 -71 254.011914015
v 4.8792160352 -71 253.660185264
v 4.43019911808 -71 253.338668619
v 3.96007028467 -71 253.04889625
v 3.47106991294 -71 252.792249057
v 2.96552831236 -71 252.569950079
v 2.44585461888 -71 252.383058673
v 1.9145253143 -71 252.232465461
v 1.37407242473 -71 252.118888088
v 0.827071454307 -71 252.042867802
v 0.276129111758 -71 252.004766876
v -0.276129111758 -71 252.004766876
v -0.827071454307 -71 252.042867802
v -1.37407242473 -71 252.118888088
v -1.9145253143 -71 252.232465461
v -2.44585461888 -71 252.383058673
v -2.96552831236 -71 252.569950079
v -3.47106991294 -71 252.792249057
v -3.96007028467 -71 253.04889625
v -4.43019911808 -71 253.338668619
v -4.8792160352 -71 253.660185264
v -5.30498126593 -71 254.011914015
v -5.70546584504 -71 254.392178722
v -6.07876128116 -71 254.799167251
v -6.42308865151 -71 255.230940116
v -6.73680707938 -71 255.685439724
v -7.0184215536 -71 256.160500176
v -7.26659005293 -71 256.653857594
v -7.48012994148 -71 257.163160904
v -7.65802360443 -71 257.685983044
v -7.79942329745 -71 258.219832528
v -7.90365518663 -71 258.762165322
v -7.97022255954 -71 259.310396961
v -7.99880819233 -71 259.861914873
v -7.98927586144 -71 260.414090823
v -7.94167099278 -71 260.964293442
v -7.85622044523 -71 261.509900764
v -7.73333142955 -71 262.04831272
v -7.57358956786 -71 262.576963534
v -7.37775610289 -71 263.093333944
v -7.14676427028 -71 263.594963208
v -6.88171485131 -71 264.079460835
v -6.58387092715 -71 264.544517974
v -6.25465185974 -71 264.987918415
v -5.89562652787 -71 265.407549153
v -5.50850585075 -71 265.801410457
v -5.09513463468 -71 266.167625398
v -4.65748278177 -71 266.504448796
v -4.19763590239 -71 266.810275533
v -3.71778537635 -71 267.083648205
v -3.22021790992 -71 267.323264068
v -2.70730463867 -71 267.527981243
v -2.18148982792 -71 267.696824159
v -1.64527922469 -71 267.828988202
v -1.1012281167 -71 267.923843552
v -0.551929155235 -71 267.980938178
v -1.95943487864e-15 85 268
v 0.551929155235 85 267.980938178
v 1.1012281167 85 267.923843552
v 1.64527922469 85 267.828988202
v 2.18148982792 85 267.696824159
v 2.70730463867 85 267.527981243
v 3.22021790992 85 267.323264068
v 3.71778537635 85 267.083648205
v 4.19763590239 85 266.810275533
v 4.65748278177 85 266.504448796
v 5.09513463468 85 266.167625398
v 5.50850585075 85 265.801410457
v 5.89562652787 85 265.407549153
v 6.25465185974 85 264.987918415
v 6.58387092715 85 264.544517974
v 6.88171485131 85 264.079460835
v 7.14676427028 85 263.594963208
v 7.37775610289 85 263.093333944
v 7.57358956786 85 262.576963534
v 7.73333142955 85 262.04831272
v 7.85622044523 85 261.509900764
v 7.94167099278 85 260.964293442
v 7.98927586144 85 260.414090823
v 7.99880819233 85 259.861914873
v 7.97022255954 85 259.310396961
v 7.90365518663 85 258.762165322
v 7.79942329745 85 258.219832528
v 7.65802360443 85 257.685983044
v 7.48012994148 85 257.163160904
v 7.26659005293 85 256.653857594
v 7.0184215536 85 256.160500176
v 6.73680707938 85 255.685439724
v 6.42308865151 85 255.230940116
v 6.07876128116 85 254.799167251
v 5.70546584504 85 254.392178722
v 5.30498126593 85 254.011914015
v 4.8792160352 85 253.660185264
v 4.43019911808 85 253.338668619
v 3.96007028467 85 253.04889625
v 3.47106991294 85 252.792249057
v 2.96552831236 85 252.569950079
v 2.44585461888 85 252.383058673
v 1.9145253143 85 252.232465461
v 1.37407242473 85 252.118888088
v 0.827071454307 85 252.042867802
v 0.276129111758 85 252.004766876
v -0.276129111758 85 252.004766876
v -0.827071454307 85 252.042867802
v -1.37407242473 85 252.118888088
v -1.9145253143 85 252.232465461
v -2.44585461888 85 252.383058673
v -2.96552831236 85 252.569950079
v -3.47106991294 85 252.792249057
v -3.96007028467 85 253.04889625
v -4.43019911808 85 253.338668619
v -4.8792160352 85 253.660185264
v -5.30498126593 85 254.011914015
v -5.70546584504 85 254.392178722
v -6.07876128116 85 254.799167251
v -6.42308865151 85 255.230940116
v -6.73680707938 85 255.685439724
v -7.0184215536 85 256.160500176
v -7.26659005293 85 256.653857594
v -7.48012994148 85 257.163160904
v -7.65802360443 85 257.685983044
v -7.79942329745 85 258.219832528
v -7.90365518663 85 258.762165322
v -7.97022255954 85 259.310396961
v -7.99880819233 85 259.861914873
v -7.98927586144 85 260.414090823
v -7.94167099278 85 260.964293442
v -7.85622044523 85 261.509900764
v -7.73333142955 85 262.04831272
v -7.57358956786 85 262.576963534
v -7.37775610289 85 263.093333944
v -7.14676427028 85 263.594963208
v -6.88171485131 85 264.079460835
v -6.58387092715 85 264.544517974
v -6.25465185974 85 264.987918415
v -5.89562652787 85 265.407549153
v -5.50850585075 85 265.801410457
v -5.09513463468 85 266.167625398
v -4.65748278177 85 266.504448796
v -4.19763590239 85 266.810275533
v -3.71778537635 85 267.083648205
v -3.22021790992 85 267.323264068
v -2.70730463867 85 267.527981243
v -2.18148982792 85 267.696824159
v -1.64527922469 85 267.828988202
v -1.1012281167 85 267.923843552
v -0.551929155235 85 267.980938178
v 7.69155380921 -12.2 262.2
v 7.82600688365 -12.2 261.659402379
v 7.92251318944 -12.2 261.110758643
v 7.98060478647 -12.2 260.556729056
v 8 -12.2 260
v 7.98060478647 -12.2 259.443270944
v 7.92251318944 -12.2 258.889241357
v 7.82600688365 -12.2 258.340597621
v 7.69155380921 -12.2 257.8
v 7.69155380921 12.2 262.2
v 7.82600688365 12.2 261.659402379
v 7.92251318944 12.2 261.110758643
v 7.98060478647 12.2 260.556729056
v 8 12.2 260
v 7.98060478647 12.2 259.443270944
v 7.92251318944 12.2 258.889241357
v 7.82600688365 12.2 258.340597621
v 7.69155380921 12.2 257.8
v -2.44929359829e-15 -71 270
v 0.689911444043 -71 269.976172723
v 1.37653514587 -71 269.90480444
v 2.05659903086 -71 269.786235253
v 2.72686228489 -71 269.621030198
v 3.38413079834 -71 269.409976554
v 4.0252723874 -71 269.154080085
v 4.64723172044 -71 268.854560257
v 5.24704487799 -71 268.512844416
v 5.82185347721 -71 268.130560995
v 6.36891829335 -71 267.709531748
v 6.88563231343 -71 267.251763071
v 7.36953315984 -71 266.759436441
v 7.81831482468 -71 266.234898019
v 8.22983865894 -71 265.680647467
v 8.60214356414 -71 265.099326044
v 8.93345533786 -71 264.49370401
v 9.22219512862 -71 263.866667429
v 9.46698695983 -71 263.221204418
v 9.66666428693 -71 262.560390901
v 9.82027555653 -71 261.887375955
v 9.92708874098 -71 261.205366803
v 9.9865948268 -71 260.517613529
v 9.99851024041 -71 259.827393591
v 9.96277819942 -71 259.137996201
v 9.87956898329 -71 258.452706652
v 9.74927912182 -71 257.77479066
v 9.57252950554 -71 257.107478805
v 9.35016242685 -71 256.45395113
v 9.08323756617 -71 255.817321992
v 8.77302694199 -71 255.20062522
v 8.42100884923 -71 254.606799655
v 8.02886081439 -71 254.038675145
v 7.59845160145 -71 253.498959063
v 7.13183230631 -71 252.990223402
v 6.63122658241 -71 252.514892518
v 6.099020044 -71 252.07523158
v 5.53774889761 -71 251.673335773
v 4.95008785584 -71 251.311120313
v 4.33883739118 -71 250.990311321
v 3.70691039045 -71 250.712437599
v 3.0573182736 -71 250.478823341
v 2.39315664288 -71 250.290581826
v 1.71759053091 -71 250.14861011
v 1.03383931788 -71 250.053584753
v 0.345161389697 -71 250.005958594
v -0.345161389697 -71 250.005958594
v -1.03383931788 -71 250.053584753
v -1.71759053091 -71 250.14861011
v -2.39315664288 -71 250.290581826
v -3.0573182736 -71 250.478823341
v -3.70691039045 -71 250.712437599
v -4.33883739118 -71 250.990311321
v -4.95008785584 -71 251.311120313
v -5.53774889761 -71 251.673335773
v -6.099020044 -71 252.07523158
v -6.63122658241 -71 252.514892518
v -7.13183230631 -71 252.990223402
v -7.59845160145 -71 253.498959063
v -8.02886081439 -71 254.038675145
v -8.42100884923 -71 254.606799655
v -8.77302694199 -71 255.20062522
v -9.08323756617 -71 255.817321992
v -9.35016242685 -71 256.45395113
v -9.57252950554 -71 257.107478805
v -9.74927912182 -71 257.77479066
v -9.87956898329 -71 258.452706652
v -9.96277819942 -71 259.137996201
v -9.99851024041 -71 259.827393591
v -9.9865948268 -71 260.517613529
v -9.92708874098 -71 261.205366803
v -9.82027555653 -71 261.887375955
v -9.66666428693 -71 262.560390901
v -9.46698695983 -71 263.221204418
v -9.22219512862 -71 263.866667429
v -8.93345533786 -71 264.49370401
v -8.60214356413 -71 265.099326044
v -8.22983865894 -71 265.680647467
v -7.81831482468 -71 266.234898019
v -7.36953315984 -71 266.759436441
v -6.88563231343 -71 267.251763071
v -6.36891829335 -71 267.709531748
v -5.82185347721 -71 268.130560995
v -5.24704487799 -71 268.512844416
v -4.64723172044 -71 268.854560257
v -4.0252723874 -71 269.154080085
v -3.38413079834 -71 269.409976554
v -2.72686228489 -71 269.621030198
v -2.05659903086 -71 269.786235253
v -1.37653514587 -71 269.90480444
v -0.689911444043 -71 269.976172723
v 6 -12.2 257.8
v 6 -12.2 262.2
v 6 12.2 257.8
v 6 12.2 262.2
v -2.44929359829e-15 -73 270
v 0.689911444043 -73 269.976172723
v 1.37653514587 -73 269.90480444
v 2.05659903086 -73 269.786235253
v 2.72686228489 -73 269.621030198
v 3.38413079834 -73 269.409976554
v 4.0252723874 -73 269.154080085
v 4.64723172044 -73 268.854560257
v 5.24704487799 -73 268.512844416
v 5.82185347721 -73 268.130560995
v 6.36891829335 -73 267.709531748
v 6.88563231343 -73 267.251763071
v 7.36953315984 -73 266.759436441
v 7.81831482468 -73 266.234898019
v 8.22983865894 -73 265.680647467
v 8.60214356414 -73 265.099326044
v 8.93345533786 -73 264.49370401
v 9.22219512862 -73 263.866667429
v 9.46698695983 -73 263.221204418
v 9.66666428693 -73 262.560390901
v 9.82027555653 -73 261.887375955
v 9.92708874098 -73 261.205366803
v 9.9865948268 -73 260.517613529
v 9.99851024041 -73 259.827393591
v 9.96277819942 -73 259.137996201
v 9.87956898329 -73 258.452706652
v 9.74927912182 -73 257.77479066
v 9.57252950554 -73 257.107478805
v 9.35016242685 -73 256.45395113
v 9.08323756617 -73 255.817321992
v 8.77302694199 -73 255.20062522
v 8.42100884923 -73 254.606799655
v 8.02886081439 -73 254.038675145
v 7.59845160145 -73 253.498959063
v 7.13183230631 -73 252.990223402
v 6.63122658241 -73 252.514892518
v 6.099020044 -73 252.07523158
v 5.53774889761 -73 251.673335773
v 4.95008785584 -73 251.311120313
v 4.33883739118 -73 250.990311321
v 3.70691039045 -73 250.712437599
v 3.0573182736 -73 250.478823341
v 2.39315664288 -73 250.290581826
v 1.71759053091 -73 250.14861011
v 1.03383931788 -73 250.053584753
v 0.345161389697 -73 250.005958594
v -0.345161389697 -73 250.005958594
v -1.03383931788 -73 250.053584753
v -1.71759053091 -73 250.14861011
v -2.39315664288 -73 250.290581826
v -3.0573182736 -73 250.478823341
v -3.70691039045 -73 250.712437599
v -4.33883739118 -73 250.990311321
v -4.95008785584 -73 251.311120313
v -5.53774889761 -73 251.673335773
v -6.099020044 -73 252.07523158
v -6.63122658241 -73 252.514892518
v -7.13183230631 -73 252.990223402
v -7.59845160145 -73 253.498959063
v -8.02886081439 -73 254.038675145
v -8.42100884923 -73 254.606799655
v -8.77302694199 -73 255.20062522
v -9.08323756617 -73 255.817321992
v -9.35016242685 -73 256.45395113
v -9.57252950554 -73 257.107478805
v -9.74927912182 -73 257.77479066
v -9.87956898329 -73 258.452706652
v -9.96277819942 -73 259.137996201
v -9.99851024041 -73 259.827393591
v -9.9865948268 -73 260.517613529
v -9.92708874098 -73 261.205366803
v -9.82027555653 -73 261.887375955
v -9.66666428693 -73 262.560390901
v -9.46698695983 -73 263.221204418
v -9.22219512862 -73 263.866667429
v -8.93345533786 -73 264.49370401
v -8.60214356413 -73 265.099326044
v -8.22983865894 -73 265.680647467
v -7.81831482468 -73 266.234898019
v -7.36953315984 -73 266.759436441
v -6.88563231343 -73 267.251763071
v -6.36891829335 -73 267.709531748
v -5.82185347721 -73 268.130560995
v -5.24704487799 -73 268.512844416
v -4.64723172044 -73 268.854560257
v -4.0252723874 -73 269.154080085
v -3.38413079834 -73 269.409976554
v -2.72686228489 -73 269.621030198
v -2.05659903086 -73 269.786235253
v -1.37653514587 -73 269.90480444
v -0.689911444043 -73 269.976172723
v -1.95943487864e-15 -73 268
v 0.551929155235 -73 267.980938178
v 1.1012281167 -73 267.923843552
v 1.64527922469 -73 267.828988202
v 2.18148982792 -73 267.696824159
v 2.70730463867 -73 267.527981243
v 3.22021790992 -73 267.323264068
v 3.71778537635 -73 267.083648205
v 4.19763590239 -73 266.810275533
v 4.65748278177 -73 266.504448796
v 5.09513463468 -73 266.167625398
v 5.50850585075 -73 265.801410457
v 5.89562652787 -73 265.407549153
v 6.25465185974 -73 264.987918415
v 6.58387092715 -73 264.544517974
v 6.88171485131 -73 264.079460835
v 7.14676427028 -73 263.594963208
v 7.37775610289 -73 263.093333944
v 7.57358956786 -73 262.576963534
v 7.73333142955 -73 262.04831272
v 7.85622044523 -73 261.509900764
v 7.94167099278 -73 260.964293442
v 7.98927586144 -73 260.414090823
v 7.99880819233 -73 259.861914873
v 7.97022255954 -73 259.310396961
v 7.90365518663 -73 258.762165322
v 7.79942329745 -73 258.219832528
v 7.65802360443 -73 257.685983044
v 7.48012994148 -73 257.163160904
v 7.26659005293 -73 256.653857594
v 7.0184215536 -73 256.160500176
v 6.73680707938 -73 255.685439724
v 6.42308865151 -73 255.230940116
v 6.07876128116 -73 254.799167251
v 5.70546584504 -73 254.392178722
v 5.30498126593 -73 254.011914015
v 4.8792160352 -73 253.660185264
v 4.43019911808 -73 253.338668619
v 3.96007028467 -73 253.04889625
v 3.47106991294 -73 252.792249057
v 2.96552831236 -73 252.569950079
v 2.44585461888 -73 252.383058673
v 1.9145253143 -73 252.232465461
v 1.37407242473 -73 252.118888088
v 0.827071454307 -73 252.042867802
v 0.276129111758 -73 252.004766876
v -0.276129111758 -73 252.004766876
v -0.827071454307 -73 252.042867802
v -1.37407242473 -73 252.118888088
v -1.9145253143 -73 252.232465461
v -2.44585461888 -73 252.383058673
v -2.96552831236 -73 252.569950079
v -3.47106991294 -73 252.792249057
v -3.96007028467 -73 253.04889625
v -4.43019911808 -73 253.338668619
v -4.8792160352 -73 253.660185264
v -5.30498126593 -73 254.011914015
v -5.70546584504 -73 254.392178722
v -6.07876128116 -73 254.799167251
v -6.42308865151 -73 255.230940116
v -6.73680707938 -73 255.685439724
v -7.0184215536 -73 256.160500176
v -7.26659005293 -73 256.653857594
v -7.48012994148 -73 257.163160904
v -7.65802360443 -73 257.685983044
v -7.79942329745 -73 258.219832528
v -7.90365518663 -73 258.762165322
v -7.97022255954 -73 259.310396961
v -7.99880819233 -73 259.861914873
v -7.98927586144 -73 260.414090823
v -7.94167099278 -73 260.964293442
v -7.85622044523 -73 261.509900764
v -7.73333142955 -73 262.04831272
v -7.57358956786 -73 262.576963534
v -7.37775610289 -73 263.093333944
v -7.14676427028 -73 263.594963208
v -6.88171485131 -73 264.079460835
v -6.58387092715 -73 264.544517974
v -6.25465185974 -73 264.987918415
v -5.89562652787 -73 265.407549153
v -5.50850585075 -73 265.801410457
v -5.09513463468 -73 266.167625398
v -4.65748278177 -73 266.504448796
v -4.19763590239 -73 266.810275533
v -3.71778537635 -73 267.083648205
v -3.22021790992 -73 267.323264068
v -2.70730463867 -73 267.527981243
v -2.18148982792 -73 267.696824159
v -1.64527922469 -73 267.828988202
v -1.1012281167 -73 267.923843552
v -0.551929155235 -73 267.980938178
v -1.95943487864e-15 -85 268
v 0.551929155235 -85 267.980938178
v 1.1012281167 -85 267.923843552
v 1.64527922469 -85 267.828988202
v 2.18148982792 -85 267.696824159
v 2.70730463867 -85 267.527981243
v 3.22021790992 -85 267.323264068
v 3.71778537635 -85 267.083648205
v 4.19763590239 -85 266.810275533
v 4.65748278177 -85 266.504448796
v 5.09513463468 -85 266.167625398
v 5.50850585075 -85 265.801410457
v 5.89562652787 -85 265.407549153
v 6.25465185974 -85 264.987918415
v 6.58387092715 -85 264.544517974
v 6.88171485131 -85 264.079460835
v 7.14676427028 -85 263.594963208
v 7.37775610289 -85 263.093333944
v 7.57358956786 -85 262.576963534
v 7.73333142955 -85 262.04831272
v 7.85622044523 -85 261.509900764
v 7.94167099278 -85 260.964293442
v 7.98927586144 -85 260.414090823
v 7.99880819233 -85 259.861914873
v 7.97022255954 -85 259.310396961
v 7.90365518663 -85 258.762165322
v 7.79942329745 -85 258.219832528
v 7.65802360443 -85 257.685983044
v 7.48012994148 -85 257.163160904
v 7.26659005293 -85 256.653857594
v 7.0184215536 -85 256.160500176
v 6.73680707938 -85 255.685439724
v 6.42308865151 -85 255.230940116
v 6.07876128116 -85 254.799167251
v 5.70546584504 -85 254.392178722
v 5.30498126593 -85 254.011914015
v 4.8792160352 -85 253.660185264
v 4.43019911808 -85 253.338668619
v 3.96007028467 -85 253.04889625
v 3.47106991294 -85 252.792249057
v 2.96552831236 -85 252.569950079
v 2.44585461888 -85 252.383058673
v 1.9145253143 -85 252.232465461
v 1.37407242473 -85 252.118888088
v 0.827071454307 -85 252.042867802
v 0.276129111758 -85 252.004766876
v -0.276129111758 -85 252.004766876
v -0.827071454307 -85 252.042867802
v -1.37407242473 -85 252.118888088
v -1.9145253143 -85 252.232465461
v -2.44585461888 -85 252.383058673
v -2.96552831236 -85 252.569950079
v -3.47106991294 -85 252.792249057
v -3.96007028467 -85 253.04889625
v -4.43019911808 -85 253.338668619
v -4.8792160352 -85 253.660185264
v -5.30498126593 -85 254.011914015
v -5.70546584504 -85 254.392178722
v -6.07876128116 -85 254.799167251
v -6.42308865151 -85 255.230940116
v -6.73680707938 -85 255.685439724
v -7.0184215536 -85 256.160500176
v -7.26659005293 -85 256.653857594
v -7.48012994148 -85 257.163160904
v -7.65802360443 -85 257.685983044
v -7.79942329745 -85 258.219832528
v -7.90365518663 -85 258.762165322
v -7.97022255954 -85 259.310396961
v -7.99880819233 -85 259.861914873
v -7.98927586144 -85 260.414090823
v -7.94167099278 -85 260.964293442
v -7.85622044523 -85 261.509900764
v -7.73333142955 -85 262.04831272
v -7.57358956786 -85 262.576963534
v -7.37775610289 -85 263.093333944
v -7.14676427028 -85 263.594963208
v -6.88171485131 -85 264.079460835
v -6.58387092715 -85 264.544517974
v -6.25465185974 -85 264.987918415
v -5.89562652787 -85 265.407549153
v -5.50850585075 -85 265.801410457
v -5.09513463468 -85 266.167625398
v -4.65748278177 -85 266.504448796
v -4.19763590239 -85 266.810275533
v -3.71778537635 -85 267.083648205
v -3.22021790992 -85 267.323264068
v -2.70730463867 -85 267.527981243
v -2.18148982792 -85 267.696824159
v -1.64527922469 -85 267.828988202
v -1.1012281167 -85 267.923843552
v -0.551929155235 -85 267.980938178
f 93 1 2
f 93 92 1
f 94 2 3
f 94 93 2
f 95 3 4
f 95 4 5
f 95 94 3
f 96 95 5
f 97 5 6
f 97 96 5
f 98 6 7
f 98 97 6
f 99 7 8
f 99 98 7
f 100 8 9
f 100 99 8
f 101 9 10
f 101 100 9
f 102 10 11
f 102 11 12
f 102 101 10
f 103 12 13
f 103 102 12
f 104 103 13
f 105 13 14
f 105 104 13
f 106 14 15
f 106 105 14
f 107 15 16
f 107 106 15
f 108 16 17
f 108 17 18
f 108 107 16
f 109 18 19
f 109 108 18
f 183 19 20
f 192 19 183
f 110 109 19
f 110 19 192
f 184 20 21
f 184 183 20
f 111 110 192
f 111 192 193
f 185 21 22
f 185 184 21
f 112 193 194
f 112 111 193
f 186 22 23
f 186 185 22
f 113 194 195
f 113 112 194
f 187 186 23
f 187 23 24
f 114 113 195
f 114 195 196
f 188 187 24
f 188 24 25
f 115 114 196
f 115 196 197
f 189 188 25
f 189 25 26
f 116 115 197
f 116 197 198
f 190 189 26
f 190 26 27
f 117 116 198
f 117 198 199
f 191 190 27
f 191 27 28
f 29 200 191
f 29 191 28
f 118 117 199
f 118 199 200
f 119 118 200
f 120 200 29
f 120 119 200
f 121 29 30
f 121 120 29
f 122 30 31
f 122 31 32
f 122 121 30
f 123 122 32
f 124 32 33
f 124 33 34
f 124 123 32
f 125 124 34
f 126 34 35
f 126 125 34
f 127 35 36
f 127 36 37
f 127 126 35
f 128 127 37
f 129 37 38
f 129 128 37
f 130 38 39
f 130 129 38
f 131 39 40
f 131 130 39
f 132 40 41
f 132 131 40
f 133 132 41
f 133 41 42
f 133 42 43
f 134 133 43
f 135 134 43
f 135 43 44
f 135 44 45
f 136 135 45
f 137 136 45
f 137 45 46
f 138 137 46
f 138 46 47
f 139 138 47
f 139 47 48
f 140 139 48
f 140 48 49
f 141 140 49
f 141 49 50
f 141 50 51
f 142 141 51
f 143 142 51
f 143 51 52
f 144 143 52
f 144 52 53
f 145 53 54
f 145 144 53
f 146 54 55
f 146 145 54
f 147 55 56
f 147 146 55
f 148 56 57
f 148 147 56
f 149 57 58
f 149 148 57
f 150 58 59
f 150 149 58
f 151 59 60
f 151 150 59
f 152 60 61
f 152 151 60
f 153 61 62
f 153 152 61
f 154 62 63
f 154 153 62
f 155 63 64
f 155 154 63
f 156 64 65
f 156 155 64
f 157 156 65
f 157 65 66
f 158 157 66
f 158 66 67
f 159 158 67
f 159 67 68
f 160 159 68
f 160 68 69
f 160 69 70
f 161 160 70
f 162 161 70
f 162 70 71
f 162 71 72
f 163 162 72
f 164 163 72
f 164 72 73
f 165 164 73
f 165 73 74
f 165 74 75
f 166 165 75
f 167 166 75
f 167 75 76
f 168 167 76
f 168 76 77
f 169 168 77
f 169 77 78
f 169 78 79
f 170 169 79
f 171 170 79
f 171 79 80
f 171 80 81
f 172 171 81
f 172 81 82
f 173 172 82
f 174 173 82
f 174 82 83
f 174 83 84
f 175 174 84
f 175 84 85
f 176 175 85
f 177 176 85
f 177 85 86
f 177 86 87
f 178 177 87
f 178 87 88
f 179 178 88
f 180 88 89
f 180 179 88
f 180 89 90
f 181 90 91
f 181 180 90
f 182 181 91
f 92 182 91
f 92 91 1
f 57 256 257
f 57 257 258
f 57 258 58
f 59 258 259
f 59 58 258
f 56 256 57
f 60 59 259
f 60 259 260
f 60 260 261
f 55 256 56
f 55 255 256
f 61 60 261
f 54 255 55
f 54 254 255
f 62 61 261
f 62 261 262
f 53 254 54
f 53 253 254
f 63 262 263
f 63 62 262
f 52 253 53
f 52 251 252
f 52 252 253
f 64 63 263
f 64 263 264
f 64 264 265
f 51 251 52
f 65 265 266
f 65 64 265
f 50 249 250
f 50 250 251
f 50 251 51
f 66 65 266
f 49 249 50
f 49 248 249
f 67 66 266
f 67 266 267
f 48 248 49
f 68 67 267
f 68 267 268
f 68 268 269
f 47 247 248
f 47 248 48
f 69 68 269
f 46 246 247
f 46 247 47
f 70 69 269
f 70 269 270
f 45 245 246
f 45 246 46
f 71 270 271
f 71 271 272
f 71 70 270
f 44 244 245
f 44 245 45
f 72 71 272
f 43 244 44
f 43 242 243
f 43 243 244
f 73 72 272
f 73 272 273
f 42 242 43
f 74 273 274
f 74 73 273
f 41 242 42
f 41 241 242
f 75 74 274
f 75 274 275
f 40 241 41
f 40 240 241
f 76 75 275
f 76 275 276
f 277 76 276
f 39 240 40
f 39 239 240
f 77 76 277
f 38 239 39
f 38 238 239
f 78 77 277
f 78 277 278
f 237 238 38
f 279 78 278
f 37 237 38
f 79 78 279
f 36 236 237
f 36 237 37
f 80 79 279
f 80 279 280
f 235 36 35
f 235 236 36
f 81 80 280
f 281 81 280
f 234 35 34
f 234 235 35
f 282 81 281
f 282 82 81
f 83 82 282
f 233 34 33
f 233 234 34
f 283 83 282
f 232 33 32
f 232 233 33
f 284 84 83
f 284 83 283
f 85 84 284
f 231 32 31
f 231 232 32
f 285 85 284
f 230 231 31
f 230 30 29
f 230 31 30
f 286 85 285
f 286 86 85
f 286 87 86
f 229 230 29
f 287 87 286
f 228 229 29
f 228 28 27
f 228 29 28
f 288 87 287
f 288 88 87
f 227 27 26
f 227 228 27
f 289 88 288
f 289 89 88
f 289 90 89
f 226 26 25
f 226 227 26
f 290 90 289
f 225 226 25
f 291 90 290
f 291 91 90
f 291 1 91
f 224 24 23
f 224 25 24
f 224 225 25
f 201 1 291
f 223 224 23
f 202 1 201
f 202 2 1
f 202 3 2
f 222 23 22
f 222 223 23
f 203 3 202
f 221 22 21
f 221 222 22
f 204 3 203
f 204 4 3
f 220 21 20
f 220 221 21
f 205 4 204
f 205 5 4
f 205 6 5
f 219 20 19
f 219 220 20
f 206 6 205
f 218 19 18
f 218 219 19
f 207 6 206
f 207 7 6
f 207 8 7
f 217 18 17
f 217 218 18
f 208 8 207
f 208 9 8
f 216 16 15
f 216 17 16
f 216 217 17
f 209 9 208
f 215 216 15
f 210 11 10
f 210 9 209
f 210 10 9
f 214 14 13
f 214 15 14
f 214 215 15
f 211 11 210
f 213 214 13
f 212 12 11
f 212 13 12
f 212 11 211
f 212 213 13
f 146 147 148
f 146 148 149
f 145 146 149
f 145 149 150
f 153 150 151
f 153 151 152
f 155 150 153
f 155 153 154
f 141 142 143
f 141 143 144
f 139 145 150
f 139 141 144
f 139 140 141
f 139 144 145
f 159 157 158
f 160 157 159
f 160 156 157
f 137 138 139
f 135 139 150
f 135 137 139
f 135 136 137
f 163 156 160
f 163 160 161
f 163 161 162
f 133 134 135
f 131 132 133
f 167 163 164
f 167 164 165
f 167 165 166
f 128 129 130
f 128 130 131
f 127 128 131
f 171 168 169
f 171 169 170
f 172 168 171
f 125 126 127
f 173 167 168
f 173 168 172
f 123 124 125
f 123 133 135
f 123 131 133
f 123 127 131
f 123 125 127
f 122 150 155
f 122 135 150
f 122 156 163
f 122 155 156
f 122 163 167
f 122 123 135
f 176 173 174
f 176 174 175
f 177 173 176
f 178 173 177
f 178 167 173
f 119 120 121
f 119 121 122
f 116 119 122
f 116 117 118
f 116 118 119
f 115 116 122
f 94 92 93
f 94 180 181
f 94 181 182
f 94 182 92
f 95 180 94
f 95 179 180
f 96 179 95
f 110 111 112
f 110 112 113
f 110 113 114
f 97 179 96
f 108 109 110
f 99 97 98
f 100 97 99
f 100 179 97
f 105 106 107
f 105 107 108
f 105 114 115
f 105 110 114
f 105 108 110
f 104 115 122
f 104 105 115
f 103 167 178
f 103 100 101
f 103 101 102
f 103 104 122
f 103 122 167
f 103 179 100
f 103 178 179
f 190 191 292
f 189 190 292
f 188 189 292
f 187 188 292
f 293 187 292
f 186 187 293
f 185 186 293
f 184 185 293
f 183 184 293
f 294 292 191
f 200 294 191
f 199 294 200
f 198 294 199
f 197 294 198
f 196 294 197
f 295 294 196
f 195 295 196
f 194 295 195
f 193 295 194
f 192 295 193
f 295 183 293
f 192 183 295
f 202 201 296
f 202 296 297
f 203 297 298
f 203 202 297
f 204 298 299
f 204 203 298
f 205 204 299
f 205 299 300
f 206 205 300
f 206 300 301
f 207 206 301
f 207 301 302
f 208 207 302
f 208 302 303
f 209 304 305
f 209 208 303
f 209 303 304
f 210 209 305
f 211 305 306
f 211 210 305
f 212 306 307
f 212 211 306
f 213 307 308
f 213 212 307
f 214 308 309
f 214 213 308
f 215 309 310
f 215 214 309
f 216 310 311
f 216 311 312
f 216 215 310
f 217 216 312
f 218 312 313
f 218 313 314
f 218 217 312
f 219 218 314
f 220 314 315
f 220 219 314
f 221 315 316
f 221 220 315
f 222 316 317
f 222 221 316
f 223 317 318
f 223 222 317
f 224 318 319
f 224 319 320
f 224 223 318
f 225 224 320
f 226 320 321
f 226 225 320
f 227 321 322
f 227 226 321
f 228 322 323
f 228 227 322
f 229 323 324
f 229 228 323
f 230 229 324
f 230 324 325
f 231 230 325
f 231 325 326
f 232 231 326
f 232 326 327
f 233 232 327
f 233 327 328
f 234 233 328
f 234 328 329
f 235 234 329
f 235 329 330
f 236 330 331
f 236 235 330
f 237 331 332
f 237 236 331
f 238 332 333
f 238 237 332
f 239 333 334
f 239 334 335
f 239 238 333
f 240 239 335
f 241 335 336
f 241 336 337
f 241 240 335
f 242 241 337
f 243 337 338
f 243 242 337
f 244 338 339
f 244 243 338
f 245 339 340
f 245 244 339
f 246 340 341
f 246 245 340
f 247 341 342
f 247 342 343
f 247 246 341
f 248 247 343
f 249 343 344
f 249 248 343
f 250 344 345
f 250 249 344
f 251 345 346
f 251 250 345
f 252 346 347
f 252 251 346
f 253 347 348
f 253 252 347
f 254 348 349
f 254 253 348
f 255 349 350
f 255 254 349
f 256 255 350
f 256 350 351
f 257 256 351
f 257 351 352
f 258 257 352
f 258 352 353
f 259 258 353
f 259 353 354
f 259 354 355
f 260 259 355
f 261 260 355
f 261 355 356
f 262 261 356
f 262 356 357
f 263 262 357
f 263 357 358
f 264 263 358
f 264 358 359
f 264 359 360
f 265 264 360
f 266 265 360
f 266 360 361
f 266 361 362
f 267 266 362
f 268 267 362
f 268 362 363
f 268 363 364
f 269 268 364
f 270 269 364
f 270 364 365
f 271 365 366
f 271 270 365
f 271 366 367
f 272 367 368
f 272 271 367
f 273 272 368
f 274 368 369
f 274 369 370
f 274 273 368
f 275 274 370
f 276 370 371
f 276 371 372
f 276 275 370
f 277 276 372
f 278 372 373
f 278 277 372
f 279 373 374
f 279 278 373
f 280 374 375
f 280 279 374
f 281 280 375
f 281 375 376
f 281 376 377
f 282 281 377
f 283 282 377
f 283 377 378
f 284 283 378
f 284 378 379
f 285 284 379
f 285 379 380
f 285 380 381
f 286 285 381
f 287 286 381
f 287 381 382
f 288 287 382
f 288 382 383
f 289 288 383
f 289 383 384
f 290 289 384
f 290 384 385
f 291 290 385
f 291 385 386
f 291 386 296
f 201 291 296
f 293 292 294
f 293 294 295
f 443 352 351
f 443 353 352
f 443 444 353
f 445 354 353
f 445 353 444
f 442 443 351
f 446 354 445
f 446 355 354
f 446 356 355
f 441 442 351
f 441 351 350
f 447 356 446
f 440 441 350
f 440 350 349
f 448 356 447
f 448 357 356
f 439 440 349
f 439 349 348
f 449 358 357
f 449 357 448
f 438 439 348
f 438 347 346
f 438 348 347
f 450 358 449
f 450 359 358
f 450 360 359
f 437 438 346
f 451 361 360
f 451 360 450
f 436 345 344
f 436 346 345
f 436 437 346
f 452 361 451
f 435 436 344
f 435 344 343
f 453 361 452
f 453 362 361
f 434 435 343
f 454 362 453
f 454 363 362
f 454 364 363
f 433 343 342
f 433 434 343
f 455 364 454
f 432 342 341
f 432 433 342
f 456 364 455
f 456 365 364
f 431 341 340
f 431 432 341
f 457 366 365
f 457 367 366
f 457 365 456
f 430 340 339
f 430 431 340
f 458 367 457
f 429 430 339
f 429 338 337
f 429 339 338
f 459 367 458
f 459 368 367
f 428 429 337
f 460 369 368
f 460 368 459
f 427 428 337
f 427 337 336
f 461 369 460
f 461 370 369
f 426 427 336
f 426 336 335
f 462 370 461
f 462 371 370
f 372 371 462
f 425 426 335
f 425 335 334
f 463 372 462
f 424 425 334
f 424 334 333
f 464 372 463
f 464 373 372
f 332 424 333
f 374 373 464
f 423 424 332
f 465 374 464
f 422 332 331
f 422 423 332
f 466 374 465
f 466 375 374
f 330 421 422
f 330 422 331
f 467 375 466
f 376 375 467
f 329 420 421
f 329 421 330
f 377 376 467
f 377 467 468
f 469 377 468
f 328 419 420
f 328 420 329
f 378 377 469
f 327 418 419
f 327 419 328
f 379 469 470
f 379 378 469
f 471 379 470
f 326 417 418
f 326 418 327
f 380 379 471
f 325 417 326
f 325 415 416
f 325 416 417
f 381 380 471
f 381 471 472
f 381 472 473
f 324 415 325
f 382 381 473
f 323 415 324
f 323 413 414
f 323 414 415
f 383 382 473
f 383 473 474
f 322 412 413
f 322 413 323
f 384 383 474
f 384 474 475
f 384 475 476
f 321 411 412
f 321 412 322
f 385 384 476
f 320 411 321
f 386 385 476
f 386 476 477
f 386 477 387
f 319 409 410
f 319 410 411
f 319 411 320
f 296 386 387
f 318 409 319
f 297 296 387
f 297 387 388
f 297 388 389
f 317 408 409
f 317 409 318
f 298 297 389
f 316 407 408
f 316 408 317
f 299 298 389
f 299 389 390
f 315 406 407
f 315 407 316
f 300 299 390
f 300 390 391
f 300 391 392
f 314 405 406
f 314 406 315
f 301 300 392
f 313 404 405
f 313 405 314
f 302 301 392
f 302 392 393
f 302 393 394
f 312 403 404
f 312 404 313
f 303 302 394
f 303 394 395
f 311 401 402
f 311 402 403
f 311 403 312
f 304 303 395
f 310 401 311
f 305 396 397
f 305 304 395
f 305 395 396
f 309 399 400
f 309 400 401
f 309 401 310
f 306 305 397
f 308 399 309
f 307 397 398
f 307 398 399
f 307 306 397
f 307 399 308
f 388 387 478
f 388 478 479
f 389 479 480
f 389 388 479
f 390 480 481
f 390 389 480
f 391 390 481
f 391 481 482
f 391 482 483
f 392 391 483
f 393 392 483
f 393 483 484
f 394 393 484
f 394 484 485
f 394 485 486
f 395 394 486
f 396 486 487
f 396 395 486
f 397 487 488
f 397 396 487
f 398 488 489
f 398 397 488
f 399 489 490
f 399 490 491
f 399 398 489
f 400 399 491
f 401 491 492
f 401 492 493
f 401 400 491
f 402 401 493
f 403 493 494
f 403 402 493
f 404 494 495
f 404 403 494
f 405 495 496
f 405 404 495
f 406 496 497
f 406 497 498
f 406 405 496
f 407 406 498
f 408 498 499
f 408 499 500
f 408 407 498
f 409 408 500
f 410 500 501
f 410 501 502
f 410 409 500
f 411 410 502
f 412 502 503
f 412 411 502
f 413 503 504
f 413 504 505
f 413 412 503
f 414 413 505
f 415 505 506
f 415 414 505
f 416 506 507
f 416 415 506
f 417 416 507
f 417 507 508
f 418 417 508
f 418 508 509
f 419 418 509
f 419 509 510
f 419 510 511
f 420 419 511
f 421 420 511
f 421 511 512
f 422 512 513
f 422 421 512
f 423 513 514
f 423 422 513
f 424 514 515
f 424 423 514
f 425 515 516
f 425 516 517
f 425 424 515
f 426 425 517
f 427 517 518
f 427 426 517
f 428 518 519
f 428 427 518
f 429 519 520
f 429 428 519
f 430 520 521
f 430 521 522
f 430 429 520
f 431 430 522
f 432 522 523
f 432 431 522
f 433 523 524
f 433 524 525
f 433 432 523
f 434 525 526
f 434 433 525
f 435 434 526
f 436 526 527
f 436 435 526
f 437 527 528
f 437 436 527
f 438 528 529
f 438 437 528
f 439 529 530
f 439 438 529
f 440 530 531
f 440 439 530
f 441 531 532
f 441 440 531
f 442 441 532
f 442 532 533
f 443 442 533
f 443 533 534
f 443 534 535
f 444 443 535
f 445 444 535
f 445 535 536
f 446 445 536
f 446 536 537
f 447 446 537
f 447 537 538
f 448 447 538
f 448 538 539
f 449 448 539
f 449 539 540
f 449 540 541
f 450 449 541
f 450 541 542
f 451 450 542
f 452 451 542
f 452 542 543
f 452 543 544
f 453 452 544
f 454 453 544
f 454 544 545
f 455 454 545
f 455 545 546
f 456 455 546
f 456 546 547
f 457 547 548
f 457 456 547
f 458 548 549
f 458 549 550
f 458 457 548
f 459 458 550
f 460 550 551
f 460 551 552
f 460 459 550
f 461 460 552
f 462 552 553
f 462 461 552
f 463 553 554
f 463 554 555
f 463 462 553
f 464 555 556
f 464 463 555
f 465 464 556
f 466 556 557
f 466 465 556
f 467 466 557
f 467 557 558
f 468 467 558
f 468 558 559
f 469 468 559
f 469 559 560
f 469 560 561
f 470 469 561
f 471 470 561
f 471 561 562
f 472 471 562
f 472 562 563
f 473 472 563
f 473 563 564
f 473 564 565
f 474 473 565
f 475 474 565
f 475 565 566
f 476 475 566
f 476 566 567
f 476 567 568
f 477 476 568
f 387 477 568
f 387 568 478
f 532 534 533
f 532 535 534
f 531 535 532
f 531 536 535
f 539 537 536
f 539 538 537
f 541 539 536
f 541 540 539
f 527 529 528
f 527 530 529
f 525 536 531
f 525 530 527
f 525 527 526
f 525 531 530
f 545 544 543
f 546 545 543
f 546 543 542
f 523 525 524
f 521 536 525
f 521 525 523
f 521 523 522
f 549 546 542
f 549 547 546
f 549 548 547
f 519 521 520
f 517 519 518
f 553 550 549
f 553 551 550
f 553 552 551
f 514 516 515
f 514 517 516
f 513 517 514
f 557 555 554
f 557 556 555
f 558 557 554
f 511 513 512
f 559 554 553
f 559 558 554
f 509 511 510
f 509 521 519
f 509 519 517
f 509 517 513
f 509 513 511
f 508 541 536
f 508 536 521
f 508 549 542
f 508 542 541
f 508 553 549
f 508 521 509
f 562 560 559
f 562 561 560
f 563 562 559
f 564 563 559
f 564 559 553
f 505 507 506
f 505 508 507
f 502 508 505
f 502 504 503
f 502 505 504
f 501 508 502
f 480 479 478
f 480 567 566
f 480 568 567
f 480 478 568
f 481 480 566
f 481 566 565
f 482 481 565
f 496 498 497
f 496 499 498
f 496 500 499
f 483 482 565
f 494 496 495
f 485 484 483
f 486 485 483
f 486 483 565
f 491 493 492
f 491 494 493
f 491 501 500
f 491 500 496
f 491 496 494
f 490 508 501
f 490 501 491
f 489 564 553
f 489 487 486
f 489 488 487
f 489 508 490
f 489 553 508
f 489 486 565
f 489 565 564
