# SimpleCAD BREP tessellation for MuJoCo
v -3.67394039744e-15 35 15
v 1.03486716606 35 14.9642590845
v 2.06480271881 35 14.8572066598
v 3.08489854629 35 14.6793528794
v 4.09029342734 35 14.4315452977
v 5.07619619751 35 14.1149648304
v 6.0379085811 35 13.7311201279
v 6.97084758066 35 13.2818403848
v 7.87056731699 35 12.7692666238
v 8.73278021581 35 12.1958414922
v 9.55337744002 35 11.5642976219
v 10.3284484701 35 10.8776446072
v 11.0542997398 35 10.1391546622
v 11.727472237 35 9.35234702788
v 12.3447579884 35 8.52097120097
v 12.9032153462 35 7.64898906585
v 13.4001830068 35 6.74055601451
v 13.8332926929 35 5.80000114412
v 14.2004804397 35 4.83180662698
v 14.4999964304 35 3.84058635086
v 14.7304133348 35 2.83106393179
v 14.8906331115 35 1.80805020383
v 14.9798922402 35 0.776420293263
v 14.9977653606 35 -0.258909613581
v 14.9441672991 35 -1.29300569821
v 14.8193534749 35 -2.32094002185
v 14.6239186827 35 -3.33781400934
v 14.3587942583 35 -4.33878179305
v 14.0252436403 35 -5.31907330564
v 13.6248563493 35 -6.27401701163
v 13.159540413 35 -7.1990621694
v 12.6315132738 35 -8.08980051749
v 12.0432912216 35 -8.94198728204
v 11.3976774022 35 -9.75156140503
v 10.6977484595 35 -10.5146648971
v 9.94683987361 35 -11.2276612226
v 9.148530066 35 -11.8871526293
v 8.30662334641 35 -12.4899963403
v 7.42513178375 35 -13.0333195309
v 6.50825608676 35 -13.5145330185
v 5.56036558568 35 -13.9313436019
v 4.5859774104 35 -14.2817649887
v 3.58973496431 35 -14.5641272614
v 2.57638579637 35 -14.7770848353
v 1.55075897683 35 -14.9196228704
v 0.517742084546 35 -14.9910621083
v -0.517742084546 35 -14.9910621083
v -1.55075897683 35 -14.9196228704
v -2.57638579637 35 -14.7770848353
v -3.58973496431 35 -14.5641272614
v -4.5859774104 35 -14.2817649887
v -5.56036558568 35 -13.9313436019
v -6.50825608676 35 -13.5145330185
v -7.42513178375 35 -13.0333195309
v -8.30662334641 35 -12.4899963403
v -9.148530066 35 -11.8871526293
v -9.94683987361 35 -11.2276612226
v -10.6977484595 35 -10.5146648971
v -11.3976774022 35 -9.75156140503
v -12.0432912216 35 -8.94198728204
v -12.6315132738 35 -8.08980051749
v -13.159540413 35 -7.1990621694
v -13.6248563493 35 -6.27401701163
v -14.0252436403 35 -5.31907330564
v -14.3587942583 35 -4.33878179305
v -14.6239186827 35 -3.33781400934
v -14.8193534749 35 -2.32094002185
v -14.9441672991 35 -1.29300569821
v -14.9977653606 35 -0.258909613581
v -14.9798922402 35 0.776420293263
v -14.8906331115 35 1.80805020383
v -14.7304133348 35 2.83106393179
v -14.4999964304 35 3.84058635086
v -14.2004804397 35 4.83180662698
v -13.8332926929 35 5.80000114412
v -13.4001830068 35 6.74055601451
v -12.9032153462 35 7.64898906585
v -12.3447579884 35 8.52097120097
v -11.727472237 35 9.35234702788
v -11.0542997398 35 10.1391546622
v -10.3284484701 35 10.8776446072
v -9.55337744002 35 11.5642976219
v -8.73278021581 35 12.1958414922
v -7.87056731699 35 12.7692666238
v -6.97084758066 35 13.2818403848
v -6.0379085811 35 13.7311201279
v -5.0761961975 35 14.1149648304
v -4.09029342734 35 14.4315452977
v -3.08489854629 35 14.6793528794
v -2.06480271881 35 14.8572066598
v -1.03486716606 35 14.9642590845
v -3.67394039744e-15 32 15
v 1.03486716606 32 14.9642590845
v 2.06480271881 32 14.8572066598
v 3.08489854629 32 14.6793528794
v 4.09029342734 32 14.4315452977
v 5.07619619751 32 14.1149648304
v 6.0379085811 32 13.7311201279
v 6.97084758066 32 13.2818403848
v 7.87056731699 32 12.7692666238
v 8.73278021581 32 12.1958414922
v 9.55337744002 32 11.5642976219
v 10.3284484701 32 10.8776446072
v 11.0542997398 32 10.1391546622
v 11.727472237 32 9.35234702788
v 12.3447579884 32 8.52097120097
v 12.9032153462 32 7.64898906585
v 13.4001830068 32 6.74055601451
v 13.8332926929 32 5.80000114412
v 14.2004804397 32 4.83180662698
v 14.4999964304 32 3.84058635086
v 14.7304133348 32 2.83106393179
v 14.8906331115 32 1.80805020383
v 14.9798922402 32 0.776420293263
v 14.9977653606 32 -0.258909613581
v 14.9441672991 32 -1.29300569821
v 14.8193534749 32 -2.32094002185
v 14.6239186827 32 -3.33781400934
v 14.3587942583 32 -4.33878179305
v 14.0252436403 32 -5.31907330564
v 13.6248563493 32 -6.27401701163
v 13.159540413 32 -7.1990621694
v 12.6315132738 32 -8.08980051749
v 12.0432912216 32 -8.94198728204
v 11.3976774022 32 -9.75156140503
v 10.6977484595 32 -10.5146648971
v 9.94683987361 32 -11.2276612226
v 9.148530066 32 -11.8871526293
v 8.30662334641 32 -12.4899963403
v 7.42513178375 32 -13.0333195309
v 6.50825608676 32 -13.5145330185
v 5.56036558568 32 -13.9313436019
v 4.5859774104 32 -14.2817649887
v 3.58973496431 32 -14.5641272614
v 2.57638579637 32 -14.7770848353
v 1.55075897683 32 -14.9196228704
v 0.517742084546 32 -14.9910621083
v -0.517742084546 32 -14.9910621083
v -1.55075897683 32 -14.9196228704
v -2.57638579637 32 -14.7770848353
v -3.58973496431 32 -14.5641272614
v -4.5859774104 32 -14.2817649887
v -5.56036558568 32 -13.9313436019
v -6.50825608676 32 -13.5145330185
v -7.42513178375 32 -13.0333195309
v -8.30662334641 32 -12.4899963403
v -9.148530066 32 -11.8871526293
v -9.94683987361 32 -11.2276612226
v -10.6977484595 32 -10.5146648971
v -11.3976774022 32 -9.75156140503
v -12.0432912216 32 -8.94198728204
v -12.6315132738 32 -8.08980051749
v -13.159540413 32 -7.1990621694
v -13.6248563493 32 -6.27401701163
v -14.0252436403 32 -5.31907330564
v -14.3587942583 32 -4.33878179305
v -14.6239186827 32 -3.33781400934
v -14.8193534749 32 -2.32094002185
v -14.9441672991 32 -1.29300569821
v -14.9977653606 32 -0.258909613581
v -14.9798922402 32 0.776420293263
v -14.8906331115 32 1.80805020383
v -14.7304133348 32 2.83106393179
v -14.4999964304 32 3.84058635086
v -14.2004804397 32 4.83180662698
v -13.8332926929 32 5.80000114412
v -13.4001830068 32 6.74055601451
v -12.9032153462 32 7.64898906585
v -12.3447579884 32 8.52097120097
v -11.727472237 32 9.35234702788
v -11.0542997398 32 10.1391546622
v -10.3284484701 32 10.8776446072
v -9.55337744002 32 11.5642976219
v -8.73278021581 32 12.1958414922
v -7.87056731699 32 12.7692666238
v -6.97084758066 32 13.2818403848
v -6.0379085811 32 13.7311201279
v -5.0761961975 32 14.1149648304
v -4.09029342734 32 14.4315452977
v -3.08489854629 32 14.6793528794
v -2.06480271881 32 14.8572066598
v -1.03486716606 32 14.9642590845
v -1.98392781462e-15 35 8.1
v 0.558828269675 35 8.08069990564
v 1.11499346816 35 8.0228915963
v 1.665845215 35 7.9268505549
v 2.20875845076 35 7.79303446073
v 2.74114594665 35 7.62208100844
v 3.26047063379 35 7.41480486906
v 3.76425769355 35 7.17219380779
v 4.25010635117 35 6.89540397683
v 4.71570131654 35 6.58575440578
v 5.15882381761 35 6.24472071584
v 5.57736217388 35 5.87392808786
v 5.96932185947 35 5.47514351757
v 6.33283500799 35 5.05026739506
v 6.66616931374 35 4.60132444852
v 6.96773628695 35 4.13045409556
v 7.23609882366 35 3.63990024783
v 7.46997805418 35 3.13200061783
v 7.66825943746 35 2.60917557857
v 7.82999807242 35 2.07391662947
v 7.95442320079 35 1.52877452317
v 8.04094188019 35 0.976347110068
v 8.08914180971 35 0.419266958362
v 8.09879329473 35 -0.139811191334
v 8.06985034153 35 -0.698223077033
v 8.00245087646 35 -1.2533076118
v 7.89691608867 35 -1.80241956505
v 7.75374889948 35 -2.34294216825
v 7.57363156575 35 -2.87229958504
v 7.3574224286 35 -3.38796918628
v 7.10615182302 35 -3.88749357147
v 6.82101716787 35 -4.36849227944
v 6.50337725965 35 -4.8286731323
v 6.15474579717 35 -5.26584315872
v 5.77678416811 35 -5.67791904443
v 5.37129353175 35 -6.06293706019
v 4.94020623564 35 -6.4190624198
v 4.48557660706 35 -6.74459802377
v 4.00957116323 35 -7.03799254667
v 3.51445828685 35 -7.29784783001
v 3.00259741627 35 -7.52292554501
v 2.47642780161 35 -7.71215309388
v 1.93845688073 35 -7.86462872115
v 1.39124833004 35 -7.97962581104
v 0.837409847486 35 -8.05659635003
v 0.279580725655 35 -8.09517353846
v -0.279580725655 35 -8.09517353846
v -0.837409847486 35 -8.05659635003
v -1.39124833004 35 -7.97962581104
v -1.93845688073 35 -7.86462872115
v -2.47642780161 35 -7.71215309388
v -3.00259741627 35 -7.52292554501
v -3.51445828685 35 -7.29784783001
v -4.00957116323 35 -7.03799254667
v -4.48557660706 35 -6.74459802377
v -4.94020623564 35 -6.4190624198
v -5.37129353175 35 -6.06293706019
v -5.77678416811 35 -5.67791904443
v -6.15474579717 35 -5.26584315872
v -6.50337725965 35 -4.8286731323
v -6.82101716787 35 -4.36849227944
v -7.10615182302 35 -3.88749357147
v -7.3574224286 35 -3.38796918628
v -7.57363156575 35 -2.87229958504
v -7.75374889948 35 -2.34294216825
v -7.89691608867 35 -1.80241956505
v -8.00245087646 35 -1.2533076118
v -8.06985034153 35 -0.698223077033
v -8.09879329473 35 -0.139811191334
v -8.08914180971 35 0.419266958362
v -8.04094188019 35 0.976347110068
v -7.95442320079 35 1.52877452317
v -7.82999807242 35 2.07391662947
v -7.66825943746 35 2.60917557857
v -7.46997805418 35 3.13200061783
v -7.23609882366 35 3.63990024783
v -6.96773628695 35 4.13045409556
v -6.66616931374 35 4.60132444852
v -6.33283500799 35 5.05026739506
v -5.96932185947 35 5.47514351757
v -5.57736217388 35 5.87392808786
v -5.15882381761 35 6.24472071584
v -4.71570131654 35 6.58575440578
v -4.25010635117 35 6.89540397683
v -3.76425769355 35 7.17219380779
v -3.26047063379 35 7.41480486906
v -2.74114594665 35 7.62208100844
v -2.20875845076 35 7.79303446073
v -1.665845215 35 7.9268505549
v -1.11499346816 35 8.0228915963
v -0.558828269675 35 8.08069990564
v -2.93915231795e-15 32 12
v 0.827893732852 32 11.9714072676
v 1.65184217505 32 11.8857653279
v 2.46791883703 32 11.7434823036
v 3.27223474187 32 11.5452362381
v 4.060956958 32 11.2919718643
v 4.83032686488 32 10.9848961023
v 5.57667806453 32 10.6254723078
v 6.29645385359 32 10.215413299
v 6.98622417265 32 9.75667319374
v 7.64270195202 32 9.25143809754
v 8.26275877612 32 8.70211568572
v 8.84343979181 32 8.11132372974
v 9.38197778962 32 7.4818776223
v 9.87580639072 32 6.81677696077
v 10.322572277 32 6.11919125268
v 10.7201464054 32 5.39244481161
v 11.0666341543 32 4.6400009153
v 11.3603843518 32 3.86544530158
v 11.5999971443 32 3.07246908069
v 11.7843306678 32 2.26485114543
v 11.9125064892 32 1.44644016306
v 11.9839137922 32 0.62113623461
v 11.9982122885 32 -0.207127690865
v 11.9553338393 32 -1.03440455857
v 11.8554827799 32 -1.85675201748
v 11.6991349462 32 -2.67025120748
v 11.4870354066 32 -3.47102543444
v 11.2201949122 32 -4.25525864451
v 10.8998850794 32 -5.01921360931
v 10.5276323304 32 -5.75924973552
v 10.1052106191 32 -6.47184041399
v 9.63463297727 32 -7.15358982563
v 9.11814192173 32 -7.80124912402
v 8.55819876757 32 -8.41173191767
v 7.95747189889 32 -8.98212897805
v 7.3188240528 32 -9.50972210341
v 6.64529867713 32 -9.99199707225
v 5.940105427 32 -10.4266556247
v 5.20660486941 32 -10.8116264148
v 4.44829246854 32 -11.1450748815
v 3.66878192832 32 -11.4254119909
v 2.87178797145 32 -11.6513018091
v 2.0611086371 32 -11.8216678682
v 1.24060718146 32 -11.9356982963
v 0.414193667636 32 -11.9928496866
v -0.414193667637 32 -11.9928496866
v -1.24060718146 32 -11.9356982963
v -2.0611086371 32 -11.8216678682
v -2.87178797145 32 -11.6513018091
v -3.66878192832 32 -11.4254119909
v -4.44829246854 32 -11.1450748815
v -5.20660486941 32 -10.8116264148
v -5.940105427 32 -10.4266556247
v -6.64529867713 32 -9.99199707225
v -7.3188240528 32 -9.50972210341
v -7.95747189889 32 -8.98212897805
v -8.55819876757 32 -8.41173191767
v -9.11814192173 32 -7.80124912402
v -9.63463297727 32 -7.15358982563
v -10.1052106191 32 -6.47184041399
v -10.5276323304 32 -5.75924973552
v -10.8998850794 32 -5.01921360931
v -11.2201949122 32 -4.25525864451
v -11.4870354066 32 -3.47102543444
v -11.6991349462 32 -2.67025120748
v -11.8554827799 32 -1.85675201748
v -11.9553338393 32 -1.03440455857
v -11.9982122885 32 -0.207127690865
v -11.9839137922 32 0.621136234611
v -11.9125064892 32 1.44644016306
v -11.7843306678 32 2.26485114544
v -11.5999971443 32 3.07246908069
v -11.3603843518 32 3.86544530158
v -11.0666341543 32 4.6400009153
v -10.7201464054 32 5.39244481161
v -10.322572277 32 6.11919125268
v -9.87580639072 32 6.81677696077
v -9.38197778962 32 7.4818776223
v -8.84343979181 32 8.11132372974
v -8.26275877612 32 8.70211568572
v -7.64270195202 32 9.25143809754
v -6.98622417265 32 9.75667319374
v -6.29645385359 32 10.215413299
v -5.57667806453 32 10.6254723078
v -4.83032686488 32 10.9848961023
v -4.060956958 32 11.2919718643
v -3.27223474187 32 11.5452362381
v -2.46791883703 32 11.7434823036
v -1.65184217505 32 11.8857653279
v -0.827893732852 32 11.9714072676
v -1.98392781462e-15 0 8.1
v 0.558828269675 0 8.08069990564
v 1.11499346816 0 8.0228915963
v 1.665845215 0 7.9268505549
v 2.20875845076 0 7.79303446073
v 2.74114594665 0 7.62208100844
v 3.26047063379 0 7.41480486906
v 3.76425769355 0 7.17219380779
v 4.25010635117 0 6.89540397683
v 4.71570131654 0 6.58575440578
v 5.15882381761 0 6.24472071584
v 5.57736217388 0 5.87392808786
v 5.96932185947 0 5.47514351757
v 6.33283500799 0 5.05026739506
v 6.66616931374 0 4.60132444852
v 6.96773628695 0 4.13045409556
v 7.23609882366 0 3.63990024783
v 7.46997805418 0 3.13200061783
v 7.66825943746 0 2.60917557857
v 7.82999807242 0 2.07391662947
v 7.95442320079 0 1.52877452317
v 8.04094188019 0 0.976347110068
v 8.08914180971 0 0.419266958362
v 8.09879329473 0 -0.139811191334
v 8.06985034153 0 -0.698223077033
v 8.00245087646 0 -1.2533076118
v 7.89691608867 0 -1.80241956505
v 7.75374889948 0 -2.34294216825
v 7.57363156575 0 -2.87229958504
v 7.3574224286 0 -3.38796918628
v 7.10615182302 0 -3.88749357147
v 6.82101716787 0 -4.36849227944
v 6.50337725965 0 -4.8286731323
v 6.15474579717 0 -5.26584315872
v 5.77678416811 0 -5.67791904443
v 5.37129353175 0 -6.06293706019
v 4.94020623564 0 -6.4190624198
v 4.48557660706 0 -6.74459802377
v 4.00957116323 0 -7.03799254667
v 3.51445828685 0 -7.29784783001
v 3.00259741627 0 -7.52292554501
v 2.47642780161 0 -7.71215309388
v 1.93845688073 0 -7.86462872115
v 1.39124833004 0 -7.97962581104
v 0.837409847486 0 -8.05659635003
v 0.279580725655 0 -8.09517353846
v -0.279580725655 0 -8.09517353846
v -0.837409847486 0 -8.05659635003
v -1.39124833004 0 -7.97962581104
v -1.93845688073 0 -7.86462872115
v -2.47642780161 0 -7.71215309388
v -3.00259741627 0 -7.52292554501
v -3.51445828685 0 -7.29784783001
v -4.00957116323 0 -7.03799254667
v -4.48557660706 0 -6.74459802377
v -4.94020623564 0 -6.4190624198
v -5.37129353175 0 -6.06293706019
v -5.77678416811 0 -5.67791904443
v -6.15474579717 0 -5.26584315872
v -6.50337725965 0 -4.8286731323
v -6.82101716787 0 -4.36849227944
v -7.10615182302 0 -3.88749357147
v -7.3574224286 0 -3.38796918628
v -7.57363156575 0 -2.87229958504
v -7.75374889948 0 -2.34294216825
v -7.89691608867 0 -1.80241956505
v -8.00245087646 0 -1.2533076118
v -8.06985034153 0 -0.698223077033
v -8.09879329473 0 -0.139811191334
v -8.08914180971 0 0.419266958362
v -8.04094188019 0 0.976347110068
v -7.95442320079 0 1.52877452317
v -7.82999807242 0 2.07391662947
v -7.66825943746 0 2.60917557857
v -7.46997805418 0 3.13200061783
v -7.23609882366 0 3.63990024783
v -6.96773628695 0 4.13045409556
v -6.66616931374 0 4.60132444852
v -6.33283500799 0 5.05026739506
v -5.96932185947 0 5.47514351757
v -5.57736217388 0 5.87392808786
v -5.15882381761 0 6.24472071584
v -4.71570131654 0 6.58575440578
v -4.25010635117 0 6.89540397683
v -3.76425769355 0 7.17219380779
v -3.26047063379 0 7.41480486906
v -2.74114594665 0 7.62208100844
v -2.20875845076 0 7.79303446073
v -1.665845215 0 7.9268505549
v -1.11499346816 0 8.0228915963
v -0.558828269675 0 8.08069990564
v -2.93915231795e-15 0 12
v 0.827893732852 0 11.9714072676
v 1.65184217505 0 11.8857653279
v 2.46791883703 0 11.7434823036
v 3.27223474187 0 11.5452362381
v 4.060956958 0 11.2919718643
v 4.83032686488 0 10.9848961023
v 5.57667806453 0 10.6254723078
v 6.29645385359 0 10.215413299
v 6.98622417265 0 9.75667319374
v 7.64270195202 0 9.25143809754
v 8.26275877612 0 8.70211568572
v 8.84343979181 0 8.11132372974
v 9.38197778962 0 7.4818776223
v 9.87580639072 0 6.81677696077
v 10.322572277 0 6.11919125268
v 10.7201464054 0 5.39244481161
v 11.0666341543 0 4.6400009153
v 11.3603843518 0 3.86544530158
v 11.5999971443 0 3.07246908069
v 11.7843306678 0 2.26485114543
v 11.9125064892 0 1.44644016306
v 11.9839137922 0 0.62113623461
v 11.9982122885 0 -0.207127690865
v 11.9553338393 0 -1.03440455857
v 11.8554827799 0 -1.85675201748
v 11.6991349462 0 -2.67025120748
v 11.4870354066 0 -3.47102543444
v 11.2201949122 0 -4.25525864451
v 10.8998850794 0 -5.01921360931
v 10.5276323304 0 -5.75924973552
v 10.1052106191 0 -6.47184041399
v 9.63463297727 0 -7.15358982563
v 9.11814192173 0 -7.80124912402
v 8.55819876757 0 -8.41173191767
v 7.95747189889 0 -8.98212897805
v 7.3188240528 0 -9.50972210341
v 6.64529867713 0 -9.99199707225
v 5.940105427 0 -10.4266556247
v 5.20660486941 0 -10.8116264148
v 4.44829246854 0 -11.1450748815
v 3.66878192832 0 -11.4254119909
v 2.87178797145 0 -11.6513018091
v 2.0611086371 0 -11.8216678682
v 1.24060718146 0 -11.9356982963
v 0.414193667636 0 -11.9928496866
v -0.414193667637 0 -11.9928496866
v -1.24060718146 0 -11.9356982963
v -2.0611086371 0 -11.8216678682
v -2.87178797145 0 -11.6513018091
v -3.66878192832 0 -11.4254119909
v -4.44829246854 0 -11.1450748815
v -5.20660486941 0 -10.8116264148
v -5.940105427 0 -10.4266556247
v -6.64529867713 0 -9.99199707225
v -7.3188240528 0 -9.50972210341
v -7.95747189889 0 -8.98212897805
v -8.55819876757 0 -8.41173191767
v -9.11814192173 0 -7.80124912402
v -9.63463297727 0 -7.15358982563
v -10.1052106191 0 -6.47184041399
v -10.5276323304 0 -5.75924973552
v -10.8998850794 0 -5.01921360931
v -11.2201949122 0 -4.25525864451
v -11.4870354066 0 -3.47102543444
v -11.6991349462 0 -2.67025120748
v -11.8554827799 0 -1.85675201748
v -11.9553338393 0 -1.03440455857
v -11.9982122885 0 -0.207127690865
v -11.9839137922 0 0.621136234611
v -11.9125064892 0 1.44644016306
v -11.7843306678 0 2.26485114544
v -11.5999971443 0 3.07246908069
v -11.3603843518 0 3.86544530158
v -11.0666341543 0 4.6400009153
v -10.7201464054 0 5.39244481161
v -10.322572277 0 6.11919125268
v -9.87580639072 0 6.81677696077
v -9.38197778962 0 7.4818776223
v -8.84343979181 0 8.11132372974
v -8.26275877612 0 8.70211568572
v -7.64270195202 0 9.25143809754
v -6.98622417265 0 9.75667319374
v -6.29645385359 0 10.215413299
v -5.57667806453 0 10.6254723078
v -4.83032686488 0 10.9848961023
v -4.060956958 0 11.2919718643
v -3.27223474187 0 11.5452362381
v -2.46791883703 0 11.7434823036
v -1.65184217505 0 11.8857653279
v -0.827893732852 0 11.9714072676
f 2 1 92
f 2 92 93
f 3 93 94
f 3 2 93
f 4 94 95
f 4 3 94
f 5 4 95
f 5 95 96
f 6 5 96
f 6 96 97
f 7 6 97
f 7 97 98
f 8 7 98
f 8 98 99
f 8 99 100
f 9 8 100
f 10 100 101
f 10 101 102
f 10 9 100
f 11 10 102
f 12 102 103
f 12 11 102
f 13 103 104
f 13 12 103
f 14 104 105
f 14 13 104
f 15 105 106
f 15 14 105
f 16 106 107
f 16 15 106
f 17 107 108
f 17 16 107
f 18 108 109
f 18 17 108
f 19 109 110
f 19 18 109
f 20 110 111
f 20 19 110
f 21 111 112
f 21 112 113
f 21 20 111
f 22 21 113
f 23 113 114
f 23 22 113
f 24 114 115
f 24 23 114
f 25 115 116
f 25 116 117
f 25 24 115
f 26 25 117
f 27 117 118
f 27 118 119
f 27 26 117
f 28 27 119
f 29 119 120
f 29 28 119
f 30 29 120
f 30 120 121
f 31 30 121
f 31 121 122
f 32 31 122
f 32 122 123
f 32 123 124
f 33 32 124
f 34 33 124
f 34 124 125
f 35 34 125
f 35 125 126
f 35 126 127
f 36 35 127
f 37 127 128
f 37 36 127
f 38 128 129
f 38 37 128
f 39 129 130
f 39 38 129
f 40 130 131
f 40 39 130
f 41 131 132
f 41 40 131
f 42 132 133
f 42 41 132
f 43 133 134
f 43 42 133
f 44 134 135
f 44 43 134
f 45 135 136
f 45 44 135
f 46 136 137
f 46 137 138
f 46 45 136
f 47 46 138
f 48 138 139
f 48 47 138
f 49 139 140
f 49 140 141
f 49 48 139
f 50 141 142
f 50 49 141
f 51 50 142
f 52 142 143
f 52 51 142
f 53 143 144
f 53 52 143
f 54 144 145
f 54 145 146
f 54 53 144
f 55 54 146
f 56 55 146
f 56 146 147
f 56 147 148
f 57 56 148
f 57 148 149
f 58 57 149
f 59 58 149
f 59 149 150
f 60 59 150
f 60 150 151
f 61 60 151
f 61 151 152
f 62 61 152
f 62 152 153
f 62 153 154
f 63 62 154
f 64 63 154
f 64 154 155
f 65 64 155
f 65 155 156
f 66 65 156
f 66 156 157
f 67 66 157
f 67 157 158
f 67 158 159
f 68 67 159
f 69 68 159
f 69 159 160
f 70 69 160
f 70 160 161
f 70 161 162
f 71 70 162
f 72 162 163
f 72 71 162
f 73 163 164
f 73 72 163
f 74 164 165
f 74 165 166
f 74 73 164
f 75 74 166
f 76 166 167
f 76 75 166
f 77 167 168
f 77 76 167
f 78 168 169
f 78 77 168
f 79 169 170
f 79 78 169
f 80 170 171
f 80 79 170
f 81 80 171
f 81 171 172
f 82 81 172
f 82 172 173
f 82 173 174
f 83 82 174
f 84 83 174
f 84 174 175
f 85 84 175
f 85 175 176
f 86 85 176
f 86 176 177
f 87 86 177
f 87 177 178
f 88 87 178
f 88 178 179
f 89 88 179
f 89 179 180
f 90 89 180
f 90 180 181
f 90 181 182
f 91 90 182
f 1 91 182
f 1 182 92
f 240 57 58
f 239 57 240
f 241 240 58
f 241 58 59
f 238 57 239
f 238 56 57
f 242 241 59
f 242 59 60
f 237 56 238
f 237 55 56
f 243 242 60
f 243 60 61
f 243 61 62
f 236 54 55
f 236 55 237
f 244 243 62
f 235 53 54
f 235 54 236
f 245 244 62
f 245 62 63
f 234 52 53
f 234 53 235
f 246 245 63
f 246 63 64
f 246 64 65
f 233 52 234
f 233 51 52
f 247 246 65
f 232 51 233
f 232 50 51
f 248 65 66
f 248 247 65
f 231 49 50
f 231 50 232
f 249 66 67
f 249 248 66
f 230 48 49
f 230 49 231
f 250 249 67
f 250 67 68
f 250 68 69
f 229 47 48
f 229 48 230
f 251 250 69
f 228 47 229
f 228 46 47
f 252 251 69
f 252 69 70
f 227 45 46
f 227 46 228
f 253 252 70
f 253 70 71
f 226 45 227
f 226 44 45
f 254 71 72
f 254 253 71
f 225 44 226
f 225 42 43
f 225 43 44
f 255 254 72
f 255 72 73
f 224 42 225
f 256 255 73
f 256 73 74
f 223 42 224
f 223 41 42
f 257 256 74
f 257 74 75
f 257 75 76
f 222 41 223
f 222 39 40
f 222 40 41
f 258 257 76
f 221 39 222
f 259 258 76
f 259 76 77
f 220 38 39
f 220 39 221
f 260 259 77
f 260 77 78
f 219 37 38
f 219 38 220
f 261 260 78
f 261 78 79
f 36 37 219
f 218 36 219
f 262 261 79
f 262 79 80
f 35 218 217
f 35 36 218
f 81 262 80
f 81 263 262
f 34 217 216
f 34 35 217
f 82 263 81
f 82 264 263
f 33 216 215
f 33 34 216
f 83 265 264
f 83 266 265
f 83 264 82
f 32 214 213
f 32 215 214
f 32 33 215
f 84 266 83
f 31 213 212
f 31 32 213
f 85 267 266
f 85 266 84
f 30 31 212
f 86 267 85
f 86 268 267
f 29 30 212
f 29 212 211
f 87 268 86
f 87 269 268
f 28 211 210
f 28 29 211
f 88 269 87
f 88 270 269
f 27 210 209
f 27 28 210
f 89 270 88
f 89 271 270
f 26 209 208
f 26 27 209
f 90 271 89
f 90 272 271
f 25 207 206
f 25 208 207
f 25 26 208
f 91 272 90
f 91 273 272
f 91 183 273
f 24 25 206
f 1 183 91
f 1 184 183
f 23 206 205
f 23 24 206
f 2 184 1
f 22 205 204
f 22 23 205
f 3 184 2
f 3 185 184
f 21 203 202
f 21 204 203
f 21 22 204
f 4 185 3
f 4 186 185
f 4 187 186
f 20 21 202
f 5 187 4
f 19 201 200
f 19 202 201
f 19 20 202
f 6 187 5
f 6 188 187
f 18 200 199
f 18 19 200
f 7 188 6
f 7 189 188
f 17 199 198
f 17 18 199
f 8 189 7
f 8 190 189
f 8 191 190
f 16 17 198
f 9 191 8
f 9 192 191
f 15 198 197
f 15 16 198
f 10 192 9
f 14 197 196
f 14 15 197
f 11 193 192
f 11 192 10
f 13 195 194
f 13 196 195
f 13 14 196
f 12 194 193
f 12 13 194
f 12 193 11
f 331 149 148
f 330 148 147
f 330 331 148
f 332 149 331
f 332 150 149
f 329 330 147
f 333 150 332
f 333 151 150
f 328 329 147
f 328 147 146
f 334 152 151
f 334 151 333
f 327 328 146
f 327 146 145
f 335 153 152
f 335 154 153
f 335 152 334
f 326 327 145
f 326 145 144
f 336 154 335
f 336 155 154
f 325 326 144
f 325 143 142
f 325 144 143
f 337 155 336
f 337 156 155
f 324 325 142
f 338 156 337
f 323 324 142
f 323 142 141
f 339 156 338
f 339 157 156
f 322 141 140
f 322 323 141
f 340 157 339
f 340 158 157
f 340 159 158
f 321 322 140
f 321 140 139
f 341 159 340
f 320 139 138
f 320 321 139
f 342 159 341
f 342 160 159
f 319 138 137
f 319 320 138
f 343 161 160
f 343 160 342
f 343 162 161
f 318 137 136
f 318 319 137
f 344 162 343
f 317 136 135
f 317 318 136
f 345 163 162
f 345 162 344
f 316 317 135
f 316 134 133
f 316 135 134
f 346 164 163
f 346 163 345
f 315 316 133
f 347 164 346
f 347 165 164
f 314 133 132
f 314 315 133
f 348 165 347
f 348 166 165
f 313 131 130
f 313 132 131
f 313 314 132
f 349 166 348
f 349 167 166
f 312 313 130
f 350 167 349
f 350 168 167
f 311 312 130
f 311 130 129
f 351 168 350
f 351 169 168
f 310 129 128
f 310 311 129
f 352 169 351
f 352 170 169
f 127 310 128
f 309 310 127
f 353 170 352
f 353 171 170
f 126 308 309
f 126 309 127
f 172 171 353
f 172 353 354
f 125 307 308
f 125 308 126
f 173 172 354
f 173 354 355
f 124 306 307
f 124 307 125
f 174 173 355
f 174 355 356
f 123 305 306
f 123 306 124
f 175 356 357
f 175 174 356
f 122 303 304
f 122 304 305
f 122 305 123
f 176 357 358
f 176 358 359
f 176 175 357
f 121 303 122
f 177 176 359
f 120 301 302
f 120 302 303
f 120 303 121
f 178 177 359
f 178 359 360
f 119 301 120
f 179 178 360
f 179 360 361
f 118 300 301
f 118 301 119
f 180 179 361
f 180 361 362
f 117 299 300
f 117 300 118
f 181 180 362
f 181 362 363
f 181 363 364
f 116 298 299
f 116 299 117
f 182 181 364
f 115 297 298
f 115 298 116
f 92 182 364
f 92 364 274
f 92 274 275
f 114 296 297
f 114 297 115
f 93 92 275
f 113 295 296
f 113 296 114
f 94 93 275
f 94 275 276
f 94 276 277
f 112 293 294
f 112 294 295
f 112 295 113
f 95 94 277
f 111 293 112
f 96 95 277
f 96 277 278
f 110 292 293
f 110 293 111
f 97 96 278
f 97 278 279
f 97 279 280
f 109 291 292
f 109 292 110
f 98 97 280
f 108 290 291
f 108 291 109
f 99 98 280
f 99 280 281
f 99 281 282
f 107 289 290
f 107 290 108
f 100 99 282
f 106 288 289
f 106 289 107
f 101 100 282
f 101 282 283
f 105 286 287
f 105 287 288
f 105 288 106
f 102 283 284
f 102 101 283
f 104 286 105
f 103 284 285
f 103 285 286
f 103 102 284
f 103 286 104
f 183 366 365
f 184 367 366
f 184 366 183
f 185 367 184
f 186 367 185
f 186 368 367
f 187 368 186
f 187 369 368
f 187 370 369
f 188 370 187
f 188 371 370
f 189 371 188
f 190 371 189
f 190 372 371
f 190 373 372
f 191 373 190
f 192 374 373
f 192 373 191
f 193 375 374
f 193 374 192
f 194 376 375
f 194 375 193
f 195 377 376
f 195 376 194
f 196 378 377
f 196 377 195
f 197 379 378
f 197 378 196
f 198 380 379
f 198 379 197
f 199 381 380
f 199 380 198
f 200 382 381
f 200 381 199
f 201 383 382
f 201 384 383
f 201 382 200
f 202 384 201
f 203 385 384
f 203 384 202
f 204 386 385
f 204 385 203
f 205 387 386
f 205 386 204
f 206 388 387
f 206 389 388
f 206 387 205
f 207 389 206
f 208 390 389
f 208 389 207
f 209 391 390
f 209 390 208
f 210 392 391
f 210 391 209
f 211 393 392
f 211 392 210
f 212 394 393
f 212 393 211
f 213 394 212
f 213 395 394
f 214 395 213
f 214 396 395
f 215 396 214
f 215 397 396
f 216 397 215
f 216 398 397
f 217 398 216
f 217 399 398
f 218 400 399
f 218 399 217
f 219 401 400
f 219 402 401
f 219 400 218
f 220 402 219
f 221 403 402
f 221 402 220
f 222 404 403
f 222 405 404
f 222 403 221
f 223 406 405
f 223 405 222
f 224 407 406
f 224 406 223
f 225 407 224
f 226 408 407
f 226 407 225
f 227 409 408
f 227 408 226
f 228 410 409
f 228 409 227
f 229 411 410
f 229 412 411
f 229 410 228
f 230 412 229
f 231 413 412
f 231 414 413
f 231 412 230
f 232 414 231
f 233 415 414
f 233 416 415
f 233 414 232
f 234 416 233
f 235 417 416
f 235 416 234
f 236 418 417
f 236 417 235
f 237 419 418
f 237 418 236
f 238 419 237
f 238 420 419
f 239 420 238
f 239 421 420
f 240 421 239
f 240 422 421
f 240 423 422
f 241 423 240
f 241 424 423
f 242 424 241
f 243 424 242
f 243 425 424
f 244 425 243
f 244 426 425
f 245 426 244
f 245 427 426
f 245 428 427
f 246 428 245
f 247 428 246
f 247 429 428
f 248 429 247
f 248 430 429
f 249 430 248
f 249 431 430
f 250 431 249
f 250 432 431
f 250 433 432
f 251 433 250
f 252 433 251
f 252 434 433
f 252 435 434
f 253 435 252
f 254 436 435
f 254 435 253
f 255 437 436
f 255 436 254
f 256 438 437
f 256 437 255
f 257 439 438
f 257 440 439
f 257 438 256
f 258 440 257
f 259 441 440
f 259 440 258
f 260 442 441
f 260 441 259
f 261 443 442
f 261 442 260
f 262 444 443
f 262 443 261
f 263 444 262
f 263 445 444
f 263 446 445
f 264 446 263
f 265 446 264
f 265 447 446
f 266 447 265
f 266 448 447
f 266 449 448
f 267 449 266
f 268 449 267
f 268 450 449
f 268 451 450
f 269 451 268
f 270 451 269
f 270 452 451
f 271 452 270
f 271 453 452
f 272 453 271
f 272 454 453
f 273 454 272
f 273 455 454
f 183 455 273
f 183 365 455
f 275 274 456
f 275 456 457
f 276 457 458
f 276 275 457
f 277 458 459
f 277 459 460
f 277 276 458
f 278 277 460
f 279 278 460
f 279 460 461
f 280 279 461
f 280 461 462
f 280 462 463
f 281 280 463
f 282 281 463
f 282 463 464
f 283 464 465
f 283 282 464
f 284 465 466
f 284 283 465
f 285 466 467
f 285 284 466
f 286 467 468
f 286 468 469
f 286 285 467
f 287 286 469
f 288 469 470
f 288 470 471
f 288 287 469
f 289 288 471
f 290 471 472
f 290 472 473
f 290 289 471
f 291 290 473
f 292 473 474
f 292 474 475
f 292 291 473
f 293 292 475
f 294 475 476
f 294 476 477
f 294 293 475
f 295 477 478
f 295 294 477
f 296 295 478
f 297 478 479
f 297 296 478
f 298 479 480
f 298 480 481
f 298 297 479
f 299 298 481
f 300 481 482
f 300 482 483
f 300 299 481
f 301 300 483
f 302 483 484
f 302 301 483
f 303 302 484
f 303 484 485
f 303 485 486
f 304 303 486
f 305 304 486
f 305 486 487
f 306 305 487
f 306 487 488
f 307 306 488
f 307 488 489
f 308 307 489
f 308 489 490
f 309 490 491
f 309 308 490
f 310 491 492
f 310 492 493
f 310 309 491
f 311 493 494
f 311 310 493
f 312 311 494
f 313 494 495
f 313 312 494
f 314 495 496
f 314 313 495
f 315 496 497
f 315 314 496
f 316 497 498
f 316 315 497
f 317 498 499
f 317 316 498
f 318 499 500
f 318 500 501
f 318 317 499
f 319 318 501
f 320 501 502
f 320 319 501
f 321 502 503
f 321 320 502
f 322 503 504
f 322 504 505
f 322 321 503
f 323 322 505
f 324 505 506
f 324 323 505
f 325 506 507
f 325 507 508
f 325 324 506
f 326 508 509
f 326 325 508
f 327 326 509
f 328 327 509
f 328 509 510
f 329 328 510
f 329 510 511
f 329 511 512
f 330 512 513
f 330 329 512
f 331 330 513
f 332 331 513
f 332 513 514
f 332 514 515
f 333 332 515
f 333 515 516
f 334 333 516
f 335 334 516
f 335 516 517
f 336 335 517
f 336 517 518
f 337 336 518
f 337 518 519
f 338 337 519
f 338 519 520
f 339 338 520
f 339 520 521
f 340 339 521
f 340 521 522
f 341 340 522
f 341 522 523
f 342 341 523
f 342 523 524
f 343 342 524
f 343 524 525
f 344 525 526
f 344 343 525
f 345 526 527
f 345 527 528
f 345 344 526
f 346 345 528
f 347 528 529
f 347 346 528
f 348 529 530
f 348 347 529
f 349 530 531
f 349 348 530
f 350 531 532
f 350 349 531
f 351 532 533
f 351 350 532
f 352 533 534
f 352 351 533
f 353 534 535
f 353 352 534
f 354 353 535
f 354 535 536
f 354 536 537
f 355 354 537
f 356 355 537
f 356 537 538
f 357 356 538
f 357 538 539
f 358 357 539
f 358 539 540
f 359 358 540
f 359 540 541
f 360 359 541
f 360 541 542
f 360 542 543
f 361 360 543
f 361 543 544
f 362 361 544
f 363 362 544
f 363 544 545
f 363 545 546
f 364 363 546
f 274 364 546
f 274 546 456
f 422 514 513
f 421 513 512
f 421 422 513
f 423 514 422
f 420 421 512
f 420 512 511
f 424 514 423
f 424 515 514
f 419 420 511
f 419 511 510
f 425 516 515
f 425 515 424
f 418 419 510
f 418 510 509
f 426 516 425
f 426 517 516
f 417 418 509
f 417 509 508
f 427 517 426
f 427 518 517
f 416 507 506
f 416 508 507
f 416 417 508
f 428 518 427
f 428 519 518
f 415 416 506
f 429 519 428
f 429 520 519
f 414 415 506
f 414 506 505
f 430 521 520
f 430 520 429
f 413 414 505
f 413 505 504
f 431 522 521
f 431 523 522
f 431 521 430
f 412 413 504
f 412 504 503
f 432 523 431
f 411 412 503
f 411 503 502
f 433 524 523
f 433 523 432
f 410 411 502
f 410 502 501
f 434 525 524
f 434 524 433
f 409 500 499
f 409 501 500
f 409 410 501
f 435 526 525
f 435 525 434
f 408 409 499
f 436 526 435
f 436 527 526
f 407 499 498
f 407 408 499
f 437 528 527
f 437 527 436
f 406 407 498
f 406 498 497
f 438 529 528
f 438 528 437
f 405 406 497
f 405 496 495
f 405 497 496
f 439 529 438
f 439 530 529
f 439 531 530
f 404 405 495
f 440 531 439
f 403 404 495
f 403 495 494
f 441 531 440
f 441 532 531
f 402 494 493
f 402 403 494
f 492 402 493
f 442 532 441
f 442 533 532
f 401 402 492
f 443 533 442
f 443 534 533
f 400 492 491
f 400 401 492
f 444 534 443
f 444 535 534
f 490 399 400
f 490 400 491
f 445 535 444
f 536 535 445
f 489 398 399
f 489 399 490
f 537 536 445
f 537 445 446
f 488 397 398
f 488 398 489
f 538 446 447
f 538 447 448
f 538 537 446
f 487 396 397
f 487 397 488
f 539 448 449
f 539 538 448
f 486 395 396
f 486 396 487
f 540 449 450
f 540 539 449
f 485 395 486
f 485 394 395
f 541 540 450
f 484 394 485
f 484 392 393
f 484 393 394
f 542 450 451
f 542 541 450
f 483 392 484
f 543 542 451
f 543 451 452
f 543 452 453
f 482 391 392
f 482 392 483
f 544 543 453
f 481 390 391
f 481 391 482
f 545 544 453
f 545 453 454
f 480 390 481
f 480 388 389
f 480 389 390
f 546 545 454
f 546 454 455
f 479 388 480
f 456 546 455
f 456 455 365
f 456 365 366
f 478 386 387
f 478 387 388
f 478 388 479
f 457 456 366
f 477 386 478
f 458 457 366
f 458 366 367
f 476 386 477
f 476 385 386
f 459 458 367
f 459 367 368
f 475 384 385
f 475 385 476
f 460 459 368
f 460 368 369
f 474 382 383
f 474 383 384
f 474 384 475
f 461 460 369
f 461 369 370
f 461 370 371
f 473 382 474
f 462 461 371
f 472 381 382
f 472 382 473
f 463 462 371
f 463 371 372
f 471 381 472
f 471 379 380
f 471 380 381
f 464 463 372
f 464 372 373
f 464 373 374
f 470 378 379
f 470 379 471
f 465 374 375
f 465 464 374
f 469 378 470
f 466 465 375
f 468 377 378
f 468 378 469
f 467 375 376
f 467 376 377
f 467 466 375
f 467 377 468
