# SimpleCAD BREP tessellation for MuJoCo
v 260 -29.5 300.5
v 260 -29.5 381.454349062
v 260 29.5 300.5
v 260 29.5 381.454349062
v 260.5 -30 381.454349062
v 260.5 -30 300.5
v 260.5 -29.5 300
v 260.5 29.5 300
v 260.5 -29.5 381.954349062
v 260.5 29.5 381.954349062
v 260.5 30 381.454349062
v 260.5 30 300.5
v 339.5 -30 381.454349062
v 339.5 -30 300.5
v 339.5 -29.5 300
v 339.5 29.5 300
v 278.3 -20 300
v 278.292136999 -19.7723292235 300
v 278.268585465 -19.5457434019 300
v 278.229457633 -19.3213223198 300
v 278.174939965 -19.100135446 300
v 278.105292263 -18.8832368365 300
v 278.020846428 -18.6716601122 300
v 277.922004885 -18.4664135323 300
v 277.809238657 -18.2684751903 300
v 277.683085128 -18.0787883525 300
v 277.544145477 -17.8982569632 300
v 277.393081814 -17.7277413366 300
v 277.230614026 -17.5680540573 300
v 277.057516346 -17.4199561079 300
v 276.874613664 -17.2841532426 300
v 276.682777594 -17.1612926238 300
v 276.482922323 -17.0519597385 300
v 276.276000252 -16.9566756076 300
v 276.062997458 -16.8758943033 300
v 275.844928997 -16.8100007853 300
v 275.622834065 -16.7593090663 300
v 275.397771045 -16.7240607155 300
v 275.170812465 -16.7044237072 300
v 274.943039885 -16.7004916207 300
v 274.715538746 -16.7122831942 300
v 274.489393195 -16.7397422355 300
v 274.265680918 -16.7827378898 300
v 274.045468006 -16.8410652632 300
v 273.829803873 -16.9144463991 300
v 273.619716257 -17.0025316032 300
v 273.416206323 -17.1049011091 300
v 273.220243886 -17.2210670798 300
v 273.032762798 -17.3504759313 300
v 272.854656491 -17.4925109715 300
v 272.686773723 -17.6464953389 300
v 272.529914531 -17.8116952278 300
v 272.384826422 -17.9873233855 300
v 272.252200805 -18.1725428638 300
v 272.132669703 -18.3664710076 300
v 272.026802736 -18.5681836609 300
v 271.935104408 -18.7767195712 300
v 271.858011702 -18.9910849697 300
v 271.795892002 -19.2102583079 300
v 271.749041336 -19.4331951248 300
v 271.717682969 -19.6588330251 300
v 271.701966336 -19.8860967414 300
v 271.701966336 -20.1139032586 300
v 271.717682969 -20.3411669749 300
v 271.749041336 -20.5668048752 300
v 271.795892002 -20.7897416921 300
v 271.858011702 -21.0089150303 300
v 271.935104408 -21.2232804288 300
v 272.026802736 -21.4318163391 300
v 272.132669703 -21.6335289924 300
v 272.252200805 -21.8274571362 300
v 272.384826422 -22.0126766145 300
v 272.529914531 -22.1883047722 300
v 272.686773723 -22.3535046611 300
v 272.854656491 -22.5074890285 300
v 273.032762798 -22.6495240687 300
v 273.220243886 -22.7789329202 300
v 273.416206323 -22.8950988909 300
v 273.619716257 -22.9974683968 300
v 273.829803873 -23.0855536009 300
v 274.045468006 -23.1589347368 300
v 274.265680918 -23.2172621102 300
v 274.489393195 -23.2602577645 300
v 274.715538746 -23.2877168058 300
v 274.943039885 -23.2995083793 300
v 275.170812465 -23.2955762928 300
v 275.397771045 -23.2759392845 300
v 275.622834065 -23.2406909337 300
v 275.844928997 -23.1899992147 300
v 276.062997458 -23.1241056967 300
v 276.276000252 -23.0433243924 300
v 276.482922323 -22.9480402615 300
v 276.682777594 -22.8387073762 300
v 276.874613664 -22.7158467574 300
v 277.057516346 -22.5800438921 300
v 277.230614026 -22.4319459427 300
v 277.393081814 -22.2722586634 300
v 277.544145477 -22.1017430368 300
v 277.683085128 -21.9212116475 300
v 277.809238657 -21.7315248097 300
v 277.922004885 -21.5335864677 300
v 278.020846428 -21.3283398878 300
v 278.105292263 -21.1167631635 300
v 278.174939965 -20.899864554 300
v 278.229457633 -20.6786776802 300
v 278.268585465 -20.4542565981 300
v 278.292136999 -20.2276707765 300
v 328.3 -20 300
v 328.292136999 -19.7723292235 300
v 328.268585465 -19.5457434019 300
v 328.229457633 -19.3213223198 300
v 328.174939965 -19.100135446 300
v 328.105292263 -18.8832368365 300
v 328.020846428 -18.6716601122 300
v 327.922004885 -18.4664135323 300
v 327.809238657 -18.2684751903 300
v 327.683085128 -18.0787883525 300
v 327.544145477 -17.8982569632 300
v 327.393081814 -17.7277413366 300
v 327.230614026 -17.5680540573 300
v 327.057516346 -17.4199561079 300
v 326.874613664 -17.2841532426 300
v 326.682777594 -17.1612926238 300
v 326.482922323 -17.0519597385 300
v 326.276000252 -16.9566756076 300
v 326.062997458 -16.8758943033 300
v 325.844928997 -16.8100007853 300
v 325.622834065 -16.7593090663 300
v 325.397771045 -16.7240607155 300
v 325.170812465 -16.7044237072 300
v 324.943039885 -16.7004916207 300
v 324.715538746 -16.7122831942 300
v 324.489393195 -16.7397422355 300
v 324.265680918 -16.7827378898 300
v 324.045468006 -16.8410652632 300
v 323.829803873 -16.9144463991 300
v 323.619716257 -17.0025316032 300
v 323.416206323 -17.1049011091 300
v 323.220243886 -17.2210670798 300
v 323.032762798 -17.3504759313 300
v 322.854656491 -17.4925109715 300
v 322.686773723 -17.6464953389 300
v 322.529914531 -17.8116952278 300
v 322.384826422 -17.9873233855 300
v 322.252200805 -18.1725428638 300
v 322.132669703 -18.3664710076 300
v 322.026802736 -18.5681836609 300
v 321.935104408 -18.7767195712 300
v 321.858011702 -18.9910849697 300
v 321.795892002 -19.2102583079 300
v 321.749041336 -19.4331951248 300
v 321.717682969 -19.6588330251 300
v 321.701966336 -19.8860967414 300
v 321.701966336 -20.1139032586 300
v 321.717682969 -20.3411669749 300
v 321.749041336 -20.5668048752 300
v 321.795892002 -20.7897416921 300
v 321.858011702 -21.0089150303 300
v 321.935104408 -21.2232804288 300
v 322.026802736 -21.4318163391 300
v 322.132669703 -21.6335289924 300
v 322.252200805 -21.8274571362 300
v 322.384826422 -22.0126766145 300
v 322.529914531 -22.1883047722 300
v 322.686773723 -22.3535046611 300
v 322.854656491 -22.5074890285 300
v 323.032762798 -22.6495240687 300
v 323.220243886 -22.7789329202 300
v 323.416206323 -22.8950988909 300
v 323.619716257 -22.9974683968 300
v 323.829803873 -23.0855536009 300
v 324.045468006 -23.1589347368 300
v 324.265680918 -23.2172621102 300
v 324.489393195 -23.2602577645 300
v 324.715538746 -23.2877168058 300
v 324.943039885 -23.2995083793 300
v 325.170812465 -23.2955762928 300
v 325.397771045 -23.2759392845 300
v 325.622834065 -23.2406909337 300
v 325.844928997 -23.1899992147 300
v 326.062997458 -23.1241056967 300
v 326.276000252 -23.0433243924 300
v 326.482922323 -22.9480402615 300
v 326.682777594 -22.8387073762 300
v 326.874613664 -22.7158467574 300
v 327.057516346 -22.5800438921 300
v 327.230614026 -22.4319459427 300
v 327.393081814 -22.2722586634 300
v 327.544145477 -22.1017430368 300
v 327.683085128 -21.9212116475 300
v 327.809238657 -21.7315248097 300
v 327.922004885 -21.5335864677 300
v 328.020846428 -21.3283398878 300
v 328.105292263 -21.1167631635 300
v 328.174939965 -20.899864554 300
v 328.229457633 -20.6786776802 300
v 328.268585465 -20.4542565981 300
v 328.292136999 -20.2276707765 300
v 278.3 20 300
v 278.292136999 20.2276707765 300
v 278.268585465 20.4542565981 300
v 278.229457633 20.6786776802 300
v 278.174939965 20.899864554 300
v 278.105292263 21.1167631635 300
v 278.020846428 21.3283398878 300
v 277.922004885 21.5335864677 300
v 277.809238657 21.7315248097 300
v 277.683085128 21.9212116475 300
v 277.544145477 22.1017430368 300
v 277.393081814 22.2722586634 300
v 277.230614026 22.4319459427 300
v 277.057516346 22.5800438921 300
v 276.874613664 22.7158467574 300
v 276.682777594 22.8387073762 300
v 276.482922323 22.9480402615 300
v 276.276000252 23.0433243924 300
v 276.062997458 23.1241056967 300
v 275.844928997 23.1899992147 300
v 275.622834065 23.2406909337 300
v 275.397771045 23.2759392845 300
v 275.170812465 23.2955762928 300
v 274.943039885 23.2995083793 300
v 274.715538746 23.2877168058 300
v 274.489393195 23.2602577645 300
v 274.265680918 23.2172621102 300
v 274.045468006 23.1589347368 300
v 273.829803873 23.0855536009 300
v 273.619716257 22.9974683968 300
v 273.416206323 22.8950988909 300
v 273.220243886 22.7789329202 300
v 273.032762798 22.6495240687 300
v 272.854656491 22.5074890285 300
v 272.686773723 22.3535046611 300
v 272.529914531 22.1883047722 300
v 272.384826422 22.0126766145 300
v 272.252200805 21.8274571362 300
v 272.132669703 21.6335289924 300
v 272.026802736 21.4318163391 300
v 271.935104408 21.2232804288 300
v 271.858011702 21.0089150303 300
v 271.795892002 20.7897416921 300
v 271.749041336 20.5668048752 300
v 271.717682969 20.3411669749 300
v 271.701966336 20.1139032586 300
v 271.701966336 19.8860967414 300
v 271.717682969 19.6588330251 300
v 271.749041336 19.4331951248 300
v 271.795892002 19.2102583079 300
v 271.858011702 18.9910849697 300
v 271.935104408 18.7767195712 300
v 272.026802736 18.5681836609 300
v 272.132669703 18.3664710076 300
v 272.252200805 18.1725428638 300
v 272.384826422 17.9873233855 300
v 272.529914531 17.8116952278 300
v 272.686773723 17.6464953389 300
v 272.854656491 17.4925109715 300
v 273.032762798 17.3504759313 300
v 273.220243886 17.2210670798 300
v 273.416206323 17.1049011091 300
v 273.619716257 17.0025316032 300
v 273.829803873 16.9144463991 300
v 274.045468006 16.8410652632 300
v 274.265680918 16.7827378898 300
v 274.489393195 16.7397422355 300
v 274.715538746 16.7122831942 300
v 274.943039885 16.7004916207 300
v 275.170812465 16.7044237072 300
v 275.397771045 16.7240607155 300
v 275.622834065 16.7593090663 300
v 275.844928997 16.8100007853 300
v 276.062997458 16.8758943033 300
v 276.276000252 16.9566756076 300
v 276.482922323 17.0519597385 300
v 276.682777594 17.1612926238 300
v 276.874613664 17.2841532426 300
v 277.057516346 17.4199561079 300
v 277.230614026 17.5680540573 300
v 277.393081814 17.7277413366 300
v 277.544145477 17.8982569632 300
v 277.683085128 18.0787883525 300
v 277.809238657 18.2684751903 300
v 277.922004885 18.4664135323 300
v 278.020846428 18.6716601122 300
v 278.105292263 18.8832368365 300
v 278.174939965 19.100135446 300
v 278.229457633 19.3213223198 300
v 278.268585465 19.5457434019 300
v 278.292136999 19.7723292235 300
v 328.3 20 300
v 328.292136999 20.2276707765 300
v 328.268585465 20.4542565981 300
v 328.229457633 20.6786776802 300
v 328.174939965 20.899864554 300
v 328.105292263 21.1167631635 300
v 328.020846428 21.3283398878 300
v 327.922004885 21.5335864677 300
v 327.809238657 21.7315248097 300
v 327.683085128 21.9212116475 300
v 327.544145477 22.1017430368 300
v 327.393081814 22.2722586634 300
v 327.230614026 22.4319459427 300
v 327.057516346 22.5800438921 300
v 326.874613664 22.7158467574 300
v 326.682777594 22.8387073762 300
v 326.482922323 22.9480402615 300
v 326.276000252 23.0433243924 300
v 326.062997458 23.1241056967 300
v 325.844928997 23.1899992147 300
v 325.622834065 23.2406909337 300
v 325.397771045 23.2759392845 300
v 325.170812465 23.2955762928 300
v 324.943039885 23.2995083793 300
v 324.715538746 23.2877168058 300
v 324.489393195 23.2602577645 300
v 324.265680918 23.2172621102 300
v 324.045468006 23.1589347368 300
v 323.829803873 23.0855536009 300
v 323.619716257 22.9974683968 300
v 323.416206323 22.8950988909 300
v 323.220243886 22.7789329202 300
v 323.032762798 22.6495240687 300
v 322.854656491 22.5074890285 300
v 322.686773723 22.3535046611 300
v 322.529914531 22.1883047722 300
v 322.384826422 22.0126766145 300
v 322.252200805 21.8274571362 300
v 322.132669703 21.6335289924 300
v 322.026802736 21.4318163391 300
v 321.935104408 21.2232804288 300
v 321.858011702 21.0089150303 300
v 321.795892002 20.7897416921 300
v 321.749041336 20.5668048752 300
v 321.717682969 20.3411669749 300
v 321.701966336 20.1139032586 300
v 321.701966336 19.8860967414 300
v 321.717682969 19.6588330251 300
v 321.749041336 19.4331951248 300
v 321.795892002 19.2102583079 300
v 321.858011702 18.9910849697 300
v 321.935104408 18.7767195712 300
v 322.026802736 18.5681836609 300
v 322.132669703 18.3664710076 300
v 322.252200805 18.1725428638 300
v 322.384826422 17.9873233855 300
v 322.529914531 17.8116952278 300
v 322.686773723 17.6464953389 300
v 322.854656491 17.4925109715 300
v 323.032762798 17.3504759313 300
v 323.220243886 17.2210670798 300
v 323.416206323 17.1049011091 300
v 323.619716257 17.0025316032 300
v 323.829803873 16.9144463991 300
v 324.045468006 16.8410652632 300
v 324.265680918 16.7827378898 300
v 324.489393195 16.7397422355 300
v 324.715538746 16.7122831942 300
v 324.943039885 16.7004916207 300
v 325.170812465 16.7044237072 300
v 325.397771045 16.7240607155 300
v 325.622834065 16.7593090663 300
v 325.844928997 16.8100007853 300
v 326.062997458 16.8758943033 300
v 326.276000252 16.9566756076 300
v 326.482922323 17.0519597385 300
v 326.682777594 17.1612926238 300
v 326.874613664 17.2841532426 300
v 327.057516346 17.4199561079 300
v 327.230614026 17.5680540573 300
v 327.393081814 17.7277413366 300
v 327.544145477 17.8982569632 300
v 327.683085128 18.0787883525 300
v 327.809238657 18.2684751903 300
v 327.922004885 18.4664135323 300
v 328.020846428 18.6716601122 300
v 328.105292263 18.8832368365 300
v 328.174939965 19.100135446 300
v 328.229457633 19.3213223198 300
v 328.268585465 19.5457434019 300
v 328.292136999 19.7723292235 300
v 339.5 -29.5 381.954349062
v 339.5 29.5 381.954349062
v 278.3 -20 381.954349062
v 278.292136999 -19.7723292235 381.954349062
v 278.268585465 -19.5457434019 381.954349062
v 278.229457633 -19.3213223198 381.954349062
v 278.174939965 -19.100135446 381.954349062
v 278.105292263 -18.8832368365 381.954349062
v 278.020846428 -18.6716601122 381.954349062
v 277.922004885 -18.4664135323 381.954349062
v 277.809238657 -18.2684751903 381.954349062
v 277.683085128 -18.0787883525 381.954349062
v 277.544145477 -17.8982569632 381.954349062
v 277.393081814 -17.7277413366 381.954349062
v 277.230614026 -17.5680540573 381.954349062
v 277.057516346 -17.4199561079 381.954349062
v 276.874613664 -17.2841532426 381.954349062
v 276.682777594 -17.1612926238 381.954349062
v 276.482922323 -17.0519597385 381.954349062
v 276.276000252 -16.9566756076 381.954349062
v 276.062997458 -16.8758943033 381.954349062
v 275.844928997 -16.8100007853 381.954349062
v 275.622834065 -16.7593090663 381.954349062
v 275.397771045 -16.7240607155 381.954349062
v 275.170812465 -16.7044237072 381.954349062
v 274.943039885 -16.7004916207 381.954349062
v 274.715538746 -16.7122831942 381.954349062
v 274.489393195 -16.7397422355 381.954349062
v 274.265680918 -16.7827378898 381.954349062
v 274.045468006 -16.8410652632 381.954349062
v 273.829803873 -16.9144463991 381.954349062
v 273.619716257 -17.0025316032 381.954349062
v 273.416206323 -17.1049011091 381.954349062
v 273.220243886 -17.2210670798 381.954349062
v 273.032762798 -17.3504759313 381.954349062
v 272.854656491 -17.4925109715 381.954349062
v 272.686773723 -17.6464953389 381.954349062
v 272.529914531 -17.8116952278 381.954349062
v 272.384826422 -17.9873233855 381.954349062
v 272.252200805 -18.1725428638 381.954349062
v 272.132669703 -18.3664710076 381.954349062
v 272.026802736 -18.5681836609 381.954349062
v 271.935104408 -18.7767195712 381.954349062
v 271.858011702 -18.9910849697 381.954349062
v 271.795892002 -19.2102583079 381.954349062
v 271.749041336 -19.4331951248 381.954349062
v 271.717682969 -19.6588330251 381.954349062
v 271.701966336 -19.8860967414 381.954349062
v 271.701966336 -20.1139032586 381.954349062
v 271.717682969 -20.3411669749 381.954349062
v 271.749041336 -20.5668048752 381.954349062
v 271.795892002 -20.7897416921 381.954349062
v 271.858011702 -21.0089150303 381.954349062
v 271.935104408 -21.2232804288 381.954349062
v 272.026802736 -21.4318163391 381.954349062
v 272.132669703 -21.6335289924 381.954349062
v 272.252200805 -21.8274571362 381.954349062
v 272.384826422 -22.0126766145 381.954349062
v 272.529914531 -22.1883047722 381.954349062
v 272.686773723 -22.3535046611 381.954349062
v 272.854656491 -22.5074890285 381.954349062
v 273.032762798 -22.6495240687 381.954349062
v 273.220243886 -22.7789329202 381.954349062
v 273.416206323 -22.8950988909 381.954349062
v 273.619716257 -22.9974683968 381.954349062
v 273.829803873 -23.0855536009 381.954349062
v 274.045468006 -23.1589347368 381.954349062
v 274.265680918 -23.2172621102 381.954349062
v 274.489393195 -23.2602577645 381.954349062
v 274.715538746 -23.2877168058 381.954349062
v 274.943039885 -23.2995083793 381.954349062
v 275.170812465 -23.2955762928 381.954349062
v 275.397771045 -23.2759392845 381.954349062
v 275.622834065 -23.2406909337 381.954349062
v 275.844928997 -23.1899992147 381.954349062
v 276.062997458 -23.1241056967 381.954349062
v 276.276000252 -23.0433243924 381.954349062
v 276.482922323 -22.9480402615 381.954349062
v 276.682777594 -22.8387073762 381.954349062
v 276.874613664 -22.7158467574 381.954349062
v 277.057516346 -22.5800438921 381.954349062
v 277.230614026 -22.4319459427 381.954349062
v 277.393081814 -22.2722586634 381.954349062
v 277.544145477 -22.1017430368 381.954349062
v 277.683085128 -21.9212116475 381.954349062
v 277.809238657 -21.7315248097 381.954349062
v 277.922004885 -21.5335864677 381.954349062
v 278.020846428 -21.3283398878 381.954349062
v 278.105292263 -21.1167631635 381.954349062
v 278.174939965 -20.899864554 381.954349062
v 278.229457633 -20.6786776802 381.954349062
v 278.268585465 -20.4542565981 381.954349062
v 278.292136999 -20.2276707765 381.954349062
v 328.3 -20 381.954349062
v 328.292136999 -19.7723292235 381.954349062
v 328.268585465 -19.5457434019 381.954349062
v 328.229457633 -19.3213223198 381.954349062
v 328.174939965 -19.100135446 381.954349062
v 328.105292263 -18.8832368365 381.954349062
v 328.020846428 -18.6716601122 381.954349062
v 327.922004885 -18.4664135323 381.954349062
v 327.809238657 -18.2684751903 381.954349062
v 327.683085128 -18.0787883525 381.954349062
v 327.544145477 -17.8982569632 381.954349062
v 327.393081814 -17.7277413366 381.954349062
v 327.230614026 -17.5680540573 381.954349062
v 327.057516346 -17.4199561079 381.954349062
v 326.874613664 -17.2841532426 381.954349062
v 326.682777594 -17.1612926238 381.954349062
v 326.482922323 -17.0519597385 381.954349062
v 326.276000252 -16.9566756076 381.954349062
v 326.062997458 -16.8758943033 381.954349062
v 325.844928997 -16.8100007853 381.954349062
v 325.622834065 -16.7593090663 381.954349062
v 325.397771045 -16.7240607155 381.954349062
v 325.170812465 -16.7044237072 381.954349062
v 324.943039885 -16.7004916207 381.954349062
v 324.715538746 -16.7122831942 381.954349062
v 324.489393195 -16.7397422355 381.954349062
v 324.265680918 -16.7827378898 381.954349062
v 324.045468006 -16.8410652632 381.954349062
v 323.829803873 -16.9144463991 381.954349062
v 323.619716257 -17.0025316032 381.954349062
v 323.416206323 -17.1049011091 381.954349062
v 323.220243886 -17.2210670798 381.954349062
v 323.032762798 -17.3504759313 381.954349062
v 322.854656491 -17.4925109715 381.954349062
v 322.686773723 -17.6464953389 381.954349062
v 322.529914531 -17.8116952278 381.954349062
v 322.384826422 -17.9873233855 381.954349062
v 322.252200805 -18.1725428638 381.954349062
v 322.132669703 -18.3664710076 381.954349062
v 322.026802736 -18.5681836609 381.954349062
v 321.935104408 -18.7767195712 381.954349062
v 321.858011702 -18.9910849697 381.954349062
v 321.795892002 -19.2102583079 381.954349062
v 321.749041336 -19.4331951248 381.954349062
v 321.717682969 -19.6588330251 381.954349062
v 321.701966336 -19.8860967414 381.954349062
v 321.701966336 -20.1139032586 381.954349062
v 321.717682969 -20.3411669749 381.954349062
v 321.749041336 -20.5668048752 381.954349062
v 321.795892002 -20.7897416921 381.954349062
v 321.858011702 -21.0089150303 381.954349062
v 321.935104408 -21.2232804288 381.954349062
v 322.026802736 -21.4318163391 381.954349062
v 322.132669703 -21.6335289924 381.954349062
v 322.252200805 -21.8274571362 381.954349062
v 322.384826422 -22.0126766145 381.954349062
v 322.529914531 -22.1883047722 381.954349062
v 322.686773723 -22.3535046611 381.954349062
v 322.854656491 -22.5074890285 381.954349062
v 323.032762798 -22.6495240687 381.954349062
v 323.220243886 -22.7789329202 381.954349062
v 323.416206323 -22.8950988909 381.954349062
v 323.619716257 -22.9974683968 381.954349062
v 323.829803873 -23.0855536009 381.954349062
v 324.045468006 -23.1589347368 381.954349062
v 324.265680918 -23.2172621102 381.954349062
v 324.489393195 -23.2602577645 381.954349062
v 324.715538746 -23.2877168058 381.954349062
v 324.943039885 -23.2995083793 381.954349062
v 325.170812465 -23.2955762928 381.954349062
v 325.397771045 -23.2759392845 381.954349062
v 325.622834065 -23.2406909337 381.954349062
v 325.844928997 -23.1899992147 381.954349062
v 326.062997458 -23.1241056967 381.954349062
v 326.276000252 -23.0433243924 381.954349062
v 326.482922323 -22.9480402615 381.954349062
v 326.682777594 -22.8387073762 381.954349062
v 326.874613664 -22.7158467574 381.954349062
v 327.057516346 -22.5800438921 381.954349062
v 327.230614026 -22.4319459427 381.954349062
v 327.393081814 -22.2722586634 381.954349062
v 327.544145477 -22.1017430368 381.954349062
v 327.683085128 -21.9212116475 381.954349062
v 327.809238657 -21.7315248097 381.954349062
v 327.922004885 -21.5335864677 381.954349062
v 328.020846428 -21.3283398878 381.954349062
v 328.105292263 -21.1167631635 381.954349062
v 328.174939965 -20.899864554 381.954349062
v 328.229457633 -20.6786776802 381.954349062
v 328.268585465 -20.4542565981 381.954349062
v 328.292136999 -20.2276707765 381.954349062
v 278.3 20 381.954349062
v 278.292136999 20.2276707765 381.954349062
v 278.268585465 20.4542565981 381.954349062
v 278.229457633 20.6786776802 381.954349062
v 278.174939965 20.899864554 381.954349062
v 278.105292263 21.1167631635 381.954349062
v 278.020846428 21.3283398878 381.954349062
v 277.922004885 21.5335864677 381.954349062
v 277.809238657 21.7315248097 381.954349062
v 277.683085128 21.9212116475 381.954349062
v 277.544145477 22.1017430368 381.954349062
v 277.393081814 22.2722586634 381.954349062
v 277.230614026 22.4319459427 381.954349062
v 277.057516346 22.5800438921 381.954349062
v 276.874613664 22.7158467574 381.954349062
v 276.682777594 22.8387073762 381.954349062
v 276.482922323 22.9480402615 381.954349062
v 276.276000252 23.0433243924 381.954349062
v 276.062997458 23.1241056967 381.954349062
v 275.844928997 23.1899992147 381.954349062
v 275.622834065 23.2406909337 381.954349062
v 275.397771045 23.2759392845 381.954349062
v 275.170812465 23.2955762928 381.954349062
v 274.943039885 23.2995083793 381.954349062
v 274.715538746 23.2877168058 381.954349062
v 274.489393195 23.2602577645 381.954349062
v 274.265680918 23.2172621102 381.954349062
v 274.045468006 23.1589347368 381.954349062
v 273.829803873 23.0855536009 381.954349062
v 273.619716257 22.9974683968 381.954349062
v 273.416206323 22.8950988909 381.954349062
v 273.220243886 22.7789329202 381.954349062
v 273.032762798 22.6495240687 381.954349062
v 272.854656491 22.5074890285 381.954349062
v 272.686773723 22.3535046611 381.954349062
v 272.529914531 22.1883047722 381.954349062
v 272.384826422 22.0126766145 381.954349062
v 272.252200805 21.8274571362 381.954349062
v 272.132669703 21.6335289924 381.954349062
v 272.026802736 21.4318163391 381.954349062
v 271.935104408 21.2232804288 381.954349062
v 271.858011702 21.0089150303 381.954349062
v 271.795892002 20.7897416921 381.954349062
v 271.749041336 20.5668048752 381.954349062
v 271.717682969 20.3411669749 381.954349062
v 271.701966336 20.1139032586 381.954349062
v 271.701966336 19.8860967414 381.954349062
v 271.717682969 19.6588330251 381.954349062
v 271.749041336 19.4331951248 381.954349062
v 271.795892002 19.2102583079 381.954349062
v 271.858011702 18.9910849697 381.954349062
v 271.935104408 18.7767195712 381.954349062
v 272.026802736 18.5681836609 381.954349062
v 272.132669703 18.3664710076 381.954349062
v 272.252200805 18.1725428638 381.954349062
v 272.384826422 17.9873233855 381.954349062
v 272.529914531 17.8116952278 381.954349062
v 272.686773723 17.6464953389 381.954349062
v 272.854656491 17.4925109715 381.954349062
v 273.032762798 17.3504759313 381.954349062
v 273.220243886 17.2210670798 381.954349062
v 273.416206323 17.1049011091 381.954349062
v 273.619716257 17.0025316032 381.954349062
v 273.829803873 16.9144463991 381.954349062
v 274.045468006 16.8410652632 381.954349062
v 274.265680918 16.7827378898 381.954349062
v 274.489393195 16.7397422355 381.954349062
v 274.715538746 16.7122831942 381.954349062
v 274.943039885 16.7004916207 381.954349062
v 275.170812465 16.7044237072 381.954349062
v 275.397771045 16.7240607155 381.954349062
v 275.622834065 16.7593090663 381.954349062
v 275.844928997 16.8100007853 381.954349062
v 276.062997458 16.8758943033 381.954349062
v 276.276000252 16.9566756076 381.954349062
v 276.482922323 17.0519597385 381.954349062
v 276.682777594 17.1612926238 381.954349062
v 276.874613664 17.2841532426 381.954349062
v 277.057516346 17.4199561079 381.954349062
v 277.230614026 17.5680540573 381.954349062
v 277.393081814 17.7277413366 381.954349062
v 277.544145477 17.8982569632 381.954349062
v 277.683085128 18.0787883525 381.954349062
v 277.809238657 18.2684751903 381.954349062
v 277.922004885 18.4664135323 381.954349062
v 278.020846428 18.6716601122 381.954349062
v 278.105292263 18.8832368365 381.954349062
v 278.174939965 19.100135446 381.954349062
v 278.229457633 19.3213223198 381.954349062
v 278.268585465 19.5457434019 381.954349062
v 278.292136999 19.7723292235 381.954349062
v 328.3 20 381.954349062
v 328.292136999 20.2276707765 381.954349062
v 328.268585465 20.4542565981 381.954349062
v 328.229457633 20.6786776802 381.954349062
v 328.174939965 20.899864554 381.954349062
v 328.105292263 21.1167631635 381.954349062
v 328.020846428 21.3283398878 381.954349062
v 327.922004885 21.5335864677 381.954349062
v 327.809238657 21.7315248097 381.954349062
v 327.683085128 21.9212116475 381.954349062
v 327.544145477 22.1017430368 381.954349062
v 327.393081814 22.2722586634 381.954349062
v 327.230614026 22.4319459427 381.954349062
v 327.057516346 22.5800438921 381.954349062
v 326.874613664 22.7158467574 381.954349062
v 326.682777594 22.8387073762 381.954349062
v 326.482922323 22.9480402615 381.954349062
v 326.276000252 23.0433243924 381.954349062
v 326.062997458 23.1241056967 381.954349062
v 325.844928997 23.1899992147 381.954349062
v 325.622834065 23.2406909337 381.954349062
v 325.397771045 23.2759392845 381.954349062
v 325.170812465 23.2955762928 381.954349062
v 324.943039885 23.2995083793 381.954349062
v 324.715538746 23.2877168058 381.954349062
v 324.489393195 23.2602577645 381.954349062
v 324.265680918 23.2172621102 381.954349062
v 324.045468006 23.1589347368 381.954349062
v 323.829803873 23.0855536009 381.954349062
v 323.619716257 22.9974683968 381.954349062
v 323.416206323 22.8950988909 381.954349062
v 323.220243886 22.7789329202 381.954349062
v 323.032762798 22.6495240687 381.954349062
v 322.854656491 22.5074890285 381.954349062
v 322.686773723 22.3535046611 381.954349062
v 322.529914531 22.1883047722 381.954349062
v 322.384826422 22.0126766145 381.954349062
v 322.252200805 21.8274571362 381.954349062
v 322.132669703 21.6335289924 381.954349062
v 322.026802736 21.4318163391 381.954349062
v 321.935104408 21.2232804288 381.954349062
v 321.858011702 21.0089150303 381.954349062
v 321.795892002 20.7897416921 381.954349062
v 321.749041336 20.5668048752 381.954349062
v 321.717682969 20.3411669749 381.954349062
v 321.701966336 20.1139032586 381.954349062
v 321.701966336 19.8860967414 381.954349062
v 321.717682969 19.6588330251 381.954349062
v 321.749041336 19.4331951248 381.954349062
v 321.795892002 19.2102583079 381.954349062
v 321.858011702 18.9910849697 381.954349062
v 321.935104408 18.7767195712 381.954349062
v 322.026802736 18.5681836609 381.954349062
v 322.132669703 18.3664710076 381.954349062
v 322.252200805 18.1725428638 381.954349062
v 322.384826422 17.9873233855 381.954349062
v 322.529914531 17.8116952278 381.954349062
v 322.686773723 17.6464953389 381.954349062
v 322.854656491 17.4925109715 381.954349062
v 323.032762798 17.3504759313 381.954349062
v 323.220243886 17.2210670798 381.954349062
v 323.416206323 17.1049011091 381.954349062
v 323.619716257 17.0025316032 381.954349062
v 323.829803873 16.9144463991 381.954349062
v 324.045468006 16.8410652632 381.954349062
v 324.265680918 16.7827378898 381.954349062
v 324.489393195 16.7397422355 381.954349062
v 324.715538746 16.7122831942 381.954349062
v 324.943039885 16.7004916207 381.954349062
v 325.170812465 16.7044237072 381.954349062
v 325.397771045 16.7240607155 381.954349062
v 325.622834065 16.7593090663 381.954349062
v 325.844928997 16.8100007853 381.954349062
v 326.062997458 16.8758943033 381.954349062
v 326.276000252 16.9566756076 381.954349062
v 326.482922323 17.0519597385 381.954349062
v 326.682777594 17.1612926238 381.954349062
v 326.874613664 17.2841532426 381.954349062
v 327.057516346 17.4199561079 381.954349062
v 327.230614026 17.5680540573 381.954349062
v 327.393081814 17.7277413366 381.954349062
v 327.544145477 17.8982569632 381.954349062
v 327.683085128 18.0787883525 381.954349062
v 327.809238657 18.2684751903 381.954349062
v 327.922004885 18.4664135323 381.954349062
v 328.020846428 18.6716601122 381.954349062
v 328.105292263 18.8832368365 381.954349062
v 328.174939965 19.100135446 381.954349062
v 328.229457633 19.3213223198 381.954349062
v 328.268585465 19.5457434019 381.954349062
v 328.292136999 19.7723292235 381.954349062
v 339.5 30 381.454349062
v 339.5 30 300.5
v 340 -29.5 300.5
v 340 -29.5 381.454349062
v 340 29.5 300.5
v 340 29.5 381.454349062
f 2 3 1
f 2 4 3
f 2 1 6
f 5 2 6
f 8 7 1
f 8 1 3
f 10 2 9
f 10 4 2
f 4 12 3
f 11 12 4
f 6 1 7
f 5 9 2
f 5 6 14
f 13 5 14
f 73 74 7
f 75 7 74
f 72 73 7
f 76 7 75
f 71 72 7
f 77 7 76
f 70 71 7
f 78 7 77
f 69 70 7
f 79 7 78
f 68 69 7
f 80 7 79
f 67 68 7
f 81 7 80
f 66 67 7
f 82 7 81
f 65 66 7
f 83 7 82
f 64 65 7
f 84 7 83
f 63 64 7
f 85 7 84
f 62 63 7
f 86 7 85
f 61 62 7
f 87 7 86
f 60 61 7
f 88 7 87
f 59 60 7
f 89 7 88
f 58 59 7
f 57 58 7
f 56 57 7
f 55 56 7
f 54 55 7
f 255 256 51
f 255 51 52
f 255 52 53
f 257 51 256
f 257 50 51
f 254 53 54
f 254 255 53
f 258 50 257
f 258 49 50
f 253 7 8
f 253 254 54
f 253 54 7
f 259 48 49
f 259 49 258
f 252 253 8
f 260 48 259
f 260 47 48
f 251 252 8
f 261 47 260
f 261 45 46
f 261 46 47
f 250 251 8
f 262 45 261
f 249 250 8
f 263 43 44
f 263 44 45
f 263 45 262
f 248 249 8
f 264 43 263
f 247 248 8
f 265 42 43
f 265 43 264
f 246 247 8
f 266 41 42
f 266 42 265
f 245 246 8
f 267 40 41
f 267 41 266
f 244 245 8
f 268 39 40
f 268 40 267
f 243 244 8
f 269 38 39
f 269 39 268
f 242 243 8
f 270 37 38
f 270 38 269
f 241 242 8
f 271 37 270
f 271 36 37
f 240 241 8
f 272 36 271
f 272 35 36
f 239 240 8
f 273 34 35
f 273 35 272
f 238 239 8
f 274 34 273
f 274 32 33
f 274 33 34
f 237 238 8
f 275 31 32
f 275 32 274
f 236 237 8
f 276 30 31
f 276 31 275
f 235 236 8
f 277 29 30
f 277 30 276
f 234 235 8
f 278 29 277
f 233 234 8
f 279 28 29
f 279 29 278
f 232 233 8
f 280 28 279
f 280 27 28
f 231 232 8
f 230 231 8
f 229 230 8
f 228 229 8
f 227 228 8
f 226 227 8
f 225 226 8
f 224 225 8
f 223 224 8
f 222 223 8
f 221 222 8
f 220 221 8
f 219 220 8
f 165 96 97
f 164 165 97
f 164 97 98
f 166 96 165
f 166 95 96
f 163 164 98
f 163 98 99
f 167 95 166
f 167 94 95
f 162 163 99
f 162 99 100
f 168 94 167
f 168 93 94
f 161 162 100
f 161 100 101
f 169 93 168
f 169 92 93
f 160 161 101
f 160 101 102
f 170 92 169
f 170 91 92
f 159 160 102
f 159 102 103
f 171 91 170
f 171 90 91
f 158 159 103
f 158 103 104
f 172 7 89
f 172 90 171
f 172 89 90
f 157 158 104
f 157 104 105
f 156 157 105
f 156 105 106
f 155 156 106
f 155 106 107
f 154 155 107
f 154 107 17
f 153 17 18
f 153 154 17
f 152 18 19
f 152 153 18
f 151 19 20
f 151 152 19
f 150 20 21
f 150 151 20
f 149 21 22
f 149 150 21
f 148 22 23
f 148 149 22
f 147 23 24
f 147 148 23
f 146 24 25
f 146 147 24
f 145 146 25
f 145 25 26
f 144 145 26
f 144 26 27
f 15 113 114
f 15 114 115
f 15 115 116
f 15 7 172
f 15 172 173
f 15 173 174
f 15 174 175
f 15 175 176
f 15 176 177
f 15 177 178
f 15 178 179
f 15 179 180
f 15 180 181
f 15 181 182
f 15 182 183
f 15 183 184
f 15 184 185
f 15 185 186
f 15 186 187
f 15 187 188
f 15 188 189
f 15 189 190
f 15 190 191
f 15 191 192
f 15 192 193
f 15 193 194
f 15 194 195
f 15 195 196
f 15 196 197
f 15 197 198
f 15 198 108
f 15 108 109
f 15 109 110
f 15 110 111
f 15 111 112
f 15 112 113
f 347 141 142
f 346 142 143
f 346 143 144
f 346 347 142
f 348 141 347
f 345 27 280
f 345 346 144
f 345 280 281
f 345 144 27
f 349 140 141
f 349 141 348
f 344 345 281
f 344 281 282
f 350 138 139
f 350 139 140
f 350 140 349
f 343 344 282
f 343 282 283
f 351 138 350
f 342 343 283
f 342 283 284
f 352 136 137
f 352 137 138
f 352 138 351
f 341 342 284
f 341 284 285
f 353 135 136
f 353 136 352
f 340 285 286
f 340 341 285
f 354 135 353
f 339 340 286
f 339 286 287
f 355 134 135
f 355 135 354
f 338 339 287
f 338 287 288
f 356 133 134
f 356 134 355
f 337 288 289
f 337 338 288
f 357 132 133
f 357 133 356
f 336 337 289
f 336 289 199
f 358 131 132
f 358 132 357
f 335 336 199
f 335 199 200
f 359 130 131
f 359 131 358
f 334 335 200
f 334 200 201
f 360 129 130
f 360 130 359
f 333 334 201
f 333 201 202
f 361 128 129
f 361 129 360
f 332 333 202
f 332 202 203
f 362 126 127
f 362 127 128
f 362 128 361
f 331 332 203
f 331 203 204
f 363 126 362
f 330 331 204
f 330 204 205
f 364 125 126
f 364 126 363
f 329 330 205
f 329 205 206
f 365 124 125
f 365 125 364
f 328 329 206
f 328 206 207
f 366 122 123
f 366 123 124
f 366 124 365
f 327 328 207
f 327 207 208
f 367 122 366
f 326 327 208
f 326 208 209
f 368 122 367
f 368 120 121
f 368 121 122
f 325 326 209
f 325 209 210
f 369 120 368
f 324 325 210
f 324 210 211
f 370 119 120
f 370 120 369
f 323 324 211
f 323 211 212
f 371 117 118
f 371 118 119
f 371 119 370
f 322 323 212
f 322 212 213
f 372 116 117
f 372 117 371
f 321 322 213
f 321 213 214
f 373 15 116
f 373 116 372
f 320 321 214
f 16 315 316
f 16 15 373
f 16 373 374
f 16 374 375
f 16 375 376
f 16 376 377
f 16 377 378
f 16 378 379
f 16 379 380
f 16 380 290
f 16 290 291
f 16 291 292
f 16 292 293
f 16 293 294
f 16 294 295
f 16 295 296
f 16 296 297
f 16 297 298
f 16 298 299
f 16 299 300
f 16 300 301
f 16 301 302
f 16 302 303
f 16 303 304
f 16 304 305
f 16 305 306
f 16 306 307
f 16 307 308
f 16 308 309
f 16 309 310
f 16 310 311
f 16 311 312
f 16 312 313
f 16 313 314
f 16 314 315
f 16 219 8
f 16 218 219
f 16 217 218
f 16 216 217
f 16 215 216
f 16 214 215
f 16 316 214
f 316 317 214
f 317 318 214
f 318 319 214
f 319 320 214
f 12 8 3
f 439 9 440
f 441 440 9
f 438 9 439
f 442 441 9
f 437 9 438
f 443 442 9
f 436 9 437
f 444 443 9
f 435 9 436
f 445 444 9
f 434 9 435
f 446 445 9
f 433 9 434
f 447 446 9
f 432 9 433
f 448 447 9
f 431 9 432
f 449 448 9
f 430 9 431
f 450 449 9
f 429 9 430
f 451 450 9
f 428 9 429
f 452 451 9
f 427 9 428
f 453 452 9
f 426 9 427
f 454 453 9
f 425 9 426
f 455 454 9
f 424 9 425
f 423 9 424
f 422 9 423
f 421 9 422
f 420 9 421
f 621 417 622
f 621 418 417
f 621 419 418
f 623 622 417
f 623 417 416
f 620 420 419
f 620 419 621
f 624 623 416
f 624 416 415
f 619 10 9
f 619 420 620
f 619 9 420
f 625 415 414
f 625 624 415
f 618 10 619
f 626 625 414
f 626 414 413
f 617 10 618
f 627 626 413
f 627 412 411
f 627 413 412
f 616 10 617
f 628 627 411
f 615 10 616
f 629 410 409
f 629 411 410
f 629 628 411
f 614 10 615
f 630 629 409
f 613 10 614
f 631 409 408
f 631 630 409
f 612 10 613
f 632 408 407
f 632 631 408
f 611 10 612
f 633 407 406
f 633 632 407
f 610 10 611
f 634 406 405
f 634 633 406
f 609 10 610
f 635 405 404
f 635 634 405
f 608 10 609
f 636 404 403
f 636 635 404
f 607 10 608
f 637 636 403
f 637 403 402
f 606 10 607
f 638 637 402
f 638 402 401
f 605 10 606
f 639 401 400
f 639 638 401
f 604 10 605
f 640 639 400
f 640 399 398
f 640 400 399
f 603 10 604
f 641 398 397
f 641 640 398
f 602 10 603
f 642 397 396
f 642 641 397
f 601 10 602
f 643 396 395
f 643 642 396
f 600 10 601
f 644 643 395
f 599 10 600
f 645 395 394
f 645 644 395
f 598 10 599
f 646 645 394
f 646 394 393
f 597 10 598
f 596 10 597
f 595 10 596
f 594 10 595
f 593 10 594
f 592 10 593
f 591 10 592
f 590 10 591
f 589 10 590
f 588 10 589
f 587 10 588
f 586 10 587
f 585 10 586
f 531 463 462
f 530 463 531
f 530 464 463
f 532 531 462
f 532 462 461
f 529 464 530
f 529 465 464
f 533 532 461
f 533 461 460
f 528 465 529
f 528 466 465
f 534 533 460
f 534 460 459
f 527 466 528
f 527 467 466
f 535 534 459
f 535 459 458
f 526 467 527
f 526 468 467
f 536 535 458
f 536 458 457
f 525 468 526
f 525 469 468
f 537 536 457
f 537 457 456
f 524 469 525
f 524 470 469
f 538 455 9
f 538 537 456
f 538 456 455
f 523 470 524
f 523 471 470
f 522 471 523
f 522 472 471
f 521 472 522
f 521 473 472
f 520 473 521
f 520 383 473
f 519 384 383
f 519 383 520
f 518 385 384
f 518 384 519
f 517 386 385
f 517 385 518
f 516 387 386
f 516 386 517
f 515 388 387
f 515 387 516
f 514 389 388
f 514 388 515
f 513 390 389
f 513 389 514
f 512 391 390
f 512 390 513
f 511 391 512
f 511 392 391
f 510 392 511
f 510 393 392
f 381 480 479
f 381 481 480
f 381 482 481
f 381 538 9
f 381 539 538
f 381 540 539
f 381 541 540
f 381 542 541
f 381 543 542
f 381 544 543
f 381 545 544
f 381 546 545
f 381 547 546
f 381 548 547
f 381 549 548
f 381 550 549
f 381 551 550
f 381 552 551
f 381 553 552
f 381 554 553
f 381 555 554
f 381 556 555
f 381 557 556
f 381 558 557
f 381 559 558
f 381 560 559
f 381 561 560
f 381 562 561
f 381 563 562
f 381 564 563
f 381 474 564
f 381 475 474
f 381 476 475
f 381 477 476
f 381 478 477
f 381 479 478
f 713 508 507
f 712 509 508
f 712 510 509
f 712 508 713
f 714 713 507
f 711 646 393
f 711 510 712
f 711 647 646
f 711 393 510
f 715 507 506
f 715 714 507
f 710 647 711
f 710 648 647
f 716 505 504
f 716 506 505
f 716 715 506
f 709 648 710
f 709 649 648
f 717 716 504
f 708 649 709
f 708 650 649
f 718 503 502
f 718 504 503
f 718 717 504
f 707 650 708
f 707 651 650
f 719 502 501
f 719 718 502
f 706 652 651
f 706 651 707
f 720 719 501
f 705 652 706
f 705 653 652
f 721 501 500
f 721 720 501
f 704 653 705
f 704 654 653
f 722 500 499
f 722 721 500
f 703 655 654
f 703 654 704
f 723 499 498
f 723 722 499
f 702 655 703
f 702 565 655
f 724 498 497
f 724 723 498
f 701 565 702
f 701 566 565
f 725 497 496
f 725 724 497
f 700 566 701
f 700 567 566
f 726 496 495
f 726 725 496
f 699 567 700
f 699 568 567
f 727 495 494
f 727 726 495
f 698 568 699
f 698 569 568
f 728 493 492
f 728 494 493
f 728 727 494
f 697 569 698
f 697 570 569
f 729 728 492
f 696 570 697
f 696 571 570
f 730 492 491
f 730 729 492
f 695 571 696
f 695 572 571
f 731 491 490
f 731 730 491
f 694 572 695
f 694 573 572
f 732 489 488
f 732 490 489
f 732 731 490
f 693 573 694
f 693 574 573
f 733 732 488
f 692 574 693
f 692 575 574
f 734 733 488
f 734 487 486
f 734 488 487
f 691 575 692
f 691 576 575
f 735 734 486
f 690 576 691
f 690 577 576
f 736 486 485
f 736 735 486
f 689 577 690
f 689 578 577
f 737 484 483
f 737 485 484
f 737 736 485
f 688 578 689
f 688 579 578
f 738 483 482
f 738 737 483
f 687 579 688
f 687 580 579
f 739 482 381
f 739 738 482
f 686 580 687
f 382 682 681
f 382 739 381
f 382 740 739
f 382 741 740
f 382 742 741
f 382 743 742
f 382 744 743
f 382 745 744
f 382 746 745
f 382 656 746
f 382 657 656
f 382 658 657
f 382 659 658
f 382 660 659
f 382 661 660
f 382 662 661
f 382 663 662
f 382 664 663
f 382 665 664
f 382 666 665
f 382 667 666
f 382 668 667
f 382 669 668
f 382 670 669
f 382 671 670
f 382 672 671
f 382 673 672
f 382 674 673
f 382 675 674
f 382 676 675
f 382 677 676
f 382 678 677
f 382 679 678
f 382 680 679
f 382 681 680
f 382 10 585
f 382 585 584
f 382 584 583
f 382 583 582
f 382 582 581
f 382 581 580
f 382 580 682
f 682 580 683
f 683 580 684
f 684 580 685
f 685 580 686
f 10 11 4
f 11 748 12
f 747 748 11
f 15 6 7
f 15 14 6
f 381 9 5
f 381 5 13
f 13 749 750
f 13 14 749
f 16 8 12
f 16 12 748
f 16 749 15
f 16 751 749
f 384 17 383
f 384 18 17
f 384 19 18
f 385 20 19
f 385 19 384
f 386 20 385
f 387 20 386
f 387 21 20
f 387 22 21
f 388 22 387
f 388 23 22
f 389 23 388
f 389 24 23
f 390 24 389
f 390 25 24
f 391 25 390
f 392 26 25
f 392 25 391
f 393 27 26
f 393 28 27
f 393 26 392
f 394 28 393
f 395 29 28
f 395 30 29
f 395 28 394
f 396 30 395
f 397 31 30
f 397 32 31
f 397 30 396
f 398 32 397
f 399 33 32
f 399 32 398
f 400 34 33
f 400 33 399
f 401 35 34
f 401 36 35
f 401 34 400
f 402 36 401
f 403 37 36
f 403 38 37
f 403 36 402
f 404 38 403
f 405 39 38
f 405 38 404
f 406 40 39
f 406 39 405
f 407 41 40
f 407 42 41
f 407 40 406
f 408 42 407
f 409 43 42
f 409 42 408
f 410 44 43
f 410 43 409
f 411 45 44
f 411 46 45
f 411 44 410
f 412 46 411
f 413 46 412
f 413 47 46
f 414 47 413
f 414 48 47
f 415 48 414
f 415 49 48
f 416 49 415
f 416 50 49
f 417 50 416
f 417 51 50
f 418 52 51
f 418 51 417
f 419 53 52
f 419 52 418
f 420 54 53
f 420 55 54
f 420 53 419
f 421 55 420
f 422 55 421
f 422 56 55
f 423 57 56
f 423 58 57
f 423 56 422
f 424 58 423
f 425 59 58
f 425 58 424
f 426 60 59
f 426 61 60
f 426 59 425
f 427 61 426
f 428 62 61
f 428 63 62
f 428 61 427
f 429 63 428
f 430 64 63
f 430 65 64
f 430 63 429
f 431 66 65
f 431 65 430
f 432 66 431
f 433 67 66
f 433 66 432
f 434 68 67
f 434 67 433
f 435 69 68
f 435 68 434
f 436 70 69
f 436 69 435
f 437 71 70
f 437 72 71
f 437 70 436
f 438 72 437
f 439 72 438
f 439 73 72
f 439 74 73
f 440 74 439
f 441 74 440
f 441 75 74
f 442 75 441
f 442 76 75
f 442 77 76
f 443 77 442
f 444 77 443
f 444 78 77
f 444 79 78
f 445 79 444
f 446 79 445
f 446 80 79
f 447 80 446
f 447 81 80
f 448 81 447
f 448 82 81
f 449 82 448
f 449 83 82
f 450 83 449
f 450 84 83
f 451 84 450
f 451 85 84
f 452 85 451
f 452 86 85
f 452 87 86
f 453 87 452
f 454 88 87
f 454 87 453
f 455 89 88
f 455 88 454
f 456 90 89
f 456 91 90
f 456 89 455
f 457 91 456
f 458 92 91
f 458 93 92
f 458 91 457
f 459 93 458
f 460 94 93
f 460 95 94
f 460 93 459
f 461 95 460
f 462 95 461
f 462 96 95
f 463 96 462
f 463 97 96
f 463 98 97
f 464 98 463
f 465 98 464
f 465 99 98
f 465 100 99
f 466 100 465
f 467 100 466
f 467 101 100
f 468 101 467
f 468 102 101
f 469 102 468
f 469 103 102
f 469 104 103
f 470 104 469
f 470 105 104
f 471 105 470
f 472 105 471
f 472 106 105
f 473 106 472
f 473 107 106
f 383 107 473
f 383 17 107
f 475 108 474
f 475 109 108
f 475 110 109
f 476 111 110
f 476 110 475
f 477 111 476
f 478 111 477
f 478 112 111
f 478 113 112
f 479 113 478
f 479 114 113
f 480 114 479
f 480 115 114
f 481 115 480
f 481 116 115
f 482 116 481
f 483 117 116
f 483 116 482
f 484 118 117
f 484 119 118
f 484 117 483
f 485 119 484
f 486 120 119
f 486 121 120
f 486 119 485
f 487 121 486
f 488 122 121
f 488 123 122
f 488 121 487
f 489 123 488
f 490 124 123
f 490 123 489
f 491 125 124
f 491 124 490
f 492 126 125
f 492 127 126
f 492 125 491
f 493 127 492
f 494 128 127
f 494 129 128
f 494 127 493
f 495 129 494
f 496 130 129
f 496 129 495
f 497 131 130
f 497 130 496
f 498 132 131
f 498 133 132
f 498 131 497
f 499 133 498
f 500 134 133
f 500 133 499
f 501 135 134
f 501 134 500
f 502 136 135
f 502 137 136
f 502 135 501
f 503 137 502
f 504 137 503
f 504 138 137
f 505 138 504
f 505 139 138
f 506 139 505
f 506 140 139
f 507 140 506
f 507 141 140
f 508 141 507
f 508 142 141
f 509 143 142
f 509 142 508
f 510 144 143
f 510 143 509
f 511 145 144
f 511 146 145
f 511 144 510
f 512 146 511
f 513 146 512
f 513 147 146
f 514 148 147
f 514 149 148
f 514 147 513
f 515 149 514
f 516 150 149
f 516 149 515
f 517 151 150
f 517 152 151
f 517 150 516
f 518 152 517
f 519 153 152
f 519 154 153
f 519 152 518
f 520 154 519
f 521 155 154
f 521 156 155
f 521 154 520
f 522 157 156
f 522 156 521
f 523 157 522
f 524 158 157
f 524 157 523
f 525 159 158
f 525 158 524
f 526 160 159
f 526 159 525
f 527 161 160
f 527 160 526
f 528 162 161
f 528 163 162
f 528 161 527
f 529 163 528
f 530 163 529
f 530 164 163
f 530 165 164
f 531 165 530
f 532 165 531
f 532 166 165
f 533 166 532
f 533 167 166
f 533 168 167
f 534 168 533
f 535 168 534
f 535 169 168
f 535 170 169
f 536 170 535
f 537 170 536
f 537 171 170
f 538 171 537
f 538 172 171
f 539 172 538
f 539 173 172
f 540 173 539
f 540 174 173
f 541 174 540
f 541 175 174
f 542 175 541
f 542 176 175
f 543 176 542
f 543 177 176
f 543 178 177
f 544 178 543
f 545 179 178
f 545 178 544
f 546 180 179
f 546 179 545
f 547 181 180
f 547 182 181
f 547 180 546
f 548 182 547
f 549 183 182
f 549 184 183
f 549 182 548
f 550 184 549
f 551 185 184
f 551 186 185
f 551 184 550
f 552 186 551
f 553 186 552
f 553 187 186
f 554 187 553
f 554 188 187
f 554 189 188
f 555 189 554
f 556 189 555
f 556 190 189
f 556 191 190
f 557 191 556
f 558 191 557
f 558 192 191
f 559 192 558
f 559 193 192
f 560 193 559
f 560 194 193
f 560 195 194
f 561 195 560
f 561 196 195
f 562 196 561
f 563 196 562
f 563 197 196
f 564 197 563
f 564 198 197
f 474 198 564
f 474 108 198
f 566 199 565
f 566 200 199
f 566 201 200
f 567 202 201
f 567 201 566
f 568 202 567
f 569 202 568
f 569 203 202
f 569 204 203
f 570 204 569
f 570 205 204
f 571 205 570
f 571 206 205
f 572 206 571
f 572 207 206
f 573 207 572
f 574 208 207
f 574 207 573
f 575 209 208
f 575 210 209
f 575 208 574
f 576 210 575
f 577 211 210
f 577 212 211
f 577 210 576
f 578 212 577
f 579 213 212
f 579 214 213
f 579 212 578
f 580 214 579
f 581 215 214
f 581 214 580
f 582 216 215
f 582 215 581
f 583 217 216
f 583 218 217
f 583 216 582
f 584 218 583
f 585 219 218
f 585 220 219
f 585 218 584
f 586 220 585
f 587 221 220
f 587 220 586
f 588 222 221
f 588 221 587
f 589 223 222
f 589 224 223
f 589 222 588
f 590 224 589
f 591 225 224
f 591 224 590
f 592 226 225
f 592 225 591
f 593 227 226
f 593 228 227
f 593 226 592
f 594 228 593
f 595 228 594
f 595 229 228
f 596 229 595
f 596 230 229
f 597 230 596
f 597 231 230
f 598 231 597
f 598 232 231
f 599 232 598
f 599 233 232
f 600 234 233
f 600 233 599
f 601 235 234
f 601 234 600
f 602 236 235
f 602 237 236
f 602 235 601
f 603 237 602
f 604 237 603
f 604 238 237
f 605 239 238
f 605 240 239
f 605 238 604
f 606 240 605
f 607 241 240
f 607 240 606
f 608 242 241
f 608 243 242
f 608 241 607
f 609 243 608
f 610 244 243
f 610 245 244
f 610 243 609
f 611 245 610
f 612 246 245
f 612 247 246
f 612 245 611
f 613 248 247
f 613 247 612
f 614 248 613
f 615 249 248
f 615 248 614
f 616 250 249
f 616 249 615
f 617 251 250
f 617 250 616
f 618 252 251
f 618 251 617
f 619 253 252
f 619 254 253
f 619 252 618
f 620 254 619
f 621 254 620
f 621 255 254
f 621 256 255
f 622 256 621
f 623 256 622
f 623 257 256
f 624 257 623
f 624 258 257
f 624 259 258
f 625 259 624
f 626 259 625
f 626 260 259
f 626 261 260
f 627 261 626
f 628 261 627
f 628 262 261
f 629 262 628
f 629 263 262
f 630 263 629
f 630 264 263
f 631 264 630
f 631 265 264
f 632 265 631
f 632 266 265
f 633 266 632
f 633 267 266
f 634 267 633
f 634 268 267
f 634 269 268
f 635 269 634
f 636 270 269
f 636 269 635
f 637 271 270
f 637 270 636
f 638 272 271
f 638 273 272
f 638 271 637
f 639 273 638
f 640 274 273
f 640 275 274
f 640 273 639
f 641 275 640
f 642 276 275
f 642 277 276
f 642 275 641
f 643 277 642
f 644 277 643
f 644 278 277
f 645 278 644
f 645 279 278
f 645 280 279
f 646 280 645
f 647 280 646
f 647 281 280
f 647 282 281
f 648 282 647
f 649 282 648
f 649 283 282
f 650 283 649
f 650 284 283
f 651 284 650
f 651 285 284
f 651 286 285
f 652 286 651
f 652 287 286
f 653 287 652
f 654 287 653
f 654 288 287
f 655 288 654
f 655 289 288
f 565 289 655
f 565 199 289
f 657 290 656
f 657 291 290
f 657 292 291
f 658 293 292
f 658 292 657
f 659 293 658
f 660 293 659
f 660 294 293
f 660 295 294
f 661 295 660
f 661 296 295
f 662 296 661
f 662 297 296
f 663 297 662
f 663 298 297
f 664 298 663
f 665 299 298
f 665 298 664
f 666 300 299
f 666 301 300
f 666 299 665
f 667 301 666
f 668 302 301
f 668 303 302
f 668 301 667
f 669 303 668
f 670 304 303
f 670 305 304
f 670 303 669
f 671 305 670
f 672 306 305
f 672 305 671
f 673 307 306
f 673 306 672
f 674 308 307
f 674 309 308
f 674 307 673
f 675 309 674
f 676 310 309
f 676 311 310
f 676 309 675
f 677 311 676
f 678 312 311
f 678 311 677
f 679 313 312
f 679 312 678
f 680 314 313
f 680 315 314
f 680 313 679
f 681 315 680
f 682 316 315
f 682 315 681
f 683 317 316
f 683 316 682
f 684 318 317
f 684 319 318
f 684 317 683
f 685 319 684
f 686 319 685
f 686 320 319
f 687 320 686
f 687 321 320
f 688 321 687
f 688 322 321
f 689 322 688
f 689 323 322
f 690 323 689
f 690 324 323
f 691 325 324
f 691 324 690
f 692 326 325
f 692 325 691
f 693 327 326
f 693 328 327
f 693 326 692
f 694 328 693
f 695 328 694
f 695 329 328
f 696 330 329
f 696 331 330
f 696 329 695
f 697 331 696
f 698 332 331
f 698 331 697
f 699 333 332
f 699 334 333
f 699 332 698
f 700 334 699
f 701 335 334
f 701 336 335
f 701 334 700
f 702 336 701
f 703 337 336
f 703 338 337
f 703 336 702
f 704 339 338
f 704 338 703
f 705 339 704
f 706 340 339
f 706 339 705
f 707 341 340
f 707 340 706
f 708 342 341
f 708 341 707
f 709 343 342
f 709 342 708
f 710 344 343
f 710 345 344
f 710 343 709
f 711 345 710
f 712 345 711
f 712 346 345
f 712 347 346
f 713 347 712
f 714 347 713
f 714 348 347
f 715 348 714
f 715 349 348
f 715 350 349
f 716 350 715
f 717 350 716
f 717 351 350
f 717 352 351
f 718 352 717
f 719 352 718
f 719 353 352
f 720 353 719
f 720 354 353
f 721 354 720
f 721 355 354
f 722 355 721
f 722 356 355
f 723 356 722
f 723 357 356
f 724 357 723
f 724 358 357
f 725 358 724
f 725 359 358
f 725 360 359
f 726 360 725
f 727 361 360
f 727 360 726
f 728 362 361
f 728 361 727
f 729 363 362
f 729 364 363
f 729 362 728
f 730 364 729
f 731 365 364
f 731 366 365
f 731 364 730
f 732 366 731
f 733 367 366
f 733 368 367
f 733 366 732
f 734 368 733
f 735 368 734
f 735 369 368
f 736 369 735
f 736 370 369
f 736 371 370
f 737 371 736
f 738 371 737
f 738 372 371
f 738 373 372
f 739 373 738
f 740 373 739
f 740 374 373
f 741 374 740
f 741 375 374
f 742 375 741
f 742 376 375
f 742 377 376
f 743 377 742
f 743 378 377
f 744 378 743
f 745 378 744
f 745 379 378
f 746 379 745
f 746 380 379
f 656 380 746
f 656 290 380
f 382 11 10
f 382 747 11
f 382 381 750
f 382 750 752
f 752 751 748
f 747 752 748
f 14 15 749
f 13 750 381
f 750 749 751
f 750 751 752
f 748 751 16
f 382 752 747
