# SimpleCAD BREP tessellation for MuJoCo
v 5.75 -1.40834381902e-15 0
v 5.73629931573 0.396699080325 0
v 5.69526255293 0.791507708876 0
v 5.62708527045 1.18254444274 0
v 5.5320923641 1.56794581381 0
v 5.41073651833 1.94587520904 0
v 5.26359604902 2.31453162275 0
v 5.09137214751 2.67215823925 0
v 4.89488553911 3.01705080484 0
v 4.675072572 3.34756574939 0
v 4.43298075507 3.66212801868 0
v 4.16976376607 3.95923858022 0
v 3.88667595383 4.23748156691 0
v 3.58506636069 4.49553102419 0
v 3.2663722937 4.73215722889 0
v 2.93211247524 4.94623254938 0
v 2.58387980556 5.13673681927 0
v 2.22333377191 5.30276219896 0
v 1.85219254034 5.4435175019 0
v 1.47222476783 5.55833196499 0
v 1.08524117385 5.64665844501 0
v 0.693085911468 5.70807602606 0
v 0.297627779084 5.74229202541 0
v -0.099248685206 5.74914338823 0
v -0.495652184314 5.72859746467 0
v -0.889693675044 5.68075216539 0
v -1.27949537025 5.60583549505 0
v -1.66319968734 5.50420446568 0
v -2.03897810049 5.37634339544 0
v -2.40503985446 5.22286160055 0
v -2.75964049827 5.04449049165 0
v -3.10109019837 4.84208008831 0
v -3.42776179145 4.61659496827 0
v -3.7380985386 4.36910967083 0
v -4.03062154389 4.10080357613 0
v -4.30393680198 3.81295528488 0
v -4.55674184122 3.5069365253 0
v -4.78783193045 3.18420561612 0
v -4.99610582017 2.84630051711 0
v -5.18057099044 2.49483149993 0
v -5.34034838072 2.13147347451 0
v -5.47467657899 1.75795800732 0
v -5.5829154502 1.37606506965 0
v -5.66454918685 0.987614555275 0
v -5.719188767 0.594457607783 0
v -5.74657380817 0.198467799076 0
v -5.74657380817 -0.198467799076 0
v -5.719188767 -0.594457607783 0
v -5.66454918685 -0.987614555275 0
v -5.5829154502 -1.37606506965 0
v -5.47467657899 -1.75795800732 0
v -5.34034838072 -2.13147347451 0
v -5.18057099044 -2.49483149993 0
v -4.99610582017 -2.84630051711 0
v -4.78783193045 -3.18420561612 0
v -4.55674184122 -3.5069365253 0
v -4.30393680198 -3.81295528488 0
v -4.03062154389 -4.10080357613 0
v -3.7380985386 -4.36910967083 0
v -3.42776179145 -4.61659496827 0
v -3.10109019837 -4.84208008831 0
v -2.75964049827 -5.04449049165 0
v -2.40503985446 -5.22286160055 0
v -2.03897810049 -5.37634339544 0
v -1.66319968734 -5.50420446568 0
v -1.27949537025 -5.60583549505 0
v -0.889693675044 -5.68075216539 0
v -0.495652184314 -5.72859746467 0
v -0.099248685206 -5.74914338823 0
v 0.297627779084 -5.74229202541 0
v 0.693085911468 -5.70807602606 0
v 1.08524117385 -5.64665844501 0
v 1.47222476783 -5.55833196499 0
v 1.85219254034 -5.4435175019 0
v 2.22333377191 -5.30276219896 0
v 2.58387980556 -5.13673681927 0
v 2.93211247524 -4.94623254938 0
v 3.2663722937 -4.73215722889 0
v 3.58506636069 -4.49553102419 0
v 3.88667595383 -4.23748156691 0
v 4.16976376607 -3.95923858022 0
v 4.43298075507 -3.66212801868 0
v 4.675072572 -3.34756574939 0
v 4.89488553911 -3.01705080484 0
v 5.09137214751 -2.67215823925 0
v 5.26359604902 -2.31453162275 0
v 5.41073651833 -1.94587520904 0
v 5.5320923641 -1.56794581381 0
v 5.62708527045 -1.18254444274 0
v 5.69526255293 -0.791507708876 0
v 5.73629931573 -0.396699080325 0
v 1.35 -3.3065463577e-16 0
v 1.34678331761 0.0931380449458 0
v 1.33714859938 0.185832244693 0
v 1.32114175915 0.277640869166 0
v 1.29883907679 0.368126408461 0
v 1.27034683474 0.456857657775 0
v 1.23580081151 0.543411772299 0
v 1.19536563463 0.627376282259 0
v 1.14923399614 0.708351058529 0
v 1.0976257343 0.785950219423 0
v 1.04078678597 0.859803969602 0
v 0.978988014644 0.929560362313 0
v 0.912523919595 0.994886976579 0
v 0.841711232509 1.05547250133 0
v 0.766887408087 1.11102821896 0
v 0.688409015927 1.16128938116 0
v 0.606650041306 1.20601647061 0
v 0.522000102971 1.24499634236 0
v 0.434862596428 1.27804323958 0
v 0.345652771578 1.30499967874 0
v 0.254795753861 1.32573720013 0
v 0.162724518345 1.34015698003 0
v 0.0698778263937 1.34819030162 0
v -0.0233018652223 1.34979888246 0
v -0.116370512839 1.34497505692 0
v -0.208884601967 1.33374181274 0
v -0.300403260841 1.31615268145 0
v -0.390490361374 1.29229148325 0
v -0.478716597507 1.26227192763 0
v -0.564661531047 1.22623707143 0
v -0.647915595246 1.18435863717 0
v -0.728082046574 1.13683619465 0
v -0.804778855383 1.08389620994 0
v -0.877640526453 1.0257909662 0
v -0.946319840738 0.962797361351 0
v -1.01048951003 0.895215588625 0
v -1.06984373663 0.82336770594 0
v -1.12409967063 0.747596101177 0
v -1.17299875778 0.668261860538 0
v -1.21630797167 0.585743047809 0
v -1.25382092417 0.500432902711 0
v -1.28535884898 0.412737966936 0
v -1.31077145353 0.323076146788 0
v -1.32993763517 0.231874721673 0
v -1.34276605834 0.139568307914 0
v -1.34919558974 0.0465967876091 0
v -1.34919558974 -0.0465967876091 0
v -1.34276605834 -0.139568307914 0
v -1.32993763517 -0.231874721673 0
v -1.31077145353 -0.323076146788 0
v -1.28535884898 -0.412737966936 0
v -1.25382092417 -0.500432902711 0
v -1.21630797167 -0.585743047809 0
v -1.17299875778 -0.668261860538 0
v -1.12409967063 -0.747596101177 0
v -1.06984373663 -0.82336770594 0
v -1.01048951003 -0.895215588625 0
v -0.946319840738 -0.962797361351 0
v -0.877640526453 -1.0257909662 0
v -0.804778855383 -1.08389620994 0
v -0.728082046574 -1.13683619465 0
v -0.647915595246 -1.18435863717 0
v -0.564661531047 -1.22623707143 0
v -0.478716597507 -1.26227192763 0
v -0.390490361374 -1.29229148325 0
v -0.300403260841 -1.31615268145 0
v -0.208884601967 -1.33374181274 0
v -0.116370512839 -1.34497505692 0
v -0.0233018652223 -1.34979888246 0
v 0.0698778263937 -1.34819030162 0
v 0.162724518345 -1.34015698003 0
v 0.254795753861 -1.32573720013 0
v 0.345652771578 -1.30499967874 0
v 0.434862596428 -1.27804323958 0
v 0.522000102971 -1.24499634236 0
v 0.606650041306 -1.20601647061 0
v 0.688409015927 -1.16128938116 0
v 0.766887408087 -1.11102821896 0
v 0.841711232509 -1.05547250133 0
v 0.912523919595 -0.994886976579 0
v 0.978988014644 -0.929560362313 0
v 1.04078678597 -0.859803969602 0
v 1.0976257343 -0.785950219423 0
v 1.14923399614 -0.708351058529 0
v 1.19536563463 -0.627376282259 0
v 1.23580081151 -0.543411772299 0
v 1.27034683474 -0.456857657775 0
v 1.29883907679 -0.368126408461 0
v 1.32114175915 -0.277640869166 0
v 1.33714859938 -0.185832244693 0
v 1.34678331761 -0.0931380449458 0
v 2.9 -7.10295143505e-16 -2.85
v 3.6125 -8.84807312384e-16 -2.1375
v 4.325 -1.05931948126e-15 -1.425
v 5.0375 -1.23383165014e-15 -0.7125
v 2.89309008967 0.200074318773 -2.85
v 2.87239328756 0.399195192303 -2.85
v 2.83800822336 0.596413718949 -2.85
v 2.79009875755 0.79079006262 -2.85
v 2.72889320055 0.981397931518 -2.85
v 2.65468322472 1.16732899235 -2.85
v 2.56782247439 1.34769719893 -2.85
v 2.46872488059 1.52164301462 -2.85
v 2.35786268849 1.68833750839 -2.85
v 2.23576420691 1.84698630507 -2.85
v 2.10301129072 1.9968333709 -2.85
v 1.96023656802 2.13716461635 -2.85
v 1.80812042539 2.26731129916 -2.85
v 1.64738776552 2.38665321109 -2.85
v 1.47880455273 2.4946216336 -2.85
v 1.3031741628 2.59070204798 -2.85
v 1.12133355453 2.6744365873 -2.85
v 0.934149281216 2.74542621835 -2.85
v 0.742513361167 2.80333264321 -2.85
v 0.547339026813 2.84787991139 -2.85
v 0.34955637274 2.87885573488 -2.85
v 0.150107923364 2.89611249977 -2.85
v -0.0500558586256 2.89956796972 -2.85
v -0.249981101654 2.88920567783 -2.85
v -0.448715070892 2.86507500515 -2.85
v -0.645310708473 2.82729094533 -2.85
v -0.838831146656 2.77603355661 -2.85
v -1.02835417242 2.71154710379 -2.85
v -1.21297662225 2.63413889419 -2.85
v -1.39181868608 2.54417781318 -2.85
v -1.56402810005 2.44209256628 -2.85
v -1.72878420786 2.32836963617 -2.85
v -1.88530187164 2.20355096442 -2.85
v -2.03283521344 2.06823136883 -2.85
v -2.1706811697 1.9230557089 -2.85
v -2.29818284166 1.76871581276 -2.85
v -2.41473262579 1.60594718031 -2.85
v -2.5197751093 1.43552547819 -2.85
v -2.61280971692 1.25826284344 -2.85
v -2.69339309636 1.07500401323 -2.85
v -2.76114123114 0.886622299343 -2.85
v -2.81573127054 0.694015426434 -2.85
v -2.85690306815 0.498101253965 -2.85
v -2.88446042162 0.299813402186 -2.85
v -2.8982720076 0.100096803012 -2.85
v -2.8982720076 -0.100096803012 -2.85
v -2.88446042162 -0.299813402186 -2.85
v -2.85690306815 -0.498101253965 -2.85
v -2.81573127054 -0.694015426434 -2.85
v -2.76114123114 -0.886622299343 -2.85
v -2.69339309636 -1.07500401323 -2.85
v -2.61280971692 -1.25826284344 -2.85
v -2.5197751093 -1.43552547819 -2.85
v -2.41473262579 -1.60594718031 -2.85
v -2.29818284166 -1.76871581276 -2.85
v -2.1706811697 -1.9230557089 -2.85
v -2.03283521344 -2.06823136883 -2.85
v -1.88530187164 -2.20355096442 -2.85
v -1.72878420786 -2.32836963617 -2.85
v -1.56402810005 -2.44209256628 -2.85
v -1.39181868608 -2.54417781318 -2.85
v -1.21297662225 -2.63413889419 -2.85
v -1.02835417242 -2.71154710379 -2.85
v -0.838831146656 -2.77603355661 -2.85
v -0.645310708473 -2.82729094533 -2.85
v -0.448715070892 -2.86507500515 -2.85
v -0.249981101654 -2.88920567783 -2.85
v -0.0500558586256 -2.89956796972 -2.85
v 0.150107923364 -2.89611249977 -2.85
v 0.34955637274 -2.87885573488 -2.85
v 0.547339026813 -2.84787991139 -2.85
v 0.742513361167 -2.80333264321 -2.85
v 0.934149281216 -2.74542621835 -2.85
v 1.12133355453 -2.6744365873 -2.85
v 1.3031741628 -2.59070204798 -2.85
v 1.47880455273 -2.4946216336 -2.85
v 1.64738776552 -2.38665321109 -2.85
v 1.80812042539 -2.26731129916 -2.85
v 1.96023656802 -2.13716461635 -2.85
v 2.10301129072 -1.9968333709 -2.85
v 2.23576420691 -1.84698630507 -2.85
v 2.35786268849 -1.68833750839 -2.85
v 2.46872488059 -1.52164301462 -2.85
v 2.56782247439 -1.34769719893 -2.85
v 2.65468322472 -1.16732899235 -2.85
v 2.72889320055 -0.981397931518 -2.85
v 2.79009875755 -0.79079006262 -2.85
v 2.83800822336 -0.596413718949 -2.85
v 2.87239328756 -0.399195192303 -2.85
v 2.89309008967 -0.200074318773 -2.85
v 2.46572322988 -2.64014492095 -2.1375
v 2.08325766364 -2.9513037385 -2.1375
v 1.68695604631 -4.74663939517 -0.7125
v 1.02490966575 -4.9321360917 -0.7125
v 1.44835432264 -4.07527848816 -1.425
v 2.49414239315 -3.53339478727 -1.425
v 1.98978128819 -3.84010356959 -1.425
v 1.6619849488 -3.20748535148 -2.1375
v 2.80225703767 -2.27980519888 -2.1375
v 2.31757762757 -4.4727217877 -0.7125
v 2.95204234442 -3.1608655455 -1.425
v 3.08659009892 -1.8769970195 -2.1375
v 2.90502712265 -4.11548583604 -0.7125
v 3.3549513323 -2.72945535921 -1.425
v 3.31342582669 -1.43922393707 -2.1375
v 3.43836145896 -3.68158617005 -0.7125
v 3.69536392466 -2.2472005839 -1.425
v 3.47853870054 -0.974640835805 -2.1375
v 3.90764562692 -3.17910551954 -0.7125
v 3.96693887901 -1.72308471358 -1.425
v 3.57885298006 -0.49190201986 -2.1375
v 4.3041377504 -2.6174041483 -0.7125
v 4.16461726778 -1.16687103525 -1.425
v 4.62045193133 -2.0069454901 -0.7125
v 4.28471671661 -0.588920757341 -1.425
v 4.85069583501 -1.3591012347 -0.7125
v 4.99058045316 -0.685939494822 -0.7125
v 3.57885298006 0.49190201986 -2.1375
v 3.47853870054 0.974640835805 -2.1375
v 4.28471671661 0.588920757341 -1.425
v 3.31342582669 1.43922393707 -2.1375
v 4.16461726778 1.16687103525 -1.425
v 3.08659009892 1.8769970195 -2.1375
v 4.99058045316 0.685939494822 -0.7125
v 3.96693887901 1.72308471358 -1.425
v 2.80225703767 2.27980519888 -2.1375
v 4.85069583501 1.3591012347 -0.7125
v 3.69536392466 2.2472005839 -1.425
v 2.46572322988 2.64014492095 -2.1375
v 4.62045193133 2.0069454901 -0.7125
v 3.3549513323 2.72945535921 -1.425
v 2.08325766364 2.9513037385 -2.1375
v 4.3041377504 2.6174041483 -0.7125
v 2.95204234442 3.1608655455 -1.425
v 1.6619849488 3.20748535148 -2.1375
v 3.90764562692 3.17910551954 -0.7125
v 2.49414239315 3.53339478727 -1.425
v 1.20975259897 3.40391758115 -2.1375
v 3.43836145896 3.68158617005 -0.7125
v 1.98978128819 3.84010356959 -1.425
v 0.734984847153 3.53694126675 -2.1375
v 2.90502712265 4.11548583604 -0.7125
v 1.44835432264 4.07527848816 -1.425
v 0.24652571828 3.6040784287 -2.1375
v 2.31757762757 4.4727217877 -0.7125
v 0.879947256453 4.23453867923 -1.425
v -0.24652571828 3.6040784287 -2.1375
v 1.68695604631 4.74663939517 -0.7125
v 0.295148437802 4.31491742675 -1.425
v -0.734984847153 3.53694126675 -2.1375
v 1.02490966575 4.9321360917 -0.7125
v -0.295148437802 4.31491742675 -1.425
v -1.20975259897 3.40391758115 -2.1375
v 0.343771157325 5.0257564248 -0.7125
v -0.879947256453 4.23453867923 -1.425
v -1.6619849488 3.20748535148 -2.1375
v -0.343771157325 5.0257564248 -0.7125
v -1.44835432264 4.07527848816 -1.425
v -2.08325766364 2.9513037385 -2.1375
v -1.02490966575 4.9321360917 -0.7125
v -1.98978128819 3.84010356959 -1.425
v -2.46572322988 2.64014492095 -2.1375
v -1.68695604631 4.74663939517 -0.7125
v -2.49414239315 3.53339478727 -1.425
v -2.80225703767 2.27980519888 -2.1375
v -2.31757762757 4.4727217877 -0.7125
v -2.95204234442 3.1608655455 -1.425
v -3.08659009892 1.8769970195 -2.1375
v -2.90502712265 4.11548583604 -0.7125
v -3.3549513323 2.72945535921 -1.425
v -3.31342582669 1.43922393707 -2.1375
v -3.43836145896 3.68158617005 -0.7125
v -3.69536392466 2.2472005839 -1.425
v -3.47853870054 0.974640835805 -2.1375
v -3.90764562692 3.17910551954 -0.7125
v -3.96693887901 1.72308471358 -1.425
v -3.57885298006 0.49190201986 -2.1375
v -4.3041377504 2.6174041483 -0.7125
v -4.16461726778 1.16687103525 -1.425
v -3.6125 3.65094819736e-15 -2.1375
v -4.62045193133 2.0069454901 -0.7125
v -4.28471671661 0.588920757341 -1.425
v -3.57885298006 -0.49190201986 -2.1375
v -4.85069583501 1.3591012347 -0.7125
v -4.325 4.37103140583e-15 -1.425
v -3.47853870054 -0.974640835805 -2.1375
v -4.99058045316 0.685939494822 -0.7125
v -4.28471671661 -0.588920757341 -1.425
v -3.31342582669 -1.43922393707 -2.1375
v -5.0375 5.09111461431e-15 -0.7125
v -4.16461726778 -1.16687103525 -1.425
v -3.08659009892 -1.8769970195 -2.1375
v -4.99058045316 -0.685939494822 -0.7125
v -3.96693887901 -1.72308471358 -1.425
v -2.80225703767 -2.27980519888 -2.1375
v -4.85069583501 -1.3591012347 -0.7125
v -3.69536392466 -2.2472005839 -1.425
v -2.46572322988 -2.64014492095 -2.1375
v -4.62045193133 -2.0069454901 -0.7125
v -3.3549513323 -2.72945535921 -1.425
v -2.08325766364 -2.9513037385 -2.1375
v -4.3041377504 -2.6174041483 -0.7125
v -2.95204234442 -3.1608655455 -1.425
v -1.6619849488 -3.20748535148 -2.1375
v -3.90764562692 -3.17910551954 -0.7125
v -2.49414239315 -3.53339478727 -1.425
v -1.20975259897 -3.40391758115 -2.1375
v -3.43836145896 -3.68158617005 -0.7125
v -1.98978128819 -3.84010356959 -1.425
v -0.734984847153 -3.53694126675 -2.1375
v -2.90502712265 -4.11548583604 -0.7125
v -1.44835432264 -4.07527848816 -1.425
v -0.24652571828 -3.6040784287 -2.1375
v -2.31757762757 -4.4727217877 -0.7125
v -0.879947256453 -4.23453867923 -1.425
v 0.24652571828 -3.6040784287 -2.1375
v -1.68695604631 -4.74663939517 -0.7125
v -0.295148437802 -4.31491742675 -1.425
v 0.734984847153 -3.53694126675 -2.1375
v -1.02490966575 -4.9321360917 -0.7125
v 0.295148437802 -4.31491742675 -1.425
v 1.20975259897 -3.40391758115 -2.1375
v -0.343771157325 -5.0257564248 -0.7125
v 0.879947256453 -4.23453867923 -1.425
v 0.343771157325 -5.0257564248 -0.7125
v 1.35 -3.3065463577e-16 -2
v 1.34678331761 0.0931380449458 -2
v 1.33714859938 0.185832244693 -2
v 1.32114175915 0.277640869166 -2
v 1.29883907679 0.368126408461 -2
v 1.27034683474 0.456857657775 -2
v 1.23580081151 0.543411772299 -2
v 1.19536563463 0.627376282259 -2
v 1.14923399614 0.708351058529 -2
v 1.0976257343 0.785950219423 -2
v 1.04078678597 0.859803969602 -2
v 0.978988014644 0.929560362313 -2
v 0.912523919595 0.994886976579 -2
v 0.841711232509 1.05547250133 -2
v 0.766887408087 1.11102821896 -2
v 0.688409015927 1.16128938116 -2
v 0.606650041306 1.20601647061 -2
v 0.522000102971 1.24499634236 -2
v 0.434862596428 1.27804323958 -2
v 0.345652771578 1.30499967874 -2
v 0.254795753861 1.32573720013 -2
v 0.162724518345 1.34015698003 -2
v 0.0698778263937 1.34819030162 -2
v -0.0233018652223 1.34979888246 -2
v -0.116370512839 1.34497505692 -2
v -0.208884601967 1.33374181274 -2
v -0.300403260841 1.31615268145 -2
v -0.390490361374 1.29229148325 -2
v -0.478716597507 1.26227192763 -2
v -0.564661531047 1.22623707143 -2
v -0.647915595246 1.18435863717 -2
v -0.728082046574 1.13683619465 -2
v -0.804778855383 1.08389620994 -2
v -0.877640526453 1.0257909662 -2
v -0.946319840738 0.962797361351 -2
v -1.01048951003 0.895215588625 -2
v -1.06984373663 0.82336770594 -2
v -1.12409967063 0.747596101177 -2
v -1.17299875778 0.668261860538 -2
v -1.21630797167 0.585743047809 -2
v -1.25382092417 0.500432902711 -2
v -1.28535884898 0.412737966936 -2
v -1.31077145353 0.323076146788 -2
v -1.32993763517 0.231874721673 -2
v -1.34276605834 0.139568307914 -2
v -1.34919558974 0.0465967876091 -2
v -1.34919558974 -0.0465967876091 -2
v -1.34276605834 -0.139568307914 -2
v -1.32993763517 -0.231874721673 -2
v -1.31077145353 -0.323076146788 -2
v -1.28535884898 -0.412737966936 -2
v -1.25382092417 -0.500432902711 -2
v -1.21630797167 -0.585743047809 -2
v -1.17299875778 -0.668261860538 -2
v -1.12409967063 -0.747596101177 -2
v -1.06984373663 -0.82336770594 -2
v -1.01048951003 -0.895215588625 -2
v -0.946319840738 -0.962797361351 -2
v -0.877640526453 -1.0257909662 -2
v -0.804778855383 -1.08389620994 -2
v -0.728082046574 -1.13683619465 -2
v -0.647915595246 -1.18435863717 -2
v -0.564661531047 -1.22623707143 -2
v -0.478716597507 -1.26227192763 -2
v -0.390490361374 -1.29229148325 -2
v -0.300403260841 -1.31615268145 -2
v -0.208884601967 -1.33374181274 -2
v -0.116370512839 -1.34497505692 -2
v -0.0233018652223 -1.34979888246 -2
v 0.0698778263937 -1.34819030162 -2
v 0.162724518345 -1.34015698003 -2
v 0.254795753861 -1.32573720013 -2
v 0.345652771578 -1.30499967874 -2
v 0.434862596428 -1.27804323958 -2
v 0.522000102971 -1.24499634236 -2
v 0.606650041306 -1.20601647061 -2
v 0.688409015927 -1.16128938116 -2
v 0.766887408087 -1.11102821896 -2
v 0.841711232509 -1.05547250133 -2
v 0.912523919595 -0.994886976579 -2
v 0.978988014644 -0.929560362313 -2
v 1.04078678597 -0.859803969602 -2
v 1.0976257343 -0.785950219423 -2
v 1.14923399614 -0.708351058529 -2
v 1.19536563463 -0.627376282259 -2
v 1.23580081151 -0.543411772299 -2
v 1.27034683474 -0.456857657775 -2
v 1.29883907679 -0.368126408461 -2
v 1.32114175915 -0.277640869166 -2
v 1.33714859938 -0.185832244693 -2
v 1.34678331761 -0.0931380449458 -2
v 2.9 -7.10295143505e-16 -18
v 2.89309008967 0.200074318773 -18
v 2.87239328756 0.399195192303 -18
v 2.83800822336 0.596413718949 -18
v 2.79009875755 0.79079006262 -18
v 2.72889320055 0.981397931518 -18
v 2.65468322472 1.16732899235 -18
v 2.56782247439 1.34769719893 -18
v 2.46872488059 1.52164301462 -18
v 2.35786268849 1.68833750839 -18
v 2.23576420691 1.84698630507 -18
v 2.10301129072 1.9968333709 -18
v 1.96023656802 2.13716461635 -18
v 1.80812042539 2.26731129916 -18
v 1.64738776552 2.38665321109 -18
v 1.47880455273 2.4946216336 -18
v 1.3031741628 2.59070204798 -18
v 1.12133355453 2.6744365873 -18
v 0.934149281216 2.74542621835 -18
v 0.742513361167 2.80333264321 -18
v 0.547339026813 2.84787991139 -18
v 0.34955637274 2.87885573488 -18
v 0.150107923364 2.89611249977 -18
v -0.0500558586256 2.89956796972 -18
v -0.249981101654 2.88920567783 -18
v -0.448715070892 2.86507500515 -18
v -0.645310708473 2.82729094533 -18
v -0.838831146656 2.77603355661 -18
v -1.02835417242 2.71154710379 -18
v -1.21297662225 2.63413889419 -18
v -1.39181868608 2.54417781318 -18
v -1.56402810005 2.44209256628 -18
v -1.72878420786 2.32836963617 -18
v -1.88530187164 2.20355096442 -18
v -2.03283521344 2.06823136883 -18
v -2.1706811697 1.9230557089 -18
v -2.29818284166 1.76871581276 -18
v -2.41473262579 1.60594718031 -18
v -2.5197751093 1.43552547819 -18
v -2.61280971692 1.25826284344 -18
v -2.69339309636 1.07500401323 -18
v -2.76114123114 0.886622299343 -18
v -2.81573127054 0.694015426434 -18
v -2.85690306815 0.498101253965 -18
v -2.88446042162 0.299813402186 -18
v -2.8982720076 0.100096803012 -18
v -2.8982720076 -0.100096803012 -18
v -2.88446042162 -0.299813402186 -18
v -2.85690306815 -0.498101253965 -18
v -2.81573127054 -0.694015426434 -18
v -2.76114123114 -0.886622299343 -18
v -2.69339309636 -1.07500401323 -18
v -2.61280971692 -1.25826284344 -18
v -2.5197751093 -1.43552547819 -18
v -2.41473262579 -1.60594718031 -18
v -2.29818284166 -1.76871581276 -18
v -2.1706811697 -1.9230557089 -18
v -2.03283521344 -2.06823136883 -18
v -1.88530187164 -2.20355096442 -18
v -1.72878420786 -2.32836963617 -18
v -1.56402810005 -2.44209256628 -18
v -1.39181868608 -2.54417781318 -18
v -1.21297662225 -2.63413889419 -18
v -1.02835417242 -2.71154710379 -18
v -0.838831146656 -2.77603355661 -18
v -0.645310708473 -2.82729094533 -18
v -0.448715070892 -2.86507500515 -18
v -0.249981101654 -2.88920567783 -18
v -0.0500558586256 -2.89956796972 -18
v 0.150107923364 -2.89611249977 -18
v 0.34955637274 -2.87885573488 -18
v 0.547339026813 -2.84787991139 -18
v 0.742513361167 -2.80333264321 -18
v 0.934149281216 -2.74542621835 -18
v 1.12133355453 -2.6744365873 -18
v 1.3031741628 -2.59070204798 -18
v 1.47880455273 -2.4946216336 -18
v 1.64738776552 -2.38665321109 -18
v 1.80812042539 -2.26731129916 -18
v 1.96023656802 -2.13716461635 -18
v 2.10301129072 -1.9968333709 -18
v 2.23576420691 -1.84698630507 -18
v 2.35786268849 -1.68833750839 -18
v 2.46872488059 -1.52164301462 -18
v 2.56782247439 -1.34769719893 -18
v 2.65468322472 -1.16732899235 -18
v 2.72889320055 -0.981397931518 -18
v 2.79009875755 -0.79079006262 -18
v 2.83800822336 -0.596413718949 -18
v 2.87239328756 -0.399195192303 -18
v 2.89309008967 -0.200074318773 -18
f 148 58 149
f 148 57 58
f 150 149 58
f 150 58 59
f 147 56 57
f 147 57 148
f 151 59 60
f 151 150 59
f 146 54 55
f 146 55 56
f 146 56 147
f 152 60 61
f 152 151 60
f 145 54 146
f 153 61 62
f 153 152 61
f 144 53 54
f 144 54 145
f 154 153 62
f 154 62 63
f 143 52 53
f 143 53 144
f 155 63 64
f 155 154 63
f 142 52 143
f 142 51 52
f 156 155 64
f 156 64 65
f 141 51 142
f 141 50 51
f 157 156 65
f 157 65 66
f 140 50 141
f 140 49 50
f 158 66 67
f 158 157 66
f 139 48 49
f 139 49 140
f 159 158 67
f 159 67 68
f 138 47 48
f 138 48 139
f 160 159 68
f 160 68 69
f 137 46 47
f 137 47 138
f 161 160 69
f 161 69 70
f 136 45 46
f 136 46 137
f 162 70 71
f 162 161 70
f 135 45 136
f 135 44 45
f 163 162 71
f 163 71 72
f 134 44 135
f 134 43 44
f 164 72 73
f 164 163 72
f 133 43 134
f 133 41 42
f 133 42 43
f 165 73 74
f 165 164 73
f 132 41 133
f 166 165 74
f 166 74 75
f 131 41 132
f 131 40 41
f 167 166 75
f 167 75 76
f 130 40 131
f 130 39 40
f 168 167 76
f 168 76 77
f 168 77 78
f 129 38 39
f 129 39 130
f 169 168 78
f 128 36 37
f 128 38 129
f 128 37 38
f 170 169 78
f 170 78 79
f 127 36 128
f 171 170 79
f 171 79 80
f 126 36 127
f 35 36 126
f 81 171 80
f 81 172 171
f 34 126 125
f 34 35 126
f 82 173 172
f 82 172 81
f 33 125 124
f 33 34 125
f 83 173 82
f 83 174 173
f 32 33 124
f 32 124 123
f 84 174 83
f 84 175 174
f 31 123 122
f 31 32 123
f 85 175 84
f 85 176 175
f 30 121 120
f 30 122 121
f 30 31 122
f 86 176 85
f 86 177 176
f 29 30 120
f 87 177 86
f 87 178 177
f 28 120 119
f 28 29 120
f 88 178 87
f 88 179 178
f 27 118 117
f 27 119 118
f 27 28 119
f 89 180 179
f 89 179 88
f 26 117 116
f 26 27 117
f 90 181 180
f 90 180 89
f 25 26 116
f 91 182 181
f 91 92 182
f 91 181 90
f 24 116 115
f 24 25 116
f 1 92 91
f 23 24 115
f 23 114 113
f 23 115 114
f 2 93 92
f 2 94 93
f 2 92 1
f 22 113 112
f 22 23 113
f 3 94 2
f 21 22 112
f 4 94 3
f 4 95 94
f 20 112 111
f 20 21 112
f 5 95 4
f 5 96 95
f 19 110 109
f 19 111 110
f 19 20 111
f 6 96 5
f 6 97 96
f 18 19 109
f 7 97 6
f 7 98 97
f 17 109 108
f 17 18 109
f 8 98 7
f 8 99 98
f 16 17 108
f 16 108 107
f 9 99 8
f 9 100 99
f 9 101 100
f 15 107 106
f 15 16 107
f 10 101 9
f 14 106 105
f 14 15 106
f 11 102 101
f 11 101 10
f 13 104 103
f 13 105 104
f 13 14 105
f 12 103 102
f 12 102 11
f 12 13 103
f 277 278 264
f 277 264 265
f 277 265 266
f 279 73 280
f 279 280 281
f 279 74 73
f 279 75 74
f 282 278 277
f 282 283 284
f 184 183 187
f 282 284 278
f 285 277 266
f 285 266 267
f 285 267 268
f 286 281 283
f 286 279 281
f 286 75 279
f 286 76 75
f 286 77 76
f 287 282 277
f 288 285 268
f 288 268 269
f 288 269 270
f 289 283 282
f 289 77 286
f 289 78 77
f 289 79 78
f 289 286 283
f 290 277 285
f 290 287 277
f 291 288 270
f 291 270 271
f 291 271 272
f 292 79 289
f 292 289 282
f 292 282 287
f 292 287 290
f 292 80 79
f 292 81 80
f 293 290 285
f 2 1 186
f 293 285 288
f 294 291 272
f 294 272 273
f 294 273 274
f 295 292 290
f 295 81 292
f 295 82 81
f 295 83 82
f 296 293 288
f 296 288 291
f 297 276 184
f 297 294 274
f 297 274 275
f 297 275 276
f 298 295 290
f 298 83 295
f 298 293 296
f 298 84 83
f 298 85 84
f 298 290 293
f 299 296 291
f 299 291 294
f 300 296 299
f 300 298 296
f 300 85 298
f 300 86 85
f 300 87 86
f 301 294 297
f 301 299 294
f 301 297 184
f 301 184 185
f 302 300 299
f 302 87 300
f 302 88 87
f 302 89 88
f 303 299 301
f 303 186 91
f 303 302 299
f 303 301 185
f 303 89 302
f 303 185 186
f 303 90 89
f 303 91 90
f 184 276 183
f 1 91 186
f 304 184 187
f 304 187 188
f 304 188 189
f 305 304 189
f 305 189 190
f 305 190 191
f 306 184 304
f 306 185 184
f 307 191 192
f 307 192 193
f 307 305 191
f 308 304 305
f 308 306 304
f 309 193 194
f 309 194 195
f 309 307 193
f 310 3 2
f 310 4 3
f 310 2 186
f 310 185 306
f 310 186 185
f 311 305 307
f 311 308 305
f 312 195 196
f 312 196 197
f 312 309 195
f 313 5 4
f 313 6 5
f 313 4 310
f 313 310 306
f 313 306 308
f 314 311 307
f 314 307 309
f 315 197 198
f 315 198 199
f 315 312 197
f 316 7 6
f 316 8 7
f 316 6 313
f 316 313 308
f 316 308 311
f 317 312 315
f 317 314 309
f 317 309 312
f 318 199 200
f 318 200 201
f 318 315 199
f 319 9 8
f 319 10 9
f 319 8 316
f 319 311 314
f 319 316 311
f 320 317 315
f 321 201 202
f 321 202 203
f 321 318 201
f 322 10 319
f 322 11 10
f 322 12 11
f 322 314 317
f 322 319 314
f 323 320 315
f 323 315 318
f 324 203 204
f 324 321 203
f 324 204 205
f 325 322 317
f 325 317 320
f 325 13 12
f 325 14 13
f 325 12 322
f 326 318 321
f 326 323 318
f 327 205 206
f 327 206 207
f 327 324 205
f 328 15 14
f 328 16 15
f 328 14 325
f 328 320 323
f 328 325 320
f 329 321 324
f 329 326 321
f 330 207 208
f 330 208 209
f 330 327 207
f 331 17 16
f 331 18 17
f 331 16 328
f 331 323 326
f 331 328 323
f 332 329 324
f 332 324 327
f 332 327 330
f 333 209 210
f 333 210 211
f 333 330 209
f 334 19 18
f 334 20 19
f 334 326 329
f 334 331 326
f 334 18 331
f 335 332 330
f 336 211 212
f 336 212 213
f 336 333 211
f 337 20 334
f 337 329 332
f 337 21 20
f 337 22 21
f 337 334 329
f 338 335 330
f 338 330 333
f 339 213 214
f 339 214 215
f 339 336 213
f 340 332 335
f 340 23 22
f 340 24 23
f 340 22 337
f 340 337 332
f 341 333 336
f 341 338 333
f 342 215 216
f 342 216 217
f 342 339 215
f 343 335 338
f 343 340 335
f 343 25 24
f 343 26 25
f 343 24 340
f 344 341 336
f 344 336 339
f 345 217 218
f 345 218 219
f 345 342 217
f 346 338 341
f 346 27 26
f 346 28 27
f 346 26 343
f 346 341 344
f 346 343 338
f 347 344 339
f 347 339 342
f 348 219 220
f 348 220 221
f 348 345 219
f 349 29 28
f 349 30 29
f 349 28 346
f 349 346 344
f 350 342 345
f 350 347 342
f 351 348 221
f 351 221 222
f 351 222 223
f 352 344 347
f 352 31 30
f 352 32 31
f 352 347 350
f 352 30 349
f 352 349 344
f 353 350 345
f 353 345 348
f 353 348 351
f 354 223 224
f 354 224 225
f 354 351 223
f 355 33 32
f 355 34 33
f 355 352 350
f 355 32 352
f 356 353 351
f 357 225 226
f 357 226 227
f 357 354 225
f 358 350 353
f 358 35 34
f 358 36 35
f 358 355 350
f 358 34 355
f 359 356 351
f 359 351 354
f 360 357 227
f 360 227 228
f 360 228 229
f 361 353 356
f 361 358 353
f 361 37 36
f 361 38 37
f 361 36 358
f 362 357 360
f 362 354 357
f 362 359 354
f 363 229 230
f 363 230 231
f 363 360 229
f 364 39 38
f 364 40 39
f 364 359 362
f 364 356 359
f 364 361 356
f 364 38 361
f 365 360 363
f 365 362 360
f 366 231 232
f 366 363 231
f 367 41 40
f 367 42 41
f 367 40 364
f 367 364 362
f 368 365 363
f 369 366 232
f 369 232 233
f 369 233 234
f 370 362 365
f 370 42 367
f 370 367 362
f 370 43 42
f 370 44 43
f 370 365 368
f 371 363 366
f 371 368 363
f 372 369 234
f 372 234 235
f 372 235 236
f 373 45 44
f 373 46 45
f 373 44 370
f 373 370 368
f 374 366 369
f 374 371 366
f 375 236 237
f 375 237 238
f 375 372 236
f 376 46 373
f 376 47 46
f 376 368 371
f 376 373 368
f 377 374 369
f 377 369 372
f 378 375 238
f 378 238 239
f 378 239 240
f 379 48 47
f 379 49 48
f 379 47 376
f 379 371 374
f 379 376 371
f 380 372 375
f 380 377 372
f 381 378 240
f 381 240 241
f 381 241 242
f 382 377 380
f 382 49 379
f 382 50 49
f 382 51 50
f 382 374 377
f 382 379 374
f 383 380 375
f 383 375 378
f 384 381 242
f 384 242 243
f 384 243 244
f 385 382 380
f 385 52 51
f 385 53 52
f 385 51 382
f 386 378 381
f 386 383 378
f 387 384 244
f 387 244 245
f 387 245 246
f 388 53 385
f 388 54 53
f 388 380 383
f 388 55 54
f 388 385 380
f 389 386 381
f 389 381 384
f 389 384 387
f 390 246 247
f 390 247 248
f 390 387 246
f 391 383 386
f 391 388 383
f 391 55 388
f 391 56 55
f 391 57 56
f 392 389 387
f 393 248 249
f 393 249 250
f 393 390 248
f 394 391 386
f 394 386 389
f 394 57 391
f 394 58 57
f 394 59 58
f 395 387 390
f 395 392 387
f 396 250 251
f 396 251 252
f 396 393 250
f 397 394 389
f 397 59 394
f 397 60 59
f 397 61 60
f 397 389 392
f 398 390 393
f 398 395 390
f 399 396 252
f 399 252 253
f 399 253 254
f 400 395 398
f 400 392 395
f 400 397 392
f 400 61 397
f 400 62 61
f 400 63 62
f 401 398 393
f 401 396 399
f 401 393 396
f 402 399 254
f 402 254 255
f 402 255 256
f 403 400 398
f 403 63 400
f 403 64 63
f 403 65 64
f 404 401 399
f 405 402 256
f 405 256 257
f 405 257 258
f 406 398 401
f 406 403 398
f 406 66 65
f 406 67 66
f 406 65 403
f 407 404 399
f 407 399 402
f 408 405 258
f 408 258 259
f 408 259 260
f 409 401 404
f 409 406 401
f 409 68 67
f 409 69 68
f 409 67 406
f 410 402 405
f 410 407 402
f 284 408 260
f 284 260 261
f 284 261 262
f 411 404 407
f 411 70 69
f 411 71 70
f 411 409 404
f 411 69 409
f 281 405 408
f 281 410 405
f 278 284 262
f 278 262 263
f 278 263 264
f 280 410 281
f 280 407 410
f 280 72 71
f 280 71 411
f 280 73 72
f 280 411 407
f 283 281 408
f 283 408 284
f 93 412 92
f 93 413 412
f 94 414 413
f 94 413 93
f 95 415 414
f 95 414 94
f 96 415 95
f 96 416 415
f 97 416 96
f 97 417 416
f 97 418 417
f 98 418 97
f 99 418 98
f 99 419 418
f 100 419 99
f 100 420 419
f 101 421 420
f 101 420 100
f 102 422 421
f 102 421 101
f 103 423 422
f 103 422 102
f 104 424 423
f 104 423 103
f 105 425 424
f 105 424 104
f 106 426 425
f 106 425 105
f 107 427 426
f 107 426 106
f 108 428 427
f 108 427 107
f 109 429 428
f 109 428 108
f 110 430 429
f 110 429 109
f 111 431 430
f 111 430 110
f 112 432 431
f 112 431 111
f 113 433 432
f 113 432 112
f 114 434 433
f 114 433 113
f 115 435 434
f 115 434 114
f 116 436 435
f 116 435 115
f 117 437 436
f 117 436 116
f 118 438 437
f 118 437 117
f 119 439 438
f 119 438 118
f 120 440 439
f 120 439 119
f 121 440 120
f 121 441 440
f 121 442 441
f 122 442 121
f 123 442 122
f 123 443 442
f 123 444 443
f 124 444 123
f 125 444 124
f 125 445 444
f 126 445 125
f 126 446 445
f 127 447 446
f 127 448 447
f 127 446 126
f 128 448 127
f 129 449 448
f 129 448 128
f 130 450 449
f 130 451 450
f 130 449 129
f 131 451 130
f 132 452 451
f 132 451 131
f 133 453 452
f 133 454 453
f 133 452 132
f 134 454 133
f 135 455 454
f 135 454 134
f 136 456 455
f 136 457 456
f 136 455 135
f 137 457 136
f 138 458 457
f 138 457 137
f 139 459 458
f 139 458 138
f 140 460 459
f 140 459 139
f 141 461 460
f 141 460 140
f 142 462 461
f 142 461 141
f 143 463 462
f 143 462 142
f 144 464 463
f 144 463 143
f 145 465 464
f 145 464 144
f 146 466 465
f 146 465 145
f 147 466 146
f 147 467 466
f 148 467 147
f 148 468 467
f 149 468 148
f 149 469 468
f 150 469 149
f 150 470 469
f 151 470 150
f 151 471 470
f 152 471 151
f 152 472 471
f 153 472 152
f 153 473 472
f 154 473 153
f 154 474 473
f 155 474 154
f 155 475 474
f 156 475 155
f 156 476 475
f 156 477 476
f 157 477 156
f 157 478 477
f 158 478 157
f 159 478 158
f 159 479 478
f 160 479 159
f 160 480 479
f 161 480 160
f 161 481 480
f 162 482 481
f 162 483 482
f 162 481 161
f 163 484 483
f 163 483 162
f 164 484 163
f 165 485 484
f 165 486 485
f 165 484 164
f 166 486 165
f 167 487 486
f 167 486 166
f 168 488 487
f 168 487 167
f 169 489 488
f 169 488 168
f 170 490 489
f 170 489 169
f 171 491 490
f 171 492 491
f 171 490 170
f 172 492 171
f 173 492 172
f 173 493 492
f 174 493 173
f 174 494 493
f 174 495 494
f 175 495 174
f 176 495 175
f 176 496 495
f 176 497 496
f 177 497 176
f 177 498 497
f 178 498 177
f 179 498 178
f 179 499 498
f 180 499 179
f 180 500 499
f 180 501 500
f 181 501 180
f 182 501 181
f 182 502 501
f 92 502 182
f 92 412 502
f 183 503 504
f 187 504 505
f 187 183 504
f 188 187 505
f 189 188 505
f 189 505 506
f 189 506 507
f 190 189 507
f 190 507 508
f 191 190 508
f 192 191 508
f 192 508 509
f 193 192 509
f 193 509 510
f 194 193 510
f 194 510 511
f 195 511 512
f 195 512 513
f 195 194 511
f 196 513 514
f 196 195 513
f 197 196 514
f 198 514 515
f 198 197 514
f 199 515 516
f 199 198 515
f 200 516 517
f 200 517 518
f 200 199 516
f 201 518 519
f 201 200 518
f 202 519 520
f 202 201 519
f 203 202 520
f 204 520 521
f 204 203 520
f 205 521 522
f 205 204 521
f 206 522 523
f 206 205 522
f 207 523 524
f 207 524 525
f 207 206 523
f 208 207 525
f 209 525 526
f 209 208 525
f 210 526 527
f 210 209 526
f 211 527 528
f 211 528 529
f 211 210 527
f 212 211 529
f 213 529 530
f 213 212 529
f 214 530 531
f 214 213 530
f 215 531 532
f 215 532 533
f 215 214 531
f 216 215 533
f 216 533 534
f 217 216 534
f 218 217 534
f 218 534 535
f 219 218 535
f 219 535 536
f 220 219 536
f 220 536 537
f 221 537 538
f 221 220 537
f 222 538 539
f 222 221 538
f 223 539 540
f 223 222 539
f 224 540 541
f 224 223 540
f 225 541 542
f 225 542 543
f 225 224 541
f 226 543 544
f 226 225 543
f 227 544 545
f 227 226 544
f 228 545 546
f 228 227 545
f 229 228 546
f 230 546 547
f 230 229 546
f 231 547 548
f 231 230 547
f 232 548 549
f 232 231 548
f 233 549 550
f 233 232 549
f 234 550 551
f 234 233 550
f 235 551 552
f 235 552 553
f 235 234 551
f 236 235 553
f 237 553 554
f 237 236 553
f 238 554 555
f 238 555 556
f 238 237 554
f 239 556 557
f 239 238 556
f 240 239 557
f 241 240 557
f 241 557 558
f 242 241 558
f 242 558 559
f 242 559 560
f 243 242 560
f 244 243 560
f 244 560 561
f 244 561 562
f 245 244 562
f 246 245 562
f 246 562 563
f 246 563 564
f 247 246 564
f 248 247 564
f 248 564 565
f 249 248 565
f 249 565 566
f 250 249 566
f 250 566 567
f 250 567 568
f 251 250 568
f 252 251 568
f 252 568 569
f 252 569 570
f 253 252 570
f 254 253 570
f 254 570 571
f 255 254 571
f 255 571 572
f 256 572 573
f 256 255 572
f 257 573 574
f 257 574 575
f 257 256 573
f 258 257 575
f 258 575 576
f 259 258 576
f 260 576 577
f 260 259 576
f 261 577 578
f 261 260 577
f 262 578 579
f 262 261 578
f 263 579 580
f 263 262 579
f 264 580 581
f 264 581 582
f 264 263 580
f 265 264 582
f 265 582 583
f 266 265 583
f 267 266 583
f 267 583 584
f 268 267 584
f 268 584 585
f 268 585 586
f 269 268 586
f 270 269 586
f 270 586 587
f 270 587 588
f 271 270 588
f 272 271 588
f 272 588 589
f 273 272 589
f 273 589 590
f 274 273 590
f 274 590 591
f 275 274 591
f 275 591 592
f 275 592 593
f 276 275 593
f 276 593 503
f 183 276 503
f 473 471 472
f 475 473 474
f 461 462 463
f 459 460 461
f 482 480 481
f 486 482 483
f 486 483 484
f 486 484 485
f 450 451 452
f 450 452 453
f 450 453 454
f 450 454 455
f 450 455 456
f 489 486 487
f 489 487 488
f 448 449 450
f 490 486 489
f 490 482 486
f 490 480 482
f 490 475 476
f 490 476 477
f 490 477 478
f 490 478 479
f 490 479 480
f 492 490 491
f 445 446 447
f 445 447 448
f 444 445 448
f 494 492 493
f 443 450 456
f 443 471 473
f 443 459 461
f 443 461 463
f 443 456 457
f 443 457 458
f 443 458 459
f 443 463 464
f 443 444 448
f 443 464 465
f 443 465 466
f 443 466 467
f 443 448 450
f 443 467 468
f 443 468 469
f 443 469 470
f 443 470 471
f 496 494 495
f 496 492 494
f 441 442 443
f 439 441 443
f 439 440 441
f 499 490 492
f 499 496 497
f 499 497 498
f 499 492 496
f 501 499 500
f 436 437 438
f 436 438 439
f 413 501 502
f 413 502 412
f 413 499 501
f 414 499 413
f 432 433 434
f 432 434 435
f 432 435 436
f 417 415 416
f 428 429 430
f 419 417 418
f 427 428 430
f 420 417 419
f 426 414 415
f 426 473 475
f 426 490 499
f 426 430 431
f 426 431 432
f 426 436 439
f 426 432 436
f 426 499 414
f 426 475 490
f 426 427 430
f 426 443 473
f 426 439 443
f 421 417 420
f 423 421 422
f 423 424 425
f 423 425 426
f 423 415 417
f 423 417 421
f 423 426 415
f 561 560 559
f 557 559 558
f 555 557 556
f 565 564 563
f 553 555 554
f 567 565 563
f 567 562 561
f 567 563 562
f 567 566 565
f 552 559 557
f 552 557 555
f 552 555 553
f 549 551 550
f 549 552 551
f 572 568 567
f 572 569 568
f 572 570 569
f 572 571 570
f 574 573 572
f 545 547 546
f 544 548 547
f 544 549 548
f 544 547 545
f 543 552 549
f 543 549 544
f 543 561 559
f 543 559 552
f 578 576 575
f 578 577 576
f 540 542 541
f 540 543 542
f 580 578 575
f 580 579 578
f 539 543 540
f 582 581 580
f 537 539 538
f 536 572 567
f 536 574 572
f 536 539 537
f 536 561 543
f 536 543 539
f 536 575 574
f 536 567 561
f 584 583 582
f 585 584 582
f 533 535 534
f 587 582 580
f 587 585 582
f 587 586 585
f 531 533 532
f 531 536 535
f 531 575 536
f 531 535 533
f 528 530 529
f 528 531 530
f 527 531 528
f 593 591 590
f 593 592 591
f 523 575 531
f 523 531 527
f 523 525 524
f 523 526 525
f 523 527 526
f 523 580 575
f 506 505 504
f 507 506 504
f 508 504 503
f 508 593 590
f 508 507 504
f 508 589 588
f 508 590 589
f 508 503 593
f 520 522 521
f 518 580 523
f 518 520 519
f 518 523 522
f 518 522 520
f 518 587 580
f 518 588 587
f 511 510 509
f 512 511 509
f 516 518 517
f 513 512 509
f 515 508 588
f 515 588 518
f 515 518 516
f 514 509 508
f 514 513 509
f 514 508 515
