# SimpleCAD BREP tessellation for MuJoCo
v -5 -4.5 0.5
v -5 -4.5 5.5
v -5 4.5 0.5
v -5 4.5 5.5
v -4.5 -5 5.5
v -4.5 -5 0.5
v -4.5 -4.5 1.66533453694e-16
v -4.5 4.5 1.66533453694e-16
v -4.5 -4.5 6
v -4.5 4.5 6
v -4.5 5 5.5
v -4.5 5 0.5
v 4.5 -5 5.5
v 4.5 -5 0.5
v 4.5 -4.5 1.66533453694e-16
v 4.5 4.5 1.66533453694e-16
v 3.1 -7.59281015471e-16 0
v 3.09261354413 0.213872547653 0
v 3.07048937636 0.42672589522 0
v 3.03373292842 0.637545699566 0
v 2.98251936152 0.845327308317 0
v 2.91709273162 1.04908054748 0
v 2.83776482643 1.24783444009 0
v 2.74491367952 1.44064183334 0
v 2.63898176891 1.62658391218 0
v 2.52047390838 1.80477457793 0
v 2.38995484186 1.97436467094 0
v 2.24804655214 2.13454601716 0
v 2.09542529685 2.28455527955 0
v 1.93281838576 2.42367759565 0
v 1.76100071487 2.55124998427 0
v 1.58079107361 2.66666450488 0
v 1.393048243 2.76937115474 0
v 1.19866690312 2.85888048987 0
v 0.998573369575 2.93476595755 0
v 0.793721179178 2.99666592895 0
v 0.585086545904 3.04428542253 0
v 0.373663708791 3.0773975097 0
v 0.160460193941 3.09584439631 0
v -0.0535079868067 3.09953817453 0
v -0.26722117763 3.08846124182 0
v -0.47966093785 3.06266638482 0
v -0.689814895265 3.02227652776 0
v -0.896681570563 2.96748414672 0
v -1.09927514983 2.89855035232 0
v -1.2966301824 2.81580364551 0
v -1.48780618168 2.71963835202 0
v -1.67189210695 2.61051274326 0
v -1.84801070495 2.48894685246 0
v -2.01532269037 2.35551999645 0
v -2.1730307454 2.21086801495 0
v -2.32038331933 2.05568024055 0
v -2.45667821005 1.89069621364 0
v -2.58126591033 1.71670215826 0
v -2.69355270305 1.53452723531 0
v -2.7930034905 1.34503959126 0
v -2.87914434439 1.14914222104 0
v -2.95156476432 0.947768664815 0
v -3.00991963402 0.741878559291 0
v -3.05393086595 0.532453064583 0
v -3.08338872656 0.320490188544 0
v -3.09815283571 0.107000030806 0
v -3.09815283571 -0.107000030806 0
v -3.08338872656 -0.320490188544 0
v -3.05393086595 -0.532453064583 0
v -3.00991963402 -0.741878559291 0
v -2.95156476432 -0.947768664815 0
v -2.87914434439 -1.14914222104 0
v -2.7930034905 -1.34503959126 0
v -2.69355270305 -1.53452723531 0
v -2.58126591033 -1.71670215826 0
v -2.45667821005 -1.89069621364 0
v -2.32038331933 -2.05568024055 0
v -2.1730307454 -2.21086801495 0
v -2.01532269037 -2.35551999645 0
v -1.84801070495 -2.48894685246 0
v -1.67189210695 -2.61051274326 0
v -1.48780618168 -2.71963835202 0
v -1.2966301824 -2.81580364551 0
v -1.09927514983 -2.89855035232 0
v -0.896681570563 -2.96748414672 0
v -0.689814895265 -3.02227652776 0
v -0.47966093785 -3.06266638482 0
v -0.26722117763 -3.08846124182 0
v -0.0535079868067 -3.09953817453 0
v 0.160460193941 -3.09584439631 0
v 0.373663708792 -3.0773975097 0
v 0.585086545904 -3.04428542253 0
v 0.793721179178 -2.99666592895 0
v 0.998573369575 -2.93476595755 0
v 1.19866690312 -2.85888048987 0
v 1.393048243 -2.76937115474 0
v 1.58079107361 -2.66666450488 0
v 1.76100071487 -2.55124998427 0
v 1.93281838576 -2.42367759565 0
v 2.09542529685 -2.28455527955 0
v 2.24804655214 -2.13454601716 0
v 2.38995484186 -1.97436467094 0
v 2.52047390838 -1.80477457793 0
v 2.63898176891 -1.62658391218 0
v 2.74491367952 -1.44064183334 0
v 2.83776482643 -1.24783444009 0
v 2.91709273162 -1.04908054748 0
v 2.98251936152 -0.845327308317 0
v 3.03373292842 -0.637545699566 0
v 3.07048937636 -0.42672589522 0
v 3.09261354413 -0.213872547653 0
v 4.5 -4.5 6
v 4.5 4.5 6
v 3.1 -7.59281015471e-16 6
v 3.09261354413 0.213872547653 6
v 3.07048937636 0.42672589522 6
v 3.03373292842 0.637545699566 6
v 2.98251936152 0.845327308317 6
v 2.91709273162 1.04908054748 6
v 2.83776482643 1.24783444009 6
v 2.74491367952 1.44064183334 6
v 2.63898176891 1.62658391218 6
v 2.52047390838 1.80477457793 6
v 2.38995484186 1.97436467094 6
v 2.24804655214 2.13454601716 6
v 2.09542529685 2.28455527955 6
v 1.93281838576 2.42367759565 6
v 1.76100071487 2.55124998427 6
v 1.58079107361 2.66666450488 6
v 1.393048243 2.76937115474 6
v 1.19866690312 2.85888048987 6
v 0.998573369575 2.93476595755 6
v 0.793721179178 2.99666592895 6
v 0.585086545904 3.04428542253 6
v 0.373663708791 3.0773975097 6
v 0.160460193941 3.09584439631 6
v -0.0535079868067 3.09953817453 6
v -0.26722117763 3.08846124182 6
v -0.47966093785 3.06266638482 6
v -0.689814895265 3.02227652776 6
v -0.896681570563 2.96748414672 6
v -1.09927514983 2.89855035232 6
v -1.2966301824 2.81580364551 6
v -1.48780618168 2.71963835202 6
v -1.67189210695 2.61051274326 6
v -1.84801070495 2.48894685246 6
v -2.01532269037 2.35551999645 6
v -2.1730307454 2.21086801495 6
v -2.32038331933 2.05568024055 6
v -2.45667821005 1.89069621364 6
v -2.58126591033 1.71670215826 6
v -2.69355270305 1.53452723531 6
v -2.7930034905 1.34503959126 6
v -2.87914434439 1.14914222104 6
v -2.95156476432 0.947768664815 6
v -3.00991963402 0.741878559291 6
v -3.05393086595 0.532453064583 6
v -3.08338872656 0.320490188544 6
v -3.09815283571 0.107000030806 6
v -3.09815283571 -0.107000030806 6
v -3.08338872656 -0.320490188544 6
v -3.05393086595 -0.532453064583 6
v -3.00991963402 -0.741878559291 6
v -2.95156476432 -0.947768664815 6
v -2.87914434439 -1.14914222104 6
v -2.7930034905 -1.34503959126 6
v -2.69355270305 -1.53452723531 6
v -2.58126591033 -1.71670215826 6
v -2.45667821005 -1.89069621364 6
v -2.32038331933 -2.05568024055 6
v -2.1730307454 -2.21086801495 6
v -2.01532269037 -2.35551999645 6
v -1.84801070495 -2.48894685246 6
v -1.67189210695 -2.61051274326 6
v -1.48780618168 -2.71963835202 6
v -1.2966301824 -2.81580364551 6
v -1.09927514983 -2.89855035232 6
v -0.896681570563 -2.96748414672 6
v -0.689814895265 -3.02227652776 6
v -0.47966093785 -3.06266638482 6
v -0.26722117763 -3.08846124182 6
v -0.0535079868067 -3.09953817453 6
v 0.160460193941 -3.09584439631 6
v 0.373663708792 -3.0773975097 6
v 0.585086545904 -3.04428542253 6
v 0.793721179178 -2.99666592895 6
v 0.998573369575 -2.93476595755 6
v 1.19866690312 -2.85888048987 6
v 1.393048243 -2.76937115474 6
v 1.58079107361 -2.66666450488 6
v 1.76100071487 -2.55124998427 6
v 1.93281838576 -2.42367759565 6
v 2.09542529685 -2.28455527955 6
v 2.24804655214 -2.13454601716 6
v 2.38995484186 -1.97436467094 6
v 2.52047390838 -1.80477457793 6
v 2.63898176891 -1.62658391218 6
v 2.74491367952 -1.44064183334 6
v 2.83776482643 -1.24783444009 6
v 2.91709273162 -1.04908054748 6
v 2.98251936152 -0.845327308317 6
v 3.03373292842 -0.637545699566 6
v 3.07048937636 -0.42672589522 6
v 3.09261354413 -0.213872547653 6
v 4.5 5 5.5
v 4.5 5 0.5
v 5 -4.5 0.5
v 5 -4.5 5.5
v 5 4.5 0.5
v 5 4.5 5.5
f 2 3 1
f 2 4 3
f 5 2 1
f 5 1 6
f 8 7 1
f 8 1 3
f 10 2 9
f 10 4 2
f 11 3 4
f 11 12 3
f 6 1 7
f 5 9 2
f 13 5 6
f 13 6 14
f 73 74 7
f 75 7 74
f 72 73 7
f 76 7 75
f 71 72 7
f 77 7 76
f 70 71 7
f 78 7 77
f 69 70 7
f 79 7 78
f 68 69 7
f 80 7 79
f 67 68 7
f 81 7 80
f 66 67 7
f 82 7 81
f 65 66 7
f 83 7 82
f 64 65 7
f 84 7 83
f 63 64 7
f 85 7 84
f 62 63 7
f 15 7 85
f 15 85 86
f 15 86 87
f 15 87 88
f 15 88 89
f 15 89 90
f 15 90 91
f 15 91 92
f 15 92 93
f 15 93 94
f 15 94 95
f 15 95 96
f 8 52 53
f 8 53 54
f 8 54 55
f 8 55 56
f 8 56 57
f 8 62 7
f 8 57 58
f 8 58 59
f 8 59 60
f 8 60 61
f 8 61 62
f 51 52 8
f 97 15 96
f 50 51 8
f 98 15 97
f 49 50 8
f 99 15 98
f 48 49 8
f 100 15 99
f 47 48 8
f 101 15 100
f 46 47 8
f 102 15 101
f 45 46 8
f 103 15 102
f 44 45 8
f 104 15 103
f 43 44 8
f 105 15 104
f 42 43 8
f 106 15 105
f 41 42 8
f 107 15 106
f 17 15 107
f 16 17 18
f 16 18 19
f 16 19 20
f 16 20 21
f 16 21 22
f 16 22 23
f 16 23 24
f 16 24 25
f 16 25 26
f 16 26 27
f 16 27 28
f 16 28 29
f 16 29 30
f 16 30 31
f 16 31 32
f 16 32 33
f 16 33 34
f 16 34 35
f 16 35 36
f 16 36 37
f 16 37 38
f 16 15 17
f 16 40 8
f 40 41 8
f 16 39 40
f 16 38 39
f 12 8 3
f 166 9 167
f 168 167 9
f 165 9 166
f 169 168 9
f 164 9 165
f 170 169 9
f 163 9 164
f 171 170 9
f 162 9 163
f 172 171 9
f 161 9 162
f 173 172 9
f 160 9 161
f 174 173 9
f 159 9 160
f 175 174 9
f 158 9 159
f 176 175 9
f 157 9 158
f 177 176 9
f 156 9 157
f 178 177 9
f 155 9 156
f 108 178 9
f 108 179 178
f 108 180 179
f 108 181 180
f 108 182 181
f 108 183 182
f 108 184 183
f 108 185 184
f 108 186 185
f 108 187 186
f 108 188 187
f 108 189 188
f 10 146 145
f 10 147 146
f 10 148 147
f 10 149 148
f 10 150 149
f 10 9 155
f 10 151 150
f 10 152 151
f 10 153 152
f 10 154 153
f 10 155 154
f 144 10 145
f 190 189 108
f 143 10 144
f 191 190 108
f 142 10 143
f 192 191 108
f 141 10 142
f 193 192 108
f 140 10 141
f 194 193 108
f 139 10 140
f 195 194 108
f 138 10 139
f 196 195 108
f 137 10 138
f 197 196 108
f 136 10 137
f 198 197 108
f 135 10 136
f 199 198 108
f 134 10 135
f 200 199 108
f 110 200 108
f 109 111 110
f 109 112 111
f 109 113 112
f 109 114 113
f 109 115 114
f 109 116 115
f 109 117 116
f 109 118 117
f 109 119 118
f 109 120 119
f 109 121 120
f 109 122 121
f 109 123 122
f 109 124 123
f 109 125 124
f 109 126 125
f 109 127 126
f 109 128 127
f 109 129 128
f 109 130 129
f 109 131 130
f 109 110 108
f 109 10 133
f 133 10 134
f 109 133 132
f 109 132 131
f 10 11 4
f 201 12 11
f 201 202 12
f 15 6 7
f 15 14 6
f 108 9 5
f 108 5 13
f 13 203 204
f 13 14 203
f 16 8 12
f 16 12 202
f 16 203 15
f 16 205 203
f 111 17 110
f 111 18 17
f 112 19 18
f 112 18 111
f 113 20 19
f 113 19 112
f 114 20 113
f 114 21 20
f 114 22 21
f 115 22 114
f 116 22 115
f 116 23 22
f 117 23 116
f 117 24 23
f 117 25 24
f 118 25 117
f 119 26 25
f 119 25 118
f 120 27 26
f 120 26 119
f 121 28 27
f 121 27 120
f 122 29 28
f 122 30 29
f 122 28 121
f 123 30 122
f 124 31 30
f 124 32 31
f 124 30 123
f 125 32 124
f 126 33 32
f 126 32 125
f 127 34 33
f 127 33 126
f 128 35 34
f 128 34 127
f 129 36 35
f 129 37 36
f 129 35 128
f 130 37 129
f 131 38 37
f 131 39 38
f 131 37 130
f 132 39 131
f 133 40 39
f 133 41 40
f 133 39 132
f 134 41 133
f 135 42 41
f 135 41 134
f 136 43 42
f 136 44 43
f 136 42 135
f 137 44 136
f 138 45 44
f 138 44 137
f 139 46 45
f 139 45 138
f 140 46 139
f 140 47 46
f 141 47 140
f 141 48 47
f 142 48 141
f 142 49 48
f 142 50 49
f 143 50 142
f 144 50 143
f 144 51 50
f 145 52 51
f 145 51 144
f 146 53 52
f 146 52 145
f 147 54 53
f 147 53 146
f 148 55 54
f 148 56 55
f 148 54 147
f 149 56 148
f 150 57 56
f 150 56 149
f 151 58 57
f 151 57 150
f 152 59 58
f 152 58 151
f 153 60 59
f 153 61 60
f 153 59 152
f 154 61 153
f 155 62 61
f 155 61 154
f 156 63 62
f 156 64 63
f 156 62 155
f 157 65 64
f 157 64 156
f 158 65 157
f 159 66 65
f 159 65 158
f 160 67 66
f 160 66 159
f 161 68 67
f 161 67 160
f 162 69 68
f 162 68 161
f 163 70 69
f 163 69 162
f 164 71 70
f 164 70 163
f 165 71 164
f 165 72 71
f 166 72 165
f 166 73 72
f 166 74 73
f 167 74 166
f 168 74 167
f 168 75 74
f 169 75 168
f 169 76 75
f 170 76 169
f 170 77 76
f 171 77 170
f 171 78 77
f 172 78 171
f 172 79 78
f 172 80 79
f 173 80 172
f 173 81 80
f 174 81 173
f 175 81 174
f 175 82 81
f 175 83 82
f 176 83 175
f 177 83 176
f 177 84 83
f 178 84 177
f 178 85 84
f 179 85 178
f 179 86 85
f 180 87 86
f 180 86 179
f 181 88 87
f 181 89 88
f 181 87 180
f 182 89 181
f 183 90 89
f 183 91 90
f 183 89 182
f 184 91 183
f 185 92 91
f 185 91 184
f 186 93 92
f 186 94 93
f 186 92 185
f 187 95 94
f 187 94 186
f 188 95 187
f 189 96 95
f 189 95 188
f 190 96 189
f 190 97 96
f 191 97 190
f 191 98 97
f 192 98 191
f 192 99 98
f 192 100 99
f 193 100 192
f 194 100 193
f 194 101 100
f 195 101 194
f 195 102 101
f 196 102 195
f 196 103 102
f 196 104 103
f 197 104 196
f 198 104 197
f 198 105 104
f 199 105 198
f 199 106 105
f 199 107 106
f 200 107 199
f 110 107 200
f 110 17 107
f 109 11 10
f 109 201 11
f 109 108 204
f 109 204 206
f 201 206 205
f 201 205 202
f 14 15 203
f 13 204 108
f 204 203 205
f 204 205 206
f 202 205 16
f 109 206 201
