# SimpleCAD BREP tessellation for MuJoCo
v -3.42901103761e-15 -78 274
v 0.965876021661 -78 273.966641812
v 1.92714920422 -78 273.866726216
v 2.8792386432 -78 273.700729354
v 3.81760719885 -78 273.469442278
v 4.73778311767 -78 273.173967175
v 5.63538134236 -78 272.815712119
v 6.50612440861 -78 272.396384359
v 7.34586282919 -78 271.917982182
v 8.15059486809 -78 271.382785393
v 8.91648561069 -78 270.793344447
v 9.63988523881 -78 270.1524683
v 10.3173464238 -78 269.463211018
v 10.9456407546 -78 268.728857226
v 11.5217741225 -78 267.952906454
v 12.0430009898 -78 267.139056461
v 12.506837473 -78 266.291185614
v 12.9110731801 -78 265.413334401
v 13.2537817438 -78 264.509686185
v 13.5333300017 -78 263.584547261
v 13.7483857791 -78 262.642326336
v 13.8979242374 -78 261.687513524
v 13.9812327575 -78 260.72465894
v 13.9979143366 -78 259.758351027
v 13.9478894792 -78 258.793194682
v 13.8313965766 -78 257.833789313
v 13.6489907705 -78 256.884706925
v 13.4015413078 -78 255.950470326
v 13.0902273976 -78 255.035531581
v 12.7165325926 -78 254.144250789
v 12.2822377188 -78 253.280875309
v 11.7894123889 -78 252.449519517
v 11.2404051401 -78 251.654145203
v 10.637832242 -78 250.898542689
v 9.98456522883 -78 250.186312763
v 9.28371721537 -78 249.520849526
v 8.5386280616 -78 248.905324213
v 7.75284845665 -78 248.342670082
v 6.93012299817 -78 247.835568438
v 6.07437234765 -78 247.386435849
v 5.18967454663 -78 246.997412638
v 4.28024558304 -78 246.670352677
v 3.35041930003 -78 246.406814556
v 2.40462674328 -78 246.208054154
v 1.44737504504 -78 246.075018654
v 0.483225945576 -78 246.008342032
v -0.483225945576 -78 246.008342032
v -1.44737504504 -78 246.075018654
v -2.40462674328 -78 246.208054154
v -3.35041930003 -78 246.406814556
v -4.28024558304 -78 246.670352677
v -5.18967454663 -78 246.997412638
v -6.07437234765 -78 247.386435849
v -6.93012299817 -78 247.835568438
v -7.75284845665 -78 248.342670082
v -8.5386280616 -78 248.905324213
v -9.28371721537 -78 249.520849526
v -9.98456522883 -78 250.186312763
v -10.637832242 -78 250.898542689
v -11.2404051401 -78 251.654145203
v -11.7894123889 -78 252.449519517
v -12.2822377188 -78 253.280875309
v -12.7165325926 -78 254.144250789
v -13.0902273976 -78 255.035531581
v -13.4015413078 -78 255.950470326
v -13.6489907705 -78 256.884706925
v -13.8313965766 -78 257.833789313
v -13.9478894792 -78 258.793194682
v -13.9979143366 -78 259.758351027
v -13.9812327575 -78 260.72465894
v -13.8979242374 -78 261.687513524
v -13.7483857791 -78 262.642326336
v -13.5333300017 -78 263.584547261
v -13.2537817438 -78 264.509686185
v -12.9110731801 -78 265.413334401
v -12.506837473 -78 266.291185614
v -12.0430009898 -78 267.139056461
v -11.5217741225 -78 267.952906454
v -10.9456407546 -78 268.728857226
v -10.3173464238 -78 269.463211018
v -9.63988523881 -78 270.1524683
v -8.91648561069 -78 270.793344447
v -8.15059486809 -78 271.382785393
v -7.34586282919 -78 271.917982182
v -6.50612440861 -78 272.396384359
v -5.63538134236 -78 272.815712119
v -4.73778311767 -78 273.173967175
v -3.81760719885 -78 273.469442278
v -2.8792386432 -78 273.700729354
v -1.92714920422 -78 273.866726216
v -0.96587602166 -78 273.966641812
v -3.42901103761e-15 -98 274
v 0.965876021661 -98 273.966641812
v 1.92714920422 -98 273.866726216
v 2.8792386432 -98 273.700729354
v 3.81760719885 -98 273.469442278
v 4.73778311767 -98 273.173967175
v 5.63538134236 -98 272.815712119
v 6.50612440861 -98 272.396384359
v 7.34586282919 -98 271.917982182
v 8.15059486809 -98 271.382785393
v 8.91648561069 -98 270.793344447
v 9.63988523881 -98 270.1524683
v 10.3173464238 -98 269.463211018
v 10.9456407546 -98 268.728857226
v 11.5217741225 -98 267.952906454
v 12.0430009898 -98 267.139056461
v 12.506837473 -98 266.291185614
v 12.9110731801 -98 265.413334401
v 13.2537817438 -98 264.509686185
v 13.5333300017 -98 263.584547261
v 13.7483857791 -98 262.642326336
v 13.8979242374 -98 261.687513524
v 13.9812327575 -98 260.72465894
v 13.9979143366 -98 259.758351027
v 13.9478894792 -98 258.793194682
v 13.8313965766 -98 257.833789313
v 13.6489907705 -98 256.884706925
v 13.4015413078 -98 255.950470326
v 13.0902273976 -98 255.035531581
v 12.7165325926 -98 254.144250789
v 12.2822377188 -98 253.280875309
v 11.7894123889 -98 252.449519517
v 11.2404051401 -98 251.654145203
v 10.637832242 -98 250.898542689
v 9.98456522883 -98 250.186312763
v 9.28371721537 -98 249.520849526
v 8.5386280616 -98 248.905324213
v 7.75284845665 -98 248.342670082
v 6.93012299817 -98 247.835568438
v 6.07437234765 -98 247.386435849
v 5.18967454663 -98 246.997412638
v 4.28024558304 -98 246.670352677
v 3.35041930003 -98 246.406814556
v 2.40462674328 -98 246.208054154
v 1.44737504504 -98 246.075018654
v 0.483225945576 -98 246.008342032
v -0.483225945576 -98 246.008342032
v -1.44737504504 -98 246.075018654
v -2.40462674328 -98 246.208054154
v -3.35041930003 -98 246.406814556
v -4.28024558304 -98 246.670352677
v -5.18967454663 -98 246.997412638
v -6.07437234765 -98 247.386435849
v -6.93012299817 -98 247.835568438
v -7.75284845665 -98 248.342670082
v -8.5386280616 -98 248.905324213
v -9.28371721537 -98 249.520849526
v -9.98456522883 -98 250.186312763
v -10.637832242 -98 250.898542689
v -11.2404051401 -98 251.654145203
v -11.7894123889 -98 252.449519517
v -12.2822377188 -98 253.280875309
v -12.7165325926 -98 254.144250789
v -13.0902273976 -98 255.035531581
v -13.4015413078 -98 255.950470326
v -13.6489907705 -98 256.884706925
v -13.8313965766 -98 257.833789313
v -13.9478894792 -98 258.793194682
v -13.9979143366 -98 259.758351027
v -13.9812327575 -98 260.72465894
v -13.8979242374 -98 261.687513524
v -13.7483857791 -98 262.642326336
v -13.5333300017 -98 263.584547261
v -13.2537817438 -98 264.509686185
v -12.9110731801 -98 265.413334401
v -12.506837473 -98 266.291185614
v -12.0430009898 -98 267.139056461
v -11.5217741225 -98 267.952906454
v -10.9456407546 -98 268.728857226
v -10.3173464238 -98 269.463211018
v -9.63988523881 -98 270.1524683
v -8.91648561069 -98 270.793344447
v -8.15059486809 -98 271.382785393
v -7.34586282919 -98 271.917982182
v -6.50612440861 -98 272.396384359
v -5.63538134236 -98 272.815712119
v -4.73778311767 -98 273.173967175
v -3.81760719885 -98 273.469442278
v -2.8792386432 -98 273.700729354
v -1.92714920422 -98 273.866726216
v -0.96587602166 -98 273.966641812
v 13.8416039533 -94 262.1
v 13.8422487162 -94.1336032297 262.09574572
v 13.8441757979 -94.2668403977 262.082977717
v 13.8473659997 -94.399430887 262.061663162
v 13.8517882446 -94.5310718245 262.031738849
v 13.8573984968 -94.6614325222 261.993114902
v 13.8641384624 -94.790149037 261.945678409
v 13.8719341211 -94.9168187102 261.889297076
v 13.880694133 -95.0409945474 261.823823009
v 13.8903081684 -95.1621792986 261.749096708
v 13.9006452074 -95.2798190993 261.664951369
v 13.9104404183 -95.3821551259 261.581027259
v 13.9195450789 -95.4709641993 261.498754261
v 13.9288148306 -95.5562399743 261.410006085
v 13.9381381888 -95.637588526 261.314649702
v 13.9474811753 -95.7152933277 261.21151513
v 13.9566792846 -95.7885459588 261.100501406
v 13.9655061275 -95.8561684595 260.982160157
v 13.9737366311 -95.917111219 260.857137423
v 13.9811546545 -95.9704531239 260.726164268
v 13.987560358 -96.015401895 260.590046814
v 13.9927770514 -96.0512946132 260.449655849
v 13.9963329186 -96.0754120377 260.320413512
v 13.9985374755 -96.0902276027 260.202357464
v 13.9997527577 -96.0983510903 260.08320294
v 13.9999523916 -96.0996825976 259.963489162
v 13.9991281745 -96.0941799499 259.843761865
v 13.9972903794 -96.0818592474 259.724569373
v 13.9944676636 -96.0627954666 259.60645863
v 13.9907065797 -96.0371231181 259.489971177
v 13.9860953765 -96.0052092486 259.376192355
v 13.9807585123 -95.9676404493 259.266248538
v 13.9747945052 -95.9248068904 259.160286678
v 13.96830112 -95.8770817743 259.058424764
v 13.9613747237 -95.8248243502 258.960761823
v 13.9541094496 -95.768380735 258.867379345
v 13.9465964691 -95.7080846578 258.778342575
v 13.938923364 -95.6442581296 258.69370168
v 13.9311735924 -95.5772120448 258.613492798
v 13.9234260403 -95.5072467151 258.537738972
v 13.9157546534 -95.4346523434 258.46645099
v 13.9082281395 -95.3597094378 258.399628116
v 13.9009097373 -95.2826891726 258.337258742
v 13.8938570407 -95.2038536985 258.279320957
v 13.8871218758 -95.1234564062 258.225783045
v 13.8807502192 -95.041742147 258.176603906
v 13.8747778416 -94.9588848363 258.131701342
v 13.8692235125 -94.8748489913 258.09090617
v 13.8641158845 -94.7897526012 258.054160635
v 13.8594815267 -94.7037244852 258.021421761
v 13.8553436944 -94.6168864697 257.992650733
v 13.8517224869 -94.5293542548 257.967812983
v 13.8486349907 -94.4412382306 257.946878273
v 13.8460954041 -94.3526442533 257.929820773
v 13.8441151471 -94.2636743843 257.916619137
v 13.8427029535 -94.1744276035 257.907256583
v 13.8418649452 -94.0850004995 257.901720964
v 13.8416046902 -93.9954879469 257.900004847
v 13.8419232419 -93.905983776 257.902105591
v 13.8428191601 -93.8165814416 257.908025422
v 13.8442885144 -93.7273746994 257.917771519
v 13.8463248683 -93.6384582945 257.931356098
v 13.8489192441 -93.5499286717 257.9487965
v 13.8520600692 -93.4618847124 257.970115289
v 13.8557331023 -93.3744285055 257.995340351
v 13.8599213396 -93.2876661597 258.024504998
v 13.8646053012 -93.2017016739 258.057650965
v 13.86976871 -93.1165496056 258.094871311
v 13.8753875091 -93.0323331439 258.136234783
v 13.8814307747 -92.9492285809 258.181792251
v 13.8878627784 -92.8674222825 258.231591744
v 13.894642847 -92.7871111585 258.28567777
v 13.9017252354 -92.7085031371 258.344090622
v 13.9090590238 -92.6318176547 258.406865654
v 13.9165880454 -92.5572861704 258.474032514
v 13.9242508527 -92.4851527129 258.54561433
v 13.9319807309 -92.4156744714 258.621626817
v 13.939705766 -92.3491224377 258.702077313
v 13.9473489757 -92.2857821102 258.78696371
v 13.9548285107 -92.2259542677 258.876273286
v 13.9620579353 -92.1699558243 258.969981412
v 13.9689465938 -92.1181207727 259.068050123
v 13.9754000717 -92.0708012259 259.170426539
v 13.9813207601 -92.0283685672 259.277041137
v 13.9866066775 -91.9912276518 259.387763404
v 13.9911322158 -91.9599557219 259.501783861
v 13.994797796 -91.9349660191 259.618378922
v 13.997528514 -91.916540254 259.736949619
v 13.9992684517 -91.9048825331 259.856881796
v 13.9999820021 -91.9001199896 259.977551378
v 13.9996546842 -91.9023033443 260.098329635
v 13.9982934353 -91.9114073912 260.218588413
v 13.995926375 -91.927331406 260.337705356
v 13.9926020502 -91.9498994762 260.455069086
v 13.9883881792 -91.9788607503 260.570084338
v 13.9833699265 -92.0138896081 260.682177023
v 13.97764775 -92.0545857517 260.790799193
v 13.9713348749 -92.1004742205 260.89543387
v 13.9645544592 -92.1510053329 260.995599708
v 13.9574365279 -92.2055545584 261.090855433
v 13.9500977072 -92.2635593469 261.181005458
v 13.9425855874 -92.3249796636 261.266612394
v 13.9349748789 -92.3895574971 261.347766669
v 13.927339909 -92.457016879 261.42450099
v 13.9197496792 -92.5271011724 261.496853028
v 13.9122679575 -92.599571655 261.56486434
v 13.904953406 -92.6742062125 261.628579389
v 13.8978597355 -92.7507981299 261.688044644
v 13.8910358832 -92.8291549744 261.743307768
v 13.8845262071 -92.9090975569 261.794416868
v 13.8783706917 -92.9904589644 261.841419806
v 13.8726051623 -93.0730836543 261.884363569
v 13.8672615009 -93.1568266018 261.92329368
v 13.862367863 -93.2415524912 261.958253646
v 13.8579488898 -93.3271349444 261.989284447
v 13.8540259147 -93.4134557784 262.016424038
v 13.8506171601 -93.5004042838 262.039706881
v 13.8477379244 -93.5878765186 262.059163486
v 13.8454007562 -93.6757746089 262.074819966
v 13.8436156154 -93.7640060516 262.086697587
v 13.8423900204 -93.8524830127 262.09481233
v 13.8418006503 -93.926208883 262.098703136
v 13.8416039533 -81 262.1
v 13.8422487162 -81.1336032297 262.09574572
v 13.8441757979 -81.2668403977 262.082977717
v 13.8473659997 -81.399430887 262.061663162
v 13.8517882446 -81.5310718245 262.031738849
v 13.8573984968 -81.6614325222 261.993114902
v 13.8641384624 -81.790149037 261.945678409
v 13.8719341211 -81.9168187102 261.889297076
v 13.880694133 -82.0409945474 261.823823009
v 13.8903081684 -82.1621792986 261.749096708
v 13.9006452074 -82.2798190993 261.664951369
v 13.9104404183 -82.3821551259 261.581027259
v 13.9195450789 -82.4709641993 261.498754261
v 13.9288148306 -82.5562399743 261.410006085
v 13.9381381888 -82.637588526 261.314649702
v 13.9474811753 -82.7152933277 261.21151513
v 13.9566792846 -82.7885459588 261.100501406
v 13.9655061275 -82.8561684595 260.982160157
v 13.9737366311 -82.917111219 260.857137423
v 13.9811546545 -82.9704531239 260.726164268
v 13.987560358 -83.015401895 260.590046814
v 13.9927770514 -83.0512946132 260.449655849
v 13.9963329186 -83.0754120377 260.320413512
v 13.9985374755 -83.0902276027 260.202357464
v 13.9997527577 -83.0983510903 260.08320294
v 13.9999523916 -83.0996825976 259.963489162
v 13.9991281745 -83.0941799499 259.843761865
v 13.9972903794 -83.0818592474 259.724569373
v 13.9944676636 -83.0627954666 259.60645863
v 13.9907065797 -83.0371231181 259.489971177
v 13.9860953765 -83.0052092486 259.376192355
v 13.9807585123 -82.9676404493 259.266248538
v 13.9747945052 -82.9248068904 259.160286678
v 13.96830112 -82.8770817743 259.058424764
v 13.9613747237 -82.8248243501 258.960761823
v 13.9541094496 -82.7683807349 258.867379345
v 13.9465964691 -82.7080846577 258.778342575
v 13.938923364 -82.6442581296 258.69370168
v 13.9311735924 -82.5772120447 258.613492798
v 13.9234260403 -82.507246715 258.537738972
v 13.9157546534 -82.4346523433 258.46645099
v 13.9082281395 -82.3597094376 258.399628116
v 13.9009097372 -82.2826891724 258.337258741
v 13.8938570407 -82.2038536984 258.279320957
v 13.8871218757 -82.123456406 258.225783045
v 13.8807502192 -82.0417421468 258.176603906
v 13.8747778416 -81.9588848365 258.131701342
v 13.8692235125 -81.874848993 258.09090617
v 13.8641158847 -81.7897526047 258.054160636
v 13.859481527 -81.7037244903 258.021421763
v 13.8553436947 -81.6168864761 257.992650735
v 13.8517224873 -81.5293542624 257.967812986
v 13.848634991 -81.4412382395 257.946878275
v 13.8460954043 -81.3526442634 257.929820775
v 13.8441151473 -81.263674396 257.916619138
v 13.8427029536 -81.1744276168 257.907256584
v 13.8418649452 -81.0850005144 257.901720964
v 13.8416046902 -80.9954879634 257.900004847
v 13.8419232418 -80.9059837939 257.90210559
v 13.8428191599 -80.8165814608 257.908025421
v 13.844288514 -80.7273747196 257.917771517
v 13.8463248677 -80.6384583158 257.931356094
v 13.8489192433 -80.5499286943 257.948796495
v 13.8520600682 -80.4618847365 257.970115283
v 13.8557331011 -80.3744285312 257.995340342
v 13.8599213382 -80.2876661868 258.024504988
v 13.8646052997 -80.2017017011 258.057650954
v 13.8697687082 -80.1165496325 258.094871298
v 13.8753875073 -80.0323331705 258.136234769
v 13.8814307727 -79.949228607 258.181792236
v 13.8878627763 -79.8674223082 258.231591728
v 13.8946428448 -79.7871111837 258.285677753
v 13.9017252331 -79.7085031616 258.344090603
v 13.9090590214 -79.6318176786 258.406865633
v 13.916588043 -79.5572861935 258.474032492
v 13.9242508503 -79.4851527352 258.545614307
v 13.9319807285 -79.4156744928 258.621626793
v 13.9397057636 -79.3491224582 258.702077287
v 13.9473489733 -79.2857821295 258.786963683
v 13.9548285084 -79.2259542858 258.876273258
v 13.9620579331 -79.1699558412 258.969981382
v 13.9689465917 -79.1181207882 259.068050091
v 13.9754000698 -79.0708012399 259.170426507
v 13.9813207584 -79.0283685797 259.277041103
v 13.9866066759 -78.9912276625 259.387763369
v 13.9911322145 -78.9599557307 259.501783825
v 13.994797795 -78.9349660259 259.618378885
v 13.9975285133 -78.9165402587 259.736949582
v 13.9992684513 -78.9048825356 259.856881758
v 13.999982002 -78.90011999 259.977551341
v 13.9996546845 -78.9023033426 260.098329597
v 13.9982934359 -78.9114073873 260.218588376
v 13.9959263759 -78.9273314 260.337705319
v 13.9926020514 -78.9498994682 260.45506905
v 13.9883881807 -78.9788607404 260.570084303
v 13.9833699282 -79.0138895964 260.682176989
v 13.9776477519 -79.0545857383 260.79079916
v 13.9713348769 -79.1004742056 260.895433839
v 13.9645544613 -79.1510053167 260.995599678
v 13.9574365302 -79.2055545411 261.090855404
v 13.9500977095 -79.2635593285 261.181005431
v 13.9425855897 -79.3249796442 261.266612369
v 13.9349748812 -79.3895574769 261.347766645
v 13.9273399113 -79.457016858 261.424500967
v 13.9197496815 -79.5271011506 261.496853006
v 13.9122679598 -79.5995716326 261.56486432
v 13.9049534082 -79.6742061894 261.62857937
v 13.8978597377 -79.7507981063 261.688044627
v 13.8910358853 -79.8291549503 261.743307752
v 13.884526209 -79.9090975324 261.794416853
v 13.8783706935 -79.9904589395 261.841419792
v 13.872605164 -80.0730836291 261.884363557
v 13.8672615024 -80.1568265763 261.923293668
v 13.8623678644 -80.2415524654 261.958253636
v 13.8579488911 -80.3271349184 261.989284439
v 13.8540259158 -80.4134557522 262.01642403
v 13.8506171611 -80.5004042575 262.039706874
v 13.8477379252 -80.5878764922 262.059163481
v 13.8454007569 -80.6757745824 262.074819962
v 13.8436156158 -80.7640060251 262.086697584
v 13.8423900207 -80.8524829861 262.094812328
v 13.8418006504 -80.9262088697 262.098703135
v -1.98392781462e-15 -78 268.1
v 0.558828269675 -78 268.080699906
v 1.11499346816 -78 268.022891596
v 1.665845215 -78 267.926850555
v 2.20875845076 -78 267.793034461
v 2.74114594665 -78 267.622081008
v 3.26047063379 -78 267.414804869
v 3.76425769355 -78 267.172193808
v 4.25010635117 -78 266.895403977
v 4.71570131654 -78 266.585754406
v 5.15882381761 -78 266.244720716
v 5.57736217388 -78 265.873928088
v 5.96932185947 -78 265.475143518
v 6.33283500799 -78 265.050267395
v 6.66616931374 -78 264.601324449
v 6.96773628695 -78 264.130454096
v 7.23609882366 -78 263.639900248
v 7.46997805418 -78 263.132000618
v 7.66825943746 -78 262.609175579
v 7.82999807242 -78 262.073916629
v 7.95442320079 -78 261.528774523
v 8.04094188019 -78 260.97634711
v 8.08914180971 -78 260.419266958
v 8.09879329473 -78 259.860188809
v 8.06985034153 -78 259.301776923
v 8.00245087646 -78 258.746692388
v 7.89691608867 -78 258.197580435
v 7.75374889948 -78 257.657057832
v 7.57363156575 -78 257.127700415
v 7.3574224286 -78 256.612030814
v 7.10615182302 -78 256.112506429
v 6.82101716787 -78 255.631507721
v 6.50337725965 -78 255.171326868
v 6.15474579717 -78 254.734156841
v 5.77678416811 -78 254.322080956
v 5.37129353175 -78 253.93706294
v 4.94020623564 -78 253.58093758
v 4.48557660706 -78 253.255401976
v 4.00957116323 -78 252.962007453
v 3.51445828685 -78 252.70215217
v 3.00259741627 -78 252.477074455
v 2.47642780161 -78 252.287846906
v 1.93845688073 -78 252.135371279
v 1.39124833004 -78 252.020374189
v 0.837409847486 -78 251.94340365
v 0.279580725655 -78 251.904826462
v -0.279580725655 -78 251.904826462
v -0.837409847486 -78 251.94340365
v -1.39124833004 -78 252.020374189
v -1.93845688073 -78 252.135371279
v -2.47642780161 -78 252.287846906
v -3.00259741627 -78 252.477074455
v -3.51445828685 -78 252.70215217
v -4.00957116323 -78 252.962007453
v -4.48557660706 -78 253.255401976
v -4.94020623564 -78 253.58093758
v -5.37129353175 -78 253.93706294
v -5.77678416811 -78 254.322080956
v -6.15474579717 -78 254.734156841
v -6.50337725965 -78 255.171326868
v -6.82101716787 -78 255.631507721
v -7.10615182302 -78 256.112506429
v -7.3574224286 -78 256.612030814
v -7.57363156575 -78 257.127700415
v -7.75374889948 -78 257.657057832
v -7.89691608867 -78 258.197580435
v -8.00245087646 -78 258.746692388
v -8.06985034153 -78 259.301776923
v -8.09879329473 -78 259.860188809
v -8.08914180971 -78 260.419266958
v -8.04094188019 -78 260.97634711
v -7.95442320079 -78 261.528774523
v -7.82999807242 -78 262.073916629
v -7.66825943746 -78 262.609175579
v -7.46997805418 -78 263.132000618
v -7.23609882366 -78 263.639900248
v -6.96773628695 -78 264.130454096
v -6.66616931374 -78 264.601324449
v -6.33283500799 -78 265.050267395
v -5.96932185947 -78 265.475143518
v -5.57736217388 -78 265.873928088
v -5.15882381761 -78 266.244720716
v -4.71570131654 -78 266.585754406
v -4.25010635117 -78 266.895403977
v -3.76425769355 -78 267.172193808
v -3.26047063379 -78 267.414804869
v -2.74114594665 -78 267.622081008
v -2.20875845076 -78 267.793034461
v -1.665845215 -78 267.926850555
v -1.11499346816 -78 268.022891596
v -0.558828269675 -78 268.080699906
v -1.98392781462e-15 -98 268.1
v 0.558828269675 -98 268.080699906
v 1.11499346816 -98 268.022891596
v 1.665845215 -98 267.926850555
v 2.20875845076 -98 267.793034461
v 2.74114594665 -98 267.622081008
v 3.26047063379 -98 267.414804869
v 3.76425769355 -98 267.172193808
v 4.25010635117 -98 266.895403977
v 4.71570131654 -98 266.585754406
v 5.15882381761 -98 266.244720716
v 5.57736217388 -98 265.873928088
v 5.96932185947 -98 265.475143518
v 6.33283500799 -98 265.050267395
v 6.66616931374 -98 264.601324449
v 6.96773628695 -98 264.130454096
v 7.23609882366 -98 263.639900248
v 7.46997805418 -98 263.132000618
v 7.66825943746 -98 262.609175579
v 7.82999807242 -98 262.073916629
v 7.95442320079 -98 261.528774523
v 8.04094188019 -98 260.97634711
v 8.08914180971 -98 260.419266958
v 8.09879329473 -98 259.860188809
v 8.06985034153 -98 259.301776923
v 8.00245087646 -98 258.746692388
v 7.89691608867 -98 258.197580435
v 7.75374889948 -98 257.657057832
v 7.57363156575 -98 257.127700415
v 7.3574224286 -98 256.612030814
v 7.10615182302 -98 256.112506429
v 6.82101716787 -98 255.631507721
v 6.50337725965 -98 255.171326868
v 6.15474579717 -98 254.734156841
v 5.77678416811 -98 254.322080956
v 5.37129353175 -98 253.93706294
v 4.94020623564 -98 253.58093758
v 4.48557660706 -98 253.255401976
v 4.00957116323 -98 252.962007453
v 3.51445828685 -98 252.70215217
v 3.00259741627 -98 252.477074455
v 2.47642780161 -98 252.287846906
v 1.93845688073 -98 252.135371279
v 1.39124833004 -98 252.020374189
v 0.837409847486 -98 251.94340365
v 0.279580725655 -98 251.904826462
v -0.279580725655 -98 251.904826462
v -0.837409847486 -98 251.94340365
v -1.39124833004 -98 252.020374189
v -1.93845688073 -98 252.135371279
v -2.47642780161 -98 252.287846906
v -3.00259741627 -98 252.477074455
v -3.51445828685 -98 252.70215217
v -4.00957116323 -98 252.962007453
v -4.48557660706 -98 253.255401976
v -4.94020623564 -98 253.58093758
v -5.37129353175 -98 253.93706294
v -5.77678416811 -98 254.322080956
v -6.15474579717 -98 254.734156841
v -6.50337725965 -98 255.171326868
v -6.82101716787 -98 255.631507721
v -7.10615182302 -98 256.112506429
v -7.3574224286 -98 256.612030814
v -7.57363156575 -98 257.127700415
v -7.75374889948 -98 257.657057832
v -7.89691608867 -98 258.197580435
v -8.00245087646 -98 258.746692388
v -8.06985034153 -98 259.301776923
v -8.09879329473 -98 259.860188809
v -8.08914180971 -98 260.419266958
v -8.04094188019 -98 260.97634711
v -7.95442320079 -98 261.528774523
v -7.82999807242 -98 262.073916629
v -7.66825943746 -98 262.609175579
v -7.46997805418 -98 263.132000618
v -7.23609882366 -98 263.639900248
v -6.96773628695 -98 264.130454096
v -6.66616931374 -98 264.601324449
v -6.33283500799 -98 265.050267395
v -5.96932185947 -98 265.475143518
v -5.57736217388 -98 265.873928088
v -5.15882381761 -98 266.244720716
v -4.71570131654 -98 266.585754406
v -4.25010635117 -98 266.895403977
v -3.76425769355 -98 267.172193808
v -3.26047063379 -98 267.414804869
v -2.74114594665 -98 267.622081008
v -2.20875845076 -98 267.793034461
v -1.665845215 -98 267.926850555
v -1.11499346816 -98 268.022891596
v -0.558828269675 -98 268.080699906
v 7.82304288624 -94 262.1
v 7.82415692522 -94.1320294318 262.095845455
v 7.82748437257 -94.2636508721 262.083383829
v 7.83298741598 -94.3945780236 262.062597442
v 7.84060638355 -94.5245076523 262.033443326
v 7.8502585305 -94.6531147659 261.995855983
v 7.86183658583 -94.7800478233 261.949750077
v 7.87520710825 -94.9049238605 261.895023163
v 7.89020870047 -95.0273234144 261.831558521
v 7.90665013134 -95.1467851284 261.759228209
v 7.92430841501 -95.2627999248 261.677896406
v 7.94292689638 -95.3748046248 261.587423141
v 7.96221339217 -95.4821749008 261.487668501
v 7.97987088414 -95.5742742613 261.389841919
v 7.99580885344 -95.6531664598 261.295006071
v 8.0117537742 -95.7286407348 261.192393113
v 8.02738726195 -95.7997072506 261.08215238
v 8.04233096222 -95.8652311132 260.964838224
v 8.05621295641 -95.9242055983 260.841090254
v 8.06867961129 -95.9757507032 260.711624367
v 8.07940672712 -96.0191119777 260.577223413
v 8.08810967476 -96.0536596656 260.438727633
v 8.09401532405 -96.0767965449 260.311313409
v 8.09765302241 -96.0909290726 260.194975853
v 8.09962842505 -96.0985663484 260.077584283
v 8.09989950385 -96.0996123833 259.959652642
v 8.09845301716 -96.0940251528 259.841700659
v 8.0953049534 -96.0818170235 259.724250437
v 8.0905004405 -96.0630552955 259.607823031
v 8.08411312767 -96.0378628639 259.492934969
v 8.07628703051 -96.0065922966 259.380655674
v 8.0672356259 -95.9698455273 259.272189144
v 8.05712190903 -95.9280077368 259.167662228
v 8.0461061981 -95.8814421944 259.06716816
v 8.03434579869 -95.8304949811 258.970782769
v 8.02199392583 -95.7754960231 258.878566148
v 8.00919877356 -95.7167600222 258.79056416
v 7.9961027221 -95.6545872912 258.706809796
v 7.98284167276 -95.5892645032 258.627324394
v 7.96954450077 -95.5210653651 258.552118747
v 7.95633261609 -95.450251222 258.481194096
v 7.94331962243 -95.3770716037 258.414543026
v 7.93061106452 -95.3017647203 258.352150292
v 7.91830425388 -95.224557918 258.293993569
v 7.9064881631 -95.1456681013 258.240044154
v 7.89524337889 -95.0653021333 258.19026762
v 7.88464210396 -94.9836572215 258.144624457
v 7.87474819787 -94.9009212978 258.103070688
v 7.86559733276 -94.8170810186 258.065477149
v 7.85721732153 -94.7320273332 258.031717479
v 7.84966129912 -94.6458966583 258.001796411
v 7.84297678663 -94.5588245448 257.975718612
v 7.83720541436 -94.4709444951 257.953488033
v 7.8323828277 -94.3823882541 257.935107957
v 7.82853860699 -94.2932860966 257.92058104
v 7.8256962012 -94.2037671115 257.909909342
v 7.82387287558 -94.1139594819 257.903094356
v 7.82307967319 -94.0239907644 257.900137025
v 7.82332139033 -93.9339881657 257.901037757
v 7.8245965659 -93.844078819 257.905796427
v 7.82689748462 -93.7543900598 257.914412379
v 7.8302101942 -93.6650497027 257.926884415
v 7.83451453638 -93.576186319 257.94321078
v 7.83978419192 -93.4879295162 257.96338914
v 7.84598673942 -93.4004102201 257.987416551
v 7.85308372812 -93.3137609602 258.015289423
v 7.8610307646 -93.2281161587 258.047003477
v 7.86977761327 -93.1436124248 258.082553694
v 7.87927497037 -93.0603329389 258.121962234
v 7.88949799391 -92.9781492219 258.16538257
v 7.90039168031 -92.8971903981 258.212876309
v 7.91188909044 -92.8176341743 258.264485364
v 7.92391538976 -92.7396687727 258.3202485
v 7.93638773915 -92.6634933429 258.380200676
v 7.94921522019 -92.5893184102 258.44437234
v 7.96229880625 -92.517366367 258.512788659
v 7.97553139059 -92.4478720106 258.585468692
v 7.98879788302 -92.3810831319 258.662424485
v 8.00197538626 -92.3172611611 258.743660084
v 8.01493346338 -92.2566818734 258.829170466
v 8.02753450782 -92.1996361607 258.91894037
v 8.03963422704 -92.1464308725 259.012943022
v 8.0510822514 -92.0973897324 259.111138755
v 8.06172287939 -92.0528543338 259.213473504
v 8.07139597078 -92.0131852189 259.319877181
v 8.07992389399 -91.9788196351 259.430061482
v 8.08710629881 -91.9502955843 259.54315016
v 8.09280003548 -91.92794488 259.658550766
v 8.09689327236 -91.9120151469 259.7756804
v 8.09930565718 -91.9026797626 259.893944149
v 8.09998998302 -91.9000386466 260.012739738
v 8.09893312442 -91.9041188798 260.13146214
v 8.09615622892 -91.9148751487 260.249508186
v 8.09171416238 -91.9321900143 260.366281154
v 8.08569421872 -91.955874004 260.48119534
v 8.07821411756 -91.9856655304 260.593680605
v 8.06941932594 -92.0212306398 260.703186876
v 8.0594797526 -92.0621625994 260.809188581
v 8.04858587634 -92.1079813303 260.911188987
v 8.03694438235 -92.1581327001 261.008724407
v 8.02477339309 -92.2119876862 261.101368231
v 8.01224905248 -92.2690652873 261.189060575
v 7.99942571757 -92.3294276352 261.272473195
v 7.98642639608 -92.3928264831 261.351663167
v 7.97337174993 -92.4590077772 261.426654462
v 7.96037474101 -92.5277344409 261.497475904
v 7.94754069078 -92.5987852072 261.564160182
v 7.93496738823 -92.671953537 261.626742939
v 7.92274523875 -92.7470466157 261.68526195
v 7.9109574472 -92.8238844189 261.739756354
v 7.89968022876 -92.9022988415 261.790265955
v 7.88898304158 -92.982132881 261.836830566
v 7.87892883558 -93.0632398692 261.879489409
v 7.86957431236 -93.1454827445 261.918280541
v 7.86097019134 -93.2287333586 261.95324032
v 7.85316147793 -93.3128718109 261.984402895
v 7.8461877297 -93.3977858043 262.011799711
v 7.84008331711 -93.4833700163 262.035459035
v 7.83487767577 -93.5695254799 262.055405484
v 7.83059554742 -93.656158968 262.071659563
v 7.82725720749 -93.7431823771 262.084237197
v 7.82487867738 -93.8305121039 262.093149262
v 7.82350265114 -93.9151847298 262.09828653
v 7.82304288624 -81 262.1
v 7.82415692522 -81.1320294318 262.095845455
v 7.82748437257 -81.2636508721 262.083383829
v 7.83298741598 -81.3945780236 262.062597442
v 7.84060638355 -81.5245076523 262.033443326
v 7.8502585305 -81.6531147659 261.995855983
v 7.86183658583 -81.7800478233 261.949750077
v 7.87520710825 -81.9049238605 261.895023163
v 7.89020870047 -82.0273234144 261.831558521
v 7.90665013134 -82.1467851284 261.759228209
v 7.92430841501 -82.2627999248 261.677896406
v 7.94292689638 -82.3748046248 261.587423141
v 7.96221339217 -82.4821749008 261.487668501
v 7.97987088414 -82.5742742613 261.389841919
v 7.99580885344 -82.6531664598 261.295006071
v 8.0117537742 -82.7286407348 261.192393113
v 8.02738726195 -82.7997072506 261.08215238
v 8.04233096222 -82.8652311132 260.964838224
v 8.05621295641 -82.9242055983 260.841090254
v 8.06867961129 -82.9757507032 260.711624367
v 8.07940672712 -83.0191119777 260.577223413
v 8.08810967476 -83.0536596656 260.438727633
v 8.09401532405 -83.0767965449 260.311313409
v 8.09765302241 -83.0909290726 260.194975853
v 8.09962842505 -83.0985663484 260.077584283
v 8.09989950385 -83.0996123833 259.959652642
v 8.09845301716 -83.0940251528 259.841700659
v 8.0953049534 -83.0818170235 259.724250437
v 8.0905004405 -83.0630552955 259.607823031
v 8.08411312767 -83.0378628639 259.492934969
v 8.07628703051 -83.0065922966 259.380655674
v 8.0672356259 -82.9698455273 259.272189144
v 8.05712190902 -82.9280077368 259.167662228
v 8.04610619809 -82.8814421944 259.06716816
v 8.03434579869 -82.8304949811 258.970782769
v 8.02199392583 -82.7754960231 258.878566148
v 8.00919877356 -82.7167600222 258.79056416
v 7.9961027221 -82.6545872912 258.706809796
v 7.98284167276 -82.5892645032 258.627324394
v 7.96954450077 -82.5210653651 258.552118747
v 7.95633261609 -82.450251222 258.481194096
v 7.94331962243 -82.3770716037 258.414543026
v 7.93061106452 -82.3017647203 258.352150292
v 7.91830425388 -82.224557918 258.293993569
v 7.9064881631 -82.1456681012 258.240044154
v 7.89524337889 -82.0653021333 258.19026762
v 7.88464210396 -81.9836572215 258.144624457
v 7.87474819787 -81.9009212978 258.103070688
v 7.86559733276 -81.8170810186 258.065477149
v 7.85721732152 -81.7320273331 258.031717479
v 7.8496612991 -81.645896658 258.001796411
v 7.8429767866 -81.5588245444 257.975718612
v 7.83720541432 -81.4709444946 257.953488033
v 7.83238282767 -81.3823882534 257.935107957
v 7.82853860696 -81.2932860958 257.92058104
v 7.82569620118 -81.2037671106 257.909909342
v 7.82387287556 -81.1139594809 257.903094356
v 7.82307967319 -81.0239907634 257.900137025
v 7.82332139034 -80.9339881646 257.901037757
v 7.82459656593 -80.8440788177 257.905796427
v 7.82689748466 -80.7543900584 257.914412379
v 7.83021019426 -80.6650497012 257.926884415
v 7.83451453647 -80.5761863174 257.943210781
v 7.83978419203 -80.4879295145 257.963389141
v 7.84598673955 -80.4004102183 257.987416552
v 7.85308372829 -80.3137609583 258.015289424
v 7.86103076479 -80.2281161567 258.047003478
v 7.86977761349 -80.1436124227 258.082553695
v 7.87927497061 -80.0603329369 258.121962235
v 7.88949799418 -79.9781492199 258.165382571
v 7.90039168059 -79.8971903961 258.21287631
v 7.91188909073 -79.8176341723 258.264485365
v 7.92391539007 -79.7396687708 258.320248501
v 7.93638773946 -79.6634933411 258.380200678
v 7.94921522052 -79.5893184084 258.444372342
v 7.96229880657 -79.5173663653 258.512788661
v 7.97553139092 -79.4478720089 258.585468694
v 7.98879788335 -79.3810831303 258.662424487
v 8.00197538658 -79.3172611595 258.743660086
v 8.0149334637 -79.256681872 258.829170468
v 8.02753450813 -79.1996361593 258.918940372
v 8.03963422734 -79.1464308712 259.012943024
v 8.05108225167 -79.0973897313 259.111138757
v 8.06172287964 -79.0528543327 259.213473507
v 8.07139597101 -79.013185218 259.319877184
v 8.07992389419 -78.9788196343 259.430061485
v 8.08710629897 -78.9502955836 259.543150163
v 8.0928000356 -78.9279448796 259.658550769
v 8.09689327244 -78.9120151466 259.775680403
v 8.09930565722 -78.9026797624 259.893944152
v 8.09998998302 -78.9000386466 260.012739741
v 8.09893312437 -78.90411888 260.131462143
v 8.09615622883 -78.9148751491 260.249508189
v 8.09171416225 -78.9321900148 260.366281157
v 8.08569421855 -78.9558740047 260.481195343
v 8.07821411736 -78.9856655312 260.593680608
v 8.0694193257 -79.0212306408 260.703186879
v 8.05947975234 -79.0621626004 260.809188584
v 8.04858587605 -79.1079813315 260.91118899
v 8.03694438205 -79.1581327014 261.008724409
v 8.02477339279 -79.2119876875 261.101368233
v 8.01224905217 -79.2690652888 261.189060577
v 7.99942571725 -79.3294276367 261.272473198
v 7.98642639575 -79.3928264847 261.351663169
v 7.97337174961 -79.4590077789 261.426654464
v 7.96037474068 -79.5277344427 261.497475906
v 7.94754069046 -79.598785209 261.564160183
v 7.93496738792 -79.6719535389 261.62674294
v 7.92274523845 -79.7470466176 261.685261951
v 7.91095744691 -79.8238844209 261.739756355
v 7.89968022848 -79.9022988435 261.790265956
v 7.88898304132 -79.982132883 261.836830568
v 7.87892883534 -80.0632398712 261.87948941
v 7.86957431213 -80.1454827465 261.918280542
v 7.86097019114 -80.2287333607 261.953240321
v 7.85316147775 -80.312871813 261.984402896
v 7.84618772953 -80.3977858065 262.011799712
v 7.84008331697 -80.4833700185 262.035459035
v 7.83487767565 -80.5695254821 262.055405484
v 7.83059554733 -80.6561589702 262.071659563
v 7.82725720742 -80.7431823793 262.084237197
v 7.82487867734 -80.8305121061 262.093149262
v 7.82350265113 -80.9151847309 262.09828653
f 2 1 92
f 2 92 93
f 2 93 94
f 3 2 94
f 3 94 95
f 4 3 95
f 4 95 96
f 5 4 96
f 5 96 97
f 6 5 97
f 7 6 97
f 7 97 98
f 8 7 98
f 8 98 99
f 9 100 101
f 9 8 99
f 9 99 100
f 10 9 101
f 11 101 102
f 11 10 101
f 12 102 103
f 12 103 104
f 12 11 102
f 13 12 104
f 14 104 105
f 14 105 106
f 14 13 104
f 15 14 106
f 16 106 107
f 16 15 106
f 17 107 108
f 17 16 107
f 18 108 109
f 18 17 108
f 19 109 110
f 19 18 109
f 20 19 110
f 20 110 111
f 20 111 112
f 185 184 112
f 183 112 184
f 304 112 183
f 186 185 112
f 303 112 304
f 187 186 112
f 113 187 112
f 113 188 187
f 113 189 188
f 190 189 113
f 191 190 113
f 192 191 113
f 193 192 113
f 194 193 113
f 195 194 113
f 196 195 113
f 21 20 112
f 21 112 303
f 197 196 113
f 198 197 113
f 306 303 302
f 306 21 303
f 307 302 301
f 307 306 302
f 305 21 306
f 426 21 305
f 308 307 301
f 308 300 299
f 308 301 300
f 425 21 426
f 309 299 298
f 309 308 299
f 424 21 425
f 423 21 424
f 310 309 298
f 310 297 296
f 310 298 297
f 422 21 423
f 311 310 296
f 311 296 295
f 421 21 422
f 114 198 113
f 114 199 198
f 114 200 199
f 420 21 421
f 201 200 114
f 312 311 295
f 312 294 293
f 312 295 294
f 313 312 293
f 313 293 292
f 202 201 114
f 314 313 292
f 314 291 290
f 314 292 291
f 315 314 290
f 315 290 289
f 203 202 114
f 316 315 289
f 316 289 288
f 317 316 288
f 317 287 286
f 317 288 287
f 204 203 114
f 318 317 286
f 318 286 285
f 22 412 411
f 22 413 412
f 22 414 413
f 22 415 414
f 22 416 415
f 22 417 416
f 22 418 417
f 22 419 418
f 22 420 419
f 22 21 420
f 410 22 411
f 205 204 114
f 319 318 285
f 319 285 284
f 409 22 410
f 320 319 284
f 320 284 283
f 206 205 114
f 408 22 409
f 321 282 281
f 321 283 282
f 321 320 283
f 407 22 408
f 406 22 407
f 322 321 281
f 322 281 280
f 405 22 406
f 115 207 206
f 115 208 207
f 115 206 114
f 323 322 280
f 323 280 279
f 209 208 115
f 324 323 279
f 324 279 278
f 210 209 115
f 325 324 278
f 325 278 277
f 211 210 115
f 212 211 115
f 326 325 277
f 326 276 275
f 326 277 276
f 23 403 402
f 23 404 403
f 23 405 404
f 23 22 405
f 23 401 400
f 23 402 401
f 213 212 115
f 327 326 275
f 327 275 274
f 399 23 400
f 214 213 115
f 328 327 274
f 328 274 273
f 398 23 399
f 329 328 273
f 329 273 272
f 397 23 398
f 330 329 272
f 330 272 271
f 116 215 214
f 116 216 215
f 116 217 216
f 116 214 115
f 396 23 397
f 331 271 270
f 331 330 271
f 218 217 116
f 332 331 270
f 332 270 269
f 219 218 116
f 220 219 116
f 333 269 268
f 333 332 269
f 221 220 116
f 334 333 268
f 334 268 267
f 222 221 116
f 223 222 116
f 24 23 396
f 24 393 392
f 24 394 393
f 24 395 394
f 24 396 395
f 335 334 267
f 335 267 266
f 224 223 116
f 391 24 392
f 336 335 266
f 336 266 265
f 390 24 391
f 337 336 265
f 337 265 264
f 389 24 390
f 338 337 264
f 338 264 263
f 388 24 389
f 117 224 116
f 117 225 224
f 117 226 225
f 117 227 226
f 117 228 227
f 117 229 228
f 117 230 229
f 339 338 263
f 339 263 262
f 231 230 117
f 232 231 117
f 233 232 117
f 340 262 261
f 340 339 262
f 234 233 117
f 235 234 117
f 236 235 117
f 341 261 260
f 341 340 261
f 237 236 117
f 238 237 117
f 239 238 117
f 240 239 117
f 342 341 260
f 342 260 259
f 343 342 259
f 343 259 258
f 344 343 258
f 344 258 257
f 345 344 257
f 345 257 256
f 25 24 388
f 25 383 382
f 25 384 383
f 25 385 384
f 25 386 385
f 25 387 386
f 25 388 387
f 381 25 382
f 346 345 256
f 346 256 255
f 380 25 381
f 347 346 255
f 347 255 254
f 348 347 254
f 348 254 253
f 379 25 380
f 349 253 252
f 349 348 253
f 378 25 379
f 350 349 252
f 350 252 251
f 351 251 250
f 351 350 251
f 352 351 250
f 352 250 249
f 118 240 117
f 118 241 240
f 353 249 248
f 353 352 249
f 354 353 248
f 354 248 247
f 355 354 247
f 355 247 246
f 356 355 246
f 356 246 245
f 357 245 244
f 357 356 245
f 358 357 244
f 358 244 243
f 359 243 242
f 359 358 243
f 360 242 241
f 360 359 242
f 361 360 241
f 26 25 378
f 26 363 362
f 26 364 363
f 26 365 364
f 26 366 365
f 26 367 366
f 26 368 367
f 26 369 368
f 26 370 369
f 26 371 370
f 26 372 371
f 26 373 372
f 26 374 373
f 26 375 374
f 26 376 375
f 26 377 376
f 26 378 377
f 27 26 362
f 27 361 241
f 27 362 361
f 27 241 118
f 28 27 118
f 28 118 119
f 29 119 120
f 29 120 121
f 29 28 119
f 30 29 121
f 31 121 122
f 31 30 121
f 32 122 123
f 32 31 122
f 33 123 124
f 33 32 123
f 34 124 125
f 34 125 126
f 34 33 124
f 35 34 126
f 36 126 127
f 36 35 126
f 37 127 128
f 37 36 127
f 38 128 129
f 38 37 128
f 39 129 130
f 39 38 129
f 40 130 131
f 40 131 132
f 40 39 130
f 41 40 132
f 42 132 133
f 42 41 132
f 43 133 134
f 43 134 135
f 43 42 133
f 44 43 135
f 45 135 136
f 45 44 135
f 46 136 137
f 46 137 138
f 46 45 136
f 47 138 139
f 47 46 138
f 48 47 139
f 49 48 139
f 49 139 140
f 50 49 140
f 50 140 141
f 51 50 141
f 51 141 142
f 52 51 142
f 52 142 143
f 53 52 143
f 53 143 144
f 54 53 144
f 54 144 145
f 55 54 145
f 55 145 146
f 56 55 146
f 56 146 147
f 57 56 147
f 57 147 148
f 58 57 148
f 58 148 149
f 58 149 150
f 59 58 150
f 60 59 150
f 60 150 151
f 61 151 152
f 61 60 151
f 62 152 153
f 62 61 152
f 63 153 154
f 63 62 153
f 64 154 155
f 64 63 154
f 65 155 156
f 65 156 157
f 65 64 155
f 66 65 157
f 67 157 158
f 67 158 159
f 67 66 157
f 68 67 159
f 69 159 160
f 69 68 159
f 70 160 161
f 70 69 160
f 71 161 162
f 71 70 161
f 72 162 163
f 72 71 162
f 73 163 164
f 73 72 163
f 74 73 164
f 74 164 165
f 74 165 166
f 75 74 166
f 75 166 167
f 76 75 167
f 77 76 167
f 77 167 168
f 78 77 168
f 78 168 169
f 79 78 169
f 79 169 170
f 80 79 170
f 80 170 171
f 80 171 172
f 81 80 172
f 82 81 172
f 82 172 173
f 83 82 173
f 83 173 174
f 83 174 175
f 84 83 175
f 85 84 175
f 85 175 176
f 86 85 176
f 86 176 177
f 87 86 177
f 87 177 178
f 88 87 178
f 88 178 179
f 89 88 179
f 89 179 180
f 90 89 180
f 90 180 181
f 91 90 181
f 91 181 182
f 1 91 182
f 1 182 92
f 483 58 484
f 483 56 57
f 483 57 58
f 485 484 58
f 485 58 59
f 482 56 483
f 482 55 56
f 486 485 59
f 486 59 60
f 486 60 61
f 481 55 482
f 487 486 61
f 480 55 481
f 480 54 55
f 488 487 61
f 488 61 62
f 479 53 54
f 479 54 480
f 489 488 62
f 489 62 63
f 489 63 64
f 478 52 53
f 478 53 479
f 490 489 64
f 477 51 52
f 477 52 478
f 491 64 65
f 491 490 64
f 476 51 477
f 476 50 51
f 492 65 66
f 492 491 65
f 475 50 476
f 475 49 50
f 493 492 66
f 493 66 67
f 474 49 475
f 474 48 49
f 494 67 68
f 494 493 67
f 473 47 48
f 473 48 474
f 495 494 68
f 495 68 69
f 495 69 70
f 472 46 47
f 472 47 473
f 496 495 70
f 471 45 46
f 471 46 472
f 497 70 71
f 497 71 72
f 497 496 70
f 470 45 471
f 470 44 45
f 498 497 72
f 469 43 44
f 469 44 470
f 499 72 73
f 499 498 72
f 468 42 43
f 468 43 469
f 500 499 73
f 500 73 74
f 467 42 468
f 467 41 42
f 501 500 74
f 501 74 75
f 501 75 76
f 466 41 467
f 466 39 40
f 466 40 41
f 502 501 76
f 465 39 466
f 503 502 76
f 503 76 77
f 464 38 39
f 464 39 465
f 504 503 77
f 504 77 78
f 463 37 38
f 463 38 464
f 505 504 78
f 505 78 79
f 36 37 463
f 462 36 463
f 506 505 79
f 506 79 80
f 461 36 462
f 35 36 461
f 81 506 80
f 81 507 506
f 34 461 460
f 34 35 461
f 82 508 507
f 82 507 81
f 33 460 459
f 33 34 460
f 83 509 508
f 83 508 82
f 32 459 458
f 32 33 459
f 84 510 509
f 84 511 510
f 84 509 83
f 31 457 456
f 31 458 457
f 31 32 458
f 85 512 511
f 85 511 84
f 30 31 456
f 86 512 85
f 29 455 454
f 29 456 455
f 29 30 456
f 87 512 86
f 87 513 512
f 28 29 454
f 88 513 87
f 88 514 513
f 88 515 514
f 27 453 452
f 27 454 453
f 27 28 454
f 89 515 88
f 26 452 451
f 26 27 452
f 90 515 89
f 90 516 515
f 25 26 451
f 91 516 90
f 91 517 516
f 24 450 449
f 24 451 450
f 24 25 451
f 1 517 91
f 1 427 517
f 1 428 427
f 23 24 449
f 2 428 1
f 22 449 448
f 22 23 449
f 3 428 2
f 3 429 428
f 3 430 429
f 21 448 447
f 21 22 448
f 4 430 3
f 20 447 446
f 20 21 447
f 5 430 4
f 5 431 430
f 5 432 431
f 19 446 445
f 19 20 446
f 6 432 5
f 18 444 443
f 18 445 444
f 18 19 445
f 7 432 6
f 7 433 432
f 17 18 443
f 8 433 7
f 8 434 433
f 16 443 442
f 16 17 443
f 9 434 8
f 9 435 434
f 15 16 442
f 15 442 441
f 10 435 9
f 10 436 435
f 14 440 439
f 14 441 440
f 14 15 441
f 11 437 436
f 11 438 437
f 11 436 10
f 13 14 439
f 12 439 438
f 12 438 11
f 12 13 439
f 574 575 149
f 574 148 147
f 574 149 148
f 576 149 575
f 576 150 149
f 573 574 147
f 573 147 146
f 577 150 576
f 577 151 150
f 577 152 151
f 572 573 146
f 578 152 577
f 571 572 146
f 571 146 145
f 579 152 578
f 579 153 152
f 570 145 144
f 570 571 145
f 580 153 579
f 580 154 153
f 580 155 154
f 569 144 143
f 569 570 144
f 581 155 580
f 568 143 142
f 568 569 143
f 582 156 155
f 582 155 581
f 567 568 142
f 567 142 141
f 583 157 156
f 583 156 582
f 566 567 141
f 566 141 140
f 584 157 583
f 584 158 157
f 565 566 140
f 565 140 139
f 585 159 158
f 585 158 584
f 564 139 138
f 564 565 139
f 586 159 585
f 586 160 159
f 586 161 160
f 563 138 137
f 563 564 138
f 587 161 586
f 562 137 136
f 562 563 137
f 588 162 161
f 588 163 162
f 588 161 587
f 561 562 136
f 561 136 135
f 589 163 588
f 560 135 134
f 560 561 135
f 590 164 163
f 590 163 589
f 559 134 133
f 559 560 134
f 591 164 590
f 591 165 164
f 558 559 133
f 558 133 132
f 592 165 591
f 592 166 165
f 592 167 166
f 557 558 132
f 557 131 130
f 557 132 131
f 593 167 592
f 556 557 130
f 594 167 593
f 594 168 167
f 555 130 129
f 555 556 130
f 595 168 594
f 595 169 168
f 554 129 128
f 554 555 129
f 596 169 595
f 596 170 169
f 127 554 128
f 553 554 127
f 597 170 596
f 597 171 170
f 552 553 127
f 126 552 127
f 172 171 597
f 172 597 598
f 125 551 552
f 125 552 126
f 173 598 599
f 173 172 598
f 124 550 551
f 124 551 125
f 174 599 600
f 174 173 599
f 123 549 550
f 123 550 124
f 175 600 601
f 175 601 602
f 175 174 600
f 122 547 548
f 122 548 549
f 122 549 123
f 176 602 603
f 176 175 602
f 121 547 122
f 177 176 603
f 120 545 546
f 120 546 547
f 120 547 121
f 178 177 603
f 178 603 604
f 119 545 120
f 179 178 604
f 179 604 605
f 179 605 606
f 118 543 544
f 118 544 545
f 118 545 119
f 180 179 606
f 117 542 543
f 117 543 118
f 181 180 606
f 181 606 607
f 116 542 117
f 182 181 607
f 182 607 608
f 115 540 541
f 115 541 542
f 115 542 116
f 92 182 608
f 92 608 518
f 92 518 519
f 114 540 115
f 93 92 519
f 113 539 540
f 113 540 114
f 94 93 519
f 94 519 520
f 94 520 521
f 112 538 539
f 112 539 113
f 95 94 521
f 111 537 538
f 111 538 112
f 96 95 521
f 96 521 522
f 96 522 523
f 110 536 537
f 110 537 111
f 97 96 523
f 109 534 535
f 109 535 536
f 109 536 110
f 98 97 523
f 98 523 524
f 108 534 109
f 99 98 524
f 99 524 525
f 107 533 534
f 107 534 108
f 100 99 525
f 100 525 526
f 106 533 107
f 106 532 533
f 101 100 526
f 101 526 527
f 105 530 531
f 105 531 532
f 105 532 106
f 102 527 528
f 102 528 529
f 102 101 527
f 104 530 105
f 103 529 530
f 103 102 529
f 103 530 104
f 183 610 609
f 184 611 610
f 184 610 183
f 185 612 611
f 185 611 184
f 186 613 612
f 186 612 185
f 187 614 613
f 187 613 186
f 188 615 614
f 188 614 187
f 189 616 615
f 189 615 188
f 190 617 616
f 190 616 189
f 191 618 617
f 191 617 190
f 192 619 618
f 192 618 191
f 193 620 619
f 193 619 192
f 194 620 193
f 195 621 620
f 195 620 194
f 196 622 621
f 196 621 195
f 197 622 196
f 197 623 622
f 198 623 197
f 198 624 623
f 199 624 198
f 199 625 624
f 200 625 199
f 200 626 625
f 201 626 200
f 201 627 626
f 202 627 201
f 202 628 627
f 203 628 202
f 203 629 628
f 204 629 203
f 204 630 629
f 205 630 204
f 205 631 630
f 206 631 205
f 206 632 631
f 207 633 632
f 207 632 206
f 208 634 633
f 208 633 207
f 209 635 634
f 209 634 208
f 210 636 635
f 210 637 636
f 210 635 209
f 211 638 637
f 211 637 210
f 212 639 638
f 212 638 211
f 213 640 639
f 213 639 212
f 214 641 640
f 214 640 213
f 215 642 641
f 215 641 214
f 216 643 642
f 216 642 215
f 217 644 643
f 217 643 216
f 218 645 644
f 218 644 217
f 219 646 645
f 219 645 218
f 220 647 646
f 220 646 219
f 221 647 220
f 221 648 647
f 222 648 221
f 222 649 648
f 223 649 222
f 223 650 649
f 224 650 223
f 224 651 650
f 225 651 224
f 225 652 651
f 226 652 225
f 226 653 652
f 227 653 226
f 227 654 653
f 228 654 227
f 228 655 654
f 229 655 228
f 229 656 655
f 230 656 229
f 230 657 656
f 231 657 230
f 231 658 657
f 232 658 231
f 232 659 658
f 233 659 232
f 233 660 659
f 234 660 233
f 234 661 660
f 235 661 234
f 235 662 661
f 236 662 235
f 236 663 662
f 237 663 236
f 237 664 663
f 238 664 237
f 238 665 664
f 239 665 238
f 239 666 665
f 240 667 666
f 240 666 239
f 241 668 667
f 241 667 240
f 242 669 668
f 242 668 241
f 243 670 669
f 243 669 242
f 244 671 670
f 244 670 243
f 245 672 671
f 245 671 244
f 246 672 245
f 246 673 672
f 247 673 246
f 247 674 673
f 248 674 247
f 248 675 674
f 249 675 248
f 249 676 675
f 250 676 249
f 250 677 676
f 251 677 250
f 251 678 677
f 252 678 251
f 252 679 678
f 253 679 252
f 253 680 679
f 254 680 253
f 254 681 680
f 255 681 254
f 255 682 681
f 256 682 255
f 256 683 682
f 257 683 256
f 257 684 683
f 258 684 257
f 258 685 684
f 259 685 258
f 259 686 685
f 260 686 259
f 260 687 686
f 261 688 687
f 261 687 260
f 262 689 688
f 262 688 261
f 263 690 689
f 263 689 262
f 264 691 690
f 264 690 263
f 265 692 691
f 265 691 264
f 266 693 692
f 266 692 265
f 267 694 693
f 267 693 266
f 268 695 694
f 268 694 267
f 269 696 695
f 269 695 268
f 270 697 696
f 270 696 269
f 271 698 697
f 271 697 270
f 272 699 698
f 272 698 271
f 273 699 272
f 273 700 699
f 274 701 700
f 274 700 273
f 275 702 701
f 275 701 274
f 276 703 702
f 276 702 275
f 277 704 703
f 277 703 276
f 278 705 704
f 278 704 277
f 279 706 705
f 279 705 278
f 280 707 706
f 280 706 279
f 281 708 707
f 281 707 280
f 282 709 708
f 282 708 281
f 283 710 709
f 283 709 282
f 284 711 710
f 284 710 283
f 285 712 711
f 285 711 284
f 286 713 712
f 286 712 285
f 287 714 713
f 287 713 286
f 288 715 714
f 288 716 715
f 288 714 287
f 289 717 716
f 289 716 288
f 290 718 717
f 290 717 289
f 291 718 290
f 291 719 718
f 292 720 719
f 292 719 291
f 293 721 720
f 293 720 292
f 294 722 721
f 294 721 293
f 295 723 722
f 295 722 294
f 296 723 295
f 296 724 723
f 297 724 296
f 297 725 724
f 298 725 297
f 298 726 725
f 299 726 298
f 299 727 726
f 300 727 299
f 300 728 727
f 301 728 300
f 301 729 728
f 302 729 301
f 302 730 729
f 303 730 302
f 303 731 730
f 304 731 303
f 304 609 731
f 183 609 304
f 305 733 732
f 306 734 733
f 306 733 305
f 307 735 734
f 307 734 306
f 308 736 735
f 308 735 307
f 309 737 736
f 309 736 308
f 310 738 737
f 310 737 309
f 311 739 738
f 311 738 310
f 312 740 739
f 312 739 311
f 313 741 740
f 313 740 312
f 314 742 741
f 314 741 313
f 315 743 742
f 315 742 314
f 316 743 315
f 317 744 743
f 317 743 316
f 318 745 744
f 318 744 317
f 319 745 318
f 319 746 745
f 320 746 319
f 320 747 746
f 321 747 320
f 321 748 747
f 322 748 321
f 322 749 748
f 323 749 322
f 323 750 749
f 324 750 323
f 324 751 750
f 325 751 324
f 325 752 751
f 326 752 325
f 326 753 752
f 327 753 326
f 327 754 753
f 328 754 327
f 328 755 754
f 329 756 755
f 329 755 328
f 330 757 756
f 330 756 329
f 331 758 757
f 331 757 330
f 332 759 758
f 332 760 759
f 332 758 331
f 333 761 760
f 333 760 332
f 334 762 761
f 334 761 333
f 335 763 762
f 335 762 334
f 336 764 763
f 336 763 335
f 337 765 764
f 337 764 336
f 338 766 765
f 338 765 337
f 339 767 766
f 339 766 338
f 340 768 767
f 340 767 339
f 341 769 768
f 341 768 340
f 342 770 769
f 342 769 341
f 343 770 342
f 343 771 770
f 344 771 343
f 344 772 771
f 345 772 344
f 345 773 772
f 346 773 345
f 346 774 773
f 347 774 346
f 347 775 774
f 348 775 347
f 348 776 775
f 349 776 348
f 349 777 776
f 350 777 349
f 350 778 777
f 351 778 350
f 351 779 778
f 352 779 351
f 352 780 779
f 353 780 352
f 353 781 780
f 354 781 353
f 354 782 781
f 355 782 354
f 355 783 782
f 356 783 355
f 356 784 783
f 357 784 356
f 357 785 784
f 358 785 357
f 358 786 785
f 359 786 358
f 359 787 786
f 360 787 359
f 360 788 787
f 361 788 360
f 361 789 788
f 362 790 789
f 362 789 361
f 363 791 790
f 363 790 362
f 364 792 791
f 364 791 363
f 365 793 792
f 365 792 364
f 366 794 793
f 366 793 365
f 367 795 794
f 367 794 366
f 368 795 367
f 368 796 795
f 369 796 368
f 369 797 796
f 370 797 369
f 370 798 797
f 371 798 370
f 371 799 798
f 372 799 371
f 372 800 799
f 373 800 372
f 373 801 800
f 374 801 373
f 374 802 801
f 375 802 374
f 375 803 802
f 376 803 375
f 376 804 803
f 377 804 376
f 377 805 804
f 378 805 377
f 378 806 805
f 379 806 378
f 379 807 806
f 380 807 379
f 380 808 807
f 381 808 380
f 381 809 808
f 382 809 381
f 382 810 809
f 383 811 810
f 383 810 382
f 384 812 811
f 384 811 383
f 385 813 812
f 385 812 384
f 386 814 813
f 386 813 385
f 387 815 814
f 387 814 386
f 388 816 815
f 388 815 387
f 389 817 816
f 389 816 388
f 390 818 817
f 390 817 389
f 391 819 818
f 391 818 390
f 392 820 819
f 392 819 391
f 393 821 820
f 393 820 392
f 394 822 821
f 394 821 393
f 395 822 394
f 395 823 822
f 396 824 823
f 396 823 395
f 397 825 824
f 397 824 396
f 398 826 825
f 398 825 397
f 399 827 826
f 399 826 398
f 400 828 827
f 400 827 399
f 401 829 828
f 401 828 400
f 402 830 829
f 402 829 401
f 403 831 830
f 403 830 402
f 404 832 831
f 404 831 403
f 405 833 832
f 405 832 404
f 406 834 833
f 406 833 405
f 407 835 834
f 407 834 406
f 408 836 835
f 408 835 407
f 409 837 836
f 409 836 408
f 410 838 837
f 410 839 838
f 410 837 409
f 411 840 839
f 411 839 410
f 412 841 840
f 412 840 411
f 413 841 412
f 413 842 841
f 414 843 842
f 414 842 413
f 415 844 843
f 415 843 414
f 416 845 844
f 416 844 415
f 417 846 845
f 417 845 416
f 418 846 417
f 418 847 846
f 419 847 418
f 419 848 847
f 420 848 419
f 420 849 848
f 421 849 420
f 421 850 849
f 422 850 421
f 422 851 850
f 423 851 422
f 423 852 851
f 424 852 423
f 424 853 852
f 425 853 424
f 425 854 853
f 426 854 425
f 426 732 854
f 305 732 426
f 428 519 518
f 428 518 427
f 429 520 519
f 429 519 428
f 430 521 520
f 430 520 429
f 431 522 521
f 431 521 430
f 432 523 522
f 432 522 431
f 433 524 523
f 433 523 432
f 434 525 524
f 434 524 433
f 435 526 525
f 435 527 526
f 435 525 434
f 436 527 435
f 437 528 527
f 437 529 528
f 437 527 436
f 438 529 437
f 439 530 529
f 439 529 438
f 440 531 530
f 440 532 531
f 440 530 439
f 441 532 440
f 442 533 532
f 442 532 441
f 443 534 533
f 443 533 442
f 444 535 534
f 444 534 443
f 609 610 537
f 609 537 536
f 611 537 610
f 731 609 536
f 612 537 611
f 613 537 612
f 614 537 613
f 615 537 614
f 616 537 615
f 617 537 616
f 618 537 617
f 538 537 618
f 619 538 618
f 445 731 536
f 445 536 535
f 445 535 444
f 620 538 619
f 621 538 620
f 622 538 621
f 623 538 622
f 733 730 731
f 733 731 445
f 732 733 445
f 734 728 729
f 734 729 730
f 734 730 733
f 854 732 445
f 735 727 728
f 735 728 734
f 736 727 735
f 736 725 726
f 736 726 727
f 737 725 736
f 737 724 725
f 624 538 623
f 738 724 737
f 738 722 723
f 738 723 724
f 739 722 738
f 739 721 722
f 539 538 624
f 446 846 847
f 446 847 848
f 446 848 849
f 446 849 850
f 446 850 851
f 446 851 852
f 446 852 853
f 446 853 854
f 446 854 445
f 625 539 624
f 740 721 739
f 740 719 720
f 740 720 721
f 845 846 446
f 844 845 446
f 741 719 740
f 741 718 719
f 626 539 625
f 843 844 446
f 742 718 741
f 742 716 717
f 742 717 718
f 842 843 446
f 627 539 626
f 743 716 742
f 743 715 716
f 744 715 743
f 744 713 714
f 744 714 715
f 628 539 627
f 745 713 744
f 745 712 713
f 746 712 745
f 746 711 712
f 540 628 629
f 540 539 628
f 447 837 838
f 447 838 839
f 447 839 840
f 447 840 841
f 447 841 842
f 447 842 446
f 836 837 447
f 747 711 746
f 747 709 710
f 747 710 711
f 630 540 629
f 835 836 447
f 748 708 709
f 748 709 747
f 834 835 447
f 631 540 630
f 749 708 748
f 749 707 708
f 632 540 631
f 750 707 749
f 750 706 707
f 751 706 750
f 751 704 705
f 751 705 706
f 541 540 632
f 541 632 633
f 634 541 633
f 448 831 832
f 448 832 833
f 448 833 834
f 448 834 447
f 830 831 448
f 829 830 448
f 635 541 634
f 752 704 751
f 752 703 704
f 828 829 448
f 636 541 635
f 753 703 752
f 753 702 703
f 637 541 636
f 754 702 753
f 754 701 702
f 755 701 754
f 755 700 701
f 542 637 638
f 542 541 637
f 449 828 448
f 449 826 827
f 449 827 828
f 825 826 449
f 639 542 638
f 756 700 755
f 756 699 700
f 824 825 449
f 640 542 639
f 757 699 756
f 757 698 699
f 823 824 449
f 641 542 640
f 758 697 698
f 758 698 757
f 642 542 641
f 759 696 697
f 759 697 758
f 760 696 759
f 760 695 696
f 543 642 643
f 543 643 644
f 543 542 642
f 450 823 449
f 450 821 822
f 450 822 823
f 820 821 450
f 645 543 644
f 761 695 760
f 761 694 695
f 819 820 450
f 646 543 645
f 762 694 761
f 762 693 694
f 647 543 646
f 818 819 450
f 763 693 762
f 763 692 693
f 648 543 647
f 649 543 648
f 764 692 763
f 764 691 692
f 765 691 764
f 765 690 691
f 544 649 650
f 544 650 651
f 544 543 649
f 451 818 450
f 451 816 817
f 451 817 818
f 815 816 451
f 652 544 651
f 766 690 765
f 766 689 690
f 653 544 652
f 814 815 451
f 767 689 766
f 767 688 689
f 654 544 653
f 655 544 654
f 813 814 451
f 768 687 688
f 768 688 767
f 656 544 655
f 657 544 656
f 769 686 687
f 769 687 768
f 658 544 657
f 659 544 658
f 660 544 659
f 770 686 769
f 770 685 686
f 771 685 770
f 771 684 685
f 545 544 660
f 545 660 661
f 545 661 662
f 545 662 663
f 545 663 664
f 545 664 665
f 545 665 666
f 545 666 667
f 452 810 811
f 452 811 812
f 452 812 813
f 452 813 451
f 809 810 452
f 772 684 771
f 772 683 684
f 808 809 452
f 773 683 772
f 773 682 683
f 807 808 452
f 774 681 682
f 774 682 773
f 775 681 774
f 775 680 681
f 776 679 680
f 776 680 775
f 777 678 679
f 777 679 776
f 778 678 777
f 778 677 678
f 779 676 677
f 779 677 778
f 780 675 676
f 780 676 779
f 781 674 675
f 781 675 780
f 546 545 667
f 782 673 674
f 782 674 781
f 453 807 452
f 453 799 800
f 453 800 801
f 453 801 802
f 453 802 803
f 453 803 804
f 453 804 805
f 453 805 806
f 453 806 807
f 783 672 673
f 783 673 782
f 798 799 453
f 784 671 672
f 784 672 783
f 797 798 453
f 785 671 784
f 785 670 671
f 796 797 453
f 786 670 785
f 786 669 670
f 787 669 786
f 787 668 669
f 788 668 787
f 788 667 668
f 454 796 453
f 454 667 788
f 454 788 789
f 454 789 790
f 454 790 791
f 454 791 792
f 454 792 793
f 454 793 794
f 454 794 795
f 454 795 796
f 455 667 454
f 455 546 667
f 456 546 455
f 456 547 546
f 457 548 547
f 457 549 548
f 457 547 456
f 458 549 457
f 459 550 549
f 459 549 458
f 460 551 550
f 460 550 459
f 461 552 551
f 461 551 460
f 462 553 552
f 462 552 461
f 463 554 553
f 463 553 462
f 464 555 554
f 464 556 555
f 464 554 463
f 465 556 464
f 466 557 556
f 466 558 557
f 466 556 465
f 467 558 466
f 468 559 558
f 468 558 467
f 469 560 559
f 469 559 468
f 470 561 560
f 470 560 469
f 471 562 561
f 471 561 470
f 472 563 562
f 472 562 471
f 473 563 472
f 473 564 563
f 474 564 473
f 474 565 564
f 475 565 474
f 475 566 565
f 475 567 566
f 476 567 475
f 477 567 476
f 477 568 567
f 478 568 477
f 478 569 568
f 478 570 569
f 479 570 478
f 480 570 479
f 480 571 570
f 481 571 480
f 481 572 571
f 482 572 481
f 482 573 572
f 483 573 482
f 483 574 573
f 484 574 483
f 484 575 574
f 484 576 575
f 485 576 484
f 486 576 485
f 486 577 576
f 487 577 486
f 487 578 577
f 487 579 578
f 488 579 487
f 489 580 579
f 489 579 488
f 490 581 580
f 490 580 489
f 491 582 581
f 491 581 490
f 492 583 582
f 492 582 491
f 493 584 583
f 493 583 492
f 494 585 584
f 494 584 493
f 495 586 585
f 495 585 494
f 496 587 586
f 496 586 495
f 497 588 587
f 497 589 588
f 497 587 496
f 498 589 497
f 499 589 498
f 499 590 589
f 500 590 499
f 500 591 590
f 501 591 500
f 501 592 591
f 502 592 501
f 502 593 592
f 503 593 502
f 503 594 593
f 504 594 503
f 504 595 594
f 505 595 504
f 505 596 595
f 506 596 505
f 506 597 596
f 507 597 506
f 507 598 597
f 508 598 507
f 508 599 598
f 508 600 599
f 509 600 508
f 510 600 509
f 510 601 600
f 511 601 510
f 511 602 601
f 512 602 511
f 512 603 602
f 512 604 603
f 513 604 512
f 514 604 513
f 514 605 604
f 515 605 514
f 515 606 605
f 516 606 515
f 516 607 606
f 517 607 516
f 517 608 607
f 427 608 517
f 427 518 608
