# SimpleCAD BREP tessellation for MuJoCo
v 6.4 -1.56754790291e-15 4.8
v 6.38475054273 0.441543324188 4.8
v 6.33907484152 0.880982493358 4.8
v 6.26319056189 1.31622337975 4.8
v 6.157459327 1.74519186233 4.8
v 6.02238499432 2.16584371094 4.8
v 5.85861125456 2.57617432794 4.8
v 5.66691856418 2.97422830108 4.8
v 5.44822042614 3.35810872191 4.8
v 5.20355903666 3.72598622541 4.8
v 4.93410031869 4.07610770774 4.8
v 4.64112836572 4.4068046806 4.8
v 4.32603932253 4.7165012223 4.8
v 3.9903347319 5.0037214878 4.8
v 3.63561437908 5.26709674172 4.8
v 3.2635686681 5.50537188105 4.8
v 2.87597056619 5.71741141623 4.8
v 2.47466715483 5.90220488232 4.8
v 2.06157082751 6.05887165429 4.8
v 1.63865017637 6.18666514364 4.8
v 1.2079206109 6.28497635618 4.8
v 0.771434753634 6.35333679423 4.8
v 0.331272658459 6.39142068915 4.8
v -0.110468101794 6.39904655386 4.8
v -0.551682431236 6.37617804763 4.8
v -0.990267742658 6.3229241493 4.8
v -1.42413397732 6.23953863796 4.8
v -1.85121356503 6.12641888354 4.8
v -2.26947127707 5.98410395319 4.8
v -2.67691392496 5.81327204235 4.8
v -3.07159985894 5.61473724288 4.8
v -3.45164822079 5.38944566351 4.8
v -3.815247907 5.13847092121 4.8
v -4.16066619948 4.86300902493 4.8
v -4.48625702276 4.56437267604 4.8
v -4.7904687883 4.24398501274 4.8
v -5.07185178849 3.90337282816 4.8
v -5.3290651052 3.54415929447 4.8
v -5.56088299984 3.16805622773 4.8
v -5.76620075458 2.77685593035 4.8
v -5.9440399368 2.37242264989 4.8
v -6.09355306183 1.9566836951 4.8
v -6.21402763153 1.53162025144 4.8
v -6.30488952971 1.09925793978 4.8
v -6.36570575805 0.661657163446 4.8
v -6.39618649953 0.220903289406 4.8
v -6.39618649953 -0.220903289406 4.8
v -6.36570575805 -0.661657163446 4.8
v -6.30488952971 -1.09925793978 4.8
v -6.21402763153 -1.53162025144 4.8
v -6.09355306183 -1.9566836951 4.8
v -5.9440399368 -2.37242264989 4.8
v -5.76620075458 -2.77685593035 4.8
v -5.56088299984 -3.16805622773 4.8
v -5.3290651052 -3.54415929447 4.8
v -5.07185178849 -3.90337282816 4.8
v -4.7904687883 -4.24398501274 4.8
v -4.48625702276 -4.56437267604 4.8
v -4.16066619948 -4.86300902493 4.8
v -3.815247907 -5.13847092121 4.8
v -3.45164822079 -5.38944566351 4.8
v -3.07159985894 -5.61473724288 4.8
v -2.67691392496 -5.81327204235 4.8
v -2.26947127707 -5.98410395319 4.8
v -1.85121356503 -6.12641888354 4.8
v -1.42413397732 -6.23953863796 4.8
v -0.990267742658 -6.3229241493 4.8
v -0.551682431236 -6.37617804763 4.8
v -0.110468101794 -6.39904655386 4.8
v 0.331272658459 -6.39142068915 4.8
v 0.771434753634 -6.35333679423 4.8
v 1.2079206109 -6.28497635618 4.8
v 1.63865017637 -6.18666514364 4.8
v 2.06157082751 -6.05887165429 4.8
v 2.47466715483 -5.90220488232 4.8
v 2.87597056619 -5.71741141623 4.8
v 3.2635686681 -5.50537188105 4.8
v 3.63561437908 -5.26709674172 4.8
v 3.9903347319 -5.0037214878 4.8
v 4.32603932253 -4.7165012223 4.8
v 4.64112836572 -4.4068046806 4.8
v 4.93410031869 -4.07610770774 4.8
v 5.20355903666 -3.72598622541 4.8
v 5.44822042614 -3.35810872191 4.8
v 5.66691856418 -2.97422830108 4.8
v 5.85861125456 -2.57617432794 4.8
v 6.02238499432 -2.16584371094 4.8
v 6.157459327 -1.74519186233 4.8
v 6.26319056189 -1.31622337975 4.8
v 6.33907484152 -0.880982493358 4.8
v 6.38475054273 -0.441543324188 4.8
v 6.4 -1.56754790291e-15 0
v 6.38475054273 0.441543324188 0
v 6.33907484152 0.880982493358 0
v 6.26319056189 1.31622337975 0
v 6.157459327 1.74519186233 0
v 6.02238499432 2.16584371094 0
v 5.85861125456 2.57617432794 0
v 5.66691856418 2.97422830108 0
v 5.44822042614 3.35810872191 0
v 5.20355903666 3.72598622541 0
v 4.93410031869 4.07610770774 0
v 4.64112836572 4.4068046806 0
v 4.32603932253 4.7165012223 0
v 3.9903347319 5.0037214878 0
v 3.63561437908 5.26709674172 0
v 3.2635686681 5.50537188105 0
v 2.87597056619 5.71741141623 0
v 2.47466715483 5.90220488232 0
v 2.06157082751 6.05887165429 0
v 1.63865017637 6.18666514364 0
v 1.2079206109 6.28497635618 0
v 0.771434753634 6.35333679423 0
v 0.331272658459 6.39142068915 0
v -0.110468101794 6.39904655386 0
v -0.551682431236 6.37617804763 0
v -0.990267742658 6.3229241493 0
v -1.42413397732 6.23953863796 0
v -1.85121356503 6.12641888354 0
v -2.26947127707 5.98410395319 0
v -2.67691392496 5.81327204235 0
v -3.07159985894 5.61473724288 0
v -3.45164822079 5.38944566351 0
v -3.815247907 5.13847092121 0
v -4.16066619948 4.86300902493 0
v -4.48625702276 4.56437267604 0
v -4.7904687883 4.24398501274 0
v -5.07185178849 3.90337282816 0
v -5.3290651052 3.54415929447 0
v -5.56088299984 3.16805622773 0
v -5.76620075458 2.77685593035 0
v -5.9440399368 2.37242264989 0
v -6.09355306183 1.9566836951 0
v -6.21402763153 1.53162025144 0
v -6.30488952971 1.09925793978 0
v -6.36570575805 0.661657163446 0
v -6.39618649953 0.220903289406 0
v -6.39618649953 -0.220903289406 0
v -6.36570575805 -0.661657163446 0
v -6.30488952971 -1.09925793978 0
v -6.21402763153 -1.53162025144 0
v -6.09355306183 -1.9566836951 0
v -5.9440399368 -2.37242264989 0
v -5.76620075458 -2.77685593035 0
v -5.56088299984 -3.16805622773 0
v -5.3290651052 -3.54415929447 0
v -5.07185178849 -3.90337282816 0
v -4.7904687883 -4.24398501274 0
v -4.48625702276 -4.56437267604 0
v -4.16066619948 -4.86300902493 0
v -3.815247907 -5.13847092121 0
v -3.45164822079 -5.38944566351 0
v -3.07159985894 -5.61473724288 0
v -2.67691392496 -5.81327204235 0
v -2.26947127707 -5.98410395319 0
v -1.85121356503 -6.12641888354 0
v -1.42413397732 -6.23953863796 0
v -0.990267742658 -6.3229241493 0
v -0.551682431236 -6.37617804763 0
v -0.110468101794 -6.39904655386 0
v 0.331272658459 -6.39142068915 0
v 0.771434753634 -6.35333679423 0
v 1.2079206109 -6.28497635618 0
v 1.63865017637 -6.18666514364 0
v 2.06157082751 -6.05887165429 0
v 2.47466715483 -5.90220488232 0
v 2.87597056619 -5.71741141623 0
v 3.2635686681 -5.50537188105 0
v 3.63561437908 -5.26709674172 0
v 3.9903347319 -5.0037214878 0
v 4.32603932253 -4.7165012223 0
v 4.64112836572 -4.4068046806 0
v 4.93410031869 -4.07610770774 0
v 5.20355903666 -3.72598622541 0
v 5.44822042614 -3.35810872191 0
v 5.66691856418 -2.97422830108 0
v 5.85861125456 -2.57617432794 0
v 6.02238499432 -2.16584371094 0
v 6.157459327 -1.74519186233 0
v 6.26319056189 -1.31622337975 0
v 6.33907484152 -0.880982493358 0
v 6.38475054273 -0.441543324188 0
v 1.8 -4.40872847693e-16 4.8
v 1.79571109014 0.124184059928 4.8
v 1.78286479918 0.247776326257 4.8
v 1.76152234553 0.370187825555 4.8
v 1.73178543572 0.490835211281 4.8
v 1.69379577965 0.609143543701 4.8
v 1.64773441535 0.724549029732 4.8
v 1.59382084618 0.836501709679 4.8
v 1.53231199485 0.944468078038 4.8
v 1.46350097906 1.0479336259 4.8
v 1.38771571463 1.1464052928 4.8
v 1.30531735286 1.23941381642 4.8
v 1.21669855946 1.32651596877 4.8
v 1.12228164335 1.40729666844 4.8
v 1.02251654412 1.48137095861 4.8
v 0.917878687902 1.54838584154 4.8
v 0.808866721741 1.60802196081 4.8
v 0.696000137295 1.65999512315 4.8
v 0.579816795237 1.70405765277 4.8
v 0.460870362104 1.73999957165 4.8
v 0.339727671815 1.76764960018 4.8
v 0.21696602446 1.78687597338 4.8
v 0.0931704351916 1.79758706882 4.8
v -0.0310691536297 1.79973184327 4.8
v -0.155160683785 1.7933000759 4.8
v -0.278512802623 1.77832241699 4.8
v -0.400537681121 1.75487024193 4.8
v -0.520653815166 1.723055311 4.8
v -0.638288796677 1.68302923683 4.8
v -0.752882041396 1.63498276191 4.8
v -0.863887460328 1.57914484956 4.8
v -0.970776062099 1.51578159286 4.8
v -1.07303847384 1.44519494659 4.8
v -1.1701873686 1.36772128826 4.8
v -1.26175978765 1.28372981514 4.8
v -1.34731934671 1.19362078483 4.8
v -1.42645831551 1.09782360792 4.8
v -1.49879956084 0.996794801569 4.8
v -1.56399834371 0.89101581405 4.8
v -1.62174396222 0.780990730412 4.8
v -1.67176123223 0.667243870281 4.8
v -1.71381179864 0.550317289248 4.8
v -1.74769527137 0.430768195718 4.8
v -1.77325018023 0.309166295564 4.8
v -1.79035474445 0.186091077219 4.8
v -1.79892745299 0.0621290501455 4.8
v -1.79892745299 -0.0621290501455 4.8
v -1.79035474445 -0.186091077219 4.8
v -1.77325018023 -0.309166295564 4.8
v -1.74769527137 -0.430768195718 4.8
v -1.71381179864 -0.550317289248 4.8
v -1.67176123223 -0.667243870281 4.8
v -1.62174396222 -0.780990730412 4.8
v -1.56399834371 -0.89101581405 4.8
v -1.49879956084 -0.996794801569 4.8
v -1.42645831551 -1.09782360792 4.8
v -1.34731934671 -1.19362078483 4.8
v -1.26175978765 -1.28372981514 4.8
v -1.1701873686 -1.36772128826 4.8
v -1.07303847384 -1.44519494659 4.8
v -0.970776062099 -1.51578159286 4.8
v -0.863887460328 -1.57914484956 4.8
v -0.752882041396 -1.63498276191 4.8
v -0.638288796677 -1.68302923683 4.8
v -0.520653815166 -1.723055311 4.8
v -0.400537681121 -1.75487024193 4.8
v -0.278512802623 -1.77832241699 4.8
v -0.155160683785 -1.7933000759 4.8
v -0.0310691536297 -1.79973184327 4.8
v 0.0931704351916 -1.79758706882 4.8
v 0.21696602446 -1.78687597338 4.8
v 0.339727671815 -1.76764960018 4.8
v 0.460870362104 -1.73999957165 4.8
v 0.579816795237 -1.70405765277 4.8
v 0.696000137295 -1.65999512315 4.8
v 0.808866721741 -1.60802196081 4.8
v 0.917878687902 -1.54838584154 4.8
v 1.02251654412 -1.48137095861 4.8
v 1.12228164335 -1.40729666844 4.8
v 1.21669855946 -1.32651596877 4.8
v 1.30531735286 -1.23941381642 4.8
v 1.38771571463 -1.1464052928 4.8
v 1.46350097906 -1.0479336259 4.8
v 1.53231199485 -0.944468078038 4.8
v 1.59382084618 -0.836501709679 4.8
v 1.64773441535 -0.724549029732 4.8
v 1.69379577965 -0.609143543701 4.8
v 1.73178543572 -0.490835211281 4.8
v 1.76152234553 -0.370187825555 4.8
v 1.78286479918 -0.247776326257 4.8
v 1.79571109014 -0.124184059928 4.8
v 3.9 -9.55224503335e-16 0
v 3.89070736197 0.269065463177 0
v 3.86287373155 0.53684870689 0
v 3.81663174865 0.802073622035 0
v 3.75220177739 1.06347629111 0
v 3.66989085591 1.31981101135 0
v 3.57009123325 1.56985623109 0
v 3.45327850005 1.81242037097 0
v 3.32000932218 2.04634750242 0
v 3.17091878797 2.27052285611 0
v 3.0067173817 2.48387813441 0
v 2.82818759786 2.68539660224 0
v 2.63618021216 2.87411793234 0
v 2.43161022725 3.04914278163 0
v 2.21545251225 3.20963707699 0
v 1.98873715712 3.35483599001 0
v 1.75254456377 3.48404758176 0
v 1.50800029747 3.59665610016 0
v 1.25626972301 3.69212491433 0
v 0.998552451224 3.7699990719 0
v 0.736076622266 3.82990746705 0
v 0.470093052996 3.87156460898 0
v 0.201869276248 3.89477198245 0
v -0.067316499531 3.89941899376 0
v -0.336181481534 3.88548349777 0
v -0.603444405682 3.85303190348 0
v -0.86783164243 3.80221885751 0
v -1.12808326619 3.73328650716 0
v -1.38295905947 3.64656334647 0
v -1.63124442302 3.54246265081 0
v -1.87175616404 3.42148050738 0
v -2.10334813455 3.2841934512 0
v -2.32491669333 3.13125571761 0
v -2.53540596531 2.96339612456 0
v -2.73381287324 2.78141459946 0
v -2.91919191787 2.58617836714 0
v -3.09065968361 2.37861781716 0
v -3.24739904848 2.15972207007 0
v -3.38866307803 1.93053426378 0
v -3.51377858482 1.69214658256 0
v -3.62214933649 1.44569505228 0
v -3.71325889705 1.1923541267 0
v -3.78667308796 0.933331090721 0
v -3.84204205717 0.669860307056 0
v -3.87910194631 0.403197333975 0
v -3.89767614815 0.134612941982 0
v -3.89767614815 -0.134612941982 0
v -3.87910194631 -0.403197333975 0
v -3.84204205717 -0.669860307056 0
v -3.78667308796 -0.933331090721 0
v -3.71325889705 -1.1923541267 0
v -3.62214933649 -1.44569505228 0
v -3.51377858482 -1.69214658256 0
v -3.38866307803 -1.93053426378 0
v -3.24739904848 -2.15972207007 0
v -3.09065968361 -2.37861781716 0
v -2.91919191787 -2.58617836714 0
v -2.73381287324 -2.78141459946 0
v -2.53540596531 -2.96339612456 0
v -2.32491669333 -3.13125571761 0
v -2.10334813455 -3.2841934512 0
v -1.87175616404 -3.42148050738 0
v -1.63124442302 -3.54246265081 0
v -1.38295905947 -3.64656334647 0
v -1.12808326619 -3.73328650716 0
v -0.86783164243 -3.80221885751 0
v -0.603444405682 -3.85303190348 0
v -0.336181481534 -3.88548349777 0
v -0.067316499531 -3.89941899376 0
v 0.201869276248 -3.89477198245 0
v 0.470093052996 -3.87156460898 0
v 0.736076622266 -3.82990746705 0
v 0.998552451224 -3.7699990719 0
v 1.25626972301 -3.69212491433 0
v 1.50800029747 -3.59665610016 0
v 1.75254456377 -3.48404758176 0
v 1.98873715712 -3.35483599001 0
v 2.21545251225 -3.20963707699 0
v 2.43161022725 -3.04914278163 0
v 2.63618021216 -2.87411793234 0
v 2.82818759786 -2.68539660224 0
v 3.0067173817 -2.48387813441 0
v 3.17091878797 -2.27052285611 0
v 3.32000932218 -2.04634750242 0
v 3.45327850005 -1.81242037097 0
v 3.57009123325 -1.56985623109 0
v 3.66989085591 -1.31981101135 0
v 3.75220177739 -1.06347629111 0
v 3.81663174865 -0.802073622035 0
v 3.86287373155 -0.53684870689 0
v 3.89070736197 -0.269065463177 0
v 1.8 -4.40872847693e-16 2.8
v 1.79571109014 0.124184059928 2.8
v 1.78286479918 0.247776326257 2.8
v 1.76152234553 0.370187825555 2.8
v 1.73178543572 0.490835211281 2.8
v 1.69379577965 0.609143543701 2.8
v 1.64773441535 0.724549029732 2.8
v 1.59382084618 0.836501709679 2.8
v 1.53231199485 0.944468078038 2.8
v 1.46350097906 1.0479336259 2.8
v 1.38771571463 1.1464052928 2.8
v 1.30531735286 1.23941381642 2.8
v 1.21669855946 1.32651596877 2.8
v 1.12228164335 1.40729666844 2.8
v 1.02251654412 1.48137095861 2.8
v 0.917878687902 1.54838584154 2.8
v 0.808866721741 1.60802196081 2.8
v 0.696000137295 1.65999512315 2.8
v 0.579816795237 1.70405765277 2.8
v 0.460870362104 1.73999957165 2.8
v 0.339727671815 1.76764960018 2.8
v 0.21696602446 1.78687597338 2.8
v 0.0931704351916 1.79758706882 2.8
v -0.0310691536297 1.79973184327 2.8
v -0.155160683785 1.7933000759 2.8
v -0.278512802623 1.77832241699 2.8
v -0.400537681121 1.75487024193 2.8
v -0.520653815166 1.723055311 2.8
v -0.638288796677 1.68302923683 2.8
v -0.752882041396 1.63498276191 2.8
v -0.863887460328 1.57914484956 2.8
v -0.970776062099 1.51578159286 2.8
v -1.07303847384 1.44519494659 2.8
v -1.1701873686 1.36772128826 2.8
v -1.26175978765 1.28372981514 2.8
v -1.34731934671 1.19362078483 2.8
v -1.42645831551 1.09782360792 2.8
v -1.49879956084 0.996794801569 2.8
v -1.56399834371 0.89101581405 2.8
v -1.62174396222 0.780990730412 2.8
v -1.67176123223 0.667243870281 2.8
v -1.71381179864 0.550317289248 2.8
v -1.74769527137 0.430768195718 2.8
v -1.77325018023 0.309166295564 2.8
v -1.79035474445 0.186091077219 2.8
v -1.79892745299 0.0621290501455 2.8
v -1.79892745299 -0.0621290501455 2.8
v -1.79035474445 -0.186091077219 2.8
v -1.77325018023 -0.309166295564 2.8
v -1.74769527137 -0.430768195718 2.8
v -1.71381179864 -0.550317289248 2.8
v -1.67176123223 -0.667243870281 2.8
v -1.62174396222 -0.780990730412 2.8
v -1.56399834371 -0.89101581405 2.8
v -1.49879956084 -0.996794801569 2.8
v -1.42645831551 -1.09782360792 2.8
v -1.34731934671 -1.19362078483 2.8
v -1.26175978765 -1.28372981514 2.8
v -1.1701873686 -1.36772128826 2.8
v -1.07303847384 -1.44519494659 2.8
v -0.970776062099 -1.51578159286 2.8
v -0.863887460328 -1.57914484956 2.8
v -0.752882041396 -1.63498276191 2.8
v -0.638288796677 -1.68302923683 2.8
v -0.520653815166 -1.723055311 2.8
v -0.400537681121 -1.75487024193 2.8
v -0.278512802623 -1.77832241699 2.8
v -0.155160683785 -1.7933000759 2.8
v -0.0310691536297 -1.79973184327 2.8
v 0.0931704351916 -1.79758706882 2.8
v 0.21696602446 -1.78687597338 2.8
v 0.339727671815 -1.76764960018 2.8
v 0.460870362104 -1.73999957165 2.8
v 0.579816795237 -1.70405765277 2.8
v 0.696000137295 -1.65999512315 2.8
v 0.808866721741 -1.60802196081 2.8
v 0.917878687902 -1.54838584154 2.8
v 1.02251654412 -1.48137095861 2.8
v 1.12228164335 -1.40729666844 2.8
v 1.21669855946 -1.32651596877 2.8
v 1.30531735286 -1.23941381642 2.8
v 1.38771571463 -1.1464052928 2.8
v 1.46350097906 -1.0479336259 2.8
v 1.53231199485 -0.944468078038 2.8
v 1.59382084618 -0.836501709679 2.8
v 1.64773441535 -0.724549029732 2.8
v 1.69379577965 -0.609143543701 2.8
v 1.73178543572 -0.490835211281 2.8
v 1.76152234553 -0.370187825555 2.8
v 1.78286479918 -0.247776326257 2.8
v 1.79571109014 -0.124184059928 2.8
v 3.9 -9.55224503335e-16 -24
v 3.89070736197 0.269065463177 -24
v 3.86287373155 0.53684870689 -24
v 3.81663174865 0.802073622035 -24
v 3.75220177739 1.06347629111 -24
v 3.66989085591 1.31981101135 -24
v 3.57009123325 1.56985623109 -24
v 3.45327850005 1.81242037097 -24
v 3.32000932218 2.04634750242 -24
v 3.17091878797 2.27052285611 -24
v 3.0067173817 2.48387813441 -24
v 2.82818759786 2.68539660224 -24
v 2.63618021216 2.87411793234 -24
v 2.43161022725 3.04914278163 -24
v 2.21545251225 3.20963707699 -24
v 1.98873715712 3.35483599001 -24
v 1.75254456377 3.48404758176 -24
v 1.50800029747 3.59665610016 -24
v 1.25626972301 3.69212491433 -24
v 0.998552451224 3.7699990719 -24
v 0.736076622266 3.82990746705 -24
v 0.470093052996 3.87156460898 -24
v 0.201869276248 3.89477198245 -24
v -0.067316499531 3.89941899376 -24
v -0.336181481534 3.88548349777 -24
v -0.603444405682 3.85303190348 -24
v -0.86783164243 3.80221885751 -24
v -1.12808326619 3.73328650716 -24
v -1.38295905947 3.64656334647 -24
v -1.63124442302 3.54246265081 -24
v -1.87175616404 3.42148050738 -24
v -2.10334813455 3.2841934512 -24
v -2.32491669333 3.13125571761 -24
v -2.53540596531 2.96339612456 -24
v -2.73381287324 2.78141459946 -24
v -2.91919191787 2.58617836714 -24
v -3.09065968361 2.37861781716 -24
v -3.24739904848 2.15972207007 -24
v -3.38866307803 1.93053426378 -24
v -3.51377858482 1.69214658256 -24
v -3.62214933649 1.44569505228 -24
v -3.71325889705 1.1923541267 -24
v -3.78667308796 0.933331090721 -24
v -3.84204205717 0.669860307056 -24
v -3.87910194631 0.403197333975 -24
v -3.89767614815 0.134612941982 -24
v -3.89767614815 -0.134612941982 -24
v -3.87910194631 -0.403197333975 -24
v -3.84204205717 -0.669860307056 -24
v -3.78667308796 -0.933331090721 -24
v -3.71325889705 -1.1923541267 -24
v -3.62214933649 -1.44569505228 -24
v -3.51377858482 -1.69214658256 -24
v -3.38866307803 -1.93053426378 -24
v -3.24739904848 -2.15972207007 -24
v -3.09065968361 -2.37861781716 -24
v -2.91919191787 -2.58617836714 -24
v -2.73381287324 -2.78141459946 -24
v -2.53540596531 -2.96339612456 -24
v -2.32491669333 -3.13125571761 -24
v -2.10334813455 -3.2841934512 -24
v -1.87175616404 -3.42148050738 -24
v -1.63124442302 -3.54246265081 -24
v -1.38295905947 -3.64656334647 -24
v -1.12808326619 -3.73328650716 -24
v -0.86783164243 -3.80221885751 -24
v -0.603444405682 -3.85303190348 -24
v -0.336181481534 -3.88548349777 -24
v -0.067316499531 -3.89941899376 -24
v 0.201869276248 -3.89477198245 -24
v 0.470093052996 -3.87156460898 -24
v 0.736076622266 -3.82990746705 -24
v 0.998552451224 -3.7699990719 -24
v 1.25626972301 -3.69212491433 -24
v 1.50800029747 -3.59665610016 -24
v 1.75254456377 -3.48404758176 -24
v 1.98873715712 -3.35483599001 -24
v 2.21545251225 -3.20963707699 -24
v 2.43161022725 -3.04914278163 -24
v 2.63618021216 -2.87411793234 -24
v 2.82818759786 -2.68539660224 -24
v 3.0067173817 -2.48387813441 -24
v 3.17091878797 -2.27052285611 -24
v 3.32000932218 -2.04634750242 -24
v 3.45327850005 -1.81242037097 -24
v 3.57009123325 -1.56985623109 -24
v 3.66989085591 -1.31981101135 -24
v 3.75220177739 -1.06347629111 -24
v 3.81663174865 -0.802073622035 -24
v 3.86287373155 -0.53684870689 -24
v 3.89070736197 -0.269065463177 -24
f 2 1 92
f 2 92 93
f 3 93 94
f 3 2 93
f 4 94 95
f 4 3 94
f 5 4 95
f 5 95 96
f 6 5 96
f 6 96 97
f 7 6 97
f 7 97 98
f 7 98 99
f 8 7 99
f 9 8 99
f 9 99 100
f 10 100 101
f 10 9 100
f 11 101 102
f 11 10 101
f 12 102 103
f 12 11 102
f 13 103 104
f 13 12 103
f 14 104 105
f 14 105 106
f 14 13 104
f 15 106 107
f 15 14 106
f 16 15 107
f 17 107 108
f 17 16 107
f 18 108 109
f 18 17 108
f 19 109 110
f 19 110 111
f 19 18 109
f 20 111 112
f 20 19 111
f 21 20 112
f 22 112 113
f 22 21 112
f 23 113 114
f 23 22 113
f 24 114 115
f 24 115 116
f 24 23 114
f 25 24 116
f 26 116 117
f 26 25 116
f 27 117 118
f 27 26 117
f 28 118 119
f 28 119 120
f 28 27 118
f 29 28 120
f 30 29 120
f 30 120 121
f 31 30 121
f 31 121 122
f 32 31 122
f 32 122 123
f 33 32 123
f 33 123 124
f 34 33 124
f 34 124 125
f 35 34 125
f 35 125 126
f 36 126 127
f 36 127 128
f 36 35 126
f 37 36 128
f 38 128 129
f 38 37 128
f 39 129 130
f 39 38 129
f 40 130 131
f 40 131 132
f 40 39 130
f 41 40 132
f 42 132 133
f 42 41 132
f 43 133 134
f 43 134 135
f 43 42 133
f 44 43 135
f 45 135 136
f 45 44 135
f 46 136 137
f 46 137 138
f 46 45 136
f 47 138 139
f 47 46 138
f 48 139 140
f 48 47 139
f 49 48 140
f 50 140 141
f 50 49 140
f 51 141 142
f 51 50 141
f 52 142 143
f 52 143 144
f 52 51 142
f 53 144 145
f 53 52 144
f 54 145 146
f 54 53 145
f 55 54 146
f 56 55 146
f 56 146 147
f 56 147 148
f 57 56 148
f 58 57 148
f 58 148 149
f 58 149 150
f 59 58 150
f 59 150 151
f 60 59 151
f 61 60 151
f 61 151 152
f 62 61 152
f 62 152 153
f 62 153 154
f 63 62 154
f 64 63 154
f 64 154 155
f 65 64 155
f 65 155 156
f 66 65 156
f 66 156 157
f 67 66 157
f 67 157 158
f 68 67 158
f 68 158 159
f 68 159 160
f 69 68 160
f 70 69 160
f 70 160 161
f 71 161 162
f 71 70 161
f 72 162 163
f 72 71 162
f 73 163 164
f 73 164 165
f 73 72 163
f 74 73 165
f 75 165 166
f 75 74 165
f 76 166 167
f 76 75 166
f 77 167 168
f 77 76 167
f 78 168 169
f 78 77 168
f 79 169 170
f 79 170 171
f 79 78 169
f 80 79 171
f 81 80 171
f 81 171 172
f 82 81 172
f 82 172 173
f 83 82 173
f 83 173 174
f 84 83 174
f 84 174 175
f 84 175 176
f 85 84 176
f 85 176 177
f 86 85 177
f 86 177 178
f 87 86 178
f 88 87 178
f 88 178 179
f 89 88 179
f 89 179 180
f 90 89 180
f 90 180 181
f 91 90 181
f 91 181 182
f 1 91 182
f 1 182 92
f 239 58 240
f 239 56 57
f 239 57 58
f 241 240 58
f 241 58 59
f 238 56 239
f 242 59 60
f 242 241 59
f 242 60 61
f 237 55 56
f 237 56 238
f 243 242 61
f 236 55 237
f 236 54 55
f 244 61 62
f 244 243 61
f 235 54 236
f 235 53 54
f 245 244 62
f 245 62 63
f 245 63 64
f 234 52 53
f 234 53 235
f 246 245 64
f 233 52 234
f 233 51 52
f 247 64 65
f 247 246 64
f 232 51 233
f 232 50 51
f 248 65 66
f 248 66 67
f 248 247 65
f 231 50 232
f 231 49 50
f 249 248 67
f 230 49 231
f 230 48 49
f 250 67 68
f 250 68 69
f 250 249 67
f 229 48 230
f 229 47 48
f 251 250 69
f 228 46 47
f 228 47 229
f 252 69 70
f 252 251 69
f 227 46 228
f 227 45 46
f 253 252 70
f 253 70 71
f 226 45 227
f 226 44 45
f 254 71 72
f 254 253 71
f 225 44 226
f 225 43 44
f 255 72 73
f 255 254 72
f 224 43 225
f 224 42 43
f 256 255 73
f 256 73 74
f 223 42 224
f 223 41 42
f 257 256 74
f 257 74 75
f 222 41 223
f 222 40 41
f 258 257 75
f 258 75 76
f 221 39 40
f 221 40 222
f 259 258 76
f 259 76 77
f 220 38 39
f 220 39 221
f 260 259 77
f 260 77 78
f 219 36 37
f 219 37 38
f 219 38 220
f 261 260 78
f 261 78 79
f 218 36 219
f 262 261 79
f 262 79 80
f 35 218 217
f 35 36 218
f 81 262 80
f 81 263 262
f 264 263 81
f 34 216 215
f 34 217 216
f 34 35 217
f 82 264 81
f 33 34 215
f 83 265 264
f 83 264 82
f 32 33 215
f 32 215 214
f 84 266 265
f 84 265 83
f 31 213 212
f 31 214 213
f 31 32 214
f 85 266 84
f 85 267 266
f 30 31 212
f 86 267 85
f 86 268 267
f 29 212 211
f 29 30 212
f 87 269 268
f 87 270 269
f 87 268 86
f 28 211 210
f 28 29 211
f 88 270 87
f 27 210 209
f 27 28 210
f 89 270 88
f 89 271 270
f 26 209 208
f 26 27 209
f 90 272 271
f 90 271 89
f 25 207 206
f 25 208 207
f 25 26 208
f 91 273 272
f 91 183 273
f 91 272 90
f 24 25 206
f 1 183 91
f 23 205 204
f 23 206 205
f 23 24 206
f 2 183 1
f 2 184 183
f 22 23 204
f 3 184 2
f 3 185 184
f 3 186 185
f 21 22 204
f 21 203 202
f 21 204 203
f 4 186 3
f 20 21 202
f 5 186 4
f 5 187 186
f 19 202 201
f 19 20 202
f 6 187 5
f 6 188 187
f 6 189 188
f 18 201 200
f 18 19 201
f 7 189 6
f 17 200 199
f 17 18 200
f 8 189 7
f 8 190 189
f 16 17 199
f 16 198 197
f 16 199 198
f 9 190 8
f 9 191 190
f 9 192 191
f 15 16 197
f 10 192 9
f 14 197 196
f 14 15 197
f 11 193 192
f 11 192 10
f 13 196 195
f 13 14 196
f 12 194 193
f 12 195 194
f 12 193 11
f 12 13 195
f 330 331 149
f 330 149 148
f 332 149 331
f 332 150 149
f 329 330 148
f 329 148 147
f 333 150 332
f 333 151 150
f 328 329 147
f 328 146 145
f 328 147 146
f 334 151 333
f 334 152 151
f 327 328 145
f 327 145 144
f 335 153 152
f 335 152 334
f 326 327 144
f 336 153 335
f 336 154 153
f 325 144 143
f 325 326 144
f 337 155 154
f 337 154 336
f 324 143 142
f 324 325 143
f 338 155 337
f 338 156 155
f 323 142 141
f 323 324 142
f 339 157 156
f 339 156 338
f 322 323 141
f 322 140 139
f 322 141 140
f 340 157 339
f 340 158 157
f 321 322 139
f 341 159 158
f 341 158 340
f 320 138 137
f 320 139 138
f 320 321 139
f 342 159 341
f 342 160 159
f 319 320 137
f 343 161 160
f 343 162 161
f 343 160 342
f 318 137 136
f 318 319 137
f 344 162 343
f 317 318 136
f 317 135 134
f 317 136 135
f 345 162 344
f 345 163 162
f 316 317 134
f 346 163 345
f 346 164 163
f 315 316 134
f 315 134 133
f 347 164 346
f 347 165 164
f 314 315 133
f 314 133 132
f 348 165 347
f 348 166 165
f 313 314 132
f 313 132 131
f 349 166 348
f 349 167 166
f 312 313 131
f 312 131 130
f 350 167 349
f 350 168 167
f 311 312 130
f 311 130 129
f 351 168 350
f 351 169 168
f 310 311 129
f 310 129 128
f 352 169 351
f 352 170 169
f 309 128 127
f 309 310 128
f 353 170 352
f 353 171 170
f 126 308 309
f 126 309 127
f 172 171 353
f 172 353 354
f 307 308 126
f 125 307 126
f 173 172 354
f 173 354 355
f 356 173 355
f 124 306 307
f 124 307 125
f 174 356 357
f 174 173 356
f 123 305 306
f 123 306 124
f 175 357 358
f 175 174 357
f 122 304 305
f 122 305 123
f 176 175 358
f 121 303 304
f 121 304 122
f 177 176 358
f 177 358 359
f 120 301 302
f 120 302 303
f 120 303 121
f 178 177 359
f 178 359 360
f 119 301 120
f 179 178 360
f 179 360 361
f 118 300 301
f 118 301 119
f 180 179 361
f 180 361 362
f 180 362 363
f 117 298 299
f 117 299 300
f 117 300 118
f 181 180 363
f 116 297 298
f 116 298 117
f 182 181 363
f 182 363 364
f 115 296 297
f 115 297 116
f 92 364 274
f 92 182 364
f 114 296 115
f 93 274 275
f 93 92 274
f 113 294 295
f 113 295 296
f 113 296 114
f 94 93 275
f 94 275 276
f 94 276 277
f 112 294 113
f 95 94 277
f 111 293 294
f 111 294 112
f 96 95 277
f 96 277 278
f 110 292 293
f 110 293 111
f 97 96 278
f 97 278 279
f 109 290 291
f 109 291 292
f 109 292 110
f 98 97 279
f 98 279 280
f 108 290 109
f 99 98 280
f 99 280 281
f 107 289 290
f 107 290 108
f 100 99 281
f 100 281 282
f 100 282 283
f 106 289 107
f 106 288 289
f 101 100 283
f 105 286 287
f 105 287 288
f 105 288 106
f 102 283 284
f 102 101 283
f 104 286 105
f 103 284 285
f 103 285 286
f 103 102 284
f 103 286 104
f 184 365 183
f 184 366 365
f 185 367 366
f 185 366 184
f 186 368 367
f 186 367 185
f 187 368 186
f 187 369 368
f 188 369 187
f 188 370 369
f 189 370 188
f 189 371 370
f 190 371 189
f 190 372 371
f 191 372 190
f 191 373 372
f 192 374 373
f 192 375 374
f 192 373 191
f 193 375 192
f 194 376 375
f 194 375 193
f 195 377 376
f 195 376 194
f 196 378 377
f 196 377 195
f 197 379 378
f 197 378 196
f 198 380 379
f 198 379 197
f 199 381 380
f 199 380 198
f 200 382 381
f 200 381 199
f 201 383 382
f 201 384 383
f 201 382 200
f 202 384 201
f 203 385 384
f 203 384 202
f 204 386 385
f 204 385 203
f 205 387 386
f 205 386 204
f 206 388 387
f 206 389 388
f 206 387 205
f 207 389 206
f 208 390 389
f 208 389 207
f 209 391 390
f 209 390 208
f 210 392 391
f 210 391 209
f 211 393 392
f 211 394 393
f 211 392 210
f 212 394 211
f 212 395 394
f 213 395 212
f 214 395 213
f 214 396 395
f 215 396 214
f 215 397 396
f 216 397 215
f 216 398 397
f 217 398 216
f 217 399 398
f 218 400 399
f 218 399 217
f 219 401 400
f 219 400 218
f 220 402 401
f 220 401 219
f 221 403 402
f 221 402 220
f 222 404 403
f 222 405 404
f 222 403 221
f 223 405 222
f 224 406 405
f 224 407 406
f 224 405 223
f 225 408 407
f 225 407 224
f 226 408 225
f 227 409 408
f 227 408 226
f 228 410 409
f 228 409 227
f 229 411 410
f 229 412 411
f 229 410 228
f 230 413 412
f 230 412 229
f 231 413 230
f 232 414 413
f 232 413 231
f 233 415 414
f 233 414 232
f 234 416 415
f 234 417 416
f 234 415 233
f 235 417 234
f 236 418 417
f 236 417 235
f 237 419 418
f 237 418 236
f 238 419 237
f 238 420 419
f 239 420 238
f 239 421 420
f 240 421 239
f 240 422 421
f 241 422 240
f 241 423 422
f 242 423 241
f 242 424 423
f 242 425 424
f 243 425 242
f 244 425 243
f 244 426 425
f 245 426 244
f 245 427 426
f 246 427 245
f 246 428 427
f 247 428 246
f 247 429 428
f 247 430 429
f 248 430 247
f 248 431 430
f 249 431 248
f 250 431 249
f 250 432 431
f 251 432 250
f 251 433 432
f 252 433 251
f 252 434 433
f 253 435 434
f 253 434 252
f 254 436 435
f 254 437 436
f 254 435 253
f 255 438 437
f 255 437 254
f 256 438 255
f 257 439 438
f 257 438 256
f 258 440 439
f 258 441 440
f 258 439 257
f 259 441 258
f 260 442 441
f 260 441 259
f 261 443 442
f 261 442 260
f 262 443 261
f 262 444 443
f 263 444 262
f 263 445 444
f 263 446 445
f 264 446 263
f 265 446 264
f 265 447 446
f 266 447 265
f 266 448 447
f 267 448 266
f 267 449 448
f 267 450 449
f 268 450 267
f 269 450 268
f 269 451 450
f 270 451 269
f 270 452 451
f 271 452 270
f 271 453 452
f 271 454 453
f 272 454 271
f 273 454 272
f 273 455 454
f 183 455 273
f 183 365 455
f 274 456 457
f 275 274 457
f 276 457 458
f 276 275 457
f 276 458 459
f 277 276 459
f 278 277 459
f 278 459 460
f 278 460 461
f 279 278 461
f 280 279 461
f 280 461 462
f 281 280 462
f 281 462 463
f 281 463 464
f 282 281 464
f 283 464 465
f 283 282 464
f 284 465 466
f 284 283 465
f 285 466 467
f 285 284 466
f 286 467 468
f 286 468 469
f 286 285 467
f 287 286 469
f 288 469 470
f 288 470 471
f 288 287 469
f 289 288 471
f 290 471 472
f 290 289 471
f 291 472 473
f 291 290 472
f 292 473 474
f 292 291 473
f 293 474 475
f 293 475 476
f 293 292 474
f 294 293 476
f 295 476 477
f 295 477 478
f 295 294 476
f 296 295 478
f 297 478 479
f 297 479 480
f 297 296 478
f 298 297 480
f 299 480 481
f 299 298 480
f 300 481 482
f 300 482 483
f 300 299 481
f 301 300 483
f 302 483 484
f 302 301 483
f 303 484 485
f 303 302 484
f 304 303 485
f 304 485 486
f 305 304 486
f 305 486 487
f 306 305 487
f 306 487 488
f 306 488 489
f 307 306 489
f 308 307 489
f 308 489 490
f 309 490 491
f 309 308 490
f 310 491 492
f 310 309 491
f 311 492 493
f 311 310 492
f 312 493 494
f 312 494 495
f 312 311 493
f 313 312 495
f 314 495 496
f 314 313 495
f 315 496 497
f 315 314 496
f 316 497 498
f 316 315 497
f 317 498 499
f 317 499 500
f 317 316 498
f 318 317 500
f 319 500 501
f 319 318 500
f 320 501 502
f 320 502 503
f 320 319 501
f 321 503 504
f 321 320 503
f 322 321 504
f 323 504 505
f 323 322 504
f 324 505 506
f 324 323 505
f 325 506 507
f 325 324 506
f 326 507 508
f 326 325 507
f 327 508 509
f 327 326 508
f 328 509 510
f 328 327 509
f 329 328 510
f 329 510 511
f 330 329 511
f 330 511 512
f 330 512 513
f 331 330 513
f 332 331 513
f 332 513 514
f 333 332 514
f 333 514 515
f 334 333 515
f 334 515 516
f 335 334 516
f 335 516 517
f 336 335 517
f 336 517 518
f 336 518 519
f 337 336 519
f 337 519 520
f 338 337 520
f 339 338 520
f 339 520 521
f 339 521 522
f 340 339 522
f 341 340 522
f 341 522 523
f 342 341 523
f 342 523 524
f 343 342 524
f 343 524 525
f 344 525 526
f 344 343 525
f 345 526 527
f 345 527 528
f 345 344 526
f 346 345 528
f 347 528 529
f 347 529 530
f 347 346 528
f 348 347 530
f 349 530 531
f 349 348 530
f 350 531 532
f 350 532 533
f 350 349 531
f 351 533 534
f 351 350 533
f 352 351 534
f 353 534 535
f 353 352 534
f 354 353 535
f 354 535 536
f 355 354 536
f 355 536 537
f 356 355 537
f 356 537 538
f 356 538 539
f 357 356 539
f 358 357 539
f 358 539 540
f 359 358 540
f 359 540 541
f 360 359 541
f 360 541 542
f 360 542 543
f 361 360 543
f 362 361 543
f 362 543 544
f 363 362 544
f 363 544 545
f 363 545 546
f 364 363 546
f 274 364 546
f 274 546 456
f 426 424 425
f 417 418 419
f 415 416 417
f 412 415 417
f 412 413 414
f 412 414 415
f 412 419 420
f 412 420 421
f 412 421 422
f 412 417 419
f 406 407 408
f 438 436 437
f 440 424 426
f 440 423 424
f 440 436 438
f 440 426 427
f 440 427 428
f 440 428 429
f 440 429 430
f 440 430 431
f 440 431 432
f 440 432 433
f 440 433 434
f 440 434 435
f 440 435 436
f 440 438 439
f 403 404 405
f 403 405 406
f 401 412 422
f 401 402 403
f 401 408 409
f 401 409 410
f 401 410 411
f 401 411 412
f 401 406 408
f 401 422 423
f 401 403 406
f 443 441 442
f 398 399 400
f 446 440 441
f 446 443 444
f 446 441 443
f 446 444 445
f 447 440 446
f 396 397 398
f 396 400 401
f 396 398 400
f 394 395 396
f 394 396 401
f 451 449 450
f 391 392 393
f 389 391 393
f 389 390 391
f 389 393 394
f 365 453 454
f 365 454 455
f 387 389 394
f 387 388 389
f 387 423 440
f 387 401 423
f 387 447 448
f 387 440 447
f 387 394 401
f 367 365 366
f 367 449 451
f 367 453 365
f 367 448 449
f 367 451 452
f 367 452 453
f 385 386 387
f 370 368 369
f 371 367 368
f 371 368 370
f 381 382 383
f 381 383 384
f 372 367 371
f 379 380 381
f 379 384 385
f 379 381 384
f 377 378 379
f 376 372 373
f 376 373 374
f 376 374 375
f 376 448 367
f 376 377 379
f 376 387 448
f 376 385 387
f 376 367 372
f 376 379 385
f 509 511 510
f 508 511 509
f 518 515 514
f 518 516 515
f 518 517 516
f 507 511 508
f 507 512 511
f 507 513 512
f 507 514 513
f 505 507 506
f 503 507 505
f 503 505 504
f 523 521 520
f 523 522 521
f 501 503 502
f 527 526 525
f 529 527 525
f 529 528 527
f 496 498 497
f 531 514 507
f 531 529 525
f 531 523 520
f 531 519 518
f 531 520 519
f 531 524 523
f 531 525 524
f 531 530 529
f 531 518 514
f 494 496 495
f 494 499 498
f 494 500 499
f 494 498 496
f 532 531 507
f 533 532 507
f 492 494 493
f 491 503 501
f 491 501 500
f 491 500 494
f 491 494 492
f 536 533 507
f 536 534 533
f 536 535 534
f 538 537 536
f 487 489 488
f 487 490 489
f 487 491 490
f 539 538 536
f 540 539 536
f 485 487 486
f 483 485 484
f 483 507 503
f 483 503 491
f 483 491 487
f 483 487 485
f 482 507 483
f 545 544 543
f 479 481 480
f 456 545 543
f 456 543 542
f 456 546 545
f 478 481 479
f 457 456 542
f 457 541 540
f 457 542 541
f 458 457 540
f 476 481 478
f 476 478 477
f 476 482 481
f 460 459 458
f 473 540 536
f 473 461 460
f 473 475 474
f 473 476 475
f 473 482 476
f 473 458 540
f 473 460 458
f 473 536 507
f 473 507 482
f 471 473 472
f 464 463 462
f 465 464 462
f 466 462 461
f 466 465 462
f 468 470 469
f 468 471 470
f 467 461 473
f 467 473 471
f 467 471 468
f 467 466 461
