# SimpleCAD BREP tessellation for MuJoCo
v -39.5 25.5 16
v -39.5 74.5 16
v 39.5 25.5 16
v 39.5 74.5 16
v -28.5 32 16
v -28.5107222746 32.3104601498 16
v -28.5428380021 32.6194408156 16
v -28.5961941362 32.9254695639 16
v -28.6705364107 33.2270880282 16
v -28.7655105509 33.5228588593 16
v -28.8806639616 33.8113725743 16
v -29.0154478846 34.0912542742 16
v -29.1692200129 34.3611701951 16
v -29.3412475523 34.6198340647 16
v -29.5307107134 34.866013232 16
v -29.7367066179 35.098534541 16
v -29.9582536013 35.3162899219 16
v -30.1942958916 35.5182416711 16
v -30.4437086397 35.7034273965 16
v -30.7053032802 35.8709646039 16
v -30.9778331956 36.020054902 16
v -31.2599996568 36.1499878079 16
v -31.5504580119 36.2601441319 16
v -31.8478240947 36.3499989291 16
v -32.1506808205 36.4191240004 16
v -32.4575849389 36.4671899334 16
v -32.767073912 36.4939676721 16
v -33.0776728841 36.4993296082 16
v -33.3879017095 36.4832501897 16
v -33.6962820066 36.4458060425 16
v -34.0013442028 36.3871756048 16
v -34.3016345379 36.3076382775 16
v -34.5957219917 36.2075730921 16
v -34.8822051035 36.0874569048 16
v -35.1597186508 35.9478621239 16
v -35.4269401552 35.7894539822 16
v -35.6825961846 35.6129873665 16
v -35.9254684215 35.4193032207 16
v -36.1543994691 35.2093245378 16
v -36.3682983668 34.9840519621 16
v -36.5661457888 34.7445590198 16
v -36.7469989021 34.4919870039 16
v -36.9099958593 34.2275395351 16
v -37.0543599056 33.952476826 16
v -37.1794030806 33.6681096757 16
v -37.2845294966 33.3757932231 16
v -37.3692381784 33.0769204893 16
v -37.4331254506 32.7729157389 16
v -37.4758868611 32.465227693 16
v -37.4973186325 32.1553226254 16
v -37.4973186325 31.8446773746 16
v -37.4758868611 31.534772307 16
v -37.4331254506 31.2270842611 16
v -37.3692381784 30.9230795107 16
v -37.2845294966 30.6242067769 16
v -37.1794030806 30.3318903243 16
v -37.0543599056 30.047523174 16
v -36.9099958593 29.7724604649 16
v -36.7469989021 29.5080129961 16
v -36.5661457888 29.2554409802 16
v -36.3682983668 29.0159480379 16
v -36.1543994691 28.7906754622 16
v -35.9254684215 28.5806967793 16
v -35.6825961846 28.3870126335 16
v -35.4269401552 28.2105460178 16
v -35.1597186508 28.0521378761 16
v -34.8822051035 27.9125430952 16
v -34.5957219917 27.7924269079 16
v -34.3016345379 27.6923617225 16
v -34.0013442028 27.6128243952 16
v -33.6962820066 27.5541939575 16
v -33.3879017095 27.5167498103 16
v -33.0776728841 27.5006703918 16
v -32.767073912 27.5060323279 16
v -32.4575849389 27.5328100666 16
v -32.1506808205 27.5808759996 16
v -31.8478240947 27.6500010709 16
v -31.5504580119 27.7398558681 16
v -31.2599996568 27.8500121921 16
v -30.9778331956 27.979945098 16
v -30.7053032802 28.1290353961 16
v -30.4437086397 28.2965726035 16
v -30.1942958916 28.4817583289 16
v -29.9582536013 28.6837100781 16
v -29.7367066179 28.901465459 16
v -29.5307107134 29.133986768 16
v -29.3412475523 29.3801659353 16
v -29.1692200129 29.6388298049 16
v -29.0154478846 29.9087457258 16
v -28.8806639616 30.1886274257 16
v -28.7655105509 30.4771411407 16
v -28.6705364107 30.7729119718 16
v -28.5961941362 31.0745304361 16
v -28.5428380021 31.3805591844 16
v -28.5107222746 31.6895398502 16
v 37.5 32 16
v 37.4892777254 32.3104601498 16
v 37.4571619979 32.6194408156 16
v 37.4038058638 32.9254695639 16
v 37.3294635893 33.2270880282 16
v 37.2344894491 33.5228588593 16
v 37.1193360384 33.8113725743 16
v 36.9845521154 34.0912542742 16
v 36.8307799871 34.3611701951 16
v 36.6587524477 34.6198340647 16
v 36.4692892866 34.866013232 16
v 36.2632933821 35.098534541 16
v 36.0417463987 35.3162899219 16
v 35.8057041084 35.5182416711 16
v 35.5562913603 35.7034273965 16
v 35.2946967198 35.8709646039 16
v 35.0221668044 36.020054902 16
v 34.7400003432 36.1499878079 16
v 34.4495419881 36.2601441319 16
v 34.1521759053 36.3499989291 16
v 33.8493191795 36.4191240004 16
v 33.5424150611 36.4671899334 16
v 33.232926088 36.4939676721 16
v 32.9223271159 36.4993296082 16
v 32.6120982905 36.4832501897 16
v 32.3037179934 36.4458060425 16
v 31.9986557972 36.3871756048 16
v 31.6983654621 36.3076382775 16
v 31.4042780083 36.2075730921 16
v 31.1177948965 36.0874569048 16
v 30.8402813492 35.9478621239 16
v 30.5730598448 35.7894539822 16
v 30.3174038154 35.6129873665 16
v 30.0745315785 35.4193032207 16
v 29.8456005309 35.2093245378 16
v 29.6317016332 34.9840519621 16
v 29.4338542112 34.7445590198 16
v 29.2530010979 34.4919870039 16
v 29.0900041407 34.2275395351 16
v 28.9456400944 33.952476826 16
v 28.8205969194 33.6681096757 16
v 28.7154705034 33.3757932231 16
v 28.6307618216 33.0769204893 16
v 28.5668745494 32.7729157389 16
v 28.5241131389 32.465227693 16
v 28.5026813675 32.1553226254 16
v 28.5026813675 31.8446773746 16
v 28.5241131389 31.534772307 16
v 28.5668745494 31.2270842611 16
v 28.6307618216 30.9230795107 16
v 28.7154705034 30.6242067769 16
v 28.8205969194 30.3318903243 16
v 28.9456400944 30.047523174 16
v 29.0900041407 29.7724604649 16
v 29.2530010979 29.5080129961 16
v 29.4338542112 29.2554409802 16
v 29.6317016332 29.0159480379 16
v 29.8456005309 28.7906754622 16
v 30.0745315785 28.5806967793 16
v 30.3174038154 28.3870126335 16
v 30.5730598448 28.2105460178 16
v 30.8402813492 28.0521378761 16
v 31.1177948965 27.9125430952 16
v 31.4042780083 27.7924269079 16
v 31.6983654621 27.6923617225 16
v 31.9986557972 27.6128243952 16
v 32.3037179934 27.5541939575 16
v 32.6120982905 27.5167498103 16
v 32.9223271159 27.5006703918 16
v 33.232926088 27.5060323279 16
v 33.5424150611 27.5328100666 16
v 33.8493191795 27.5808759996 16
v 34.1521759053 27.6500010709 16
v 34.4495419881 27.7398558681 16
v 34.7400003432 27.8500121921 16
v 35.0221668044 27.979945098 16
v 35.2946967198 28.1290353961 16
v 35.5562913603 28.2965726035 16
v 35.8057041084 28.4817583289 16
v 36.0417463987 28.6837100781 16
v 36.2632933821 28.901465459 16
v 36.4692892866 29.133986768 16
v 36.6587524477 29.3801659353 16
v 36.8307799871 29.6388298049 16
v 36.9845521154 29.9087457258 16
v 37.1193360384 30.1886274257 16
v 37.2344894491 30.4771411407 16
v 37.3294635893 30.7729119718 16
v 37.4038058638 31.0745304361 16
v 37.4571619979 31.3805591844 16
v 37.4892777254 31.6895398502 16
v -28.5 68 16
v -28.5107222746 68.3104601498 16
v -28.5428380021 68.6194408156 16
v -28.5961941362 68.9254695639 16
v -28.6705364107 69.2270880282 16
v -28.7655105509 69.5228588593 16
v -28.8806639616 69.8113725743 16
v -29.0154478846 70.0912542742 16
v -29.1692200129 70.3611701951 16
v -29.3412475523 70.6198340647 16
v -29.5307107134 70.866013232 16
v -29.7367066179 71.098534541 16
v -29.9582536013 71.3162899219 16
v -30.1942958916 71.5182416711 16
v -30.4437086397 71.7034273965 16
v -30.7053032802 71.8709646039 16
v -30.9778331956 72.020054902 16
v -31.2599996568 72.1499878079 16
v -31.5504580119 72.2601441319 16
v -31.8478240947 72.3499989291 16
v -32.1506808205 72.4191240004 16
v -32.4575849389 72.4671899334 16
v -32.767073912 72.4939676721 16
v -33.0776728841 72.4993296082 16
v -33.3879017095 72.4832501897 16
v -33.6962820066 72.4458060425 16
v -34.0013442028 72.3871756048 16
v -34.3016345379 72.3076382775 16
v -34.5957219917 72.2075730921 16
v -34.8822051035 72.0874569048 16
v -35.1597186508 71.9478621239 16
v -35.4269401552 71.7894539822 16
v -35.6825961846 71.6129873665 16
v -35.9254684215 71.4193032207 16
v -36.1543994691 71.2093245378 16
v -36.3682983668 70.9840519621 16
v -36.5661457888 70.7445590198 16
v -36.7469989021 70.4919870039 16
v -36.9099958593 70.2275395351 16
v -37.0543599056 69.952476826 16
v -37.1794030806 69.6681096757 16
v -37.2845294966 69.3757932231 16
v -37.3692381784 69.0769204893 16
v -37.4331254506 68.7729157389 16
v -37.4758868611 68.465227693 16
v -37.4973186325 68.1553226254 16
v -37.4973186325 67.8446773746 16
v -37.4758868611 67.534772307 16
v -37.4331254506 67.2270842611 16
v -37.3692381784 66.9230795107 16
v -37.2845294966 66.6242067769 16
v -37.1794030806 66.3318903243 16
v -37.0543599056 66.047523174 16
v -36.9099958593 65.7724604649 16
v -36.7469989021 65.5080129961 16
v -36.5661457888 65.2554409802 16
v -36.3682983668 65.0159480379 16
v -36.1543994691 64.7906754622 16
v -35.9254684215 64.5806967793 16
v -35.6825961846 64.3870126335 16
v -35.4269401552 64.2105460178 16
v -35.1597186508 64.0521378761 16
v -34.8822051035 63.9125430952 16
v -34.5957219917 63.7924269079 16
v -34.3016345379 63.6923617225 16
v -34.0013442028 63.6128243952 16
v -33.6962820066 63.5541939575 16
v -33.3879017095 63.5167498103 16
v -33.0776728841 63.5006703918 16
v -32.767073912 63.5060323279 16
v -32.4575849389 63.5328100666 16
v -32.1506808205 63.5808759996 16
v -31.8478240947 63.6500010709 16
v -31.5504580119 63.7398558681 16
v -31.2599996568 63.8500121921 16
v -30.9778331956 63.979945098 16
v -30.7053032802 64.1290353961 16
v -30.4437086397 64.2965726035 16
v -30.1942958916 64.4817583289 16
v -29.9582536013 64.6837100781 16
v -29.7367066179 64.901465459 16
v -29.5307107134 65.133986768 16
v -29.3412475523 65.3801659353 16
v -29.1692200129 65.6388298049 16
v -29.0154478846 65.9087457258 16
v -28.8806639616 66.1886274257 16
v -28.7655105509 66.4771411407 16
v -28.6705364107 66.7729119718 16
v -28.5961941362 67.0745304361 16
v -28.5428380021 67.3805591844 16
v -28.5107222746 67.6895398502 16
v 37.5 68 16
v 37.4892777254 68.3104601498 16
v 37.4571619979 68.6194408156 16
v 37.4038058638 68.9254695639 16
v 37.3294635893 69.2270880282 16
v 37.2344894491 69.5228588593 16
v 37.1193360384 69.8113725743 16
v 36.9845521154 70.0912542742 16
v 36.8307799871 70.3611701951 16
v 36.6587524477 70.6198340647 16
v 36.4692892866 70.866013232 16
v 36.2632933821 71.098534541 16
v 36.0417463987 71.3162899219 16
v 35.8057041084 71.5182416711 16
v 35.5562913603 71.7034273965 16
v 35.2946967198 71.8709646039 16
v 35.0221668044 72.020054902 16
v 34.7400003432 72.1499878079 16
v 34.4495419881 72.2601441319 16
v 34.1521759053 72.3499989291 16
v 33.8493191795 72.4191240004 16
v 33.5424150611 72.4671899334 16
v 33.232926088 72.4939676721 16
v 32.9223271159 72.4993296082 16
v 32.6120982905 72.4832501897 16
v 32.3037179934 72.4458060425 16
v 31.9986557972 72.3871756048 16
v 31.6983654621 72.3076382775 16
v 31.4042780083 72.2075730921 16
v 31.1177948965 72.0874569048 16
v 30.8402813492 71.9478621239 16
v 30.5730598448 71.7894539822 16
v 30.3174038154 71.6129873665 16
v 30.0745315785 71.4193032207 16
v 29.8456005309 71.2093245378 16
v 29.6317016332 70.9840519621 16
v 29.4338542112 70.7445590198 16
v 29.2530010979 70.4919870039 16
v 29.0900041407 70.2275395351 16
v 28.9456400944 69.952476826 16
v 28.8205969194 69.6681096757 16
v 28.7154705034 69.3757932231 16
v 28.6307618216 69.0769204893 16
v 28.5668745494 68.7729157389 16
v 28.5241131389 68.465227693 16
v 28.5026813675 68.1553226254 16
v 28.5026813675 67.8446773746 16
v 28.5241131389 67.534772307 16
v 28.5668745494 67.2270842611 16
v 28.6307618216 66.9230795107 16
v 28.7154705034 66.6242067769 16
v 28.8205969194 66.3318903243 16
v 28.9456400944 66.047523174 16
v 29.0900041407 65.7724604649 16
v 29.2530010979 65.5080129961 16
v 29.4338542112 65.2554409802 16
v 29.6317016332 65.0159480379 16
v 29.8456005309 64.7906754622 16
v 30.0745315785 64.5806967793 16
v 30.3174038154 64.3870126335 16
v 30.5730598448 64.2105460178 16
v 30.8402813492 64.0521378761 16
v 31.1177948965 63.9125430952 16
v 31.4042780083 63.7924269079 16
v 31.6983654621 63.6923617225 16
v 31.9986557972 63.6128243952 16
v 32.3037179934 63.5541939575 16
v 32.6120982905 63.5167498103 16
v 32.9223271159 63.5006703918 16
v 33.232926088 63.5060323279 16
v 33.5424150611 63.5328100666 16
v 33.8493191795 63.5808759996 16
v 34.1521759053 63.6500010709 16
v 34.4495419881 63.7398558681 16
v 34.7400003432 63.8500121921 16
v 35.0221668044 63.979945098 16
v 35.2946967198 64.1290353961 16
v 35.5562913603 64.2965726035 16
v 35.8057041084 64.4817583289 16
v 36.0417463987 64.6837100781 16
v 36.2632933821 64.901465459 16
v 36.4692892866 65.133986768 16
v 36.6587524477 65.3801659353 16
v 36.8307799871 65.6388298049 16
v 36.9845521154 65.9087457258 16
v 37.1193360384 66.1886274257 16
v 37.2344894491 66.4771411407 16
v 37.3294635893 66.7729119718 16
v 37.4038058638 67.0745304361 16
v 37.4571619979 67.3805591844 16
v 37.4892777254 67.6895398502 16
v -40 25.5 16.5
v -40 74.5 16.5
v -39.5 25 16.5
v 39.5 25 16.5
v -39.5 75 16.5
v 39.5 75 16.5
v 40 25.5 16.5
v 40 74.5 16.5
v -28.5 32 28
v -28.5107222746 32.3104601498 28
v -28.5428380021 32.6194408156 28
v -28.5961941362 32.9254695639 28
v -28.6705364107 33.2270880282 28
v -28.7655105509 33.5228588593 28
v -28.8806639616 33.8113725743 28
v -29.0154478846 34.0912542742 28
v -29.1692200129 34.3611701951 28
v -29.3412475523 34.6198340647 28
v -29.5307107134 34.866013232 28
v -29.7367066179 35.098534541 28
v -29.9582536013 35.3162899219 28
v -30.1942958916 35.5182416711 28
v -30.4437086397 35.7034273965 28
v -30.7053032802 35.8709646039 28
v -30.9778331956 36.020054902 28
v -31.2599996568 36.1499878079 28
v -31.5504580119 36.2601441319 28
v -31.8478240947 36.3499989291 28
v -32.1506808205 36.4191240004 28
v -32.4575849389 36.4671899334 28
v -32.767073912 36.4939676721 28
v -33.0776728841 36.4993296082 28
v -33.3879017095 36.4832501897 28
v -33.6962820066 36.4458060425 28
v -34.0013442028 36.3871756048 28
v -34.3016345379 36.3076382775 28
v -34.5957219917 36.2075730921 28
v -34.8822051035 36.0874569048 28
v -35.1597186508 35.9478621239 28
v -35.4269401552 35.7894539822 28
v -35.6825961846 35.6129873665 28
v -35.9254684215 35.4193032207 28
v -36.1543994691 35.2093245378 28
v -36.3682983668 34.9840519621 28
v -36.5661457888 34.7445590198 28
v -36.7469989021 34.4919870039 28
v -36.9099958593 34.2275395351 28
v -37.0543599056 33.952476826 28
v -37.1794030806 33.6681096757 28
v -37.2845294966 33.3757932231 28
v -37.3692381784 33.0769204893 28
v -37.4331254506 32.7729157389 28
v -37.4758868611 32.465227693 28
v -37.4973186325 32.1553226254 28
v -37.4973186325 31.8446773746 28
v -37.4758868611 31.534772307 28
v -37.4331254506 31.2270842611 28
v -37.3692381784 30.9230795107 28
v -37.2845294966 30.6242067769 28
v -37.1794030806 30.3318903243 28
v -37.0543599056 30.047523174 28
v -36.9099958593 29.7724604649 28
v -36.7469989021 29.5080129961 28
v -36.5661457888 29.2554409802 28
v -36.3682983668 29.0159480379 28
v -36.1543994691 28.7906754622 28
v -35.9254684215 28.5806967793 28
v -35.6825961846 28.3870126335 28
v -35.4269401552 28.2105460178 28
v -35.1597186508 28.0521378761 28
v -34.8822051035 27.9125430952 28
v -34.5957219917 27.7924269079 28
v -34.3016345379 27.6923617225 28
v -34.0013442028 27.6128243952 28
v -33.6962820066 27.5541939575 28
v -33.3879017095 27.5167498103 28
v -33.0776728841 27.5006703918 28
v -32.767073912 27.5060323279 28
v -32.4575849389 27.5328100666 28
v -32.1506808205 27.5808759996 28
v -31.8478240947 27.6500010709 28
v -31.5504580119 27.7398558681 28
v -31.2599996568 27.8500121921 28
v -30.9778331956 27.979945098 28
v -30.7053032802 28.1290353961 28
v -30.4437086397 28.2965726035 28
v -30.1942958916 28.4817583289 28
v -29.9582536013 28.6837100781 28
v -29.7367066179 28.901465459 28
v -29.5307107134 29.133986768 28
v -29.3412475523 29.3801659353 28
v -29.1692200129 29.6388298049 28
v -29.0154478846 29.9087457258 28
v -28.8806639616 30.1886274257 28
v -28.7655105509 30.4771411407 28
v -28.6705364107 30.7729119718 28
v -28.5961941362 31.0745304361 28
v -28.5428380021 31.3805591844 28
v -28.5107222746 31.6895398502 28
v 37.5 32 28
v 37.4892777254 32.3104601498 28
v 37.4571619979 32.6194408156 28
v 37.4038058638 32.9254695639 28
v 37.3294635893 33.2270880282 28
v 37.2344894491 33.5228588593 28
v 37.1193360384 33.8113725743 28
v 36.9845521154 34.0912542742 28
v 36.8307799871 34.3611701951 28
v 36.6587524477 34.6198340647 28
v 36.4692892866 34.866013232 28
v 36.2632933821 35.098534541 28
v 36.0417463987 35.3162899219 28
v 35.8057041084 35.5182416711 28
v 35.5562913603 35.7034273965 28
v 35.2946967198 35.8709646039 28
v 35.0221668044 36.020054902 28
v 34.7400003432 36.1499878079 28
v 34.4495419881 36.2601441319 28
v 34.1521759053 36.3499989291 28
v 33.8493191795 36.4191240004 28
v 33.5424150611 36.4671899334 28
v 33.232926088 36.4939676721 28
v 32.9223271159 36.4993296082 28
v 32.6120982905 36.4832501897 28
v 32.3037179934 36.4458060425 28
v 31.9986557972 36.3871756048 28
v 31.6983654621 36.3076382775 28
v 31.4042780083 36.2075730921 28
v 31.1177948965 36.0874569048 28
v 30.8402813492 35.9478621239 28
v 30.5730598448 35.7894539822 28
v 30.3174038154 35.6129873665 28
v 30.0745315785 35.4193032207 28
v 29.8456005309 35.2093245378 28
v 29.6317016332 34.9840519621 28
v 29.4338542112 34.7445590198 28
v 29.2530010979 34.4919870039 28
v 29.0900041407 34.2275395351 28
v 28.9456400944 33.952476826 28
v 28.8205969194 33.6681096757 28
v 28.7154705034 33.3757932231 28
v 28.6307618216 33.0769204893 28
v 28.5668745494 32.7729157389 28
v 28.5241131389 32.465227693 28
v 28.5026813675 32.1553226254 28
v 28.5026813675 31.8446773746 28
v 28.5241131389 31.534772307 28
v 28.5668745494 31.2270842611 28
v 28.6307618216 30.9230795107 28
v 28.7154705034 30.6242067769 28
v 28.8205969194 30.3318903243 28
v 28.9456400944 30.047523174 28
v 29.0900041407 29.7724604649 28
v 29.2530010979 29.5080129961 28
v 29.4338542112 29.2554409802 28
v 29.6317016332 29.0159480379 28
v 29.8456005309 28.7906754622 28
v 30.0745315785 28.5806967793 28
v 30.3174038154 28.3870126335 28
v 30.5730598448 28.2105460178 28
v 30.8402813492 28.0521378761 28
v 31.1177948965 27.9125430952 28
v 31.4042780083 27.7924269079 28
v 31.6983654621 27.6923617225 28
v 31.9986557972 27.6128243952 28
v 32.3037179934 27.5541939575 28
v 32.6120982905 27.5167498103 28
v 32.9223271159 27.5006703918 28
v 33.232926088 27.5060323279 28
v 33.5424150611 27.5328100666 28
v 33.8493191795 27.5808759996 28
v 34.1521759053 27.6500010709 28
v 34.4495419881 27.7398558681 28
v 34.7400003432 27.8500121921 28
v 35.0221668044 27.979945098 28
v 35.2946967198 28.1290353961 28
v 35.5562913603 28.2965726035 28
v 35.8057041084 28.4817583289 28
v 36.0417463987 28.6837100781 28
v 36.2632933821 28.901465459 28
v 36.4692892866 29.133986768 28
v 36.6587524477 29.3801659353 28
v 36.8307799871 29.6388298049 28
v 36.9845521154 29.9087457258 28
v 37.1193360384 30.1886274257 28
v 37.2344894491 30.4771411407 28
v 37.3294635893 30.7729119718 28
v 37.4038058638 31.0745304361 28
v 37.4571619979 31.3805591844 28
v 37.4892777254 31.6895398502 28
v -28.5 68 28
v -28.5107222746 68.3104601498 28
v -28.5428380021 68.6194408156 28
v -28.5961941362 68.9254695639 28
v -28.6705364107 69.2270880282 28
v -28.7655105509 69.5228588593 28
v -28.8806639616 69.8113725743 28
v -29.0154478846 70.0912542742 28
v -29.1692200129 70.3611701951 28
v -29.3412475523 70.6198340647 28
v -29.5307107134 70.866013232 28
v -29.7367066179 71.098534541 28
v -29.9582536013 71.3162899219 28
v -30.1942958916 71.5182416711 28
v -30.4437086397 71.7034273965 28
v -30.7053032802 71.8709646039 28
v -30.9778331956 72.020054902 28
v -31.2599996568 72.1499878079 28
v -31.5504580119 72.2601441319 28
v -31.8478240947 72.3499989291 28
v -32.1506808205 72.4191240004 28
v -32.4575849389 72.4671899334 28
v -32.767073912 72.4939676721 28
v -33.0776728841 72.4993296082 28
v -33.3879017095 72.4832501897 28
v -33.6962820066 72.4458060425 28
v -34.0013442028 72.3871756048 28
v -34.3016345379 72.3076382775 28
v -34.5957219917 72.2075730921 28
v -34.8822051035 72.0874569048 28
v -35.1597186508 71.9478621239 28
v -35.4269401552 71.7894539822 28
v -35.6825961846 71.6129873665 28
v -35.9254684215 71.4193032207 28
v -36.1543994691 71.2093245378 28
v -36.3682983668 70.9840519621 28
v -36.5661457888 70.7445590198 28
v -36.7469989021 70.4919870039 28
v -36.9099958593 70.2275395351 28
v -37.0543599056 69.952476826 28
v -37.1794030806 69.6681096757 28
v -37.2845294966 69.3757932231 28
v -37.3692381784 69.0769204893 28
v -37.4331254506 68.7729157389 28
v -37.4758868611 68.465227693 28
v -37.4973186325 68.1553226254 28
v -37.4973186325 67.8446773746 28
v -37.4758868611 67.534772307 28
v -37.4331254506 67.2270842611 28
v -37.3692381784 66.9230795107 28
v -37.2845294966 66.6242067769 28
v -37.1794030806 66.3318903243 28
v -37.0543599056 66.047523174 28
v -36.9099958593 65.7724604649 28
v -36.7469989021 65.5080129961 28
v -36.5661457888 65.2554409802 28
v -36.3682983668 65.0159480379 28
v -36.1543994691 64.7906754622 28
v -35.9254684215 64.5806967793 28
v -35.6825961846 64.3870126335 28
v -35.4269401552 64.2105460178 28
v -35.1597186508 64.0521378761 28
v -34.8822051035 63.9125430952 28
v -34.5957219917 63.7924269079 28
v -34.3016345379 63.6923617225 28
v -34.0013442028 63.6128243952 28
v -33.6962820066 63.5541939575 28
v -33.3879017095 63.5167498103 28
v -33.0776728841 63.5006703918 28
v -32.767073912 63.5060323279 28
v -32.4575849389 63.5328100666 28
v -32.1506808205 63.5808759996 28
v -31.8478240947 63.6500010709 28
v -31.5504580119 63.7398558681 28
v -31.2599996568 63.8500121921 28
v -30.9778331956 63.979945098 28
v -30.7053032802 64.1290353961 28
v -30.4437086397 64.2965726035 28
v -30.1942958916 64.4817583289 28
v -29.9582536013 64.6837100781 28
v -29.7367066179 64.901465459 28
v -29.5307107134 65.133986768 28
v -29.3412475523 65.3801659353 28
v -29.1692200129 65.6388298049 28
v -29.0154478846 65.9087457258 28
v -28.8806639616 66.1886274257 28
v -28.7655105509 66.4771411407 28
v -28.6705364107 66.7729119718 28
v -28.5961941362 67.0745304361 28
v -28.5428380021 67.3805591844 28
v -28.5107222746 67.6895398502 28
v 37.5 68 28
v 37.4892777254 68.3104601498 28
v 37.4571619979 68.6194408156 28
v 37.4038058638 68.9254695639 28
v 37.3294635893 69.2270880282 28
v 37.2344894491 69.5228588593 28
v 37.1193360384 69.8113725743 28
v 36.9845521154 70.0912542742 28
v 36.8307799871 70.3611701951 28
v 36.6587524477 70.6198340647 28
v 36.4692892866 70.866013232 28
v 36.2632933821 71.098534541 28
v 36.0417463987 71.3162899219 28
v 35.8057041084 71.5182416711 28
v 35.5562913603 71.7034273965 28
v 35.2946967198 71.8709646039 28
v 35.0221668044 72.020054902 28
v 34.7400003432 72.1499878079 28
v 34.4495419881 72.2601441319 28
v 34.1521759053 72.3499989291 28
v 33.8493191795 72.4191240004 28
v 33.5424150611 72.4671899334 28
v 33.232926088 72.4939676721 28
v 32.9223271159 72.4993296082 28
v 32.6120982905 72.4832501897 28
v 32.3037179934 72.4458060425 28
v 31.9986557972 72.3871756048 28
v 31.6983654621 72.3076382775 28
v 31.4042780083 72.2075730921 28
v 31.1177948965 72.0874569048 28
v 30.8402813492 71.9478621239 28
v 30.5730598448 71.7894539822 28
v 30.3174038154 71.6129873665 28
v 30.0745315785 71.4193032207 28
v 29.8456005309 71.2093245378 28
v 29.6317016332 70.9840519621 28
v 29.4338542112 70.7445590198 28
v 29.2530010979 70.4919870039 28
v 29.0900041407 70.2275395351 28
v 28.9456400944 69.952476826 28
v 28.8205969194 69.6681096757 28
v 28.7154705034 69.3757932231 28
v 28.6307618216 69.0769204893 28
v 28.5668745494 68.7729157389 28
v 28.5241131389 68.465227693 28
v 28.5026813675 68.1553226254 28
v 28.5026813675 67.8446773746 28
v 28.5241131389 67.534772307 28
v 28.5668745494 67.2270842611 28
v 28.6307618216 66.9230795107 28
v 28.7154705034 66.6242067769 28
v 28.8205969194 66.3318903243 28
v 28.9456400944 66.047523174 28
v 29.0900041407 65.7724604649 28
v 29.2530010979 65.5080129961 28
v 29.4338542112 65.2554409802 28
v 29.6317016332 65.0159480379 28
v 29.8456005309 64.7906754622 28
v 30.0745315785 64.5806967793 28
v 30.3174038154 64.3870126335 28
v 30.5730598448 64.2105460178 28
v 30.8402813492 64.0521378761 28
v 31.1177948965 63.9125430952 28
v 31.4042780083 63.7924269079 28
v 31.6983654621 63.6923617225 28
v 31.9986557972 63.6128243952 28
v 32.3037179934 63.5541939575 28
v 32.6120982905 63.5167498103 28
v 32.9223271159 63.5006703918 28
v 33.232926088 63.5060323279 28
v 33.5424150611 63.5328100666 28
v 33.8493191795 63.5808759996 28
v 34.1521759053 63.6500010709 28
v 34.4495419881 63.7398558681 28
v 34.7400003432 63.8500121921 28
v 35.0221668044 63.979945098 28
v 35.2946967198 64.1290353961 28
v 35.5562913603 64.2965726035 28
v 35.8057041084 64.4817583289 28
v 36.0417463987 64.6837100781 28
v 36.2632933821 64.901465459 28
v 36.4692892866 65.133986768 28
v 36.6587524477 65.3801659353 28
v 36.8307799871 65.6388298049 28
v 36.9845521154 65.9087457258 28
v 37.1193360384 66.1886274257 28
v 37.2344894491 66.4771411407 28
v 37.3294635893 66.7729119718 28
v 37.4038058638 67.0745304361 28
v 37.4571619979 67.3805591844 28
v 37.4892777254 67.6895398502 28
v -40 25.5 27.5
v -40 74.5 27.5
v -39.5 25 27.5
v 39.5 25 27.5
v -39.5 75 27.5
v 39.5 75 27.5
v 40 25.5 27.5
v 40 74.5 27.5
v -39.5 25.5 28
v -39.5 74.5 28
v 39.5 25.5 28
v 39.5 74.5 28
v -25 65.5 28
v -25 34.5 28
v -24.5 66 28
v 24.5 66 28
v 25 65.5 28
v 25 34.5 28
v 24.5 34 28
v -24.5 34 28
v -25 34.5 284.5
v -25 65.5 284.5
v -24.5 66 284.5
v -24.5 34 284.5
v 24.5 66 284.5
v -2.96364525394e-15 66 272.1
v 0.834792847292 66 272.071168995
v 1.6656075265 66 271.984813372
v 2.48848482734 66 271.841344656
v 3.29950336472 66 271.64144654
v 4.09479826599 66 271.38607163
v 4.87057958875 66 271.076436903
v 5.62315038173 66 270.71401791
v 6.34892430237 66 270.300541743
v 7.04444270742 66 269.837978804
v 7.70639113495 66 269.328533415
v 8.33161509925 66 268.774633316
v 8.91713512341 66 268.178918094
v 9.46016093786 66 267.544226602
v 9.95810477731 66 266.873583435
v 10.4085937126 66 266.170184513
v 10.8094809588 66 265.437381852
v 11.1588561056 66 264.67866759
v 11.4550542214 66 263.897657346
v 11.6966637872 66 263.09807299
v 11.8825334234 66 262.283724905
v 12.0117773766 66 261.458493831
v 12.0837797404 66 260.62631237
v 12.0981973909 66 259.791146245
v 12.0549616213 66 258.956975403
v 11.9542784698 66 258.127775049
v 11.7966277374 66 257.307496699
v 11.5827607017 66 256.500049354
v 11.3136965365 66 255.709280867
v 10.9907174551 66 254.938959611
v 10.6153625998 66 254.192756517
v 10.1894207076 66 253.474227583
v 9.71492158541 66 252.786796926
v 9.19412643775 66 252.133740467
v 8.62951709063 66 251.518170316
v 8.02378416471 66 250.943019947
v 7.37981425324 66 250.411030212
v 6.7006761661 66 249.924736285
v 5.98960630556 66 249.486455578
v 5.24999324332 66 249.098276698
v 4.48536157245 66 248.762049494
v 3.69935511105 66 248.479376242
v 2.89571953788 66 248.251604009
v 2.0782845424 66 248.079818233
v 1.25094557464 66 247.964837551
v 0.417645281533 66 247.907209899
v -0.417645281533 66 247.907209899
v -1.25094557464 66 247.964837551
v -2.0782845424 66 248.079818233
v -2.89571953788 66 248.251604009
v -3.69935511105 66 248.479376242
v -4.48536157245 66 248.762049494
v -5.24999324332 66 249.098276698
v -5.98960630556 66 249.486455578
v -6.7006761661 66 249.924736285
v -7.37981425324 66 250.411030212
v -8.02378416471 66 250.943019947
v -8.62951709063 66 251.518170316
v -9.19412643775 66 252.133740467
v -9.71492158541 66 252.786796926
v -10.1894207076 66 253.474227583
v -10.6153625998 66 254.192756517
v -10.9907174551 66 254.938959611
v -11.3136965365 66 255.709280867
v -11.5827607017 66 256.500049354
v -11.7966277374 66 257.307496699
v -11.9542784698 66 258.127775049
v -12.0549616213 66 258.956975403
v -12.0981973909 66 259.791146245
v -12.0837797404 66 260.62631237
v -12.0117773766 66 261.458493831
v -11.8825334234 66 262.283724905
v -11.6966637872 66 263.09807299
v -11.4550542214 66 263.897657346
v -11.1588561056 66 264.67866759
v -10.8094809588 66 265.437381852
v -10.4085937126 66 266.170184513
v -9.95810477731 66 266.873583435
v -9.46016093786 66 267.544226602
v -8.91713512341 66 268.178918094
v -8.33161509925 66 268.774633316
v -7.70639113495 66 269.328533415
v -7.04444270742 66 269.837978804
v -6.34892430237 66 270.300541743
v -5.62315038173 66 270.71401791
v -4.87057958875 66 271.076436903
v -4.09479826599 66 271.38607163
v -3.29950336472 66 271.64144654
v -2.48848482734 66 271.841344656
v -1.6656075265 66 271.984813372
v -0.834792847292 66 272.071168995
v 24.5 34 284.5
v -2.96364525394e-15 34 272.1
v 0.834792847292 34 272.071168995
v 1.6656075265 34 271.984813372
v 2.48848482734 34 271.841344656
v 3.29950336472 34 271.64144654
v 4.09479826599 34 271.38607163
v 4.87057958875 34 271.076436903
v 5.62315038173 34 270.71401791
v 6.34892430237 34 270.300541743
v 7.04444270742 34 269.837978804
v 7.70639113495 34 269.328533415
v 8.33161509925 34 268.774633316
v 8.91713512341 34 268.178918094
v 9.46016093786 34 267.544226602
v 9.95810477731 34 266.873583435
v 10.4085937126 34 266.170184513
v 10.8094809588 34 265.437381852
v 11.1588561056 34 264.67866759
v 11.4550542214 34 263.897657346
v 11.6966637872 34 263.09807299
v 11.8825334234 34 262.283724905
v 12.0117773766 34 261.458493831
v 12.0837797404 34 260.62631237
v 12.0981973909 34 259.791146245
v 12.0549616213 34 258.956975403
v 11.9542784698 34 258.127775049
v 11.7966277374 34 257.307496699
v 11.5827607017 34 256.500049354
v 11.3136965365 34 255.709280867
v 10.9907174551 34 254.938959611
v 10.6153625998 34 254.192756517
v 10.1894207076 34 253.474227583
v 9.71492158541 34 252.786796926
v 9.19412643775 34 252.133740467
v 8.62951709063 34 251.518170316
v 8.02378416471 34 250.943019947
v 7.37981425324 34 250.411030212
v 6.7006761661 34 249.924736285
v 5.98960630556 34 249.486455578
v 5.24999324332 34 249.098276698
v 4.48536157245 34 248.762049494
v 3.69935511105 34 248.479376242
v 2.89571953788 34 248.251604009
v 2.0782845424 34 248.079818233
v 1.25094557464 34 247.964837551
v 0.417645281533 34 247.907209899
v -0.417645281533 34 247.907209899
v -1.25094557464 34 247.964837551
v -2.0782845424 34 248.079818233
v -2.89571953788 34 248.251604009
v -3.69935511105 34 248.479376242
v -4.48536157245 34 248.762049494
v -5.24999324332 34 249.098276698
v -5.98960630556 34 249.486455578
v -6.7006761661 34 249.924736285
v -7.37981425324 34 250.411030212
v -8.02378416471 34 250.943019947
v -8.62951709063 34 251.518170316
v -9.19412643775 34 252.133740467
v -9.71492158541 34 252.786796926
v -10.1894207076 34 253.474227583
v -10.6153625998 34 254.192756517
v -10.9907174551 34 254.938959611
v -11.3136965365 34 255.709280867
v -11.5827607017 34 256.500049354
v -11.7966277374 34 257.307496699
v -11.9542784698 34 258.127775049
v -12.0549616213 34 258.956975403
v -12.0981973909 34 259.791146245
v -12.0837797404 34 260.62631237
v -12.0117773766 34 261.458493831
v -11.8825334234 34 262.283724905
v -11.6966637872 34 263.09807299
v -11.4550542214 34 263.897657346
v -11.1588561056 34 264.67866759
v -10.8094809588 34 265.437381852
v -10.4085937126 34 266.170184513
v -9.95810477731 34 266.873583435
v -9.46016093786 34 267.544226602
v -8.91713512341 34 268.178918094
v -8.33161509925 34 268.774633316
v -7.70639113495 34 269.328533415
v -7.04444270742 34 269.837978804
v -6.34892430237 34 270.300541743
v -5.62315038173 34 270.71401791
v -4.87057958875 34 271.076436903
v -4.09479826599 34 271.38607163
v -3.29950336472 34 271.64144654
v -2.48848482734 34 271.841344656
v -1.6656075265 34 271.984813372
v -0.834792847292 34 272.071168995
v 25 65.5 284.5
v 25 34.5 284.5
v -24.5 34.5 285
v -24.5 65.5 285
v 24.5 65.5 285
v 24.5 34.5 285
f 61 62 1
f 63 1 62
f 60 61 1
f 64 1 63
f 59 60 1
f 65 1 64
f 58 59 1
f 66 1 65
f 57 58 1
f 67 1 66
f 56 57 1
f 68 1 67
f 55 56 1
f 69 1 68
f 54 55 1
f 70 1 69
f 53 54 1
f 71 1 70
f 52 53 1
f 72 1 71
f 51 52 1
f 73 1 72
f 50 51 1
f 74 1 73
f 49 50 1
f 75 1 74
f 48 49 1
f 76 1 75
f 47 48 1
f 77 1 76
f 243 39 40
f 243 244 39
f 245 38 39
f 245 39 244
f 242 40 41
f 242 243 40
f 246 38 245
f 246 36 37
f 246 37 38
f 241 41 42
f 241 242 41
f 247 36 246
f 240 42 43
f 240 241 42
f 248 35 36
f 248 36 247
f 239 43 44
f 239 44 45
f 239 240 43
f 249 33 34
f 249 34 35
f 249 35 248
f 238 239 45
f 250 33 249
f 237 45 46
f 237 238 45
f 251 31 32
f 251 32 33
f 251 33 250
f 236 46 47
f 236 237 46
f 252 31 251
f 252 30 31
f 253 30 252
f 254 28 29
f 254 29 30
f 254 30 253
f 255 28 254
f 256 26 27
f 256 27 28
f 256 28 255
f 257 25 26
f 257 26 256
f 258 24 25
f 258 25 257
f 259 24 258
f 260 24 259
f 260 23 24
f 261 23 260
f 261 22 23
f 262 20 21
f 262 21 22
f 262 22 261
f 263 20 262
f 264 19 20
f 264 20 263
f 265 18 19
f 265 19 264
f 266 17 18
f 266 18 265
f 2 47 1
f 2 222 223
f 2 223 224
f 2 224 225
f 2 236 47
f 2 225 226
f 2 226 227
f 2 227 228
f 2 228 229
f 2 229 230
f 2 230 231
f 2 231 232
f 2 232 233
f 2 233 234
f 2 234 235
f 2 235 236
f 221 222 2
f 267 16 17
f 267 17 266
f 220 221 2
f 268 14 15
f 268 15 16
f 268 16 267
f 219 220 2
f 269 14 268
f 269 13 14
f 218 219 2
f 270 12 13
f 270 13 269
f 217 218 2
f 271 12 270
f 216 217 2
f 215 216 2
f 214 215 2
f 213 214 2
f 212 213 2
f 211 212 2
f 210 211 2
f 209 210 2
f 208 209 2
f 207 208 2
f 153 84 85
f 152 153 85
f 152 85 86
f 154 84 153
f 154 83 84
f 151 86 87
f 151 152 86
f 155 83 154
f 155 82 83
f 150 151 87
f 150 87 88
f 156 82 155
f 156 81 82
f 149 150 88
f 149 88 89
f 157 81 156
f 157 80 81
f 148 149 89
f 148 89 90
f 158 80 157
f 158 79 80
f 147 148 90
f 147 90 91
f 159 79 158
f 159 78 79
f 146 147 91
f 146 91 92
f 160 78 159
f 160 77 78
f 145 146 92
f 145 92 93
f 161 77 160
f 144 145 93
f 144 93 94
f 143 144 94
f 143 94 95
f 142 143 95
f 142 95 5
f 141 5 6
f 141 142 5
f 140 6 7
f 140 141 6
f 139 7 8
f 139 140 7
f 138 8 9
f 138 139 8
f 137 9 10
f 137 138 9
f 136 10 11
f 136 137 10
f 135 11 12
f 135 136 11
f 134 135 12
f 3 1 77
f 3 161 162
f 3 162 163
f 3 163 164
f 3 77 161
f 3 164 165
f 3 165 166
f 3 166 167
f 3 167 168
f 3 168 169
f 3 169 170
f 3 170 171
f 3 171 172
f 3 172 173
f 3 173 174
f 3 174 175
f 176 3 175
f 177 3 176
f 178 3 177
f 179 3 178
f 180 3 179
f 181 3 180
f 182 3 181
f 183 3 182
f 184 3 183
f 185 3 184
f 186 3 185
f 96 3 186
f 97 3 96
f 98 3 97
f 99 3 98
f 334 335 130
f 334 130 131
f 336 130 335
f 336 128 129
f 336 129 130
f 333 334 131
f 333 131 132
f 337 128 336
f 332 333 132
f 332 132 133
f 332 133 134
f 338 127 128
f 338 128 337
f 331 332 134
f 331 12 271
f 331 134 12
f 339 126 127
f 339 127 338
f 330 331 271
f 330 271 272
f 340 125 126
f 340 126 339
f 329 272 273
f 329 330 272
f 341 124 125
f 341 125 340
f 328 329 273
f 328 273 274
f 342 124 341
f 342 123 124
f 327 328 274
f 327 274 275
f 343 122 123
f 343 123 342
f 326 327 275
f 326 275 276
f 344 121 122
f 344 122 343
f 325 326 276
f 325 276 277
f 345 119 120
f 345 120 121
f 345 121 344
f 324 325 277
f 324 277 187
f 346 118 119
f 346 119 345
f 323 324 187
f 323 187 188
f 347 118 346
f 322 323 188
f 322 188 189
f 348 116 117
f 348 117 118
f 348 118 347
f 321 322 189
f 321 189 190
f 349 115 116
f 349 116 348
f 320 321 190
f 320 190 191
f 350 114 115
f 350 115 349
f 319 320 191
f 319 191 192
f 351 114 350
f 318 319 192
f 318 192 193
f 352 112 113
f 352 113 114
f 352 114 351
f 317 318 193
f 317 193 194
f 353 111 112
f 353 112 352
f 316 317 194
f 316 194 195
f 354 111 353
f 315 316 195
f 315 195 196
f 355 109 110
f 355 110 111
f 355 111 354
f 314 315 196
f 314 196 197
f 356 109 355
f 313 314 197
f 313 197 198
f 357 107 108
f 357 108 109
f 357 109 356
f 312 313 198
f 312 198 199
f 358 107 357
f 311 312 199
f 311 199 200
f 359 105 106
f 359 106 107
f 359 107 358
f 360 105 359
f 361 104 105
f 361 105 360
f 362 103 104
f 362 104 361
f 363 101 102
f 363 102 103
f 363 103 362
f 364 101 363
f 364 100 101
f 365 100 364
f 366 100 365
f 366 3 99
f 366 99 100
f 4 303 304
f 4 3 366
f 4 366 367
f 4 367 368
f 4 368 278
f 4 278 279
f 4 279 280
f 4 280 281
f 4 281 282
f 4 282 283
f 4 283 284
f 4 284 285
f 4 285 286
f 4 286 287
f 4 287 288
f 4 288 289
f 4 289 290
f 4 290 291
f 4 291 292
f 4 292 293
f 4 293 294
f 4 294 295
f 4 295 296
f 4 296 297
f 4 297 298
f 4 298 299
f 4 299 300
f 4 300 301
f 4 301 302
f 4 302 303
f 4 207 2
f 4 206 207
f 4 205 206
f 4 204 205
f 4 203 204
f 4 202 203
f 4 201 202
f 4 200 201
f 4 304 200
f 304 305 200
f 305 306 200
f 306 307 200
f 307 308 200
f 308 309 200
f 309 310 200
f 310 311 200
f 370 1 369
f 2 1 370
f 3 371 1
f 3 372 371
f 374 2 373
f 4 2 374
f 376 375 3
f 4 376 3
f 378 5 377
f 378 6 5
f 379 7 6
f 379 6 378
f 380 8 7
f 380 7 379
f 381 8 380
f 381 9 8
f 381 10 9
f 382 10 381
f 383 10 382
f 383 11 10
f 384 11 383
f 384 12 11
f 384 13 12
f 385 13 384
f 386 14 13
f 386 13 385
f 387 15 14
f 387 14 386
f 388 16 15
f 388 15 387
f 389 17 16
f 389 18 17
f 389 16 388
f 390 18 389
f 391 19 18
f 391 20 19
f 391 18 390
f 392 20 391
f 393 21 20
f 393 20 392
f 394 22 21
f 394 21 393
f 395 23 22
f 395 22 394
f 396 24 23
f 396 25 24
f 396 23 395
f 397 25 396
f 398 26 25
f 398 27 26
f 398 25 397
f 399 27 398
f 400 28 27
f 400 29 28
f 400 27 399
f 401 29 400
f 402 30 29
f 402 29 401
f 403 31 30
f 403 32 31
f 403 30 402
f 404 32 403
f 405 33 32
f 405 32 404
f 406 34 33
f 406 33 405
f 407 34 406
f 407 35 34
f 408 35 407
f 408 36 35
f 409 36 408
f 409 37 36
f 409 38 37
f 410 38 409
f 411 38 410
f 411 39 38
f 412 40 39
f 412 39 411
f 413 41 40
f 413 40 412
f 414 42 41
f 414 41 413
f 415 43 42
f 415 44 43
f 415 42 414
f 416 44 415
f 417 45 44
f 417 44 416
f 418 46 45
f 418 45 417
f 419 47 46
f 419 46 418
f 420 48 47
f 420 49 48
f 420 47 419
f 421 49 420
f 422 50 49
f 422 49 421
f 423 51 50
f 423 52 51
f 423 50 422
f 424 53 52
f 424 52 423
f 425 53 424
f 426 54 53
f 426 53 425
f 427 55 54
f 427 54 426
f 428 56 55
f 428 55 427
f 429 57 56
f 429 56 428
f 430 58 57
f 430 57 429
f 431 59 58
f 431 58 430
f 432 59 431
f 432 60 59
f 433 60 432
f 433 61 60
f 433 62 61
f 434 62 433
f 435 62 434
f 435 63 62
f 436 63 435
f 436 64 63
f 437 64 436
f 437 65 64
f 438 65 437
f 438 66 65
f 439 66 438
f 439 67 66
f 439 68 67
f 440 68 439
f 440 69 68
f 441 69 440
f 442 69 441
f 442 70 69
f 442 71 70
f 443 71 442
f 444 71 443
f 444 72 71
f 445 72 444
f 445 73 72
f 446 73 445
f 446 74 73
f 447 75 74
f 447 74 446
f 448 76 75
f 448 77 76
f 448 75 447
f 449 77 448
f 450 78 77
f 450 79 78
f 450 77 449
f 451 79 450
f 452 80 79
f 452 79 451
f 453 81 80
f 453 82 81
f 453 80 452
f 454 83 82
f 454 82 453
f 455 83 454
f 456 84 83
f 456 83 455
f 457 84 456
f 457 85 84
f 458 85 457
f 458 86 85
f 459 86 458
f 459 87 86
f 459 88 87
f 460 88 459
f 461 88 460
f 461 89 88
f 462 89 461
f 462 90 89
f 463 90 462
f 463 91 90
f 463 92 91
f 464 92 463
f 465 92 464
f 465 93 92
f 466 93 465
f 466 94 93
f 466 95 94
f 467 95 466
f 377 95 467
f 377 5 95
f 469 96 468
f 469 97 96
f 470 98 97
f 470 97 469
f 471 99 98
f 471 98 470
f 472 99 471
f 472 100 99
f 472 101 100
f 473 101 472
f 474 101 473
f 474 102 101
f 475 102 474
f 475 103 102
f 475 104 103
f 476 104 475
f 477 105 104
f 477 104 476
f 478 106 105
f 478 105 477
f 479 107 106
f 479 106 478
f 480 108 107
f 480 109 108
f 480 107 479
f 481 109 480
f 482 110 109
f 482 111 110
f 482 109 481
f 483 111 482
f 484 112 111
f 484 111 483
f 485 113 112
f 485 112 484
f 486 114 113
f 486 113 485
f 487 115 114
f 487 116 115
f 487 114 486
f 488 116 487
f 489 117 116
f 489 118 117
f 489 116 488
f 490 118 489
f 491 119 118
f 491 120 119
f 491 118 490
f 492 120 491
f 493 121 120
f 493 120 492
f 494 122 121
f 494 123 122
f 494 121 493
f 495 123 494
f 496 124 123
f 496 123 495
f 497 125 124
f 497 124 496
f 498 125 497
f 498 126 125
f 499 126 498
f 499 127 126
f 500 127 499
f 500 128 127
f 500 129 128
f 501 129 500
f 502 129 501
f 502 130 129
f 503 131 130
f 503 130 502
f 504 132 131
f 504 131 503
f 505 133 132
f 505 132 504
f 506 134 133
f 506 135 134
f 506 133 505
f 507 135 506
f 508 136 135
f 508 135 507
f 509 137 136
f 509 136 508
f 510 138 137
f 510 137 509
f 511 139 138
f 511 140 139
f 511 138 510
f 512 140 511
f 513 141 140
f 513 140 512
f 514 142 141
f 514 143 142
f 514 141 513
f 515 144 143
f 515 143 514
f 516 144 515
f 517 145 144
f 517 144 516
f 518 146 145
f 518 145 517
f 519 147 146
f 519 146 518
f 520 148 147
f 520 147 519
f 521 149 148
f 521 148 520
f 522 150 149
f 522 149 521
f 523 150 522
f 523 151 150
f 524 151 523
f 524 152 151
f 524 153 152
f 525 153 524
f 526 153 525
f 526 154 153
f 527 154 526
f 527 155 154
f 528 155 527
f 528 156 155
f 529 156 528
f 529 157 156
f 530 157 529
f 530 158 157
f 530 159 158
f 531 159 530
f 531 160 159
f 532 160 531
f 533 160 532
f 533 161 160
f 533 162 161
f 534 162 533
f 535 162 534
f 535 163 162
f 536 163 535
f 536 164 163
f 537 164 536
f 537 165 164
f 538 166 165
f 538 165 537
f 539 167 166
f 539 168 167
f 539 166 538
f 540 168 539
f 541 169 168
f 541 170 169
f 541 168 540
f 542 170 541
f 543 171 170
f 543 170 542
f 544 172 171
f 544 173 172
f 544 171 543
f 545 174 173
f 545 173 544
f 546 174 545
f 547 175 174
f 547 174 546
f 548 175 547
f 548 176 175
f 549 176 548
f 549 177 176
f 550 177 549
f 550 178 177
f 550 179 178
f 551 179 550
f 552 179 551
f 552 180 179
f 553 180 552
f 553 181 180
f 554 181 553
f 554 182 181
f 554 183 182
f 555 183 554
f 556 183 555
f 556 184 183
f 557 184 556
f 557 185 184
f 557 186 185
f 558 186 557
f 468 186 558
f 468 96 186
f 560 187 559
f 560 188 187
f 561 189 188
f 561 188 560
f 562 190 189
f 562 189 561
f 563 190 562
f 563 191 190
f 563 192 191
f 564 192 563
f 565 192 564
f 565 193 192
f 566 193 565
f 566 194 193
f 566 195 194
f 567 195 566
f 568 196 195
f 568 195 567
f 569 197 196
f 569 196 568
f 570 198 197
f 570 197 569
f 571 199 198
f 571 200 199
f 571 198 570
f 572 200 571
f 573 201 200
f 573 202 201
f 573 200 572
f 574 202 573
f 575 203 202
f 575 202 574
f 576 204 203
f 576 203 575
f 577 205 204
f 577 204 576
f 578 206 205
f 578 207 206
f 578 205 577
f 579 207 578
f 580 208 207
f 580 209 208
f 580 207 579
f 581 209 580
f 582 210 209
f 582 211 210
f 582 209 581
f 583 211 582
f 584 212 211
f 584 211 583
f 585 213 212
f 585 214 213
f 585 212 584
f 586 214 585
f 587 215 214
f 587 214 586
f 588 216 215
f 588 215 587
f 589 216 588
f 589 217 216
f 590 217 589
f 590 218 217
f 591 218 590
f 591 219 218
f 591 220 219
f 592 220 591
f 593 220 592
f 593 221 220
f 594 222 221
f 594 221 593
f 595 223 222
f 595 222 594
f 596 224 223
f 596 223 595
f 597 225 224
f 597 226 225
f 597 224 596
f 598 226 597
f 599 227 226
f 599 226 598
f 600 228 227
f 600 227 599
f 601 229 228
f 601 228 600
f 602 230 229
f 602 231 230
f 602 229 601
f 603 231 602
f 604 232 231
f 604 231 603
f 605 233 232
f 605 234 233
f 605 232 604
f 606 235 234
f 606 234 605
f 607 235 606
f 608 236 235
f 608 235 607
f 609 237 236
f 609 236 608
f 610 238 237
f 610 237 609
f 611 239 238
f 611 238 610
f 612 240 239
f 612 239 611
f 613 241 240
f 613 240 612
f 614 241 613
f 614 242 241
f 615 242 614
f 615 243 242
f 615 244 243
f 616 244 615
f 617 244 616
f 617 245 244
f 618 245 617
f 618 246 245
f 619 246 618
f 619 247 246
f 620 247 619
f 620 248 247
f 621 248 620
f 621 249 248
f 621 250 249
f 622 250 621
f 622 251 250
f 623 251 622
f 624 251 623
f 624 252 251
f 624 253 252
f 625 253 624
f 626 253 625
f 626 254 253
f 627 254 626
f 627 255 254
f 628 255 627
f 628 256 255
f 629 257 256
f 629 256 628
f 630 258 257
f 630 259 258
f 630 257 629
f 631 259 630
f 632 260 259
f 632 261 260
f 632 259 631
f 633 261 632
f 634 262 261
f 634 261 633
f 635 263 262
f 635 264 263
f 635 262 634
f 636 265 264
f 636 264 635
f 637 265 636
f 638 266 265
f 638 265 637
f 639 266 638
f 639 267 266
f 640 267 639
f 640 268 267
f 641 268 640
f 641 269 268
f 641 270 269
f 642 270 641
f 643 270 642
f 643 271 270
f 644 271 643
f 644 272 271
f 645 272 644
f 645 273 272
f 645 274 273
f 646 274 645
f 647 274 646
f 647 275 274
f 648 275 647
f 648 276 275
f 648 277 276
f 649 277 648
f 559 277 649
f 559 187 277
f 651 278 650
f 651 279 278
f 652 280 279
f 652 279 651
f 653 281 280
f 653 280 652
f 654 281 653
f 654 282 281
f 654 283 282
f 655 283 654
f 656 283 655
f 656 284 283
f 657 284 656
f 657 285 284
f 657 286 285
f 658 286 657
f 659 287 286
f 659 286 658
f 660 288 287
f 660 287 659
f 661 289 288
f 661 288 660
f 662 290 289
f 662 291 290
f 662 289 661
f 663 291 662
f 664 292 291
f 664 293 292
f 664 291 663
f 665 293 664
f 666 294 293
f 666 293 665
f 667 295 294
f 667 294 666
f 668 296 295
f 668 295 667
f 669 297 296
f 669 298 297
f 669 296 668
f 670 298 669
f 671 299 298
f 671 300 299
f 671 298 670
f 672 300 671
f 673 301 300
f 673 302 301
f 673 300 672
f 674 302 673
f 675 303 302
f 675 302 674
f 676 304 303
f 676 305 304
f 676 303 675
f 677 305 676
f 678 306 305
f 678 305 677
f 679 307 306
f 679 306 678
f 680 307 679
f 680 308 307
f 681 308 680
f 681 309 308
f 682 309 681
f 682 310 309
f 682 311 310
f 683 311 682
f 684 311 683
f 684 312 311
f 685 313 312
f 685 312 684
f 686 314 313
f 686 313 685
f 687 315 314
f 687 314 686
f 688 316 315
f 688 317 316
f 688 315 687
f 689 317 688
f 690 318 317
f 690 317 689
f 691 319 318
f 691 318 690
f 692 320 319
f 692 319 691
f 693 321 320
f 693 322 321
f 693 320 692
f 694 322 693
f 695 323 322
f 695 322 694
f 696 324 323
f 696 325 324
f 696 323 695
f 697 326 325
f 697 325 696
f 698 326 697
f 699 327 326
f 699 326 698
f 700 328 327
f 700 327 699
f 701 329 328
f 701 328 700
f 702 330 329
f 702 329 701
f 703 331 330
f 703 330 702
f 704 332 331
f 704 331 703
f 705 332 704
f 705 333 332
f 706 333 705
f 706 334 333
f 706 335 334
f 707 335 706
f 708 335 707
f 708 336 335
f 709 336 708
f 709 337 336
f 710 337 709
f 710 338 337
f 711 338 710
f 711 339 338
f 712 339 711
f 712 340 339
f 712 341 340
f 713 341 712
f 713 342 341
f 714 342 713
f 715 342 714
f 715 343 342
f 715 344 343
f 716 344 715
f 717 344 716
f 717 345 344
f 718 345 717
f 718 346 345
f 719 346 718
f 719 347 346
f 720 348 347
f 720 347 719
f 721 349 348
f 721 350 349
f 721 348 720
f 722 350 721
f 723 351 350
f 723 352 351
f 723 350 722
f 724 352 723
f 725 353 352
f 725 352 724
f 726 354 353
f 726 355 354
f 726 353 725
f 727 356 355
f 727 355 726
f 728 356 727
f 729 357 356
f 729 356 728
f 730 357 729
f 730 358 357
f 731 358 730
f 731 359 358
f 732 359 731
f 732 360 359
f 732 361 360
f 733 361 732
f 734 361 733
f 734 362 361
f 735 362 734
f 735 363 362
f 736 363 735
f 736 364 363
f 736 365 364
f 737 365 736
f 738 365 737
f 738 366 365
f 739 366 738
f 739 367 366
f 739 368 367
f 740 368 739
f 650 368 740
f 650 278 368
f 371 369 1
f 741 370 369
f 741 742 370
f 373 2 370
f 372 743 371
f 744 743 372
f 372 3 375
f 374 373 745
f 746 374 745
f 374 376 4
f 747 375 376
f 747 376 748
f 433 749 434
f 435 434 749
f 432 749 433
f 436 435 749
f 431 749 432
f 437 436 749
f 430 749 431
f 438 437 749
f 429 749 430
f 439 438 749
f 428 749 429
f 440 439 749
f 427 749 428
f 441 440 749
f 426 749 427
f 442 441 749
f 425 749 426
f 443 442 749
f 424 749 425
f 444 443 749
f 423 749 424
f 445 444 749
f 422 749 423
f 446 445 749
f 421 749 422
f 447 446 749
f 420 749 421
f 448 447 749
f 419 749 420
f 449 448 749
f 754 379 378
f 754 380 379
f 754 381 380
f 754 382 381
f 754 383 382
f 754 384 383
f 754 385 384
f 754 386 385
f 754 387 386
f 754 388 387
f 754 389 388
f 754 390 389
f 754 391 390
f 754 392 391
f 754 393 392
f 760 378 377
f 760 754 378
f 760 459 458
f 760 460 459
f 760 461 460
f 760 462 461
f 760 463 462
f 760 464 463
f 760 465 464
f 760 466 465
f 760 467 466
f 760 377 467
f 615 411 616
f 615 412 411
f 617 616 411
f 617 411 410
f 614 413 412
f 614 412 615
f 618 617 410
f 618 409 408
f 618 410 409
f 613 414 413
f 613 413 614
f 619 618 408
f 612 415 414
f 612 414 613
f 620 619 408
f 620 408 407
f 611 416 415
f 611 417 416
f 611 415 612
f 621 406 405
f 621 407 406
f 621 620 407
f 610 417 611
f 622 621 405
f 609 418 417
f 609 417 610
f 623 405 404
f 623 622 405
f 608 749 419
f 608 419 418
f 608 418 609
f 624 623 404
f 624 403 402
f 624 404 403
f 625 624 402
f 626 402 401
f 626 625 402
f 627 401 400
f 627 626 401
f 628 627 400
f 628 399 398
f 628 400 399
f 629 398 397
f 629 628 398
f 630 629 397
f 631 397 396
f 631 630 397
f 632 631 396
f 632 396 395
f 633 632 395
f 633 395 394
f 634 394 393
f 634 633 394
f 634 393 754
f 750 595 594
f 750 596 595
f 750 597 596
f 750 598 597
f 750 599 598
f 750 600 599
f 750 601 600
f 750 602 601
f 750 603 602
f 750 604 603
f 750 605 604
f 750 606 605
f 750 607 606
f 750 608 607
f 750 749 608
f 593 750 594
f 592 750 593
f 591 750 592
f 590 750 591
f 589 750 590
f 588 750 589
f 587 750 588
f 586 750 587
f 585 750 586
f 584 750 585
f 583 750 584
f 582 750 583
f 581 750 582
f 580 750 581
f 579 750 580
f 753 634 754
f 753 635 634
f 753 636 635
f 753 637 636
f 753 638 637
f 753 639 638
f 753 640 639
f 753 641 640
f 753 642 641
f 753 643 642
f 753 644 643
f 753 645 644
f 753 646 645
f 753 647 646
f 753 648 647
f 753 649 648
f 755 649 753
f 755 559 649
f 755 560 559
f 755 561 560
f 755 562 561
f 755 563 562
f 755 564 563
f 755 565 564
f 755 566 565
f 755 567 566
f 755 568 567
f 755 569 568
f 525 457 456
f 524 457 525
f 524 760 458
f 524 759 760
f 524 458 457
f 526 525 456
f 526 456 455
f 523 759 524
f 527 526 455
f 527 455 454
f 522 759 523
f 528 527 454
f 528 454 453
f 521 759 522
f 529 528 453
f 529 453 452
f 520 759 521
f 530 529 452
f 530 452 451
f 519 759 520
f 531 530 451
f 531 451 450
f 518 759 519
f 532 450 449
f 532 531 450
f 517 759 518
f 533 532 449
f 516 759 517
f 515 759 516
f 514 759 515
f 513 759 514
f 512 758 759
f 512 759 513
f 511 758 512
f 510 758 511
f 509 758 510
f 508 758 509
f 507 758 508
f 506 758 507
f 505 758 506
f 504 758 505
f 503 758 504
f 751 449 749
f 751 534 533
f 751 535 534
f 751 536 535
f 751 537 536
f 751 538 537
f 751 539 538
f 751 540 539
f 751 541 540
f 751 542 541
f 751 543 542
f 751 544 543
f 751 545 544
f 751 546 545
f 751 547 546
f 751 533 449
f 502 758 503
f 548 547 751
f 501 758 502
f 549 548 751
f 500 758 501
f 550 549 751
f 499 758 500
f 551 550 751
f 498 758 499
f 552 551 751
f 497 758 498
f 553 552 751
f 554 553 751
f 555 554 751
f 556 555 751
f 557 556 751
f 558 557 751
f 468 558 751
f 469 468 751
f 470 469 751
f 471 470 751
f 706 757 707
f 708 707 757
f 705 757 706
f 709 708 757
f 704 757 705
f 710 709 757
f 703 757 704
f 711 710 757
f 702 757 703
f 712 497 496
f 712 711 757
f 712 758 497
f 712 757 758
f 701 757 702
f 713 712 496
f 700 757 701
f 714 496 495
f 714 713 496
f 699 757 700
f 715 714 495
f 715 494 493
f 715 495 494
f 698 757 699
f 716 715 493
f 697 757 698
f 697 756 757
f 717 493 492
f 717 716 493
f 696 756 697
f 718 491 490
f 718 492 491
f 718 717 492
f 695 756 696
f 719 490 489
f 719 718 490
f 694 756 695
f 720 719 489
f 720 489 488
f 693 756 694
f 721 720 488
f 721 488 487
f 692 756 693
f 722 721 487
f 691 756 692
f 723 487 486
f 723 722 487
f 690 756 691
f 724 486 485
f 724 723 486
f 689 756 690
f 725 485 484
f 725 724 485
f 688 756 689
f 726 483 482
f 726 484 483
f 726 725 484
f 687 756 688
f 727 482 481
f 727 726 482
f 686 756 687
f 728 727 481
f 685 569 755
f 685 756 686
f 685 755 756
f 685 570 569
f 729 481 480
f 729 728 481
f 684 570 685
f 684 571 570
f 730 729 480
f 730 480 479
f 683 571 684
f 683 572 571
f 731 479 478
f 731 730 479
f 732 477 476
f 732 478 477
f 732 731 478
f 733 732 476
f 734 475 474
f 734 476 475
f 734 733 476
f 735 474 473
f 735 734 474
f 736 735 473
f 737 736 473
f 737 472 471
f 737 473 472
f 738 737 471
f 738 471 751
f 752 668 667
f 752 669 668
f 752 670 669
f 752 671 670
f 752 672 671
f 752 673 672
f 752 674 673
f 752 675 674
f 752 676 675
f 752 738 751
f 752 739 738
f 752 740 739
f 752 650 740
f 752 651 650
f 752 652 651
f 752 653 652
f 752 654 653
f 752 655 654
f 752 656 655
f 752 657 656
f 752 658 657
f 752 659 658
f 752 660 659
f 752 661 660
f 752 662 661
f 752 663 662
f 752 664 663
f 752 665 664
f 752 666 665
f 752 667 666
f 752 750 579
f 752 579 578
f 752 578 577
f 752 577 576
f 752 576 575
f 752 575 574
f 752 574 573
f 752 573 572
f 752 572 676
f 676 572 677
f 677 572 678
f 678 572 679
f 679 572 680
f 680 572 681
f 681 572 682
f 682 572 683
f 741 369 371
f 743 741 371
f 742 741 749
f 750 742 749
f 742 373 370
f 745 373 742
f 744 749 743
f 751 749 744
f 747 372 375
f 744 372 747
f 746 745 750
f 752 746 750
f 748 376 374
f 746 748 374
f 748 751 747
f 752 751 748
f 761 753 754
f 761 762 753
f 763 755 753
f 763 753 762
f 761 754 760
f 764 761 760
f 822 755 823
f 824 823 755
f 821 755 822
f 825 824 755
f 820 755 821
f 826 825 755
f 819 755 820
f 827 826 755
f 818 755 819
f 828 827 755
f 817 755 818
f 829 828 755
f 816 755 817
f 815 755 816
f 814 755 815
f 813 755 814
f 812 755 813
f 811 756 755
f 811 755 812
f 810 756 811
f 809 756 810
f 808 756 809
f 807 756 808
f 806 756 807
f 805 756 806
f 804 756 805
f 803 756 804
f 802 756 803
f 801 756 802
f 763 829 755
f 763 830 829
f 763 831 830
f 763 832 831
f 763 833 832
f 763 834 833
f 763 835 834
f 763 836 835
f 763 837 836
f 763 838 837
f 763 839 838
f 763 840 839
f 763 841 840
f 763 842 841
f 763 843 842
f 763 844 843
f 763 845 844
f 800 756 801
f 846 845 763
f 799 756 800
f 847 846 763
f 848 847 763
f 849 848 763
f 850 849 763
f 851 850 763
f 852 851 763
f 853 852 763
f 854 853 763
f 855 854 763
f 856 855 763
f 766 856 763
f 765 767 766
f 765 768 767
f 765 769 768
f 765 770 769
f 765 771 770
f 765 772 771
f 765 773 772
f 765 774 773
f 765 775 774
f 765 776 775
f 765 777 776
f 765 778 777
f 765 779 778
f 765 780 779
f 765 781 780
f 765 782 781
f 765 783 782
f 765 784 783
f 765 785 784
f 765 786 785
f 765 787 786
f 765 788 787
f 765 789 788
f 765 790 789
f 765 791 790
f 765 792 791
f 765 793 792
f 765 766 763
f 765 756 793
f 793 756 794
f 794 756 795
f 795 756 796
f 796 756 797
f 797 756 798
f 798 756 799
f 914 915 760
f 916 760 915
f 913 914 760
f 917 760 916
f 912 913 760
f 918 760 917
f 911 912 760
f 919 760 918
f 910 911 760
f 920 760 919
f 909 910 760
f 921 760 920
f 908 909 760
f 907 908 760
f 906 907 760
f 905 906 760
f 904 905 760
f 903 760 759
f 903 904 760
f 902 903 759
f 901 902 759
f 900 901 759
f 899 900 759
f 898 899 759
f 897 898 759
f 896 897 759
f 895 896 759
f 894 895 759
f 893 894 759
f 764 760 921
f 764 921 922
f 764 922 923
f 764 923 924
f 764 924 925
f 764 925 926
f 764 926 927
f 764 927 928
f 764 928 929
f 764 929 930
f 764 930 931
f 764 931 932
f 764 932 933
f 764 933 934
f 764 934 935
f 764 935 936
f 764 936 937
f 892 893 759
f 938 764 937
f 891 892 759
f 939 764 938
f 940 764 939
f 941 764 940
f 942 764 941
f 943 764 942
f 944 764 943
f 945 764 944
f 946 764 945
f 947 764 946
f 948 764 947
f 858 764 948
f 857 858 859
f 857 859 860
f 857 860 861
f 857 861 862
f 857 862 863
f 857 863 864
f 857 864 865
f 857 865 866
f 857 866 867
f 857 867 868
f 857 868 869
f 857 869 870
f 857 870 871
f 857 871 872
f 857 872 873
f 857 873 874
f 857 874 875
f 857 875 876
f 857 876 877
f 857 877 878
f 857 878 879
f 857 879 880
f 857 880 881
f 857 881 882
f 857 882 883
f 857 883 884
f 857 884 885
f 857 764 858
f 857 885 759
f 885 886 759
f 886 887 759
f 887 888 759
f 888 889 759
f 889 890 759
f 890 891 759
f 765 757 756
f 765 949 757
f 950 759 758
f 857 759 950
f 950 758 757
f 950 757 949
f 743 749 741
f 750 745 742
f 744 747 751
f 752 748 746
f 762 761 951
f 952 762 951
f 952 763 762
f 764 951 761
f 765 763 952
f 953 765 952
f 767 858 766
f 767 859 858
f 768 860 859
f 768 859 767
f 769 861 860
f 769 862 861
f 769 860 768
f 770 862 769
f 771 862 770
f 771 863 862
f 771 864 863
f 772 864 771
f 773 864 772
f 773 865 864
f 774 865 773
f 774 866 865
f 775 867 866
f 775 866 774
f 776 868 867
f 776 867 775
f 777 869 868
f 777 870 869
f 777 868 776
f 778 870 777
f 779 871 870
f 779 870 778
f 780 872 871
f 780 871 779
f 781 873 872
f 781 872 780
f 782 874 873
f 782 873 781
f 783 875 874
f 783 874 782
f 784 876 875
f 784 875 783
f 785 877 876
f 785 878 877
f 785 876 784
f 786 878 785
f 787 879 878
f 787 878 786
f 788 880 879
f 788 879 787
f 789 881 880
f 789 880 788
f 790 882 881
f 790 881 789
f 791 883 882
f 791 882 790
f 792 884 883
f 792 885 884
f 792 883 791
f 793 885 792
f 794 886 885
f 794 885 793
f 795 886 794
f 795 887 886
f 796 887 795
f 796 888 887
f 796 889 888
f 797 889 796
f 798 889 797
f 798 890 889
f 799 890 798
f 799 891 890
f 800 891 799
f 800 892 891
f 801 893 892
f 801 892 800
f 802 894 893
f 802 895 894
f 802 893 801
f 803 895 802
f 804 896 895
f 804 895 803
f 805 897 896
f 805 896 804
f 806 898 897
f 806 897 805
f 807 899 898
f 807 898 806
f 808 900 899
f 808 899 807
f 809 901 900
f 809 900 808
f 810 902 901
f 810 901 809
f 811 903 902
f 811 902 810
f 812 904 903
f 812 903 811
f 813 905 904
f 813 906 905
f 813 904 812
f 814 906 813
f 815 907 906
f 815 906 814
f 816 908 907
f 816 907 815
f 817 909 908
f 817 908 816
f 818 910 909
f 818 909 817
f 819 911 910
f 819 910 818
f 820 912 911
f 820 911 819
f 821 912 820
f 821 913 912
f 822 913 821
f 822 914 913
f 823 914 822
f 823 915 914
f 824 915 823
f 824 916 915
f 825 916 824
f 825 917 916
f 825 918 917
f 826 918 825
f 827 918 826
f 827 919 918
f 828 919 827
f 828 920 919
f 828 921 920
f 829 921 828
f 829 922 921
f 830 922 829
f 831 922 830
f 831 923 922
f 832 923 831
f 832 924 923
f 833 924 832
f 833 925 924
f 834 925 833
f 834 926 925
f 835 926 834
f 835 927 926
f 836 928 927
f 836 927 835
f 836 929 928
f 837 929 836
f 838 930 929
f 838 931 930
f 838 929 837
f 839 931 838
f 840 932 931
f 840 931 839
f 841 933 932
f 841 934 933
f 841 932 840
f 842 934 841
f 843 935 934
f 843 936 935
f 843 934 842
f 844 936 843
f 845 937 936
f 845 936 844
f 846 937 845
f 846 938 937
f 846 939 938
f 847 939 846
f 848 939 847
f 848 940 939
f 849 940 848
f 849 941 940
f 850 941 849
f 850 942 941
f 851 942 850
f 851 943 942
f 852 943 851
f 852 944 943
f 853 944 852
f 853 945 944
f 854 945 853
f 854 946 945
f 855 946 854
f 855 947 946
f 856 947 855
f 856 948 947
f 856 858 948
f 766 858 856
f 857 951 764
f 954 951 857
f 953 949 765
f 857 950 954
f 949 954 950
f 953 954 949
f 953 952 951
f 953 951 954
