# SimpleCAD BREP tessellation for MuJoCo
v 2.24375 0 -1
v 2.20966239582 0.38962309864 -1
v 2.10843531789 0.767407696587 -1
v 1.94314449974 1.121875 -1
v 1.71881221925 1.44225469923 -1
v 1.44225469923 1.71881221925 -1
v 1.121875 1.94314449974 -1
v 0.767407696587 2.10843531789 -1
v 0.38962309864 2.20966239582 -1
v -1.35724768412e-15 2.24375 -1
v -0.38962309864 2.20966239582 -1
v -0.767407696587 2.10843531789 -1
v -1.121875 1.94314449974 -1
v -1.44225469923 1.71881221925 -1
v -1.71881221925 1.44225469923 -1
v -1.94314449974 1.121875 -1
v -2.10843531789 0.767407696587 -1
v -2.20966239582 0.38962309864 -1
v -2.24375 -4.70734569745e-15 -1
v -2.20966239582 -0.38962309864 -1
v -2.10843531789 -0.767407696587 -1
v -1.94314449974 -1.121875 -1
v -1.71881221925 -1.44225469923 -1
v -1.44225469923 -1.71881221925 -1
v -1.121875 -1.94314449974 -1
v -0.767407696587 -2.10843531789 -1
v -0.38962309864 -2.20966239582 -1
v 5.56638079927e-15 -2.24375 -1
v 0.38962309864 -2.20966239582 -1
v 0.767407696587 -2.10843531789 -1
v 1.121875 -1.94314449974 -1
v 1.44225469923 -1.71881221925 -1
v 1.71881221925 -1.44225469923 -1
v 1.94314449974 -1.121875 -1
v 2.10843531789 -0.767407696587 -1
v 2.20966239582 -0.38962309864 -1
v 1.6 0 -1
v 1.57569240482 0.277837084267 -1
v 1.50350819326 0.547232229321 -1
v 1.38564064606 0.8 -1
v 1.22567110899 1.0284601755 -1
v 1.0284601755 1.22567110899 -1
v 0.8 1.38564064606 -1
v 0.547232229321 1.50350819326 -1
v 0.277837084267 1.57569240482 -1
v -9.67842359708e-16 1.6 -1
v -0.277837084267 1.57569240482 -1
v -0.547232229321 1.50350819326 -1
v -0.8 1.38564064606 -1
v -1.0284601755 1.22567110899 -1
v -1.22567110899 1.0284601755 -1
v -1.38564064606 0.8 -1
v -1.50350819326 0.547232229321 -1
v -1.57569240482 0.277837084267 -1
v -1.6 -3.35677019094e-15 -1
v -1.57569240482 -0.277837084267 -1
v -1.50350819326 -0.547232229321 -1
v -1.38564064606 -0.8 -1
v -1.22567110899 -1.0284601755 -1
v -1.0284601755 -1.22567110899 -1
v -0.8 -1.38564064606 -1
v -0.547232229321 -1.50350819326 -1
v -0.277837084267 -1.57569240482 -1
v 3.96934118277e-15 -1.6 -1
v 0.277837084267 -1.57569240482 -1
v 0.547232229321 -1.50350819326 -1
v 0.8 -1.38564064606 -1
v 1.0284601755 -1.22567110899 -1
v 1.22567110899 -1.0284601755 -1
v 1.38564064606 -0.8 -1
v 1.50350819326 -0.547232229321 -1
v 1.57569240482 -0.277837084267 -1
v 2.24375 0 -0.224690759712
v 2.20966239582 0.38962309864 -0.224690759712
v 2.10843531789 0.767407696587 -0.224690759712
v 1.94314449974 1.121875 -0.224690759712
v 1.71881221925 1.44225469923 -0.224690759712
v 1.44225469923 1.71881221925 -0.224690759712
v 1.121875 1.94314449974 -0.224690759712
v 0.767407696587 2.10843531789 -0.224690759712
v 0.38962309864 2.20966239582 -0.224690759712
v -1.35724768412e-15 2.24375 -0.224690759712
v -0.38962309864 2.20966239582 -0.224690759712
v -0.767407696587 2.10843531789 -0.224690759712
v -1.121875 1.94314449974 -0.224690759712
v -1.44225469923 1.71881221925 -0.224690759712
v -1.71881221925 1.44225469923 -0.224690759712
v -1.94314449974 1.121875 -0.224690759712
v -2.10843531789 0.767407696587 -0.224690759712
v -2.20966239582 0.38962309864 -0.224690759712
v -2.24375 -4.70734569745e-15 -0.224690759712
v -2.20966239582 -0.38962309864 -0.224690759712
v -2.10843531789 -0.767407696587 -0.224690759712
v -1.94314449974 -1.121875 -0.224690759712
v -1.71881221925 -1.44225469923 -0.224690759712
v -1.44225469923 -1.71881221925 -0.224690759712
v -1.121875 -1.94314449974 -0.224690759712
v -0.767407696587 -2.10843531789 -0.224690759712
v -0.38962309864 -2.20966239582 -0.224690759712
v 5.56638079927e-15 -2.24375 -0.224690759712
v 0.38962309864 -2.20966239582 -0.224690759712
v 0.767407696587 -2.10843531789 -0.224690759712
v 1.121875 -1.94314449974 -0.224690759712
v 1.44225469923 -1.71881221925 -0.224690759712
v 1.71881221925 -1.44225469923 -0.224690759712
v 1.94314449974 -1.121875 -0.224690759712
v 2.10843531789 -0.767407696587 -0.224690759712
v 2.20966239582 -0.38962309864 -0.224690759712
v 2.20952646774 0 -0.187609915206
v 2.18188507074 0 -0.145393895012
v 2.16158239709 0 -0.0991982173769
v 2.14917416261 0 -0.0502873299747
v 2.145 0 -4.13605883539e-16
v 2.14917416261 0 0.0502873299747
v 2.16158239709 0 0.0991982173769
v 2.18188507074 0 0.145393895012
v 2.20952646774 0 0.187609915206
v 2.24375 0 0.224690759712
v 2.20966239582 0.38962309864 0.224690759712
v 2.10843531789 0.767407696587 0.224690759712
v 1.94314449974 1.121875 0.224690759712
v 1.71881221925 1.44225469923 0.224690759712
v 1.44225469923 1.71881221925 0.224690759712
v 1.121875 1.94314449974 0.224690759712
v 0.767407696587 2.10843531789 0.224690759712
v 0.38962309864 2.20966239582 0.224690759712
v -1.35724768412e-15 2.24375 0.224690759712
v -0.38962309864 2.20966239582 0.224690759712
v -0.767407696587 2.10843531789 0.224690759712
v -1.121875 1.94314449974 0.224690759712
v -1.44225469923 1.71881221925 0.224690759712
v -1.71881221925 1.44225469923 0.224690759712
v -1.94314449974 1.121875 0.224690759712
v -2.10843531789 0.767407696587 0.224690759712
v -2.20966239582 0.38962309864 0.224690759712
v -2.24375 -4.70734569745e-15 0.224690759712
v -2.20966239582 -0.38962309864 0.224690759712
v -2.10843531789 -0.767407696587 0.224690759712
v -1.94314449974 -1.121875 0.224690759712
v -1.71881221925 -1.44225469923 0.224690759712
v -1.44225469923 -1.71881221925 0.224690759712
v -1.121875 -1.94314449974 0.224690759712
v -0.767407696587 -2.10843531789 0.224690759712
v -0.38962309864 -2.20966239582 0.224690759712
v 5.56638079927e-15 -2.24375 0.224690759712
v 0.38962309864 -2.20966239582 0.224690759712
v 0.767407696587 -2.10843531789 0.224690759712
v 1.121875 -1.94314449974 0.224690759712
v 1.44225469923 -1.71881221925 0.224690759712
v 1.71881221925 -1.44225469923 0.224690759712
v 1.94314449974 -1.121875 0.224690759712
v 2.10843531789 -0.767407696587 0.224690759712
v 2.20966239582 -0.38962309864 0.224690759712
v 2.17595879592 0.38368024463 -0.187609915206
v 2.14873733384 0.378880366412 -0.145393895012
v 2.12874310343 0.375354844131 -0.0991982173769
v 2.11652337791 0.373200176825 -0.0502873299747
v 2.11241263021 0.372475341096 0
v 2.11652337791 0.373200176825 0.0502873299747
v 2.12874310343 0.375354844131 0.0991982173769
v 2.14873733384 0.378880366412 0.145393895012
v 2.07627571717 0.755702559179 -0.187609915206
v 2.17595879592 0.38368024463 0.187609915206
v 2.05030130038 0.746248644614 -0.145393895012
v 2.03122302776 0.739304721262 -0.0991982173769
v 2.01956310138 0.735060855126 -0.0502873299747
v 2.01564067159 0.733633207434 0
v 2.01956310138 0.735060855126 0.0502873299747
v 2.03122302776 0.739304721262 0.0991982173769
v 2.05030130038 0.746248644614 0.145393895012
v 1.9135060514 1.10476323387 -0.187609915206
v 2.07627571717 0.755702559179 0.187609915206
v 1.8895678994 1.09094253537 -0.145393895012
v 1.87198526825 1.08079119854 -0.0991982173769
v 1.86123942197 1.0745870813 -0.0502873299747
v 1.85762449112 1.0725 0
v 1.86123942197 1.0745870813 0.0502873299747
v 1.87198526825 1.08079119854 0.0991982173769
v 1.8895678994 1.09094253537 0.145393895012
v 1.69259547254 1.42025623674 -0.187609915206
v 1.9135060514 1.10476323387 0.187609915206
v 1.67142093396 1.40248868923 -0.145393895012
v 1.65586818363 1.38943838216 -0.0991982173769
v 1.64636292456 1.38146252278 -0.0502873299747
v 1.64316533049 1.37877942278 0
v 1.64636292456 1.38146252278 0.0502873299747
v 1.65586818363 1.38943838216 0.0991982173769
v 1.67142093396 1.40248868923 0.145393895012
v 1.42025623674 1.69259547254 -0.187609915206
v 1.69259547254 1.42025623674 0.187609915206
v 1.40248868923 1.67142093396 -0.145393895012
v 1.38943838216 1.65586818363 -0.0991982173769
v 1.38146252278 1.64636292456 -0.0502873299747
v 1.37877942278 1.64316533049 0
v 1.38146252278 1.64636292456 0.0502873299747
v 1.38943838216 1.65586818363 0.0991982173769
v 1.40248868923 1.67142093396 0.145393895012
v 1.10476323387 1.9135060514 -0.187609915206
v 1.42025623674 1.69259547254 0.187609915206
v 1.09094253537 1.8895678994 -0.145393895012
v 1.08079119854 1.87198526825 -0.0991982173769
v 1.0745870813 1.86123942197 -0.0502873299747
v 1.0725 1.85762449112 0
v 1.0745870813 1.86123942197 0.0502873299747
v 1.08079119854 1.87198526825 0.0991982173769
v 1.09094253537 1.8895678994 0.145393895012
v 0.755702559179 2.07627571717 -0.187609915206
v 1.10476323387 1.9135060514 0.187609915206
v 0.746248644614 2.05030130038 -0.145393895012
v 0.739304721262 2.03122302776 -0.0991982173769
v 0.735060855126 2.01956310138 -0.0502873299747
v 0.733633207434 2.01564067159 0
v 0.735060855126 2.01956310138 0.0502873299747
v 0.739304721262 2.03122302776 0.0991982173769
v 0.746248644614 2.05030130038 0.145393895012
v 0.38368024463 2.17595879592 -0.187609915206
v 0.755702559179 2.07627571717 0.187609915206
v 0.378880366412 2.14873733384 -0.145393895012
v 0.375354844131 2.12874310343 -0.0991982173769
v 0.373200176825 2.11652337791 -0.0502873299747
v 0.372475341096 2.11241263021 0
v 0.373200176825 2.11652337791 0.0502873299747
v 0.375354844131 2.12874310343 0.0991982173769
v 0.378880366412 2.14873733384 0.145393895012
v 0 2.20952646774 -0.187609915206
v 0.38368024463 2.17595879592 0.187609915206
v 0 2.18188507074 -0.145393895012
v 0 2.16158239709 -0.0991982173769
v 0 2.14917416261 -0.0502873299747
v 0 2.145 0
v 0 2.14917416261 0.0502873299747
v 0 2.16158239709 0.0991982173769
v 0 2.18188507074 0.145393895012
v -0.38368024463 2.17595879592 -0.187609915206
v 0 2.20952646774 0.187609915206
v -0.378880366412 2.14873733384 -0.145393895012
v -0.375354844131 2.12874310343 -0.0991982173769
v -0.373200176825 2.11652337791 -0.0502873299747
v -0.372475341096 2.11241263021 0
v -0.373200176825 2.11652337791 0.0502873299747
v -0.375354844131 2.12874310343 0.0991982173769
v -0.378880366412 2.14873733384 0.145393895012
v -0.755702559179 2.07627571717 -0.187609915206
v -0.38368024463 2.17595879592 0.187609915206
v -0.746248644614 2.05030130038 -0.145393895012
v -0.739304721262 2.03122302776 -0.0991982173769
v -0.735060855126 2.01956310138 -0.0502873299747
v -0.733633207434 2.01564067159 0
v -0.735060855126 2.01956310138 0.0502873299747
v -0.739304721262 2.03122302776 0.0991982173769
v -0.746248644614 2.05030130038 0.145393895012
v -1.10476323387 1.9135060514 -0.187609915206
v -0.755702559179 2.07627571717 0.187609915206
v -1.09094253537 1.8895678994 -0.145393895012
v -1.08079119854 1.87198526825 -0.0991982173769
v -1.0745870813 1.86123942197 -0.0502873299747
v -1.0725 1.85762449112 0
v -1.0745870813 1.86123942197 0.0502873299747
v -1.08079119854 1.87198526825 0.0991982173769
v -1.09094253537 1.8895678994 0.145393895012
v -1.42025623674 1.69259547254 -0.187609915206
v -1.10476323387 1.9135060514 0.187609915206
v -1.40248868923 1.67142093396 -0.145393895012
v -1.38943838216 1.65586818363 -0.0991982173769
v -1.38146252278 1.64636292456 -0.0502873299747
v -1.37877942278 1.64316533049 0
v -1.38146252278 1.64636292456 0.0502873299747
v -1.38943838216 1.65586818363 0.0991982173769
v -1.40248868923 1.67142093396 0.145393895012
v -1.69259547254 1.42025623674 -0.187609915206
v -1.42025623674 1.69259547254 0.187609915206
v -1.67142093396 1.40248868923 -0.145393895012
v -1.65586818363 1.38943838216 -0.0991982173769
v -1.64636292456 1.38146252278 -0.0502873299747
v -1.64316533049 1.37877942278 0
v -1.64636292456 1.38146252278 0.0502873299747
v -1.65586818363 1.38943838216 0.0991982173769
v -1.67142093396 1.40248868923 0.145393895012
v -1.9135060514 1.10476323387 -0.187609915206
v -1.69259547254 1.42025623674 0.187609915206
v -1.8895678994 1.09094253537 -0.145393895012
v -1.87198526825 1.08079119854 -0.0991982173769
v -1.86123942197 1.0745870813 -0.0502873299747
v -1.85762449112 1.0725 0
v -1.86123942197 1.0745870813 0.0502873299747
v -1.87198526825 1.08079119854 0.0991982173769
v -1.8895678994 1.09094253537 0.145393895012
v -2.07627571717 0.755702559179 -0.187609915206
v -1.9135060514 1.10476323387 0.187609915206
v -2.05030130038 0.746248644614 -0.145393895012
v -2.03122302776 0.739304721262 -0.0991982173769
v -2.01956310138 0.735060855126 -0.0502873299747
v -2.01564067159 0.733633207434 0
v -2.01956310138 0.735060855126 0.0502873299747
v -2.03122302776 0.739304721262 0.0991982173769
v -2.05030130038 0.746248644614 0.145393895012
v -2.17595879592 0.38368024463 -0.187609915206
v -2.07627571717 0.755702559179 0.187609915206
v -2.14873733384 0.378880366412 -0.145393895012
v -2.12874310343 0.375354844131 -0.0991982173769
v -2.11652337791 0.373200176825 -0.0502873299747
v -2.11241263021 0.372475341096 0
v -2.11652337791 0.373200176825 0.0502873299747
v -2.12874310343 0.375354844131 0.0991982173769
v -2.14873733384 0.378880366412 0.145393895012
v -2.20952646774 0 -0.187609915206
v -2.17595879592 0.38368024463 0.187609915206
v -2.18188507074 0 -0.145393895012
v -2.16158239709 0 -0.0991982173769
v -2.14917416261 0 -0.0502873299747
v -2.145 0 0
v -2.14917416261 0 0.0502873299747
v -2.16158239709 0 0.0991982173769
v -2.18188507074 0 0.145393895012
v -2.17595879592 -0.38368024463 -0.187609915206
v -2.20952646774 0 0.187609915206
v -2.14873733384 -0.378880366412 -0.145393895012
v -2.12874310343 -0.375354844131 -0.0991982173769
v -2.11652337791 -0.373200176825 -0.0502873299747
v -2.11241263021 -0.372475341096 0
v -2.11652337791 -0.373200176825 0.0502873299747
v -2.12874310343 -0.375354844131 0.0991982173769
v -2.14873733384 -0.378880366412 0.145393895012
v -2.07627571717 -0.755702559179 -0.187609915206
v -2.17595879592 -0.38368024463 0.187609915206
v -2.05030130038 -0.746248644614 -0.145393895012
v -2.03122302776 -0.739304721262 -0.0991982173769
v -2.01956310138 -0.735060855126 -0.0502873299747
v -2.01564067159 -0.733633207434 0
v -2.01956310138 -0.735060855126 0.0502873299747
v -2.03122302776 -0.739304721262 0.0991982173769
v -2.05030130038 -0.746248644614 0.145393895012
v -1.9135060514 -1.10476323387 -0.187609915206
v -2.07627571717 -0.755702559179 0.187609915206
v -1.8895678994 -1.09094253537 -0.145393895012
v -1.87198526825 -1.08079119854 -0.0991982173769
v -1.86123942197 -1.0745870813 -0.0502873299747
v -1.85762449112 -1.0725 0
v -1.86123942197 -1.0745870813 0.0502873299747
v -1.87198526825 -1.08079119854 0.0991982173769
v -1.8895678994 -1.09094253537 0.145393895012
v -1.69259547254 -1.42025623674 -0.187609915206
v -1.9135060514 -1.10476323387 0.187609915206
v -1.67142093396 -1.40248868923 -0.145393895012
v -1.65586818363 -1.38943838216 -0.0991982173769
v -1.64636292456 -1.38146252278 -0.0502873299747
v -1.64316533049 -1.37877942278 0
v -1.64636292456 -1.38146252278 0.0502873299747
v -1.65586818363 -1.38943838216 0.0991982173769
v -1.67142093396 -1.40248868923 0.145393895012
v -1.42025623674 -1.69259547254 -0.187609915206
v -1.69259547254 -1.42025623674 0.187609915206
v -1.40248868923 -1.67142093396 -0.145393895012
v -1.38943838216 -1.65586818363 -0.0991982173769
v -1.38146252278 -1.64636292456 -0.0502873299747
v -1.37877942278 -1.64316533049 0
v -1.38146252278 -1.64636292456 0.0502873299747
v -1.38943838216 -1.65586818363 0.0991982173769
v -1.40248868923 -1.67142093396 0.145393895012
v -1.10476323387 -1.9135060514 -0.187609915206
v -1.42025623674 -1.69259547254 0.187609915206
v -1.09094253537 -1.8895678994 -0.145393895012
v -1.08079119854 -1.87198526825 -0.0991982173769
v -1.0745870813 -1.86123942197 -0.0502873299747
v -1.0725 -1.85762449112 0
v -1.0745870813 -1.86123942197 0.0502873299747
v -1.08079119854 -1.87198526825 0.0991982173769
v -1.09094253537 -1.8895678994 0.145393895012
v -0.755702559179 -2.07627571717 -0.187609915206
v -1.10476323387 -1.9135060514 0.187609915206
v -0.746248644614 -2.05030130038 -0.145393895012
v -0.739304721262 -2.03122302776 -0.0991982173769
v -0.735060855126 -2.01956310138 -0.0502873299747
v -0.733633207434 -2.01564067159 0
v -0.735060855126 -2.01956310138 0.0502873299747
v -0.739304721262 -2.03122302776 0.0991982173769
v -0.746248644614 -2.05030130038 0.145393895012
v -0.38368024463 -2.17595879592 -0.187609915206
v -0.755702559179 -2.07627571717 0.187609915206
v -0.378880366412 -2.14873733384 -0.145393895012
v -0.375354844131 -2.12874310343 -0.0991982173769
v -0.373200176825 -2.11652337791 -0.0502873299747
v -0.372475341096 -2.11241263021 0
v -0.373200176825 -2.11652337791 0.0502873299747
v -0.375354844131 -2.12874310343 0.0991982173769
v -0.378880366412 -2.14873733384 0.145393895012
v 0 -2.20952646774 -0.187609915206
v -0.38368024463 -2.17595879592 0.187609915206
v 0 -2.18188507074 -0.145393895012
v 0 -2.16158239709 -0.0991982173769
v 0 -2.14917416261 -0.0502873299747
v 0 -2.145 0
v 0 -2.14917416261 0.0502873299747
v 0 -2.16158239709 0.0991982173769
v 0 -2.18188507074 0.145393895012
v 0.38368024463 -2.17595879592 -0.187609915206
v 0 -2.20952646774 0.187609915206
v 0.378880366412 -2.14873733384 -0.145393895012
v 0.375354844131 -2.12874310343 -0.0991982173769
v 0.373200176825 -2.11652337791 -0.0502873299747
v 0.372475341096 -2.11241263021 0
v 0.373200176825 -2.11652337791 0.0502873299747
v 0.375354844131 -2.12874310343 0.0991982173769
v 0.378880366412 -2.14873733384 0.145393895012
v 0.755702559179 -2.07627571717 -0.187609915206
v 0.38368024463 -2.17595879592 0.187609915206
v 0.746248644614 -2.05030130038 -0.145393895012
v 0.739304721262 -2.03122302776 -0.0991982173769
v 0.735060855126 -2.01956310138 -0.0502873299747
v 0.733633207434 -2.01564067159 0
v 0.735060855126 -2.01956310138 0.0502873299747
v 0.739304721262 -2.03122302776 0.0991982173769
v 0.746248644614 -2.05030130038 0.145393895012
v 1.10476323387 -1.9135060514 -0.187609915206
v 0.755702559179 -2.07627571717 0.187609915206
v 1.09094253537 -1.8895678994 -0.145393895012
v 1.08079119854 -1.87198526825 -0.0991982173769
v 1.0745870813 -1.86123942197 -0.0502873299747
v 1.0725 -1.85762449112 0
v 1.0745870813 -1.86123942197 0.0502873299747
v 1.08079119854 -1.87198526825 0.0991982173769
v 1.09094253537 -1.8895678994 0.145393895012
v 1.42025623674 -1.69259547254 -0.187609915206
v 1.10476323387 -1.9135060514 0.187609915206
v 1.40248868923 -1.67142093396 -0.145393895012
v 1.38943838216 -1.65586818363 -0.0991982173769
v 1.38146252278 -1.64636292456 -0.0502873299747
v 1.37877942278 -1.64316533049 0
v 1.38146252278 -1.64636292456 0.0502873299747
v 1.38943838216 -1.65586818363 0.0991982173769
v 1.40248868923 -1.67142093396 0.145393895012
v 1.69259547254 -1.42025623674 -0.187609915206
v 1.42025623674 -1.69259547254 0.187609915206
v 1.67142093396 -1.40248868923 -0.145393895012
v 1.65586818363 -1.38943838216 -0.0991982173769
v 1.64636292456 -1.38146252278 -0.0502873299747
v 1.64316533049 -1.37877942278 0
v 1.64636292456 -1.38146252278 0.0502873299747
v 1.65586818363 -1.38943838216 0.0991982173769
v 1.67142093396 -1.40248868923 0.145393895012
v 1.9135060514 -1.10476323387 -0.187609915206
v 1.69259547254 -1.42025623674 0.187609915206
v 1.8895678994 -1.09094253537 -0.145393895012
v 1.87198526825 -1.08079119854 -0.0991982173769
v 1.86123942197 -1.0745870813 -0.0502873299747
v 1.85762449112 -1.0725 0
v 1.86123942197 -1.0745870813 0.0502873299747
v 1.87198526825 -1.08079119854 0.0991982173769
v 1.8895678994 -1.09094253537 0.145393895012
v 2.07627571717 -0.755702559179 -0.187609915206
v 1.9135060514 -1.10476323387 0.187609915206
v 2.05030130038 -0.746248644614 -0.145393895012
v 2.03122302776 -0.739304721262 -0.0991982173769
v 2.01956310138 -0.735060855126 -0.0502873299747
v 2.01564067159 -0.733633207434 0
v 2.01956310138 -0.735060855126 0.0502873299747
v 2.03122302776 -0.739304721262 0.0991982173769
v 2.05030130038 -0.746248644614 0.145393895012
v 2.17595879592 -0.38368024463 -0.187609915206
v 2.07627571717 -0.755702559179 0.187609915206
v 2.14873733384 -0.378880366412 -0.145393895012
v 2.12874310343 -0.375354844131 -0.0991982173769
v 2.11652337791 -0.373200176825 -0.0502873299747
v 2.11241263021 -0.372475341096 0
v 2.11652337791 -0.373200176825 0.0502873299747
v 2.12874310343 -0.375354844131 0.0991982173769
v 2.14873733384 -0.378880366412 0.145393895012
v 2.17595879592 -0.38368024463 0.187609915206
v 2.24375 0 1
v 2.20966239582 0.38962309864 1
v 2.10843531789 0.767407696587 1
v 1.94314449974 1.121875 1
v 1.71881221925 1.44225469923 1
v 1.44225469923 1.71881221925 1
v 1.121875 1.94314449974 1
v 0.767407696587 2.10843531789 1
v 0.38962309864 2.20966239582 1
v -1.35724768412e-15 2.24375 1
v -0.38962309864 2.20966239582 1
v -0.767407696587 2.10843531789 1
v -1.121875 1.94314449974 1
v -1.44225469923 1.71881221925 1
v -1.71881221925 1.44225469923 1
v -1.94314449974 1.121875 1
v -2.10843531789 0.767407696587 1
v -2.20966239582 0.38962309864 1
v -2.24375 -4.70734569745e-15 1
v -2.20966239582 -0.38962309864 1
v -2.10843531789 -0.767407696587 1
v -1.94314449974 -1.121875 1
v -1.71881221925 -1.44225469923 1
v -1.44225469923 -1.71881221925 1
v -1.121875 -1.94314449974 1
v -0.767407696587 -2.10843531789 1
v -0.38962309864 -2.20966239582 1
v 5.56638079927e-15 -2.24375 1
v 0.38962309864 -2.20966239582 1
v 0.767407696587 -2.10843531789 1
v 1.121875 -1.94314449974 1
v 1.44225469923 -1.71881221925 1
v 1.71881221925 -1.44225469923 1
v 1.94314449974 -1.121875 1
v 2.10843531789 -0.767407696587 1
v 2.20966239582 -0.38962309864 1
v 1.6 0 1
v 1.57569240482 0.277837084267 1
v 1.50350819326 0.547232229321 1
v 1.38564064606 0.8 1
v 1.22567110899 1.0284601755 1
v 1.0284601755 1.22567110899 1
v 0.8 1.38564064606 1
v 0.547232229321 1.50350819326 1
v 0.277837084267 1.57569240482 1
v -9.67842359708e-16 1.6 1
v -0.277837084267 1.57569240482 1
v -0.547232229321 1.50350819326 1
v -0.8 1.38564064606 1
v -1.0284601755 1.22567110899 1
v -1.22567110899 1.0284601755 1
v -1.38564064606 0.8 1
v -1.50350819326 0.547232229321 1
v -1.57569240482 0.277837084267 1
v -1.6 -3.35677019094e-15 1
v -1.57569240482 -0.277837084267 1
v -1.50350819326 -0.547232229321 1
v -1.38564064606 -0.8 1
v -1.22567110899 -1.0284601755 1
v -1.0284601755 -1.22567110899 1
v -0.8 -1.38564064606 1
v -0.547232229321 -1.50350819326 1
v -0.277837084267 -1.57569240482 1
v 3.96934118277e-15 -1.6 1
v 0.277837084267 -1.57569240482 1
v 0.547232229321 -1.50350819326 1
v 0.8 -1.38564064606 1
v 1.0284601755 -1.22567110899 1
v 1.22567110899 -1.0284601755 1
v 1.38564064606 -0.8 1
v 1.50350819326 -0.547232229321 1
v 1.57569240482 -0.277837084267 1
f 69 33 32
f 69 32 68
f 67 32 31
f 67 68 32
f 70 34 33
f 70 33 69
f 66 31 30
f 66 67 31
f 71 34 70
f 71 35 34
f 65 66 30
f 65 30 29
f 72 35 71
f 72 36 35
f 64 65 29
f 64 29 28
f 37 36 72
f 37 1 36
f 63 28 27
f 63 64 28
f 38 2 1
f 38 1 37
f 62 27 26
f 62 63 27
f 39 3 2
f 39 2 38
f 61 62 26
f 61 26 25
f 40 4 3
f 40 3 39
f 60 25 24
f 60 61 25
f 41 5 4
f 41 4 40
f 59 60 24
f 23 59 24
f 6 5 41
f 6 41 42
f 58 59 23
f 43 6 42
f 22 58 23
f 7 6 43
f 21 58 22
f 21 56 57
f 21 57 58
f 8 43 44
f 8 7 43
f 20 56 21
f 9 44 45
f 9 8 44
f 19 54 55
f 19 55 56
f 19 56 20
f 10 45 46
f 10 9 45
f 18 53 54
f 18 54 19
f 11 46 47
f 11 10 46
f 17 53 18
f 12 47 48
f 12 11 47
f 16 53 17
f 16 52 53
f 13 48 49
f 13 49 50
f 13 12 48
f 15 52 16
f 15 51 52
f 14 51 15
f 14 50 51
f 14 13 50
f 74 1 2
f 74 73 1
f 75 2 3
f 75 74 2
f 76 3 4
f 76 75 3
f 77 4 5
f 77 76 4
f 78 5 6
f 78 77 5
f 79 6 7
f 79 78 6
f 80 79 7
f 80 7 8
f 81 8 9
f 81 80 8
f 82 9 10
f 82 81 9
f 83 82 10
f 83 10 11
f 83 11 12
f 84 83 12
f 85 12 13
f 85 84 12
f 86 13 14
f 86 85 13
f 87 14 15
f 87 86 14
f 88 15 16
f 88 16 17
f 88 87 15
f 89 88 17
f 90 17 18
f 90 89 17
f 91 18 19
f 91 90 18
f 92 19 20
f 92 20 21
f 92 91 19
f 93 92 21
f 94 21 22
f 94 93 21
f 95 22 23
f 95 94 22
f 96 23 24
f 96 24 25
f 96 95 23
f 97 25 26
f 97 96 25
f 98 97 26
f 99 26 27
f 99 98 26
f 100 27 28
f 100 28 29
f 100 99 27
f 101 100 29
f 102 29 30
f 102 101 29
f 103 30 31
f 103 102 30
f 104 103 31
f 104 31 32
f 105 104 32
f 105 32 33
f 106 105 33
f 106 33 34
f 107 106 34
f 107 34 35
f 108 107 35
f 108 35 36
f 108 36 1
f 73 108 1
f 118 153 117
f 154 73 74
f 154 109 73
f 155 109 154
f 155 110 109
f 156 110 155
f 156 111 110
f 157 111 156
f 157 112 111
f 158 112 157
f 158 113 112
f 159 113 158
f 159 114 113
f 160 114 159
f 160 115 114
f 161 116 115
f 161 115 160
f 162 74 75
f 162 154 74
f 163 116 161
f 163 119 118
f 163 117 116
f 163 118 117
f 164 155 154
f 164 154 162
f 165 156 155
f 165 155 164
f 166 157 156
f 166 156 165
f 167 158 157
f 167 157 166
f 168 159 158
f 168 158 167
f 169 159 168
f 169 160 159
f 170 160 169
f 170 161 160
f 171 75 76
f 171 162 75
f 172 119 163
f 172 120 119
f 172 161 170
f 172 163 161
f 173 164 162
f 173 162 171
f 174 165 164
f 174 164 173
f 175 166 165
f 175 165 174
f 176 167 166
f 176 166 175
f 177 167 176
f 177 168 167
f 178 169 168
f 178 168 177
f 179 169 178
f 179 170 169
f 180 76 77
f 180 171 76
f 181 170 179
f 181 172 170
f 181 120 172
f 181 121 120
f 182 171 180
f 182 173 171
f 183 173 182
f 183 174 173
f 184 174 183
f 184 175 174
f 185 176 175
f 185 175 184
f 186 176 185
f 186 177 176
f 187 178 177
f 187 177 186
f 188 178 187
f 188 179 178
f 189 77 78
f 189 180 77
f 190 121 181
f 190 181 179
f 190 122 121
f 190 123 122
f 190 179 188
f 191 182 180
f 191 180 189
f 192 183 182
f 192 182 191
f 193 184 183
f 193 183 192
f 194 185 184
f 194 184 193
f 195 186 185
f 195 185 194
f 196 187 186
f 196 186 195
f 197 187 196
f 197 188 187
f 198 78 79
f 198 189 78
f 199 188 197
f 199 123 190
f 199 190 188
f 200 189 198
f 200 191 189
f 200 192 191
f 201 192 200
f 202 192 201
f 202 193 192
f 203 193 202
f 203 194 193
f 204 195 194
f 204 194 203
f 205 196 195
f 205 195 204
f 206 197 196
f 206 196 205
f 207 79 80
f 207 198 79
f 207 200 198
f 208 197 206
f 208 199 197
f 208 123 199
f 208 124 123
f 209 200 207
f 210 201 200
f 210 200 209
f 211 202 201
f 211 201 210
f 212 203 202
f 212 202 211
f 213 204 203
f 213 205 204
f 213 203 212
f 214 205 213
f 215 206 205
f 215 205 214
f 216 80 81
f 216 207 80
f 217 208 206
f 217 124 208
f 217 125 124
f 217 206 215
f 218 207 216
f 218 209 207
f 219 209 218
f 219 210 209
f 220 210 219
f 220 211 210
f 221 212 211
f 221 211 220
f 222 213 212
f 222 212 221
f 223 214 213
f 223 213 222
f 224 215 214
f 224 214 223
f 225 81 82
f 225 216 81
f 226 126 125
f 226 215 224
f 226 125 217
f 226 217 215
f 227 216 225
f 227 218 216
f 228 218 227
f 228 219 218
f 229 219 228
f 229 220 219
f 230 221 220
f 230 220 229
f 231 221 230
f 231 222 221
f 232 222 231
f 232 223 222
f 233 223 232
f 233 224 223
f 234 82 83
f 234 225 82
f 235 224 233
f 235 127 126
f 235 126 226
f 235 226 224
f 236 225 234
f 236 227 225
f 237 227 236
f 237 228 227
f 238 229 228
f 238 228 237
f 239 230 229
f 239 229 238
f 240 231 230
f 240 230 239
f 241 231 240
f 241 232 231
f 242 233 232
f 242 232 241
f 243 83 84
f 243 84 85
f 243 234 83
f 244 235 233
f 244 127 235
f 244 233 242
f 244 128 127
f 245 236 234
f 245 237 236
f 245 234 243
f 246 237 245
f 247 237 246
f 247 238 237
f 248 239 238
f 248 238 247
f 249 240 239
f 249 239 248
f 250 241 240
f 250 242 241
f 250 240 249
f 251 242 250
f 251 244 242
f 252 85 86
f 252 243 85
f 253 128 244
f 253 129 128
f 253 244 251
f 254 245 243
f 254 243 252
f 255 247 246
f 255 246 245
f 255 245 254
f 256 248 247
f 256 247 255
f 257 249 248
f 257 248 256
f 258 249 257
f 259 250 249
f 259 249 258
f 260 251 250
f 260 250 259
f 261 86 87
f 261 252 86
f 262 130 129
f 262 129 253
f 262 253 251
f 262 251 260
f 263 254 252
f 263 252 261
f 264 255 254
f 264 254 263
f 265 255 264
f 265 256 255
f 266 256 265
f 266 257 256
f 267 257 266
f 267 258 257
f 268 258 267
f 268 259 258
f 269 259 268
f 269 260 259
f 270 87 88
f 270 261 87
f 271 262 260
f 271 260 269
f 271 131 130
f 271 130 262
f 272 261 270
f 272 263 261
f 273 264 263
f 273 265 264
f 273 263 272
f 274 265 273
f 274 266 265
f 275 266 274
f 276 268 267
f 276 266 275
f 276 267 266
f 277 268 276
f 278 268 277
f 278 269 268
f 279 270 88
f 279 272 270
f 280 131 271
f 280 269 278
f 280 132 131
f 280 271 269
f 281 272 279
f 282 272 281
f 282 273 272
f 283 275 274
f 283 274 273
f 283 273 282
f 284 276 275
f 284 275 283
f 285 276 284
f 286 277 276
f 286 276 285
f 287 278 277
f 287 277 286
f 288 88 89
f 288 279 88
f 289 280 278
f 289 278 287
f 289 132 280
f 289 133 132
f 290 279 288
f 290 282 281
f 290 281 279
f 291 283 282
f 291 282 290
f 292 283 291
f 293 284 283
f 293 283 292
f 294 285 284
f 294 284 293
f 295 286 285
f 295 285 294
f 296 287 286
f 296 286 295
f 297 89 90
f 297 288 89
f 298 289 287
f 298 134 133
f 298 133 289
f 298 287 296
f 299 290 288
f 299 288 297
f 300 290 299
f 300 291 290
f 300 292 291
f 301 292 300
f 302 292 301
f 302 293 292
f 303 293 302
f 303 294 293
f 304 295 294
f 304 294 303
f 305 296 295
f 305 295 304
f 306 90 91
f 306 297 90
f 307 298 296
f 307 135 134
f 307 136 135
f 307 134 298
f 307 296 305
f 308 300 299
f 308 297 306
f 308 299 297
f 309 300 308
f 310 300 309
f 310 301 300
f 311 301 310
f 311 302 301
f 312 303 302
f 312 304 303
f 312 302 311
f 313 304 312
f 314 307 305
f 314 305 304
f 314 304 313
f 315 91 92
f 315 308 306
f 315 306 91
f 316 136 307
f 316 307 314
f 316 137 136
f 317 308 315
f 318 309 308
f 318 308 317
f 319 310 309
f 319 309 318
f 320 311 310
f 320 310 319
f 321 312 311
f 321 311 320
f 322 313 312
f 322 312 321
f 323 314 313
f 323 313 322
f 324 92 93
f 324 93 94
f 324 315 92
f 325 316 314
f 325 137 316
f 325 138 137
f 325 314 323
f 326 317 315
f 326 315 324
f 327 318 317
f 327 317 326
f 328 319 318
f 328 318 327
f 329 320 319
f 329 319 328
f 330 322 321
f 330 321 320
f 330 320 329
f 331 322 330
f 332 322 331
f 332 323 322
f 332 325 323
f 333 324 94
f 334 325 332
f 334 138 325
f 335 324 333
f 335 326 324
f 335 327 326
f 336 327 335
f 337 327 336
f 337 328 327
f 338 329 328
f 338 330 329
f 338 328 337
f 339 330 338
f 340 330 339
f 340 331 330
f 341 332 331
f 341 331 340
f 342 335 333
f 342 94 95
f 342 95 96
f 342 333 94
f 343 332 341
f 343 334 332
f 343 138 334
f 343 139 138
f 343 140 139
f 344 335 342
f 345 337 336
f 345 336 335
f 345 335 344
f 346 337 345
f 346 338 337
f 347 338 346
f 348 339 338
f 348 340 339
f 348 338 347
f 349 341 340
f 349 340 348
f 350 341 349
f 351 344 342
f 351 342 96
f 352 343 341
f 352 140 343
f 352 341 350
f 353 344 351
f 353 345 344
f 354 345 353
f 355 346 345
f 355 345 354
f 356 347 346
f 356 348 347
f 356 346 355
f 357 348 356
f 358 350 349
f 358 349 348
f 358 348 357
f 359 350 358
f 360 96 97
f 360 351 96
f 360 353 351
f 361 140 352
f 361 141 140
f 361 352 350
f 361 142 141
f 361 350 359
f 362 353 360
f 363 353 362
f 363 355 354
f 363 354 353
f 364 356 355
f 364 355 363
f 365 356 364
f 365 357 356
f 366 357 365
f 367 358 357
f 367 357 366
f 368 358 367
f 368 359 358
f 369 97 98
f 369 360 97
f 370 359 368
f 370 142 361
f 370 361 359
f 371 360 369
f 371 362 360
f 372 362 371
f 372 363 362
f 373 363 372
f 373 364 363
f 374 364 373
f 374 365 364
f 375 366 365
f 375 367 366
f 375 365 374
f 376 367 375
f 377 368 367
f 377 367 376
f 378 369 98
f 378 98 99
f 379 370 368
f 379 142 370
f 379 368 377
f 379 143 142
f 380 371 369
f 380 369 378
f 381 372 371
f 381 371 380
f 382 373 372
f 382 374 373
f 382 372 381
f 383 374 382
f 384 375 374
f 384 376 375
f 384 374 383
f 385 376 384
f 386 376 385
f 386 377 376
f 386 379 377
f 387 380 378
f 387 99 100
f 387 378 99
f 388 143 379
f 388 379 386
f 388 144 143
f 389 381 380
f 389 380 387
f 390 381 389
f 391 382 381
f 391 381 390
f 392 383 382
f 392 384 383
f 392 382 391
f 393 384 392
f 394 385 384
f 394 384 393
f 395 386 385
f 395 385 394
f 396 387 100
f 396 100 101
f 396 101 102
f 397 145 144
f 397 388 386
f 397 144 388
f 397 386 395
f 398 389 387
f 398 387 396
f 399 389 398
f 399 390 389
f 399 391 390
f 400 391 399
f 400 392 391
f 401 392 400
f 402 392 401
f 402 394 393
f 402 393 392
f 403 394 402
f 404 397 395
f 404 394 403
f 404 395 394
f 405 396 102
f 405 398 396
f 406 397 404
f 406 146 145
f 406 145 397
f 407 399 398
f 407 398 405
f 408 400 399
f 408 399 407
f 409 400 408
f 410 400 409
f 410 401 400
f 411 402 401
f 411 401 410
f 411 403 402
f 412 403 411
f 413 403 412
f 413 404 403
f 413 406 404
f 414 405 102
f 414 102 103
f 415 146 406
f 415 406 413
f 415 147 146
f 416 407 405
f 416 408 407
f 416 405 414
f 417 408 416
f 418 410 409
f 418 409 408
f 418 408 417
f 419 410 418
f 420 411 410
f 420 410 419
f 421 412 411
f 421 411 420
f 422 413 412
f 422 412 421
f 423 414 103
f 423 103 104
f 424 415 413
f 424 147 415
f 424 413 422
f 424 148 147
f 424 149 148
f 425 416 414
f 425 414 423
f 426 416 425
f 426 417 416
f 427 417 426
f 427 418 417
f 428 418 427
f 428 419 418
f 429 420 419
f 429 419 428
f 430 421 420
f 430 420 429
f 431 422 421
f 431 421 430
f 432 104 105
f 432 423 104
f 432 425 423
f 433 422 431
f 433 424 422
f 433 149 424
f 434 425 432
f 434 426 425
f 435 426 434
f 436 427 426
f 436 428 427
f 436 426 435
f 437 428 436
f 438 428 437
f 438 429 428
f 439 430 429
f 439 429 438
f 440 431 430
f 440 430 439
f 441 105 106
f 441 106 107
f 441 432 105
f 442 433 431
f 442 149 433
f 442 431 440
f 442 150 149
f 443 432 441
f 443 434 432
f 444 435 434
f 444 434 443
f 445 436 435
f 445 435 444
f 446 437 436
f 446 436 445
f 447 438 437
f 447 439 438
f 447 437 446
f 448 440 439
f 448 439 447
f 449 440 448
f 450 443 441
f 450 441 107
f 451 440 449
f 451 442 440
f 451 150 442
f 451 151 150
f 452 443 450
f 453 444 443
f 453 443 452
f 454 445 444
f 454 444 453
f 455 446 445
f 455 445 454
f 456 447 446
f 456 446 455
f 457 448 447
f 457 447 456
f 458 451 449
f 458 449 448
f 458 448 457
f 459 107 108
f 459 108 73
f 459 73 109
f 459 450 107
f 460 151 451
f 460 152 151
f 460 451 458
f 460 153 152
f 461 109 110
f 461 452 450
f 461 459 109
f 461 450 459
f 462 110 111
f 462 453 452
f 462 452 461
f 462 461 110
f 463 111 112
f 463 453 462
f 463 454 453
f 463 455 454
f 463 462 111
f 464 112 113
f 464 463 112
f 464 455 463
f 465 113 114
f 465 114 115
f 465 455 464
f 465 456 455
f 465 457 456
f 465 464 113
f 466 457 465
f 466 465 115
f 467 457 466
f 467 115 116
f 467 116 117
f 467 458 457
f 467 466 115
f 468 458 467
f 468 117 153
f 468 467 117
f 468 460 458
f 468 153 460
f 470 118 119
f 470 469 118
f 471 119 120
f 471 470 119
f 472 120 121
f 472 471 120
f 473 121 122
f 473 472 121
f 474 122 123
f 474 473 122
f 475 123 124
f 475 474 123
f 476 475 124
f 476 124 125
f 476 125 126
f 477 476 126
f 478 126 127
f 478 477 126
f 479 478 127
f 479 127 128
f 480 128 129
f 480 479 128
f 481 129 130
f 481 480 129
f 482 130 131
f 482 481 130
f 483 131 132
f 483 132 133
f 483 482 131
f 484 483 133
f 485 133 134
f 485 134 135
f 485 484 133
f 486 485 135
f 487 135 136
f 487 486 135
f 488 136 137
f 488 487 136
f 489 137 138
f 489 488 137
f 490 138 139
f 490 139 140
f 490 489 138
f 491 490 140
f 492 140 141
f 492 491 140
f 493 141 142
f 493 492 141
f 494 142 143
f 494 143 144
f 494 493 142
f 495 494 144
f 496 144 145
f 496 495 144
f 497 145 146
f 497 496 145
f 498 146 147
f 498 497 146
f 499 147 148
f 499 498 147
f 500 499 148
f 500 148 149
f 500 149 150
f 501 500 150
f 502 501 150
f 502 150 151
f 503 502 151
f 503 151 152
f 504 503 152
f 504 152 153
f 469 504 153
f 469 153 118
f 528 491 492
f 528 527 491
f 526 490 491
f 526 491 527
f 529 492 493
f 529 528 492
f 525 489 490
f 525 490 526
f 530 493 494
f 530 529 493
f 524 489 525
f 524 488 489
f 531 530 494
f 531 494 495
f 523 488 524
f 523 487 488
f 532 531 495
f 532 495 496
f 522 487 523
f 522 486 487
f 533 496 497
f 533 497 498
f 533 532 496
f 521 486 522
f 521 485 486
f 534 533 498
f 520 485 521
f 520 484 485
f 535 534 498
f 535 498 499
f 519 483 484
f 519 484 520
f 536 535 499
f 536 499 500
f 482 483 519
f 482 519 518
f 501 536 500
f 501 537 536
f 481 518 517
f 481 482 518
f 502 537 501
f 502 538 537
f 480 517 516
f 480 481 517
f 503 538 502
f 503 539 538
f 479 516 515
f 479 480 516
f 504 539 503
f 504 540 539
f 504 505 540
f 478 479 515
f 478 515 514
f 469 505 504
f 470 506 505
f 470 507 506
f 470 505 469
f 477 514 513
f 477 478 514
f 476 477 513
f 476 513 512
f 471 507 470
f 475 476 512
f 475 512 511
f 472 507 471
f 472 508 507
f 474 475 511
f 474 511 510
f 473 508 472
f 473 474 510
f 473 509 508
f 473 510 509
f 38 505 506
f 38 37 505
f 39 506 507
f 39 38 506
f 40 507 508
f 40 39 507
f 41 508 509
f 41 40 508
f 42 509 510
f 42 41 509
f 43 510 511
f 43 42 510
f 44 43 511
f 44 511 512
f 44 512 513
f 45 513 514
f 45 44 513
f 46 45 514
f 47 46 514
f 47 514 515
f 48 515 516
f 48 47 515
f 49 516 517
f 49 48 516
f 50 517 518
f 50 49 517
f 51 518 519
f 51 519 520
f 51 50 518
f 52 51 520
f 53 520 521
f 53 52 520
f 54 521 522
f 54 53 521
f 55 522 523
f 55 54 522
f 56 523 524
f 56 55 523
f 57 524 525
f 57 525 526
f 57 56 524
f 58 57 526
f 59 526 527
f 59 58 526
f 60 527 528
f 60 59 527
f 61 528 529
f 61 60 528
f 62 529 530
f 62 61 529
f 63 530 531
f 63 62 530
f 64 531 532
f 64 63 531
f 65 532 533
f 65 64 532
f 66 533 534
f 66 65 533
f 67 534 535
f 67 66 534
f 68 67 535
f 68 535 536
f 69 68 536
f 69 536 537
f 70 69 537
f 70 537 538
f 70 538 539
f 71 70 539
f 72 71 539
f 72 539 540
f 37 72 540
f 37 540 505
