# SimpleCAD BREP tessellation for MuJoCo
v 1.68388934883e-17 -4.12433940232e-33 0.275
v 1.68388934883e-17 -4.12433940232e-33 -0.275
v 0.0477532488584 -1.16961726727e-17 -0.270822132078
v 0.0940555394146 -2.30369630572e-17 -0.258415470716
v 0.1375 -3.36777869766e-17 -0.238156986041
v 0.176766592664 -4.32953283804e-17 -0.210662221858
v 0.210662221858 -5.15973631399e-17 -0.176766592664
v 0.238156986041 -5.83316381299e-17 -0.1375
v 0.258415470716 -6.32935358125e-17 -0.0940555394146
v 0.270822132078 -6.63322914376e-17 -0.0477532488584
v 0.275 -6.73555739531e-17 -5.55853704788e-16
v 0.270822132078 -6.63322914376e-17 0.0477532488584
v 0.258415470716 -6.32935358125e-17 0.0940555394146
v 0.238156986041 -5.83316381299e-17 0.1375
v 0.210662221858 -5.15973631399e-17 0.176766592664
v 0.176766592664 -4.32953283804e-17 0.210662221858
v 0.1375 -3.36777869766e-17 0.238156986041
v 0.0940555394146 -2.30369630572e-17 0.258415470716
v 0.0477532488584 -1.16961726727e-17 0.270822132078
v 0.0653319655035 0.00793273681924 -0.267008999792
v 0.0615351091404 0.0233371886281 -0.267008999792
v 0.0541620559052 0.0373853678611 -0.267008999792
v 0.0436413008518 0.0492608454044 -0.267008999792
v 0.124085269348 0.0305842720226 -0.243500407055
v 0.0305842720226 0.0582734616686 -0.267008999792
v 0.11316028156 0.0593910973245 -0.243500407055
v 0.0157497964727 0.063899436156 -0.267008999792
v 0.0956588295297 0.0847463279277 -0.243500407055
v 4.02981098101e-18 0.0658118076791 -0.267008999792
v 0.181029130549 0.0219809160523 -0.205840455747
v 0.0725980340325 0.105176409992 -0.243500407055
v -0.0157497964727 0.063899436156 -0.267008999792
v 0.170508375496 0.0646652972132 -0.205840455747
v 0.0453181046804 0.119494021409 -0.243500407055
v -0.0305842720226 0.0582734616686 -0.267008999792
v 0.150078293431 0.103591566349 -0.205840455747
v 0.0154044518089 0.126867074644 -0.243500407055
v -0.0436413008518 0.0492608454044 -0.267008999792
v 0.120926206465 0.136497470188 -0.205840455747
v -0.0154044518089 0.126867074644 -0.243500407055
v 0.219744098877 0.0541620559052 -0.156217805351
v -0.0541620559052 0.0373853678611 -0.267008999792
v 0.0847463279277 0.161470637209 -0.205840455747
v -0.0453181046804 0.119494021409 -0.243500407055
v 0.200396906345 0.105176409992 -0.156217805351
v -0.0615351091404 0.0233371886281 -0.267008999792
v 0.0436413008518 0.177059717716 -0.205840455747
v -0.0725980340325 0.105176409992 -0.243500407055
v 0.169403374028 0.150078293431 -0.156217805351
v -0.0653319655035 0.00793273681924 -0.267008999792
v 1.11662518118e-17 0.182358731016 -0.205840455747
v 0.255254703423 0.0309935323165 -0.0975163439367
v -0.0956588295297 0.0847463279277 -0.243500407055
v 0.128564733369 0.186258171968 -0.156217805351
v -0.0653319655035 -0.00793273681924 -0.267008999792
v -0.0436413008518 0.177059717716 -0.205840455747
v 0.240420227874 0.0911793655081 -0.0975163439367
v -0.11316028156 0.0593910973245 -0.243500407055
v 0.0802543777208 0.211613402572 -0.156217805351
v -0.0615351091404 -0.0233371886281 -0.267008999792
v -0.0847463279277 0.161470637209 -0.205840455747
v 0.211613402572 0.1460661854 -0.0975163439367
v -0.124085269348 0.0305842720226 -0.243500407055
v 0.0272799293521 0.224670431401 -0.156217805351
v -0.0541620559052 -0.0373853678611 -0.267008999792
v -0.120926206465 0.136497470188 -0.205840455747
v 0.170508375496 0.192464169525 -0.0975163439367
v -0.127798872312 1.29159048441e-16 -0.243500407055
v -0.0272799293521 0.224670431401 -0.156217805351
v 0.265062203558 0.0653319655035 -0.0331475870702
v -0.0436413008518 -0.0492608454044 -0.267008999792
v -0.150078293431 0.103591566349 -0.205840455747
v 0.119494021409 0.227676835697 -0.0975163439367
v -0.124085269348 -0.0305842720226 -0.243500407055
v -0.0802543777208 0.211613402572 -0.156217805351
v 0.24172501493 0.126867074644 -0.0331475870702
v -0.0305842720226 -0.0582734616686 -0.267008999792
v -0.170508375496 0.0646652972132 -0.205840455747
v 0.0615351091404 0.249657751749 -0.0975163439367
v -0.11316028156 -0.0593910973245 -0.243500407055
v -0.128564733369 0.186258171968 -0.156217805351
v 0.204339647068 0.181029130549 -0.0331475870702
v -0.0157497964727 -0.063899436156 -0.267008999792
v -0.181029130549 0.0219809160523 -0.205840455747
v 1.57446389204e-17 0.257129466738 -0.0975163439367
v 0.271004499896 0.0329059038395 0.0331475870702
v -0.0956588295297 -0.0847463279277 -0.243500407055
v -0.169403374028 0.150078293431 -0.156217805351
v 0.155078801664 0.224670431401 -0.0331475870702
v -1.28994687627e-16 -0.0658118076791 -0.267008999792
v -0.181029130549 -0.0219809160523 -0.205840455747
v -0.0615351091404 0.249657751749 -0.0975163439367
v 0.255254703423 0.0968053399956 0.0331475870702
v -0.0725980340325 -0.105176409992 -0.243500407055
v -0.200396906345 0.105176409992 -0.156217805351
v 0.0968053399956 0.255254703423 -0.0331475870702
v 0.0157497964727 -0.063899436156 -0.267008999792
v -0.170508375496 -0.0646652972132 -0.205840455747
v -0.119494021409 0.227676835697 -0.0975163439367
v 0.224670431401 0.155078801664 0.0331475870702
v -0.0453181046804 -0.119494021409 -0.243500407055
v -0.219744098877 0.0541620559052 -0.156217805351
v 0.0329059038395 0.271004499896 -0.0331475870702
v 0.0305842720226 -0.0582734616686 -0.267008999792
v -0.150078293431 -0.103591566349 -0.205840455747
v -0.170508375496 0.192464169525 -0.0975163439367
v 0.181029130549 0.204339647068 0.0331475870702
v -0.0154044518089 -0.126867074644 -0.243500407055
v -0.226320563121 2.28729315419e-16 -0.156217805351
v -0.0329059038395 0.271004499896 -0.0331475870702
v 0.249657751749 0.0615351091404 0.0975163439367
v 0.0436413008518 -0.0492608454044 -0.267008999792
v -0.120926206465 -0.136497470188 -0.205840455747
v -0.211613402572 0.1460661854 -0.0975163439367
v 0.126867074644 0.24172501493 0.0331475870702
v 0.0154044518089 -0.126867074644 -0.243500407055
v -0.219744098877 -0.0541620559052 -0.156217805351
v -0.0968053399956 0.255254703423 -0.0331475870702
v 0.227676835697 0.119494021409 0.0975163439367
v 0.0541620559052 -0.0373853678611 -0.267008999792
v -0.0847463279277 -0.161470637209 -0.205840455747
v -0.240420227874 0.0911793655081 -0.0975163439367
v 0.0653319655035 0.265062203558 0.0331475870702
v 0.0453181046804 -0.119494021409 -0.243500407055
v -0.200396906345 -0.105176409992 -0.156217805351
v -0.155078801664 0.224670431401 -0.0331475870702
v 0.192464169525 0.170508375496 0.0975163439367
v 0.0615351091404 -0.0233371886281 -0.267008999792
v -0.0436413008518 -0.177059717716 -0.205840455747
v -0.255254703423 0.0309935323165 -0.0975163439367
v 1.67161189958e-17 0.272994940377 0.0331475870702
v 0.224670431401 0.0272799293521 0.156217805351
v 0.0725980340325 -0.105176409992 -0.243500407055
v -0.169403374028 -0.150078293431 -0.156217805351
v -0.204339647068 0.181029130549 -0.0331475870702
v 0.1460661854 0.211613402572 0.0975163439367
v 0.0653319655035 -0.00793273681924 -0.267008999792
v -3.574329345e-16 -0.182358731016 -0.205840455747
v -0.255254703423 -0.0309935323165 -0.0975163439367
v -0.0653319655035 0.265062203558 0.0331475870702
v 0.211613402572 0.0802543777208 0.156217805351
v 0.0956588295297 -0.0847463279277 -0.243500407055
v -0.128564733369 -0.186258171968 -0.156217805351
v -0.24172501493 0.126867074644 -0.0331475870702
v 0.0911793655081 0.240420227874 0.0975163439367
v 0.0436413008518 -0.177059717716 -0.205840455747
v -0.240420227874 -0.0911793655081 -0.0975163439367
v -0.126867074644 0.24172501493 0.0331475870702
v 0.186258171968 0.128564733369 0.156217805351
v 0.11316028156 -0.0593910973245 -0.243500407055
v -0.0802543777208 -0.211613402572 -0.156217805351
v -0.265062203558 0.0653319655035 -0.0331475870702
v 0.0309935323165 0.255254703423 0.0975163439367
v 0.0847463279277 -0.161470637209 -0.205840455747
v -0.211613402572 -0.1460661854 -0.0975163439367
v -0.181029130549 0.204339647068 0.0331475870702
v 0.150078293431 0.169403374028 0.156217805351
v 0.124085269348 -0.0305842720226 -0.243500407055
v -0.0272799293521 -0.224670431401 -0.156217805351
v -0.272994940377 2.75900452722e-16 -0.0331475870702
v -0.0309935323165 0.255254703423 0.0975163439367
v 0.177059717716 0.0436413008518 0.205840455747
v 0.120926206465 -0.136497470188 -0.205840455747
v -0.170508375496 -0.192464169525 -0.0975163439367
v -0.224670431401 0.155078801664 0.0331475870702
v 0.105176409992 0.200396906345 0.156217805351
v 0.0272799293521 -0.224670431401 -0.156217805351
v -0.265062203558 -0.0653319655035 -0.0331475870702
v -0.0911793655081 0.240420227874 0.0975163439367
v 0.161470637209 0.0847463279277 0.205840455747
v 0.150078293431 -0.103591566349 -0.205840455747
v -0.119494021409 -0.227676835697 -0.0975163439367
v -0.255254703423 0.0968053399956 0.0331475870702
v 0.0541620559052 0.219744098877 0.156217805351
v 0.0802543777208 -0.211613402572 -0.156217805351
v -0.24172501493 -0.126867074644 -0.0331475870702
v -0.1460661854 0.211613402572 0.0975163439367
v 0.136497470188 0.120926206465 0.205840455747
v 0.170508375496 -0.0646652972132 -0.205840455747
v -0.0615351091404 -0.249657751749 -0.0975163439367
v -0.271004499896 0.0329059038395 0.0331475870702
v 1.38581376604e-17 0.226320563121 0.156217805351
v 0.126867074644 0.0154044518089 0.243500407055
v 0.128564733369 -0.186258171968 -0.156217805351
v -0.204339647068 -0.181029130549 -0.0331475870702
v -0.192464169525 0.170508375496 0.0975163439367
v 0.103591566349 0.150078293431 0.205840455747
v 0.181029130549 -0.0219809160523 -0.205840455747
v -5.03987603613e-16 -0.257129466738 -0.0975163439367
v -0.271004499896 -0.0329059038395 0.0331475870702
v -0.0541620559052 0.219744098877 0.156217805351
v 0.119494021409 0.0453181046804 0.243500407055
v 0.169403374028 -0.150078293431 -0.156217805351
v -0.155078801664 -0.224670431401 -0.0331475870702
v -0.227676835697 0.119494021409 0.0975163439367
v 0.0646652972132 0.170508375496 0.205840455747
v 0.0615351091404 -0.249657751749 -0.0975163439367
v -0.255254703423 -0.0968053399956 0.0331475870702
v -0.105176409992 0.200396906345 0.156217805351
v 0.105176409992 0.0725980340325 0.243500407055
v 0.200396906345 -0.105176409992 -0.156217805351
v -0.0968053399956 -0.255254703423 -0.0331475870702
v -0.249657751749 0.0615351091404 0.0975163439367
v 0.0219809160523 0.181029130549 0.205840455747
v 0.119494021409 -0.227676835697 -0.0975163439367
v -0.224670431401 -0.155078801664 0.0331475870702
v -0.150078293431 0.169403374028 0.156217805351
v 0.0847463279277 0.0956588295297 0.243500407055
v 0.219744098877 -0.0541620559052 -0.156217805351
v -0.0329059038395 -0.271004499896 -0.0331475870702
v -0.257129466738 2.59866121267e-16 0.0975163439367
v -0.0219809160523 0.181029130549 0.205840455747
v 0.063899436156 0.0157497964727 0.267008999792
v 0.170508375496 -0.192464169525 -0.0975163439367
v -0.181029130549 -0.204339647068 0.0331475870702
v -0.186258171968 0.128564733369 0.156217805351
v 0.0593910973245 0.11316028156 0.243500407055
v 0.0329059038395 -0.271004499896 -0.0331475870702
v -0.249657751749 -0.0615351091404 0.0975163439367
v -0.0646652972132 0.170508375496 0.205840455747
v 0.0582734616686 0.0305842720226 0.267008999792
v 0.211613402572 -0.1460661854 -0.0975163439367
v -0.126867074644 -0.24172501493 0.0331475870702
v -0.211613402572 0.0802543777208 0.156217805351
v 0.0305842720226 0.124085269348 0.243500407055
v 0.0968053399956 -0.255254703423 -0.0331475870702
v -0.227676835697 -0.119494021409 0.0975163439367
v -0.103591566349 0.150078293431 0.205840455747
v 0.0492608454044 0.0436413008518 0.267008999792
v 0.240420227874 -0.0911793655081 -0.0975163439367
v -0.0653319655035 -0.265062203558 0.0331475870702
v -0.224670431401 0.0272799293521 0.156217805351
v 7.82542399558e-18 0.127798872312 0.243500407055
v 0.155078801664 -0.224670431401 -0.0331475870702
v -0.192464169525 -0.170508375496 0.0975163439367
v -0.136497470188 0.120926206465 0.205840455747
v 0.0373853678611 0.0541620559052 0.267008999792
v 0.255254703423 -0.0309935323165 -0.0975163439367
v -5.35084786448e-16 -0.272994940377 0.0331475870702
v -0.224670431401 -0.0272799293521 0.156217805351
v -0.0305842720226 0.124085269348 0.243500407055
v 0.204339647068 -0.181029130549 -0.0331475870702
v -0.1460661854 -0.211613402572 0.0975163439367
v -0.161470637209 0.0847463279277 0.205840455747
v 0.0233371886281 0.0615351091404 0.267008999792
v 0.0653319655035 -0.265062203558 0.0331475870702
v -0.211613402572 -0.0802543777208 0.156217805351
v -0.0593910973245 0.11316028156 0.243500407055
v 0.24172501493 -0.126867074644 -0.0331475870702
v -0.0911793655081 -0.240420227874 0.0975163439367
v -0.177059717716 0.0436413008518 0.205840455747
v 0.00793273681924 0.0653319655035 0.267008999792
v 0.126867074644 -0.24172501493 0.0331475870702
v -0.186258171968 -0.128564733369 0.156217805351
v -0.0847463279277 0.0956588295297 0.243500407055
v 0.265062203558 -0.0653319655035 -0.0331475870702
v -0.0309935323165 -0.255254703423 0.0975163439367
v -0.182358731016 1.84299593156e-16 0.205840455747
v -0.00793273681924 0.0653319655035 0.267008999792
v 0.181029130549 -0.204339647068 0.0331475870702
v -0.150078293431 -0.169403374028 0.156217805351
v -0.105176409992 0.0725980340325 0.243500407055
v 0.0309935323165 -0.255254703423 0.0975163439367
v -0.177059717716 -0.0436413008518 0.205840455747
v -0.0233371886281 0.0615351091404 0.267008999792
v 0.224670431401 -0.155078801664 0.0331475870702
v -0.105176409992 -0.200396906345 0.156217805351
v -0.119494021409 0.0453181046804 0.243500407055
v 0.0911793655081 -0.240420227874 0.0975163439367
v -0.161470637209 -0.0847463279277 0.205840455747
v -0.0373853678611 0.0541620559052 0.267008999792
v 0.255254703423 -0.0968053399956 0.0331475870702
v -0.0541620559052 -0.219744098877 0.156217805351
v -0.126867074644 0.0154044518089 0.243500407055
v 0.1460661854 -0.211613402572 0.0975163439367
v -0.136497470188 -0.120926206465 0.205840455747
v -0.0492608454044 0.0436413008518 0.267008999792
v 0.271004499896 -0.0329059038395 0.0331475870702
v -4.43600493178e-16 -0.226320563121 0.156217805351
v -0.126867074644 -0.0154044518089 0.243500407055
v 0.192464169525 -0.170508375496 0.0975163439367
v -0.103591566349 -0.150078293431 0.205840455747
v -0.0582734616686 0.0305842720226 0.267008999792
v 0.0541620559052 -0.219744098877 0.156217805351
v -0.119494021409 -0.0453181046804 0.243500407055
v 0.227676835697 -0.119494021409 0.0975163439367
v -0.0646652972132 -0.170508375496 0.205840455747
v -0.063899436156 0.0157497964727 0.267008999792
v 0.105176409992 -0.200396906345 0.156217805351
v -0.105176409992 -0.0725980340325 0.243500407055
v 0.249657751749 -0.0615351091404 0.0975163439367
v -0.0219809160523 -0.181029130549 0.205840455747
v -0.0658118076791 6.6512249304e-17 0.267008999792
v 0.150078293431 -0.169403374028 0.156217805351
v -0.0847463279277 -0.0956588295297 0.243500407055
v 0.0219809160523 -0.181029130549 0.205840455747
v -0.063899436156 -0.0157497964727 0.267008999792
v 0.186258171968 -0.128564733369 0.156217805351
v -0.0593910973245 -0.11316028156 0.243500407055
v 0.0646652972132 -0.170508375496 0.205840455747
v -0.0582734616686 -0.0305842720226 0.267008999792
v 0.211613402572 -0.0802543777208 0.156217805351
v -0.0305842720226 -0.124085269348 0.243500407055
v 0.103591566349 -0.150078293431 0.205840455747
v -0.0492608454044 -0.0436413008518 0.267008999792
v 0.224670431401 -0.0272799293521 0.156217805351
v -2.50492672886e-16 -0.127798872312 0.243500407055
v 0.136497470188 -0.120926206465 0.205840455747
v -0.0373853678611 -0.0541620559052 0.267008999792
v 0.0305842720226 -0.124085269348 0.243500407055
v 0.161470637209 -0.0847463279277 0.205840455747
v -0.0233371886281 -0.0615351091404 0.267008999792
v 0.0593910973245 -0.11316028156 0.243500407055
v 0.177059717716 -0.0436413008518 0.205840455747
v -0.00793273681924 -0.0653319655035 0.267008999792
v 0.0847463279277 -0.0956588295297 0.243500407055
v 0.00793273681924 -0.0653319655035 0.267008999792
v 0.105176409992 -0.0725980340325 0.243500407055
v 0.0233371886281 -0.0615351091404 0.267008999792
v 0.119494021409 -0.0453181046804 0.243500407055
v 0.0373853678611 -0.0541620559052 0.267008999792
v 0.126867074644 -0.0154044518089 0.243500407055
v 0.0492608454044 -0.0436413008518 0.267008999792
v 0.0582734616686 -0.0305842720226 0.267008999792
v 0.063899436156 -0.0157497964727 0.267008999792
f 20 4 3
f 21 3 2
f 21 20 3
f 21 4 20
f 22 21 2
f 23 22 2
f 24 5 4
f 25 23 2
f 26 21 22
f 26 4 21
f 26 24 4
f 27 25 2
f 28 22 23
f 28 26 22
f 29 27 2
f 30 7 6
f 31 23 25
f 31 28 23
f 32 29 2
f 33 6 5
f 33 5 24
f 33 7 30
f 33 24 26
f 33 30 6
f 34 25 27
f 34 31 25
f 35 32 2
f 36 26 28
f 36 33 26
f 37 27 29
f 37 34 27
f 38 35 2
f 39 36 28
f 39 28 31
f 40 37 29
f 40 29 32
f 41 8 7
f 42 38 2
f 43 31 34
f 43 39 31
f 44 32 35
f 44 40 32
f 45 41 7
f 45 33 36
f 45 7 33
f 46 42 2
f 47 43 34
f 47 34 37
f 48 44 35
f 48 35 38
f 49 36 39
f 49 45 36
f 50 46 2
f 51 47 37
f 51 37 40
f 52 9 8
f 52 10 9
f 53 38 42
f 53 48 38
f 54 49 39
f 54 39 43
f 55 50 2
f 56 40 44
f 56 51 40
f 57 8 41
f 57 52 8
f 57 41 45
f 57 10 52
f 58 53 42
f 58 42 46
f 59 43 47
f 59 54 43
f 60 55 2
f 61 56 44
f 61 44 48
f 62 45 49
f 62 57 45
f 63 46 50
f 63 58 46
f 64 59 47
f 64 47 51
f 65 60 2
f 66 48 53
f 66 61 48
f 67 49 54
f 67 62 49
f 68 50 55
f 68 63 50
f 69 64 51
f 69 51 56
f 70 11 10
f 70 10 57
f 71 65 2
f 72 66 53
f 72 53 58
f 73 54 59
f 73 67 54
f 74 68 55
f 74 55 60
f 75 69 56
f 75 56 61
f 76 57 62
f 76 11 70
f 76 70 57
f 77 71 2
f 78 58 63
f 78 72 58
f 79 73 59
f 79 59 64
f 80 60 65
f 80 74 60
f 81 75 61
f 81 61 66
f 82 76 62
f 82 62 67
f 83 77 2
f 84 63 68
f 84 78 63
f 85 79 64
f 85 64 69
f 86 12 11
f 87 80 65
f 87 65 71
f 88 81 66
f 88 66 72
f 89 67 73
f 89 82 67
f 90 83 2
f 91 68 74
f 91 84 68
f 92 85 69
f 92 69 75
f 93 11 76
f 93 86 11
f 93 12 86
f 94 87 71
f 94 71 77
f 95 72 78
f 95 88 72
f 96 89 73
f 96 73 79
f 97 90 2
f 98 74 80
f 98 91 74
f 99 92 75
f 99 75 81
f 100 76 82
f 100 93 76
f 101 77 83
f 101 94 77
f 102 95 78
f 102 78 84
f 103 96 79
f 103 79 85
f 104 97 2
f 105 80 87
f 105 98 80
f 106 99 81
f 106 81 88
f 107 100 82
f 107 82 89
f 108 101 83
f 108 83 90
f 109 102 84
f 109 84 91
f 110 103 85
f 110 85 92
f 111 13 12
f 111 14 13
f 111 12 93
f 112 104 2
f 113 105 87
f 113 87 94
f 114 106 88
f 114 88 95
f 115 107 89
f 115 89 96
f 116 90 97
f 116 108 90
f 117 91 98
f 117 109 91
f 118 92 99
f 118 110 92
f 119 93 100
f 119 111 93
f 120 112 2
f 121 113 94
f 121 94 101
f 122 95 102
f 122 114 95
f 123 115 96
f 123 96 103
f 124 116 97
f 124 97 104
f 125 98 105
f 125 117 98
f 126 118 99
f 126 99 106
f 127 119 100
f 127 100 107
f 128 2 3
f 128 120 2
f 129 101 108
f 129 121 101
f 130 102 109
f 130 122 102
f 131 103 110
f 131 123 103
f 132 15 14
f 133 104 112
f 133 124 104
f 134 105 113
f 134 125 105
f 135 106 114
f 135 126 106
f 136 107 115
f 136 127 107
f 137 3 4
f 137 128 3
f 137 4 128
f 138 108 116
f 138 129 108
f 139 109 117
f 139 130 109
f 140 110 118
f 140 131 110
f 141 14 111
f 141 15 132
f 141 111 119
f 141 132 14
f 142 133 112
f 142 112 120
f 143 113 121
f 143 134 113
f 144 114 122
f 144 135 114
f 145 115 123
f 145 136 115
f 146 116 124
f 146 138 116
f 147 139 117
f 147 117 125
f 148 140 118
f 148 118 126
f 149 141 119
f 149 119 127
f 150 142 120
f 150 128 4
f 150 120 128
f 151 143 121
f 151 121 129
f 152 144 122
f 152 122 130
f 153 123 131
f 153 145 123
f 154 124 133
f 154 146 124
f 155 125 134
f 155 147 125
f 156 148 126
f 156 126 135
f 157 127 136
f 157 149 127
f 158 4 5
f 158 150 4
f 159 129 138
f 159 151 129
f 160 130 139
f 160 152 130
f 161 131 140
f 161 153 131
f 162 16 15
f 162 17 16
f 162 15 141
f 163 133 142
f 163 154 133
f 164 134 143
f 164 155 134
f 165 135 144
f 165 156 135
f 166 157 136
f 166 136 145
f 167 159 138
f 167 138 146
f 168 139 147
f 168 160 139
f 169 140 148
f 169 161 140
f 170 141 149
f 170 162 141
f 171 163 142
f 171 142 150
f 172 164 143
f 172 143 151
f 173 165 144
f 173 144 152
f 174 145 153
f 174 166 145
f 175 167 146
f 175 146 154
f 176 168 147
f 176 147 155
f 177 169 148
f 177 148 156
f 178 149 157
f 178 170 149
f 179 171 150
f 179 5 6
f 179 150 158
f 179 158 5
f 180 151 159
f 180 172 151
f 181 173 152
f 181 152 160
f 182 174 153
f 182 153 161
f 183 18 17
f 184 154 163
f 184 175 154
f 185 155 164
f 185 176 155
f 186 156 165
f 186 177 156
f 187 178 157
f 187 157 166
f 188 6 7
f 188 179 6
f 188 7 179
f 189 159 167
f 189 180 159
f 190 160 168
f 190 181 160
f 191 182 161
f 191 161 169
f 192 18 183
f 192 162 170
f 192 183 17
f 192 17 162
f 193 163 171
f 193 184 163
f 194 164 172
f 194 185 164
f 195 165 173
f 195 186 165
f 196 166 174
f 196 187 166
f 197 189 167
f 197 167 175
f 198 190 168
f 198 168 176
f 199 169 177
f 199 191 169
f 200 192 170
f 200 170 178
f 201 179 7
f 201 193 171
f 201 171 179
f 202 194 172
f 202 172 180
f 203 173 181
f 203 195 173
f 204 196 174
f 204 174 182
f 205 197 175
f 205 175 184
f 206 198 176
f 206 176 185
f 207 177 186
f 207 199 177
f 208 200 178
f 208 178 187
f 209 7 8
f 209 201 7
f 210 202 180
f 210 180 189
f 211 181 190
f 211 203 181
f 212 204 182
f 212 182 191
f 213 19 18
f 214 205 184
f 214 184 193
f 215 206 185
f 215 185 194
f 216 207 186
f 216 186 195
f 217 208 187
f 217 187 196
f 218 189 197
f 218 210 189
f 219 211 190
f 219 190 198
f 220 191 199
f 220 212 191
f 221 192 200
f 221 1 19
f 221 19 213
f 221 213 18
f 221 18 192
f 222 214 193
f 222 193 201
f 223 215 194
f 223 194 202
f 224 195 203
f 224 216 195
f 225 217 196
f 225 196 204
f 226 197 205
f 226 218 197
f 227 198 206
f 227 219 198
f 228 199 207
f 228 220 199
f 229 221 200
f 229 200 208
f 229 1 221
f 230 209 8
f 230 201 209
f 230 222 201
f 231 202 210
f 231 223 202
f 232 203 211
f 232 224 203
f 233 204 212
f 233 225 204
f 234 226 205
f 234 205 214
f 235 227 206
f 235 206 215
f 236 207 216
f 236 228 207
f 237 1 229
f 237 208 217
f 237 229 208
f 238 8 9
f 238 9 10
f 238 230 8
f 238 10 230
f 239 210 218
f 239 231 210
f 240 211 219
f 240 232 211
f 241 233 212
f 241 212 220
f 242 234 214
f 242 214 222
f 243 235 215
f 243 215 223
f 244 236 216
f 244 216 224
f 245 237 217
f 245 217 225
f 245 1 237
f 246 239 218
f 246 218 226
f 247 240 219
f 247 219 227
f 248 241 220
f 248 220 228
f 249 242 222
f 249 222 230
f 250 223 231
f 250 243 223
f 251 224 232
f 251 244 224
f 252 225 233
f 252 1 245
f 252 245 225
f 253 226 234
f 253 246 226
f 254 247 227
f 254 227 235
f 255 248 228
f 255 228 236
f 256 10 11
f 256 11 249
f 256 249 230
f 256 230 10
f 257 250 231
f 257 231 239
f 258 232 240
f 258 251 232
f 259 252 233
f 259 1 252
f 259 233 241
f 260 253 234
f 260 234 242
f 261 235 243
f 261 254 235
f 262 236 244
f 262 255 236
f 263 239 246
f 263 257 239
f 264 240 247
f 264 258 240
f 265 241 248
f 265 1 259
f 265 259 241
f 266 242 249
f 266 260 242
f 267 243 250
f 267 261 243
f 268 262 244
f 268 244 251
f 269 263 246
f 269 246 253
f 270 264 247
f 270 247 254
f 271 265 248
f 271 1 265
f 271 248 255
f 272 249 11
f 272 266 249
f 273 267 250
f 273 250 257
f 274 268 251
f 274 251 258
f 275 269 253
f 275 253 260
f 276 270 254
f 276 254 261
f 277 1 271
f 277 271 255
f 277 255 262
f 278 11 12
f 278 272 11
f 278 12 272
f 279 273 257
f 279 257 263
f 280 274 258
f 280 258 264
f 281 260 266
f 281 275 260
f 282 276 261
f 282 261 267
f 283 1 277
f 283 277 262
f 283 262 268
f 284 279 263
f 284 263 269
f 285 264 270
f 285 280 264
f 286 266 272
f 286 281 266
f 287 282 267
f 287 267 273
f 288 268 274
f 288 1 283
f 288 283 268
f 289 284 269
f 289 269 275
f 290 270 276
f 290 285 270
f 291 12 13
f 291 13 14
f 291 286 272
f 291 272 12
f 292 273 279
f 292 287 273
f 293 274 280
f 293 1 288
f 293 288 274
f 294 275 281
f 294 289 275
f 295 276 282
f 295 290 276
f 296 292 279
f 296 279 284
f 297 293 280
f 297 280 285
f 297 1 293
f 298 281 286
f 298 294 281
f 299 295 282
f 299 282 287
f 300 284 289
f 300 296 284
f 301 285 290
f 301 297 285
f 301 1 297
f 302 298 286
f 302 291 14
f 302 286 291
f 303 287 292
f 303 299 287
f 304 289 294
f 304 300 289
f 305 1 301
f 305 290 295
f 305 301 290
f 306 302 14
f 306 15 302
f 306 14 15
f 307 303 292
f 307 292 296
f 308 304 294
f 308 294 298
f 309 1 305
f 309 305 295
f 309 295 299
f 310 296 300
f 310 307 296
f 311 308 298
f 311 298 302
f 312 299 303
f 312 309 299
f 312 1 309
f 313 300 304
f 313 310 300
f 314 302 15
f 314 15 16
f 314 16 17
f 314 311 302
f 315 312 303
f 315 1 312
f 315 303 307
f 316 313 304
f 316 304 308
f 317 315 307
f 317 307 310
f 317 1 315
f 318 316 308
f 318 308 311
f 319 310 313
f 319 317 310
f 319 1 317
f 320 314 17
f 320 311 314
f 320 318 311
f 321 313 316
f 321 319 313
f 321 1 319
f 322 17 18
f 322 320 17
f 322 18 320
f 323 316 318
f 323 321 316
f 323 1 321
f 324 19 1
f 324 320 18
f 324 323 318
f 324 318 320
f 324 1 323
f 325 18 19
f 325 324 18
f 325 19 324
