# SimpleCAD BREP tessellation for MuJoCo
v 3.3 0 -1
v 3.24986558494 0.573038986301 -1
v 3.10098564859 1.12866647297 -1
v 2.85788383249 1.65 -1
v 2.52794666229 2.12119911197 -1
v 2.12119911197 2.52794666229 -1
v 1.65 2.85788383249 -1
v 1.12866647297 3.10098564859 -1
v 0.573038986301 3.24986558494 -1
v -1.9961748669e-15 3.3 -1
v -0.573038986301 3.24986558494 -1
v -1.12866647297 3.10098564859 -1
v -1.65 2.85788383249 -1
v -2.12119911197 2.52794666229 -1
v -2.52794666229 2.12119911197 -1
v -2.85788383249 1.65 -1
v -3.10098564859 1.12866647297 -1
v -3.24986558494 0.573038986301 -1
v -3.3 -6.92333851881e-15 -1
v -3.24986558494 -0.573038986301 -1
v -3.10098564859 -1.12866647297 -1
v -2.85788383249 -1.65 -1
v -2.52794666229 -2.12119911197 -1
v -2.12119911197 -2.52794666229 -1
v -1.65 -2.85788383249 -1
v -1.12866647297 -3.10098564859 -1
v -0.573038986301 -3.24986558494 -1
v 8.18676618945e-15 -3.3 -1
v 0.573038986301 -3.24986558494 -1
v 1.12866647297 -3.10098564859 -1
v 1.65 -2.85788383249 -1
v 2.12119911197 -2.52794666229 -1
v 2.52794666229 -2.12119911197 -1
v 2.85788383249 -1.65 -1
v 3.10098564859 -1.12866647297 -1
v 3.24986558494 -0.573038986301 -1
v 2.65625 0 -1
v 2.61589559394 0.461252971928 -1
v 2.49605852396 0.908491005709 -1
v 2.3003799788 1.328125 -1
v 2.03480555203 1.70740458823 -1
v 1.70740458823 2.03480555203 -1
v 1.328125 2.3003799788 -1
v 0.908491005709 2.49605852396 -1
v 0.461252971928 2.61589559394 -1
v -1.60676954248e-15 2.65625 -1
v -0.461252971928 2.61589559394 -1
v -0.908491005709 2.49605852396 -1
v -1.328125 2.3003799788 -1
v -1.70740458823 2.03480555203 -1
v -2.03480555203 1.70740458823 -1
v -2.3003799788 1.328125 -1
v -2.49605852396 0.908491005709 -1
v -2.61589559394 0.461252971928 -1
v -2.65625 -5.5727630123e-15 -1
v -2.61589559394 -0.461252971928 -1
v -2.49605852396 -0.908491005709 -1
v -2.3003799788 -1.328125 -1
v -2.03480555203 -1.70740458823 -1
v -1.70740458823 -2.03480555203 -1
v -1.328125 -2.3003799788 -1
v -0.908491005709 -2.49605852396 -1
v -0.461252971928 -2.61589559394 -1
v 6.58972657295e-15 -2.65625 -1
v 0.461252971928 -2.61589559394 -1
v 0.908491005709 -2.49605852396 -1
v 1.328125 -2.3003799788 -1
v 1.70740458823 -2.03480555203 -1
v 2.03480555203 -1.70740458823 -1
v 2.3003799788 -1.328125 -1
v 2.49605852396 -0.908491005709 -1
v 2.61589559394 -0.461252971928 -1
v 3.3 0 1
v 3.24986558494 0.573038986301 1
v 3.10098564859 1.12866647297 1
v 2.85788383249 1.65 1
v 2.52794666229 2.12119911197 1
v 2.12119911197 2.52794666229 1
v 1.65 2.85788383249 1
v 1.12866647297 3.10098564859 1
v 0.573038986301 3.24986558494 1
v -1.9961748669e-15 3.3 1
v -0.573038986301 3.24986558494 1
v -1.12866647297 3.10098564859 1
v -1.65 2.85788383249 1
v -2.12119911197 2.52794666229 1
v -2.52794666229 2.12119911197 1
v -2.85788383249 1.65 1
v -3.10098564859 1.12866647297 1
v -3.24986558494 0.573038986301 1
v -3.3 -6.92333851881e-15 1
v -3.24986558494 -0.573038986301 1
v -3.10098564859 -1.12866647297 1
v -2.85788383249 -1.65 1
v -2.52794666229 -2.12119911197 1
v -2.12119911197 -2.52794666229 1
v -1.65 -2.85788383249 1
v -1.12866647297 -3.10098564859 1
v -0.573038986301 -3.24986558494 1
v 8.18676618945e-15 -3.3 1
v 0.573038986301 -3.24986558494 1
v 1.12866647297 -3.10098564859 1
v 1.65 -2.85788383249 1
v 2.12119911197 -2.52794666229 1
v 2.52794666229 -2.12119911197 1
v 2.85788383249 -1.65 1
v 3.10098564859 -1.12866647297 1
v 3.24986558494 -0.573038986301 1
v 2.65625 0 1
v 2.61589559394 0.461252971928 1
v 2.49605852396 0.908491005709 1
v 2.3003799788 1.328125 1
v 2.03480555203 1.70740458823 1
v 1.70740458823 2.03480555203 1
v 1.328125 2.3003799788 1
v 0.908491005709 2.49605852396 1
v 0.461252971928 2.61589559394 1
v -1.60676954248e-15 2.65625 1
v -0.461252971928 2.61589559394 1
v -0.908491005709 2.49605852396 1
v -1.328125 2.3003799788 1
v -1.70740458823 2.03480555203 1
v -2.03480555203 1.70740458823 1
v -2.3003799788 1.328125 1
v -2.49605852396 0.908491005709 1
v -2.61589559394 0.461252971928 1
v -2.65625 -5.5727630123e-15 1
v -2.61589559394 -0.461252971928 1
v -2.49605852396 -0.908491005709 1
v -2.3003799788 -1.328125 1
v -2.03480555203 -1.70740458823 1
v -1.70740458823 -2.03480555203 1
v -1.328125 -2.3003799788 1
v -0.908491005709 -2.49605852396 1
v -0.461252971928 -2.61589559394 1
v 6.58972657295e-15 -2.65625 1
v 0.461252971928 -2.61589559394 1
v 0.908491005709 -2.49605852396 1
v 1.328125 -2.3003799788 1
v 1.70740458823 -2.03480555203 1
v 2.03480555203 -1.70740458823 1
v 2.3003799788 -1.328125 1
v 2.49605852396 -0.908491005709 1
v 2.61589559394 -0.461252971928 1
v 2.65625 0 0.224690759712
v 2.61589559394 0.461252971928 0.224690759712
v 2.49605852396 0.908491005709 0.224690759712
v 2.3003799788 1.328125 0.224690759712
v 2.03480555203 1.70740458823 0.224690759712
v 1.70740458823 2.03480555203 0.224690759712
v 1.328125 2.3003799788 0.224690759712
v 0.908491005709 2.49605852396 0.224690759712
v 0.461252971928 2.61589559394 0.224690759712
v -1.60676954248e-15 2.65625 0.224690759712
v -0.461252971928 2.61589559394 0.224690759712
v -0.908491005709 2.49605852396 0.224690759712
v -1.328125 2.3003799788 0.224690759712
v -1.70740458823 2.03480555203 0.224690759712
v -2.03480555203 1.70740458823 0.224690759712
v -2.3003799788 1.328125 0.224690759712
v -2.49605852396 0.908491005709 0.224690759712
v -2.61589559394 0.461252971928 0.224690759712
v -2.65625 -5.5727630123e-15 0.224690759712
v -2.61589559394 -0.461252971928 0.224690759712
v -2.49605852396 -0.908491005709 0.224690759712
v -2.3003799788 -1.328125 0.224690759712
v -2.03480555203 -1.70740458823 0.224690759712
v -1.70740458823 -2.03480555203 0.224690759712
v -1.328125 -2.3003799788 0.224690759712
v -0.908491005709 -2.49605852396 0.224690759712
v -0.461252971928 -2.61589559394 0.224690759712
v 6.58972657295e-15 -2.65625 0.224690759712
v 0.461252971928 -2.61589559394 0.224690759712
v 0.908491005709 -2.49605852396 0.224690759712
v 1.328125 -2.3003799788 0.224690759712
v 1.70740458823 -2.03480555203 0.224690759712
v 2.03480555203 -1.70740458823 0.224690759712
v 2.3003799788 -1.328125 0.224690759712
v 2.49605852396 -0.908491005709 0.224690759712
v 2.61589559394 -0.461252971928 0.224690759712
v 2.69047353226 0 0.187609915206
v 2.71811492926 0 0.145393895012
v 2.73841760291 0 0.0991982173769
v 2.75082583739 0 0.0502873299747
v 2.755 0 4.13605883539e-16
v 2.75082583739 0 -0.0502873299747
v 2.73841760291 0 -0.0991982173769
v 2.71811492926 0 -0.145393895012
v 2.69047353226 0 -0.187609915206
v 2.65625 0 -0.224690759712
v 2.61589559394 0.461252971928 -0.224690759712
v 2.49605852396 0.908491005709 -0.224690759712
v 2.3003799788 1.328125 -0.224690759712
v 2.03480555203 1.70740458823 -0.224690759712
v 1.70740458823 2.03480555203 -0.224690759712
v 1.328125 2.3003799788 -0.224690759712
v 0.908491005709 2.49605852396 -0.224690759712
v 0.461252971928 2.61589559394 -0.224690759712
v -1.60676954248e-15 2.65625 -0.224690759712
v -0.461252971928 2.61589559394 -0.224690759712
v -0.908491005709 2.49605852396 -0.224690759712
v -1.328125 2.3003799788 -0.224690759712
v -1.70740458823 2.03480555203 -0.224690759712
v -2.03480555203 1.70740458823 -0.224690759712
v -2.3003799788 1.328125 -0.224690759712
v -2.49605852396 0.908491005709 -0.224690759712
v -2.61589559394 0.461252971928 -0.224690759712
v -2.65625 -5.5727630123e-15 -0.224690759712
v -2.61589559394 -0.461252971928 -0.224690759712
v -2.49605852396 -0.908491005709 -0.224690759712
v -2.3003799788 -1.328125 -0.224690759712
v -2.03480555203 -1.70740458823 -0.224690759712
v -1.70740458823 -2.03480555203 -0.224690759712
v -1.328125 -2.3003799788 -0.224690759712
v -0.908491005709 -2.49605852396 -0.224690759712
v -0.461252971928 -2.61589559394 -0.224690759712
v 6.58972657295e-15 -2.65625 -0.224690759712
v 0.461252971928 -2.61589559394 -0.224690759712
v 0.908491005709 -2.49605852396 -0.224690759712
v 1.328125 -2.3003799788 -0.224690759712
v 1.70740458823 -2.03480555203 -0.224690759712
v 2.03480555203 -1.70740458823 -0.224690759712
v 2.3003799788 -1.328125 -0.224690759712
v 2.49605852396 -0.908491005709 -0.224690759712
v 2.61589559394 -0.461252971928 -0.224690759712
v 2.64959919384 0.467195825938 0.187609915206
v 2.67682065592 0.471995704156 0.145393895012
v 2.69681488633 0.475521226437 0.0991982173769
v 2.70903461185 0.477675893743 0.0502873299747
v 2.71314535955 0.478400729472 0
v 2.70903461185 0.477675893743 -0.0502873299747
v 2.69681488633 0.475521226437 -0.0991982173769
v 2.67682065592 0.471995704156 -0.145393895012
v 2.64959919384 0.467195825938 -0.187609915206
v 2.52821812468 0.920196143117 0.187609915206
v 2.55419254148 0.929650057682 0.145393895012
v 2.57327081409 0.936593981033 0.0991982173769
v 2.58493074047 0.94083784717 0.0502873299747
v 2.58885317027 0.942265494862 0
v 2.58493074047 0.94083784717 -0.0502873299747
v 2.57327081409 0.936593981033 -0.0991982173769
v 2.55419254148 0.929650057682 -0.145393895012
v 2.52821812468 0.920196143117 -0.187609915206
v 2.33001842714 1.34523676613 0.187609915206
v 2.35395657915 1.35905746463 0.145393895012
v 2.37153921029 1.36920880146 0.0991982173769
v 2.38228505657 1.3754129187 0.0502873299747
v 2.38589998743 1.3775 0
v 2.38228505657 1.3754129187 -0.0502873299747
v 2.37153921029 1.36920880146 -0.0991982173769
v 2.35395657915 1.35905746463 -0.145393895012
v 2.33001842714 1.34523676613 -0.187609915206
v 2.06102229874 1.72940305072 0.187609915206
v 2.08219683732 1.74717059823 0.145393895012
v 2.09774958765 1.7602209053 0.0991982173769
v 2.10725484672 1.76819676468 0.0502873299747
v 2.11045244079 1.77087986469 0
v 2.10725484672 1.76819676468 -0.0502873299747
v 2.09774958765 1.7602209053 -0.0991982173769
v 2.08219683732 1.74717059823 -0.145393895012
v 2.06102229874 1.72940305072 -0.187609915206
v 1.72940305072 2.06102229874 0.187609915206
v 1.74717059823 2.08219683732 0.145393895012
v 1.7602209053 2.09774958765 0.0991982173769
v 1.76819676468 2.10725484672 0.0502873299747
v 1.77087986469 2.11045244079 0
v 1.76819676468 2.10725484672 -0.0502873299747
v 1.7602209053 2.09774958765 -0.0991982173769
v 1.74717059823 2.08219683732 -0.145393895012
v 1.72940305072 2.06102229874 -0.187609915206
v 1.34523676613 2.33001842714 0.187609915206
v 1.35905746463 2.35395657915 0.145393895012
v 1.36920880146 2.37153921029 0.0991982173769
v 1.3754129187 2.38228505657 0.0502873299747
v 1.3775 2.38589998743 0
v 1.3754129187 2.38228505657 -0.0502873299747
v 1.36920880146 2.37153921029 -0.0991982173769
v 1.35905746463 2.35395657915 -0.145393895012
v 1.34523676613 2.33001842714 -0.187609915206
v 0.920196143117 2.52821812468 0.187609915206
v 0.929650057682 2.55419254148 0.145393895012
v 0.936593981033 2.57327081409 0.0991982173769
v 0.94083784717 2.58493074047 0.0502873299747
v 0.942265494862 2.58885317027 0
v 0.94083784717 2.58493074047 -0.0502873299747
v 0.936593981033 2.57327081409 -0.0991982173769
v 0.929650057682 2.55419254148 -0.145393895012
v 0.920196143117 2.52821812468 -0.187609915206
v 0.467195825938 2.64959919384 0.187609915206
v 0.471995704156 2.67682065592 0.145393895012
v 0.475521226437 2.69681488633 0.0991982173769
v 0.477675893743 2.70903461185 0.0502873299747
v 0.478400729472 2.71314535955 0
v 0.477675893743 2.70903461185 -0.0502873299747
v 0.475521226437 2.69681488633 -0.0991982173769
v 0.471995704156 2.67682065592 -0.145393895012
v 0.467195825938 2.64959919384 -0.187609915206
v 0 2.69047353226 0.187609915206
v 0 2.71811492926 0.145393895012
v 0 2.73841760291 0.0991982173769
v 0 2.75082583739 0.0502873299747
v 0 2.755 0
v 0 2.75082583739 -0.0502873299747
v 0 2.73841760291 -0.0991982173769
v 0 2.71811492926 -0.145393895012
v 0 2.69047353226 -0.187609915206
v -0.467195825938 2.64959919384 0.187609915206
v -0.471995704156 2.67682065592 0.145393895012
v -0.475521226437 2.69681488633 0.0991982173769
v -0.477675893743 2.70903461185 0.0502873299747
v -0.478400729472 2.71314535955 0
v -0.477675893743 2.70903461185 -0.0502873299747
v -0.475521226437 2.69681488633 -0.0991982173769
v -0.471995704156 2.67682065592 -0.145393895012
v -0.467195825938 2.64959919384 -0.187609915206
v -0.920196143117 2.52821812468 0.187609915206
v -0.929650057682 2.55419254148 0.145393895012
v -0.936593981033 2.57327081409 0.0991982173769
v -0.94083784717 2.58493074047 0.0502873299747
v -0.942265494862 2.58885317027 0
v -0.94083784717 2.58493074047 -0.0502873299747
v -0.936593981033 2.57327081409 -0.0991982173769
v -0.929650057682 2.55419254148 -0.145393895012
v -0.920196143117 2.52821812468 -0.187609915206
v -1.34523676613 2.33001842714 0.187609915206
v -1.35905746463 2.35395657915 0.145393895012
v -1.36920880146 2.37153921029 0.0991982173769
v -1.3754129187 2.38228505657 0.0502873299747
v -1.3775 2.38589998743 0
v -1.3754129187 2.38228505657 -0.0502873299747
v -1.36920880146 2.37153921029 -0.0991982173769
v -1.35905746463 2.35395657915 -0.145393895012
v -1.34523676613 2.33001842714 -0.187609915206
v -1.72940305072 2.06102229874 0.187609915206
v -1.74717059823 2.08219683732 0.145393895012
v -1.7602209053 2.09774958765 0.0991982173769
v -1.76819676468 2.10725484672 0.0502873299747
v -1.77087986469 2.11045244079 0
v -1.76819676468 2.10725484672 -0.0502873299747
v -1.7602209053 2.09774958765 -0.0991982173769
v -1.74717059823 2.08219683732 -0.145393895012
v -1.72940305072 2.06102229874 -0.187609915206
v -2.06102229874 1.72940305072 0.187609915206
v -2.08219683732 1.74717059823 0.145393895012
v -2.09774958765 1.7602209053 0.0991982173769
v -2.10725484672 1.76819676468 0.0502873299747
v -2.11045244079 1.77087986469 0
v -2.10725484672 1.76819676468 -0.0502873299747
v -2.09774958765 1.7602209053 -0.0991982173769
v -2.08219683732 1.74717059823 -0.145393895012
v -2.06102229874 1.72940305072 -0.187609915206
v -2.33001842714 1.34523676613 0.187609915206
v -2.35395657915 1.35905746463 0.145393895012
v -2.37153921029 1.36920880146 0.0991982173769
v -2.38228505657 1.3754129187 0.0502873299747
v -2.38589998743 1.3775 0
v -2.38228505657 1.3754129187 -0.0502873299747
v -2.37153921029 1.36920880146 -0.0991982173769
v -2.35395657915 1.35905746463 -0.145393895012
v -2.33001842714 1.34523676613 -0.187609915206
v -2.52821812468 0.920196143117 0.187609915206
v -2.55419254148 0.929650057682 0.145393895012
v -2.57327081409 0.936593981033 0.0991982173769
v -2.58493074047 0.94083784717 0.0502873299747
v -2.58885317027 0.942265494862 0
v -2.58493074047 0.94083784717 -0.0502873299747
v -2.57327081409 0.936593981033 -0.0991982173769
v -2.55419254148 0.929650057682 -0.145393895012
v -2.52821812468 0.920196143117 -0.187609915206
v -2.64959919384 0.467195825938 0.187609915206
v -2.67682065592 0.471995704156 0.145393895012
v -2.69681488633 0.475521226437 0.0991982173769
v -2.70903461185 0.477675893743 0.0502873299747
v -2.71314535955 0.478400729472 0
v -2.70903461185 0.477675893743 -0.0502873299747
v -2.69681488633 0.475521226437 -0.0991982173769
v -2.67682065592 0.471995704156 -0.145393895012
v -2.64959919384 0.467195825938 -0.187609915206
v -2.69047353226 0 0.187609915206
v -2.71811492926 0 0.145393895012
v -2.73841760291 0 0.0991982173769
v -2.75082583739 0 0.0502873299747
v -2.755 0 0
v -2.75082583739 0 -0.0502873299747
v -2.73841760291 0 -0.0991982173769
v -2.71811492926 0 -0.145393895012
v -2.69047353226 0 -0.187609915206
v -2.64959919384 -0.467195825938 0.187609915206
v -2.67682065592 -0.471995704156 0.145393895012
v -2.69681488633 -0.475521226437 0.0991982173769
v -2.70903461185 -0.477675893743 0.0502873299747
v -2.71314535955 -0.478400729472 0
v -2.70903461185 -0.477675893743 -0.0502873299747
v -2.69681488633 -0.475521226437 -0.0991982173769
v -2.67682065592 -0.471995704156 -0.145393895012
v -2.64959919384 -0.467195825938 -0.187609915206
v -2.52821812468 -0.920196143117 0.187609915206
v -2.55419254148 -0.929650057682 0.145393895012
v -2.57327081409 -0.936593981033 0.0991982173769
v -2.58493074047 -0.94083784717 0.0502873299747
v -2.58885317027 -0.942265494862 0
v -2.58493074047 -0.94083784717 -0.0502873299747
v -2.57327081409 -0.936593981033 -0.0991982173769
v -2.55419254148 -0.929650057682 -0.145393895012
v -2.52821812468 -0.920196143117 -0.187609915206
v -2.33001842714 -1.34523676613 0.187609915206
v -2.35395657915 -1.35905746463 0.145393895012
v -2.37153921029 -1.36920880146 0.0991982173769
v -2.38228505657 -1.3754129187 0.0502873299747
v -2.38589998743 -1.3775 0
v -2.38228505657 -1.3754129187 -0.0502873299747
v -2.37153921029 -1.36920880146 -0.0991982173769
v -2.35395657915 -1.35905746463 -0.145393895012
v -2.33001842714 -1.34523676613 -0.187609915206
v -2.06102229874 -1.72940305072 0.187609915206
v -2.08219683732 -1.74717059823 0.145393895012
v -2.09774958765 -1.7602209053 0.0991982173769
v -2.10725484672 -1.76819676468 0.0502873299747
v -2.11045244079 -1.77087986469 0
v -2.10725484672 -1.76819676468 -0.0502873299747
v -2.09774958765 -1.7602209053 -0.0991982173769
v -2.08219683732 -1.74717059823 -0.145393895012
v -2.06102229874 -1.72940305072 -0.187609915206
v -1.72940305072 -2.06102229874 0.187609915206
v -1.74717059823 -2.08219683732 0.145393895012
v -1.7602209053 -2.09774958765 0.0991982173769
v -1.76819676468 -2.10725484672 0.0502873299747
v -1.77087986469 -2.11045244079 0
v -1.76819676468 -2.10725484672 -0.0502873299747
v -1.7602209053 -2.09774958765 -0.0991982173769
v -1.74717059823 -2.08219683732 -0.145393895012
v -1.72940305072 -2.06102229874 -0.187609915206
v -1.34523676613 -2.33001842714 0.187609915206
v -1.35905746463 -2.35395657915 0.145393895012
v -1.36920880146 -2.37153921029 0.0991982173769
v -1.3754129187 -2.38228505657 0.0502873299747
v -1.3775 -2.38589998743 0
v -1.3754129187 -2.38228505657 -0.0502873299747
v -1.36920880146 -2.37153921029 -0.0991982173769
v -1.35905746463 -2.35395657915 -0.145393895012
v -1.34523676613 -2.33001842714 -0.187609915206
v -0.920196143117 -2.52821812468 0.187609915206
v -0.929650057682 -2.55419254148 0.145393895012
v -0.936593981033 -2.57327081409 0.0991982173769
v -0.94083784717 -2.58493074047 0.0502873299747
v -0.942265494862 -2.58885317027 0
v -0.94083784717 -2.58493074047 -0.0502873299747
v -0.936593981033 -2.57327081409 -0.0991982173769
v -0.929650057682 -2.55419254148 -0.145393895012
v -0.920196143117 -2.52821812468 -0.187609915206
v -0.467195825938 -2.64959919384 0.187609915206
v -0.471995704156 -2.67682065592 0.145393895012
v -0.475521226437 -2.69681488633 0.0991982173769
v -0.477675893743 -2.70903461185 0.0502873299747
v -0.478400729472 -2.71314535955 0
v -0.477675893743 -2.70903461185 -0.0502873299747
v -0.475521226437 -2.69681488633 -0.0991982173769
v -0.471995704156 -2.67682065592 -0.145393895012
v -0.467195825938 -2.64959919384 -0.187609915206
v 6.67462962046e-15 -2.69047353226 0.187609915206
v 6.74320345513e-15 -2.71811492926 0.145393895012
v 6.79357110428e-15 -2.73841760291 0.0991982173769
v 6.82435392687e-15 -2.75082583739 0.0502873299747
v 6.83470934907e-15 -2.755 0
v 6.82435392687e-15 -2.75082583739 -0.0502873299747
v 6.79357110428e-15 -2.73841760291 -0.0991982173769
v 6.74320345513e-15 -2.71811492926 -0.145393895012
v 6.67462962046e-15 -2.69047353226 -0.187609915206
v 0.467195825938 -2.64959919384 0.187609915206
v 0.471995704156 -2.67682065592 0.145393895012
v 0.475521226437 -2.69681488633 0.0991982173769
v 0.477675893743 -2.70903461185 0.0502873299747
v 0.478400729472 -2.71314535955 0
v 0.477675893743 -2.70903461185 -0.0502873299747
v 0.475521226437 -2.69681488633 -0.0991982173769
v 0.471995704156 -2.67682065592 -0.145393895012
v 0.467195825938 -2.64959919384 -0.187609915206
v 0.920196143117 -2.52821812468 0.187609915206
v 0.929650057682 -2.55419254148 0.145393895012
v 0.936593981033 -2.57327081409 0.0991982173769
v 0.94083784717 -2.58493074047 0.0502873299747
v 0.942265494862 -2.58885317027 0
v 0.94083784717 -2.58493074047 -0.0502873299747
v 0.936593981033 -2.57327081409 -0.0991982173769
v 0.929650057682 -2.55419254148 -0.145393895012
v 0.920196143117 -2.52821812468 -0.187609915206
v 1.34523676613 -2.33001842714 0.187609915206
v 1.35905746463 -2.35395657915 0.145393895012
v 1.36920880146 -2.37153921029 0.0991982173769
v 1.3754129187 -2.38228505657 0.0502873299747
v 1.3775 -2.38589998743 0
v 1.3754129187 -2.38228505657 -0.0502873299747
v 1.36920880146 -2.37153921029 -0.0991982173769
v 1.35905746463 -2.35395657915 -0.145393895012
v 1.34523676613 -2.33001842714 -0.187609915206
v 1.72940305072 -2.06102229874 0.187609915206
v 1.74717059823 -2.08219683732 0.145393895012
v 1.7602209053 -2.09774958765 0.0991982173769
v 1.76819676468 -2.10725484672 0.0502873299747
v 1.77087986469 -2.11045244079 0
v 1.76819676468 -2.10725484672 -0.0502873299747
v 1.7602209053 -2.09774958765 -0.0991982173769
v 1.74717059823 -2.08219683732 -0.145393895012
v 1.72940305072 -2.06102229874 -0.187609915206
v 2.06102229874 -1.72940305072 0.187609915206
v 2.08219683732 -1.74717059823 0.145393895012
v 2.09774958765 -1.7602209053 0.0991982173769
v 2.10725484672 -1.76819676468 0.0502873299747
v 2.11045244079 -1.77087986469 0
v 2.10725484672 -1.76819676468 -0.0502873299747
v 2.09774958765 -1.7602209053 -0.0991982173769
v 2.08219683732 -1.74717059823 -0.145393895012
v 2.06102229874 -1.72940305072 -0.187609915206
v 2.33001842714 -1.34523676613 0.187609915206
v 2.35395657915 -1.35905746463 0.145393895012
v 2.37153921029 -1.36920880146 0.0991982173769
v 2.38228505657 -1.3754129187 0.0502873299747
v 2.38589998743 -1.3775 0
v 2.38228505657 -1.3754129187 -0.0502873299747
v 2.37153921029 -1.36920880146 -0.0991982173769
v 2.35395657915 -1.35905746463 -0.145393895012
v 2.33001842714 -1.34523676613 -0.187609915206
v 2.52821812468 -0.920196143117 0.187609915206
v 2.55419254148 -0.929650057682 0.145393895012
v 2.57327081409 -0.936593981033 0.0991982173769
v 2.58493074047 -0.94083784717 0.0502873299747
v 2.58885317027 -0.942265494862 0
v 2.58493074047 -0.94083784717 -0.0502873299747
v 2.57327081409 -0.936593981033 -0.0991982173769
v 2.55419254148 -0.929650057682 -0.145393895012
v 2.52821812468 -0.920196143117 -0.187609915206
v 2.64959919384 -0.467195825938 0.187609915206
v 2.67682065592 -0.471995704156 0.145393895012
v 2.69681488633 -0.475521226437 0.0991982173769
v 2.70903461185 -0.477675893743 0.0502873299747
v 2.71314535955 -0.478400729472 0
v 2.70903461185 -0.477675893743 -0.0502873299747
v 2.69681488633 -0.475521226437 -0.0991982173769
v 2.67682065592 -0.471995704156 -0.145393895012
v 2.64959919384 -0.467195825938 -0.187609915206
f 69 33 32
f 69 34 33
f 69 32 68
f 67 32 31
f 67 68 32
f 70 34 69
f 66 31 30
f 66 67 31
f 71 35 34
f 71 34 70
f 65 30 29
f 65 66 30
f 72 36 35
f 72 35 71
f 64 29 28
f 64 65 29
f 37 36 72
f 37 1 36
f 63 64 28
f 63 28 27
f 38 2 1
f 38 1 37
f 62 63 27
f 62 27 26
f 39 3 2
f 39 2 38
f 61 62 26
f 61 26 25
f 40 4 3
f 40 3 39
f 60 25 24
f 60 61 25
f 41 4 40
f 41 5 4
f 23 60 24
f 23 59 60
f 6 5 41
f 6 41 42
f 22 59 23
f 22 58 59
f 7 42 43
f 7 6 42
f 44 7 43
f 21 57 58
f 21 58 22
f 8 7 44
f 20 56 57
f 20 57 21
f 9 44 45
f 9 45 46
f 9 8 44
f 19 55 56
f 19 56 20
f 10 9 46
f 18 53 54
f 18 54 55
f 18 55 19
f 11 46 47
f 11 47 48
f 11 10 46
f 17 53 18
f 12 11 48
f 16 53 17
f 16 51 52
f 16 52 53
f 13 48 49
f 13 12 48
f 15 51 16
f 15 50 51
f 14 13 49
f 14 50 15
f 14 49 50
f 74 1 2
f 74 73 1
f 75 2 3
f 75 74 2
f 76 3 4
f 76 75 3
f 77 4 5
f 77 76 4
f 78 5 6
f 78 77 5
f 79 6 7
f 79 78 6
f 80 79 7
f 80 7 8
f 80 8 9
f 81 9 10
f 81 80 9
f 82 81 10
f 83 82 10
f 83 10 11
f 84 11 12
f 84 83 11
f 85 12 13
f 85 84 12
f 86 13 14
f 86 85 13
f 87 14 15
f 87 15 16
f 87 86 14
f 88 87 16
f 89 16 17
f 89 88 16
f 90 17 18
f 90 89 17
f 91 18 19
f 91 90 18
f 92 19 20
f 92 91 19
f 93 20 21
f 93 21 22
f 93 92 20
f 94 93 22
f 95 22 23
f 95 94 22
f 96 23 24
f 96 95 23
f 97 24 25
f 97 96 24
f 98 25 26
f 98 97 25
f 99 26 27
f 99 98 26
f 100 27 28
f 100 99 27
f 101 28 29
f 101 100 28
f 102 29 30
f 102 101 29
f 103 30 31
f 103 102 30
f 104 103 31
f 104 31 32
f 105 104 32
f 105 32 33
f 106 105 33
f 106 33 34
f 106 34 35
f 107 106 35
f 108 107 35
f 108 35 36
f 73 108 36
f 73 36 1
f 132 95 96
f 132 131 95
f 130 94 95
f 130 95 131
f 133 96 97
f 133 132 96
f 129 93 94
f 129 94 130
f 134 97 98
f 134 98 99
f 134 133 97
f 128 93 129
f 128 92 93
f 135 134 99
f 127 92 128
f 127 91 92
f 136 99 100
f 136 135 99
f 126 91 127
f 126 90 91
f 137 136 100
f 137 100 101
f 125 89 90
f 125 90 126
f 138 137 101
f 138 101 102
f 124 89 125
f 124 88 89
f 139 138 102
f 139 102 103
f 104 139 103
f 123 88 124
f 123 87 88
f 140 139 104
f 141 140 104
f 86 87 123
f 86 123 122
f 105 141 104
f 142 141 105
f 85 86 122
f 85 122 121
f 106 142 105
f 84 121 120
f 84 85 121
f 107 142 106
f 107 143 142
f 144 143 107
f 83 84 120
f 83 120 119
f 108 144 107
f 82 118 117
f 82 119 118
f 82 83 119
f 73 109 144
f 73 144 108
f 74 110 109
f 74 109 73
f 81 117 116
f 81 82 117
f 80 81 116
f 75 111 110
f 75 112 111
f 75 110 74
f 79 80 116
f 79 115 114
f 79 116 115
f 76 112 75
f 78 79 114
f 78 114 113
f 77 112 76
f 77 78 113
f 77 113 112
f 146 109 110
f 146 145 109
f 147 110 111
f 147 146 110
f 148 111 112
f 148 147 111
f 149 112 113
f 149 148 112
f 150 113 114
f 150 149 113
f 151 114 115
f 151 150 114
f 152 151 115
f 152 115 116
f 153 116 117
f 153 152 116
f 154 117 118
f 154 153 117
f 155 154 118
f 155 118 119
f 155 119 120
f 156 155 120
f 157 120 121
f 157 156 120
f 158 121 122
f 158 157 121
f 159 122 123
f 159 158 122
f 160 123 124
f 160 124 125
f 160 159 123
f 161 160 125
f 162 125 126
f 162 161 125
f 163 126 127
f 163 162 126
f 164 127 128
f 164 128 129
f 164 163 127
f 165 164 129
f 166 129 130
f 166 165 129
f 167 130 131
f 167 166 130
f 168 131 132
f 168 132 133
f 168 167 131
f 169 133 134
f 169 168 133
f 170 169 134
f 171 134 135
f 171 170 134
f 172 135 136
f 172 136 137
f 172 171 135
f 173 172 137
f 174 137 138
f 174 173 137
f 175 138 139
f 175 174 138
f 176 175 139
f 176 139 140
f 177 176 140
f 177 140 141
f 178 177 141
f 178 141 142
f 179 178 142
f 179 142 143
f 180 179 143
f 180 143 144
f 180 144 109
f 145 180 109
f 226 145 146
f 226 181 145
f 227 181 226
f 227 182 181
f 228 182 227
f 228 183 182
f 229 183 228
f 229 184 183
f 230 184 229
f 230 185 184
f 231 185 230
f 231 186 185
f 232 186 231
f 232 187 186
f 233 188 187
f 233 187 232
f 234 188 233
f 234 191 190
f 234 189 188
f 234 190 189
f 235 146 147
f 235 226 146
f 236 226 235
f 236 227 226
f 237 227 236
f 237 228 227
f 238 229 228
f 238 228 237
f 239 229 238
f 239 230 229
f 240 230 239
f 240 231 230
f 241 231 240
f 241 232 231
f 242 233 232
f 242 232 241
f 243 234 233
f 243 191 234
f 243 192 191
f 243 233 242
f 244 147 148
f 244 235 147
f 245 235 244
f 245 236 235
f 246 236 245
f 246 237 236
f 247 238 237
f 247 237 246
f 248 238 247
f 248 239 238
f 249 240 239
f 249 239 248
f 250 240 249
f 250 241 240
f 251 241 250
f 251 242 241
f 252 243 242
f 252 193 192
f 252 242 251
f 252 192 243
f 253 148 149
f 253 244 148
f 254 244 253
f 254 245 244
f 255 246 245
f 255 245 254
f 256 246 255
f 256 247 246
f 257 247 256
f 257 248 247
f 258 248 257
f 258 249 248
f 259 250 249
f 259 249 258
f 260 251 250
f 260 250 259
f 261 193 252
f 261 194 193
f 261 252 251
f 261 251 260
f 262 149 150
f 262 253 149
f 263 254 253
f 263 253 262
f 264 254 263
f 264 255 254
f 265 256 255
f 265 255 264
f 266 256 265
f 266 257 256
f 267 257 266
f 267 258 257
f 268 258 267
f 268 259 258
f 269 259 268
f 269 260 259
f 270 260 269
f 270 194 261
f 270 195 194
f 270 261 260
f 271 150 151
f 271 262 150
f 272 262 271
f 272 263 262
f 273 263 272
f 273 264 263
f 274 266 265
f 274 264 273
f 274 265 264
f 275 266 274
f 276 268 267
f 276 266 275
f 276 267 266
f 277 268 276
f 278 269 268
f 278 268 277
f 279 270 269
f 279 195 270
f 279 269 278
f 279 196 195
f 280 151 152
f 280 271 151
f 281 272 271
f 281 271 280
f 282 274 273
f 282 272 281
f 282 273 272
f 283 274 282
f 284 275 274
f 284 274 283
f 285 275 284
f 285 276 275
f 286 277 276
f 286 276 285
f 287 278 277
f 287 277 286
f 288 279 278
f 288 196 279
f 288 197 196
f 288 278 287
f 289 152 153
f 289 280 152
f 290 281 280
f 290 282 281
f 290 280 289
f 291 282 290
f 292 283 282
f 292 282 291
f 293 284 283
f 293 283 292
f 294 285 284
f 294 284 293
f 295 286 285
f 295 285 294
f 296 287 286
f 296 286 295
f 297 198 197
f 297 199 198
f 297 287 296
f 297 197 288
f 297 288 287
f 298 153 154
f 298 289 153
f 299 290 289
f 299 289 298
f 300 291 290
f 300 292 291
f 300 290 299
f 301 292 300
f 302 292 301
f 302 293 292
f 303 293 302
f 303 294 293
f 304 294 303
f 304 295 294
f 304 296 295
f 305 296 304
f 306 296 305
f 306 199 297
f 306 297 296
f 307 154 155
f 307 298 154
f 308 298 307
f 308 299 298
f 309 299 308
f 309 300 299
f 310 300 309
f 310 301 300
f 311 302 301
f 311 301 310
f 312 303 302
f 312 302 311
f 313 304 303
f 313 303 312
f 314 305 304
f 314 306 305
f 314 304 313
f 315 199 306
f 315 200 199
f 315 306 314
f 316 155 156
f 316 308 307
f 316 307 155
f 317 308 316
f 318 310 309
f 318 308 317
f 318 309 308
f 319 311 310
f 319 310 318
f 320 311 319
f 321 311 320
f 321 312 311
f 321 313 312
f 322 314 313
f 322 313 321
f 323 314 322
f 324 314 323
f 324 315 314
f 324 200 315
f 324 201 200
f 325 316 156
f 325 156 157
f 325 317 316
f 326 317 325
f 327 318 317
f 327 317 326
f 328 319 318
f 328 318 327
f 329 320 319
f 329 319 328
f 330 321 320
f 330 320 329
f 331 322 321
f 331 321 330
f 332 323 322
f 332 322 331
f 333 202 201
f 333 324 323
f 333 201 324
f 333 323 332
f 334 157 158
f 334 158 159
f 334 325 157
f 335 326 325
f 335 325 334
f 336 326 335
f 336 327 326
f 337 327 336
f 337 328 327
f 338 328 337
f 338 329 328
f 339 329 338
f 339 330 329
f 340 330 339
f 340 331 330
f 341 331 340
f 341 332 331
f 342 333 332
f 342 332 341
f 342 203 202
f 342 202 333
f 343 334 159
f 344 336 335
f 344 334 343
f 344 335 334
f 345 336 344
f 346 337 336
f 346 336 345
f 346 338 337
f 347 339 338
f 347 338 346
f 348 340 339
f 348 339 347
f 349 340 348
f 350 341 340
f 350 340 349
f 351 203 342
f 351 341 350
f 351 204 203
f 351 342 341
f 352 159 160
f 352 343 159
f 353 344 343
f 353 343 352
f 354 346 345
f 354 345 344
f 354 344 353
f 355 346 354
f 356 347 346
f 356 348 347
f 356 346 355
f 357 348 356
f 358 349 348
f 358 348 357
f 359 350 349
f 359 349 358
f 360 351 350
f 360 204 351
f 360 205 204
f 360 350 359
f 361 160 161
f 361 161 162
f 361 352 160
f 361 353 352
f 362 354 353
f 362 353 361
f 363 354 362
f 364 355 354
f 364 354 363
f 365 356 355
f 365 355 364
f 366 357 356
f 366 356 365
f 367 358 357
f 367 357 366
f 368 359 358
f 368 360 359
f 368 358 367
f 369 360 368
f 369 206 205
f 369 207 206
f 369 205 360
f 370 361 162
f 370 362 361
f 371 362 370
f 372 362 371
f 372 363 362
f 372 364 363
f 373 364 372
f 374 364 373
f 374 365 364
f 374 366 365
f 375 367 366
f 375 366 374
f 376 368 367
f 376 367 375
f 377 368 376
f 378 368 377
f 378 207 369
f 378 369 368
f 379 162 163
f 379 370 162
f 380 370 379
f 380 371 370
f 380 372 371
f 381 373 372
f 381 372 380
f 382 373 381
f 383 373 382
f 383 374 373
f 384 375 374
f 384 374 383
f 385 377 376
f 385 376 375
f 385 375 384
f 386 378 377
f 386 377 385
f 387 207 378
f 387 378 386
f 387 208 207
f 387 209 208
f 388 163 164
f 388 379 163
f 389 380 379
f 389 381 380
f 389 379 388
f 390 382 381
f 390 381 389
f 391 382 390
f 392 383 382
f 392 382 391
f 393 384 383
f 393 385 384
f 393 383 392
f 394 385 393
f 395 386 385
f 395 387 386
f 395 385 394
f 396 387 395
f 396 209 387
f 397 164 165
f 397 388 164
f 398 388 397
f 398 389 388
f 399 389 398
f 399 390 389
f 399 391 390
f 400 391 399
f 401 392 391
f 401 391 400
f 402 392 401
f 402 393 392
f 403 394 393
f 403 395 394
f 403 393 402
f 404 395 403
f 405 395 404
f 405 210 209
f 405 396 395
f 405 209 396
f 406 165 166
f 406 397 165
f 406 398 397
f 407 398 406
f 407 399 398
f 408 399 407
f 408 400 399
f 409 401 400
f 409 400 408
f 410 401 409
f 411 402 401
f 411 401 410
f 412 403 402
f 412 402 411
f 413 404 403
f 413 405 404
f 413 403 412
f 414 210 405
f 414 405 413
f 414 211 210
f 414 212 211
f 415 166 167
f 415 406 166
f 416 407 406
f 416 406 415
f 417 408 407
f 417 407 416
f 418 409 408
f 418 410 409
f 418 408 417
f 419 411 410
f 419 410 418
f 420 411 419
f 421 412 411
f 421 411 420
f 422 413 412
f 422 412 421
f 423 414 413
f 423 212 414
f 423 413 422
f 423 213 212
f 424 415 167
f 424 167 168
f 424 168 169
f 425 415 424
f 425 416 415
f 426 416 425
f 426 417 416
f 427 418 417
f 427 417 426
f 428 419 418
f 428 418 427
f 429 419 428
f 429 420 419
f 429 421 420
f 430 421 429
f 431 422 421
f 431 423 422
f 431 421 430
f 432 423 431
f 432 213 423
f 433 169 170
f 433 424 169
f 434 425 424
f 434 424 433
f 435 426 425
f 435 425 434
f 436 426 435
f 436 427 426
f 437 428 427
f 437 427 436
f 438 429 428
f 438 428 437
f 439 429 438
f 439 430 429
f 440 430 439
f 440 431 430
f 441 431 440
f 441 214 213
f 441 215 214
f 441 432 431
f 441 213 432
f 442 433 170
f 443 433 442
f 443 434 433
f 444 435 434
f 444 434 443
f 445 435 444
f 445 436 435
f 445 437 436
f 446 437 445
f 447 438 437
f 447 439 438
f 447 437 446
f 448 439 447
f 449 440 439
f 449 441 440
f 449 439 448
f 450 215 441
f 450 441 449
f 451 442 170
f 451 170 171
f 451 171 172
f 452 443 442
f 452 444 443
f 452 442 451
f 453 444 452
f 454 444 453
f 454 446 445
f 454 445 444
f 455 446 454
f 456 446 455
f 456 447 446
f 456 448 447
f 457 448 456
f 458 449 448
f 458 450 449
f 458 448 457
f 459 215 450
f 459 450 458
f 459 216 215
f 460 452 451
f 460 451 172
f 461 453 452
f 461 452 460
f 462 454 453
f 462 453 461
f 463 454 462
f 464 455 454
f 464 454 463
f 465 456 455
f 465 457 456
f 465 455 464
f 466 457 465
f 467 458 457
f 467 459 458
f 467 457 466
f 468 217 216
f 468 216 459
f 468 459 467
f 469 172 173
f 469 460 172
f 470 461 460
f 470 460 469
f 471 461 470
f 471 462 461
f 472 462 471
f 472 463 462
f 472 464 463
f 473 464 472
f 474 464 473
f 474 465 464
f 475 465 474
f 475 466 465
f 476 466 475
f 476 467 466
f 477 468 467
f 477 467 476
f 477 218 217
f 477 217 468
f 478 173 174
f 478 469 173
f 479 470 469
f 479 469 478
f 480 471 470
f 480 470 479
f 481 471 480
f 481 472 471
f 482 473 472
f 482 472 481
f 483 474 473
f 483 473 482
f 483 475 474
f 484 475 483
f 485 476 475
f 485 475 484
f 486 477 476
f 486 218 477
f 486 476 485
f 486 219 218
f 487 478 174
f 487 174 175
f 488 479 478
f 488 478 487
f 489 480 479
f 489 479 488
f 490 481 480
f 490 480 489
f 491 482 481
f 491 481 490
f 492 483 482
f 492 482 491
f 493 484 483
f 493 483 492
f 494 485 484
f 494 486 485
f 494 484 493
f 495 219 486
f 495 486 494
f 495 220 219
f 496 175 176
f 496 487 175
f 497 487 496
f 497 488 487
f 498 489 488
f 498 488 497
f 499 489 498
f 499 490 489
f 500 491 490
f 500 492 491
f 500 490 499
f 501 492 500
f 502 493 492
f 502 494 493
f 502 492 501
f 503 494 502
f 504 494 503
f 504 221 220
f 504 495 494
f 504 220 495
f 505 176 177
f 505 496 176
f 506 496 505
f 506 497 496
f 506 498 497
f 507 498 506
f 508 498 507
f 508 499 498
f 509 499 508
f 509 500 499
f 510 500 509
f 510 501 500
f 511 503 502
f 511 502 501
f 511 501 510
f 512 503 511
f 513 503 512
f 513 504 503
f 513 221 504
f 513 222 221
f 514 177 178
f 514 505 177
f 515 505 514
f 515 506 505
f 516 507 506
f 516 506 515
f 517 508 507
f 517 509 508
f 517 507 516
f 518 509 517
f 519 509 518
f 519 510 509
f 520 511 510
f 520 510 519
f 521 512 511
f 521 511 520
f 522 513 512
f 522 222 513
f 522 512 521
f 522 223 222
f 523 178 179
f 523 179 180
f 523 514 178
f 523 515 514
f 524 515 523
f 525 516 515
f 525 517 516
f 525 515 524
f 526 517 525
f 527 518 517
f 527 517 526
f 528 519 518
f 528 518 527
f 529 520 519
f 529 519 528
f 530 521 520
f 530 522 521
f 530 520 529
f 531 522 530
f 531 223 522
f 531 224 223
f 532 180 145
f 532 145 181
f 532 181 182
f 532 523 180
f 533 182 183
f 533 524 523
f 533 523 532
f 533 525 524
f 533 532 182
f 534 183 184
f 534 525 533
f 534 526 525
f 534 533 183
f 535 527 526
f 535 526 534
f 535 534 184
f 536 184 185
f 536 185 186
f 536 528 527
f 536 527 535
f 536 535 184
f 537 536 186
f 537 529 528
f 537 528 536
f 538 537 186
f 538 529 537
f 538 186 187
f 539 187 188
f 539 188 189
f 539 530 529
f 539 529 538
f 539 538 187
f 540 539 189
f 540 189 190
f 540 531 530
f 540 225 224
f 540 190 225
f 540 530 539
f 540 224 531
f 38 190 191
f 38 37 190
f 39 191 192
f 39 38 191
f 40 192 193
f 40 39 192
f 41 193 194
f 41 40 193
f 42 194 195
f 42 41 194
f 43 195 196
f 43 42 195
f 44 43 196
f 44 196 197
f 44 197 198
f 45 44 198
f 46 198 199
f 46 45 198
f 47 46 199
f 47 199 200
f 48 200 201
f 48 47 200
f 49 201 202
f 49 48 201
f 50 202 203
f 50 49 202
f 51 203 204
f 51 204 205
f 51 50 203
f 52 51 205
f 53 205 206
f 53 206 207
f 53 52 205
f 54 53 207
f 55 207 208
f 55 54 207
f 56 208 209
f 56 55 208
f 57 209 210
f 57 56 209
f 58 210 211
f 58 211 212
f 58 57 210
f 59 58 212
f 60 212 213
f 60 59 212
f 61 213 214
f 61 60 213
f 62 214 215
f 62 215 216
f 62 61 214
f 63 62 216
f 64 216 217
f 64 63 216
f 65 217 218
f 65 64 217
f 66 218 219
f 66 65 218
f 67 219 220
f 67 66 219
f 68 67 220
f 68 220 221
f 68 221 222
f 69 68 222
f 70 69 222
f 70 222 223
f 71 70 223
f 71 223 224
f 72 71 224
f 72 224 225
f 37 72 225
f 37 225 190
