# SimpleCAD BREP tessellation for MuJoCo
v 1.45 -3.55147571753e-16 -3.8
v 1.42797124187 0.251789857617 -3.8
v 1.36255430014 0.495929207822 -3.8
v 1.25573683549 0.725 -3.8
v 1.11076444252 0.932042034045 -3.8
v 0.932042034045 1.11076444252 -3.8
v 0.725 1.25573683549 -3.8
v 0.495929207822 1.36255430014 -3.8
v 0.251789857617 1.42797124187 -3.8
v -8.77107138486e-16 1.45 -3.8
v -0.251789857617 1.42797124187 -3.8
v -0.495929207822 1.36255430014 -3.8
v -0.725 1.25573683549 -3.8
v -0.932042034045 1.11076444252 -3.8
v -1.11076444252 0.932042034045 -3.8
v -1.25573683549 0.725 -3.8
v -1.36255430014 0.495929207822 -3.8
v -1.42797124187 0.251789857617 -3.8
v -1.45 -3.04207298554e-15 -3.8
v -1.42797124187 -0.251789857617 -3.8
v -1.36255430014 -0.495929207822 -3.8
v -1.25573683549 -0.725 -3.8
v -1.11076444252 -0.932042034045 -3.8
v -0.932042034045 -1.11076444252 -3.8
v -0.725 -1.25573683549 -3.8
v -0.495929207822 -1.36255430014 -3.8
v -0.251789857617 -1.42797124187 -3.8
v 3.59721544688e-15 -1.45 -3.8
v 0.251789857617 -1.42797124187 -3.8
v 0.495929207822 -1.36255430014 -3.8
v 0.725 -1.25573683549 -3.8
v 0.932042034045 -1.11076444252 -3.8
v 1.11076444252 -0.932042034045 -3.8
v 1.25573683549 -0.725 -3.8
v 1.36255430014 -0.495929207822 -3.8
v 1.42797124187 -0.251789857617 -3.8
v 1.45 -3.55147571753e-16 -12
v 1.42797124187 0.251789857617 -12
v 1.36255430014 0.495929207822 -12
v 1.25573683549 0.725 -12
v 1.11076444252 0.932042034045 -12
v 0.932042034045 1.11076444252 -12
v 0.725 1.25573683549 -12
v 0.495929207822 1.36255430014 -12
v 0.251789857617 1.42797124187 -12
v -8.77107138486e-16 1.45 -12
v -0.251789857617 1.42797124187 -12
v -0.495929207822 1.36255430014 -12
v -0.725 1.25573683549 -12
v -0.932042034045 1.11076444252 -12
v -1.11076444252 0.932042034045 -12
v -1.25573683549 0.725 -12
v -1.36255430014 0.495929207822 -12
v -1.42797124187 0.251789857617 -12
v -1.45 -3.04207298554e-15 -12
v -1.42797124187 -0.251789857617 -12
v -1.36255430014 -0.495929207822 -12
v -1.25573683549 -0.725 -12
v -1.11076444252 -0.932042034045 -12
v -0.932042034045 -1.11076444252 -12
v -0.725 -1.25573683549 -12
v -0.495929207822 -1.36255430014 -12
v -0.251789857617 -1.42797124187 -12
v 3.59721544688e-15 -1.45 -12
v 0.251789857617 -1.42797124187 -12
v 0.495929207822 -1.36255430014 -12
v 0.725 -1.25573683549 -12
v 0.932042034045 -1.11076444252 -12
v 1.11076444252 -0.932042034045 -12
v 1.25573683549 -0.725 -12
v 1.36255430014 -0.495929207822 -12
v 1.42797124187 -0.251789857617 -12
f 2 1 37
f 2 37 38
f 3 38 39
f 3 2 38
f 4 39 40
f 4 3 39
f 5 40 41
f 5 4 40
f 6 41 42
f 6 42 43
f 6 5 41
f 7 6 43
f 8 7 43
f 8 43 44
f 8 44 45
f 9 8 45
f 10 9 45
f 10 45 46
f 11 10 46
f 11 46 47
f 11 47 48
f 12 11 48
f 13 12 48
f 13 48 49
f 14 13 49
f 14 49 50
f 14 50 51
f 15 14 51
f 16 15 51
f 16 51 52
f 17 16 52
f 17 52 53
f 18 17 53
f 18 53 54
f 19 18 54
f 19 54 55
f 19 55 56
f 20 19 56
f 21 20 56
f 21 56 57
f 21 57 58
f 22 58 59
f 22 21 58
f 23 59 60
f 23 22 59
f 24 23 60
f 25 60 61
f 25 24 60
f 26 61 62
f 26 25 61
f 27 62 63
f 27 63 64
f 27 26 62
f 28 64 65
f 28 27 64
f 29 28 65
f 30 65 66
f 30 29 65
f 31 66 67
f 31 30 66
f 32 31 67
f 32 67 68
f 33 32 68
f 33 68 69
f 33 69 70
f 34 33 70
f 35 34 70
f 35 70 71
f 36 35 71
f 36 71 72
f 1 36 72
f 1 72 37
f 28 25 26
f 28 26 27
f 18 19 20
f 16 17 18
f 31 28 29
f 31 29 30
f 14 15 16
f 14 16 18
f 33 31 32
f 9 10 11
f 9 11 12
f 2 33 34
f 2 34 35
f 2 35 36
f 2 36 1
f 2 31 33
f 8 12 13
f 8 13 14
f 8 20 21
f 8 21 22
f 8 22 23
f 8 23 24
f 8 18 20
f 8 14 18
f 8 9 12
f 4 2 3
f 6 7 8
f 6 24 25
f 6 25 28
f 6 28 31
f 6 8 24
f 5 2 4
f 5 6 31
f 5 31 2
f 64 62 61
f 64 63 62
f 54 56 55
f 52 54 53
f 67 65 64
f 67 66 65
f 50 52 51
f 50 54 52
f 69 68 67
f 45 47 46
f 45 48 47
f 38 70 69
f 38 71 70
f 38 72 71
f 38 37 72
f 38 69 67
f 44 49 48
f 44 50 49
f 44 57 56
f 44 58 57
f 44 59 58
f 44 60 59
f 44 56 54
f 44 54 50
f 44 48 45
f 40 39 38
f 42 44 43
f 42 61 60
f 42 64 61
f 42 67 64
f 42 60 44
f 41 40 38
f 41 67 42
f 41 38 67
