# SimpleCAD BREP tessellation for MuJoCo
v 3.16188235075 1.25 -3.25
v 7.34519526737 1.25 -3.25
v 2.90891659364 1.76017165391 -3.25
v 2.57435351401 2.22096915442 -3.25
v 2.16757786066 2.61946678123 -3.25
v 1.7 2.94448637287 -3.25
v 1.18473584658 3.18691088263 -3.25
v 0.636238951748 3.33994011867 -3.25
v 0.0698950704902 3.39928149454 -3.25
v -0.498409420646 3.36327043953 -3.25
v -2.59006587895 6.9861256973 -3.25
v -4.75512938841 5.7361256973 -3.25
v -5.45217378656 5.64642996087 -3.25
v -6.15429621383 5.67709452072 -3.25
v -6.84086670868 5.827218382 -3.25
v -7.49171226084 6.09239056257 -3.25
v -8.08770954053 6.46481969773 -3.25
v -8.61134678557 6.93356296832 -3.25
v -9.04723833696 7.48484762578 -3.25
v -9.38257670471 8.10247566694 -3.25
v -9.60750888118 8.76829976841 -3.25
v -9.71542584498 9.4627564964 -3.25
v -9.70315674906 10.1654411251 -3.25
v -9.5710620875 10.8557071742 -3.25
v -9.32302310335 11.5132730495 -3.25
v -8.96632774885 12.118817963 -3.25
v -8.5114565487 12.654549621 -3.25
v -7.97177465835 13.1047270031 -3.25
v -7.36313916515 13.4561228689 -3.25
v -6.70343317088 13.6984124049 -3.25
v -6.01204034535 13.8244765906 -3.25
v -5.30927538993 13.8306113723 -3.25
v -4.61578714512 13.7166364961 -3.25
v -3.95195188047 13.4859008041 -3.25
v -3.33727459322 13.1451838385 -3.25
v -2.78981590685 12.7044966424 -3.25
v -2.32566140876 12.1767876127 -3.25
v -1.9584490189 11.5775620468 -3.25
v -1.69896827652 10.9244265613 -3.25
v -1.55484331885 10.2365717694 -3.25
v -1.53030886654 9.53420841702 -3.25
v -1.62608579788 8.83797354462 -3.25
v -1.83935996771 8.16832412396 -3.25
v -2.16386489352 7.54493598544 -3.25
v -2.66347293011 2.11327043953 -3.25
v -2.97881166413 1.63910984063 -3.25
v -3.21059246576 1.11897096424 -3.25
v -3.35231370725 0.567444101398 -3.25
v -3.4 -5.62323334225e-15 -3.25
v -3.35231370725 -0.567444101398 -3.25
v -3.21059246576 -1.11897096424 -3.25
v -2.97881166413 -1.63910984063 -3.25
v -2.66347293011 -2.11327043953 -3.25
v -4.75512938841 -5.7361256973 -3.25
v -2.59006587895 -6.9861256973 -3.25
v -2.16386489352 -7.54493598544 -3.25
v -1.83935996771 -8.16832412396 -3.25
v -1.62608579788 -8.83797354462 -3.25
v -1.53030886654 -9.53420841702 -3.25
v -1.55484331885 -10.2365717694 -3.25
v -1.69896827652 -10.9244265613 -3.25
v -1.9584490189 -11.5775620468 -3.25
v -2.32566140876 -12.1767876127 -3.25
v -2.78981590685 -12.7044966424 -3.25
v -3.33727459322 -13.1451838385 -3.25
v -3.95195188047 -13.4859008041 -3.25
v -4.61578714512 -13.7166364961 -3.25
v -5.30927538993 -13.8306113723 -3.25
v -6.01204034535 -13.8244765906 -3.25
v -6.70343317088 -13.6984124049 -3.25
v -7.36313916515 -13.4561228689 -3.25
v -7.97177465835 -13.1047270031 -3.25
v -8.5114565487 -12.654549621 -3.25
v -8.96632774885 -12.118817963 -3.25
v -9.32302310335 -11.5132730495 -3.25
v -9.5710620875 -10.8557071742 -3.25
v -9.70315674906 -10.1654411251 -3.25
v -9.71542584498 -9.4627564964 -3.25
v -9.60750888118 -8.76829976841 -3.25
v -9.38257670471 -8.10247566694 -3.25
v -9.04723833696 -7.48484762578 -3.25
v -8.61134678557 -6.93356296832 -3.25
v -8.08770954053 -6.46481969773 -3.25
v -7.49171226084 -6.09239056257 -3.25
v -6.84086670868 -5.827218382 -3.25
v -6.15429621383 -5.67709452072 -3.25
v -5.45217378656 -5.64642996087 -3.25
v -0.498409420646 -3.36327043953 -3.25
v 0.0698950704902 -3.39928149454 -3.25
v 0.636238951748 -3.33994011867 -3.25
v 1.18473584658 -3.18691088263 -3.25
v 1.7 -2.94448637287 -3.25
v 2.16757786066 -2.61946678123 -3.25
v 2.57435351401 -2.22096915442 -3.25
v 2.90891659364 -1.76017165391 -3.25
v 3.16188235075 -1.25 -3.25
v 7.34519526737 -1.25 -3.25
v 7.61603868008 1.89850602457 -3.25
v 7.99365618155 2.49122960323 -3.25
v 8.46695250655 3.01075516262 -3.25
v 9.02202112738 3.44181785444 -3.25
v 9.64255285939 3.77175207167 -3.25
v 10.3103150621 3.99086359294 -3.25
v 11.0056873559 4.09271442101 -3.25
v 11.7082381135 4.07431194576 -3.25
v 12.397324788 3.93619687398 -3.25
v 13.0527004382 3.68242734214 -3.25
v 13.6551086295 3.32045967904 -3.25
v 14.1868492326 2.86092932189 -3.25
v 14.6322984933 2.3173383228 -3.25
v 14.9783680942 1.70565862767 -3.25
v 15.2148897196 1.04386278389 -3.25
v 15.3349138235 0.351395865839 -3.25
v 15.3349138235 -0.351395865839 -3.25
v 15.2148897196 -1.04386278389 -3.25
v 14.9783680942 -1.70565862767 -3.25
v 14.6322984933 -2.3173383228 -3.25
v 14.1868492326 -2.86092932189 -3.25
v 13.6551086295 -3.32045967904 -3.25
v 13.0527004382 -3.68242734214 -3.25
v 12.397324788 -3.93619687398 -3.25
v 11.7082381135 -4.07431194576 -3.25
v 11.0056873559 -4.09271442101 -3.25
v 10.3103150621 -3.99086359294 -3.25
v 9.64255285939 -3.77175207167 -3.25
v 9.02202112738 -3.44181785444 -3.25
v 8.46695250655 -3.01075516262 -3.25
v 7.99365618155 -2.49122960323 -3.25
v 7.61603868008 -1.89850602457 -3.25
v 1.35 -3.3065463577e-16 -3.25
v 1.32949046657 0.23442503985 -3.25
v 1.26858503806 0.46172719349 -3.25
v 1.16913429511 0.675 -3.25
v 1.03415999821 0.867763273077 -3.25
v 0.867763273077 1.03415999821 -3.25
v 0.675 1.16913429511 -3.25
v 0.46172719349 1.26858503806 -3.25
v 0.23442503985 1.32949046657 -3.25
v -8.16616991004e-16 1.35 -3.25
v -0.23442503985 1.32949046657 -3.25
v -0.46172719349 1.26858503806 -3.25
v -0.675 1.16913429511 -3.25
v -0.867763273077 1.03415999821 -3.25
v -1.03415999821 0.867763273077 -3.25
v -1.16913429511 0.675 -3.25
v -1.26858503806 0.46172719349 -3.25
v -1.32949046657 0.23442503985 -3.25
v -1.35 -2.8322748486e-15 -3.25
v -1.32949046657 -0.23442503985 -3.25
v -1.26858503806 -0.46172719349 -3.25
v -1.16913429511 -0.675 -3.25
v -1.03415999821 -0.867763273077 -3.25
v -0.867763273077 -1.03415999821 -3.25
v -0.675 -1.16913429511 -3.25
v -0.46172719349 -1.26858503806 -3.25
v -0.23442503985 -1.32949046657 -3.25
v 3.34913162296e-15 -1.35 -3.25
v 0.23442503985 -1.32949046657 -3.25
v 0.46172719349 -1.26858503806 -3.25
v 0.675 -1.16913429511 -3.25
v 0.867763273077 -1.03415999821 -3.25
v 1.03415999821 -0.867763273077 -3.25
v 1.16913429511 -0.675 -3.25
v 1.26858503806 -0.46172719349 -3.25
v 1.32949046657 -0.23442503985 -3.25
v 12.35 -2.69422295812e-16 -3.25
v 12.3332885283 0.191012995434 -3.25
v 12.2836618829 0.376222157658 -3.25
v 12.2026279442 0.55 -3.25
v 12.0926488874 0.707066370655 -3.25
v 11.9570663707 0.842648887431 -3.25
v 11.8 0.952627944163 -3.25
v 11.6262221577 1.03366188286 -3.25
v 11.4410129954 1.08328852831 -3.25
v 11.25 1.1 -3.25
v 11.0589870046 1.08328852831 -3.25
v 10.8737778423 1.03366188286 -3.25
v 10.7 0.952627944163 -3.25
v 10.5429336293 0.842648887431 -3.25
v 10.4073511126 0.707066370655 -3.25
v 10.2973720558 0.55 -3.25
v 10.2163381171 0.376222157658 -3.25
v 10.1667114717 0.191012995434 -3.25
v 10.15 -2.30777950627e-15 -3.25
v 10.1667114717 -0.191012995434 -3.25
v 10.2163381171 -0.376222157658 -3.25
v 10.2973720558 -0.55 -3.25
v 10.4073511126 -0.707066370655 -3.25
v 10.5429336293 -0.842648887431 -3.25
v 10.7 -0.952627944163 -3.25
v 10.8737778423 -1.03366188286 -3.25
v 11.0589870046 -1.08328852831 -3.25
v 11.25 -1.1 -3.25
v 11.4410129954 -1.08328852831 -3.25
v 11.6262221577 -1.03366188286 -3.25
v 11.8 -0.952627944163 -3.25
v 11.9570663707 -0.842648887431 -3.25
v 12.0926488874 -0.707066370655 -3.25
v 12.2026279442 -0.55 -3.25
v 12.2836618829 -0.376222157658 -3.25
v 12.3332885283 -0.191012995434 -3.25
v -4.525 9.74278579257 -3.25
v -4.54171147169 9.93379878801 -3.25
v -4.59133811714 10.1190079502 -3.25
v -4.67237205584 10.2927857926 -3.25
v -4.78235111257 10.4498521632 -3.25
v -4.91793362934 10.58543468 -3.25
v -5.075 10.6954137367 -3.25
v -5.24877784234 10.7764476754 -3.25
v -5.43398700457 10.8260743209 -3.25
v -5.625 10.8427857926 -3.25
v -5.81601299543 10.8260743209 -3.25
v -6.00122215766 10.7764476754 -3.25
v -6.175 10.6954137367 -3.25
v -6.33206637066 10.58543468 -3.25
v -6.46764888743 10.4498521632 -3.25
v -6.57762794416 10.2927857926 -3.25
v -6.65866188286 10.1190079502 -3.25
v -6.70828852831 9.93379878801 -3.25
v -6.725 9.74278579257 -3.25
v -6.70828852831 9.55177279714 -3.25
v -6.65866188286 9.36656363492 -3.25
v -6.57762794416 9.19278579257 -3.25
v -6.46764888743 9.03571942192 -3.25
v -6.33206637066 8.90013690514 -3.25
v -6.175 8.79015784841 -3.25
v -6.00122215766 8.70912390971 -3.25
v -5.81601299543 8.65949726426 -3.25
v -5.625 8.64278579257 -3.25
v -5.43398700457 8.65949726426 -3.25
v -5.24877784234 8.70912390971 -3.25
v -5.075 8.79015784841 -3.25
v -4.91793362934 8.90013690514 -3.25
v -4.78235111257 9.03571942192 -3.25
v -4.67237205584 9.19278579257 -3.25
v -4.59133811714 9.36656363492 -3.25
v -4.54171147169 9.55177279714 -3.25
v -4.525 -9.74278579257 -3.25
v -4.54171147169 -9.55177279714 -3.25
v -4.59133811714 -9.36656363492 -3.25
v -4.67237205584 -9.19278579257 -3.25
v -4.78235111257 -9.03571942192 -3.25
v -4.91793362934 -8.90013690514 -3.25
v -5.075 -8.79015784841 -3.25
v -5.24877784234 -8.70912390971 -3.25
v -5.43398700457 -8.65949726426 -3.25
v -5.625 -8.64278579257 -3.25
v -5.81601299543 -8.65949726426 -3.25
v -6.00122215766 -8.70912390971 -3.25
v -6.175 -8.79015784841 -3.25
v -6.33206637066 -8.90013690514 -3.25
v -6.46764888743 -9.03571942192 -3.25
v -6.57762794416 -9.19278579257 -3.25
v -6.65866188286 -9.36656363492 -3.25
v -6.70828852831 -9.55177279714 -3.25
v -6.725 -9.74278579257 -3.25
v -6.70828852831 -9.93379878801 -3.25
v -6.65866188286 -10.1190079502 -3.25
v -6.57762794416 -10.2927857926 -3.25
v -6.46764888743 -10.4498521632 -3.25
v -6.33206637066 -10.58543468 -3.25
v -6.175 -10.6954137367 -3.25
v -6.00122215766 -10.7764476754 -3.25
v -5.81601299543 -10.8260743209 -3.25
v -5.625 -10.8427857926 -3.25
v -5.43398700457 -10.8260743209 -3.25
v -5.24877784234 -10.7764476754 -3.25
v -5.075 -10.6954137367 -3.25
v -4.91793362934 -10.58543468 -3.25
v -4.78235111257 -10.4498521632 -3.25
v -4.67237205584 -10.2927857926 -3.25
v -4.59133811714 -10.1190079502 -3.25
v -4.54171147169 -9.93379878801 -3.25
v -4.525 -9.74278579257 -3.8
v -4.54171147169 -9.55177279714 -3.8
v -4.59133811714 -9.36656363492 -3.8
v -4.67237205584 -9.19278579257 -3.8
v -4.78235111257 -9.03571942192 -3.8
v -4.91793362934 -8.90013690514 -3.8
v -5.075 -8.79015784841 -3.8
v -5.24877784234 -8.70912390971 -3.8
v -5.43398700457 -8.65949726426 -3.8
v -5.625 -8.64278579257 -3.8
v -5.81601299543 -8.65949726426 -3.8
v -6.00122215766 -8.70912390971 -3.8
v -6.175 -8.79015784841 -3.8
v -6.33206637066 -8.90013690514 -3.8
v -6.46764888743 -9.03571942192 -3.8
v -6.57762794416 -9.19278579257 -3.8
v -6.65866188286 -9.36656363492 -3.8
v -6.70828852831 -9.55177279714 -3.8
v -6.725 -9.74278579257 -3.8
v -6.70828852831 -9.93379878801 -3.8
v -6.65866188286 -10.1190079502 -3.8
v -6.57762794416 -10.2927857926 -3.8
v -6.46764888743 -10.4498521632 -3.8
v -6.33206637066 -10.58543468 -3.8
v -6.175 -10.6954137367 -3.8
v -6.00122215766 -10.7764476754 -3.8
v -5.81601299543 -10.8260743209 -3.8
v -5.625 -10.8427857926 -3.8
v -5.43398700457 -10.8260743209 -3.8
v -5.24877784234 -10.7764476754 -3.8
v -5.075 -10.6954137367 -3.8
v -4.91793362934 -10.58543468 -3.8
v -4.78235111257 -10.4498521632 -3.8
v -4.67237205584 -10.2927857926 -3.8
v -4.59133811714 -10.1190079502 -3.8
v -4.54171147169 -9.93379878801 -3.8
v -4.445 -9.74278579257 -3.8
v -4.46292685145 -9.53788094293 -3.8
v -4.51616270747 -9.33920202345 -3.8
v -4.60309002353 -9.15278579257 -3.8
v -4.72106755712 -8.98429641314 -3.8
v -4.86651062057 -8.83885334969 -3.8
v -5.035 -8.72087581611 -3.8
v -5.22141623088 -8.63394850005 -3.8
v -5.42009515035 -8.58071264402 -3.8
v -5.625 -8.56278579257 -3.8
v -5.82990484965 -8.58071264402 -3.8
v -6.02858376912 -8.63394850005 -3.8
v -6.215 -8.72087581611 -3.8
v -6.38348937943 -8.83885334969 -3.8
v -6.52893244288 -8.98429641314 -3.8
v -6.64690997647 -9.15278579257 -3.8
v -6.73383729253 -9.33920202345 -3.8
v -6.78707314855 -9.53788094293 -3.8
v -6.805 -9.74278579257 -3.8
v -6.78707314855 -9.94769064222 -3.8
v -6.73383729253 -10.1463695617 -3.8
v -6.64690997647 -10.3327857926 -3.8
v -6.52893244288 -10.501275172 -3.8
v -6.38348937943 -10.6467182355 -3.8
v -6.215 -10.764695769 -3.8
v -6.02858376912 -10.8516230851 -3.8
v -5.82990484965 -10.9048589411 -3.8
v -5.625 -10.9227857926 -3.8
v -5.42009515035 -10.9048589411 -3.8
v -5.22141623088 -10.8516230851 -3.8
v -5.035 -10.764695769 -3.8
v -4.86651062057 -10.6467182355 -3.8
v -4.72106755712 -10.501275172 -3.8
v -4.60309002353 -10.3327857926 -3.8
v -4.51616270747 -10.1463695617 -3.8
v -4.46292685145 -9.94769064222 -3.8
v -4.445 -9.74278579257 -8.15
v -4.46292685145 -9.53788094293 -8.15
v -4.51616270747 -9.33920202345 -8.15
v -4.60309002353 -9.15278579257 -8.15
v -4.72106755712 -8.98429641314 -8.15
v -4.86651062057 -8.83885334969 -8.15
v -5.035 -8.72087581611 -8.15
v -5.22141623088 -8.63394850005 -8.15
v -5.42009515035 -8.58071264402 -8.15
v -5.625 -8.56278579257 -8.15
v -5.82990484965 -8.58071264402 -8.15
v -6.02858376912 -8.63394850005 -8.15
v -6.215 -8.72087581611 -8.15
v -6.38348937943 -8.83885334969 -8.15
v -6.52893244288 -8.98429641314 -8.15
v -6.64690997647 -9.15278579257 -8.15
v -6.73383729253 -9.33920202345 -8.15
v -6.78707314855 -9.53788094293 -8.15
v -6.805 -9.74278579257 -8.15
v -6.78707314855 -9.94769064222 -8.15
v -6.73383729253 -10.1463695617 -8.15
v -6.64690997647 -10.3327857926 -8.15
v -6.52893244288 -10.501275172 -8.15
v -6.38348937943 -10.6467182355 -8.15
v -6.215 -10.764695769 -8.15
v -6.02858376912 -10.8516230851 -8.15
v -5.82990484965 -10.9048589411 -8.15
v -5.625 -10.9227857926 -8.15
v -5.42009515035 -10.9048589411 -8.15
v -5.22141623088 -10.8516230851 -8.15
v -5.035 -10.764695769 -8.15
v -4.86651062057 -10.6467182355 -8.15
v -4.72106755712 -10.501275172 -8.15
v -4.60309002353 -10.3327857926 -8.15
v -4.51616270747 -10.1463695617 -8.15
v -4.46292685145 -9.94769064222 -8.15
v -4.525 9.74278579257 -3.8
v -4.54171147169 9.93379878801 -3.8
v -4.59133811714 10.1190079502 -3.8
v -4.67237205584 10.2927857926 -3.8
v -4.78235111257 10.4498521632 -3.8
v -4.91793362934 10.58543468 -3.8
v -5.075 10.6954137367 -3.8
v -5.24877784234 10.7764476754 -3.8
v -5.43398700457 10.8260743209 -3.8
v -5.625 10.8427857926 -3.8
v -5.81601299543 10.8260743209 -3.8
v -6.00122215766 10.7764476754 -3.8
v -6.175 10.6954137367 -3.8
v -6.33206637066 10.58543468 -3.8
v -6.46764888743 10.4498521632 -3.8
v -6.57762794416 10.2927857926 -3.8
v -6.65866188286 10.1190079502 -3.8
v -6.70828852831 9.93379878801 -3.8
v -6.725 9.74278579257 -3.8
v -6.70828852831 9.55177279714 -3.8
v -6.65866188286 9.36656363492 -3.8
v -6.57762794416 9.19278579257 -3.8
v -6.46764888743 9.03571942192 -3.8
v -6.33206637066 8.90013690514 -3.8
v -6.175 8.79015784841 -3.8
v -6.00122215766 8.70912390971 -3.8
v -5.81601299543 8.65949726426 -3.8
v -5.625 8.64278579257 -3.8
v -5.43398700457 8.65949726426 -3.8
v -5.24877784234 8.70912390971 -3.8
v -5.075 8.79015784841 -3.8
v -4.91793362934 8.90013690514 -3.8
v -4.78235111257 9.03571942192 -3.8
v -4.67237205584 9.19278579257 -3.8
v -4.59133811714 9.36656363492 -3.8
v -4.54171147169 9.55177279714 -3.8
v -4.445 9.74278579257 -3.8
v -4.46292685145 9.94769064222 -3.8
v -4.51616270747 10.1463695617 -3.8
v -4.60309002353 10.3327857926 -3.8
v -4.72106755712 10.501275172 -3.8
v -4.86651062057 10.6467182355 -3.8
v -5.035 10.764695769 -3.8
v -5.22141623088 10.8516230851 -3.8
v -5.42009515035 10.9048589411 -3.8
v -5.625 10.9227857926 -3.8
v -5.82990484965 10.9048589411 -3.8
v -6.02858376912 10.8516230851 -3.8
v -6.215 10.764695769 -3.8
v -6.38348937943 10.6467182355 -3.8
v -6.52893244288 10.501275172 -3.8
v -6.64690997647 10.3327857926 -3.8
v -6.73383729253 10.1463695617 -3.8
v -6.78707314855 9.94769064222 -3.8
v -6.805 9.74278579257 -3.8
v -6.78707314855 9.53788094293 -3.8
v -6.73383729253 9.33920202345 -3.8
v -6.64690997647 9.15278579257 -3.8
v -6.52893244288 8.98429641314 -3.8
v -6.38348937943 8.83885334969 -3.8
v -6.215 8.72087581611 -3.8
v -6.02858376912 8.63394850005 -3.8
v -5.82990484965 8.58071264402 -3.8
v -5.625 8.56278579257 -3.8
v -5.42009515035 8.58071264402 -3.8
v -5.22141623088 8.63394850005 -3.8
v -5.035 8.72087581611 -3.8
v -4.86651062057 8.83885334969 -3.8
v -4.72106755712 8.98429641314 -3.8
v -4.60309002353 9.15278579257 -3.8
v -4.51616270747 9.33920202345 -3.8
v -4.46292685145 9.53788094293 -3.8
v -4.445 9.74278579257 -8.15
v -4.46292685145 9.94769064222 -8.15
v -4.51616270747 10.1463695617 -8.15
v -4.60309002353 10.3327857926 -8.15
v -4.72106755712 10.501275172 -8.15
v -4.86651062057 10.6467182355 -8.15
v -5.035 10.764695769 -8.15
v -5.22141623088 10.8516230851 -8.15
v -5.42009515035 10.9048589411 -8.15
v -5.625 10.9227857926 -8.15
v -5.82990484965 10.9048589411 -8.15
v -6.02858376912 10.8516230851 -8.15
v -6.215 10.764695769 -8.15
v -6.38348937943 10.6467182355 -8.15
v -6.52893244288 10.501275172 -8.15
v -6.64690997647 10.3327857926 -8.15
v -6.73383729253 10.1463695617 -8.15
v -6.78707314855 9.94769064222 -8.15
v -6.805 9.74278579257 -8.15
v -6.78707314855 9.53788094293 -8.15
v -6.73383729253 9.33920202345 -8.15
v -6.64690997647 9.15278579257 -8.15
v -6.52893244288 8.98429641314 -8.15
v -6.38348937943 8.83885334969 -8.15
v -6.215 8.72087581611 -8.15
v -6.02858376912 8.63394850005 -8.15
v -5.82990484965 8.58071264402 -8.15
v -5.625 8.56278579257 -8.15
v -5.42009515035 8.58071264402 -8.15
v -5.22141623088 8.63394850005 -8.15
v -5.035 8.72087581611 -8.15
v -4.86651062057 8.83885334969 -8.15
v -4.72106755712 8.98429641314 -8.15
v -4.60309002353 9.15278579257 -8.15
v -4.51616270747 9.33920202345 -8.15
v -4.46292685145 9.53788094293 -8.15
v 12.35 -2.69422295812e-16 -3.8
v 12.3332885283 0.191012995434 -3.8
v 12.2836618829 0.376222157658 -3.8
v 12.2026279442 0.55 -3.8
v 12.0926488874 0.707066370655 -3.8
v 11.9570663707 0.842648887431 -3.8
v 11.8 0.952627944163 -3.8
v 11.6262221577 1.03366188286 -3.8
v 11.4410129954 1.08328852831 -3.8
v 11.25 1.1 -3.8
v 11.0589870046 1.08328852831 -3.8
v 10.8737778423 1.03366188286 -3.8
v 10.7 0.952627944163 -3.8
v 10.5429336293 0.842648887431 -3.8
v 10.4073511126 0.707066370655 -3.8
v 10.2973720558 0.55 -3.8
v 10.2163381171 0.376222157658 -3.8
v 10.1667114717 0.191012995434 -3.8
v 10.15 -2.30777950627e-15 -3.8
v 10.1667114717 -0.191012995434 -3.8
v 10.2163381171 -0.376222157658 -3.8
v 10.2973720558 -0.55 -3.8
v 10.4073511126 -0.707066370655 -3.8
v 10.5429336293 -0.842648887431 -3.8
v 10.7 -0.952627944163 -3.8
v 10.8737778423 -1.03366188286 -3.8
v 11.0589870046 -1.08328852831 -3.8
v 11.25 -1.1 -3.8
v 11.4410129954 -1.08328852831 -3.8
v 11.6262221577 -1.03366188286 -3.8
v 11.8 -0.952627944163 -3.8
v 11.9570663707 -0.842648887431 -3.8
v 12.0926488874 -0.707066370655 -3.8
v 12.2026279442 -0.55 -3.8
v 12.2836618829 -0.376222157658 -3.8
v 12.3332885283 -0.191012995434 -3.8
v 12.43 -2.89016644599e-16 -3.8
v 12.4120731486 0.204904849647 -3.8
v 12.3588372925 0.403583769124 -3.8
v 12.2719099765 0.59 -3.8
v 12.1539324429 0.75848937943 -3.8
v 12.0084893794 0.90393244288 -3.8
v 11.84 1.02190997647 -3.8
v 11.6535837691 1.10883729253 -3.8
v 11.4549048496 1.16207314855 -3.8
v 11.25 1.18 -3.8
v 11.0450951504 1.16207314855 -3.8
v 10.8464162309 1.10883729253 -3.8
v 10.66 1.02190997647 -3.8
v 10.4915106206 0.90393244288 -3.8
v 10.3460675571 0.75848937943 -3.8
v 10.2280900235 0.59 -3.8
v 10.1411627075 0.403583769124 -3.8
v 10.0879268514 0.204904849647 -3.8
v 10.07 -2.47561801582e-15 -3.8
v 10.0879268514 -0.204904849647 -3.8
v 10.1411627075 -0.403583769124 -3.8
v 10.2280900235 -0.59 -3.8
v 10.3460675571 -0.75848937943 -3.8
v 10.4915106206 -0.90393244288 -3.8
v 10.66 -1.02190997647 -3.8
v 10.8464162309 -1.10883729253 -3.8
v 11.0450951504 -1.16207314855 -3.8
v 11.25 -1.18 -3.8
v 11.4549048496 -1.16207314855 -3.8
v 11.6535837691 -1.10883729253 -3.8
v 11.84 -1.02190997647 -3.8
v 12.0084893794 -0.90393244288 -3.8
v 12.1539324429 -0.75848937943 -3.8
v 12.2719099765 -0.59 -3.8
v 12.3588372925 -0.403583769124 -3.8
v 12.4120731486 -0.204904849647 -3.8
v 12.43 -2.89016644599e-16 -8.15
v 12.4120731486 0.204904849647 -8.15
v 12.3588372925 0.403583769124 -8.15
v 12.2719099765 0.59 -8.15
v 12.1539324429 0.75848937943 -8.15
v 12.0084893794 0.90393244288 -8.15
v 11.84 1.02190997647 -8.15
v 11.6535837691 1.10883729253 -8.15
v 11.4549048496 1.16207314855 -8.15
v 11.25 1.18 -8.15
v 11.0450951504 1.16207314855 -8.15
v 10.8464162309 1.10883729253 -8.15
v 10.66 1.02190997647 -8.15
v 10.4915106206 0.90393244288 -8.15
v 10.3460675571 0.75848937943 -8.15
v 10.2280900235 0.59 -8.15
v 10.1411627075 0.403583769124 -8.15
v 10.0879268514 0.204904849647 -8.15
v 10.07 -2.47561801582e-15 -8.15
v 10.0879268514 -0.204904849647 -8.15
v 10.1411627075 -0.403583769124 -8.15
v 10.2280900235 -0.59 -8.15
v 10.3460675571 -0.75848937943 -8.15
v 10.4915106206 -0.90393244288 -8.15
v 10.66 -1.02190997647 -8.15
v 10.8464162309 -1.10883729253 -8.15
v 11.0450951504 -1.16207314855 -8.15
v 11.25 -1.18 -8.15
v 11.4549048496 -1.16207314855 -8.15
v 11.6535837691 -1.10883729253 -8.15
v 11.84 -1.02190997647 -8.15
v 12.0084893794 -0.90393244288 -8.15
v 12.1539324429 -0.75848937943 -8.15
v 12.2719099765 -0.59 -8.15
v 12.3588372925 -0.403583769124 -8.15
v 12.4120731486 -0.204904849647 -8.15
v 1.35 -3.3065463577e-16 -3.3
v 1.32949046657 0.23442503985 -3.3
v 1.26858503806 0.46172719349 -3.3
v 1.16913429511 0.675 -3.3
v 1.03415999821 0.867763273077 -3.3
v 0.867763273077 1.03415999821 -3.3
v 0.675 1.16913429511 -3.3
v 0.46172719349 1.26858503806 -3.3
v 0.23442503985 1.32949046657 -3.3
v -8.16616991004e-16 1.35 -3.3
v -0.23442503985 1.32949046657 -3.3
v -0.46172719349 1.26858503806 -3.3
v -0.675 1.16913429511 -3.3
v -0.867763273077 1.03415999821 -3.3
v -1.03415999821 0.867763273077 -3.3
v -1.16913429511 0.675 -3.3
v -1.26858503806 0.46172719349 -3.3
v -1.32949046657 0.23442503985 -3.3
v -1.35 -2.8322748486e-15 -3.3
v -1.32949046657 -0.23442503985 -3.3
v -1.26858503806 -0.46172719349 -3.3
v -1.16913429511 -0.675 -3.3
v -1.03415999821 -0.867763273077 -3.3
v -0.867763273077 -1.03415999821 -3.3
v -0.675 -1.16913429511 -3.3
v -0.46172719349 -1.26858503806 -3.3
v -0.23442503985 -1.32949046657 -3.3
v 3.34913162296e-15 -1.35 -3.3
v 0.23442503985 -1.32949046657 -3.3
v 0.46172719349 -1.26858503806 -3.3
v 0.675 -1.16913429511 -3.3
v 0.867763273077 -1.03415999821 -3.3
v 1.03415999821 -0.867763273077 -3.3
v 1.16913429511 -0.675 -3.3
v 1.26858503806 -0.46172719349 -3.3
v 1.32949046657 -0.23442503985 -3.3
v 7.34519526737 1.25 -1.6
v 7.61603868008 1.89850602457 -1.6
v 7.99365618155 2.49122960323 -1.6
v 8.46695250655 3.01075516262 -1.6
v 9.02202112738 3.44181785444 -1.6
v 9.64255285939 3.77175207167 -1.6
v 10.3103150621 3.99086359294 -1.6
v 11.0056873559 4.09271442101 -1.6
v 11.7082381135 4.07431194576 -1.6
v 12.397324788 3.93619687398 -1.6
v 13.0527004382 3.68242734214 -1.6
v 13.6551086295 3.32045967904 -1.6
v 14.1868492326 2.86092932189 -1.6
v 14.6322984933 2.3173383228 -1.6
v 14.9783680942 1.70565862767 -1.6
v 15.2148897196 1.04386278389 -1.6
v 15.3349138235 0.351395865839 -1.6
v 15.3349138235 -0.351395865839 -1.6
v 15.2148897196 -1.04386278389 -1.6
v 14.9783680942 -1.70565862767 -1.6
v 14.6322984933 -2.3173383228 -1.6
v 14.1868492326 -2.86092932189 -1.6
v 13.6551086295 -3.32045967904 -1.6
v 13.0527004382 -3.68242734214 -1.6
v 12.397324788 -3.93619687398 -1.6
v 11.7082381135 -4.07431194576 -1.6
v 11.0056873559 -4.09271442101 -1.6
v 10.3103150621 -3.99086359294 -1.6
v 9.64255285939 -3.77175207167 -1.6
v 9.02202112738 -3.44181785444 -1.6
v 8.46695250655 -3.01075516262 -1.6
v 7.99365618155 -2.49122960323 -1.6
v 7.61603868008 -1.89850602457 -1.6
v 7.34519526737 -1.25 -1.6
v 3.16188235075 1.25 -1.6
v 2.90891659364 1.76017165391 -1.6
v 2.57435351401 2.22096915442 -1.6
v 2.16757786066 2.61946678123 -1.6
v 1.7 2.94448637287 -1.6
v 1.18473584658 3.18691088263 -1.6
v 0.636238951748 3.33994011867 -1.6
v 0.0698950704902 3.39928149454 -1.6
v -0.498409420646 3.36327043953 -1.6
v -2.59006587895 6.9861256973 -1.6
v -2.16386489352 7.54493598544 -1.6
v -1.83935996771 8.16832412396 -1.6
v -1.62608579788 8.83797354462 -1.6
v -1.53030886654 9.53420841702 -1.6
v -1.55484331885 10.2365717694 -1.6
v -1.69896827652 10.9244265613 -1.6
v -1.9584490189 11.5775620468 -1.6
v -2.32566140876 12.1767876127 -1.6
v -2.78981590685 12.7044966424 -1.6
v -3.33727459322 13.1451838385 -1.6
v -3.95195188047 13.4859008041 -1.6
v -4.61578714512 13.7166364961 -1.6
v -5.30927538993 13.8306113723 -1.6
v -6.01204034535 13.8244765906 -1.6
v -6.70343317088 13.6984124049 -1.6
v -7.36313916515 13.4561228689 -1.6
v -7.97177465835 13.1047270031 -1.6
v -8.5114565487 12.654549621 -1.6
v -8.96632774885 12.118817963 -1.6
v -9.32302310335 11.5132730495 -1.6
v -9.5710620875 10.8557071742 -1.6
v -9.70315674906 10.1654411251 -1.6
v -9.71542584498 9.4627564964 -1.6
v -9.60750888118 8.76829976841 -1.6
v -9.38257670471 8.10247566694 -1.6
v -9.04723833696 7.48484762578 -1.6
v -8.61134678557 6.93356296832 -1.6
v -8.08770954053 6.46481969773 -1.6
v -7.49171226084 6.09239056257 -1.6
v -6.84086670868 5.827218382 -1.6
v -6.15429621383 5.67709452072 -1.6
v -5.45217378656 5.64642996087 -1.6
v -4.75512938841 5.7361256973 -1.6
v -2.66347293011 2.11327043953 -1.6
v -2.97881166413 1.63910984063 -1.6
v -3.21059246576 1.11897096424 -1.6
v -3.35231370725 0.567444101398 -1.6
v -3.4 -5.62323334225e-15 -1.6
v -3.35231370725 -0.567444101398 -1.6
v -3.21059246576 -1.11897096424 -1.6
v -2.97881166413 -1.63910984063 -1.6
v -2.66347293011 -2.11327043953 -1.6
v -4.75512938841 -5.7361256973 -1.6
v -5.45217378656 -5.64642996087 -1.6
v -6.15429621383 -5.67709452072 -1.6
v -6.84086670868 -5.827218382 -1.6
v -7.49171226084 -6.09239056257 -1.6
v -8.08770954053 -6.46481969773 -1.6
v -8.61134678557 -6.93356296832 -1.6
v -9.04723833696 -7.48484762578 -1.6
v -9.38257670471 -8.10247566694 -1.6
v -9.60750888118 -8.76829976841 -1.6
v -9.71542584498 -9.4627564964 -1.6
v -9.70315674906 -10.1654411251 -1.6
v -9.5710620875 -10.8557071742 -1.6
v -9.32302310335 -11.5132730495 -1.6
v -8.96632774885 -12.118817963 -1.6
v -8.5114565487 -12.654549621 -1.6
v -7.97177465835 -13.1047270031 -1.6
v -7.36313916515 -13.4561228689 -1.6
v -6.70343317088 -13.6984124049 -1.6
v -6.01204034535 -13.8244765906 -1.6
v -5.30927538993 -13.8306113723 -1.6
v -4.61578714512 -13.7166364961 -1.6
v -3.95195188047 -13.4859008041 -1.6
v -3.33727459322 -13.1451838385 -1.6
v -2.78981590685 -12.7044966424 -1.6
v -2.32566140876 -12.1767876127 -1.6
v -1.9584490189 -11.5775620468 -1.6
v -1.69896827652 -10.9244265613 -1.6
v -1.55484331885 -10.2365717694 -1.6
v -1.53030886654 -9.53420841702 -1.6
v -1.62608579788 -8.83797354462 -1.6
v -1.83935996771 -8.16832412396 -1.6
v -2.16386489352 -7.54493598544 -1.6
v -2.59006587895 -6.9861256973 -1.6
v -0.498409420646 -3.36327043953 -1.6
v 0.0698950704902 -3.39928149454 -1.6
v 0.636238951748 -3.33994011867 -1.6
v 1.18473584658 -3.18691088263 -1.6
v 1.7 -2.94448637287 -1.6
v 2.16757786066 -2.61946678123 -1.6
v 2.57435351401 -2.22096915442 -1.6
v 2.90891659364 -1.76017165391 -1.6
v 3.16188235075 -1.25 -1.6
v 1.35 -3.3065463577e-16 -1.6
v 1.32949046657 0.23442503985 -1.6
v 1.26858503806 0.46172719349 -1.6
v 1.16913429511 0.675 -1.6
v 1.03415999821 0.867763273077 -1.6
v 0.867763273077 1.03415999821 -1.6
v 0.675 1.16913429511 -1.6
v 0.46172719349 1.26858503806 -1.6
v 0.23442503985 1.32949046657 -1.6
v -8.16616991004e-16 1.35 -1.6
v -0.23442503985 1.32949046657 -1.6
v -0.46172719349 1.26858503806 -1.6
v -0.675 1.16913429511 -1.6
v -0.867763273077 1.03415999821 -1.6
v -1.03415999821 0.867763273077 -1.6
v -1.16913429511 0.675 -1.6
v -1.26858503806 0.46172719349 -1.6
v -1.32949046657 0.23442503985 -1.6
v -1.35 -2.8322748486e-15 -1.6
v -1.32949046657 -0.23442503985 -1.6
v -1.26858503806 -0.46172719349 -1.6
v -1.16913429511 -0.675 -1.6
v -1.03415999821 -0.867763273077 -1.6
v -0.867763273077 -1.03415999821 -1.6
v -0.675 -1.16913429511 -1.6
v -0.46172719349 -1.26858503806 -1.6
v -0.23442503985 -1.32949046657 -1.6
v 3.34913162296e-15 -1.35 -1.6
v 0.23442503985 -1.32949046657 -1.6
v 0.46172719349 -1.26858503806 -1.6
v 0.675 -1.16913429511 -1.6
v 0.867763273077 -1.03415999821 -1.6
v 1.03415999821 -0.867763273077 -1.6
v 1.16913429511 -0.675 -1.6
v 1.26858503806 -0.46172719349 -1.6
v 1.32949046657 -0.23442503985 -1.6
v 1.35 -3.3065463577e-16 5.8
v 1.32949046657 0.23442503985 5.8
v 1.26858503806 0.46172719349 5.8
v 1.16913429511 0.675 5.8
v 1.03415999821 0.867763273077 5.8
v 0.867763273077 1.03415999821 5.8
v 0.675 1.16913429511 5.8
v 0.46172719349 1.26858503806 5.8
v 0.23442503985 1.32949046657 5.8
v -8.16616991004e-16 1.35 5.8
v -0.23442503985 1.32949046657 5.8
v -0.46172719349 1.26858503806 5.8
v -0.675 1.16913429511 5.8
v -0.867763273077 1.03415999821 5.8
v -1.03415999821 0.867763273077 5.8
v -1.16913429511 0.675 5.8
v -1.26858503806 0.46172719349 5.8
v -1.32949046657 0.23442503985 5.8
v -1.35 -2.8322748486e-15 5.8
v -1.32949046657 -0.23442503985 5.8
v -1.26858503806 -0.46172719349 5.8
v -1.16913429511 -0.675 5.8
v -1.03415999821 -0.867763273077 5.8
v -0.867763273077 -1.03415999821 5.8
v -0.675 -1.16913429511 5.8
v -0.46172719349 -1.26858503806 5.8
v -0.23442503985 -1.32949046657 5.8
v 3.34913162296e-15 -1.35 5.8
v 0.23442503985 -1.32949046657 5.8
v 0.46172719349 -1.26858503806 5.8
v 0.675 -1.16913429511 5.8
v 0.867763273077 -1.03415999821 5.8
v 1.03415999821 -0.867763273077 5.8
v 1.16913429511 -0.675 5.8
v 1.26858503806 -0.46172719349 5.8
v 1.32949046657 -0.23442503985 5.8
f 261 72 73
f 260 73 74
f 260 261 73
f 259 260 74
f 259 74 75
f 262 71 72
f 262 72 261
f 258 75 76
f 258 259 75
f 263 71 262
f 263 70 71
f 257 258 76
f 257 76 77
f 264 70 263
f 264 69 70
f 256 257 77
f 256 77 78
f 265 69 264
f 265 68 69
f 255 256 78
f 255 78 79
f 266 68 265
f 266 67 68
f 254 255 79
f 254 79 80
f 267 67 266
f 267 66 67
f 253 254 80
f 253 80 81
f 268 66 267
f 268 65 66
f 252 253 81
f 252 81 82
f 269 65 268
f 64 65 269
f 251 252 82
f 270 64 269
f 83 251 82
f 83 250 251
f 63 64 270
f 63 270 271
f 84 249 250
f 84 250 83
f 62 63 271
f 62 271 272
f 85 249 84
f 85 248 249
f 61 62 272
f 61 272 273
f 86 247 248
f 86 248 85
f 60 273 238
f 60 61 273
f 87 246 247
f 87 247 86
f 59 238 239
f 59 60 238
f 54 244 245
f 54 245 246
f 54 246 87
f 58 239 240
f 58 59 239
f 57 240 241
f 57 58 240
f 56 57 241
f 56 241 242
f 55 242 243
f 55 243 244
f 55 244 54
f 55 56 242
f 88 55 54
f 88 54 53
f 152 153 53
f 154 88 53
f 154 53 153
f 151 152 53
f 151 53 52
f 155 88 154
f 150 151 52
f 150 52 51
f 149 150 51
f 149 51 50
f 156 88 155
f 148 49 48
f 148 50 49
f 148 149 50
f 157 88 156
f 157 89 88
f 147 148 48
f 147 48 47
f 158 89 157
f 158 90 89
f 146 147 47
f 146 47 46
f 159 90 158
f 159 91 90
f 145 46 45
f 145 146 46
f 160 91 159
f 160 92 91
f 93 92 160
f 144 145 45
f 161 93 160
f 143 144 45
f 94 161 162
f 94 93 161
f 142 143 45
f 95 162 163
f 95 94 162
f 96 95 163
f 96 163 164
f 96 164 165
f 96 165 130
f 224 18 19
f 225 17 18
f 225 18 224
f 223 224 19
f 223 19 20
f 226 16 17
f 226 17 225
f 222 20 21
f 222 223 20
f 227 15 16
f 227 16 226
f 221 21 22
f 221 222 21
f 228 14 15
f 228 15 227
f 10 142 45
f 10 139 140
f 10 140 141
f 10 141 142
f 10 45 12
f 229 13 14
f 229 14 228
f 220 22 23
f 220 221 22
f 219 23 24
f 219 220 23
f 230 12 13
f 230 13 229
f 218 24 25
f 218 219 24
f 231 12 230
f 9 139 10
f 9 138 139
f 217 25 26
f 217 218 25
f 232 12 231
f 8 138 9
f 8 137 138
f 216 217 26
f 27 216 26
f 215 216 27
f 7 137 8
f 7 136 137
f 11 232 233
f 11 233 234
f 11 10 12
f 11 12 232
f 1 130 131
f 1 131 132
f 1 132 133
f 1 96 130
f 6 136 7
f 3 133 134
f 3 1 133
f 5 136 6
f 5 135 136
f 4 3 134
f 4 135 5
f 4 134 135
f 28 214 215
f 28 215 27
f 44 11 234
f 44 234 235
f 29 214 28
f 29 213 214
f 43 235 236
f 43 44 235
f 30 212 213
f 30 213 29
f 42 43 236
f 42 236 237
f 31 211 212
f 31 212 30
f 41 237 202
f 41 42 237
f 32 210 211
f 32 211 31
f 2 96 1
f 2 97 96
f 40 202 203
f 40 41 202
f 33 209 210
f 33 210 32
f 39 203 204
f 39 40 203
f 34 208 209
f 34 209 33
f 38 204 205
f 38 39 204
f 189 126 127
f 188 127 128
f 188 189 127
f 190 125 126
f 190 126 189
f 187 188 128
f 187 128 129
f 35 207 208
f 35 208 34
f 191 125 190
f 191 124 125
f 186 129 97
f 186 187 129
f 37 205 206
f 37 38 205
f 36 206 207
f 36 37 206
f 36 207 35
f 192 123 124
f 192 124 191
f 185 186 97
f 184 185 97
f 184 97 2
f 193 122 123
f 193 123 192
f 183 184 2
f 194 121 122
f 194 122 193
f 182 183 2
f 182 2 98
f 195 121 194
f 195 120 121
f 196 119 120
f 196 120 195
f 181 182 98
f 181 98 99
f 180 181 99
f 197 119 196
f 118 119 197
f 198 118 197
f 100 180 99
f 100 179 180
f 117 118 198
f 117 198 199
f 101 179 100
f 101 178 179
f 116 117 199
f 116 199 200
f 102 178 101
f 102 177 178
f 115 116 200
f 115 200 201
f 103 176 177
f 103 177 102
f 114 115 201
f 114 201 166
f 104 175 176
f 104 176 103
f 113 114 166
f 113 166 167
f 105 174 175
f 105 175 104
f 112 167 168
f 112 113 167
f 106 174 105
f 106 173 174
f 111 168 169
f 111 112 168
f 107 173 106
f 107 172 173
f 110 111 169
f 110 169 170
f 108 172 107
f 108 171 172
f 109 110 170
f 109 171 108
f 109 170 171
f 239 238 274
f 239 274 275
f 240 275 276
f 240 239 275
f 241 276 277
f 241 240 276
f 242 277 278
f 242 241 277
f 243 278 279
f 243 242 278
f 244 279 280
f 244 243 279
f 245 244 280
f 245 280 281
f 246 245 281
f 246 281 282
f 247 246 282
f 247 282 283
f 247 283 284
f 248 247 284
f 249 248 284
f 249 284 285
f 250 249 285
f 250 285 286
f 251 250 286
f 251 286 287
f 251 287 288
f 252 251 288
f 253 252 288
f 253 288 289
f 254 253 289
f 254 289 290
f 255 254 290
f 255 290 291
f 256 255 291
f 256 291 292
f 256 292 293
f 257 256 293
f 258 257 293
f 258 293 294
f 258 294 295
f 259 258 295
f 260 295 296
f 260 259 295
f 261 296 297
f 261 297 298
f 261 260 296
f 262 261 298
f 263 298 299
f 263 299 300
f 263 262 298
f 264 300 301
f 264 263 300
f 265 301 302
f 265 264 301
f 266 265 302
f 267 302 303
f 267 266 302
f 268 303 304
f 268 304 305
f 268 267 303
f 269 268 305
f 269 305 306
f 270 269 306
f 271 270 306
f 271 306 307
f 272 271 307
f 272 307 308
f 273 272 308
f 273 308 309
f 273 309 274
f 238 273 274
f 297 332 333
f 297 296 332
f 295 331 332
f 295 332 296
f 298 333 334
f 298 297 333
f 294 330 331
f 294 331 295
f 299 334 335
f 299 298 334
f 293 329 330
f 293 330 294
f 300 335 336
f 300 299 335
f 292 329 293
f 292 328 329
f 301 336 337
f 301 300 336
f 291 327 328
f 291 328 292
f 302 301 337
f 302 337 338
f 290 327 291
f 290 326 327
f 303 302 338
f 303 338 339
f 325 326 290
f 289 325 290
f 304 303 339
f 304 339 340
f 288 325 289
f 288 324 325
f 305 340 341
f 305 304 340
f 323 324 288
f 323 288 287
f 342 305 341
f 342 306 305
f 307 306 342
f 322 287 286
f 322 323 287
f 343 307 342
f 321 286 285
f 321 322 286
f 344 307 343
f 344 308 307
f 320 321 285
f 320 285 284
f 345 308 344
f 345 309 308
f 283 320 284
f 319 320 283
f 310 309 345
f 310 274 309
f 318 283 282
f 318 319 283
f 311 275 274
f 311 274 310
f 312 276 275
f 312 277 276
f 312 275 311
f 317 318 282
f 317 282 281
f 316 317 281
f 316 280 279
f 316 281 280
f 313 277 312
f 315 316 279
f 314 315 279
f 314 278 277
f 314 279 278
f 314 277 313
f 311 310 346
f 311 346 347
f 312 347 348
f 312 311 347
f 313 348 349
f 313 312 348
f 314 349 350
f 314 350 351
f 314 313 349
f 315 351 352
f 315 314 351
f 316 315 352
f 316 352 353
f 317 316 353
f 318 317 353
f 318 353 354
f 318 354 355
f 319 318 355
f 320 319 355
f 320 355 356
f 321 320 356
f 321 356 357
f 321 357 358
f 322 321 358
f 323 322 358
f 323 358 359
f 324 323 359
f 324 359 360
f 325 324 360
f 325 360 361
f 326 325 361
f 326 361 362
f 326 362 363
f 327 326 363
f 328 327 363
f 328 363 364
f 329 364 365
f 329 328 364
f 330 365 366
f 330 366 367
f 330 329 365
f 331 367 368
f 331 330 367
f 332 331 368
f 333 368 369
f 333 332 368
f 334 369 370
f 334 333 369
f 335 370 371
f 335 334 370
f 336 371 372
f 336 335 371
f 337 372 373
f 337 336 372
f 338 373 374
f 338 337 373
f 339 374 375
f 339 338 374
f 340 375 376
f 340 339 375
f 341 340 376
f 341 376 377
f 341 377 378
f 342 341 378
f 343 342 378
f 343 378 379
f 343 379 380
f 344 343 380
f 345 344 380
f 345 380 381
f 310 345 381
f 310 381 346
f 367 369 368
f 361 363 362
f 359 361 360
f 359 364 363
f 359 365 364
f 359 363 361
f 378 376 375
f 378 377 376
f 379 371 370
f 379 372 371
f 379 373 372
f 379 374 373
f 379 375 374
f 379 378 375
f 356 358 357
f 356 359 358
f 346 381 380
f 347 380 379
f 347 346 380
f 353 355 354
f 353 356 355
f 353 365 359
f 353 359 356
f 350 348 347
f 350 349 348
f 350 352 351
f 350 353 352
f 350 366 365
f 350 367 366
f 350 370 369
f 350 369 367
f 350 379 370
f 350 347 379
f 350 365 353
f 203 202 382
f 203 382 383
f 204 383 384
f 204 203 383
f 205 384 385
f 205 204 384
f 206 385 386
f 206 205 385
f 207 386 387
f 207 206 386
f 208 387 388
f 208 207 387
f 209 208 388
f 209 388 389
f 210 209 389
f 210 389 390
f 211 210 390
f 211 390 391
f 211 391 392
f 212 211 392
f 213 212 392
f 213 392 393
f 214 213 393
f 214 393 394
f 215 214 394
f 215 394 395
f 215 395 396
f 216 215 396
f 217 216 396
f 217 396 397
f 218 217 397
f 218 397 398
f 219 218 398
f 219 398 399
f 220 219 399
f 220 399 400
f 220 400 401
f 221 220 401
f 222 221 401
f 222 401 402
f 222 402 403
f 223 222 403
f 224 403 404
f 224 223 403
f 225 404 405
f 225 405 406
f 225 224 404
f 226 225 406
f 227 406 407
f 227 407 408
f 227 226 406
f 228 408 409
f 228 227 408
f 229 409 410
f 229 228 409
f 230 229 410
f 231 410 411
f 231 230 410
f 232 411 412
f 232 412 413
f 232 231 411
f 233 232 413
f 233 413 414
f 234 233 414
f 235 234 414
f 235 414 415
f 236 235 415
f 236 415 416
f 237 236 416
f 237 416 417
f 237 417 382
f 202 237 382
f 405 440 441
f 405 404 440
f 403 439 440
f 403 440 404
f 406 441 442
f 406 405 441
f 402 438 439
f 402 439 403
f 407 442 443
f 407 406 442
f 401 437 438
f 401 438 402
f 408 443 444
f 408 407 443
f 400 437 401
f 400 436 437
f 409 444 445
f 409 408 444
f 399 435 436
f 399 436 400
f 410 409 445
f 410 445 446
f 398 435 399
f 398 434 435
f 411 410 446
f 411 446 447
f 433 434 398
f 397 433 398
f 412 411 447
f 412 447 448
f 396 433 397
f 396 432 433
f 413 448 449
f 413 412 448
f 431 432 396
f 431 396 395
f 450 413 449
f 450 414 413
f 415 414 450
f 430 395 394
f 430 431 395
f 451 415 450
f 429 394 393
f 429 430 394
f 452 415 451
f 452 416 415
f 428 429 393
f 428 393 392
f 453 416 452
f 453 417 416
f 391 428 392
f 427 428 391
f 418 417 453
f 418 382 417
f 426 391 390
f 426 427 391
f 419 383 382
f 419 382 418
f 420 384 383
f 420 385 384
f 420 383 419
f 425 426 390
f 425 390 389
f 424 425 389
f 424 388 387
f 424 389 388
f 421 385 420
f 423 424 387
f 422 423 387
f 422 386 385
f 422 387 386
f 422 385 421
f 419 418 454
f 419 454 455
f 420 455 456
f 420 419 455
f 421 456 457
f 421 420 456
f 422 457 458
f 422 458 459
f 422 421 457
f 423 459 460
f 423 422 459
f 424 423 460
f 424 460 461
f 425 424 461
f 426 425 461
f 426 461 462
f 426 462 463
f 427 426 463
f 428 427 463
f 428 463 464
f 429 428 464
f 429 464 465
f 429 465 466
f 430 429 466
f 431 430 466
f 431 466 467
f 432 431 467
f 432 467 468
f 433 432 468
f 433 468 469
f 434 433 469
f 434 469 470
f 434 470 471
f 435 434 471
f 436 435 471
f 436 471 472
f 437 472 473
f 437 436 472
f 438 473 474
f 438 474 475
f 438 437 473
f 439 475 476
f 439 438 475
f 440 439 476
f 441 476 477
f 441 440 476
f 442 477 478
f 442 441 477
f 443 478 479
f 443 442 478
f 444 479 480
f 444 443 479
f 445 480 481
f 445 444 480
f 446 481 482
f 446 445 481
f 447 482 483
f 447 446 482
f 448 483 484
f 448 447 483
f 449 448 484
f 449 484 485
f 449 485 486
f 450 449 486
f 451 450 486
f 451 486 487
f 451 487 488
f 452 451 488
f 453 452 488
f 453 488 489
f 418 453 489
f 418 489 454
f 475 477 476
f 469 471 470
f 467 469 468
f 467 472 471
f 467 473 472
f 467 471 469
f 486 484 483
f 486 485 484
f 487 479 478
f 487 480 479
f 487 481 480
f 487 482 481
f 487 483 482
f 487 486 483
f 464 466 465
f 464 467 466
f 454 489 488
f 455 488 487
f 455 454 488
f 461 463 462
f 461 464 463
f 461 473 467
f 461 467 464
f 458 456 455
f 458 457 456
f 458 460 459
f 458 461 460
f 458 474 473
f 458 475 474
f 458 478 477
f 458 477 475
f 458 487 478
f 458 455 487
f 458 473 461
f 167 166 490
f 167 490 491
f 168 491 492
f 168 167 491
f 169 492 493
f 169 168 492
f 170 493 494
f 170 169 493
f 171 494 495
f 171 170 494
f 172 495 496
f 172 171 495
f 173 172 496
f 173 496 497
f 174 173 497
f 174 497 498
f 175 174 498
f 175 498 499
f 175 499 500
f 176 175 500
f 177 176 500
f 177 500 501
f 178 177 501
f 178 501 502
f 179 178 502
f 179 502 503
f 179 503 504
f 180 179 504
f 181 180 504
f 181 504 505
f 182 181 505
f 182 505 506
f 183 182 506
f 183 506 507
f 184 183 507
f 184 507 508
f 184 508 509
f 185 184 509
f 186 185 509
f 186 509 510
f 186 510 511
f 187 186 511
f 188 511 512
f 188 187 511
f 189 512 513
f 189 513 514
f 189 188 512
f 190 189 514
f 191 514 515
f 191 515 516
f 191 190 514
f 192 516 517
f 192 191 516
f 193 517 518
f 193 192 517
f 194 193 518
f 195 518 519
f 195 194 518
f 196 519 520
f 196 520 521
f 196 195 519
f 197 196 521
f 197 521 522
f 198 197 522
f 199 198 522
f 199 522 523
f 200 199 523
f 200 523 524
f 201 200 524
f 201 524 525
f 201 525 490
f 166 201 490
f 513 548 549
f 513 512 548
f 511 547 548
f 511 548 512
f 514 549 550
f 514 513 549
f 510 546 547
f 510 547 511
f 515 550 551
f 515 514 550
f 552 515 551
f 509 545 546
f 509 546 510
f 516 515 552
f 508 545 509
f 508 544 545
f 517 516 552
f 517 552 553
f 507 543 544
f 507 544 508
f 518 553 554
f 518 517 553
f 506 542 543
f 506 543 507
f 519 518 554
f 519 554 555
f 505 541 542
f 505 542 506
f 520 519 555
f 520 555 556
f 540 541 505
f 504 540 505
f 521 556 557
f 521 520 556
f 522 521 557
f 539 540 504
f 539 504 503
f 558 522 557
f 502 539 503
f 523 522 558
f 538 539 502
f 559 523 558
f 537 502 501
f 537 538 502
f 560 523 559
f 560 524 523
f 525 524 560
f 536 501 500
f 536 537 501
f 561 525 560
f 499 536 500
f 490 525 561
f 535 536 499
f 526 490 561
f 491 490 526
f 527 491 526
f 534 499 498
f 534 535 499
f 497 534 498
f 528 492 491
f 528 493 492
f 528 491 527
f 533 534 497
f 532 533 497
f 532 497 496
f 529 493 528
f 531 532 496
f 531 496 495
f 530 493 529
f 530 531 495
f 530 494 493
f 530 495 494
f 527 526 562
f 527 562 563
f 528 563 564
f 528 527 563
f 529 564 565
f 529 528 564
f 530 565 566
f 530 566 567
f 530 529 565
f 531 567 568
f 531 530 567
f 532 531 568
f 532 568 569
f 533 532 569
f 534 533 569
f 534 569 570
f 534 570 571
f 535 534 571
f 536 535 571
f 536 571 572
f 537 536 572
f 537 572 573
f 537 573 574
f 538 537 574
f 539 538 574
f 539 574 575
f 540 539 575
f 540 575 576
f 541 540 576
f 541 576 577
f 542 541 577
f 542 577 578
f 542 578 579
f 543 542 579
f 544 543 579
f 544 579 580
f 545 580 581
f 545 544 580
f 546 581 582
f 546 582 583
f 546 545 581
f 547 583 584
f 547 546 583
f 548 547 584
f 549 584 585
f 549 548 584
f 550 585 586
f 550 549 585
f 551 586 587
f 551 550 586
f 552 587 588
f 552 551 587
f 553 588 589
f 553 552 588
f 554 589 590
f 554 553 589
f 555 590 591
f 555 554 590
f 556 591 592
f 556 555 591
f 557 556 592
f 557 592 593
f 557 593 594
f 558 557 594
f 559 558 594
f 559 594 595
f 559 595 596
f 560 559 596
f 561 560 596
f 561 596 597
f 526 561 597
f 526 597 562
f 588 587 586
f 592 591 590
f 575 577 576
f 594 593 592
f 574 578 577
f 574 579 578
f 574 577 575
f 595 589 588
f 595 590 589
f 595 588 586
f 595 592 590
f 595 594 592
f 572 574 573
f 563 596 595
f 563 597 596
f 563 562 597
f 569 571 570
f 569 572 571
f 569 580 579
f 569 581 580
f 569 579 574
f 569 574 572
f 566 564 563
f 566 565 564
f 566 568 567
f 566 569 568
f 566 582 581
f 566 583 582
f 566 584 583
f 566 585 584
f 566 586 585
f 566 595 586
f 566 563 595
f 566 581 569
f 131 130 598
f 131 598 599
f 132 599 600
f 132 131 599
f 133 600 601
f 133 132 600
f 134 601 602
f 134 133 601
f 135 602 603
f 135 134 602
f 136 603 604
f 136 135 603
f 137 136 604
f 137 604 605
f 138 137 605
f 138 605 606
f 139 138 606
f 139 606 607
f 140 139 607
f 140 607 608
f 141 140 608
f 141 608 609
f 142 141 609
f 142 609 610
f 143 142 610
f 143 610 611
f 144 143 611
f 144 611 612
f 145 144 612
f 145 612 613
f 146 145 613
f 146 613 614
f 147 146 614
f 147 614 615
f 148 147 615
f 148 615 616
f 149 616 617
f 149 148 616
f 150 617 618
f 150 149 617
f 151 618 619
f 151 619 620
f 151 150 618
f 152 151 620
f 153 152 620
f 153 620 621
f 154 621 622
f 154 153 621
f 155 622 623
f 155 154 622
f 156 623 624
f 156 155 623
f 157 624 625
f 157 156 624
f 158 625 626
f 158 157 625
f 159 626 627
f 159 158 626
f 160 627 628
f 160 628 629
f 160 159 627
f 161 160 629
f 162 629 630
f 162 161 629
f 163 162 630
f 163 630 631
f 164 163 631
f 164 631 632
f 165 164 632
f 165 632 633
f 165 633 598
f 130 165 598
f 627 624 623
f 627 625 624
f 627 626 625
f 611 613 612
f 611 614 613
f 632 629 628
f 632 630 629
f 632 631 630
f 598 633 632
f 606 608 607
f 606 609 608
f 606 610 609
f 606 611 610
f 606 615 614
f 606 616 615
f 606 617 616
f 606 618 617
f 606 619 618
f 606 620 619
f 606 621 620
f 606 622 621
f 606 614 611
f 600 599 598
f 600 628 627
f 600 632 628
f 600 598 632
f 604 606 605
f 603 606 604
f 602 601 600
f 602 606 603
f 602 623 622
f 602 627 623
f 602 622 606
f 602 600 627
f 666 667 97
f 666 97 129
f 665 129 128
f 665 666 129
f 664 128 127
f 664 665 128
f 663 127 126
f 663 664 127
f 662 126 125
f 662 663 126
f 661 125 124
f 661 662 125
f 660 661 124
f 660 124 123
f 659 660 123
f 659 123 122
f 658 659 122
f 658 122 121
f 657 658 121
f 657 120 119
f 657 121 120
f 656 657 119
f 655 656 119
f 655 119 118
f 654 655 118
f 654 118 117
f 653 654 117
f 653 116 115
f 653 117 116
f 652 653 115
f 651 652 115
f 651 115 114
f 650 651 114
f 650 114 113
f 649 650 113
f 649 113 112
f 648 112 111
f 648 649 112
f 647 110 109
f 647 111 110
f 647 648 111
f 646 109 108
f 646 647 109
f 645 646 108
f 644 107 106
f 644 108 107
f 644 645 108
f 643 644 106
f 642 105 104
f 642 106 105
f 642 643 106
f 641 104 103
f 641 642 104
f 640 641 103
f 639 103 102
f 639 640 103
f 638 101 100
f 638 102 101
f 638 639 102
f 637 638 100
f 636 100 99
f 636 637 100
f 635 99 98
f 635 636 99
f 634 98 2
f 634 635 98
f 737 735 736
f 732 733 734
f 738 735 737
f 739 734 735
f 739 735 738
f 730 731 732
f 730 732 734
f 741 739 740
f 741 734 739
f 741 730 734
f 727 728 729
f 743 741 742
f 726 727 729
f 745 743 744
f 745 741 743
f 724 726 729
f 724 725 726
f 724 729 730
f 747 745 746
f 748 741 745
f 748 745 747
f 748 730 741
f 721 722 723
f 721 723 724
f 750 748 749
f 752 730 748
f 752 724 730
f 752 721 724
f 752 748 750
f 752 720 721
f 752 750 751
f 753 720 752
f 754 720 753
f 754 719 720
f 785 719 786
f 784 719 785
f 784 718 719
f 787 719 754
f 787 786 719
f 783 717 718
f 783 718 784
f 788 787 754
f 782 716 717
f 782 717 783
f 789 788 754
f 706 703 704
f 706 704 705
f 781 716 782
f 781 714 715
f 781 715 716
f 790 789 754
f 790 754 755
f 780 713 714
f 780 714 781
f 791 790 755
f 791 755 756
f 701 702 703
f 779 712 713
f 779 713 780
f 792 756 757
f 792 791 756
f 778 711 712
f 778 712 779
f 793 792 757
f 793 757 758
f 708 706 707
f 759 793 758
f 777 711 778
f 794 793 759
f 776 711 777
f 760 794 759
f 760 795 794
f 699 700 701
f 699 703 706
f 699 701 703
f 775 711 776
f 761 795 760
f 761 796 795
f 762 796 761
f 762 797 796
f 762 798 797
f 762 763 798
f 676 711 775
f 676 773 772
f 676 774 773
f 676 775 774
f 676 710 711
f 675 772 771
f 675 676 772
f 674 771 770
f 674 675 771
f 673 770 769
f 673 674 770
f 677 710 676
f 677 709 710
f 668 764 763
f 668 765 764
f 668 766 765
f 668 763 762
f 672 673 769
f 669 767 766
f 669 766 668
f 671 769 768
f 671 672 769
f 670 768 767
f 670 767 669
f 670 671 768
f 694 695 696
f 694 696 697
f 694 697 698
f 694 698 699
f 666 665 664
f 661 663 662
f 661 664 663
f 661 667 666
f 661 666 664
f 679 677 678
f 679 708 709
f 679 709 677
f 660 667 661
f 691 692 693
f 691 693 694
f 691 694 699
f 658 660 659
f 634 668 762
f 634 762 667
f 682 679 680
f 682 680 681
f 682 706 708
f 682 708 679
f 657 667 660
f 657 660 658
f 635 634 667
f 635 667 657
f 688 689 690
f 688 690 691
f 686 699 706
f 686 682 683
f 686 683 684
f 686 684 685
f 686 706 682
f 686 687 688
f 686 691 699
f 686 688 691
f 654 656 655
f 654 657 656
f 638 636 635
f 638 637 636
f 639 638 635
f 651 653 652
f 651 654 653
f 651 657 654
f 650 657 651
f 642 641 640
f 647 640 639
f 647 643 642
f 647 649 648
f 647 650 649
f 647 635 657
f 647 639 635
f 647 657 650
f 647 642 640
f 646 644 643
f 646 645 644
f 646 643 647
f 800 799 763
f 800 763 764
f 801 764 765
f 801 800 764
f 802 765 766
f 802 801 765
f 803 766 767
f 803 802 766
f 804 767 768
f 804 803 767
f 805 768 769
f 805 804 768
f 806 805 769
f 806 769 770
f 807 806 770
f 807 770 771
f 808 807 771
f 808 771 772
f 809 808 772
f 809 772 773
f 810 809 773
f 810 773 774
f 811 810 774
f 811 774 775
f 812 811 775
f 812 775 776
f 813 812 776
f 813 776 777
f 813 777 778
f 814 813 778
f 814 778 779
f 815 814 779
f 816 815 779
f 816 779 780
f 817 816 780
f 817 780 781
f 817 781 782
f 818 817 782
f 818 782 783
f 819 783 784
f 819 818 783
f 820 819 784
f 821 820 784
f 821 784 785
f 822 785 786
f 822 786 787
f 822 821 785
f 823 822 787
f 823 787 788
f 824 823 788
f 825 788 789
f 825 824 788
f 826 789 790
f 826 790 791
f 826 825 789
f 827 791 792
f 827 826 791
f 828 827 792
f 829 792 793
f 829 828 792
f 830 829 793
f 830 793 794
f 831 830 794
f 831 794 795
f 832 831 795
f 832 795 796
f 833 832 796
f 833 796 797
f 834 833 797
f 834 797 798
f 834 798 763
f 799 834 763
f 828 824 825
f 828 825 826
f 828 826 827
f 812 813 814
f 812 814 815
f 833 829 830
f 833 830 831
f 833 831 832
f 799 833 834
f 807 808 809
f 807 809 810
f 807 810 811
f 807 811 812
f 807 815 816
f 807 816 817
f 807 817 818
f 807 818 819
f 807 819 820
f 807 820 821
f 807 821 822
f 807 822 823
f 807 812 815
f 801 799 800
f 801 828 829
f 801 829 833
f 801 833 799
f 805 806 807
f 804 805 807
f 803 801 802
f 803 804 807
f 803 823 824
f 803 824 828
f 803 807 823
f 803 828 801
f 667 96 97
f 667 762 96
f 755 754 88
f 755 88 89
f 756 89 90
f 756 755 89
f 757 90 91
f 757 756 90
f 758 91 92
f 758 757 91
f 759 92 93
f 759 758 92
f 760 93 94
f 760 759 93
f 761 94 95
f 761 760 94
f 762 95 96
f 762 761 95
f 753 55 88
f 753 88 754
f 720 54 87
f 721 720 87
f 722 87 86
f 722 721 87
f 723 86 85
f 723 722 86
f 724 85 84
f 724 723 85
f 725 84 83
f 725 724 84
f 726 83 82
f 726 725 83
f 727 726 82
f 727 82 81
f 728 727 81
f 728 81 80
f 729 728 80
f 729 80 79
f 730 729 79
f 730 79 78
f 731 730 78
f 731 78 77
f 732 731 77
f 732 77 76
f 733 732 76
f 733 76 75
f 734 733 75
f 734 75 74
f 735 734 74
f 735 74 73
f 736 735 73
f 736 73 72
f 737 736 72
f 737 72 71
f 738 737 71
f 738 71 70
f 739 70 69
f 739 738 70
f 740 69 68
f 740 739 69
f 741 68 67
f 741 740 68
f 742 67 66
f 742 741 67
f 743 65 64
f 743 66 65
f 743 742 66
f 744 743 64
f 745 64 63
f 745 744 64
f 746 63 62
f 746 745 63
f 747 62 61
f 747 746 62
f 748 61 60
f 748 747 61
f 749 60 59
f 749 748 60
f 750 58 57
f 750 59 58
f 750 749 59
f 751 750 57
f 752 57 56
f 752 751 57
f 753 56 55
f 753 752 56
f 720 53 54
f 720 719 53
f 712 711 45
f 712 45 46
f 713 46 47
f 713 712 46
f 714 47 48
f 714 713 47
f 715 48 49
f 715 714 48
f 716 49 50
f 716 50 51
f 716 715 49
f 717 716 51
f 718 51 52
f 718 717 51
f 719 52 53
f 719 718 52
f 710 12 45
f 710 45 711
f 677 11 44
f 678 677 44
f 679 44 43
f 679 678 44
f 680 43 42
f 680 679 43
f 681 42 41
f 681 680 42
f 682 41 40
f 682 681 41
f 683 40 39
f 683 682 40
f 684 683 39
f 684 39 38
f 685 684 38
f 685 38 37
f 686 685 37
f 686 37 36
f 687 686 36
f 687 36 35
f 688 687 35
f 688 35 34
f 689 688 34
f 689 34 33
f 690 689 33
f 690 33 32
f 691 690 32
f 691 32 31
f 692 691 31
f 692 31 30
f 693 692 30
f 693 30 29
f 694 693 29
f 694 28 27
f 694 29 28
f 695 694 27
f 696 695 27
f 696 27 26
f 697 26 25
f 697 696 26
f 698 25 24
f 698 697 25
f 699 24 23
f 699 698 24
f 700 23 22
f 700 699 23
f 701 21 20
f 701 22 21
f 701 700 22
f 702 701 20
f 703 20 19
f 703 702 20
f 704 19 18
f 704 703 19
f 705 18 17
f 705 704 18
f 706 17 16
f 706 705 17
f 707 15 14
f 707 16 15
f 707 706 16
f 708 707 14
f 709 14 13
f 709 708 14
f 710 13 12
f 710 709 13
f 677 10 11
f 677 676 10
f 669 668 1
f 669 1 3
f 670 3 4
f 670 669 3
f 671 4 5
f 671 670 4
f 672 5 6
f 672 671 5
f 673 6 7
f 673 672 6
f 674 7 8
f 674 673 7
f 675 8 9
f 675 674 8
f 676 9 10
f 676 675 9
f 634 2 1
f 634 1 668
