# SimpleCAD BREP tessellation for MuJoCo
v 3.13717627812 1.175 6.45
v 6.02352977505 1.175 6.45
v 2.88942892027 1.69519925516 6.45
v 2.55620595514 2.16525082032 6.45
v 2.14736484457 2.57124954532 6.45
v 1.675 2.90118510268 6.45
v 1.15308500343 3.14529727925 6.45
v 0.597059238392 3.29636470462 6.45
v 0.0233711593133 3.34991847497 6.45
v -0.551008289613 3.304374353 6.45
v -1.99418503808 5.80402980565 6.45
v -4.02934473697 4.62902980565 6.45
v -4.58074435874 4.5952474918 6.45
v -5.12973755586 4.65680443406 6.45
v -5.65996268044 4.81186605047 6.45
v -6.15561742959 5.05581103865 6.45
v -6.60192980156 5.38136910451 6.45
v -6.98559834577 5.77883763887 6.45
v -7.29518858607 6.23637088436 6.45
v -7.52147380248 6.74033297465 6.45
v -7.6577100152 7.27570432424 6.45
v -7.69983697549 7.82652925726 6.45
v -7.64659917327 8.37639153459 6.45
v -7.49958325511 8.90890360715 6.45
v -7.2631707374 9.40819501413 6.45
v -6.94440742395 9.85938537043 6.45
v -6.5527934199 10.2490278469 6.45
v -6.1 10.5655099262 6.45
v -5.59952176954 10.7993994908 6.45
v -5.06627448452 10.9437259286 6.45
v -4.5161505173 10.9941878777 6.45
v -3.9655452161 10.9492814203 6.45
v -3.43086827436 10.8103449039 6.45
v -2.9280546725 10.5815190544 6.45
v -2.47208976761 10.2696235701 6.45
v -2.07656268477 9.88395387417 6.45
v -1.75326132024 9.43600408311 6.45
v -1.51182102672 8.9391244475 6.45
v -1.35943745087 8.40812347441 6.45
v -1.30065208141 7.85882658933 6.45
v -1.3372168991 7.30760449096 6.45
v -1.46804216242 6.77088525515 6.45
v -1.6892288852 6.26466472881 6.45
v -2.58616798851 2.129374353 6.45
v -2.91280007958 1.6547192198 6.45
v -3.15326519353 1.1311138843 6.45
v -3.300449848 0.574047733931 6.45
v -3.35 -7.02823758727e-15 6.45
v -3.300449848 -0.574047733931 6.45
v -3.15326519353 -1.1311138843 6.45
v -2.91280007958 -1.6547192198 6.45
v -2.58616798851 -2.129374353 6.45
v -4.02934473697 -4.62902980565 6.45
v -1.99418503808 -5.80402980565 6.45
v -1.6892288852 -6.26466472881 6.45
v -1.46804216242 -6.77088525515 6.45
v -1.3372168991 -7.30760449096 6.45
v -1.30065208141 -7.85882658933 6.45
v -1.35943745087 -8.40812347441 6.45
v -1.51182102672 -8.9391244475 6.45
v -1.75326132024 -9.43600408311 6.45
v -2.07656268477 -9.88395387417 6.45
v -2.47208976761 -10.2696235701 6.45
v -2.9280546725 -10.5815190544 6.45
v -3.43086827436 -10.8103449039 6.45
v -3.9655452161 -10.9492814203 6.45
v -4.5161505173 -10.9941878777 6.45
v -5.06627448452 -10.9437259286 6.45
v -5.59952176954 -10.7993994908 6.45
v -6.1 -10.5655099262 6.45
v -6.5527934199 -10.2490278469 6.45
v -6.94440742395 -9.85938537043 6.45
v -7.2631707374 -9.40819501413 6.45
v -7.49958325511 -8.90890360715 6.45
v -7.64659917327 -8.37639153459 6.45
v -7.69983697549 -7.82652925726 6.45
v -7.6577100152 -7.27570432424 6.45
v -7.52147380248 -6.74033297465 6.45
v -7.29518858607 -6.23637088436 6.45
v -6.98559834577 -5.77883763887 6.45
v -6.60192980156 -5.38136910451 6.45
v -6.15561742959 -5.05581103865 6.45
v -5.65996268044 -4.81186605047 6.45
v -5.12973755586 -4.65680443406 6.45
v -4.58074435874 -4.5952474918 6.45
v -0.551008289613 -3.304374353 6.45
v 0.0233711593133 -3.34991847497 6.45
v 0.597059238392 -3.29636470462 6.45
v 1.15308500343 -3.14529727925 6.45
v 1.675 -2.90118510268 6.45
v 2.14736484457 -2.57124954532 6.45
v 2.55620595514 -2.16525082032 6.45
v 2.88942892027 -1.69519925516 6.45
v 3.13717627812 -1.175 6.45
v 6.02352977505 -1.175 6.45
v 6.26997324395 1.66941723701 6.45
v 6.59777971828 2.11408082109 6.45
v 6.99717957953 2.49573844049 6.45
v 7.456269511 2.80301555068 6.45
v 7.96136725243 3.02675436989 6.45
v 8.49741937249 3.16028680864 6.45
v 9.04844990631 3.19963319876 6.45
v 9.59803648725 3.14362089952 6.45
v 10.1297997828 2.99391924586 6.45
v 10.627891648 2.75498979715 6.45
v 11.0774674476 2.43395336932 6.45
v 11.4651284712 2.04037781315 6.45
v 11.7793212547 1.58599286354 6.45
v 12.0106819085 1.08434055815 6.45
v 12.1523151894 0.550371643945 6.45
v 12.2 1.46553228538e-15 6.45
v 12.1523151894 -0.550371643945 6.45
v 12.0106819085 -1.08434055815 6.45
v 11.7793212547 -1.58599286354 6.45
v 11.4651284712 -2.04037781315 6.45
v 11.0774674476 -2.43395336932 6.45
v 10.627891648 -2.75498979715 6.45
v 10.1297997828 -2.99391924586 6.45
v 9.59803648725 -3.14362089952 6.45
v 9.04844990631 -3.19963319876 6.45
v 8.49741937249 -3.16028680864 6.45
v 7.96136725243 -3.02675436989 6.45
v 7.456269511 -2.80301555068 6.45
v 6.99717957953 -2.49573844049 6.45
v 6.59777971828 -2.11408082109 6.45
v 6.26997324395 -1.66941723701 6.45
v 1.5 -3.67394039744e-16 6.45
v 1.47721162952 0.2604722665 6.45
v 1.40953893118 0.513030214989 6.45
v 1.29903810568 0.75 6.45
v 1.14906666468 0.96418141453 6.45
v 0.96418141453 1.14906666468 6.45
v 0.75 1.29903810568 6.45
v 0.513030214989 1.40953893118 6.45
v 0.2604722665 1.47721162952 6.45
v -9.07352212227e-16 1.5 6.45
v -0.2604722665 1.47721162952 6.45
v -0.513030214989 1.40953893118 6.45
v -0.75 1.29903810568 6.45
v -0.96418141453 1.14906666468 6.45
v -1.14906666468 0.96418141453 6.45
v -1.29903810568 0.75 6.45
v -1.40953893118 0.513030214989 6.45
v -1.47721162952 0.2604722665 6.45
v -1.5 -3.146972054e-15 6.45
v -1.47721162952 -0.2604722665 6.45
v -1.40953893118 -0.513030214989 6.45
v -1.29903810568 -0.75 6.45
v -1.14906666468 -0.96418141453 6.45
v -0.96418141453 -1.14906666468 6.45
v -0.75 -1.29903810568 6.45
v -0.513030214988 -1.40953893118 6.45
v -0.2604722665 -1.47721162952 6.45
v 3.72125735884e-15 -1.5 6.45
v 0.2604722665 -1.47721162952 6.45
v 0.513030214989 -1.40953893118 6.45
v 0.75 -1.29903810568 6.45
v 0.96418141453 -1.14906666468 6.45
v 1.14906666468 -0.96418141453 6.45
v 1.29903810568 -0.75 6.45
v 1.40953893118 -0.513030214989 6.45
v 1.47721162952 -0.2604722665 6.45
v 9.82 -2.0084207506e-16 6.45
v 9.80754235747 0.142391505687 6.45
v 9.77054794904 0.280456517527 6.45
v 9.7101408311 0.41 6.45
v 9.62815644336 0.527085839943 6.45
v 9.52708583994 0.628156443358 6.45
v 9.41 0.710140831103 6.45
v 9.28045651753 0.770547949044 6.45
v 9.14239150569 0.80754235747 6.45
v 9 0.82 6.45
v 8.85760849431 0.80754235747 6.45
v 8.71954348247 0.770547949044 6.45
v 8.59 0.710140831103 6.45
v 8.47291416006 0.628156443358 6.45
v 8.37184355664 0.527085839943 6.45
v 8.2898591689 0.41 6.45
v 8.22945205096 0.280456517527 6.45
v 8.19245764253 0.142391505687 6.45
v 8.18 -1.72034472286e-15 6.45
v 8.19245764253 -0.142391505687 6.45
v 8.22945205096 -0.280456517527 6.45
v 8.2898591689 -0.41 6.45
v 8.37184355664 -0.527085839943 6.45
v 8.47291416006 -0.628156443358 6.45
v 8.59 -0.710140831103 6.45
v 8.71954348247 -0.770547949044 6.45
v 8.85760849431 -0.80754235747 6.45
v 9 -0.82 6.45
v 9.14239150569 -0.80754235747 6.45
v 9.28045651753 -0.770547949044 6.45
v 9.41 -0.710140831103 6.45
v 9.52708583994 -0.628156443358 6.45
v 9.62815644336 -0.527085839943 6.45
v 9.7101408311 -0.41 6.45
v 9.77054794904 -0.280456517527 6.45
v 9.80754235747 -0.142391505687 6.45
v -3.68 7.79422863406 6.45
v -3.69245764253 7.93662013975 6.45
v -3.72945205096 8.07468515159 6.45
v -3.7898591689 8.20422863406 6.45
v -3.87184355664 8.321314474 6.45
v -3.97291416006 8.42238507742 6.45
v -4.09 8.50436946516 6.45
v -4.21954348247 8.5647765831 6.45
v -4.35760849431 8.60177099153 6.45
v -4.5 8.61422863406 6.45
v -4.64239150569 8.60177099153 6.45
v -4.78045651753 8.5647765831 6.45
v -4.91 8.50436946516 6.45
v -5.02708583994 8.42238507742 6.45
v -5.12815644336 8.321314474 6.45
v -5.2101408311 8.20422863406 6.45
v -5.27054794904 8.07468515159 6.45
v -5.30754235747 7.93662013975 6.45
v -5.32 7.79422863406 6.45
v -5.30754235747 7.65183712837 6.45
v -5.27054794904 7.51377211653 6.45
v -5.2101408311 7.38422863406 6.45
v -5.12815644336 7.26714279412 6.45
v -5.02708583994 7.1660721907 6.45
v -4.91 7.08408780296 6.45
v -4.78045651753 7.02368068502 6.45
v -4.64239150569 6.98668627659 6.45
v -4.5 6.97422863406 6.45
v -4.35760849431 6.98668627659 6.45
v -4.21954348247 7.02368068502 6.45
v -4.09 7.08408780296 6.45
v -3.97291416006 7.1660721907 6.45
v -3.87184355664 7.26714279412 6.45
v -3.7898591689 7.38422863406 6.45
v -3.72945205096 7.51377211653 6.45
v -3.69245764253 7.65183712837 6.45
v -3.68 -7.79422863406 6.45
v -3.69245764253 -7.65183712837 6.45
v -3.72945205096 -7.51377211653 6.45
v -3.7898591689 -7.38422863406 6.45
v -3.87184355664 -7.26714279412 6.45
v -3.97291416006 -7.1660721907 6.45
v -4.09 -7.08408780296 6.45
v -4.21954348247 -7.02368068502 6.45
v -4.35760849431 -6.98668627659 6.45
v -4.5 -6.97422863406 6.45
v -4.64239150569 -6.98668627659 6.45
v -4.78045651753 -7.02368068502 6.45
v -4.91 -7.08408780296 6.45
v -5.02708583994 -7.1660721907 6.45
v -5.12815644336 -7.26714279412 6.45
v -5.2101408311 -7.38422863406 6.45
v -5.27054794904 -7.51377211653 6.45
v -5.30754235747 -7.65183712837 6.45
v -5.32 -7.79422863406 6.45
v -5.30754235747 -7.93662013975 6.45
v -5.27054794904 -8.07468515159 6.45
v -5.2101408311 -8.20422863406 6.45
v -5.12815644336 -8.321314474 6.45
v -5.02708583994 -8.42238507742 6.45
v -4.91 -8.50436946516 6.45
v -4.78045651753 -8.5647765831 6.45
v -4.64239150569 -8.60177099153 6.45
v -4.5 -8.61422863406 6.45
v -4.35760849431 -8.60177099153 6.45
v -4.21954348247 -8.5647765831 6.45
v -4.09 -8.50436946516 6.45
v -3.97291416006 -8.42238507742 6.45
v -3.87184355664 -8.321314474 6.45
v -3.7898591689 -8.20422863406 6.45
v -3.72945205096 -8.07468515159 6.45
v -3.69245764253 -7.93662013975 6.45
v -3.68 -7.79422863406 5.8
v -3.69245764253 -7.65183712837 5.8
v -3.72945205096 -7.51377211653 5.8
v -3.7898591689 -7.38422863406 5.8
v -3.87184355664 -7.26714279412 5.8
v -3.97291416006 -7.1660721907 5.8
v -4.09 -7.08408780296 5.8
v -4.21954348247 -7.02368068502 5.8
v -4.35760849431 -6.98668627659 5.8
v -4.5 -6.97422863406 5.8
v -4.64239150569 -6.98668627659 5.8
v -4.78045651753 -7.02368068502 5.8
v -4.91 -7.08408780296 5.8
v -5.02708583994 -7.1660721907 5.8
v -5.12815644336 -7.26714279412 5.8
v -5.2101408311 -7.38422863406 5.8
v -5.27054794904 -7.51377211653 5.8
v -5.30754235747 -7.65183712837 5.8
v -5.32 -7.79422863406 5.8
v -5.30754235747 -7.93662013975 5.8
v -5.27054794904 -8.07468515159 5.8
v -5.2101408311 -8.20422863406 5.8
v -5.12815644336 -8.321314474 5.8
v -5.02708583994 -8.42238507742 5.8
v -4.91 -8.50436946516 5.8
v -4.78045651753 -8.5647765831 5.8
v -4.64239150569 -8.60177099153 5.8
v -4.5 -8.61422863406 5.8
v -4.35760849431 -8.60177099153 5.8
v -4.21954348247 -8.5647765831 5.8
v -4.09 -8.50436946516 5.8
v -3.97291416006 -8.42238507742 5.8
v -3.87184355664 -8.321314474 5.8
v -3.7898591689 -8.20422863406 5.8
v -3.72945205096 -8.07468515159 5.8
v -3.69245764253 -7.93662013975 5.8
v -3.57 -7.79422863406 5.8
v -3.5841287897 -7.63273582883 5.8
v -3.62608586267 -7.47614990077 5.8
v -3.69459637448 -7.32922863406 5.8
v -3.7875786679 -7.19643615705 5.8
v -3.90220752299 -7.08180730196 5.8
v -4.035 -6.98882500854 5.8
v -4.18192126671 -6.92031449673 5.8
v -4.33850719477 -6.87835742376 5.8
v -4.5 -6.86422863406 5.8
v -4.66149280523 -6.87835742376 5.8
v -4.81807873329 -6.92031449673 5.8
v -4.965 -6.98882500854 5.8
v -5.09779247701 -7.08180730196 5.8
v -5.2124213321 -7.19643615705 5.8
v -5.30540362552 -7.32922863406 5.8
v -5.37391413733 -7.47614990077 5.8
v -5.4158712103 -7.63273582883 5.8
v -5.43 -7.79422863406 5.8
v -5.4158712103 -7.95572143929 5.8
v -5.37391413733 -8.11230736735 5.8
v -5.30540362552 -8.25922863406 5.8
v -5.2124213321 -8.39202111107 5.8
v -5.09779247701 -8.50664996616 5.8
v -4.965 -8.59963225958 5.8
v -4.81807873329 -8.66814277139 5.8
v -4.66149280523 -8.71009984436 5.8
v -4.5 -8.72422863406 5.8
v -4.33850719477 -8.71009984436 5.8
v -4.18192126671 -8.66814277139 5.8
v -4.035 -8.59963225958 5.8
v -3.90220752299 -8.50664996616 5.8
v -3.7875786679 -8.39202111107 5.8
v -3.69459637448 -8.25922863406 5.8
v -3.62608586267 -8.11230736735 5.8
v -3.5841287897 -7.95572143929 5.8
v -3.57 -7.79422863406 1.45
v -3.5841287897 -7.63273582883 1.45
v -3.62608586267 -7.47614990077 1.45
v -3.69459637448 -7.32922863406 1.45
v -3.7875786679 -7.19643615705 1.45
v -3.90220752299 -7.08180730196 1.45
v -4.035 -6.98882500854 1.45
v -4.18192126671 -6.92031449673 1.45
v -4.33850719477 -6.87835742376 1.45
v -4.5 -6.86422863406 1.45
v -4.66149280523 -6.87835742376 1.45
v -4.81807873329 -6.92031449673 1.45
v -4.965 -6.98882500854 1.45
v -5.09779247701 -7.08180730196 1.45
v -5.2124213321 -7.19643615705 1.45
v -5.30540362552 -7.32922863406 1.45
v -5.37391413733 -7.47614990077 1.45
v -5.4158712103 -7.63273582883 1.45
v -5.43 -7.79422863406 1.45
v -5.4158712103 -7.95572143929 1.45
v -5.37391413733 -8.11230736735 1.45
v -5.30540362552 -8.25922863406 1.45
v -5.2124213321 -8.39202111107 1.45
v -5.09779247701 -8.50664996616 1.45
v -4.965 -8.59963225958 1.45
v -4.81807873329 -8.66814277139 1.45
v -4.66149280523 -8.71009984436 1.45
v -4.5 -8.72422863406 1.45
v -4.33850719477 -8.71009984436 1.45
v -4.18192126671 -8.66814277139 1.45
v -4.035 -8.59963225958 1.45
v -3.90220752299 -8.50664996616 1.45
v -3.7875786679 -8.39202111107 1.45
v -3.69459637448 -8.25922863406 1.45
v -3.62608586267 -8.11230736735 1.45
v -3.5841287897 -7.95572143929 1.45
v -3.68 7.79422863406 5.8
v -3.69245764253 7.93662013975 5.8
v -3.72945205096 8.07468515159 5.8
v -3.7898591689 8.20422863406 5.8
v -3.87184355664 8.321314474 5.8
v -3.97291416006 8.42238507742 5.8
v -4.09 8.50436946516 5.8
v -4.21954348247 8.5647765831 5.8
v -4.35760849431 8.60177099153 5.8
v -4.5 8.61422863406 5.8
v -4.64239150569 8.60177099153 5.8
v -4.78045651753 8.5647765831 5.8
v -4.91 8.50436946516 5.8
v -5.02708583994 8.42238507742 5.8
v -5.12815644336 8.321314474 5.8
v -5.2101408311 8.20422863406 5.8
v -5.27054794904 8.07468515159 5.8
v -5.30754235747 7.93662013975 5.8
v -5.32 7.79422863406 5.8
v -5.30754235747 7.65183712837 5.8
v -5.27054794904 7.51377211653 5.8
v -5.2101408311 7.38422863406 5.8
v -5.12815644336 7.26714279412 5.8
v -5.02708583994 7.1660721907 5.8
v -4.91 7.08408780296 5.8
v -4.78045651753 7.02368068502 5.8
v -4.64239150569 6.98668627659 5.8
v -4.5 6.97422863406 5.8
v -4.35760849431 6.98668627659 5.8
v -4.21954348247 7.02368068502 5.8
v -4.09 7.08408780296 5.8
v -3.97291416006 7.1660721907 5.8
v -3.87184355664 7.26714279412 5.8
v -3.7898591689 7.38422863406 5.8
v -3.72945205096 7.51377211653 5.8
v -3.69245764253 7.65183712837 5.8
v -3.57 7.79422863406 5.8
v -3.5841287897 7.95572143929 5.8
v -3.62608586267 8.11230736735 5.8
v -3.69459637448 8.25922863406 5.8
v -3.7875786679 8.39202111107 5.8
v -3.90220752299 8.50664996616 5.8
v -4.035 8.59963225958 5.8
v -4.18192126671 8.66814277139 5.8
v -4.33850719477 8.71009984436 5.8
v -4.5 8.72422863406 5.8
v -4.66149280523 8.71009984436 5.8
v -4.81807873329 8.66814277139 5.8
v -4.965 8.59963225958 5.8
v -5.09779247701 8.50664996616 5.8
v -5.2124213321 8.39202111107 5.8
v -5.30540362552 8.25922863406 5.8
v -5.37391413733 8.11230736735 5.8
v -5.4158712103 7.95572143929 5.8
v -5.43 7.79422863406 5.8
v -5.4158712103 7.63273582883 5.8
v -5.37391413733 7.47614990077 5.8
v -5.30540362552 7.32922863406 5.8
v -5.2124213321 7.19643615705 5.8
v -5.09779247701 7.08180730196 5.8
v -4.965 6.98882500854 5.8
v -4.81807873329 6.92031449673 5.8
v -4.66149280523 6.87835742376 5.8
v -4.5 6.86422863406 5.8
v -4.33850719477 6.87835742376 5.8
v -4.18192126671 6.92031449673 5.8
v -4.035 6.98882500854 5.8
v -3.90220752299 7.08180730196 5.8
v -3.7875786679 7.19643615705 5.8
v -3.69459637448 7.32922863406 5.8
v -3.62608586267 7.47614990077 5.8
v -3.5841287897 7.63273582883 5.8
v -3.57 7.79422863406 1.45
v -3.5841287897 7.95572143929 1.45
v -3.62608586267 8.11230736735 1.45
v -3.69459637448 8.25922863406 1.45
v -3.7875786679 8.39202111107 1.45
v -3.90220752299 8.50664996616 1.45
v -4.035 8.59963225958 1.45
v -4.18192126671 8.66814277139 1.45
v -4.33850719477 8.71009984436 1.45
v -4.5 8.72422863406 1.45
v -4.66149280523 8.71009984436 1.45
v -4.81807873329 8.66814277139 1.45
v -4.965 8.59963225958 1.45
v -5.09779247701 8.50664996616 1.45
v -5.2124213321 8.39202111107 1.45
v -5.30540362552 8.25922863406 1.45
v -5.37391413733 8.11230736735 1.45
v -5.4158712103 7.95572143929 1.45
v -5.43 7.79422863406 1.45
v -5.4158712103 7.63273582883 1.45
v -5.37391413733 7.47614990077 1.45
v -5.30540362552 7.32922863406 1.45
v -5.2124213321 7.19643615705 1.45
v -5.09779247701 7.08180730196 1.45
v -4.965 6.98882500854 1.45
v -4.81807873329 6.92031449673 1.45
v -4.66149280523 6.87835742376 1.45
v -4.5 6.86422863406 1.45
v -4.33850719477 6.87835742376 1.45
v -4.18192126671 6.92031449673 1.45
v -4.035 6.98882500854 1.45
v -3.90220752299 7.08180730196 1.45
v -3.7875786679 7.19643615705 1.45
v -3.69459637448 7.32922863406 1.45
v -3.62608586267 7.47614990077 1.45
v -3.5841287897 7.63273582883 1.45
v 9.82 -2.0084207506e-16 5.8
v 9.80754235747 0.142391505687 5.8
v 9.77054794904 0.280456517527 5.8
v 9.7101408311 0.41 5.8
v 9.62815644336 0.527085839943 5.8
v 9.52708583994 0.628156443358 5.8
v 9.41 0.710140831103 5.8
v 9.28045651753 0.770547949044 5.8
v 9.14239150569 0.80754235747 5.8
v 9 0.82 5.8
v 8.85760849431 0.80754235747 5.8
v 8.71954348247 0.770547949044 5.8
v 8.59 0.710140831103 5.8
v 8.47291416006 0.628156443358 5.8
v 8.37184355664 0.527085839943 5.8
v 8.2898591689 0.41 5.8
v 8.22945205096 0.280456517527 5.8
v 8.19245764253 0.142391505687 5.8
v 8.18 -1.72034472286e-15 5.8
v 8.19245764253 -0.142391505687 5.8
v 8.22945205096 -0.280456517527 5.8
v 8.2898591689 -0.41 5.8
v 8.37184355664 -0.527085839943 5.8
v 8.47291416006 -0.628156443358 5.8
v 8.59 -0.710140831103 5.8
v 8.71954348247 -0.770547949044 5.8
v 8.85760849431 -0.80754235747 5.8
v 9 -0.82 5.8
v 9.14239150569 -0.80754235747 5.8
v 9.28045651753 -0.770547949044 5.8
v 9.41 -0.710140831103 5.8
v 9.52708583994 -0.628156443358 5.8
v 9.62815644336 -0.527085839943 5.8
v 9.7101408311 -0.41 5.8
v 9.77054794904 -0.280456517527 5.8
v 9.80754235747 -0.142391505687 5.8
v 9.93 -2.27784304641e-16 5.8
v 9.9158712103 0.16149280523 5.8
v 9.87391413733 0.318078733293 5.8
v 9.80540362552 0.465 5.8
v 9.7124213321 0.597792477008 5.8
v 9.59779247701 0.712421332101 5.8
v 9.465 0.80540362552 5.8
v 9.31807873329 0.873914137331 5.8
v 9.16149280523 0.915871210301 5.8
v 9 0.93 5.8
v 8.83850719477 0.915871210301 5.8
v 8.68192126671 0.873914137331 5.8
v 8.535 0.80540362552 5.8
v 8.40220752299 0.712421332101 5.8
v 8.2875786679 0.597792477008 5.8
v 8.19459637448 0.465 5.8
v 8.12608586267 0.318078733293 5.8
v 8.0841287897 0.16149280523 5.8
v 8.07 -1.95112267348e-15 5.8
v 8.0841287897 -0.16149280523 5.8
v 8.12608586267 -0.318078733293 5.8
v 8.19459637448 -0.465 5.8
v 8.2875786679 -0.597792477008 5.8
v 8.40220752299 -0.712421332101 5.8
v 8.535 -0.80540362552 5.8
v 8.68192126671 -0.873914137331 5.8
v 8.83850719477 -0.915871210301 5.8
v 9 -0.93 5.8
v 9.16149280523 -0.915871210301 5.8
v 9.31807873329 -0.873914137331 5.8
v 9.465 -0.80540362552 5.8
v 9.59779247701 -0.712421332101 5.8
v 9.7124213321 -0.597792477008 5.8
v 9.80540362552 -0.465 5.8
v 9.87391413733 -0.318078733293 5.8
v 9.9158712103 -0.16149280523 5.8
v 9.93 -2.27784304641e-16 1.45
v 9.9158712103 0.16149280523 1.45
v 9.87391413733 0.318078733293 1.45
v 9.80540362552 0.465 1.45
v 9.7124213321 0.597792477008 1.45
v 9.59779247701 0.712421332101 1.45
v 9.465 0.80540362552 1.45
v 9.31807873329 0.873914137331 1.45
v 9.16149280523 0.915871210301 1.45
v 9 0.93 1.45
v 8.83850719477 0.915871210301 1.45
v 8.68192126671 0.873914137331 1.45
v 8.535 0.80540362552 1.45
v 8.40220752299 0.712421332101 1.45
v 8.2875786679 0.597792477008 1.45
v 8.19459637448 0.465 1.45
v 8.12608586267 0.318078733293 1.45
v 8.0841287897 0.16149280523 1.45
v 8.07 -1.95112267348e-15 1.45
v 8.0841287897 -0.16149280523 1.45
v 8.12608586267 -0.318078733293 1.45
v 8.19459637448 -0.465 1.45
v 8.2875786679 -0.597792477008 1.45
v 8.40220752299 -0.712421332101 1.45
v 8.535 -0.80540362552 1.45
v 8.68192126671 -0.873914137331 1.45
v 8.83850719477 -0.915871210301 1.45
v 9 -0.93 1.45
v 9.16149280523 -0.915871210301 1.45
v 9.31807873329 -0.873914137331 1.45
v 9.465 -0.80540362552 1.45
v 9.59779247701 -0.712421332101 1.45
v 9.7124213321 -0.597792477008 1.45
v 9.80540362552 -0.465 1.45
v 9.87391413733 -0.318078733293 1.45
v 9.9158712103 -0.16149280523 1.45
v 1.5 -3.67394039744e-16 6.4
v 1.47721162952 0.2604722665 6.4
v 1.40953893118 0.513030214989 6.4
v 1.29903810568 0.75 6.4
v 1.14906666468 0.96418141453 6.4
v 0.96418141453 1.14906666468 6.4
v 0.75 1.29903810568 6.4
v 0.513030214989 1.40953893118 6.4
v 0.2604722665 1.47721162952 6.4
v -9.07352212227e-16 1.5 6.4
v -0.2604722665 1.47721162952 6.4
v -0.513030214989 1.40953893118 6.4
v -0.75 1.29903810568 6.4
v -0.96418141453 1.14906666468 6.4
v -1.14906666468 0.96418141453 6.4
v -1.29903810568 0.75 6.4
v -1.40953893118 0.513030214989 6.4
v -1.47721162952 0.2604722665 6.4
v -1.5 -3.146972054e-15 6.4
v -1.47721162952 -0.2604722665 6.4
v -1.40953893118 -0.513030214989 6.4
v -1.29903810568 -0.75 6.4
v -1.14906666468 -0.96418141453 6.4
v -0.96418141453 -1.14906666468 6.4
v -0.75 -1.29903810568 6.4
v -0.513030214988 -1.40953893118 6.4
v -0.2604722665 -1.47721162952 6.4
v 3.72125735884e-15 -1.5 6.4
v 0.2604722665 -1.47721162952 6.4
v 0.513030214989 -1.40953893118 6.4
v 0.75 -1.29903810568 6.4
v 0.96418141453 -1.14906666468 6.4
v 1.14906666468 -0.96418141453 6.4
v 1.29903810568 -0.75 6.4
v 1.40953893118 -0.513030214989 6.4
v 1.47721162952 -0.2604722665 6.4
v 6.02352977505 1.175 8.1
v 6.26997324395 1.66941723701 8.1
v 6.59777971828 2.11408082109 8.1
v 6.99717957953 2.49573844049 8.1
v 7.456269511 2.80301555068 8.1
v 7.96136725243 3.02675436989 8.1
v 8.49741937249 3.16028680864 8.1
v 9.04844990631 3.19963319876 8.1
v 9.59803648725 3.14362089952 8.1
v 10.1297997828 2.99391924586 8.1
v 10.627891648 2.75498979715 8.1
v 11.0774674476 2.43395336932 8.1
v 11.4651284712 2.04037781315 8.1
v 11.7793212547 1.58599286354 8.1
v 12.0106819085 1.08434055815 8.1
v 12.1523151894 0.550371643945 8.1
v 12.2 1.46553228538e-15 8.1
v 12.1523151894 -0.550371643945 8.1
v 12.0106819085 -1.08434055815 8.1
v 11.7793212547 -1.58599286354 8.1
v 11.4651284712 -2.04037781315 8.1
v 11.0774674476 -2.43395336932 8.1
v 10.627891648 -2.75498979715 8.1
v 10.1297997828 -2.99391924586 8.1
v 9.59803648725 -3.14362089952 8.1
v 9.04844990631 -3.19963319876 8.1
v 8.49741937249 -3.16028680864 8.1
v 7.96136725243 -3.02675436989 8.1
v 7.456269511 -2.80301555068 8.1
v 6.99717957953 -2.49573844049 8.1
v 6.59777971828 -2.11408082109 8.1
v 6.26997324395 -1.66941723701 8.1
v 6.02352977505 -1.175 8.1
v 3.13717627812 1.175 8.1
v 2.88942892027 1.69519925516 8.1
v 2.55620595514 2.16525082032 8.1
v 2.14736484457 2.57124954532 8.1
v 1.675 2.90118510268 8.1
v 1.15308500343 3.14529727925 8.1
v 0.597059238392 3.29636470462 8.1
v 0.0233711593133 3.34991847497 8.1
v -0.551008289613 3.304374353 8.1
v -1.99418503808 5.80402980565 8.1
v -1.6892288852 6.26466472881 8.1
v -1.46804216242 6.77088525515 8.1
v -1.3372168991 7.30760449096 8.1
v -1.30065208141 7.85882658933 8.1
v -1.35943745087 8.40812347441 8.1
v -1.51182102672 8.9391244475 8.1
v -1.75326132024 9.43600408311 8.1
v -2.07656268477 9.88395387417 8.1
v -2.47208976761 10.2696235701 8.1
v -2.9280546725 10.5815190544 8.1
v -3.43086827436 10.8103449039 8.1
v -3.9655452161 10.9492814203 8.1
v -4.5161505173 10.9941878777 8.1
v -5.06627448452 10.9437259286 8.1
v -5.59952176954 10.7993994908 8.1
v -6.1 10.5655099262 8.1
v -6.5527934199 10.2490278469 8.1
v -6.94440742395 9.85938537043 8.1
v -7.2631707374 9.40819501413 8.1
v -7.49958325511 8.90890360715 8.1
v -7.64659917327 8.37639153459 8.1
v -7.69983697549 7.82652925726 8.1
v -7.6577100152 7.27570432424 8.1
v -7.52147380248 6.74033297465 8.1
v -7.29518858607 6.23637088436 8.1
v -6.98559834577 5.77883763887 8.1
v -6.60192980156 5.38136910451 8.1
v -6.15561742959 5.05581103865 8.1
v -5.65996268044 4.81186605047 8.1
v -5.12973755586 4.65680443406 8.1
v -4.58074435874 4.5952474918 8.1
v -4.02934473697 4.62902980565 8.1
v -2.58616798851 2.129374353 8.1
v -2.91280007958 1.6547192198 8.1
v -3.15326519353 1.1311138843 8.1
v -3.300449848 0.574047733931 8.1
v -3.35 -7.02823758727e-15 8.1
v -3.300449848 -0.574047733931 8.1
v -3.15326519353 -1.1311138843 8.1
v -2.91280007958 -1.6547192198 8.1
v -2.58616798851 -2.129374353 8.1
v -4.02934473697 -4.62902980565 8.1
v -4.58074435874 -4.5952474918 8.1
v -5.12973755586 -4.65680443406 8.1
v -5.65996268044 -4.81186605047 8.1
v -6.15561742959 -5.05581103865 8.1
v -6.60192980156 -5.38136910451 8.1
v -6.98559834577 -5.77883763887 8.1
v -7.29518858607 -6.23637088436 8.1
v -7.52147380248 -6.74033297465 8.1
v -7.6577100152 -7.27570432424 8.1
v -7.69983697549 -7.82652925726 8.1
v -7.64659917327 -8.37639153459 8.1
v -7.49958325511 -8.90890360715 8.1
v -7.2631707374 -9.40819501413 8.1
v -6.94440742395 -9.85938537043 8.1
v -6.5527934199 -10.2490278469 8.1
v -6.1 -10.5655099262 8.1
v -5.59952176954 -10.7993994908 8.1
v -5.06627448452 -10.9437259286 8.1
v -4.5161505173 -10.9941878777 8.1
v -3.9655452161 -10.9492814203 8.1
v -3.43086827436 -10.8103449039 8.1
v -2.9280546725 -10.5815190544 8.1
v -2.47208976761 -10.2696235701 8.1
v -2.07656268477 -9.88395387417 8.1
v -1.75326132024 -9.43600408311 8.1
v -1.51182102672 -8.9391244475 8.1
v -1.35943745087 -8.40812347441 8.1
v -1.30065208141 -7.85882658933 8.1
v -1.3372168991 -7.30760449096 8.1
v -1.46804216242 -6.77088525515 8.1
v -1.6892288852 -6.26466472881 8.1
v -1.99418503808 -5.80402980565 8.1
v -0.551008289613 -3.304374353 8.1
v 0.0233711593133 -3.34991847497 8.1
v 0.597059238392 -3.29636470462 8.1
v 1.15308500343 -3.14529727925 8.1
v 1.675 -2.90118510268 8.1
v 2.14736484457 -2.57124954532 8.1
v 2.55620595514 -2.16525082032 8.1
v 2.88942892027 -1.69519925516 8.1
v 3.13717627812 -1.175 8.1
v 1.5 -3.67394039744e-16 8.1
v 1.47721162952 0.2604722665 8.1
v 1.40953893118 0.513030214989 8.1
v 1.29903810568 0.75 8.1
v 1.14906666468 0.96418141453 8.1
v 0.96418141453 1.14906666468 8.1
v 0.75 1.29903810568 8.1
v 0.513030214989 1.40953893118 8.1
v 0.2604722665 1.47721162952 8.1
v -9.07352212227e-16 1.5 8.1
v -0.2604722665 1.47721162952 8.1
v -0.513030214989 1.40953893118 8.1
v -0.75 1.29903810568 8.1
v -0.96418141453 1.14906666468 8.1
v -1.14906666468 0.96418141453 8.1
v -1.29903810568 0.75 8.1
v -1.40953893118 0.513030214989 8.1
v -1.47721162952 0.2604722665 8.1
v -1.5 -3.146972054e-15 8.1
v -1.47721162952 -0.2604722665 8.1
v -1.40953893118 -0.513030214989 8.1
v -1.29903810568 -0.75 8.1
v -1.14906666468 -0.96418141453 8.1
v -0.96418141453 -1.14906666468 8.1
v -0.75 -1.29903810568 8.1
v -0.513030214988 -1.40953893118 8.1
v -0.2604722665 -1.47721162952 8.1
v 3.72125735884e-15 -1.5 8.1
v 0.2604722665 -1.47721162952 8.1
v 0.513030214989 -1.40953893118 8.1
v 0.75 -1.29903810568 8.1
v 0.96418141453 -1.14906666468 8.1
v 1.14906666468 -0.96418141453 8.1
v 1.29903810568 -0.75 8.1
v 1.40953893118 -0.513030214989 8.1
v 1.47721162952 -0.2604722665 8.1
v 1.5 -3.67394039744e-16 15
v 1.47721162952 0.2604722665 15
v 1.40953893118 0.513030214989 15
v 1.29903810568 0.75 15
v 1.14906666468 0.96418141453 15
v 0.96418141453 1.14906666468 15
v 0.75 1.29903810568 15
v 0.513030214989 1.40953893118 15
v 0.2604722665 1.47721162952 15
v -9.07352212227e-16 1.5 15
v -0.2604722665 1.47721162952 15
v -0.513030214989 1.40953893118 15
v -0.75 1.29903810568 15
v -0.96418141453 1.14906666468 15
v -1.14906666468 0.96418141453 15
v -1.29903810568 0.75 15
v -1.40953893118 0.513030214989 15
v -1.47721162952 0.2604722665 15
v -1.5 -3.146972054e-15 15
v -1.47721162952 -0.2604722665 15
v -1.40953893118 -0.513030214989 15
v -1.29903810568 -0.75 15
v -1.14906666468 -0.96418141453 15
v -0.96418141453 -1.14906666468 15
v -0.75 -1.29903810568 15
v -0.513030214988 -1.40953893118 15
v -0.2604722665 -1.47721162952 15
v 3.72125735884e-15 -1.5 15
v 0.2604722665 -1.47721162952 15
v 0.513030214989 -1.40953893118 15
v 0.75 -1.29903810568 15
v 0.96418141453 -1.14906666468 15
v 1.14906666468 -0.96418141453 15
v 1.29903810568 -0.75 15
v 1.40953893118 -0.513030214989 15
v 1.47721162952 -0.2604722665 15
f 257 72 73
f 258 71 72
f 258 72 257
f 256 73 74
f 256 257 73
f 259 71 258
f 259 69 70
f 259 70 71
f 255 256 74
f 255 74 75
f 260 69 259
f 260 68 69
f 254 255 75
f 254 75 76
f 261 68 260
f 261 67 68
f 253 76 77
f 253 254 76
f 262 67 261
f 262 66 67
f 252 253 77
f 252 77 78
f 263 66 262
f 263 65 66
f 251 252 78
f 251 78 79
f 264 65 263
f 264 64 65
f 250 251 79
f 250 79 80
f 265 64 264
f 265 63 64
f 249 250 80
f 266 63 265
f 81 249 80
f 81 248 249
f 62 63 266
f 62 266 267
f 82 247 248
f 82 248 81
f 61 62 267
f 61 267 268
f 83 246 247
f 83 247 82
f 60 61 268
f 60 268 269
f 84 245 246
f 84 246 83
f 59 269 270
f 59 60 269
f 85 244 245
f 85 245 84
f 58 270 235
f 58 59 270
f 53 241 242
f 53 242 243
f 53 243 244
f 53 244 85
f 57 235 236
f 57 58 235
f 56 236 237
f 56 57 236
f 55 237 238
f 55 56 237
f 54 55 238
f 54 238 239
f 54 239 240
f 54 240 241
f 54 241 53
f 86 54 53
f 86 53 52
f 150 52 149
f 148 149 52
f 148 52 51
f 151 86 52
f 151 52 150
f 147 148 51
f 147 51 50
f 152 86 151
f 146 147 50
f 146 50 49
f 153 86 152
f 145 146 49
f 145 48 47
f 145 49 48
f 154 86 153
f 154 87 86
f 144 47 46
f 144 145 47
f 155 87 154
f 155 88 87
f 143 46 45
f 143 144 46
f 156 88 155
f 156 89 88
f 142 143 45
f 157 89 156
f 157 90 89
f 44 142 45
f 91 90 157
f 141 142 44
f 158 91 157
f 140 141 44
f 92 91 158
f 92 158 159
f 139 140 44
f 93 92 159
f 93 159 160
f 94 93 160
f 94 160 161
f 94 161 162
f 94 162 127
f 221 17 18
f 222 16 17
f 222 17 221
f 223 16 222
f 223 15 16
f 220 18 19
f 220 221 18
f 219 19 20
f 219 220 19
f 224 14 15
f 224 15 223
f 218 20 21
f 218 219 20
f 225 13 14
f 225 14 224
f 217 21 22
f 217 218 21
f 226 12 13
f 226 13 225
f 216 22 23
f 216 217 22
f 227 12 226
f 10 139 44
f 10 136 137
f 10 137 138
f 10 138 139
f 215 23 24
f 215 216 23
f 228 12 227
f 214 24 25
f 214 215 24
f 229 12 228
f 213 25 26
f 213 214 25
f 9 136 10
f 9 135 136
f 212 213 26
f 27 211 212
f 27 212 26
f 11 229 230
f 11 230 231
f 11 231 232
f 11 10 44
f 11 44 12
f 11 12 229
f 8 134 135
f 8 135 9
f 7 133 134
f 7 134 8
f 1 127 128
f 1 128 129
f 1 129 130
f 1 94 127
f 28 211 27
f 43 232 233
f 43 11 232
f 6 133 7
f 3 1 130
f 3 130 131
f 5 132 133
f 5 133 6
f 4 132 5
f 4 131 132
f 4 3 131
f 95 94 1
f 29 210 211
f 29 211 28
f 42 43 233
f 42 233 234
f 30 209 210
f 30 210 29
f 41 234 199
f 41 42 234
f 31 208 209
f 31 209 30
f 40 41 199
f 40 199 200
f 32 207 208
f 32 208 31
f 39 40 200
f 39 200 201
f 2 95 1
f 33 206 207
f 33 207 32
f 38 39 201
f 38 201 202
f 34 205 206
f 34 206 33
f 37 202 203
f 37 38 202
f 35 204 205
f 35 205 34
f 36 203 204
f 36 37 203
f 36 204 35
f 186 124 125
f 185 125 126
f 185 186 125
f 184 126 95
f 184 185 126
f 187 124 186
f 187 123 124
f 183 184 95
f 188 123 187
f 188 122 123
f 182 183 95
f 189 122 188
f 189 121 122
f 181 182 95
f 181 95 2
f 190 121 189
f 190 120 121
f 180 181 2
f 191 120 190
f 191 119 120
f 179 180 2
f 192 118 119
f 192 119 191
f 178 179 2
f 178 2 96
f 193 117 118
f 193 118 192
f 177 178 96
f 177 96 97
f 194 116 117
f 194 117 193
f 176 177 97
f 195 116 194
f 115 116 195
f 115 195 196
f 98 176 97
f 98 175 176
f 114 115 196
f 114 196 197
f 99 175 98
f 99 174 175
f 113 114 197
f 113 197 198
f 100 173 174
f 100 174 99
f 112 113 198
f 112 198 163
f 101 173 100
f 101 172 173
f 111 112 163
f 102 171 172
f 102 172 101
f 110 111 163
f 110 163 164
f 103 170 171
f 103 171 102
f 109 110 164
f 109 164 165
f 104 169 170
f 104 170 103
f 108 165 166
f 108 109 165
f 105 169 104
f 105 168 169
f 107 166 167
f 107 108 166
f 106 168 105
f 106 107 167
f 106 167 168
f 236 235 271
f 236 271 272
f 237 272 273
f 237 236 272
f 238 273 274
f 238 237 273
f 239 274 275
f 239 238 274
f 240 275 276
f 240 239 275
f 241 276 277
f 241 240 276
f 242 241 277
f 242 277 278
f 243 242 278
f 243 278 279
f 244 243 279
f 244 279 280
f 244 280 281
f 245 244 281
f 246 245 281
f 246 281 282
f 247 246 282
f 247 282 283
f 247 283 284
f 248 247 284
f 248 284 285
f 249 248 285
f 250 249 285
f 250 285 286
f 251 250 286
f 251 286 287
f 252 251 287
f 252 287 288
f 252 288 289
f 253 252 289
f 254 289 290
f 254 253 289
f 254 290 291
f 255 254 291
f 256 291 292
f 256 292 293
f 256 255 291
f 257 256 293
f 258 257 293
f 258 293 294
f 258 294 295
f 259 258 295
f 260 295 296
f 260 296 297
f 260 259 295
f 261 260 297
f 262 297 298
f 262 261 297
f 263 298 299
f 263 262 298
f 264 299 300
f 264 263 299
f 265 300 301
f 265 264 300
f 266 265 301
f 266 301 302
f 267 266 302
f 267 302 303
f 268 267 303
f 268 303 304
f 269 268 304
f 269 304 305
f 270 269 305
f 270 305 306
f 270 306 271
f 235 270 271
f 294 329 330
f 294 293 329
f 292 328 329
f 292 329 293
f 295 330 331
f 295 294 330
f 291 327 328
f 291 328 292
f 296 331 332
f 296 295 331
f 290 326 327
f 290 327 291
f 297 296 332
f 297 332 333
f 325 326 290
f 289 325 290
f 298 333 334
f 298 297 333
f 288 324 325
f 288 325 289
f 299 298 334
f 299 334 335
f 287 324 288
f 287 323 324
f 300 299 335
f 300 335 336
f 286 323 287
f 286 322 323
f 301 300 336
f 301 336 337
f 285 321 322
f 285 322 286
f 302 337 338
f 302 301 337
f 320 321 285
f 320 285 284
f 339 302 338
f 339 303 302
f 304 303 339
f 319 284 283
f 319 320 284
f 340 304 339
f 305 304 340
f 318 283 282
f 318 319 283
f 341 305 340
f 317 318 282
f 317 282 281
f 342 305 341
f 342 306 305
f 280 317 281
f 316 317 280
f 307 271 306
f 307 306 342
f 272 271 307
f 308 272 307
f 315 280 279
f 315 316 280
f 309 273 272
f 309 272 308
f 314 279 278
f 314 315 279
f 313 314 278
f 313 278 277
f 310 274 273
f 310 275 274
f 310 273 309
f 311 275 310
f 312 313 277
f 312 275 311
f 312 276 275
f 312 277 276
f 308 307 343
f 308 343 344
f 309 344 345
f 309 308 344
f 310 345 346
f 310 309 345
f 311 346 347
f 311 347 348
f 311 310 346
f 312 348 349
f 312 311 348
f 313 312 349
f 313 349 350
f 314 313 350
f 315 314 350
f 315 350 351
f 315 351 352
f 316 315 352
f 317 316 352
f 317 352 353
f 318 317 353
f 318 353 354
f 318 354 355
f 319 318 355
f 320 319 355
f 320 355 356
f 321 320 356
f 321 356 357
f 322 321 357
f 322 357 358
f 323 322 358
f 323 358 359
f 323 359 360
f 324 323 360
f 325 324 360
f 325 360 361
f 326 361 362
f 326 325 361
f 327 362 363
f 327 363 364
f 327 326 362
f 328 364 365
f 328 327 364
f 329 328 365
f 330 365 366
f 330 329 365
f 331 366 367
f 331 330 366
f 332 367 368
f 332 331 367
f 333 368 369
f 333 332 368
f 334 369 370
f 334 333 369
f 335 370 371
f 335 334 370
f 336 371 372
f 336 335 371
f 337 372 373
f 337 336 372
f 338 337 373
f 338 373 374
f 338 374 375
f 339 338 375
f 340 339 375
f 340 375 376
f 340 376 377
f 341 340 377
f 342 341 377
f 342 377 378
f 307 342 378
f 307 378 343
f 357 359 358
f 374 373 372
f 355 357 356
f 377 375 374
f 377 376 375
f 353 355 354
f 378 377 374
f 345 344 343
f 345 365 364
f 345 366 365
f 345 367 366
f 345 368 367
f 345 369 368
f 345 370 369
f 345 371 370
f 345 372 371
f 345 343 378
f 345 374 372
f 345 378 374
f 349 351 350
f 348 352 351
f 348 351 349
f 347 346 345
f 347 352 348
f 347 353 352
f 347 360 359
f 347 361 360
f 347 362 361
f 347 363 362
f 347 364 363
f 347 359 357
f 347 357 355
f 347 355 353
f 347 345 364
f 200 199 379
f 200 379 380
f 201 380 381
f 201 200 380
f 202 381 382
f 202 201 381
f 203 382 383
f 203 202 382
f 204 383 384
f 204 203 383
f 205 384 385
f 205 204 384
f 206 205 385
f 206 385 386
f 207 206 386
f 207 386 387
f 208 207 387
f 208 387 388
f 208 388 389
f 209 208 389
f 210 209 389
f 210 389 390
f 211 210 390
f 211 390 391
f 211 391 392
f 212 211 392
f 212 392 393
f 213 212 393
f 214 213 393
f 214 393 394
f 215 214 394
f 215 394 395
f 216 215 395
f 216 395 396
f 216 396 397
f 217 216 397
f 218 397 398
f 218 217 397
f 218 398 399
f 219 218 399
f 220 399 400
f 220 400 401
f 220 219 399
f 221 220 401
f 222 221 401
f 222 401 402
f 222 402 403
f 223 222 403
f 224 403 404
f 224 404 405
f 224 223 403
f 225 224 405
f 226 405 406
f 226 225 405
f 227 406 407
f 227 226 406
f 228 407 408
f 228 227 407
f 229 408 409
f 229 228 408
f 230 229 409
f 230 409 410
f 231 230 410
f 231 410 411
f 232 231 411
f 232 411 412
f 233 232 412
f 233 412 413
f 234 233 413
f 234 413 414
f 234 414 379
f 199 234 379
f 402 437 438
f 402 401 437
f 400 436 437
f 400 437 401
f 403 438 439
f 403 402 438
f 399 435 436
f 399 436 400
f 404 439 440
f 404 403 439
f 398 434 435
f 398 435 399
f 405 404 440
f 405 440 441
f 397 434 398
f 397 433 434
f 406 441 442
f 406 405 441
f 396 432 433
f 396 433 397
f 407 406 442
f 407 442 443
f 395 431 432
f 395 432 396
f 408 407 443
f 408 443 444
f 394 431 395
f 394 430 431
f 409 408 444
f 409 444 445
f 446 409 445
f 393 429 430
f 393 430 394
f 410 409 446
f 411 410 446
f 428 429 393
f 428 393 392
f 447 411 446
f 427 392 391
f 427 428 392
f 448 411 447
f 448 412 411
f 390 427 391
f 426 427 390
f 449 412 448
f 449 413 412
f 425 390 389
f 425 426 390
f 450 413 449
f 450 414 413
f 424 389 388
f 424 425 389
f 415 414 450
f 415 379 414
f 387 424 388
f 380 379 415
f 423 424 387
f 416 380 415
f 422 423 387
f 422 387 386
f 417 381 380
f 417 380 416
f 421 422 386
f 421 386 385
f 418 381 417
f 418 382 381
f 419 382 418
f 419 383 382
f 420 421 385
f 420 383 419
f 420 384 383
f 420 385 384
f 416 415 451
f 416 451 452
f 417 452 453
f 417 416 452
f 418 453 454
f 418 417 453
f 419 454 455
f 419 455 456
f 419 418 454
f 420 456 457
f 420 419 456
f 421 420 457
f 421 457 458
f 422 421 458
f 423 422 458
f 423 458 459
f 423 459 460
f 424 423 460
f 425 424 460
f 425 460 461
f 426 425 461
f 426 461 462
f 426 462 463
f 427 426 463
f 428 427 463
f 428 463 464
f 429 428 464
f 429 464 465
f 430 429 465
f 430 465 466
f 431 430 466
f 431 466 467
f 431 467 468
f 432 431 468
f 433 432 468
f 433 468 469
f 434 469 470
f 434 433 469
f 435 470 471
f 435 471 472
f 435 434 470
f 436 472 473
f 436 435 472
f 437 436 473
f 438 473 474
f 438 437 473
f 439 474 475
f 439 438 474
f 440 475 476
f 440 439 475
f 441 476 477
f 441 440 476
f 442 477 478
f 442 441 477
f 443 478 479
f 443 442 478
f 444 479 480
f 444 443 479
f 445 480 481
f 445 444 480
f 446 445 481
f 446 481 482
f 446 482 483
f 447 446 483
f 448 447 483
f 448 483 484
f 448 484 485
f 449 448 485
f 450 449 485
f 450 485 486
f 415 450 486
f 415 486 451
f 477 476 475
f 466 468 467
f 482 481 480
f 463 465 464
f 485 480 479
f 485 483 482
f 485 484 483
f 485 482 480
f 459 461 460
f 459 462 461
f 453 452 451
f 453 486 485
f 453 451 486
f 454 466 465
f 454 469 468
f 454 470 469
f 454 471 470
f 454 472 471
f 454 473 472
f 454 474 473
f 454 475 474
f 454 478 477
f 454 479 478
f 454 477 475
f 454 485 479
f 454 468 466
f 454 453 485
f 455 457 456
f 455 458 457
f 455 459 458
f 455 463 462
f 455 465 463
f 455 462 459
f 455 454 465
f 164 163 487
f 164 487 488
f 165 488 489
f 165 164 488
f 166 489 490
f 166 165 489
f 167 490 491
f 167 166 490
f 168 491 492
f 168 167 491
f 169 492 493
f 169 168 492
f 170 169 493
f 170 493 494
f 171 170 494
f 171 494 495
f 172 171 495
f 172 495 496
f 172 496 497
f 173 172 497
f 174 173 497
f 174 497 498
f 175 174 498
f 175 498 499
f 175 499 500
f 176 175 500
f 176 500 501
f 177 176 501
f 178 177 501
f 178 501 502
f 179 178 502
f 179 502 503
f 180 179 503
f 180 503 504
f 180 504 505
f 181 180 505
f 182 505 506
f 182 181 505
f 182 506 507
f 183 182 507
f 184 507 508
f 184 508 509
f 184 183 507
f 185 184 509
f 186 185 509
f 186 509 510
f 186 510 511
f 187 186 511
f 188 511 512
f 188 512 513
f 188 187 511
f 189 188 513
f 190 513 514
f 190 189 513
f 191 514 515
f 191 190 514
f 192 515 516
f 192 191 515
f 193 516 517
f 193 192 516
f 194 193 517
f 194 517 518
f 195 194 518
f 195 518 519
f 196 195 519
f 196 519 520
f 197 196 520
f 197 520 521
f 198 197 521
f 198 521 522
f 198 522 487
f 163 198 487
f 510 545 546
f 510 509 545
f 508 544 545
f 508 545 509
f 511 546 547
f 511 510 546
f 507 543 544
f 507 544 508
f 512 547 548
f 512 511 547
f 506 542 543
f 506 543 507
f 513 512 548
f 513 548 549
f 505 542 506
f 505 541 542
f 514 549 550
f 514 513 549
f 504 541 505
f 504 540 541
f 515 550 551
f 515 514 550
f 503 540 504
f 503 539 540
f 516 515 551
f 516 551 552
f 502 538 539
f 502 539 503
f 517 516 552
f 517 552 553
f 501 537 538
f 501 538 502
f 518 553 554
f 518 517 553
f 519 518 554
f 536 537 501
f 536 501 500
f 555 519 554
f 535 536 500
f 535 500 499
f 556 519 555
f 556 520 519
f 534 499 498
f 534 535 499
f 557 520 556
f 557 521 520
f 522 521 557
f 533 498 497
f 533 534 498
f 558 522 557
f 487 522 558
f 532 497 496
f 532 533 497
f 523 487 558
f 495 532 496
f 524 488 487
f 524 487 523
f 531 532 495
f 530 495 494
f 530 531 495
f 525 489 488
f 525 490 489
f 525 488 524
f 529 530 494
f 529 494 493
f 526 490 525
f 528 529 493
f 528 492 491
f 528 493 492
f 527 491 490
f 527 528 491
f 527 490 526
f 524 523 559
f 524 559 560
f 525 560 561
f 525 524 560
f 526 561 562
f 526 525 561
f 527 562 563
f 527 563 564
f 527 526 562
f 528 564 565
f 528 527 564
f 529 528 565
f 529 565 566
f 530 529 566
f 531 530 566
f 531 566 567
f 531 567 568
f 532 531 568
f 533 532 568
f 533 568 569
f 534 533 569
f 534 569 570
f 534 570 571
f 535 534 571
f 536 535 571
f 536 571 572
f 537 536 572
f 537 572 573
f 538 537 573
f 538 573 574
f 539 538 574
f 539 574 575
f 539 575 576
f 540 539 576
f 541 540 576
f 541 576 577
f 542 577 578
f 542 541 577
f 543 578 579
f 543 579 580
f 543 542 578
f 544 580 581
f 544 543 580
f 545 544 581
f 546 581 582
f 546 545 581
f 547 582 583
f 547 546 582
f 548 583 584
f 548 547 583
f 549 584 585
f 549 548 584
f 550 585 586
f 550 549 585
f 551 586 587
f 551 550 586
f 552 587 588
f 552 551 587
f 553 588 589
f 553 552 588
f 554 553 589
f 554 589 590
f 554 590 591
f 555 554 591
f 556 555 591
f 556 591 592
f 556 592 593
f 557 556 593
f 558 557 593
f 558 593 594
f 523 558 594
f 523 594 559
f 592 590 589
f 592 591 590
f 568 570 569
f 568 571 570
f 568 572 571
f 568 573 572
f 561 560 559
f 561 594 593
f 561 559 594
f 565 567 566
f 565 568 567
f 562 561 593
f 563 565 564
f 563 562 593
f 563 574 573
f 563 575 574
f 563 576 575
f 563 577 576
f 563 578 577
f 563 579 578
f 563 580 579
f 563 581 580
f 563 582 581
f 563 583 582
f 563 584 583
f 563 585 584
f 563 586 585
f 563 587 586
f 563 588 587
f 563 589 588
f 563 593 592
f 563 592 589
f 563 573 568
f 563 568 565
f 128 127 595
f 128 595 596
f 129 596 597
f 129 128 596
f 130 597 598
f 130 129 597
f 131 598 599
f 131 130 598
f 132 599 600
f 132 131 599
f 133 600 601
f 133 132 600
f 134 133 601
f 134 601 602
f 135 134 602
f 135 602 603
f 136 135 603
f 136 603 604
f 137 136 604
f 137 604 605
f 138 137 605
f 138 605 606
f 139 138 606
f 139 606 607
f 140 139 607
f 140 607 608
f 141 140 608
f 141 608 609
f 142 141 609
f 142 609 610
f 143 142 610
f 143 610 611
f 144 143 611
f 144 611 612
f 145 144 612
f 145 612 613
f 146 613 614
f 146 145 613
f 147 614 615
f 147 146 614
f 148 615 616
f 148 616 617
f 148 147 615
f 149 148 617
f 150 149 617
f 150 617 618
f 151 618 619
f 151 150 618
f 152 619 620
f 152 151 619
f 153 620 621
f 153 152 620
f 154 621 622
f 154 153 621
f 155 622 623
f 155 154 622
f 156 623 624
f 156 155 623
f 157 624 625
f 157 625 626
f 157 156 624
f 158 157 626
f 159 626 627
f 159 158 626
f 160 159 627
f 160 627 628
f 161 160 628
f 161 628 629
f 162 161 629
f 162 629 630
f 162 630 595
f 127 162 595
f 621 620 619
f 625 624 623
f 626 622 621
f 626 623 622
f 626 625 623
f 607 609 608
f 607 610 609
f 607 611 610
f 607 612 611
f 607 613 612
f 607 614 613
f 607 615 614
f 607 616 615
f 607 617 616
f 607 618 617
f 628 627 626
f 629 628 626
f 605 607 606
f 605 618 607
f 603 605 604
f 597 596 595
f 597 630 629
f 597 595 630
f 599 598 597
f 599 601 600
f 599 602 601
f 599 603 602
f 599 619 618
f 599 621 619
f 599 618 605
f 599 626 621
f 599 597 629
f 599 629 626
f 599 605 603
f 663 95 126
f 662 663 126
f 661 126 125
f 661 662 126
f 660 125 124
f 660 661 125
f 659 124 123
f 659 660 124
f 658 122 121
f 658 123 122
f 658 659 123
f 657 121 120
f 657 658 121
f 656 120 119
f 656 657 120
f 655 656 119
f 654 655 119
f 654 118 117
f 654 119 118
f 653 654 117
f 652 653 117
f 652 116 115
f 652 117 116
f 651 652 115
f 651 115 114
f 650 651 114
f 650 114 113
f 649 650 113
f 648 649 113
f 648 113 112
f 647 648 112
f 647 112 111
f 646 647 111
f 646 111 110
f 645 646 110
f 645 110 109
f 644 109 108
f 644 645 109
f 643 108 107
f 643 644 108
f 642 643 107
f 642 106 105
f 642 107 106
f 641 642 105
f 640 105 104
f 640 641 105
f 639 104 103
f 639 640 104
f 638 103 102
f 638 639 103
f 637 102 101
f 637 638 102
f 636 101 100
f 636 637 101
f 635 99 98
f 635 100 99
f 635 636 100
f 634 635 98
f 633 97 96
f 633 98 97
f 633 634 98
f 632 633 96
f 631 96 2
f 631 632 96
f 728 729 730
f 731 728 730
f 733 731 732
f 725 726 727
f 725 727 728
f 723 724 725
f 723 728 731
f 723 725 728
f 736 734 735
f 737 733 734
f 737 731 733
f 737 734 736
f 721 722 723
f 739 737 738
f 719 720 721
f 718 719 721
f 718 721 723
f 716 718 723
f 716 717 718
f 716 723 731
f 743 739 740
f 743 740 741
f 743 741 742
f 743 737 739
f 715 716 731
f 715 731 737
f 744 737 743
f 746 737 744
f 746 715 737
f 746 744 745
f 747 715 746
f 748 715 747
f 748 714 715
f 780 779 714
f 778 714 779
f 778 713 714
f 781 714 748
f 781 780 714
f 777 712 713
f 777 713 778
f 782 781 748
f 776 711 712
f 776 712 777
f 783 782 748
f 775 711 776
f 775 709 710
f 775 710 711
f 784 783 748
f 784 748 749
f 774 708 709
f 774 709 775
f 785 784 749
f 785 749 750
f 773 708 774
f 773 707 708
f 786 785 750
f 786 750 751
f 772 707 773
f 787 751 752
f 787 786 751
f 706 707 772
f 753 787 752
f 771 706 772
f 788 787 753
f 695 696 697
f 695 697 698
f 695 698 699
f 770 706 771
f 754 789 788
f 754 788 753
f 769 706 770
f 705 699 700
f 705 700 701
f 705 701 702
f 705 702 703
f 705 703 704
f 705 695 699
f 694 695 705
f 755 789 754
f 755 790 789
f 693 694 705
f 756 790 755
f 756 791 790
f 756 792 791
f 756 757 792
f 672 767 766
f 672 768 767
f 672 769 768
f 672 706 769
f 671 766 765
f 671 672 766
f 690 691 692
f 673 705 706
f 673 706 672
f 670 765 764
f 670 671 765
f 669 764 763
f 669 670 764
f 664 758 757
f 664 759 758
f 664 760 759
f 664 757 756
f 668 669 763
f 665 761 760
f 665 760 664
f 667 763 762
f 667 668 763
f 666 762 761
f 666 761 665
f 666 667 762
f 663 662 661
f 658 660 659
f 658 661 660
f 658 663 661
f 688 689 690
f 688 692 693
f 688 693 705
f 688 690 692
f 656 658 657
f 656 663 658
f 676 674 675
f 655 663 656
f 678 674 676
f 678 673 674
f 678 676 677
f 678 705 673
f 654 663 655
f 631 664 756
f 631 756 663
f 684 685 686
f 684 686 687
f 684 687 688
f 683 684 688
f 681 688 705
f 681 678 679
f 681 679 680
f 681 682 683
f 681 705 678
f 681 683 688
f 632 631 663
f 634 633 632
f 635 634 632
f 635 632 663
f 649 651 650
f 649 652 651
f 649 653 652
f 637 635 663
f 637 663 654
f 637 636 635
f 647 649 648
f 647 653 649
f 646 654 653
f 646 653 647
f 639 638 637
f 641 640 639
f 641 639 637
f 641 637 654
f 643 645 644
f 643 646 645
f 642 654 646
f 642 646 643
f 642 641 654
f 794 793 757
f 794 757 758
f 795 758 759
f 795 794 758
f 796 759 760
f 796 795 759
f 797 760 761
f 797 796 760
f 798 761 762
f 798 797 761
f 799 762 763
f 799 798 762
f 800 799 763
f 800 763 764
f 800 764 765
f 801 800 765
f 802 801 765
f 802 765 766
f 803 802 766
f 803 766 767
f 804 803 767
f 804 767 768
f 805 804 768
f 805 768 769
f 805 769 770
f 806 805 770
f 807 806 770
f 807 770 771
f 807 771 772
f 808 807 772
f 809 808 772
f 809 772 773
f 810 809 773
f 810 773 774
f 811 810 774
f 811 774 775
f 812 811 775
f 812 775 776
f 812 776 777
f 813 812 777
f 814 777 778
f 814 778 779
f 814 813 777
f 815 814 779
f 816 779 780
f 816 815 779
f 817 780 781
f 817 816 780
f 818 781 782
f 818 782 783
f 818 817 781
f 819 818 783
f 820 783 784
f 820 819 783
f 821 784 785
f 821 785 786
f 821 820 784
f 822 786 787
f 822 821 786
f 823 822 787
f 824 823 787
f 824 787 788
f 824 788 789
f 825 824 789
f 826 825 789
f 826 789 790
f 826 790 791
f 827 826 791
f 828 827 791
f 828 791 792
f 793 828 792
f 793 792 757
f 819 817 818
f 823 821 822
f 824 819 820
f 824 820 821
f 824 821 823
f 805 806 807
f 805 807 808
f 805 808 809
f 805 809 810
f 805 810 811
f 805 811 812
f 805 812 813
f 805 813 814
f 805 814 815
f 805 815 816
f 826 824 825
f 827 824 826
f 803 804 805
f 803 805 816
f 801 802 803
f 795 793 794
f 795 827 828
f 795 828 793
f 797 795 796
f 797 798 799
f 797 799 800
f 797 800 801
f 797 816 817
f 797 817 819
f 797 803 816
f 797 819 824
f 797 827 795
f 797 824 827
f 797 801 803
f 95 756 94
f 663 756 95
f 748 86 87
f 749 748 87
f 750 87 88
f 750 749 87
f 751 88 89
f 751 750 88
f 752 89 90
f 752 751 89
f 753 90 91
f 753 752 90
f 754 91 92
f 754 753 91
f 755 92 93
f 755 93 94
f 755 754 92
f 756 755 94
f 54 86 748
f 747 54 748
f 716 715 53
f 716 85 84
f 716 53 85
f 717 84 83
f 717 716 84
f 718 83 82
f 718 717 83
f 719 82 81
f 719 718 82
f 720 81 80
f 720 719 81
f 721 80 79
f 721 720 80
f 722 79 78
f 722 721 79
f 723 78 77
f 723 722 78
f 724 723 77
f 724 77 76
f 725 724 76
f 725 76 75
f 726 725 75
f 726 75 74
f 727 726 74
f 727 74 73
f 728 727 73
f 728 73 72
f 729 728 72
f 729 72 71
f 730 729 71
f 730 71 70
f 731 730 70
f 731 70 69
f 732 731 69
f 733 732 69
f 733 68 67
f 733 69 68
f 734 67 66
f 734 733 67
f 735 734 66
f 735 66 65
f 736 65 64
f 736 735 65
f 737 736 64
f 738 64 63
f 738 737 64
f 739 63 62
f 739 738 63
f 740 62 61
f 740 739 62
f 741 60 59
f 741 61 60
f 741 740 61
f 742 59 58
f 742 741 59
f 743 742 58
f 744 58 57
f 744 743 58
f 745 56 55
f 745 57 56
f 745 744 57
f 746 745 55
f 747 55 54
f 747 746 55
f 53 714 52
f 715 714 53
f 706 44 45
f 707 706 45
f 708 45 46
f 708 707 45
f 709 46 47
f 709 47 48
f 709 708 46
f 710 48 49
f 710 709 48
f 711 710 49
f 712 49 50
f 712 50 51
f 712 711 49
f 713 712 51
f 714 51 52
f 714 713 51
f 12 44 706
f 705 12 706
f 673 11 43
f 674 43 42
f 674 673 43
f 675 42 41
f 675 674 42
f 676 41 40
f 676 675 41
f 677 40 39
f 677 676 40
f 678 39 38
f 678 677 39
f 679 38 37
f 679 678 38
f 680 37 36
f 680 679 37
f 681 36 35
f 681 680 36
f 682 681 35
f 682 35 34
f 683 682 34
f 683 34 33
f 684 683 33
f 684 33 32
f 685 684 32
f 685 32 31
f 686 685 31
f 686 31 30
f 687 686 30
f 687 30 29
f 688 687 29
f 689 688 29
f 689 28 27
f 689 29 28
f 690 689 27
f 690 27 26
f 691 690 26
f 692 25 24
f 692 26 25
f 692 691 26
f 693 692 24
f 694 23 22
f 694 24 23
f 694 693 24
f 695 22 21
f 695 694 22
f 696 21 20
f 696 695 21
f 697 696 20
f 697 20 19
f 698 19 18
f 698 697 19
f 699 698 18
f 700 18 17
f 700 699 18
f 701 16 15
f 701 17 16
f 701 700 17
f 702 15 14
f 702 701 15
f 703 702 14
f 704 13 12
f 704 14 13
f 704 703 14
f 705 704 12
f 11 672 10
f 673 672 11
f 664 1 3
f 665 664 3
f 666 3 4
f 666 665 3
f 667 4 5
f 667 666 4
f 668 5 6
f 668 667 5
f 669 6 7
f 669 668 6
f 670 7 8
f 670 8 9
f 670 669 7
f 671 670 9
f 672 9 10
f 672 671 9
f 2 1 664
f 631 2 664
