# https://github.com/mikedh/trimesh

o geometry_1
v -6.44836200 -10.47222000 -3.25000000
v -8.09554400 -13.01485000 -3.25000000
v -8.81862300 -12.31393000 -3.25000000
v -6.24987100 -10.64807000 -3.25000000
v -7.22341900 -13.51837000 -3.25000000
v -6.59900200 -10.25398000 -3.25000000
v -9.34903300 -11.45789000 -3.25000000
v -6.01506500 -10.77130000 -3.25000000
v -6.25486300 -13.79412000 -3.25000000
v -6.69303600 -10.00603000 -3.25000000
v -9.65477400 -10.49838000 -3.25000000
v -5.75759000 -10.83477000 -3.25000000
v -5.24830700 -13.82544000 -3.25000000
v -6.72500000 -9.74278600 -3.25000000
v -9.71740100 -9.49328600 -3.25000000
v -5.49241000 -10.83477000 -3.25000000
v -4.26447700 -13.61047000 -3.25000000
v -6.69303600 -9.47953900 -3.25000000
v -9.53313700 -8.50324500 -3.25000000
v -5.23493500 -10.77130000 -3.25000000
v -3.36272600 -13.16216000 -3.25000000
v -6.59900200 -9.23159000 -3.25000000
v -9.11309800 -7.58798300 -3.25000000
v -5.00012900 -10.64807000 -3.25000000
v -6.44836200 -9.01335100 -3.25000000
v -8.48262400 -6.80272000 -3.25000000
v -2.59745700 -12.50756000 -3.25000000
v -4.80163800 -10.47222000 -3.25000000
v -6.24987100 -8.83750400 -3.25000000
v -7.67975100 -6.19482900 -3.25000000
v -6.01506500 -8.71426800 -3.25000000
v -2.01483700 -11.68617000 -3.25000000
v -4.65099800 -10.25398000 -3.25000000
v -6.75291700 -5.80098400 -3.25000000
v -5.75759000 -8.65080600 -3.25000000
v -1.65001700 -10.74753000 -3.25000000
v -4.55696400 -10.00603000 -3.25000000
v -5.75803600 -5.64494500 -3.25000000
v -5.49241000 -8.65080600 -3.25000000
v -1.52500400 -9.74827400 -3.25000000
v -4.52500000 -9.74278600 -3.25000000
v -4.55696400 -9.47953900 -3.25000000
v -4.75512900 -5.73612600 -3.25000000
v -5.00012900 -8.83750400 -3.25000000
v -5.23493500 -8.71426800 -3.25000000
v -1.64734100 -8.74869000 -3.25000000
v -4.65099800 -9.23159000 -3.25000000
v -2.00964700 -7.80907800 -3.25000000
v -4.80163800 -9.01335100 -3.25000000
v -2.59006600 -6.98612600 -3.25000000
v -0.49840940 -3.36327000 -3.25000000
v -2.66347300 -2.11327000 -3.25000000
v -0.76688740 -1.11102800 -3.25000000
v -1.01049000 -0.89521560 -3.25000000
v -1.19536600 -0.62737630 -3.25000000
v -3.06572700 -1.47014100 -3.25000000
v -0.47871660 -1.26227200 -3.25000000
v -1.31077100 -0.32307610 -3.25000000
v -3.31537900 -0.75383240 -3.25000000
v -0.16272450 -1.34015700 -3.25000000
v 0.25968420 -3.39006800 -3.25000000
v -1.35000000 0.00000000 -3.25000000
v -3.40000000 0.00000000 -3.25000000
v -3.31537900 0.75383240 -3.25000000
v 0.16272450 -1.34015700 -3.25000000
v 1.00485100 -3.24811800 -3.25000000
v -1.31077100 0.32307610 -3.25000000
v -3.06572700 1.47014100 -3.25000000
v 0.47871660 -1.26227200 -3.25000000
v 1.70000000 -2.94448600 -3.25000000
v -1.19536600 0.62737630 -3.25000000
v -2.66347300 2.11327000 -3.25000000
v 0.76688740 -1.11102800 -3.25000000
v 2.31052700 -2.49428600 -3.25000000
v -1.01049000 0.89521560 -3.25000000
v 1.01049000 -0.89521560 -3.25000000
v -0.76688740 1.11102800 -3.25000000
v 2.80604300 -1.91992700 -3.25000000
v 1.19536600 -0.62737630 -3.25000000
v 3.16188200 -1.25000000 -3.25000000
v 1.31077100 -0.32307610 -3.25000000
v 1.35000000 -0.00000000 -3.25000000
v -6.44836200 9.01335100 -3.25000000
v -8.48262400 6.80272000 -3.25000000
v -9.11309800 7.58798300 -3.25000000
v -6.24987100 8.83750400 -3.25000000
v -7.67975100 6.19482900 -3.25000000
v -6.59900200 9.23159000 -3.25000000
v -9.53313700 8.50324500 -3.25000000
v -6.01506500 8.71426800 -3.25000000
v -6.75291700 5.80098400 -3.25000000
v -6.69303600 9.47953900 -3.25000000
v -9.71740100 9.49328600 -3.25000000
v -0.49840940 3.36327000 -3.25000000
v -0.16272450 1.34015700 -3.25000000
v -0.47871660 1.26227200 -3.25000000
v -4.75512900 5.73612600 -3.25000000
v -5.75759000 8.65080600 -3.25000000
v -5.75803600 5.64494500 -3.25000000
v -6.72500000 9.74278600 -3.25000000
v -9.65477400 10.49838000 -3.25000000
v -5.49241000 8.65080600 -3.25000000
v -6.69303600 10.00603000 -3.25000000
v -9.34903300 11.45789000 -3.25000000
v -5.23493500 8.71426800 -3.25000000
v 0.25968420 3.39006800 -3.25000000
v 0.16272450 1.34015700 -3.25000000
v -6.59900200 10.25398000 -3.25000000
v -8.81862300 12.31393000 -3.25000000
v -5.00012900 8.83750400 -3.25000000
v -6.44836200 10.47222000 -3.25000000
v 1.00485100 3.24811800 -3.25000000
v 0.47871660 1.26227200 -3.25000000
v -2.59006600 6.98612600 -3.25000000
v -4.80163800 9.01335100 -3.25000000
v 3.16188200 1.25000000 -3.25000000
v 1.31077100 0.32307610 -3.25000000
v 1.19536600 0.62737630 -3.25000000
v 1.70000000 2.94448600 -3.25000000
v 0.76688740 1.11102800 -3.25000000
v 2.80604300 1.91992700 -3.25000000
v 1.01049000 0.89521560 -3.25000000
v 2.31052700 2.49428600 -3.25000000
v -8.09554400 13.01485000 -3.25000000
v -6.24987100 10.64807000 -3.25000000
v -2.00964700 7.80907800 -3.25000000
v -4.65099800 9.23159000 -3.25000000
v -7.22341900 13.51837000 -3.25000000
v -6.01506500 10.77130000 -3.25000000
v -1.64734100 8.74869000 -3.25000000
v -4.55696400 9.47953900 -3.25000000
v -6.25486300 13.79412000 -3.25000000
v -5.75759000 10.83477000 -3.25000000
v -1.52500400 9.74827400 -3.25000000
v -4.52500000 9.74278600 -3.25000000
v -4.55696400 10.00603000 -3.25000000
v -5.24830700 13.82544000 -3.25000000
v -5.49241000 10.83477000 -3.25000000
v 7.34519500 1.25000000 -3.25000000
v 7.34519500 -1.25000000 -3.25000000
v -1.65001700 10.74753000 -3.25000000
v -4.65099800 10.25398000 -3.25000000
v -4.26447700 13.61047000 -3.25000000
v -5.23493500 10.77130000 -3.25000000
v -2.01483700 11.68617000 -3.25000000
v -4.80163800 10.47222000 -3.25000000
v 10.42664000 -0.72943490 -3.25000000
v 8.40025800 -2.94770600 -3.25000000
v 7.76768400 -2.16413300 -3.25000000
v 10.62513000 -0.90528230 -3.25000000
v 9.20475500 -3.55344500 -3.25000000
v 10.27600000 -0.51119550 -3.25000000
v -3.36272600 13.16216000 -3.25000000
v -5.00012900 10.64807000 -3.25000000
v 10.85993000 -1.02851800 -3.25000000
v 10.13264000 -3.94480800 -3.25000000
v -2.59745700 12.50756000 -3.25000000
v 10.18196000 -0.26324720 -3.25000000
v 11.11741000 -1.09198000 -3.25000000
v 11.12794000 -4.09818300 -3.25000000
v 10.15000000 0.00000000 -3.25000000
v 11.38259000 -1.09198000 -3.25000000
v 12.13059000 -4.00431700 -3.25000000
v 10.18196000 0.26324720 -3.25000000
v 11.64007000 -1.02851800 -3.25000000
v 13.08013000 -3.66887300 -3.25000000
v 10.27600000 0.51119550 -3.25000000
v 7.76768400 2.16413300 -3.25000000
v 11.87487000 -0.90528230 -3.25000000
v 13.91925000 -3.11208900 -3.25000000
v 10.42664000 0.72943490 -3.25000000
v 12.07336000 -0.72943490 -3.25000000
v 8.40025800 2.94770600 -3.25000000
v 10.62513000 0.90528230 -3.25000000
v 14.59734000 -2.36755500 -3.25000000
v 12.22400000 -0.51119550 -3.25000000
v 9.20475500 3.55344500 -3.25000000
v 10.85993000 1.02851800 -3.25000000
v 15.07349000 -1.48018800 -3.25000000
v 12.31804000 -0.26324720 -3.25000000
v 10.13264000 3.94480800 -3.25000000
v 11.11741000 1.09198000 -3.25000000
v 15.31896000 -0.50352160 -3.25000000
v 12.35000000 -0.00000000 -3.25000000
v 11.12794000 4.09818300 -3.25000000
v 11.38259000 1.09198000 -3.25000000
v 15.31896000 0.50352160 -3.25000000
v 12.31804000 0.26324720 -3.25000000
v 12.13059000 4.00431700 -3.25000000
v 11.64007000 1.02851800 -3.25000000
v 15.07349000 1.48018800 -3.25000000
v 12.22400000 0.51119550 -3.25000000
v 13.08013000 3.66887300 -3.25000000
v 11.87487000 0.90528230 -3.25000000
v 14.59734000 2.36755500 -3.25000000
v 12.07336000 0.72943490 -3.25000000
v 13.91925000 3.11208900 -3.25000000
v -4.52500000 -9.74278600 -3.80000000
v -4.55696400 -9.47953900 -3.80000000
v -4.65099800 -9.23159000 -3.80000000
v -4.80163800 -9.01335100 -3.80000000
v -5.00012900 -8.83750400 -3.80000000
v -5.23493500 -8.71426800 -3.80000000
v -5.49241000 -8.65080600 -3.80000000
v -5.75759000 -8.65080600 -3.80000000
v -6.01506500 -8.71426800 -3.80000000
v -6.24987100 -8.83750400 -3.80000000
v -6.44836200 -9.01335100 -3.80000000
v -6.59900200 -9.23159000 -3.80000000
v -6.69303600 -9.47953900 -3.80000000
v -6.72500000 -9.74278600 -3.80000000
v -6.69303600 -10.00603000 -3.80000000
v -6.59900200 -10.25398000 -3.80000000
v -6.44836200 -10.47222000 -3.80000000
v -6.24987100 -10.64807000 -3.80000000
v -6.01506500 -10.77130000 -3.80000000
v -5.75759000 -10.83477000 -3.80000000
v -5.49241000 -10.83477000 -3.80000000
v -5.23493500 -10.77130000 -3.80000000
v -5.00012900 -10.64807000 -3.80000000
v -4.80163800 -10.47222000 -3.80000000
v -4.65099800 -10.25398000 -3.80000000
v -4.55696400 -10.00603000 -3.80000000
v -6.50824300 -10.52527000 -3.80000000
v -6.29531600 -10.71391000 -3.80000000
v -6.66983800 -10.29116000 -3.80000000
v -6.04343400 -10.84610000 -3.80000000
v -6.77071100 -10.02518000 -3.80000000
v -5.76723300 -10.91418000 -3.80000000
v -6.80500000 -9.74278600 -3.80000000
v -5.48276700 -10.91418000 -3.80000000
v -6.77071100 -9.46039300 -3.80000000
v -5.20656600 -10.84610000 -3.80000000
v -6.66983800 -9.19441200 -3.80000000
v -4.95468400 -10.71391000 -3.80000000
v -6.50824300 -8.96030100 -3.80000000
v -4.74175700 -10.52527000 -3.80000000
v -6.29531600 -8.77166500 -3.80000000
v -4.58016200 -10.29116000 -3.80000000
v -6.04343400 -8.63946700 -3.80000000
v -4.47928900 -10.02518000 -3.80000000
v -5.76723300 -8.57138900 -3.80000000
v -4.44500000 -9.74278600 -3.80000000
v -5.48276700 -8.57138900 -3.80000000
v -4.47928900 -9.46039300 -3.80000000
v -5.20656600 -8.63946700 -3.80000000
v -4.58016200 -9.19441200 -3.80000000
v -4.95468400 -8.77166500 -3.80000000
v -4.74175700 -8.96030100 -3.80000000
v -4.44500000 -9.74278600 -8.15000000
v -4.47928900 -9.46039300 -8.15000000
v -4.58016200 -9.19441200 -8.15000000
v -4.74175700 -8.96030100 -8.15000000
v -4.95468400 -8.77166500 -8.15000000
v -5.20656600 -8.63946700 -8.15000000
v -5.48276700 -8.57138900 -8.15000000
v -5.76723300 -8.57138900 -8.15000000
v -6.04343400 -8.63946700 -8.15000000
v -6.29531600 -8.77166500 -8.15000000
v -6.50824300 -8.96030100 -8.15000000
v -6.66983800 -9.19441200 -8.15000000
v -6.77071100 -9.46039300 -8.15000000
v -6.80500000 -9.74278600 -8.15000000
v -6.77071100 -10.02518000 -8.15000000
v -6.66983800 -10.29116000 -8.15000000
v -6.50824300 -10.52527000 -8.15000000
v -6.29531600 -10.71391000 -8.15000000
v -6.04343400 -10.84610000 -8.15000000
v -5.76723300 -10.91418000 -8.15000000
v -5.48276700 -10.91418000 -8.15000000
v -5.20656600 -10.84610000 -8.15000000
v -4.95468400 -10.71391000 -8.15000000
v -4.74175700 -10.52527000 -8.15000000
v -4.58016200 -10.29116000 -8.15000000
v -4.47928900 -10.02518000 -8.15000000
v -4.52500000 9.74278600 -3.80000000
v -4.55696400 10.00603000 -3.80000000
v -4.65099800 10.25398000 -3.80000000
v -4.80163800 10.47222000 -3.80000000
v -5.00012900 10.64807000 -3.80000000
v -5.23493500 10.77130000 -3.80000000
v -5.49241000 10.83477000 -3.80000000
v -5.75759000 10.83477000 -3.80000000
v -6.01506500 10.77130000 -3.80000000
v -6.24987100 10.64807000 -3.80000000
v -6.44836200 10.47222000 -3.80000000
v -6.59900200 10.25398000 -3.80000000
v -6.69303600 10.00603000 -3.80000000
v -6.72500000 9.74278600 -3.80000000
v -6.69303600 9.47953900 -3.80000000
v -6.59900200 9.23159000 -3.80000000
v -6.44836200 9.01335100 -3.80000000
v -6.24987100 8.83750400 -3.80000000
v -6.01506500 8.71426800 -3.80000000
v -5.75759000 8.65080600 -3.80000000
v -5.49241000 8.65080600 -3.80000000
v -5.23493500 8.71426800 -3.80000000
v -5.00012900 8.83750400 -3.80000000
v -4.80163800 9.01335100 -3.80000000
v -4.65099800 9.23159000 -3.80000000
v -4.55696400 9.47953900 -3.80000000
v -6.50824300 8.96030100 -3.80000000
v -6.29531600 8.77166500 -3.80000000
v -6.66983800 9.19441200 -3.80000000
v -6.04343400 8.63946700 -3.80000000
v -6.77071100 9.46039300 -3.80000000
v -5.76723300 8.57138900 -3.80000000
v -6.80500000 9.74278600 -3.80000000
v -5.48276700 8.57138900 -3.80000000
v -6.77071100 10.02518000 -3.80000000
v -5.20656600 8.63946700 -3.80000000
v -6.66983800 10.29116000 -3.80000000
v -4.95468400 8.77166500 -3.80000000
v -6.50824300 10.52527000 -3.80000000
v -4.74175700 8.96030100 -3.80000000
v -6.29531600 10.71391000 -3.80000000
v -4.58016200 9.19441200 -3.80000000
v -6.04343400 10.84610000 -3.80000000
v -4.47928900 9.46039300 -3.80000000
v -5.76723300 10.91418000 -3.80000000
v -4.44500000 9.74278600 -3.80000000
v -5.48276700 10.91418000 -3.80000000
v -4.47928900 10.02518000 -3.80000000
v -5.20656600 10.84610000 -3.80000000
v -4.58016200 10.29116000 -3.80000000
v -4.95468400 10.71391000 -3.80000000
v -4.74175700 10.52527000 -3.80000000
v -4.44500000 9.74278600 -8.15000000
v -4.47928900 10.02518000 -8.15000000
v -4.58016200 10.29116000 -8.15000000
v -4.74175700 10.52527000 -8.15000000
v -4.95468400 10.71391000 -8.15000000
v -5.20656600 10.84610000 -8.15000000
v -5.48276700 10.91418000 -8.15000000
v -5.76723300 10.91418000 -8.15000000
v -6.04343400 10.84610000 -8.15000000
v -6.29531600 10.71391000 -8.15000000
v -6.50824300 10.52527000 -8.15000000
v -6.66983800 10.29116000 -8.15000000
v -6.77071100 10.02518000 -8.15000000
v -6.80500000 9.74278600 -8.15000000
v -6.77071100 9.46039300 -8.15000000
v -6.66983800 9.19441200 -8.15000000
v -6.50824300 8.96030100 -8.15000000
v -6.29531600 8.77166500 -8.15000000
v -6.04343400 8.63946700 -8.15000000
v -5.76723300 8.57138900 -8.15000000
v -5.48276700 8.57138900 -8.15000000
v -5.20656600 8.63946700 -8.15000000
v -4.95468400 8.77166500 -8.15000000
v -4.74175700 8.96030100 -8.15000000
v -4.58016200 9.19441200 -8.15000000
v -4.47928900 9.46039300 -8.15000000
v 12.35000000 -0.00000000 -3.80000000
v 12.31804000 0.26324720 -3.80000000
v 12.22400000 0.51119550 -3.80000000
v 12.07336000 0.72943490 -3.80000000
v 11.87487000 0.90528230 -3.80000000
v 11.64007000 1.02851800 -3.80000000
v 11.38259000 1.09198000 -3.80000000
v 11.11741000 1.09198000 -3.80000000
v 10.85993000 1.02851800 -3.80000000
v 10.62513000 0.90528230 -3.80000000
v 10.42664000 0.72943490 -3.80000000
v 10.27600000 0.51119550 -3.80000000
v 10.18196000 0.26324720 -3.80000000
v 10.15000000 0.00000000 -3.80000000
v 10.18196000 -0.26324720 -3.80000000
v 10.27600000 -0.51119550 -3.80000000
v 10.42664000 -0.72943490 -3.80000000
v 10.62513000 -0.90528230 -3.80000000
v 10.85993000 -1.02851800 -3.80000000
v 11.11741000 -1.09198000 -3.80000000
v 11.38259000 -1.09198000 -3.80000000
v 11.64007000 -1.02851800 -3.80000000
v 11.87487000 -0.90528230 -3.80000000
v 12.07336000 -0.72943490 -3.80000000
v 12.22400000 -0.51119550 -3.80000000
v 12.31804000 -0.26324720 -3.80000000
v 10.36676000 -0.78248470 -3.80000000
v 10.57968000 -0.97112100 -3.80000000
v 10.20516000 -0.54837330 -3.80000000
v 10.83157000 -1.10331900 -3.80000000
v 10.10429000 -0.28239250 -3.80000000
v 11.10777000 -1.17139600 -3.80000000
v 10.07000000 0.00000000 -3.80000000
v 11.39223000 -1.17139600 -3.80000000
v 10.10429000 0.28239250 -3.80000000
v 11.66843000 -1.10331900 -3.80000000
v 10.20516000 0.54837330 -3.80000000
v 11.92032000 -0.97112100 -3.80000000
v 10.36676000 0.78248470 -3.80000000
v 12.13324000 -0.78248470 -3.80000000
v 10.57968000 0.97112100 -3.80000000
v 12.29484000 -0.54837330 -3.80000000
v 10.83157000 1.10331900 -3.80000000
v 12.39571000 -0.28239250 -3.80000000
v 11.10777000 1.17139600 -3.80000000
v 12.43000000 -0.00000000 -3.80000000
v 11.39223000 1.17139600 -3.80000000
v 12.39571000 0.28239250 -3.80000000
v 11.66843000 1.10331900 -3.80000000
v 12.29484000 0.54837330 -3.80000000
v 11.92032000 0.97112100 -3.80000000
v 12.13324000 0.78248470 -3.80000000
v 12.43000000 -0.00000000 -8.15000000
v 12.39571000 0.28239250 -8.15000000
v 12.29484000 0.54837330 -8.15000000
v 12.13324000 0.78248470 -8.15000000
v 11.92032000 0.97112100 -8.15000000
v 11.66843000 1.10331900 -8.15000000
v 11.39223000 1.17139600 -8.15000000
v 11.10777000 1.17139600 -8.15000000
v 10.83157000 1.10331900 -8.15000000
v 10.57968000 0.97112100 -8.15000000
v 10.36676000 0.78248470 -8.15000000
v 10.20516000 0.54837330 -8.15000000
v 10.10429000 0.28239250 -8.15000000
v 10.07000000 0.00000000 -8.15000000
v 10.10429000 -0.28239250 -8.15000000
v 10.20516000 -0.54837330 -8.15000000
v 10.36676000 -0.78248470 -8.15000000
v 10.57968000 -0.97112100 -8.15000000
v 10.83157000 -1.10331900 -8.15000000
v 11.10777000 -1.17139600 -8.15000000
v 11.39223000 -1.17139600 -8.15000000
v 11.66843000 -1.10331900 -8.15000000
v 11.92032000 -0.97112100 -8.15000000
v 12.13324000 -0.78248470 -8.15000000
v 12.29484000 -0.54837330 -8.15000000
v 12.39571000 -0.28239250 -8.15000000
v 1.35000000 -0.00000000 -3.30000000
v 1.31077100 0.32307610 -3.30000000
v 1.19536600 0.62737630 -3.30000000
v 1.01049000 0.89521560 -3.30000000
v 0.76688740 1.11102800 -3.30000000
v 0.47871660 1.26227200 -3.30000000
v 0.16272450 1.34015700 -3.30000000
v -0.16272450 1.34015700 -3.30000000
v -0.47871660 1.26227200 -3.30000000
v -0.76688740 1.11102800 -3.30000000
v -1.01049000 0.89521560 -3.30000000
v -1.19536600 0.62737630 -3.30000000
v -1.31077100 0.32307610 -3.30000000
v -1.35000000 0.00000000 -3.30000000
v -1.31077100 -0.32307610 -3.30000000
v -1.19536600 -0.62737630 -3.30000000
v -1.01049000 -0.89521560 -3.30000000
v -0.76688740 -1.11102800 -3.30000000
v -0.47871660 -1.26227200 -3.30000000
v -0.16272450 -1.34015700 -3.30000000
v 0.16272450 -1.34015700 -3.30000000
v 0.47871660 -1.26227200 -3.30000000
v 0.76688740 -1.11102800 -3.30000000
v 1.01049000 -0.89521560 -3.30000000
v 1.19536600 -0.62737630 -3.30000000
v 1.31077100 -0.32307610 -3.30000000
v 7.76768400 -2.16413300 -1.60000000
v 7.34519500 -1.25000000 -1.60000000
v 8.40025800 -2.94770600 -1.60000000
v 9.20475500 -3.55344500 -1.60000000
v 10.13264000 -3.94480800 -1.60000000
v 11.12794000 -4.09818300 -1.60000000
v 12.13059000 -4.00431700 -1.60000000
v 13.08013000 -3.66887300 -1.60000000
v 13.91925000 -3.11208900 -1.60000000
v 14.59734000 -2.36755500 -1.60000000
v 15.07349000 -1.48018800 -1.60000000
v 15.31896000 -0.50352160 -1.60000000
v 15.31896000 0.50352160 -1.60000000
v 15.07349000 1.48018800 -1.60000000
v 14.59734000 2.36755500 -1.60000000
v 13.91925000 3.11208900 -1.60000000
v 13.08013000 3.66887300 -1.60000000
v 12.13059000 4.00431700 -1.60000000
v 11.12794000 4.09818300 -1.60000000
v 10.13264000 3.94480800 -1.60000000
v 9.20475500 3.55344500 -1.60000000
v 8.40025800 2.94770600 -1.60000000
v 7.76768400 2.16413300 -1.60000000
v 7.34519500 1.25000000 -1.60000000
v -7.22341900 -13.51837000 -1.60000000
v -8.81862300 -12.31393000 -1.60000000
v -8.09554400 -13.01485000 -1.60000000
v -5.24830700 -13.82544000 -1.60000000
v -6.25486300 -13.79412000 -1.60000000
v -9.53313700 -8.50324500 -1.60000000
v -9.71740100 -9.49328600 -1.60000000
v -9.65477400 -10.49838000 -1.60000000
v -3.36272600 -13.16216000 -1.60000000
v -4.26447700 -13.61047000 -1.60000000
v -8.48262400 -6.80272000 -1.60000000
v -9.11309800 -7.58798300 -1.60000000
v -2.59745700 -12.50756000 -1.60000000
v -9.34903300 -11.45789000 -1.60000000
v -2.01483700 -11.68617000 -1.60000000
v -5.75803600 -5.64494500 -1.60000000
v -6.75291700 -5.80098400 -1.60000000
v -7.67975100 -6.19482900 -1.60000000
v -1.52500400 -9.74827400 -1.60000000
v -1.65001700 -10.74753000 -1.60000000
v -4.75512900 -5.73612600 -1.60000000
v -2.00964700 -7.80907800 -1.60000000
v -1.64734100 -8.74869000 -1.60000000
v -2.59006600 -6.98612600 -1.60000000
v -0.49840940 -3.36327000 -1.60000000
v -2.66347300 -2.11327000 -1.60000000
v -0.76688740 -1.11102800 -1.60000000
v -1.01049000 -0.89521560 -1.60000000
v -1.19536600 -0.62737630 -1.60000000
v -3.06572700 -1.47014100 -1.60000000
v -0.47871660 -1.26227200 -1.60000000
v -1.31077100 -0.32307610 -1.60000000
v -3.31537900 -0.75383240 -1.60000000
v -0.16272450 -1.34015700 -1.60000000
v 0.25968420 -3.39006800 -1.60000000
v -7.67975100 6.19482900 -1.60000000
v -9.11309800 7.58798300 -1.60000000
v -8.48262400 6.80272000 -1.60000000
v -1.35000000 0.00000000 -1.60000000
v -3.31537900 0.75383240 -1.60000000
v -3.40000000 0.00000000 -1.60000000
v 0.16272450 -1.34015700 -1.60000000
v 1.00485100 -3.24811800 -1.60000000
v -1.31077100 0.32307610 -1.60000000
v -3.06572700 1.47014100 -1.60000000
v 0.47871660 -1.26227200 -1.60000000
v 1.70000000 -2.94448600 -1.60000000
v -1.19536600 0.62737630 -1.60000000
v -2.66347300 2.11327000 -1.60000000
v 0.76688740 -1.11102800 -1.60000000
v 2.31052700 -2.49428600 -1.60000000
v -1.01049000 0.89521560 -1.60000000
v 1.01049000 -0.89521560 -1.60000000
v -0.76688740 1.11102800 -1.60000000
v -9.65477400 10.49838000 -1.60000000
v -9.71740100 9.49328600 -1.60000000
v -9.53313700 8.50324500 -1.60000000
v -6.75291700 5.80098400 -1.60000000
v 2.80604300 -1.91992700 -1.60000000
v 1.19536600 -0.62737630 -1.60000000
v 3.16188200 -1.25000000 -1.60000000
v 1.31077100 -0.32307610 -1.60000000
v 1.35000000 -0.00000000 -1.60000000
v -0.49840940 3.36327000 -1.60000000
v -0.47871660 1.26227200 -1.60000000
v -0.16272450 1.34015700 -1.60000000
v -4.75512900 5.73612600 -1.60000000
v 0.25968420 3.39006800 -1.60000000
v 0.16272450 1.34015700 -1.60000000
v 1.00485100 3.24811800 -1.60000000
v 0.47871660 1.26227200 -1.60000000
v -2.59006600 6.98612600 -1.60000000
v -5.75803600 5.64494500 -1.60000000
v 3.16188200 1.25000000 -1.60000000
v 1.31077100 0.32307610 -1.60000000
v 1.19536600 0.62737630 -1.60000000
v 1.70000000 2.94448600 -1.60000000
v 0.76688740 1.11102800 -1.60000000
v 2.80604300 1.91992700 -1.60000000
v 1.01049000 0.89521560 -1.60000000
v 2.31052700 2.49428600 -1.60000000
v -2.00964700 7.80907800 -1.60000000
v -1.64734100 8.74869000 -1.60000000
v -8.81862300 12.31393000 -1.60000000
v -9.34903300 11.45789000 -1.60000000
v -6.25486300 13.79412000 -1.60000000
v -7.22341900 13.51837000 -1.60000000
v -8.09554400 13.01485000 -1.60000000
v -2.01483700 11.68617000 -1.60000000
v -1.52500400 9.74827400 -1.60000000
v -1.65001700 10.74753000 -1.60000000
v -2.59745700 12.50756000 -1.60000000
v -3.36272600 13.16216000 -1.60000000
v -4.26447700 13.61047000 -1.60000000
v -5.24830700 13.82544000 -1.60000000
v 1.35000000 -0.00000000 5.80000000
v 1.31077100 0.32307610 5.80000000
v 1.19536600 0.62737630 5.80000000
v 1.01049000 0.89521560 5.80000000
v 0.76688740 1.11102800 5.80000000
v 0.47871660 1.26227200 5.80000000
v 0.16272450 1.34015700 5.80000000
v -0.16272450 1.34015700 5.80000000
v -0.47871660 1.26227200 5.80000000
v -0.76688740 1.11102800 5.80000000
v -1.01049000 0.89521560 5.80000000
v -1.19536600 0.62737630 5.80000000
v -1.31077100 0.32307610 5.80000000
v -1.35000000 0.00000000 5.80000000
v -1.31077100 -0.32307610 5.80000000
v -1.19536600 -0.62737630 5.80000000
v -1.01049000 -0.89521560 5.80000000
v -0.76688740 -1.11102800 5.80000000
v -0.47871660 -1.26227200 5.80000000
v -0.16272450 -1.34015700 5.80000000
v 0.16272450 -1.34015700 5.80000000
v 0.47871660 -1.26227200 5.80000000
v 0.76688740 -1.11102800 5.80000000
v 1.01049000 -0.89521560 5.80000000
v 1.19536600 -0.62737630 5.80000000
v 1.31077100 -0.32307610 5.80000000
f 1 2 3
f 4 2 1
f 4 5 2
f 6 1 3
f 6 3 7
f 8 5 4
f 8 9 5
f 10 6 7
f 10 7 11
f 12 9 8
f 12 13 9
f 14 10 11
f 14 11 15
f 16 13 12
f 16 17 13
f 18 14 15
f 18 15 19
f 20 17 16
f 20 21 17
f 22 18 19
f 22 19 23
f 24 21 20
f 25 22 23
f 26 25 23
f 27 21 24
f 27 24 28
f 29 25 26
f 30 29 26
f 30 31 29
f 32 27 28
f 32 28 33
f 34 35 31
f 34 31 30
f 36 32 33
f 36 33 37
f 38 39 35
f 38 35 34
f 40 41 42
f 40 36 37
f 40 37 41
f 43 39 38
f 43 44 45
f 43 45 39
f 46 40 42
f 46 42 47
f 48 47 49
f 48 46 47
f 50 44 43
f 50 49 44
f 50 48 49
f 51 43 52
f 51 50 43
f 53 51 52
f 53 52 54
f 55 54 52
f 55 52 56
f 57 51 53
f 58 55 56
f 58 56 59
f 60 51 57
f 60 61 51
f 62 58 59
f 62 63 64
f 62 59 63
f 65 61 60
f 65 66 61
f 67 64 68
f 67 62 64
f 69 66 65
f 69 70 66
f 71 67 68
f 72 71 68
f 73 70 69
f 74 70 73
f 75 71 72
f 76 74 73
f 77 75 72
f 78 76 79
f 78 74 76
f 80 78 79
f 80 79 81
f 80 81 82
f 83 84 85
f 86 87 84
f 86 84 83
f 88 85 89
f 88 83 85
f 90 91 87
f 90 87 86
f 92 89 93
f 92 88 89
f 94 95 96
f 94 96 77
f 94 72 97
f 94 77 72
f 98 99 91
f 98 91 90
f 100 92 93
f 100 93 101
f 102 97 99
f 102 99 98
f 103 100 101
f 103 101 104
f 105 97 102
f 106 95 94
f 106 107 95
f 108 104 109
f 108 103 104
f 110 97 105
f 111 108 109
f 112 107 106
f 112 113 107
f 114 97 110
f 114 110 115
f 114 94 97
f 116 80 82
f 116 82 117
f 116 117 118
f 119 113 112
f 119 120 113
f 121 116 118
f 121 118 122
f 123 120 119
f 123 121 122
f 123 122 120
f 124 111 109
f 124 125 111
f 126 114 115
f 126 115 127
f 128 125 124
f 128 129 125
f 130 127 131
f 130 126 127
f 132 133 129
f 132 129 128
f 134 135 136
f 134 131 135
f 134 130 131
f 137 133 132
f 137 138 133
f 139 140 80
f 139 80 116
f 141 136 142
f 141 134 136
f 143 144 138
f 143 138 137
f 145 141 142
f 145 142 146
f 147 148 149
f 150 148 147
f 150 151 148
f 152 147 149
f 152 149 140
f 153 144 143
f 153 154 144
f 155 151 150
f 155 156 151
f 157 154 153
f 157 146 154
f 157 145 146
f 158 152 140
f 159 156 155
f 159 160 156
f 161 158 140
f 161 140 139
f 162 160 159
f 162 163 160
f 164 161 139
f 165 163 162
f 165 166 163
f 167 164 139
f 167 139 168
f 169 166 165
f 169 170 166
f 171 167 168
f 172 170 169
f 173 171 168
f 174 171 173
f 175 170 172
f 175 172 176
f 177 178 174
f 177 174 173
f 179 176 180
f 179 175 176
f 181 182 178
f 181 178 177
f 183 180 184
f 183 179 180
f 185 186 182
f 185 182 181
f 187 184 188
f 187 183 184
f 189 190 186
f 189 186 185
f 191 188 192
f 191 187 188
f 193 194 190
f 193 190 189
f 195 192 196
f 195 191 192
f 197 196 194
f 197 194 193
f 197 195 196
f 42 41 198
f 42 198 199
f 47 199 200
f 47 42 199
f 49 200 201
f 49 47 200
f 44 201 202
f 44 49 201
f 45 202 203
f 45 44 202
f 39 203 204
f 39 45 203
f 35 204 205
f 35 39 204
f 31 205 206
f 31 35 205
f 29 206 207
f 29 31 206
f 25 207 208
f 25 29 207
f 22 208 209
f 22 25 208
f 18 22 209
f 18 209 210
f 18 210 211
f 14 18 211
f 14 211 212
f 10 14 212
f 6 10 212
f 6 212 213
f 1 6 213
f 1 213 214
f 4 1 214
f 4 214 215
f 4 215 216
f 8 4 216
f 12 8 216
f 12 216 217
f 16 12 217
f 16 217 218
f 20 16 218
f 20 218 219
f 24 20 219
f 24 219 220
f 28 24 220
f 28 220 221
f 33 221 222
f 33 28 221
f 37 222 223
f 37 33 222
f 41 223 198
f 41 37 223
f 215 224 225
f 215 214 224
f 213 226 224
f 213 224 214
f 216 225 227
f 216 215 225
f 212 228 226
f 212 226 213
f 217 227 229
f 217 216 227
f 211 230 228
f 211 228 212
f 218 229 231
f 218 217 229
f 210 232 230
f 210 230 211
f 219 231 233
f 219 218 231
f 209 234 232
f 209 232 210
f 220 233 235
f 220 219 233
f 236 234 209
f 208 236 209
f 237 221 220
f 237 220 235
f 207 236 208
f 238 236 207
f 239 221 237
f 239 222 221
f 206 238 207
f 240 238 206
f 223 222 239
f 241 223 239
f 242 240 206
f 242 206 205
f 198 223 241
f 243 198 241
f 244 242 205
f 244 205 204
f 199 198 243
f 245 199 243
f 200 199 245
f 246 204 203
f 246 244 204
f 247 201 200
f 247 200 245
f 248 202 201
f 248 203 202
f 248 246 203
f 249 201 247
f 249 248 201
f 245 243 250
f 245 250 251
f 247 251 252
f 247 245 251
f 249 252 253
f 249 247 252
f 248 253 254
f 248 249 253
f 246 254 255
f 246 248 254
f 244 255 256
f 244 246 255
f 242 256 257
f 242 244 256
f 240 257 258
f 240 242 257
f 238 258 259
f 238 240 258
f 236 259 260
f 236 238 259
f 234 260 261
f 234 236 260
f 232 234 261
f 232 261 262
f 230 232 262
f 230 262 263
f 230 263 264
f 228 230 264
f 226 228 264
f 226 264 265
f 224 226 265
f 224 265 266
f 225 224 266
f 225 266 267
f 225 267 268
f 227 225 268
f 227 268 269
f 229 227 269
f 231 229 269
f 231 269 270
f 231 270 271
f 233 231 271
f 233 271 272
f 235 233 272
f 237 235 272
f 237 272 273
f 239 273 274
f 239 274 275
f 239 237 273
f 241 275 250
f 241 239 275
f 243 241 250
f 263 265 264
f 272 269 268
f 272 270 269
f 272 271 270
f 274 273 272
f 258 260 259
f 257 261 260
f 257 260 258
f 250 266 265
f 250 267 266
f 250 268 267
f 250 275 274
f 250 272 268
f 250 274 272
f 254 256 255
f 253 251 250
f 253 252 251
f 253 257 256
f 253 262 261
f 253 263 262
f 253 265 263
f 253 261 257
f 253 250 265
f 253 256 254
f 136 135 276
f 136 276 277
f 142 277 278
f 142 136 277
f 146 278 279
f 146 142 278
f 154 279 280
f 154 146 279
f 144 280 281
f 144 154 280
f 138 281 282
f 138 144 281
f 133 282 283
f 133 138 282
f 129 283 284
f 129 133 283
f 125 284 285
f 125 129 284
f 111 285 286
f 111 125 285
f 108 286 287
f 108 111 286
f 103 108 287
f 103 287 288
f 103 288 289
f 100 103 289
f 100 289 290
f 92 100 290
f 88 92 290
f 88 290 291
f 83 88 291
f 83 291 292
f 86 83 292
f 86 292 293
f 86 293 294
f 90 86 294
f 98 90 294
f 98 294 295
f 102 98 295
f 102 295 296
f 105 102 296
f 105 296 297
f 110 105 297
f 110 297 298
f 115 110 298
f 115 298 299
f 127 299 300
f 127 115 299
f 131 300 301
f 131 127 300
f 135 301 276
f 135 131 301
f 293 302 303
f 293 292 302
f 291 304 302
f 291 302 292
f 294 303 305
f 294 293 303
f 290 306 304
f 290 304 291
f 295 305 307
f 295 294 305
f 289 308 306
f 289 306 290
f 296 307 309
f 296 295 307
f 288 310 308
f 288 308 289
f 297 309 311
f 297 296 309
f 287 312 310
f 287 310 288
f 298 311 313
f 298 297 311
f 314 312 287
f 286 314 287
f 315 299 298
f 315 298 313
f 285 314 286
f 316 314 285
f 317 299 315
f 317 300 299
f 284 316 285
f 318 316 284
f 301 300 317
f 319 301 317
f 320 318 284
f 320 284 283
f 276 301 319
f 321 276 319
f 322 320 283
f 322 283 282
f 277 276 321
f 323 277 321
f 278 277 323
f 324 282 281
f 324 322 282
f 325 279 278
f 325 278 323
f 326 280 279
f 326 281 280
f 326 324 281
f 327 279 325
f 327 326 279
f 323 321 328
f 323 328 329
f 325 329 330
f 325 323 329
f 327 330 331
f 327 325 330
f 326 331 332
f 326 327 331
f 324 332 333
f 324 326 332
f 322 333 334
f 322 324 333
f 320 334 335
f 320 322 334
f 318 335 336
f 318 320 335
f 316 336 337
f 316 318 336
f 314 337 338
f 314 316 337
f 312 338 339
f 312 314 338
f 310 312 339
f 310 339 340
f 308 310 340
f 308 340 341
f 308 341 342
f 306 308 342
f 304 306 342
f 304 342 343
f 302 304 343
f 302 343 344
f 303 302 344
f 303 344 345
f 303 345 346
f 305 303 346
f 305 346 347
f 307 305 347
f 309 307 347
f 309 347 348
f 309 348 349
f 311 309 349
f 311 349 350
f 313 311 350
f 315 313 350
f 315 350 351
f 317 351 352
f 317 352 353
f 317 315 351
f 319 353 328
f 319 317 353
f 321 319 328
f 341 343 342
f 350 347 346
f 350 348 347
f 350 349 348
f 352 351 350
f 336 338 337
f 335 339 338
f 335 338 336
f 328 344 343
f 328 345 344
f 328 346 345
f 328 353 352
f 328 350 346
f 328 352 350
f 332 334 333
f 331 329 328
f 331 330 329
f 331 335 334
f 331 340 339
f 331 341 340
f 331 343 341
f 331 339 335
f 331 328 343
f 331 334 332
f 188 184 354
f 188 354 355
f 192 355 356
f 192 188 355
f 196 356 357
f 196 192 356
f 194 357 358
f 194 196 357
f 190 358 359
f 190 194 358
f 186 359 360
f 186 190 359
f 182 360 361
f 182 186 360
f 178 361 362
f 178 182 361
f 174 362 363
f 174 178 362
f 171 363 364
f 171 174 363
f 167 364 365
f 167 171 364
f 164 167 365
f 164 365 366
f 164 366 367
f 161 164 367
f 161 367 368
f 158 161 368
f 152 158 368
f 152 368 369
f 147 152 369
f 147 369 370
f 150 147 370
f 150 370 371
f 150 371 372
f 155 150 372
f 159 155 372
f 159 372 373
f 162 159 373
f 162 373 374
f 165 162 374
f 165 374 375
f 169 165 375
f 169 375 376
f 172 169 376
f 172 376 377
f 176 377 378
f 176 172 377
f 180 378 379
f 180 176 378
f 184 379 354
f 184 180 379
f 371 380 381
f 371 370 380
f 369 382 380
f 369 380 370
f 372 381 383
f 372 371 381
f 368 384 382
f 368 382 369
f 373 383 385
f 373 372 383
f 367 386 384
f 367 384 368
f 374 385 387
f 374 373 385
f 366 388 386
f 366 386 367
f 375 387 389
f 375 374 387
f 365 390 388
f 365 388 366
f 376 389 391
f 376 375 389
f 364 392 390
f 364 390 365
f 393 377 376
f 393 376 391
f 394 364 363
f 394 392 364
f 395 378 377
f 395 377 393
f 362 394 363
f 396 394 362
f 397 378 395
f 397 379 378
f 398 396 362
f 398 362 361
f 354 379 397
f 399 354 397
f 400 398 361
f 400 361 360
f 401 355 354
f 401 354 399
f 402 400 360
f 402 360 359
f 403 355 401
f 403 356 355
f 404 359 358
f 404 402 359
f 405 357 356
f 405 358 357
f 405 356 403
f 405 404 358
f 401 399 406
f 401 406 407
f 403 407 408
f 403 401 407
f 405 408 409
f 405 403 408
f 404 409 410
f 404 405 409
f 402 410 411
f 402 404 410
f 400 411 412
f 400 402 411
f 398 412 413
f 398 400 412
f 396 413 414
f 396 398 413
f 394 414 415
f 394 396 414
f 392 415 416
f 392 394 415
f 390 416 417
f 390 392 416
f 388 390 417
f 388 417 418
f 386 388 418
f 386 418 419
f 386 419 420
f 384 386 420
f 382 384 420
f 382 420 421
f 380 382 421
f 380 421 422
f 381 380 422
f 381 422 423
f 381 423 424
f 383 381 424
f 383 424 425
f 385 383 425
f 387 385 425
f 387 425 426
f 387 426 427
f 389 387 427
f 389 427 428
f 391 389 428
f 393 391 428
f 393 428 429
f 395 429 430
f 395 430 431
f 395 393 429
f 397 431 406
f 397 395 431
f 399 397 406
f 424 423 422
f 428 425 424
f 428 426 425
f 428 427 426
f 431 429 428
f 431 430 429
f 410 412 411
f 410 413 412
f 409 407 406
f 409 408 407
f 409 414 413
f 409 415 414
f 409 416 415
f 409 417 416
f 409 418 417
f 409 419 418
f 409 420 419
f 409 421 420
f 409 422 421
f 409 406 431
f 409 424 422
f 409 428 424
f 409 431 428
f 409 413 410
f 117 82 432
f 117 432 433
f 118 433 434
f 118 117 433
f 122 434 435
f 122 118 434
f 120 435 436
f 120 122 435
f 113 436 437
f 113 120 436
f 107 437 438
f 107 113 437
f 95 438 439
f 95 107 438
f 96 439 440
f 96 95 439
f 77 440 441
f 77 96 440
f 75 441 442
f 75 77 441
f 71 442 443
f 71 75 442
f 67 71 443
f 67 443 444
f 62 67 444
f 62 444 445
f 58 62 445
f 58 445 446
f 55 58 446
f 55 446 447
f 54 55 447
f 54 447 448
f 53 54 448
f 53 448 449
f 57 53 449
f 57 449 450
f 60 57 450
f 60 450 451
f 65 60 451
f 65 451 452
f 69 65 452
f 69 452 453
f 73 69 453
f 73 453 454
f 76 73 454
f 76 454 455
f 76 455 456
f 79 76 456
f 81 456 457
f 81 79 456
f 82 457 432
f 82 81 457
f 446 448 447
f 444 446 445
f 456 455 454
f 440 442 441
f 440 443 442
f 440 444 443
f 457 454 453
f 457 456 454
f 437 439 438
f 435 433 432
f 435 434 433
f 435 437 436
f 435 440 439
f 435 449 448
f 435 450 449
f 435 451 450
f 435 452 451
f 435 453 452
f 435 432 457
f 435 448 446
f 435 446 444
f 435 444 440
f 435 457 453
f 435 439 437
f 458 459 140
f 458 140 149
f 460 149 148
f 460 458 149
f 461 148 151
f 461 460 148
f 462 151 156
f 462 461 151
f 463 156 160
f 463 462 156
f 464 160 163
f 464 463 160
f 465 163 166
f 465 464 163
f 466 166 170
f 466 465 166
f 467 170 175
f 467 466 170
f 468 175 179
f 468 467 175
f 469 179 183
f 469 468 179
f 470 187 191
f 470 183 187
f 470 469 183
f 471 470 191
f 472 471 191
f 472 195 197
f 472 191 195
f 473 472 197
f 474 473 197
f 474 193 189
f 474 197 193
f 475 474 189
f 476 475 189
f 476 189 185
f 477 185 181
f 477 476 185
f 478 477 181
f 478 181 177
f 479 177 173
f 479 478 177
f 480 173 168
f 480 479 173
f 481 168 139
f 481 480 168
f 482 483 484
f 485 482 486
f 487 488 489
f 490 482 485
f 490 485 491
f 492 487 489
f 492 493 487
f 494 483 482
f 494 482 490
f 494 495 483
f 496 492 489
f 496 489 495
f 496 495 494
f 497 498 499
f 497 499 492
f 500 496 501
f 502 497 492
f 503 492 496
f 503 500 504
f 503 496 500
f 503 502 492
f 505 502 503
f 506 507 502
f 506 502 505
f 508 507 506
f 508 509 507
f 510 511 507
f 510 507 509
f 512 508 506
f 513 514 511
f 513 511 510
f 515 506 516
f 515 512 506
f 517 518 519
f 520 521 522
f 520 522 514
f 520 514 513
f 523 516 524
f 523 515 516
f 525 526 521
f 525 521 520
f 527 523 524
f 527 524 528
f 529 526 525
f 530 526 529
f 531 527 528
f 532 531 528
f 533 530 529
f 534 531 532
f 535 530 533
f 536 518 517
f 536 537 538
f 536 538 518
f 536 517 539
f 540 541 534
f 540 534 532
f 542 543 541
f 542 544 543
f 542 541 540
f 545 546 547
f 545 535 546
f 545 548 530
f 545 530 535
f 549 545 547
f 549 547 550
f 551 549 550
f 551 550 552
f 553 554 548
f 553 548 545
f 555 544 542
f 555 556 544
f 555 557 556
f 558 551 552
f 558 552 559
f 560 557 555
f 560 561 557
f 562 558 559
f 562 561 560
f 562 559 561
f 563 554 553
f 459 460 461
f 459 458 460
f 462 459 461
f 564 565 566
f 564 566 536
f 564 539 554
f 564 536 539
f 564 554 563
f 567 568 569
f 567 569 565
f 464 459 462
f 464 462 463
f 481 555 542
f 481 542 459
f 570 564 571
f 570 571 572
f 570 565 564
f 573 567 565
f 573 565 570
f 573 574 575
f 573 575 576
f 573 576 567
f 466 464 465
f 467 459 464
f 467 464 466
f 478 480 481
f 478 479 480
f 478 481 459
f 468 459 467
f 468 478 459
f 476 477 478
f 475 476 478
f 471 469 470
f 472 469 471
f 472 468 469
f 473 478 468
f 473 475 478
f 473 468 472
f 473 474 475
f 577 544 556
f 578 556 557
f 578 577 556
f 579 578 557
f 580 557 561
f 580 561 559
f 580 579 557
f 581 580 559
f 582 559 552
f 582 581 559
f 583 552 550
f 583 550 547
f 583 582 552
f 584 583 547
f 585 547 546
f 585 584 547
f 586 546 535
f 586 585 546
f 587 535 533
f 587 586 535
f 588 533 529
f 588 587 533
f 589 588 529
f 589 529 525
f 589 525 520
f 590 589 520
f 591 590 520
f 591 520 513
f 592 591 513
f 592 513 510
f 592 510 509
f 593 592 509
f 593 509 508
f 594 593 508
f 595 594 508
f 595 508 512
f 596 595 512
f 596 512 515
f 597 596 515
f 597 515 523
f 598 597 523
f 598 523 527
f 598 527 531
f 599 598 531
f 600 599 531
f 600 531 534
f 601 534 541
f 601 600 534
f 602 541 543
f 602 601 541
f 577 602 543
f 577 543 544
f 591 592 593
f 589 590 591
f 601 599 600
f 585 586 587
f 585 587 588
f 585 588 589
f 602 598 599
f 602 599 601
f 582 583 584
f 580 577 578
f 580 578 579
f 580 581 582
f 580 584 585
f 580 593 594
f 580 594 595
f 580 595 596
f 580 596 597
f 580 597 598
f 580 602 577
f 580 591 593
f 580 589 591
f 580 585 589
f 580 598 602
f 580 582 584
f 459 80 140
f 459 542 80
f 516 506 51
f 516 51 61
f 524 61 66
f 524 516 61
f 528 66 70
f 528 524 66
f 532 70 74
f 532 74 78
f 532 528 70
f 540 532 78
f 542 78 80
f 542 540 78
f 505 50 51
f 505 51 506
f 502 43 38
f 497 502 38
f 498 38 34
f 498 497 38
f 499 34 30
f 499 498 34
f 492 30 26
f 492 499 30
f 493 26 23
f 493 492 26
f 487 23 19
f 487 493 23
f 488 19 15
f 488 487 19
f 489 15 11
f 489 488 15
f 495 11 7
f 495 489 11
f 483 7 3
f 483 495 7
f 484 3 2
f 484 483 3
f 482 2 5
f 482 484 2
f 486 482 5
f 486 5 9
f 485 486 9
f 485 13 17
f 485 9 13
f 491 485 17
f 490 491 17
f 490 17 21
f 494 490 21
f 494 21 27
f 496 494 27
f 496 27 32
f 501 36 40
f 501 32 36
f 501 496 32
f 500 501 40
f 504 40 46
f 504 500 40
f 503 46 48
f 503 504 46
f 505 48 50
f 505 503 48
f 502 52 43
f 502 507 52
f 526 530 72
f 526 72 68
f 521 68 64
f 521 526 68
f 522 64 63
f 522 521 64
f 514 63 59
f 514 59 56
f 514 522 63
f 511 56 52
f 511 514 56
f 507 511 52
f 548 97 72
f 548 72 530
f 553 114 126
f 563 553 126
f 564 126 130
f 564 563 126
f 571 130 134
f 571 564 130
f 572 134 141
f 572 571 134
f 570 141 145
f 570 572 141
f 573 145 157
f 573 570 145
f 574 157 153
f 574 573 157
f 575 153 143
f 575 574 153
f 576 143 137
f 576 575 143
f 567 137 132
f 567 576 137
f 568 128 124
f 568 132 128
f 568 567 132
f 569 124 109
f 569 568 124
f 565 569 109
f 565 109 104
f 566 565 104
f 536 566 104
f 536 104 101
f 537 536 101
f 537 101 93
f 538 537 93
f 538 93 89
f 518 538 89
f 518 85 84
f 518 89 85
f 519 518 84
f 517 84 87
f 517 519 84
f 539 91 99
f 539 87 91
f 539 517 87
f 554 99 97
f 554 539 99
f 548 554 97
f 553 94 114
f 553 545 94
f 560 555 116
f 560 116 121
f 562 121 123
f 562 560 121
f 558 123 119
f 558 562 123
f 551 119 112
f 551 558 119
f 549 112 106
f 549 551 112
f 545 106 94
f 545 549 106
f 481 139 116
f 481 116 555
