# https://github.com/mikedh/trimesh

o geometry_1
v 20.15196000 2.83217300 14.40000000
v 20.35000000 -0.00000000 14.40000000
v 20.35000000 -0.00000000 12.00000000
v 20.15196000 2.83217300 12.00000000
v 19.56168000 5.60922000 14.40000000
v 19.56168000 5.60922000 12.00000000
v 18.59065000 8.27709100 14.40000000
v 18.59065000 8.27709100 12.00000000
v 17.25778000 10.78386000 14.40000000
v 17.25778000 10.78386000 12.00000000
v 15.58900000 13.08073000 12.00000000
v 15.58900000 13.08073000 14.40000000
v 13.61681000 15.12300000 14.40000000
v 13.61681000 15.12300000 12.00000000
v 11.37958000 16.87091000 12.00000000
v 11.37958000 16.87091000 14.40000000
v 8.92085300 18.29046000 14.40000000
v 8.92085300 18.29046000 12.00000000
v 6.28849600 19.35400000 12.00000000
v 6.28849600 19.35400000 14.40000000
v 3.53374000 20.04084000 14.40000000
v 3.53374000 20.04084000 12.00000000
v 0.71020480 20.33760000 14.40000000
v 0.71020480 20.33760000 12.00000000
v -2.12715400 20.23852000 14.40000000
v -2.12715400 20.23852000 12.00000000
v -4.92311100 19.74552000 14.40000000
v -4.92311100 19.74552000 12.00000000
v -7.62324400 18.86819000 14.40000000
v -7.62324400 18.86819000 12.00000000
v -10.17500000 17.62362000 12.00000000
v -10.17500000 17.62362000 14.40000000
v -12.52871000 16.03602000 14.40000000
v -12.52871000 16.03602000 12.00000000
v -14.63856000 14.13630000 12.00000000
v -14.63856000 14.13630000 14.40000000
v -16.46350000 11.96143000 12.00000000
v -16.46350000 11.96143000 14.40000000
v -17.96798000 9.55374600 12.00000000
v -17.96798000 9.55374600 14.40000000
v -19.12274000 6.96011000 14.40000000
v -19.12274000 6.96011000 12.00000000
v -19.90530000 4.23100300 12.00000000
v -19.90530000 4.23100300 14.40000000
v -20.30043000 1.41954400 12.00000000
v -20.30043000 1.41954400 14.40000000
v -20.30043000 -1.41954400 14.40000000
v -20.30043000 -1.41954400 12.00000000
v -19.90530000 -4.23100300 14.40000000
v -19.90530000 -4.23100300 12.00000000
v -19.12274000 -6.96011000 14.40000000
v -19.12274000 -6.96011000 12.00000000
v -17.96798000 -9.55374600 12.00000000
v -17.96798000 -9.55374600 14.40000000
v -16.46350000 -11.96143000 14.40000000
v -16.46350000 -11.96143000 12.00000000
v -14.63856000 -14.13630000 12.00000000
v -14.63856000 -14.13630000 14.40000000
v -12.52871000 -16.03602000 12.00000000
v -12.52871000 -16.03602000 14.40000000
v -10.17500000 -17.62362000 12.00000000
v -10.17500000 -17.62362000 14.40000000
v -7.62324400 -18.86819000 12.00000000
v -7.62324400 -18.86819000 14.40000000
v -4.92311100 -19.74552000 12.00000000
v -4.92311100 -19.74552000 14.40000000
v -2.12715400 -20.23852000 14.40000000
v -2.12715400 -20.23852000 12.00000000
v 0.71020480 -20.33760000 12.00000000
v 0.71020480 -20.33760000 14.40000000
v 3.53374000 -20.04084000 14.40000000
v 3.53374000 -20.04084000 12.00000000
v 6.28849600 -19.35400000 14.40000000
v 6.28849600 -19.35400000 12.00000000
v 8.92085300 -18.29046000 14.40000000
v 8.92085300 -18.29046000 12.00000000
v 11.37958000 -16.87091000 12.00000000
v 11.37958000 -16.87091000 14.40000000
v 13.61681000 -15.12300000 12.00000000
v 13.61681000 -15.12300000 14.40000000
v 15.58900000 -13.08073000 14.40000000
v 15.58900000 -13.08073000 12.00000000
v 17.25778000 -10.78386000 14.40000000
v 17.25778000 -10.78386000 12.00000000
v 18.59065000 -8.27709100 12.00000000
v 18.59065000 -8.27709100 14.40000000
v 19.56168000 -5.60922000 14.40000000
v 19.56168000 -5.60922000 12.00000000
v 20.15196000 -2.83217300 14.40000000
v 20.15196000 -2.83217300 12.00000000
v -11.86185000 -12.86649000 14.40000000
v -13.62357000 -10.98400000 14.40000000
v -9.84264900 -14.46970000 14.40000000
v -15.08959000 -8.86308800 14.40000000
v -7.60980500 -15.75883000 14.40000000
v -16.22807000 -6.54979500 14.40000000
v -5.21178300 -16.70591000 14.40000000
v -17.01430000 -4.09433300 14.40000000
v -18.60000000 -1.55000000 14.40000000
v -2.70063400 -17.29036000 14.40000000
v -17.43122000 -1.55000000 14.40000000
v -0.13086480 -17.49951000 14.40000000
v -18.60000000 1.55000000 14.40000000
v 2.44174500 -17.32882000 14.40000000
v -17.01430000 4.09433300 14.40000000
v -17.43122000 1.55000000 14.40000000
v 4.96135400 -16.78198000 14.40000000
v -16.22807000 6.54979500 14.40000000
v 7.95766100 -16.88307000 14.40000000
v 7.37327200 -15.87088000 14.40000000
v -15.08959000 8.86308800 14.40000000
v 10.64234000 -15.33307000 14.40000000
v -13.62357000 10.98400000 14.40000000
v 11.91864000 -12.81390000 14.40000000
v 10.05795000 -14.32088000 14.40000000
v -11.86185000 12.86649000 14.40000000
v 13.55621000 -11.06703000 14.40000000
v -9.84264900 14.46970000 14.40000000
v 14.94000000 -9.11298600 14.40000000
v -7.60980500 15.75883000 14.40000000
v 16.04410000 -6.98834000 14.40000000
v -5.21178300 16.70591000 14.40000000
v 16.84785000 -4.73286700 14.40000000
v -2.70063400 17.29036000 14.40000000
v 17.33620000 -2.38879300 14.40000000
v -0.13086480 17.49951000 14.40000000
v 17.33620000 2.38879300 14.40000000
v 17.50000000 -0.00000000 14.40000000
v 2.44174500 17.32882000 14.40000000
v 16.84785000 4.73286700 14.40000000
v 4.96135400 16.78198000 14.40000000
v 7.95766100 16.88307000 14.40000000
v 7.37327200 15.87088000 14.40000000
v 16.04410000 6.98834000 14.40000000
v 10.64234000 15.33307000 14.40000000
v 10.05795000 14.32088000 14.40000000
v 11.91864000 12.81390000 14.40000000
v 14.94000000 9.11298600 14.40000000
v 13.55621000 11.06703000 14.40000000
v -11.71524000 -10.85994000 12.00000000
v -11.89568000 -10.70008000 12.00000000
v -12.03263000 -10.50168000 12.00000000
v -11.50178000 -10.97198000 12.00000000
v -12.11811000 -10.27627000 12.00000000
v -11.26771000 -11.02967000 12.00000000
v -12.14717000 -10.03696000 12.00000000
v -11.02664000 -11.02967000 12.00000000
v -12.11811000 -9.79764300 12.00000000
v -10.79257000 -10.97198000 12.00000000
v -12.03263000 -9.57223600 12.00000000
v -10.57911000 -10.85994000 12.00000000
v -11.89568000 -9.37383600 12.00000000
v -11.71524000 -9.21397500 12.00000000
v -11.50178000 -9.10194300 12.00000000
v -11.26771000 -9.04425000 12.00000000
v -3.86718600 -15.33534000 12.00000000
v -3.68674000 -15.49520000 12.00000000
v -4.00413100 -15.13694000 12.00000000
v -3.47328000 -15.60723000 12.00000000
v -4.08961700 -14.91153000 12.00000000
v -3.23921200 -15.66492000 12.00000000
v -4.11867500 -14.67221000 12.00000000
v -2.99813900 -15.66492000 12.00000000
v -4.08961700 -14.43290000 12.00000000
v -10.39866000 -10.70008000 12.00000000
v -2.76407000 -15.60723000 12.00000000
v -4.00413100 -14.20749000 12.00000000
v -10.26172000 -10.50168000 12.00000000
v -2.55061100 -15.49520000 12.00000000
v -3.86718600 -14.00909000 12.00000000
v -10.17623000 -10.27627000 12.00000000
v -2.37016500 -15.33534000 12.00000000
v -3.68674000 -13.84923000 12.00000000
v -10.14717000 -10.03696000 12.00000000
v -2.23321900 -15.13694000 12.00000000
v -3.47328000 -13.73720000 12.00000000
v -10.17623000 -9.79764300 12.00000000
v -2.14773400 -14.91153000 12.00000000
v -2.11867500 -14.67221000 12.00000000
v -2.14773400 -14.43290000 12.00000000
v -0.44910640 -5.64787400 12.00000000
v -3.23921200 -13.67951000 12.00000000
v -0.34083880 -5.74379000 12.00000000
v -2.99813900 -13.67951000 12.00000000
v -0.53127360 -5.52883400 12.00000000
v -10.26172000 -9.57223600 12.00000000
v -0.21276290 -5.81101000 12.00000000
v -2.76407000 -13.73720000 12.00000000
v -0.58256510 -5.39358900 12.00000000
v -10.39866000 -9.37383600 12.00000000
v -0.07232201 -5.84562500 12.00000000
v -2.55061100 -13.84923000 12.00000000
v -0.60000000 -5.25000000 12.00000000
v -10.57911000 -9.21397500 12.00000000
v 0.07232201 -5.84562500 12.00000000
v -2.37016500 -14.00909000 12.00000000
v -0.58256510 -5.10641100 12.00000000
v 0.21276290 -5.81101000 12.00000000
v -2.23321900 -14.20749000 12.00000000
v 0.34083880 -5.74379000 12.00000000
v 0.44910640 -5.64787400 12.00000000
v 0.53127360 -5.52883400 12.00000000
v -4.99574000 2.22712600 12.00000000
v -10.79257000 -9.10194300 12.00000000
v -11.02664000 -9.04425000 12.00000000
v -4.88747200 2.13121000 12.00000000
v -5.07790700 2.34616600 12.00000000
v -4.75939600 2.06399000 12.00000000
v -5.12919800 2.48141100 12.00000000
v -11.89568000 9.37383600 12.00000000
v -11.71524000 9.21397500 12.00000000
v -12.03263000 9.57223600 12.00000000
v -11.50178000 9.10194300 12.00000000
v -1.27246800 -1.12730900 12.00000000
v -0.53127360 -4.97116600 12.00000000
v -0.96571010 -1.39907300 12.00000000
v -0.34083880 -4.75621000 12.00000000
v -0.44910640 -4.85212600 12.00000000
v -12.11811000 9.79764300 12.00000000
v -1.50527500 -0.79002940 12.00000000
v -4.61895500 2.02937500 12.00000000
v -11.26771000 9.04425000 12.00000000
v -5.14663300 2.62500000 12.00000000
v -0.60282830 -1.58952800 12.00000000
v -0.21276290 -4.68899000 12.00000000
v -12.14717000 10.03696000 12.00000000
v -1.65060100 -0.40683660 12.00000000
v -4.47431100 2.02937500 12.00000000
v -11.02664000 9.04425000 12.00000000
v -5.12919800 2.76858900 12.00000000
v -0.20491240 -1.68760500 12.00000000
v 0.07232201 -4.65437500 12.00000000
v -0.07232201 -4.65437500 12.00000000
v -12.11811000 10.27627000 12.00000000
v -1.70000000 0.00000000 12.00000000
v -4.33387000 2.06399000 12.00000000
v -10.79257000 9.10194300 12.00000000
v -5.07790700 2.90383400 12.00000000
v -12.03263000 10.50168000 12.00000000
v 0.20491240 -1.68760500 12.00000000
v 0.21276290 -4.68899000 12.00000000
v -10.57911000 9.21397500 12.00000000
v -4.99574000 3.02287400 12.00000000
v -1.65060100 0.40683660 12.00000000
v -4.20579500 2.13121000 12.00000000
v -4.09752700 2.22712600 12.00000000
v -10.39866000 9.37383600 12.00000000
v -4.75939600 3.18601000 12.00000000
v -4.88747200 3.11879000 12.00000000
v 0.60282830 -1.58952800 12.00000000
v 0.34083880 -4.75621000 12.00000000
v -1.50527500 0.79002940 12.00000000
v -4.01536000 2.34616600 12.00000000
v -10.26172000 9.57223600 12.00000000
v -4.61895500 3.22062500 12.00000000
v -11.50178000 10.97198000 12.00000000
v -11.71524000 10.85994000 12.00000000
v -11.89568000 10.70008000 12.00000000
v 0.96571010 -1.39907300 12.00000000
v 0.44910640 -4.85212600 12.00000000
v 0.53127360 -4.97116600 12.00000000
v -10.17623000 9.79764300 12.00000000
v -1.27246800 1.12730900 12.00000000
v -3.96406800 2.48141100 12.00000000
v -3.94663300 2.62500000 12.00000000
v 1.27246800 -1.12730900 12.00000000
v 0.58256510 -5.10641100 12.00000000
v -0.96571010 1.39907300 12.00000000
v -3.96406800 2.76858900 12.00000000
v 1.50527500 -0.79002940 12.00000000
v -0.60282830 1.58952800 12.00000000
v -4.01536000 2.90383400 12.00000000
v -4.09752700 3.02287400 12.00000000
v -0.20491240 1.68760500 12.00000000
v -4.20579500 3.11879000 12.00000000
v -10.79257000 10.97198000 12.00000000
v -11.02664000 11.02967000 12.00000000
v -11.26771000 11.02967000 12.00000000
v 4.09752700 2.22712600 12.00000000
v 1.65060100 0.40683660 12.00000000
v 1.50527500 0.79002940 12.00000000
v 4.20579500 2.13121000 12.00000000
v 4.01536000 2.34616600 12.00000000
v 1.27246800 1.12730900 12.00000000
v 4.33387000 2.06399000 12.00000000
v 1.70000000 -0.00000000 12.00000000
v 3.96406800 2.48141100 12.00000000
v 4.47431100 2.02937500 12.00000000
v 1.65060100 -0.40683660 12.00000000
v 3.94663300 2.62500000 12.00000000
v 0.96571010 1.39907300 12.00000000
v 4.61895500 2.02937500 12.00000000
v 3.96406800 2.76858900 12.00000000
v 0.60282830 1.58952800 12.00000000
v 4.75939600 2.06399000 12.00000000
v 4.01536000 2.90383400 12.00000000
v 4.09752700 3.02287400 12.00000000
v 0.20491240 1.68760500 12.00000000
v 4.20579500 3.11879000 12.00000000
v -10.57911000 10.85994000 12.00000000
v 13.51734000 -5.29837800 12.00000000
v 13.69778000 -5.45823900 12.00000000
v 13.38039000 -5.09997800 12.00000000
v 0.58256510 -5.39358900 12.00000000
v 13.91124000 -5.57027100 12.00000000
v 13.29491000 -4.87457100 12.00000000
v 0.60000000 -5.25000000 12.00000000
v 14.14531000 -5.62796400 12.00000000
v 13.26585000 -4.63525500 12.00000000
v 14.38638000 -5.62796400 12.00000000
v 13.29491000 -4.39593900 12.00000000
v 4.88747200 2.13121000 12.00000000
v 14.62045000 -5.57027100 12.00000000
v 13.38039000 -4.17053200 12.00000000
v 4.99574000 2.22712600 12.00000000
v 13.51734000 -3.97213200 12.00000000
v 5.07790700 2.34616600 12.00000000
v -3.86718600 14.00909000 12.00000000
v -10.17623000 10.27627000 12.00000000
v -10.26172000 10.50168000 12.00000000
v -3.68674000 13.84923000 12.00000000
v -10.14717000 10.03696000 12.00000000
v -4.00413100 14.20749000 12.00000000
v -10.39866000 10.70008000 12.00000000
v -3.47328000 13.73720000 12.00000000
v 14.83391000 -5.45823900 12.00000000
v 15.01436000 -5.29837800 12.00000000
v 15.15130000 -5.09997800 12.00000000
v -4.08961700 14.43290000 12.00000000
v -3.23921200 13.67951000 12.00000000
v -4.33387000 3.18601000 12.00000000
v -4.47431100 3.22062500 12.00000000
v -4.11867500 14.67221000 12.00000000
v -2.99813900 13.67951000 12.00000000
v -4.08961700 14.91153000 12.00000000
v -2.76407000 13.73720000 12.00000000
v -4.00413100 15.13694000 12.00000000
v -2.55061100 13.84923000 12.00000000
v 4.33387000 3.18601000 12.00000000
v -3.86718600 15.33534000 12.00000000
v -2.37016500 14.00909000 12.00000000
v 4.47431100 3.22062500 12.00000000
v -2.23321900 14.20749000 12.00000000
v 4.61895500 3.22062500 12.00000000
v 15.26585000 -4.63525500 12.00000000
v 15.23679000 -4.39593900 12.00000000
v 15.23679000 -4.87457100 12.00000000
v -3.23921200 15.66492000 12.00000000
v -3.47328000 15.60723000 12.00000000
v -3.68674000 15.49520000 12.00000000
v 15.15130000 -4.17053200 12.00000000
v 15.01436000 -3.97213200 12.00000000
v 14.83391000 -3.81227100 12.00000000
v 13.51734000 3.97213200 12.00000000
v 13.69778000 -3.81227100 12.00000000
v 5.12919800 2.48141100 12.00000000
v 13.69778000 3.81227100 12.00000000
v 13.38039000 4.17053200 12.00000000
v 5.14663300 2.62500000 12.00000000
v 13.91124000 3.70023900 12.00000000
v 13.91124000 -3.70023900 12.00000000
v 13.29491000 4.39593900 12.00000000
v 5.12919800 2.76858900 12.00000000
v 14.14531000 3.64254600 12.00000000
v 14.38638000 -3.64254600 12.00000000
v 14.14531000 -3.64254600 12.00000000
v 13.26585000 4.63525500 12.00000000
v 5.07790700 2.90383400 12.00000000
v 14.38638000 3.64254600 12.00000000
v -2.55061100 15.49520000 12.00000000
v -2.76407000 15.60723000 12.00000000
v -2.99813900 15.66492000 12.00000000
v 13.29491000 4.87457100 12.00000000
v 4.99574000 3.02287400 12.00000000
v 14.62045000 3.70023900 12.00000000
v 14.62045000 -3.70023900 12.00000000
v 13.38039000 5.09997800 12.00000000
v 4.88747200 3.11879000 12.00000000
v 13.51734000 5.29837800 12.00000000
v 4.75939600 3.18601000 12.00000000
v 14.83391000 3.81227100 12.00000000
v -2.14773400 14.91153000 12.00000000
v -2.23321900 15.13694000 12.00000000
v -2.37016500 15.33534000 12.00000000
v 15.01436000 3.97213200 12.00000000
v 15.15130000 4.17053200 12.00000000
v 15.23679000 4.39593900 12.00000000
v -2.11867500 14.67221000 12.00000000
v 15.26585000 4.63525500 12.00000000
v 15.23679000 4.87457100 12.00000000
v 15.15130000 5.09997800 12.00000000
v -2.14773400 14.43290000 12.00000000
v 15.01436000 5.29837800 12.00000000
v 14.83391000 5.45823900 12.00000000
v 14.62045000 5.57027100 12.00000000
v 14.38638000 5.62796400 12.00000000
v 14.14531000 5.62796400 12.00000000
v 13.91124000 5.57027100 12.00000000
v 13.69778000 5.45823900 12.00000000
v 17.33620000 2.38879300 14.85000000
v 17.50000000 -0.00000000 14.85000000
v 16.84785000 4.73286700 14.85000000
v 16.04410000 6.98834000 14.85000000
v 14.94000000 9.11298600 14.85000000
v 13.55621000 11.06703000 14.85000000
v 11.91864000 12.81390000 14.85000000
v 10.05795000 14.32088000 14.85000000
v 6.78746300 8.65623100 14.40000000
v 6.29233900 7.79865100 14.15000000
v 6.29233900 7.79865100 14.40000000
v 6.78746300 8.65623100 14.85000000
v 10.64234000 15.33307000 14.15000000
v 7.95766100 16.88307000 14.15000000
v 4.10278500 10.20623000 14.40000000
v 3.60766100 9.34865100 14.40000000
v 3.60766100 9.34865100 14.15000000
v 7.37327200 15.87088000 14.85000000
v 4.10278500 10.20623000 14.85000000
v 4.96135400 16.78198000 14.85000000
v 2.44174500 17.32882000 14.85000000
v -0.13086480 17.49951000 14.85000000
v -2.70063400 17.29036000 14.85000000
v -5.21178300 16.70591000 14.85000000
v -7.60980500 15.75883000 14.85000000
v -9.84264900 14.46970000 14.85000000
v -11.86185000 12.86649000 14.85000000
v -13.62357000 10.98400000 14.85000000
v -15.08959000 8.86308800 14.85000000
v -16.22807000 6.54979500 14.85000000
v -17.01430000 4.09433300 14.85000000
v -17.43122000 1.55000000 14.85000000
v -10.89025000 1.55000000 14.40000000
v -9.90000000 1.55000000 14.15000000
v -9.90000000 1.55000000 14.40000000
v -10.89025000 1.55000000 14.85000000
v -18.60000000 1.55000000 14.15000000
v -18.60000000 -1.55000000 14.15000000
v -10.89025000 -1.55000000 14.40000000
v -9.90000000 -1.55000000 14.40000000
v -9.90000000 -1.55000000 14.15000000
v -17.43122000 -1.55000000 14.85000000
v -10.89025000 -1.55000000 14.85000000
v -17.01430000 -4.09433300 14.85000000
v -16.22807000 -6.54979500 14.85000000
v -15.08959000 -8.86308800 14.85000000
v -13.62357000 -10.98400000 14.85000000
v -11.86185000 -12.86649000 14.85000000
v -9.84264900 -14.46970000 14.85000000
v -7.60980500 -15.75883000 14.85000000
v -5.21178300 -16.70591000 14.85000000
v -2.70063400 -17.29036000 14.85000000
v -0.13086480 -17.49951000 14.85000000
v 2.44174500 -17.32882000 14.85000000
v 4.96135400 -16.78198000 14.85000000
v 7.37327200 -15.87088000 14.85000000
v 4.10278500 -10.20623000 14.40000000
v 3.60766100 -9.34865100 14.15000000
v 3.60766100 -9.34865100 14.40000000
v 4.10278500 -10.20623000 14.85000000
v 7.95766100 -16.88307000 14.15000000
v 10.64234000 -15.33307000 14.15000000
v 6.78746300 -8.65623100 14.40000000
v 6.29233900 -7.79865100 14.40000000
v 6.29233900 -7.79865100 14.15000000
v 10.05795000 -14.32088000 14.85000000
v 6.78746300 -8.65623100 14.85000000
v 11.91864000 -12.81390000 14.85000000
v 13.55621000 -11.06703000 14.85000000
v 14.94000000 -9.11298600 14.85000000
v 16.04410000 -6.98834000 14.85000000
v 16.84785000 -4.73286700 14.85000000
v 17.33620000 -2.38879300 14.85000000
v -10.17623000 -9.79764300 14.40000000
v -10.14717000 -10.03696000 14.40000000
v -10.26172000 -9.57223600 14.40000000
v -10.39866000 -9.37383600 14.40000000
v -10.57911000 -9.21397500 14.40000000
v -10.79257000 -9.10194300 14.40000000
v -11.02664000 -9.04425000 14.40000000
v -11.26771000 -9.04425000 14.40000000
v -11.50178000 -9.10194300 14.40000000
v -11.71524000 -9.21397500 14.40000000
v -11.89568000 -9.37383600 14.40000000
v -12.03263000 -9.57223600 14.40000000
v -12.11811000 -9.79764300 14.40000000
v -12.14717000 -10.03696000 14.40000000
v -12.11811000 -10.27627000 14.40000000
v -12.03263000 -10.50168000 14.40000000
v -11.89568000 -10.70008000 14.40000000
v -11.71524000 -10.85994000 14.40000000
v -11.50178000 -10.97198000 14.40000000
v -11.26771000 -11.02967000 14.40000000
v -11.02664000 -11.02967000 14.40000000
v -10.79257000 -10.97198000 14.40000000
v -10.57911000 -10.85994000 14.40000000
v -10.39866000 -10.70008000 14.40000000
v -10.26172000 -10.50168000 14.40000000
v -10.17623000 -10.27627000 14.40000000
v -2.14773400 -14.43290000 14.40000000
v -2.11867500 -14.67221000 14.40000000
v -2.23321900 -14.20749000 14.40000000
v -2.37016500 -14.00909000 14.40000000
v -2.55061100 -13.84923000 14.40000000
v -2.76407000 -13.73720000 14.40000000
v -2.99813900 -13.67951000 14.40000000
v -3.23921200 -13.67951000 14.40000000
v -3.47328000 -13.73720000 14.40000000
v -3.68674000 -13.84923000 14.40000000
v -3.86718600 -14.00909000 14.40000000
v -4.00413100 -14.20749000 14.40000000
v -4.08961700 -14.43290000 14.40000000
v -4.11867500 -14.67221000 14.40000000
v -4.08961700 -14.91153000 14.40000000
v -4.00413100 -15.13694000 14.40000000
v -3.86718600 -15.33534000 14.40000000
v -3.68674000 -15.49520000 14.40000000
v -3.47328000 -15.60723000 14.40000000
v -3.23921200 -15.66492000 14.40000000
v -2.99813900 -15.66492000 14.40000000
v -2.76407000 -15.60723000 14.40000000
v -2.55061100 -15.49520000 14.40000000
v -2.37016500 -15.33534000 14.40000000
v -2.23321900 -15.13694000 14.40000000
v -2.14773400 -14.91153000 14.40000000
v 0.58256510 -5.10641100 14.65000000
v 0.60000000 -5.25000000 14.65000000
v 0.53127360 -4.97116600 14.65000000
v 0.44910640 -4.85212600 14.65000000
v 0.34083880 -4.75621000 14.65000000
v 0.21276290 -4.68899000 14.65000000
v 0.07232201 -4.65437500 14.65000000
v -0.07232201 -4.65437500 14.65000000
v -0.21276290 -4.68899000 14.65000000
v -0.34083880 -4.75621000 14.65000000
v -0.44910640 -4.85212600 14.65000000
v -0.53127360 -4.97116600 14.65000000
v -0.58256510 -5.10641100 14.65000000
v -0.60000000 -5.25000000 14.65000000
v -0.58256510 -5.39358900 14.65000000
v -0.53127360 -5.52883400 14.65000000
v -0.44910640 -5.64787400 14.65000000
v -0.34083880 -5.74379000 14.65000000
v -0.21276290 -5.81101000 14.65000000
v -0.07232201 -5.84562500 14.65000000
v 0.07232201 -5.84562500 14.65000000
v 0.21276290 -5.81101000 14.65000000
v 0.34083880 -5.74379000 14.65000000
v 0.44910640 -5.64787400 14.65000000
v 0.53127360 -5.52883400 14.65000000
v 0.58256510 -5.39358900 14.65000000
v 1.65060100 0.40683660 15.00000000
v 1.70000000 -0.00000000 15.00000000
v 1.50527500 0.79002940 15.00000000
v 1.27246800 1.12730900 15.00000000
v 0.96571010 1.39907300 15.00000000
v 0.60282830 1.58952800 15.00000000
v 0.20491240 1.68760500 15.00000000
v -0.20491240 1.68760500 15.00000000
v -0.60282830 1.58952800 15.00000000
v -0.96571010 1.39907300 15.00000000
v -1.27246800 1.12730900 15.00000000
v -1.50527500 0.79002940 15.00000000
v -1.65060100 0.40683660 15.00000000
v -1.70000000 0.00000000 15.00000000
v -1.65060100 -0.40683660 15.00000000
v -1.50527500 -0.79002940 15.00000000
v -1.27246800 -1.12730900 15.00000000
v -0.96571010 -1.39907300 15.00000000
v -0.60282830 -1.58952800 15.00000000
v -0.20491240 -1.68760500 15.00000000
v 0.20491240 -1.68760500 15.00000000
v 0.60282830 -1.58952800 15.00000000
v 0.96571010 -1.39907300 15.00000000
v 1.27246800 -1.12730900 15.00000000
v 1.50527500 -0.79002940 15.00000000
v 1.65060100 -0.40683660 15.00000000
v 15.23679000 -4.39593900 14.40000000
v 15.26585000 -4.63525500 14.40000000
v 15.15130000 -4.17053200 14.40000000
v 15.01436000 -3.97213200 14.40000000
v 14.83391000 -3.81227100 14.40000000
v 14.62045000 -3.70023900 14.40000000
v 14.38638000 -3.64254600 14.40000000
v 14.14531000 -3.64254600 14.40000000
v 13.91124000 -3.70023900 14.40000000
v 13.69778000 -3.81227100 14.40000000
v 13.51734000 -3.97213200 14.40000000
v 13.38039000 -4.17053200 14.40000000
v 13.29491000 -4.39593900 14.40000000
v 13.26585000 -4.63525500 14.40000000
v 13.29491000 -4.87457100 14.40000000
v 13.38039000 -5.09997800 14.40000000
v 13.51734000 -5.29837800 14.40000000
v 13.69778000 -5.45823900 14.40000000
v 13.91124000 -5.57027100 14.40000000
v 14.14531000 -5.62796400 14.40000000
v 14.38638000 -5.62796400 14.40000000
v 14.62045000 -5.57027100 14.40000000
v 14.83391000 -5.45823900 14.40000000
v 15.01436000 -5.29837800 14.40000000
v 15.15130000 -5.09997800 14.40000000
v 15.23679000 -4.87457100 14.40000000
v -3.96406800 2.76858900 14.65000000
v -3.94663300 2.62500000 14.65000000
v -4.01536000 2.90383400 14.65000000
v -4.09752700 3.02287400 14.65000000
v -4.20579500 3.11879000 14.65000000
v -4.33387000 3.18601000 14.65000000
v -4.47431100 3.22062500 14.65000000
v -4.61895500 3.22062500 14.65000000
v -4.75939600 3.18601000 14.65000000
v -4.88747200 3.11879000 14.65000000
v -4.99574000 3.02287400 14.65000000
v -5.07790700 2.90383400 14.65000000
v -5.12919800 2.76858900 14.65000000
v -5.14663300 2.62500000 14.65000000
v -5.12919800 2.48141100 14.65000000
v -5.07790700 2.34616600 14.65000000
v -4.99574000 2.22712600 14.65000000
v -4.88747200 2.13121000 14.65000000
v -4.75939600 2.06399000 14.65000000
v -4.61895500 2.02937500 14.65000000
v -4.47431100 2.02937500 14.65000000
v -4.33387000 2.06399000 14.65000000
v -4.20579500 2.13121000 14.65000000
v -4.09752700 2.22712600 14.65000000
v -4.01536000 2.34616600 14.65000000
v -3.96406800 2.48141100 14.65000000
v -10.17623000 10.27627000 14.40000000
v -10.14717000 10.03696000 14.40000000
v -10.26172000 10.50168000 14.40000000
v -10.39866000 10.70008000 14.40000000
v -10.57911000 10.85994000 14.40000000
v -10.79257000 10.97198000 14.40000000
v -11.02664000 11.02967000 14.40000000
v -11.26771000 11.02967000 14.40000000
v -11.50178000 10.97198000 14.40000000
v -11.71524000 10.85994000 14.40000000
v -11.89568000 10.70008000 14.40000000
v -12.03263000 10.50168000 14.40000000
v -12.11811000 10.27627000 14.40000000
v -12.14717000 10.03696000 14.40000000
v -12.11811000 9.79764300 14.40000000
v -12.03263000 9.57223600 14.40000000
v -11.89568000 9.37383600 14.40000000
v -11.71524000 9.21397500 14.40000000
v -11.50178000 9.10194300 14.40000000
v -11.26771000 9.04425000 14.40000000
v -11.02664000 9.04425000 14.40000000
v -10.79257000 9.10194300 14.40000000
v -10.57911000 9.21397500 14.40000000
v -10.39866000 9.37383600 14.40000000
v -10.26172000 9.57223600 14.40000000
v -10.17623000 9.79764300 14.40000000
v -2.14773400 14.91153000 14.40000000
v -2.11867500 14.67221000 14.40000000
v -2.23321900 15.13694000 14.40000000
v -2.37016500 15.33534000 14.40000000
v -2.55061100 15.49520000 14.40000000
v -2.76407000 15.60723000 14.40000000
v -2.99813900 15.66492000 14.40000000
v -3.23921200 15.66492000 14.40000000
v -3.47328000 15.60723000 14.40000000
v -3.68674000 15.49520000 14.40000000
v -3.86718600 15.33534000 14.40000000
v -4.00413100 15.13694000 14.40000000
v -4.08961700 14.91153000 14.40000000
v -4.11867500 14.67221000 14.40000000
v -4.08961700 14.43290000 14.40000000
v -4.00413100 14.20749000 14.40000000
v -3.86718600 14.00909000 14.40000000
v -3.68674000 13.84923000 14.40000000
v -3.47328000 13.73720000 14.40000000
v -3.23921200 13.67951000 14.40000000
v -2.99813900 13.67951000 14.40000000
v -2.76407000 13.73720000 14.40000000
v -2.55061100 13.84923000 14.40000000
v -2.37016500 14.00909000 14.40000000
v -2.23321900 14.20749000 14.40000000
v -2.14773400 14.43290000 14.40000000
v 5.12919800 2.76858900 14.65000000
v 5.14663300 2.62500000 14.65000000
v 5.07790700 2.90383400 14.65000000
v 4.99574000 3.02287400 14.65000000
v 4.88747200 3.11879000 14.65000000
v 4.75939600 3.18601000 14.65000000
v 4.61895500 3.22062500 14.65000000
v 4.47431100 3.22062500 14.65000000
v 4.33387000 3.18601000 14.65000000
v 4.20579500 3.11879000 14.65000000
v 4.09752700 3.02287400 14.65000000
v 4.01536000 2.90383400 14.65000000
v 3.96406800 2.76858900 14.65000000
v 3.94663300 2.62500000 14.65000000
v 3.96406800 2.48141100 14.65000000
v 4.01536000 2.34616600 14.65000000
v 4.09752700 2.22712600 14.65000000
v 4.20579500 2.13121000 14.65000000
v 4.33387000 2.06399000 14.65000000
v 4.47431100 2.02937500 14.65000000
v 4.61895500 2.02937500 14.65000000
v 4.75939600 2.06399000 14.65000000
v 4.88747200 2.13121000 14.65000000
v 4.99574000 2.22712600 14.65000000
v 5.07790700 2.34616600 14.65000000
v 5.12919800 2.48141100 14.65000000
v 15.23679000 4.87457100 14.40000000
v 15.26585000 4.63525500 14.40000000
v 15.15130000 5.09997800 14.40000000
v 15.01436000 5.29837800 14.40000000
v 14.83391000 5.45823900 14.40000000
v 14.62045000 5.57027100 14.40000000
v 14.38638000 5.62796400 14.40000000
v 14.14531000 5.62796400 14.40000000
v 13.91124000 5.57027100 14.40000000
v 13.69778000 5.45823900 14.40000000
v 13.51734000 5.29837800 14.40000000
v 13.38039000 5.09997800 14.40000000
v 13.29491000 4.87457100 14.40000000
v 13.26585000 4.63525500 14.40000000
v 13.29491000 4.39593900 14.40000000
v 13.38039000 4.17053200 14.40000000
v 13.51734000 3.97213200 14.40000000
v 13.69778000 3.81227100 14.40000000
v 13.91124000 3.70023900 14.40000000
v 14.14531000 3.64254600 14.40000000
v 14.38638000 3.64254600 14.40000000
v 14.62045000 3.70023900 14.40000000
v 14.83391000 3.81227100 14.40000000
v 15.01436000 3.97213200 14.40000000
v 15.15130000 4.17053200 14.40000000
v 15.23679000 4.39593900 14.40000000
v 8.23601400 -7.29164400 14.85000000
v 13.35694000 -5.95202900 14.85000000
v 9.41499600 -5.68839600 14.85000000
v 13.06823000 -5.69625100 14.85000000
v 12.84912000 -5.37881200 14.85000000
v 13.69848000 -6.13128100 14.85000000
v 12.71234000 -5.01816000 14.85000000
v 10.28582000 -3.89896400 14.85000000
v 14.07299000 -6.22358900 14.85000000
v 12.66585000 -4.63525500 14.85000000
v 14.45871000 -6.22358900 14.85000000
v 12.71234000 -4.25235000 14.85000000
v 12.84912000 -3.89169800 14.85000000
v 10.81998000 -1.98191700 14.85000000
v 14.83322000 -6.13128100 14.85000000
v 15.17475000 -5.95202900 14.85000000
v 13.06823000 -3.57425900 14.85000000
v 15.46346000 -5.69625100 14.85000000
v 13.35694000 -3.31848100 14.85000000
v 15.68258000 -5.37881200 14.85000000
v 13.69848000 -3.13922900 14.85000000
v 11.00000000 -0.00000000 14.85000000
v 14.07299000 -3.04692100 14.85000000
v 15.81935000 -4.25235000 14.85000000
v 15.86585000 -4.63525500 14.85000000
v 15.68258000 -3.89169800 14.85000000
v 15.81935000 -5.01816000 14.85000000
v 15.46346000 -3.57425900 14.85000000
v 15.17475000 -3.31848100 14.85000000
v 14.83322000 -3.13922900 14.85000000
v 13.35694000 3.31848100 14.85000000
v 13.06823000 3.57425900 14.85000000
v 10.81998000 1.98191700 14.85000000
v 12.84912000 3.89169800 14.85000000
v 10.28582000 3.89896400 14.85000000
v 13.69848000 3.13922900 14.85000000
v 12.71234000 4.25235000 14.85000000
v 14.07299000 3.04692100 14.85000000
v 12.66585000 4.63525500 14.85000000
v 14.45871000 -3.04692100 14.85000000
v 14.45871000 3.04692100 14.85000000
v 12.71234000 5.01816000 14.85000000
v 9.41499600 5.68839600 14.85000000
v 14.83322000 3.13922900 14.85000000
v 12.84912000 5.37881200 14.85000000
v 13.06823000 5.69625100 14.85000000
v 13.35694000 5.95202900 14.85000000
v 8.23601400 7.29164400 14.85000000
v 15.17475000 3.31848100 14.85000000
v 15.46346000 3.57425900 14.85000000
v 15.68258000 3.89169800 14.85000000
v 15.81935000 5.01816000 14.85000000
v 15.86585000 4.63525500 14.85000000
v 15.68258000 5.37881200 14.85000000
v 15.81935000 4.25235000 14.85000000
v 15.46346000 5.69625100 14.85000000
v 15.17475000 5.95202900 14.85000000
v 14.83322000 6.13128100 14.85000000
v 14.45871000 6.22358900 14.85000000
v 14.07299000 6.22358900 14.85000000
v 13.69848000 6.13128100 14.85000000
v 11.00000000 -0.00000000 14.40000000
v 10.81998000 1.98191700 14.40000000
v 10.28582000 3.89896400 14.40000000
v 9.41499600 5.68839600 14.40000000
v 8.23601400 7.29164400 14.40000000
v -10.43276000 -3.48677600 14.40000000
v -4.79046900 -4.24398500 14.40000000
v -8.51951200 -6.95829900 14.40000000
v -7.12638100 -8.37942100 14.40000000
v -3.63561400 -5.26709700 14.40000000
v -5.50000000 -9.52627900 14.40000000
v -5.66691900 -2.97422800 14.40000000
v -9.63379400 -5.30942800 14.40000000
v -2.26947100 -5.98410400 14.40000000
v -3.69360100 -10.36134000 14.40000000
v -1.76630800 -10.85726000 14.40000000
v -6.21402800 -1.53162000 14.40000000
v -0.77143480 -6.35333700 14.40000000
v 0.21879750 -10.99782000 14.40000000
v -10.43276000 3.48677600 14.40000000
v -6.40000000 0.00000000 14.40000000
v 2.19674100 -10.77842000 14.40000000
v 0.77143480 -6.35333700 14.40000000
v -6.21402800 1.53162000 14.40000000
v 2.26947100 -5.98410400 14.40000000
v -5.66691900 2.97422800 14.40000000
v -9.63379400 5.30942800 14.40000000
v 3.63561400 -5.26709700 14.40000000
v -8.51951200 6.95829900 14.40000000
v -4.79046900 4.24398500 14.40000000
v 4.79046900 -4.24398500 14.40000000
v 8.23601400 -7.29164400 14.40000000
v -7.12638100 8.37942100 14.40000000
v -3.63561400 5.26709700 14.40000000
v 9.41499600 -5.68839600 14.40000000
v 5.66691900 -2.97422800 14.40000000
v -5.50000000 9.52627900 14.40000000
v -2.26947100 5.98410400 14.40000000
v 10.28582000 -3.89896400 14.40000000
v 6.21402800 -1.53162000 14.40000000
v -3.69360100 10.36134000 14.40000000
v 10.81998000 -1.98191700 14.40000000
v 6.40000000 -0.00000000 14.40000000
v -1.76630800 10.85726000 14.40000000
v -0.77143480 6.35333700 14.40000000
v 0.21879750 10.99782000 14.40000000
v 0.77143480 6.35333700 14.40000000
v 6.21402800 1.53162000 14.40000000
v 2.26947100 5.98410400 14.40000000
v 3.63561400 5.26709700 14.40000000
v 2.19674100 10.77842000 14.40000000
v 4.79046900 4.24398500 14.40000000
v 5.66691900 2.97422800 14.40000000
v -10.43276000 3.48677600 14.85000000
v -12.05608000 8.72018500 14.85000000
v -12.34479000 8.97596300 14.85000000
v -12.56390000 9.29340200 14.85000000
v -11.71454000 8.54093300 14.85000000
v -9.63379400 5.30942800 14.85000000
v -12.70068000 9.65405400 14.85000000
v -11.34003000 8.44862500 14.85000000
v -12.74717000 10.03696000 14.85000000
v -10.95431000 8.44862500 14.85000000
v -12.70068000 10.41986000 14.85000000
v -10.57980000 8.54093300 14.85000000
v -12.56390000 10.78052000 14.85000000
v -8.51951200 6.95829900 14.85000000
v -10.23827000 8.72018500 14.85000000
v -12.34479000 11.09796000 14.85000000
v -9.94955500 8.97596300 14.85000000
v -12.05608000 11.35373000 14.85000000
v -9.73044300 9.29340200 14.85000000
v -10.95431000 11.62529000 14.85000000
v -10.57980000 11.53299000 14.85000000
v -11.34003000 11.62529000 14.85000000
v -11.71454000 11.53299000 14.85000000
v -7.12638100 8.37942100 14.85000000
v -9.59366500 10.41986000 14.85000000
v -9.54717200 10.03696000 14.85000000
v -9.59366500 9.65405400 14.85000000
v -5.50000000 9.52627900 14.85000000
v -9.73044300 10.78052000 14.85000000
v -10.23827000 11.35373000 14.85000000
v -9.94955500 11.09796000 14.85000000
v -4.02757900 13.35544000 14.85000000
v -3.69360100 10.36134000 14.85000000
v -4.31629300 13.61122000 14.85000000
v -4.53540500 13.92866000 14.85000000
v -3.68604300 13.17619000 14.85000000
v -4.67218200 14.28931000 14.85000000
v -3.31153400 13.08388000 14.85000000
v -4.71867500 14.67221000 14.85000000
v -2.92581700 13.08388000 14.85000000
v -1.76630800 10.85726000 14.85000000
v -4.67218200 15.05512000 14.85000000
v -2.55130800 13.17619000 14.85000000
v -2.20977200 13.35544000 14.85000000
v -4.53540500 15.41577000 14.85000000
v -4.31629300 15.73321000 14.85000000
v -1.92105800 13.61122000 14.85000000
v 0.21879750 10.99782000 14.85000000
v -4.02757900 15.98899000 14.85000000
v -1.70194600 13.92866000 14.85000000
v -3.68604300 16.16824000 14.85000000
v -1.56516800 14.28931000 14.85000000
v 2.19674100 10.77842000 14.85000000
v -2.55130800 16.16824000 14.85000000
v -2.20977200 15.98899000 14.85000000
v -2.92581700 16.26055000 14.85000000
v -3.31153400 16.26055000 14.85000000
v -1.70194600 15.41577000 14.85000000
v -1.56516800 15.05512000 14.85000000
v -1.92105800 15.73321000 14.85000000
v -1.51867500 14.67221000 14.85000000
v -12.05608000 -11.35373000 14.85000000
v -12.34479000 -11.09796000 14.85000000
v -12.56390000 -10.78052000 14.85000000
v -11.71454000 -11.53299000 14.85000000
v -12.70068000 -10.41986000 14.85000000
v -11.34003000 -11.62529000 14.85000000
v -12.74717000 -10.03696000 14.85000000
v -10.95431000 -11.62529000 14.85000000
v -12.70068000 -9.65405400 14.85000000
v -10.57980000 -11.53299000 14.85000000
v -12.56390000 -9.29340200 14.85000000
v -10.23827000 -11.35373000 14.85000000
v -12.34479000 -8.97596300 14.85000000
v -9.94955500 -11.09796000 14.85000000
v -12.05608000 -8.72018500 14.85000000
v -11.71454000 -8.54093300 14.85000000
v -4.02757900 -15.98899000 14.85000000
v -4.31629300 -15.73321000 14.85000000
v -4.53540500 -15.41577000 14.85000000
v -3.68604300 -16.16824000 14.85000000
v -4.67218200 -15.05512000 14.85000000
v -3.31153400 -16.26055000 14.85000000
v -4.71867500 -14.67221000 14.85000000
v -2.92581700 -16.26055000 14.85000000
v -4.67218200 -14.28931000 14.85000000
v -2.55130800 -16.16824000 14.85000000
v -4.53540500 -13.92866000 14.85000000
v -9.73044300 -10.78052000 14.85000000
v -2.20977200 -15.98899000 14.85000000
v -1.92105800 -15.73321000 14.85000000
v -1.70194600 -15.41577000 14.85000000
v -1.56516800 -15.05512000 14.85000000
v -7.12638100 -8.37942100 14.85000000
v -9.59366500 -9.65405400 14.85000000
v -9.54717200 -10.03696000 14.85000000
v -9.73044300 -9.29340200 14.85000000
v -9.59366500 -10.41986000 14.85000000
v -8.51951200 -6.95829900 14.85000000
v -9.94955500 -8.97596300 14.85000000
v -10.23827000 -8.72018500 14.85000000
v -10.57980000 -8.54093300 14.85000000
v -5.50000000 -9.52627900 14.85000000
v -4.31629300 -13.61122000 14.85000000
v -4.02757900 -13.35544000 14.85000000
v -9.63379400 -5.30942800 14.85000000
v -10.95431000 -8.44862500 14.85000000
v -11.34003000 -8.44862500 14.85000000
v -1.56516800 -14.28931000 14.85000000
v -1.51867500 -14.67221000 14.85000000
v -3.69360100 -10.36134000 14.85000000
v -3.31153400 -13.08388000 14.85000000
v -2.92581700 -13.08388000 14.85000000
v -3.68604300 -13.17619000 14.85000000
v -10.43276000 -3.48677600 14.85000000
v -1.76630800 -10.85726000 14.85000000
v -2.20977200 -13.35544000 14.85000000
v -1.92105800 -13.61122000 14.85000000
v -2.55130800 -13.17619000 14.85000000
v 0.21879750 -10.99782000 14.85000000
v -1.70194600 -13.92866000 14.85000000
v 2.19674100 -10.77842000 14.85000000
v -12.34479000 -11.09796000 14.40000000
v -12.05608000 -11.35373000 14.40000000
v -12.56390000 -10.78052000 14.40000000
v -11.71454000 -11.53299000 14.40000000
v -12.70068000 -10.41986000 14.40000000
v -11.34003000 -11.62529000 14.40000000
v -12.74717000 -10.03696000 14.40000000
v -10.95431000 -11.62529000 14.40000000
v -12.70068000 -9.65405400 14.40000000
v -10.57980000 -11.53299000 14.40000000
v -12.56390000 -9.29340200 14.40000000
v -10.23827000 -11.35373000 14.40000000
v -12.34479000 -8.97596300 14.40000000
v -9.94955500 -11.09796000 14.40000000
v -12.05608000 -8.72018500 14.40000000
v -9.73044300 -10.78052000 14.40000000
v -11.71454000 -8.54093300 14.40000000
v -9.59366500 -10.41986000 14.40000000
v -11.34003000 -8.44862500 14.40000000
v -9.54717200 -10.03696000 14.40000000
v -10.95431000 -8.44862500 14.40000000
v -9.59366500 -9.65405400 14.40000000
v -10.57980000 -8.54093300 14.40000000
v -9.73044300 -9.29340200 14.40000000
v -10.23827000 -8.72018500 14.40000000
v -9.94955500 -8.97596300 14.40000000
v -4.31629300 -15.73321000 14.40000000
v -4.02757900 -15.98899000 14.40000000
v -4.53540500 -15.41577000 14.40000000
v -3.68604300 -16.16824000 14.40000000
v -4.67218200 -15.05512000 14.40000000
v -3.31153400 -16.26055000 14.40000000
v -4.71867500 -14.67221000 14.40000000
v -2.92581700 -16.26055000 14.40000000
v -4.67218200 -14.28931000 14.40000000
v -2.55130800 -16.16824000 14.40000000
v -4.53540500 -13.92866000 14.40000000
v -2.20977200 -15.98899000 14.40000000
v -4.31629300 -13.61122000 14.40000000
v -1.92105800 -15.73321000 14.40000000
v -4.02757900 -13.35544000 14.40000000
v -1.70194600 -15.41577000 14.40000000
v -3.68604300 -13.17619000 14.40000000
v -1.56516800 -15.05512000 14.40000000
v -3.31153400 -13.08388000 14.40000000
v -1.51867500 -14.67221000 14.40000000
v -2.92581700 -13.08388000 14.40000000
v -1.56516800 -14.28931000 14.40000000
v -2.55130800 -13.17619000 14.40000000
v -1.70194600 -13.92866000 14.40000000
v -2.20977200 -13.35544000 14.40000000
v -1.92105800 -13.61122000 14.40000000
v -0.78593630 -5.94627900 14.65000000
v -0.59646800 -6.11413300 14.65000000
v -0.92972880 -5.73795900 14.65000000
v -0.37233510 -6.23176700 14.65000000
v -1.01948900 -5.50128100 14.65000000
v -0.12656350 -6.29234400 14.65000000
v -1.05000000 -5.25000000 14.65000000
v 0.12656350 -6.29234400 14.65000000
v -1.01948900 -4.99871900 14.65000000
v 0.37233510 -6.23176700 14.65000000
v -0.92972880 -4.76204100 14.65000000
v 0.59646800 -6.11413300 14.65000000
v -0.78593630 -4.55372100 14.65000000
v 0.78593630 -5.94627900 14.65000000
v -0.59646800 -4.38586700 14.65000000
v 0.92972880 -5.73795900 14.65000000
v -0.37233510 -4.26823300 14.65000000
v 1.01948900 -5.50128100 14.65000000
v -0.12656350 -4.20765600 14.65000000
v 1.05000000 -5.25000000 14.65000000
v 0.12656350 -4.20765600 14.65000000
v 1.01948900 -4.99871900 14.65000000
v 0.37233510 -4.26823300 14.65000000
v 0.92972880 -4.76204100 14.65000000
v 0.59646800 -4.38586700 14.65000000
v 0.78593630 -4.55372100 14.65000000
v -0.59646800 -6.11413300 15.00000000
v -0.78593630 -5.94627900 15.00000000
v -0.77143480 -6.35333700 15.00000000
v -0.92972880 -5.73795900 15.00000000
v -2.26947100 -5.98410400 15.00000000
v -0.37233510 -6.23176700 15.00000000
v -1.01948900 -5.50128100 15.00000000
v -0.12656350 -6.29234400 15.00000000
v -1.05000000 -5.25000000 15.00000000
v -1.01948900 -4.99871900 15.00000000
v -3.63561400 -5.26709700 15.00000000
v -0.92972880 -4.76204100 15.00000000
v 0.77143480 -6.35333700 15.00000000
v 0.12656350 -6.29234400 15.00000000
v 0.37233510 -6.23176700 15.00000000
v 0.59646800 -6.11413300 15.00000000
v -0.78593630 -4.55372100 15.00000000
v 0.78593630 -5.94627900 15.00000000
v 0.92972880 -5.73795900 15.00000000
v 2.26947100 -5.98410400 15.00000000
v 1.01948900 -4.99871900 15.00000000
v 1.05000000 -5.25000000 15.00000000
v 1.01948900 -5.50128100 15.00000000
v -5.14310100 1.76086700 15.00000000
v -5.33257000 1.92872100 15.00000000
v -6.21402800 1.53162000 15.00000000
v -5.47636200 2.13704100 15.00000000
v -4.91896900 1.64323300 15.00000000
v -6.40000000 0.00000000 15.00000000
v -5.56612200 2.37371900 15.00000000
v -4.67319700 1.58265600 15.00000000
v -5.59663300 2.62500000 15.00000000
v -4.42007000 1.58265600 15.00000000
v -6.21402800 -1.53162000 15.00000000
v -5.66691900 2.97422800 15.00000000
v -5.56612200 2.87628100 15.00000000
v -4.79046900 -4.24398500 15.00000000
v -0.59646800 -4.38586700 15.00000000
v -5.47636200 3.11295900 15.00000000
v -5.66691900 -2.97422800 15.00000000
v -0.37233510 -4.26823300 15.00000000
v -5.33257000 3.32127900 15.00000000
v -0.12656350 -4.20765600 15.00000000
v -4.17429800 1.64323300 15.00000000
v -3.95016500 1.76086700 15.00000000
v 3.63561400 -5.26709700 15.00000000
v 0.92972880 -4.76204100 15.00000000
v 0.78593630 -4.55372100 15.00000000
v 0.12656350 -4.20765600 15.00000000
v 0.37233510 -4.26823300 15.00000000
v -3.76069700 1.92872100 15.00000000
v 0.59646800 -4.38586700 15.00000000
v -3.61690500 2.13704100 15.00000000
v -4.79046900 4.24398500 15.00000000
v -4.42007000 3.66734400 15.00000000
v -4.17429800 3.60676700 15.00000000
v -4.67319700 3.66734400 15.00000000
v -4.91896900 3.60676700 15.00000000
v -5.14310100 3.48913300 15.00000000
v -3.52714400 2.37371900 15.00000000
v -3.49663300 2.62500000 15.00000000
v -3.52714400 2.87628100 15.00000000
v 4.79046900 -4.24398500 15.00000000
v -3.63561400 5.26709700 15.00000000
v -3.76069700 3.32127900 15.00000000
v -3.61690500 3.11295900 15.00000000
v -3.95016500 3.48913300 15.00000000
v 5.66691900 -2.97422800 15.00000000
v -2.26947100 5.98410400 15.00000000
v 6.21402800 -1.53162000 15.00000000
v -0.77143480 6.35333700 15.00000000
v 3.76069700 1.92872100 15.00000000
v 3.95016500 1.76086700 15.00000000
v 3.61690500 2.13704100 15.00000000
v 4.17429800 1.64323300 15.00000000
v 3.52714400 2.37371900 15.00000000
v 4.42007000 1.58265600 15.00000000
v 3.49663300 2.62500000 15.00000000
v 6.40000000 -0.00000000 15.00000000
v 4.67319700 1.58265600 15.00000000
v 3.52714400 2.87628100 15.00000000
v 4.91896900 1.64323300 15.00000000
v 0.77143480 6.35333700 15.00000000
v 6.21402800 1.53162000 15.00000000
v 5.14310100 1.76086700 15.00000000
v 5.33257000 1.92872100 15.00000000
v 5.47636200 2.13704100 15.00000000
v 5.56612200 2.37371900 15.00000000
v 5.59663300 2.62500000 15.00000000
v 2.26947100 5.98410400 15.00000000
v 3.61690500 3.11295900 15.00000000
v 5.66691900 2.97422800 15.00000000
v 5.56612200 2.87628100 15.00000000
v 5.47636200 3.11295900 15.00000000
v 5.33257000 3.32127900 15.00000000
v 3.63561400 5.26709700 15.00000000
v 3.95016500 3.48913300 15.00000000
v 4.17429800 3.60676700 15.00000000
v 3.76069700 3.32127900 15.00000000
v 4.79046900 4.24398500 15.00000000
v 5.14310100 3.48913300 15.00000000
v 4.91896900 3.60676700 15.00000000
v 4.67319700 3.66734400 15.00000000
v 4.42007000 3.66734400 15.00000000
v 13.06823000 -5.69625100 14.40000000
v 13.35694000 -5.95202900 14.40000000
v 12.84912000 -5.37881200 14.40000000
v 13.69848000 -6.13128100 14.40000000
v 12.71234000 -5.01816000 14.40000000
v 14.07299000 -6.22358900 14.40000000
v 12.66585000 -4.63525500 14.40000000
v 14.45871000 -6.22358900 14.40000000
v 12.71234000 -4.25235000 14.40000000
v 14.83322000 -6.13128100 14.40000000
v 12.84912000 -3.89169800 14.40000000
v 15.17475000 -5.95202900 14.40000000
v 13.06823000 -3.57425900 14.40000000
v 15.46346000 -5.69625100 14.40000000
v 13.35694000 -3.31848100 14.40000000
v 15.68258000 -5.37881200 14.40000000
v 13.69848000 -3.13922900 14.40000000
v 15.81935000 -5.01816000 14.40000000
v 14.07299000 -3.04692100 14.40000000
v 15.86585000 -4.63525500 14.40000000
v 14.45871000 -3.04692100 14.40000000
v 15.81935000 -4.25235000 14.40000000
v 14.83322000 -3.13922900 14.40000000
v 15.68258000 -3.89169800 14.40000000
v 15.17475000 -3.31848100 14.40000000
v 15.46346000 -3.57425900 14.40000000
v -5.33257000 1.92872100 14.65000000
v -5.14310100 1.76086700 14.65000000
v -5.47636200 2.13704100 14.65000000
v -4.91896900 1.64323300 14.65000000
v -5.56612200 2.37371900 14.65000000
v -4.67319700 1.58265600 14.65000000
v -5.59663300 2.62500000 14.65000000
v -4.42007000 1.58265600 14.65000000
v -5.56612200 2.87628100 14.65000000
v -4.17429800 1.64323300 14.65000000
v -5.47636200 3.11295900 14.65000000
v -3.95016500 1.76086700 14.65000000
v -5.33257000 3.32127900 14.65000000
v -3.76069700 1.92872100 14.65000000
v -5.14310100 3.48913300 14.65000000
v -3.61690500 2.13704100 14.65000000
v -4.91896900 3.60676700 14.65000000
v -3.52714400 2.37371900 14.65000000
v -4.67319700 3.66734400 14.65000000
v -3.49663300 2.62500000 14.65000000
v -4.42007000 3.66734400 14.65000000
v -3.52714400 2.87628100 14.65000000
v -4.17429800 3.60676700 14.65000000
v -3.61690500 3.11295900 14.65000000
v -3.95016500 3.48913300 14.65000000
v -3.76069700 3.32127900 14.65000000
v -12.34479000 8.97596300 14.40000000
v -12.05608000 8.72018500 14.40000000
v -12.56390000 9.29340200 14.40000000
v -11.71454000 8.54093300 14.40000000
v -12.70068000 9.65405400 14.40000000
v -11.34003000 8.44862500 14.40000000
v -12.74717000 10.03696000 14.40000000
v -10.95431000 8.44862500 14.40000000
v -12.70068000 10.41986000 14.40000000
v -10.57980000 8.54093300 14.40000000
v -12.56390000 10.78052000 14.40000000
v -10.23827000 8.72018500 14.40000000
v -12.34479000 11.09796000 14.40000000
v -9.94955500 8.97596300 14.40000000
v -12.05608000 11.35373000 14.40000000
v -9.73044300 9.29340200 14.40000000
v -11.71454000 11.53299000 14.40000000
v -9.59366500 9.65405400 14.40000000
v -11.34003000 11.62529000 14.40000000
v -9.54717200 10.03696000 14.40000000
v -10.95431000 11.62529000 14.40000000
v -9.59366500 10.41986000 14.40000000
v -10.57980000 11.53299000 14.40000000
v -9.73044300 10.78052000 14.40000000
v -10.23827000 11.35373000 14.40000000
v -9.94955500 11.09796000 14.40000000
v -4.31629300 13.61122000 14.40000000
v -4.02757900 13.35544000 14.40000000
v -4.53540500 13.92866000 14.40000000
v -3.68604300 13.17619000 14.40000000
v -4.67218200 14.28931000 14.40000000
v -3.31153400 13.08388000 14.40000000
v -4.71867500 14.67221000 14.40000000
v -2.92581700 13.08388000 14.40000000
v -4.67218200 15.05512000 14.40000000
v -2.55130800 13.17619000 14.40000000
v -4.53540500 15.41577000 14.40000000
v -2.20977200 13.35544000 14.40000000
v -4.31629300 15.73321000 14.40000000
v -1.92105800 13.61122000 14.40000000
v -4.02757900 15.98899000 14.40000000
v -1.70194600 13.92866000 14.40000000
v -3.68604300 16.16824000 14.40000000
v -1.56516800 14.28931000 14.40000000
v -3.31153400 16.26055000 14.40000000
v -1.51867500 14.67221000 14.40000000
v -2.92581700 16.26055000 14.40000000
v -1.56516800 15.05512000 14.40000000
v -2.55130800 16.16824000 14.40000000
v -1.70194600 15.41577000 14.40000000
v -2.20977200 15.98899000 14.40000000
v -1.92105800 15.73321000 14.40000000
v 3.76069700 1.92872100 14.65000000
v 3.95016500 1.76086700 14.65000000
v 3.61690500 2.13704100 14.65000000
v 4.17429800 1.64323300 14.65000000
v 3.52714400 2.37371900 14.65000000
v 4.42007000 1.58265600 14.65000000
v 3.49663300 2.62500000 14.65000000
v 4.67319700 1.58265600 14.65000000
v 3.52714400 2.87628100 14.65000000
v 4.91896900 1.64323300 14.65000000
v 3.61690500 3.11295900 14.65000000
v 5.14310100 1.76086700 14.65000000
v 3.76069700 3.32127900 14.65000000
v 5.33257000 1.92872100 14.65000000
v 3.95016500 3.48913300 14.65000000
v 5.47636200 2.13704100 14.65000000
v 4.17429800 3.60676700 14.65000000
v 5.56612200 2.37371900 14.65000000
v 4.42007000 3.66734400 14.65000000
v 5.59663300 2.62500000 14.65000000
v 4.67319700 3.66734400 14.65000000
v 5.56612200 2.87628100 14.65000000
v 4.91896900 3.60676700 14.65000000
v 5.47636200 3.11295900 14.65000000
v 5.14310100 3.48913300 14.65000000
v 5.33257000 3.32127900 14.65000000
v 13.06823000 3.57425900 14.40000000
v 13.35694000 3.31848100 14.40000000
v 12.84912000 3.89169800 14.40000000
v 13.69848000 3.13922900 14.40000000
v 12.71234000 4.25235000 14.40000000
v 14.07299000 3.04692100 14.40000000
v 12.66585000 4.63525500 14.40000000
v 14.45871000 3.04692100 14.40000000
v 12.71234000 5.01816000 14.40000000
v 14.83322000 3.13922900 14.40000000
v 12.84912000 5.37881200 14.40000000
v 15.17475000 3.31848100 14.40000000
v 13.06823000 5.69625100 14.40000000
v 15.46346000 3.57425900 14.40000000
v 13.35694000 5.95202900 14.40000000
v 15.68258000 3.89169800 14.40000000
v 13.69848000 6.13128100 14.40000000
v 15.81935000 4.25235000 14.40000000
v 14.07299000 6.22358900 14.40000000
v 15.86585000 4.63525500 14.40000000
v 14.45871000 6.22358900 14.40000000
v 15.81935000 5.01816000 14.40000000
v 14.83322000 6.13128100 14.40000000
v 15.68258000 5.37881200 14.40000000
v 15.17475000 5.95202900 14.40000000
v 15.46346000 5.69625100 14.40000000
f 1 2 3
f 1 3 4
f 5 1 4
f 5 4 6
f 7 5 6
f 7 6 8
f 9 7 8
f 9 8 10
f 9 10 11
f 12 9 11
f 13 12 11
f 13 11 14
f 13 14 15
f 16 13 15
f 17 16 15
f 17 15 18
f 17 18 19
f 20 17 19
f 21 20 19
f 21 19 22
f 23 21 22
f 23 22 24
f 25 23 24
f 25 24 26
f 27 25 26
f 27 26 28
f 29 27 28
f 29 28 30
f 29 30 31
f 32 29 31
f 33 32 31
f 33 31 34
f 33 34 35
f 36 33 35
f 36 35 37
f 38 37 39
f 38 36 37
f 40 38 39
f 41 39 42
f 41 42 43
f 41 40 39
f 44 43 45
f 44 41 43
f 46 44 45
f 47 45 48
f 47 46 45
f 49 48 50
f 49 47 48
f 51 50 52
f 51 52 53
f 51 49 50
f 54 51 53
f 55 54 53
f 55 53 56
f 55 56 57
f 58 55 57
f 58 57 59
f 60 58 59
f 60 59 61
f 62 60 61
f 62 61 63
f 64 62 63
f 64 63 65
f 66 64 65
f 67 66 65
f 67 65 68
f 67 68 69
f 70 67 69
f 71 70 69
f 71 69 72
f 73 71 72
f 73 72 74
f 75 73 74
f 75 74 76
f 75 76 77
f 78 75 77
f 78 77 79
f 80 78 79
f 81 80 79
f 81 79 82
f 83 81 82
f 83 82 84
f 83 84 85
f 86 83 85
f 87 86 85
f 87 85 88
f 89 87 88
f 89 88 90
f 89 90 3
f 2 89 3
f 91 58 60
f 92 58 91
f 92 55 58
f 93 91 60
f 93 60 62
f 94 55 92
f 94 54 55
f 95 93 62
f 95 62 64
f 96 54 94
f 96 51 54
f 97 95 64
f 97 64 66
f 98 49 51
f 98 51 96
f 99 47 49
f 99 49 98
f 100 97 66
f 100 66 67
f 101 99 98
f 46 47 99
f 102 100 67
f 102 67 70
f 103 46 99
f 44 46 103
f 104 70 71
f 104 102 70
f 105 44 103
f 105 103 106
f 41 44 105
f 107 104 71
f 107 71 73
f 108 41 105
f 109 73 75
f 109 107 73
f 110 107 109
f 40 41 108
f 111 40 108
f 112 75 78
f 112 109 75
f 38 40 111
f 113 38 111
f 80 112 78
f 114 115 112
f 114 112 80
f 36 38 113
f 116 36 113
f 81 117 114
f 81 114 80
f 33 36 116
f 118 33 116
f 83 119 117
f 83 117 81
f 32 33 118
f 120 32 118
f 86 119 83
f 86 121 119
f 29 32 120
f 122 29 120
f 87 121 86
f 87 123 121
f 27 29 122
f 27 122 124
f 89 125 123
f 89 123 87
f 25 27 124
f 25 124 126
f 2 125 89
f 2 127 128
f 2 128 125
f 23 25 126
f 23 126 129
f 1 127 2
f 1 130 127
f 21 23 129
f 21 129 131
f 132 131 133
f 5 130 1
f 5 134 130
f 20 21 131
f 20 131 132
f 135 136 137
f 7 134 5
f 7 138 134
f 17 20 132
f 17 132 135
f 9 139 138
f 9 138 7
f 16 17 135
f 12 139 9
f 12 137 139
f 13 135 137
f 13 137 12
f 13 16 135
f 140 57 141
f 142 141 57
f 142 57 56
f 143 57 140
f 143 59 57
f 144 142 56
f 145 59 143
f 146 144 56
f 147 59 145
f 148 56 53
f 148 146 56
f 149 59 147
f 149 61 59
f 150 148 53
f 151 61 149
f 152 53 52
f 152 150 53
f 153 152 52
f 154 52 50
f 154 153 52
f 155 50 48
f 155 154 50
f 156 65 63
f 157 65 156
f 158 156 63
f 159 65 157
f 160 63 61
f 160 158 63
f 161 68 65
f 161 65 159
f 162 61 151
f 162 160 61
f 163 68 161
f 164 151 165
f 164 162 151
f 166 68 163
f 167 165 168
f 167 164 165
f 169 69 68
f 169 68 166
f 170 168 171
f 170 167 168
f 172 69 169
f 173 170 171
f 173 171 174
f 175 69 172
f 176 174 177
f 176 173 174
f 178 69 175
f 72 69 178
f 72 178 179
f 74 72 179
f 74 179 180
f 76 74 180
f 181 182 176
f 183 182 181
f 183 184 182
f 185 176 177
f 185 181 176
f 185 177 186
f 187 184 183
f 187 188 184
f 189 185 186
f 189 186 190
f 191 188 187
f 191 192 188
f 193 189 190
f 193 190 194
f 195 192 191
f 195 196 192
f 197 193 194
f 198 196 195
f 198 199 196
f 200 76 180
f 200 199 198
f 200 180 199
f 201 77 76
f 201 76 200
f 202 77 201
f 203 204 205
f 206 204 203
f 207 203 205
f 207 205 155
f 207 155 48
f 208 204 206
f 208 194 204
f 209 48 45
f 209 207 48
f 210 42 39
f 211 42 210
f 212 210 39
f 213 42 211
f 213 43 42
f 214 215 197
f 216 217 218
f 216 218 215
f 216 215 214
f 219 39 37
f 219 212 39
f 220 214 197
f 220 194 208
f 220 197 194
f 220 208 221
f 222 43 213
f 222 45 43
f 222 209 45
f 222 223 209
f 224 225 217
f 224 217 216
f 226 219 37
f 227 220 221
f 227 221 228
f 229 223 222
f 229 230 223
f 231 232 233
f 231 233 225
f 231 225 224
f 234 226 37
f 235 227 228
f 235 228 236
f 237 230 229
f 237 238 230
f 239 234 37
f 240 241 232
f 240 232 231
f 242 238 237
f 242 243 238
f 244 235 236
f 244 236 245
f 244 245 246
f 247 248 249
f 247 249 243
f 247 243 242
f 250 251 241
f 250 241 240
f 252 244 246
f 252 246 253
f 254 248 247
f 254 255 248
f 35 256 257
f 35 257 258
f 35 258 239
f 35 239 37
f 259 260 251
f 259 251 250
f 259 261 260
f 262 255 254
f 263 252 253
f 263 253 264
f 263 264 265
f 266 261 259
f 266 267 261
f 268 265 269
f 268 263 265
f 270 267 266
f 271 269 272
f 271 272 273
f 271 268 269
f 274 271 273
f 274 273 275
f 34 276 277
f 34 277 278
f 34 278 256
f 34 256 35
f 279 280 281
f 282 280 279
f 283 281 284
f 283 279 281
f 285 286 280
f 285 280 282
f 287 283 284
f 288 289 286
f 288 286 285
f 290 284 291
f 290 287 284
f 292 289 288
f 292 270 289
f 293 291 294
f 293 290 291
f 295 270 292
f 296 293 294
f 297 294 298
f 297 296 294
f 299 297 298
f 31 300 276
f 31 276 34
f 301 79 77
f 301 77 202
f 302 82 79
f 302 79 301
f 303 301 202
f 303 202 304
f 305 82 302
f 306 304 307
f 306 303 304
f 308 82 305
f 308 84 82
f 309 306 307
f 309 270 295
f 309 267 270
f 309 307 267
f 310 84 308
f 311 295 312
f 311 309 295
f 313 84 310
f 314 311 312
f 314 312 315
f 316 314 315
f 316 315 317
f 318 319 320
f 321 322 319
f 321 319 318
f 323 320 324
f 323 318 320
f 325 255 262
f 325 262 322
f 325 322 321
f 85 84 313
f 85 313 326
f 85 326 327
f 85 327 328
f 329 324 300
f 329 323 324
f 330 255 325
f 330 331 332
f 330 332 255
f 333 300 31
f 333 329 300
f 334 331 330
f 334 275 331
f 335 333 31
f 336 298 274
f 336 274 275
f 336 275 334
f 336 299 298
f 30 335 31
f 30 337 335
f 338 339 299
f 338 299 336
f 340 337 30
f 341 339 338
f 341 342 339
f 343 342 341
f 343 344 342
f 88 85 328
f 88 345 346
f 88 328 347
f 88 347 345
f 28 348 349
f 28 349 350
f 28 350 340
f 28 340 30
f 90 346 351
f 90 351 352
f 90 352 353
f 90 88 346
f 354 316 317
f 354 355 316
f 354 317 356
f 357 355 354
f 358 354 356
f 358 356 359
f 360 355 357
f 360 361 355
f 362 359 363
f 362 358 359
f 364 361 360
f 364 365 366
f 364 366 361
f 367 362 363
f 367 363 368
f 369 365 364
f 26 348 28
f 26 370 371
f 26 371 372
f 26 372 348
f 373 367 368
f 373 368 374
f 375 365 369
f 375 376 365
f 377 373 374
f 377 374 378
f 379 378 380
f 379 377 378
f 3 376 375
f 3 353 376
f 3 90 353
f 3 375 381
f 24 370 26
f 24 382 383
f 24 383 384
f 24 384 370
f 4 385 386
f 4 386 387
f 4 3 381
f 4 381 385
f 22 388 382
f 22 382 24
f 6 387 389
f 6 4 387
f 6 389 390
f 6 390 391
f 19 388 22
f 19 392 388
f 8 391 393
f 8 393 394
f 8 394 395
f 8 6 391
f 18 344 343
f 18 343 392
f 18 392 19
f 10 8 395
f 10 395 396
f 10 396 397
f 15 379 380
f 15 380 344
f 15 344 18
f 11 10 397
f 11 397 398
f 11 398 399
f 14 11 399
f 14 399 379
f 14 379 15
f 400 401 128
f 400 128 127
f 402 127 130
f 402 400 127
f 403 130 134
f 403 402 130
f 404 134 138
f 404 403 134
f 405 138 139
f 405 404 138
f 406 139 137
f 406 405 139
f 407 137 136
f 407 406 137
f 408 409 410
f 407 408 411
f 407 136 408
f 135 412 136
f 412 409 408
f 412 408 136
f 135 413 412
f 135 132 413
f 414 415 416
f 417 418 414
f 417 414 133
f 132 133 413
f 413 414 416
f 413 133 414
f 419 417 133
f 419 133 131
f 420 131 129
f 420 419 131
f 421 129 126
f 421 420 129
f 422 126 124
f 422 421 126
f 423 124 122
f 423 422 124
f 424 122 120
f 424 423 122
f 425 120 118
f 425 424 120
f 426 118 116
f 426 425 118
f 427 116 113
f 427 426 116
f 428 113 111
f 428 111 108
f 428 427 113
f 429 428 108
f 430 108 105
f 430 429 108
f 431 105 106
f 431 430 105
f 432 433 434
f 431 432 435
f 431 106 432
f 103 436 106
f 436 433 432
f 436 432 106
f 103 437 436
f 103 99 437
f 438 439 440
f 441 442 438
f 441 438 101
f 99 101 437
f 437 438 440
f 437 101 438
f 443 441 101
f 443 101 98
f 444 98 96
f 444 443 98
f 445 96 94
f 445 444 96
f 446 94 92
f 446 445 94
f 447 92 91
f 447 446 92
f 448 91 93
f 448 447 91
f 449 93 95
f 449 448 93
f 450 95 97
f 450 449 95
f 451 97 100
f 451 450 97
f 452 100 102
f 452 451 100
f 453 102 104
f 453 452 102
f 454 104 107
f 454 453 104
f 455 107 110
f 455 454 107
f 456 457 458
f 110 456 459
f 455 110 459
f 109 460 110
f 460 457 456
f 460 456 110
f 109 461 460
f 109 112 461
f 462 463 464
f 465 466 462
f 465 462 115
f 112 115 461
f 461 462 464
f 461 115 462
f 467 465 115
f 467 115 114
f 468 114 117
f 468 467 114
f 469 117 119
f 469 468 117
f 470 119 121
f 470 469 119
f 471 121 123
f 471 470 121
f 472 123 125
f 472 471 123
f 401 125 128
f 401 472 125
f 473 174 474
f 473 177 174
f 475 186 177
f 475 177 473
f 476 190 186
f 476 186 475
f 477 194 190
f 477 190 476
f 478 204 194
f 478 194 477
f 479 205 204
f 479 204 478
f 480 155 205
f 480 205 479
f 481 154 155
f 481 153 154
f 481 155 480
f 482 153 481
f 483 152 153
f 483 150 152
f 483 153 482
f 484 150 483
f 485 150 484
f 485 148 150
f 486 148 485
f 486 146 148
f 487 146 486
f 487 144 146
f 487 142 144
f 488 142 487
f 489 142 488
f 489 141 142
f 490 141 489
f 490 140 141
f 491 140 490
f 491 143 140
f 492 143 491
f 492 145 143
f 492 147 145
f 493 147 492
f 494 147 493
f 494 149 147
f 495 149 494
f 495 151 149
f 496 151 495
f 496 165 151
f 497 168 165
f 497 171 168
f 497 165 496
f 498 171 497
f 474 174 171
f 474 171 498
f 499 179 500
f 499 180 179
f 501 199 180
f 501 180 499
f 502 196 199
f 502 199 501
f 503 192 196
f 503 196 502
f 504 188 192
f 504 192 503
f 505 184 188
f 505 188 504
f 506 182 184
f 506 184 505
f 507 176 182
f 507 173 176
f 507 182 506
f 508 173 507
f 509 170 173
f 509 167 170
f 509 173 508
f 510 167 509
f 511 167 510
f 511 164 167
f 512 164 511
f 512 162 164
f 513 162 512
f 513 160 162
f 513 158 160
f 514 158 513
f 515 158 514
f 515 156 158
f 516 156 515
f 516 157 156
f 517 157 516
f 517 159 157
f 518 159 517
f 518 161 159
f 518 163 161
f 519 163 518
f 520 163 519
f 520 166 163
f 521 166 520
f 521 169 166
f 522 169 521
f 522 172 169
f 523 175 172
f 523 178 175
f 523 172 522
f 524 178 523
f 500 179 178
f 500 178 524
f 525 307 526
f 525 267 307
f 527 261 267
f 527 267 525
f 528 260 261
f 528 261 527
f 529 251 260
f 529 260 528
f 530 241 251
f 530 232 241
f 530 251 529
f 531 232 530
f 532 233 232
f 532 225 233
f 532 232 531
f 533 225 532
f 534 217 225
f 534 225 533
f 535 218 217
f 535 217 534
f 536 215 218
f 536 218 535
f 537 215 536
f 537 197 215
f 538 197 537
f 538 193 197
f 539 193 538
f 539 189 193
f 540 189 539
f 540 185 189
f 541 185 540
f 541 181 185
f 541 183 181
f 542 183 541
f 542 187 183
f 543 187 542
f 544 187 543
f 544 191 187
f 544 195 191
f 545 195 544
f 546 195 545
f 546 198 195
f 547 198 546
f 547 200 198
f 547 201 200
f 548 201 547
f 549 202 201
f 549 201 548
f 550 304 202
f 550 202 549
f 526 304 550
f 526 307 304
f 551 286 552
f 551 280 286
f 553 281 280
f 553 284 281
f 553 280 551
f 554 284 553
f 555 291 284
f 555 294 291
f 555 284 554
f 556 294 555
f 557 298 294
f 557 294 556
f 558 274 298
f 558 298 557
f 559 271 274
f 559 274 558
f 560 268 271
f 560 271 559
f 561 263 268
f 561 268 560
f 562 252 263
f 562 244 252
f 562 263 561
f 563 244 562
f 564 244 563
f 564 235 244
f 565 235 564
f 565 227 235
f 565 220 227
f 566 220 565
f 566 214 220
f 567 214 566
f 568 214 567
f 568 216 214
f 568 224 216
f 569 224 568
f 570 224 569
f 570 231 224
f 570 240 231
f 571 240 570
f 572 240 571
f 572 250 240
f 573 250 572
f 573 259 250
f 573 266 259
f 574 266 573
f 575 270 266
f 575 266 574
f 576 289 270
f 576 270 575
f 552 289 576
f 552 286 289
f 577 345 578
f 577 346 345
f 579 351 346
f 579 346 577
f 580 352 351
f 580 351 579
f 581 353 352
f 581 352 580
f 582 376 353
f 582 353 581
f 583 365 376
f 583 376 582
f 584 366 365
f 584 365 583
f 585 361 366
f 585 355 361
f 585 366 584
f 586 355 585
f 587 316 355
f 587 314 316
f 587 355 586
f 588 314 587
f 589 314 588
f 589 311 314
f 590 311 589
f 590 309 311
f 591 309 590
f 591 306 309
f 591 303 306
f 592 303 591
f 593 303 592
f 593 301 303
f 594 301 593
f 594 302 301
f 595 302 594
f 595 305 302
f 596 305 595
f 596 308 305
f 596 310 308
f 597 310 596
f 598 310 597
f 598 313 310
f 599 313 598
f 599 326 313
f 600 326 599
f 600 327 326
f 601 328 327
f 601 347 328
f 601 327 600
f 602 347 601
f 578 345 347
f 578 347 602
f 603 265 604
f 603 269 265
f 605 272 269
f 605 269 603
f 606 273 272
f 606 272 605
f 607 275 273
f 607 273 606
f 608 331 275
f 608 332 331
f 608 275 607
f 609 332 608
f 610 255 332
f 610 248 255
f 610 332 609
f 611 248 610
f 612 249 248
f 612 248 611
f 613 243 249
f 613 249 612
f 614 238 243
f 614 243 613
f 615 238 614
f 615 230 238
f 616 230 615
f 616 223 230
f 617 223 616
f 617 209 223
f 618 209 617
f 618 207 209
f 619 207 618
f 619 203 207
f 619 206 203
f 620 206 619
f 620 208 206
f 621 208 620
f 622 208 621
f 622 221 208
f 622 228 221
f 623 228 622
f 624 228 623
f 624 236 228
f 625 236 624
f 625 245 236
f 625 246 245
f 626 246 625
f 627 253 246
f 627 246 626
f 628 264 253
f 628 253 627
f 604 264 628
f 604 265 264
f 629 322 630
f 629 319 322
f 631 320 319
f 631 319 629
f 632 324 320
f 632 320 631
f 633 300 324
f 633 324 632
f 634 276 300
f 634 300 633
f 635 277 276
f 635 276 634
f 636 278 277
f 636 277 635
f 637 256 278
f 637 257 256
f 637 278 636
f 638 257 637
f 639 258 257
f 639 239 258
f 639 257 638
f 640 239 639
f 641 239 640
f 641 234 239
f 642 234 641
f 642 226 234
f 643 226 642
f 643 219 226
f 643 212 219
f 644 212 643
f 645 212 644
f 645 210 212
f 646 210 645
f 646 211 210
f 647 211 646
f 647 213 211
f 648 213 647
f 648 222 213
f 648 229 222
f 649 229 648
f 650 229 649
f 650 237 229
f 651 237 650
f 651 242 237
f 652 242 651
f 652 247 242
f 653 254 247
f 653 262 254
f 653 247 652
f 654 262 653
f 630 322 262
f 630 262 654
f 655 388 656
f 655 382 388
f 657 383 382
f 657 382 655
f 658 384 383
f 658 383 657
f 659 370 384
f 659 384 658
f 660 371 370
f 660 370 659
f 661 372 371
f 661 371 660
f 662 348 372
f 662 372 661
f 663 349 348
f 663 350 349
f 663 348 662
f 664 350 663
f 665 340 350
f 665 337 340
f 665 350 664
f 666 337 665
f 667 337 666
f 667 335 337
f 668 335 667
f 668 333 335
f 669 333 668
f 669 329 333
f 669 323 329
f 670 323 669
f 671 323 670
f 671 318 323
f 672 318 671
f 672 321 318
f 673 321 672
f 673 325 321
f 674 325 673
f 674 330 325
f 674 334 330
f 675 334 674
f 676 334 675
f 676 336 334
f 677 336 676
f 677 338 336
f 678 338 677
f 678 341 338
f 679 343 341
f 679 392 343
f 679 341 678
f 680 392 679
f 656 388 392
f 656 392 680
f 681 359 682
f 681 363 359
f 683 368 363
f 683 363 681
f 684 374 368
f 684 368 683
f 685 378 374
f 685 374 684
f 686 380 378
f 686 344 380
f 686 378 685
f 687 344 686
f 688 342 344
f 688 339 342
f 688 344 687
f 689 339 688
f 690 299 339
f 690 339 689
f 691 297 299
f 691 299 690
f 692 296 297
f 692 297 691
f 693 296 692
f 693 293 296
f 694 293 693
f 694 290 293
f 695 290 694
f 695 287 290
f 696 287 695
f 696 283 287
f 697 283 696
f 697 279 283
f 697 282 279
f 698 282 697
f 698 285 282
f 699 285 698
f 700 285 699
f 700 288 285
f 700 292 288
f 701 292 700
f 702 292 701
f 702 295 292
f 703 295 702
f 703 312 295
f 703 315 312
f 704 315 703
f 705 317 315
f 705 315 704
f 706 356 317
f 706 317 705
f 682 356 706
f 682 359 356
f 707 389 708
f 707 390 389
f 709 391 390
f 709 390 707
f 710 393 391
f 710 391 709
f 711 394 393
f 711 393 710
f 712 395 394
f 712 394 711
f 713 396 395
f 713 395 712
f 714 397 396
f 714 396 713
f 715 398 397
f 715 399 398
f 715 397 714
f 716 399 715
f 717 379 399
f 717 377 379
f 717 399 716
f 718 377 717
f 719 377 718
f 719 373 377
f 720 373 719
f 720 367 373
f 721 367 720
f 721 362 367
f 721 358 362
f 722 358 721
f 723 358 722
f 723 354 358
f 724 354 723
f 724 357 354
f 725 357 724
f 725 360 357
f 726 360 725
f 726 364 360
f 726 369 364
f 727 369 726
f 728 369 727
f 728 375 369
f 729 375 728
f 729 381 375
f 730 381 729
f 730 385 381
f 731 386 385
f 731 387 386
f 731 385 730
f 732 387 731
f 708 389 387
f 708 387 732
f 467 466 465
f 733 466 467
f 468 733 467
f 734 468 469
f 734 735 733
f 734 733 468
f 734 736 735
f 737 735 736
f 738 734 469
f 739 740 735
f 739 735 737
f 741 738 469
f 742 740 739
f 743 741 469
f 744 740 742
f 745 740 744
f 745 746 740
f 470 743 469
f 470 747 743
f 748 747 470
f 749 746 745
f 750 748 470
f 751 746 749
f 752 750 470
f 753 746 751
f 754 746 753
f 755 754 753
f 471 756 757
f 471 752 470
f 471 758 756
f 471 759 752
f 471 757 759
f 472 758 471
f 472 760 758
f 472 761 760
f 472 762 761
f 763 764 765
f 766 767 765
f 766 765 764
f 768 765 754
f 768 763 765
f 769 767 766
f 770 754 755
f 770 768 754
f 771 767 769
f 401 772 762
f 401 762 472
f 773 755 772
f 773 772 401
f 773 770 755
f 774 775 767
f 774 767 771
f 776 773 401
f 777 775 774
f 778 775 777
f 779 780 775
f 779 775 778
f 400 781 776
f 400 782 781
f 400 783 782
f 400 776 401
f 402 784 785
f 402 786 784
f 402 787 783
f 402 785 787
f 402 783 400
f 403 786 402
f 403 788 786
f 403 789 788
f 403 790 789
f 403 791 790
f 404 791 403
f 404 792 791
f 404 793 792
f 404 779 793
f 405 779 404
f 405 780 779
f 406 407 411
f 406 411 780
f 406 780 405
f 765 794 754
f 765 795 794
f 767 796 795
f 767 795 765
f 775 797 796
f 775 796 767
f 780 798 797
f 780 797 775
f 411 408 798
f 411 798 780
f 439 438 799
f 800 801 802
f 803 802 804
f 803 800 802
f 805 799 806
f 805 806 801
f 805 439 799
f 805 801 800
f 807 804 808
f 807 808 809
f 807 803 804
f 810 439 805
f 811 809 812
f 811 807 809
f 813 432 434
f 814 439 810
f 814 434 439
f 458 815 456
f 816 812 815
f 816 811 812
f 816 815 458
f 817 434 814
f 818 816 458
f 819 434 817
f 819 820 813
f 819 813 434
f 821 818 458
f 822 820 819
f 463 821 458
f 823 822 819
f 824 821 463
f 825 824 463
f 825 463 462
f 826 822 823
f 827 826 823
f 828 829 824
f 828 824 825
f 830 827 831
f 830 826 827
f 832 833 829
f 832 829 828
f 834 830 831
f 835 836 833
f 835 833 832
f 837 831 838
f 837 834 831
f 794 836 835
f 839 838 840
f 839 837 838
f 795 841 836
f 795 836 794
f 415 842 843
f 415 840 842
f 844 840 415
f 844 839 840
f 410 843 845
f 410 415 843
f 796 846 841
f 796 841 795
f 414 844 415
f 797 845 846
f 797 846 796
f 798 408 410
f 798 410 845
f 798 845 797
f 410 409 416
f 410 416 415
f 413 416 409
f 413 409 412
f 435 430 431
f 847 429 430
f 847 430 435
f 848 428 429
f 848 849 428
f 850 428 849
f 851 847 852
f 851 429 847
f 851 848 429
f 853 428 850
f 854 851 852
f 855 428 853
f 427 428 855
f 856 854 852
f 857 427 855
f 858 856 852
f 859 427 857
f 860 858 852
f 861 858 860
f 862 427 859
f 863 861 860
f 864 427 862
f 865 863 860
f 426 427 864
f 426 866 867
f 426 868 866
f 426 869 868
f 426 864 869
f 870 871 872
f 870 865 860
f 870 873 865
f 870 872 873
f 874 871 870
f 874 875 871
f 425 426 867
f 425 876 877
f 425 867 876
f 878 874 879
f 878 880 874
f 881 424 425
f 881 877 875
f 881 875 874
f 881 425 877
f 881 874 880
f 882 878 879
f 883 424 881
f 884 882 879
f 885 424 883
f 886 879 887
f 886 884 879
f 888 424 885
f 889 886 887
f 890 889 887
f 423 891 892
f 423 888 891
f 423 424 888
f 893 887 894
f 893 890 887
f 895 423 892
f 896 893 894
f 897 423 895
f 898 896 894
f 899 898 894
f 422 423 897
f 422 900 901
f 422 902 900
f 422 903 902
f 422 897 903
f 421 422 901
f 421 904 905
f 421 906 904
f 421 901 906
f 420 421 905
f 420 905 907
f 420 907 898
f 420 898 899
f 419 899 418
f 419 420 899
f 417 419 418
f 899 414 418
f 899 844 414
f 894 839 844
f 894 844 899
f 887 837 839
f 887 839 894
f 879 834 837
f 879 837 887
f 874 830 834
f 874 834 879
f 870 826 830
f 870 830 874
f 860 822 826
f 860 826 870
f 852 820 822
f 852 822 860
f 847 813 820
f 847 432 813
f 847 820 852
f 435 432 847
f 434 433 440
f 434 440 439
f 437 440 433
f 437 433 436
f 908 446 447
f 908 909 446
f 910 446 909
f 911 908 447
f 912 446 910
f 913 911 447
f 914 445 446
f 914 446 912
f 915 913 447
f 916 445 914
f 917 915 447
f 917 447 448
f 918 445 916
f 919 917 448
f 920 445 918
f 921 919 448
f 922 444 445
f 922 445 920
f 923 444 922
f 924 925 450
f 926 450 925
f 927 450 451
f 927 924 450
f 928 449 450
f 928 450 926
f 929 927 451
f 930 449 928
f 931 929 451
f 932 449 930
f 933 931 451
f 934 448 449
f 934 921 448
f 934 449 932
f 934 935 921
f 936 933 451
f 452 937 936
f 452 936 451
f 938 937 452
f 939 938 452
f 940 941 942
f 940 943 941
f 940 942 944
f 945 946 943
f 945 947 946
f 945 948 947
f 945 943 940
f 949 940 944
f 949 950 951
f 949 934 950
f 949 935 934
f 949 944 935
f 952 948 945
f 952 953 948
f 952 954 953
f 952 923 954
f 453 955 956
f 453 956 939
f 453 939 452
f 957 958 959
f 957 960 958
f 957 951 960
f 957 949 951
f 961 443 444
f 961 923 952
f 961 444 923
f 962 963 964
f 962 965 963
f 962 959 965
f 962 957 959
f 442 441 443
f 442 443 961
f 966 967 955
f 966 964 967
f 966 962 964
f 968 955 453
f 968 453 454
f 968 966 955
f 459 968 454
f 459 454 455
f 961 438 442
f 961 799 438
f 952 806 799
f 952 799 961
f 945 801 806
f 945 806 952
f 940 802 801
f 940 801 945
f 949 804 802
f 949 802 940
f 957 808 804
f 957 809 808
f 957 804 949
f 962 809 957
f 966 812 809
f 966 815 812
f 966 809 962
f 968 815 966
f 459 456 815
f 459 815 968
f 458 457 464
f 458 464 463
f 461 464 457
f 461 457 460
f 733 462 466
f 733 825 462
f 735 828 825
f 735 825 733
f 740 832 828
f 740 828 735
f 746 835 832
f 746 832 740
f 754 794 835
f 754 835 746
f 490 969 970
f 490 489 969
f 488 971 969
f 488 969 489
f 491 970 972
f 491 490 970
f 487 973 971
f 487 971 488
f 492 972 974
f 492 491 972
f 486 975 973
f 486 973 487
f 493 974 976
f 493 492 974
f 485 977 975
f 485 975 486
f 494 976 978
f 494 493 976
f 484 979 977
f 484 977 485
f 495 978 980
f 495 494 978
f 483 981 979
f 483 979 484
f 982 495 980
f 982 496 495
f 482 981 483
f 983 981 482
f 984 497 496
f 984 496 982
f 498 497 984
f 985 983 482
f 985 482 481
f 986 498 984
f 987 985 481
f 987 480 479
f 987 481 480
f 988 473 474
f 988 498 986
f 988 474 498
f 989 987 479
f 990 473 988
f 991 478 477
f 991 479 478
f 991 989 479
f 992 473 990
f 992 475 473
f 992 476 475
f 993 991 477
f 994 477 476
f 994 993 477
f 994 476 992
f 516 995 996
f 516 515 995
f 514 997 995
f 514 995 515
f 517 996 998
f 517 516 996
f 513 999 997
f 513 997 514
f 518 998 1000
f 518 517 998
f 512 1001 999
f 512 999 513
f 519 1000 1002
f 519 518 1000
f 511 1003 1001
f 511 1001 512
f 520 1002 1004
f 520 519 1002
f 510 1005 1003
f 510 1003 511
f 521 1004 1006
f 521 520 1004
f 509 1007 1005
f 509 1005 510
f 522 521 1006
f 1008 522 1006
f 1009 1007 509
f 1009 509 508
f 1010 522 1008
f 1010 523 522
f 524 523 1010
f 1011 1009 508
f 1011 508 507
f 1012 524 1010
f 1013 1011 507
f 1013 507 506
f 1014 524 1012
f 1014 500 524
f 1015 506 505
f 1015 1013 506
f 1016 499 500
f 1016 500 1014
f 1017 505 504
f 1017 1015 505
f 1018 501 499
f 1018 499 1016
f 1019 1017 504
f 1019 504 503
f 1020 502 501
f 1020 503 502
f 1020 1019 503
f 1020 501 1018
f 542 1021 1022
f 542 541 1021
f 540 1023 1021
f 540 1021 541
f 543 1022 1024
f 543 542 1022
f 539 1025 1023
f 539 1023 540
f 544 1024 1026
f 544 543 1024
f 538 1027 1025
f 538 1025 539
f 545 1026 1028
f 545 544 1026
f 537 1029 1027
f 537 1027 538
f 546 1028 1030
f 546 545 1028
f 536 1031 1029
f 536 1029 537
f 547 1030 1032
f 547 546 1030
f 535 1033 1031
f 535 1031 536
f 1034 547 1032
f 1034 548 547
f 1035 1033 535
f 1035 535 534
f 1036 548 1034
f 1036 549 548
f 1037 1035 534
f 1037 533 532
f 1037 534 533
f 1038 549 1036
f 1038 550 549
f 1038 526 550
f 1039 1037 532
f 1040 526 1038
f 1041 532 531
f 1041 1039 532
f 1042 526 1040
f 1042 525 526
f 1042 527 525
f 1043 1041 531
f 1043 531 530
f 1044 527 1042
f 1045 530 529
f 1045 1043 530
f 1046 1045 529
f 1046 528 527
f 1046 529 528
f 1046 527 1044
f 1047 1048 1049
f 1050 1051 1049
f 1050 1049 1048
f 1052 1047 1049
f 1053 1051 1050
f 1054 1052 1049
f 1055 1051 1053
f 1056 1057 1051
f 1056 1051 1055
f 1058 1057 1056
f 1059 1060 1054
f 1059 1061 1060
f 1059 1054 1049
f 1062 1061 1059
f 1063 1057 1058
f 1064 1062 1059
f 1065 1064 1059
f 1066 1067 1068
f 1066 1069 1065
f 1066 1068 1069
f 1066 1065 1059
f 1070 1071 1072
f 1073 1072 1071
f 1074 1070 1072
f 1074 1072 1075
f 1076 1072 1073
f 1077 1074 1075
f 1078 1072 1076
f 1079 1077 1075
f 1079 1075 1080
f 1081 1072 1078
f 1082 1081 1078
f 568 567 1083
f 568 1083 1057
f 568 1063 1084
f 568 1057 1063
f 1085 1081 1082
f 566 1083 567
f 566 1086 1083
f 569 568 1084
f 569 1084 1087
f 565 1080 1086
f 565 1086 566
f 565 1079 1080
f 1088 1081 1085
f 570 1087 1089
f 570 569 1087
f 564 1079 565
f 564 1090 1079
f 564 1091 1090
f 1092 1093 1067
f 1092 1094 1093
f 1092 1067 1066
f 571 1095 1096
f 571 1089 1095
f 571 570 1089
f 563 1091 564
f 563 1097 1091
f 572 571 1096
f 572 1096 1098
f 562 1097 563
f 562 1099 1097
f 1100 1081 1088
f 1100 1101 1102
f 1100 1103 1101
f 1100 1104 1103
f 1100 1105 1104
f 1100 1088 1105
f 573 1098 1094
f 573 572 1098
f 573 1094 1092
f 561 1099 562
f 561 1106 1099
f 561 1107 1106
f 574 573 1092
f 560 1107 561
f 560 1108 1107
f 1109 574 1092
f 559 1108 560
f 1110 1100 1102
f 1110 1111 1112
f 1110 1113 1111
f 1110 1102 1113
f 1114 575 574
f 1114 574 1109
f 1115 1112 1108
f 1115 1110 1112
f 1115 559 558
f 1115 1108 559
f 1116 576 575
f 1116 575 1114
f 1117 1115 558
f 1118 553 551
f 1119 1118 551
f 1119 551 552
f 1120 553 1118
f 1120 554 553
f 1121 1119 552
f 1122 554 1120
f 1123 552 576
f 1123 1121 552
f 1123 576 1116
f 1124 554 1122
f 1124 555 554
f 1125 1123 1116
f 1125 1126 1123
f 1127 555 1124
f 1127 556 555
f 1128 1126 1125
f 1129 1117 558
f 1129 558 557
f 1130 1131 1128
f 1130 1132 1131
f 1130 1133 1132
f 1130 1128 1125
f 1134 1133 1130
f 1135 1134 1130
f 1136 1127 1137
f 1136 556 1127
f 1136 1129 557
f 1136 557 556
f 1138 1139 1135
f 1138 1140 1139
f 1138 1135 1130
f 1141 1140 1138
f 1142 1143 1144
f 1142 1145 1143
f 1142 1137 1145
f 1142 1136 1137
f 1146 1147 1141
f 1146 1148 1147
f 1146 1149 1148
f 1146 1150 1149
f 1146 1144 1150
f 1146 1141 1138
f 1146 1142 1144
f 594 1151 1152
f 594 593 1151
f 592 1153 1151
f 592 1151 593
f 595 1152 1154
f 595 594 1152
f 591 1155 1153
f 591 1153 592
f 596 1154 1156
f 596 595 1154
f 590 1157 1155
f 590 1155 591
f 597 1156 1158
f 597 596 1156
f 589 1159 1157
f 589 1157 590
f 598 1158 1160
f 598 597 1158
f 588 1161 1159
f 588 1159 589
f 599 1160 1162
f 599 598 1160
f 587 1163 1161
f 587 1161 588
f 1164 599 1162
f 1164 600 599
f 586 1163 587
f 1165 1163 586
f 1166 601 600
f 1166 600 1164
f 602 601 1166
f 1167 1165 586
f 1167 586 585
f 1168 602 1166
f 1169 1167 585
f 1169 584 583
f 1169 585 584
f 1170 577 578
f 1170 602 1168
f 1170 578 602
f 1171 1169 583
f 1172 577 1170
f 1173 582 581
f 1173 583 582
f 1173 1171 583
f 1174 577 1172
f 1174 579 577
f 1174 580 579
f 1175 1173 581
f 1176 581 580
f 1176 1175 581
f 1176 580 1174
f 620 1177 1178
f 620 619 1177
f 618 1179 1177
f 618 1177 619
f 621 1178 1180
f 621 620 1178
f 617 1181 1179
f 617 1179 618
f 622 1180 1182
f 622 621 1180
f 616 1183 1181
f 616 1181 617
f 623 1182 1184
f 623 622 1182
f 615 1185 1183
f 615 1183 616
f 624 1184 1186
f 624 623 1184
f 614 1187 1185
f 614 1185 615
f 625 1186 1188
f 625 624 1186
f 613 1189 1187
f 613 1187 614
f 1190 626 625
f 1190 625 1188
f 612 1189 613
f 1191 1189 612
f 1192 626 1190
f 1192 627 626
f 1193 1191 612
f 1193 612 611
f 1194 627 1192
f 1194 628 627
f 1195 1193 611
f 1195 611 610
f 1196 628 1194
f 1196 604 628
f 1197 610 609
f 1197 1195 610
f 1198 604 1196
f 1198 603 604
f 1199 609 608
f 1199 1197 609
f 1200 605 603
f 1200 603 1198
f 1201 608 607
f 1201 1199 608
f 1202 606 605
f 1202 607 606
f 1202 605 1200
f 1202 1201 607
f 646 1203 1204
f 646 645 1203
f 644 1205 1203
f 644 1203 645
f 647 1204 1206
f 647 646 1204
f 643 1207 1205
f 643 1205 644
f 648 1206 1208
f 648 647 1206
f 642 1209 1207
f 642 1207 643
f 649 1208 1210
f 649 648 1208
f 641 1211 1209
f 641 1209 642
f 650 1210 1212
f 650 649 1210
f 640 1213 1211
f 640 1211 641
f 651 1212 1214
f 651 650 1212
f 639 1215 1213
f 639 1213 640
f 1216 651 1214
f 1216 652 651
f 638 1215 639
f 1217 1215 638
f 1218 653 652
f 1218 652 1216
f 654 653 1218
f 1219 1217 638
f 1219 638 637
f 1220 654 1218
f 1221 1219 637
f 1221 636 635
f 1221 637 636
f 1222 629 630
f 1222 654 1220
f 1222 630 654
f 1223 1221 635
f 1224 629 1222
f 1225 634 633
f 1225 635 634
f 1225 1223 635
f 1226 629 1224
f 1226 631 629
f 1226 632 631
f 1227 1225 633
f 1228 633 632
f 1228 1227 633
f 1228 632 1226
f 672 1229 1230
f 672 671 1229
f 670 1231 1229
f 670 1229 671
f 673 1230 1232
f 673 672 1230
f 669 1233 1231
f 669 1231 670
f 674 1232 1234
f 674 673 1232
f 668 1235 1233
f 668 1233 669
f 675 1234 1236
f 675 674 1234
f 667 1237 1235
f 667 1235 668
f 676 1236 1238
f 676 675 1236
f 666 1239 1237
f 666 1237 667
f 677 1238 1240
f 677 676 1238
f 665 1241 1239
f 665 1239 666
f 678 677 1240
f 1242 678 1240
f 664 1241 665
f 1243 1241 664
f 1244 678 1242
f 1244 679 678
f 1245 1243 664
f 1245 664 663
f 1246 679 1244
f 1246 680 679
f 1247 1245 663
f 1247 663 662
f 1248 680 1246
f 1248 656 680
f 1249 662 661
f 1249 1247 662
f 1250 655 656
f 1250 656 1248
f 1251 661 660
f 1251 1249 661
f 1252 657 655
f 1252 655 1250
f 1253 1251 660
f 1253 660 659
f 1254 658 657
f 1254 659 658
f 1254 1253 659
f 1254 657 1252
f 698 1255 1256
f 698 697 1255
f 696 1257 1255
f 696 1255 697
f 699 1256 1258
f 699 698 1256
f 695 1259 1257
f 695 1257 696
f 700 1258 1260
f 700 699 1258
f 694 1261 1259
f 694 1259 695
f 701 1260 1262
f 701 700 1260
f 693 1263 1261
f 693 1261 694
f 702 1262 1264
f 702 701 1262
f 692 1265 1263
f 692 1263 693
f 703 1264 1266
f 703 702 1264
f 691 1267 1265
f 691 1265 692
f 1268 704 703
f 1268 703 1266
f 690 1267 691
f 1269 1267 690
f 1270 704 1268
f 1270 705 704
f 1270 706 705
f 1271 1269 690
f 1271 690 689
f 1272 706 1270
f 1273 1271 689
f 1273 689 688
f 1274 706 1272
f 1274 682 706
f 1275 688 687
f 1275 1273 688
f 1276 681 682
f 1276 682 1274
f 1277 687 686
f 1277 1275 687
f 1278 681 1276
f 1278 683 681
f 1279 1277 686
f 1279 686 685
f 1280 684 683
f 1280 685 684
f 1280 1279 685
f 1280 683 1278
f 724 1281 1282
f 724 723 1281
f 722 1283 1281
f 722 1281 723
f 725 1282 1284
f 725 724 1282
f 721 1285 1283
f 721 1283 722
f 726 1284 1286
f 726 725 1284
f 720 1287 1285
f 720 1285 721
f 727 1286 1288
f 727 726 1286
f 719 1289 1287
f 719 1287 720
f 728 1288 1290
f 728 727 1288
f 718 1291 1289
f 718 1289 719
f 729 1290 1292
f 729 728 1290
f 717 1293 1291
f 717 1291 718
f 1294 729 1292
f 1294 730 729
f 716 1293 717
f 1295 1293 716
f 1296 731 730
f 1296 730 1294
f 732 731 1296
f 1297 1295 716
f 1297 716 715
f 1298 732 1296
f 1299 1297 715
f 1299 714 713
f 1299 715 714
f 1300 707 708
f 1300 732 1298
f 1300 708 732
f 1301 1299 713
f 1302 707 1300
f 1303 712 711
f 1303 713 712
f 1303 1301 713
f 1304 707 1302
f 1304 709 707
f 1304 710 709
f 1305 1303 711
f 1306 711 710
f 1306 1305 711
f 1306 710 1304
f 756 1170 757
f 756 1172 1170
f 758 1174 1172
f 758 1172 756
f 760 1176 1174
f 760 1174 758
f 761 1175 1176
f 761 1176 760
f 762 1173 1175
f 762 1175 761
f 772 1171 1173
f 772 1173 762
f 755 1169 1171
f 755 1171 772
f 753 1167 1169
f 753 1165 1167
f 753 1169 755
f 751 1165 753
f 749 1163 1165
f 749 1165 751
f 745 1161 1163
f 745 1163 749
f 744 1161 745
f 744 1159 1161
f 742 1159 744
f 742 1157 1159
f 742 1155 1157
f 739 1155 742
f 737 1155 739
f 737 1153 1155
f 736 1153 737
f 736 1151 1153
f 734 1151 736
f 734 1152 1151
f 738 1152 734
f 738 1154 1152
f 741 1154 738
f 741 1156 1154
f 743 1156 741
f 743 1158 1156
f 743 1160 1158
f 747 1160 743
f 748 1160 747
f 748 1162 1160
f 750 1162 748
f 750 1164 1162
f 752 1166 1164
f 752 1164 750
f 752 1168 1166
f 759 1168 752
f 757 1170 1168
f 757 1168 759
f 784 1300 785
f 784 1302 1300
f 786 1304 1302
f 786 1302 784
f 788 1306 1304
f 788 1304 786
f 789 1305 1306
f 789 1306 788
f 790 1303 1305
f 790 1305 789
f 791 1301 1303
f 791 1303 790
f 792 1299 1301
f 792 1301 791
f 793 1297 1299
f 793 1295 1297
f 793 1299 792
f 779 1295 793
f 778 1293 1295
f 778 1295 779
f 777 1291 1293
f 777 1293 778
f 774 1291 777
f 774 1289 1291
f 771 1289 774
f 771 1287 1289
f 771 1285 1287
f 769 1285 771
f 766 1285 769
f 766 1283 1285
f 764 1283 766
f 764 1281 1283
f 763 1281 764
f 763 1282 1281
f 768 1282 763
f 768 1284 1282
f 770 1284 768
f 770 1286 1284
f 773 1286 770
f 773 1288 1286
f 773 1290 1288
f 776 1290 773
f 781 1290 776
f 781 1292 1290
f 782 1292 781
f 782 1294 1292
f 783 1296 1294
f 783 1294 782
f 783 1298 1296
f 787 1298 783
f 785 1300 1298
f 785 1298 787
f 1130 1125 836
f 1130 836 841
f 1138 841 846
f 1138 1130 841
f 1146 846 845
f 1146 1138 846
f 1142 845 843
f 1142 1146 845
f 1136 843 842
f 1136 1142 843
f 1129 842 840
f 1129 1136 842
f 1117 840 838
f 1117 838 831
f 1117 1129 840
f 1115 1117 831
f 1110 831 827
f 1110 1115 831
f 1100 827 823
f 1100 1110 827
f 1081 1100 823
f 1081 823 819
f 1072 1081 819
f 1072 819 817
f 1075 1072 817
f 1075 817 814
f 1080 1075 814
f 1080 814 810
f 1080 810 805
f 1086 1080 805
f 1083 1086 805
f 1083 805 800
f 1083 800 803
f 1057 1083 803
f 1051 1057 803
f 1051 803 807
f 1049 1051 807
f 1049 807 811
f 1059 1049 811
f 1059 811 816
f 1059 816 818
f 1066 1059 818
f 1092 1066 818
f 1092 818 821
f 1092 821 824
f 1109 1092 824
f 1114 824 829
f 1114 1109 824
f 1116 829 833
f 1116 1114 829
f 1125 833 836
f 1125 1116 833
f 871 1222 872
f 871 1224 1222
f 875 1226 1224
f 875 1224 871
f 877 1228 1226
f 877 1226 875
f 876 1227 1228
f 876 1228 877
f 867 1225 1227
f 867 1227 876
f 866 1223 1225
f 866 1225 867
f 868 1221 1223
f 868 1223 866
f 869 1219 1221
f 869 1217 1219
f 869 1221 868
f 864 1217 869
f 862 1215 1217
f 862 1217 864
f 859 1213 1215
f 859 1215 862
f 857 1213 859
f 857 1211 1213
f 855 1211 857
f 855 1209 1211
f 855 1207 1209
f 853 1207 855
f 850 1207 853
f 850 1205 1207
f 849 1205 850
f 849 1203 1205
f 848 1203 849
f 848 1204 1203
f 851 1204 848
f 851 1206 1204
f 854 1206 851
f 854 1208 1206
f 856 1208 854
f 856 1210 1208
f 856 1212 1210
f 858 1212 856
f 861 1212 858
f 861 1214 1212
f 863 1214 861
f 863 1216 1214
f 865 1218 1216
f 865 1216 863
f 865 1220 1218
f 873 1220 865
f 872 1222 1220
f 872 1220 873
f 905 1248 907
f 905 1250 1248
f 904 1252 1250
f 904 1250 905
f 906 1254 1252
f 906 1252 904
f 901 1253 1254
f 901 1254 906
f 900 1251 1253
f 900 1253 901
f 902 1249 1251
f 902 1251 900
f 903 1247 1249
f 903 1249 902
f 897 1245 1247
f 897 1243 1245
f 897 1247 903
f 895 1243 897
f 892 1241 1243
f 892 1243 895
f 891 1239 1241
f 891 1241 892
f 888 1239 891
f 888 1237 1239
f 885 1237 888
f 885 1235 1237
f 885 1233 1235
f 883 1233 885
f 881 1233 883
f 881 1231 1233
f 880 1231 881
f 880 1229 1231
f 878 1229 880
f 878 1230 1229
f 882 1230 878
f 882 1232 1230
f 884 1232 882
f 884 1234 1232
f 886 1234 884
f 886 1236 1234
f 886 1238 1236
f 889 1238 886
f 890 1238 889
f 890 1240 1238
f 893 1240 890
f 893 1242 1240
f 896 1244 1242
f 896 1242 893
f 896 1246 1244
f 898 1246 896
f 907 1248 1246
f 907 1246 898
f 955 1014 956
f 955 1016 1014
f 967 1018 1016
f 967 1016 955
f 964 1020 1018
f 964 1018 967
f 963 1019 1020
f 963 1020 964
f 965 1017 1019
f 965 1019 963
f 959 1015 1017
f 959 1017 965
f 958 1013 1015
f 958 1015 959
f 960 1011 1013
f 960 1009 1011
f 960 1013 958
f 951 1009 960
f 950 1007 1009
f 950 1009 951
f 934 1005 1007
f 934 1007 950
f 932 1005 934
f 932 1003 1005
f 930 1003 932
f 930 1001 1003
f 930 999 1001
f 928 999 930
f 926 999 928
f 926 997 999
f 925 997 926
f 925 995 997
f 924 995 925
f 924 996 995
f 927 996 924
f 927 998 996
f 929 998 927
f 929 1000 998
f 931 1000 929
f 931 1002 1000
f 931 1004 1002
f 933 1004 931
f 936 1004 933
f 936 1006 1004
f 937 1006 936
f 937 1008 1006
f 938 1010 1008
f 938 1008 937
f 938 1012 1010
f 939 1012 938
f 956 1014 1012
f 956 1012 939
f 941 988 942
f 941 990 988
f 943 992 990
f 943 990 941
f 946 994 992
f 946 992 943
f 947 993 994
f 947 994 946
f 948 991 993
f 948 993 947
f 953 989 991
f 953 991 948
f 954 987 989
f 954 989 953
f 923 985 987
f 923 983 985
f 923 987 954
f 922 983 923
f 920 981 983
f 920 983 922
f 918 979 981
f 918 981 920
f 916 979 918
f 916 977 979
f 914 977 916
f 914 975 977
f 914 973 975
f 912 973 914
f 910 973 912
f 910 971 973
f 909 971 910
f 909 969 971
f 908 969 909
f 908 970 969
f 911 970 908
f 911 972 970
f 913 972 911
f 913 974 972
f 915 974 913
f 915 976 974
f 915 978 976
f 917 978 915
f 919 978 917
f 919 980 978
f 921 980 919
f 921 982 980
f 935 984 982
f 935 982 921
f 935 986 984
f 944 986 935
f 942 988 986
f 942 986 944
f 1067 1040 1068
f 1067 1042 1040
f 1093 1044 1042
f 1093 1042 1067
f 1094 1046 1044
f 1094 1044 1093
f 1098 1045 1046
f 1098 1046 1094
f 1096 1043 1045
f 1096 1045 1098
f 1095 1041 1043
f 1095 1043 1096
f 1089 1039 1041
f 1089 1041 1095
f 1087 1037 1039
f 1087 1039 1089
f 1084 1035 1037
f 1084 1037 1087
f 1063 1033 1035
f 1063 1031 1033
f 1063 1035 1084
f 1058 1031 1063
f 1056 1031 1058
f 1056 1029 1031
f 1055 1029 1056
f 1055 1027 1029
f 1053 1027 1055
f 1053 1025 1027
f 1053 1023 1025
f 1050 1023 1053
f 1050 1021 1023
f 1048 1021 1050
f 1047 1021 1048
f 1047 1022 1021
f 1047 1024 1022
f 1052 1024 1047
f 1054 1024 1052
f 1054 1026 1024
f 1054 1028 1026
f 1060 1028 1054
f 1061 1028 1060
f 1061 1030 1028
f 1061 1032 1030
f 1062 1032 1061
f 1064 1032 1062
f 1064 1034 1032
f 1065 1036 1034
f 1065 1034 1064
f 1069 1038 1036
f 1069 1036 1065
f 1068 1040 1038
f 1068 1038 1069
f 1108 1196 1107
f 1108 1198 1196
f 1112 1200 1198
f 1112 1198 1108
f 1111 1202 1200
f 1111 1200 1112
f 1113 1201 1202
f 1113 1202 1111
f 1102 1199 1201
f 1102 1201 1113
f 1101 1197 1199
f 1101 1199 1102
f 1103 1195 1197
f 1103 1197 1101
f 1104 1193 1195
f 1104 1195 1103
f 1105 1191 1193
f 1105 1193 1104
f 1088 1189 1191
f 1088 1187 1189
f 1088 1191 1105
f 1085 1187 1088
f 1082 1187 1085
f 1082 1185 1187
f 1078 1185 1082
f 1078 1183 1185
f 1076 1183 1078
f 1076 1181 1183
f 1076 1179 1181
f 1073 1179 1076
f 1073 1177 1179
f 1071 1177 1073
f 1070 1177 1071
f 1070 1178 1177
f 1070 1180 1178
f 1074 1180 1070
f 1077 1180 1074
f 1077 1182 1180
f 1077 1184 1182
f 1079 1184 1077
f 1090 1184 1079
f 1090 1186 1184
f 1090 1188 1186
f 1091 1188 1090
f 1097 1188 1091
f 1097 1190 1188
f 1099 1192 1190
f 1099 1190 1097
f 1106 1194 1192
f 1106 1192 1099
f 1107 1196 1194
f 1107 1194 1106
f 1139 1274 1135
f 1139 1276 1274
f 1140 1278 1276
f 1140 1276 1139
f 1141 1280 1278
f 1141 1278 1140
f 1147 1279 1280
f 1147 1280 1141
f 1148 1277 1279
f 1148 1279 1147
f 1149 1275 1277
f 1149 1277 1148
f 1150 1273 1275
f 1150 1275 1149
f 1144 1271 1273
f 1144 1273 1150
f 1143 1269 1271
f 1143 1271 1144
f 1145 1267 1269
f 1145 1265 1267
f 1145 1269 1143
f 1137 1265 1145
f 1127 1265 1137
f 1127 1263 1265
f 1124 1263 1127
f 1124 1261 1263
f 1122 1261 1124
f 1122 1259 1261
f 1122 1257 1259
f 1120 1257 1122
f 1120 1255 1257
f 1118 1255 1120
f 1119 1255 1118
f 1119 1256 1255
f 1119 1258 1256
f 1121 1258 1119
f 1123 1258 1121
f 1123 1260 1258
f 1123 1262 1260
f 1126 1262 1123
f 1128 1262 1126
f 1128 1264 1262
f 1128 1266 1264
f 1131 1266 1128
f 1132 1266 1131
f 1132 1268 1266
f 1133 1270 1268
f 1133 1268 1132
f 1134 1272 1270
f 1134 1270 1133
f 1135 1274 1272
f 1135 1272 1134
