# https://github.com/mikedh/trimesh

o geometry_1
v -5.11377900 -8.33798900 6.45000000
v -6.42087400 -10.35357000 6.45000000
v -6.97517000 -9.82241300 6.45000000
v -4.96581300 -8.46907500 6.45000000
v -5.75602000 -10.73743000 6.45000000
v -5.22607400 -8.17530200 6.45000000
v -7.38700500 -9.17451800 6.45000000
v -4.79077600 -8.56094200 6.45000000
v -5.01887400 -10.95188000 6.45000000
v -5.29617200 -7.99046700 6.45000000
v -7.63267500 -8.44718000 6.45000000
v -4.59884000 -8.60825000 6.45000000
v -4.25186300 -10.98459000 6.45000000
v -5.32000000 -7.79422900 6.45000000
v -7.69804000 -7.68226000 6.45000000
v -4.40116000 -8.60825000 6.45000000
v -3.49913500 -10.83368000 6.45000000
v -5.29617200 -7.59799000 6.45000000
v -7.57933900 -6.92378500 6.45000000
v -4.20922400 -8.56094200 6.45000000
v -2.80401200 -10.50783000 6.45000000
v -5.22607400 -7.41315600 6.45000000
v -7.28340200 -6.21540900 6.45000000
v -4.03418700 -8.46907500 6.45000000
v -5.11377900 -7.25046800 6.45000000
v -6.82726300 -5.59790300 6.45000000
v -2.20650400 -10.02579000 6.45000000
v -3.88622100 -8.33798900 6.45000000
v -4.96581300 -7.11938200 6.45000000
v -6.23717700 -5.10681000 6.45000000
v -4.79077600 -7.02751500 6.45000000
v -1.74100100 -9.41531600 6.45000000
v -3.77392600 -8.17530200 6.45000000
v -5.54710400 -4.77039500 6.45000000
v -4.59884000 -6.98020700 6.45000000
v -1.43429500 -8.71153500 6.45000000
v -3.70382800 -7.99046700 6.45000000
v -4.79676500 -4.60801900 6.45000000
v -4.40116000 -6.98020700 6.45000000
v -1.30403900 -7.95495800 6.45000000
v -3.68000000 -7.79422900 6.45000000
v -4.02934500 -4.62903000 6.45000000
v -4.03418700 -7.11938200 6.45000000
v -4.20922400 -7.02751500 6.45000000
v -1.35773100 -7.18913100 6.45000000
v -3.70382800 -7.59799000 6.45000000
v -1.59227900 -6.45813000 6.45000000
v -3.77392600 -7.41315600 6.45000000
v -1.99418500 -5.80403000 6.45000000
v -3.88622100 -7.25046800 6.45000000
v -2.58616800 -2.12937400 6.45000000
v -0.55100830 -3.30437400 6.45000000
v -0.85209710 -1.23447600 6.45000000
v -1.12276600 -0.99468400 6.45000000
v -1.32818400 -0.69708480 6.45000000
v -3.00293500 -1.48488400 6.45000000
v -0.53190730 -1.40252400 6.45000000
v -1.45641300 -0.35897350 6.45000000
v -3.26208000 -0.76245220 6.45000000
v -0.18080500 -1.48906300 6.45000000
v 0.21552070 -3.34306000 6.45000000
v -1.50000000 0.00000000 6.45000000
v -3.35000000 0.00000000 6.45000000
v -3.26208000 0.76245220 6.45000000
v 0.18080500 -1.48906300 6.45000000
v 0.97073710 -3.20627000 6.45000000
v -1.45641300 0.35897350 6.45000000
v -3.00293500 1.48488400 6.45000000
v 0.53190730 -1.40252400 6.45000000
v 1.67500000 -2.90118500 6.45000000
v -1.32818400 0.69708480 6.45000000
v -2.58616800 2.12937400 6.45000000
v 0.85209710 -1.23447600 6.45000000
v 2.29134300 -2.44381800 6.45000000
v -1.12276600 0.99468400 6.45000000
v 1.12276600 -0.99468400 6.45000000
v -0.85209710 1.23447600 6.45000000
v 2.78741500 -1.85817600 6.45000000
v 1.32818400 -0.69708480 6.45000000
v 3.13717600 -1.17500000 6.45000000
v 1.45641300 -0.35897350 6.45000000
v 1.50000000 -0.00000000 6.45000000
v -5.11377900 7.25046800 6.45000000
v -6.82726300 5.59790300 6.45000000
v -7.28340200 6.21540900 6.45000000
v -4.96581300 7.11938200 6.45000000
v -6.23717700 5.10681000 6.45000000
v -5.22607400 7.41315600 6.45000000
v -7.57933900 6.92378500 6.45000000
v -4.79077600 7.02751500 6.45000000
v -5.54710400 4.77039500 6.45000000
v -5.29617200 7.59799000 6.45000000
v -7.69804000 7.68226000 6.45000000
v -4.59884000 6.98020700 6.45000000
v -4.79676500 4.60801900 6.45000000
v -5.32000000 7.79422900 6.45000000
v -7.63267500 8.44718000 6.45000000
v -4.40116000 6.98020700 6.45000000
v -4.02934500 4.62903000 6.45000000
v -5.29617200 7.99046700 6.45000000
v -7.38700500 9.17451800 6.45000000
v -0.55100830 3.30437400 6.45000000
v -0.18080500 1.48906300 6.45000000
v -0.53190730 1.40252400 6.45000000
v -4.20922400 7.02751500 6.45000000
v -5.22607400 8.17530200 6.45000000
v -6.97517000 9.82241300 6.45000000
v -4.03418700 7.11938200 6.45000000
v -5.11377900 8.33798900 6.45000000
v 0.21552070 3.34306000 6.45000000
v 0.18080500 1.48906300 6.45000000
v -1.99418500 5.80403000 6.45000000
v -3.88622100 7.25046800 6.45000000
v -3.77392600 7.41315600 6.45000000
v -6.42087400 10.35357000 6.45000000
v -4.96581300 8.46907500 6.45000000
v 0.97073710 3.20627000 6.45000000
v 0.53190730 1.40252400 6.45000000
v 3.13717600 1.17500000 6.45000000
v 1.45641300 0.35897350 6.45000000
v 1.32818400 0.69708480 6.45000000
v 1.67500000 2.90118500 6.45000000
v 0.85209710 1.23447600 6.45000000
v 2.78741500 1.85817600 6.45000000
v 1.12276600 0.99468400 6.45000000
v 2.29134300 2.44381800 6.45000000
v 6.02353000 -1.17500000 6.45000000
v -1.59227900 6.45813000 6.45000000
v -3.70382800 7.59799000 6.45000000
v -5.75602000 10.73743000 6.45000000
v -4.79077600 8.56094200 6.45000000
v -1.35773100 7.18913100 6.45000000
v -3.68000000 7.79422900 6.45000000
v -5.01887400 10.95188000 6.45000000
v -4.59884000 8.60825000 6.45000000
v -1.30403900 7.95495800 6.45000000
v -3.70382800 7.99046700 6.45000000
v -4.25186300 10.98459000 6.45000000
v -4.40116000 8.60825000 6.45000000
v 6.02353000 1.17500000 6.45000000
v -1.43429500 8.71153500 6.45000000
v -3.77392600 8.17530200 6.45000000
v -3.49913500 10.83368000 6.45000000
v -4.20922400 8.56094200 6.45000000
v -1.74100100 9.41531600 6.45000000
v -3.88622100 8.33798900 6.45000000
v -2.80401200 10.50783000 6.45000000
v -4.03418700 8.46907500 6.45000000
v -2.20650400 10.02579000 6.45000000
v 8.38622100 -0.54376060 6.45000000
v 6.90483500 -2.41873600 6.45000000
v 6.38904400 -1.85011100 6.45000000
v 8.53418700 -0.67484680 6.45000000
v 7.54121600 -2.84814800 6.45000000
v 8.27392600 -0.38107300 6.45000000
v 8.70922400 -0.76671330 6.45000000
v 8.26155800 -3.11363200 6.45000000
v 8.20382800 -0.19623880 6.45000000
v 8.90116000 -0.81402130 6.45000000
v 9.02440300 -3.19990700 6.45000000
v 8.18000000 0.00000000 6.45000000
v 9.09884000 -0.81402130 6.45000000
v 9.78584300 -3.10200800 6.45000000
v 8.20382800 0.19623880 6.45000000
v 9.29077600 -0.76671330 6.45000000
v 10.50205000 -2.82556900 6.45000000
v 8.27392600 0.38107300 6.45000000
v 6.38904400 1.85011100 6.45000000
v 9.46581300 -0.67484680 6.45000000
v 11.13181000 -2.38650100 6.45000000
v 8.38622100 0.54376060 6.45000000
v 9.61377900 -0.54376060 6.45000000
v 6.90483500 2.41873600 6.45000000
v 8.53418700 0.67484680 6.45000000
v 11.63887000 -1.81007500 6.45000000
v 9.72607400 -0.38107300 6.45000000
v 7.54121600 2.84814800 6.45000000
v 8.70922400 0.76671330 6.45000000
v 11.99404000 -1.12946800 6.45000000
v 9.79617200 -0.19623880 6.45000000
v 8.26155800 3.11363200 6.45000000
v 8.90116000 0.81402130 6.45000000
v 12.17689000 -0.38385380 6.45000000
v 9.82000000 -0.00000000 6.45000000
v 9.02440300 3.19990700 6.45000000
v 9.09884000 0.81402130 6.45000000
v 12.17689000 0.38385380 6.45000000
v 9.79617200 0.19623880 6.45000000
v 9.78584300 3.10200800 6.45000000
v 9.29077600 0.76671330 6.45000000
v 11.99404000 1.12946800 6.45000000
v 9.72607400 0.38107300 6.45000000
v 10.50205000 2.82556900 6.45000000
v 9.46581300 0.67484680 6.45000000
v 11.63887000 1.81007500 6.45000000
v 9.61377900 0.54376060 6.45000000
v 11.13181000 2.38650100 6.45000000
v -3.68000000 -7.79422900 5.80000000
v -3.70382800 -7.59799000 5.80000000
v -3.77392600 -7.41315600 5.80000000
v -3.88622100 -7.25046800 5.80000000
v -4.03418700 -7.11938200 5.80000000
v -4.20922400 -7.02751500 5.80000000
v -4.40116000 -6.98020700 5.80000000
v -4.59884000 -6.98020700 5.80000000
v -4.79077600 -7.02751500 5.80000000
v -4.96581300 -7.11938200 5.80000000
v -5.11377900 -7.25046800 5.80000000
v -5.22607400 -7.41315600 5.80000000
v -5.29617200 -7.59799000 5.80000000
v -5.32000000 -7.79422900 5.80000000
v -5.29617200 -7.99046700 5.80000000
v -5.22607400 -8.17530200 5.80000000
v -5.11377900 -8.33798900 5.80000000
v -4.96581300 -8.46907500 5.80000000
v -4.79077600 -8.56094200 5.80000000
v -4.59884000 -8.60825000 5.80000000
v -4.40116000 -8.60825000 5.80000000
v -4.20922400 -8.56094200 5.80000000
v -4.03418700 -8.46907500 5.80000000
v -3.88622100 -8.33798900 5.80000000
v -3.77392600 -8.17530200 5.80000000
v -3.70382800 -7.99046700 5.80000000
v -5.19611500 -8.41093300 5.80000000
v -5.02830000 -8.55960400 5.80000000
v -5.32347400 -8.22642100 5.80000000
v -4.82978300 -8.66379400 5.80000000
v -5.40297600 -8.01679200 5.80000000
v -4.61209900 -8.71744800 5.80000000
v -5.43000000 -7.79422900 5.80000000
v -4.38790100 -8.71744800 5.80000000
v -5.40297600 -7.57166500 5.80000000
v -4.17021700 -8.66379400 5.80000000
v -5.32347400 -7.36203600 5.80000000
v -3.97170000 -8.55960400 5.80000000
v -5.19611500 -7.17752500 5.80000000
v -3.80388500 -8.41093300 5.80000000
v -5.02830000 -7.02885400 5.80000000
v -3.67652600 -8.22642100 5.80000000
v -4.82978300 -6.92466400 5.80000000
v -3.59702400 -8.01679200 5.80000000
v -4.61209900 -6.87100900 5.80000000
v -3.57000000 -7.79422900 5.80000000
v -4.38790100 -6.87100900 5.80000000
v -3.59702400 -7.57166500 5.80000000
v -4.17021700 -6.92466400 5.80000000
v -3.67652600 -7.36203600 5.80000000
v -3.97170000 -7.02885400 5.80000000
v -3.80388500 -7.17752500 5.80000000
v -3.57000000 -7.79422900 1.45000000
v -3.59702400 -7.57166500 1.45000000
v -3.67652600 -7.36203600 1.45000000
v -3.80388500 -7.17752500 1.45000000
v -3.97170000 -7.02885400 1.45000000
v -4.17021700 -6.92466400 1.45000000
v -4.38790100 -6.87100900 1.45000000
v -4.61209900 -6.87100900 1.45000000
v -4.82978300 -6.92466400 1.45000000
v -5.02830000 -7.02885400 1.45000000
v -5.19611500 -7.17752500 1.45000000
v -5.32347400 -7.36203600 1.45000000
v -5.40297600 -7.57166500 1.45000000
v -5.43000000 -7.79422900 1.45000000
v -5.40297600 -8.01679200 1.45000000
v -5.32347400 -8.22642100 1.45000000
v -5.19611500 -8.41093300 1.45000000
v -5.02830000 -8.55960400 1.45000000
v -4.82978300 -8.66379400 1.45000000
v -4.61209900 -8.71744800 1.45000000
v -4.38790100 -8.71744800 1.45000000
v -4.17021700 -8.66379400 1.45000000
v -3.97170000 -8.55960400 1.45000000
v -3.80388500 -8.41093300 1.45000000
v -3.67652600 -8.22642100 1.45000000
v -3.59702400 -8.01679200 1.45000000
v -3.68000000 7.79422900 5.80000000
v -3.70382800 7.99046700 5.80000000
v -3.77392600 8.17530200 5.80000000
v -3.88622100 8.33798900 5.80000000
v -4.03418700 8.46907500 5.80000000
v -4.20922400 8.56094200 5.80000000
v -4.40116000 8.60825000 5.80000000
v -4.59884000 8.60825000 5.80000000
v -4.79077600 8.56094200 5.80000000
v -4.96581300 8.46907500 5.80000000
v -5.11377900 8.33798900 5.80000000
v -5.22607400 8.17530200 5.80000000
v -5.29617200 7.99046700 5.80000000
v -5.32000000 7.79422900 5.80000000
v -5.29617200 7.59799000 5.80000000
v -5.22607400 7.41315600 5.80000000
v -5.11377900 7.25046800 5.80000000
v -4.96581300 7.11938200 5.80000000
v -4.79077600 7.02751500 5.80000000
v -4.59884000 6.98020700 5.80000000
v -4.40116000 6.98020700 5.80000000
v -4.20922400 7.02751500 5.80000000
v -4.03418700 7.11938200 5.80000000
v -3.88622100 7.25046800 5.80000000
v -3.77392600 7.41315600 5.80000000
v -3.70382800 7.59799000 5.80000000
v -5.19611500 7.17752500 5.80000000
v -5.02830000 7.02885400 5.80000000
v -5.32347400 7.36203600 5.80000000
v -4.82978300 6.92466400 5.80000000
v -5.40297600 7.57166500 5.80000000
v -4.61209900 6.87100900 5.80000000
v -5.43000000 7.79422900 5.80000000
v -4.38790100 6.87100900 5.80000000
v -5.40297600 8.01679200 5.80000000
v -4.17021700 6.92466400 5.80000000
v -5.32347400 8.22642100 5.80000000
v -3.97170000 7.02885400 5.80000000
v -5.19611500 8.41093300 5.80000000
v -3.80388500 7.17752500 5.80000000
v -5.02830000 8.55960400 5.80000000
v -3.67652600 7.36203600 5.80000000
v -4.82978300 8.66379400 5.80000000
v -3.59702400 7.57166500 5.80000000
v -4.61209900 8.71744800 5.80000000
v -3.57000000 7.79422900 5.80000000
v -4.38790100 8.71744800 5.80000000
v -3.59702400 8.01679200 5.80000000
v -4.17021700 8.66379400 5.80000000
v -3.67652600 8.22642100 5.80000000
v -3.97170000 8.55960400 5.80000000
v -3.80388500 8.41093300 5.80000000
v -3.57000000 7.79422900 1.45000000
v -3.59702400 8.01679200 1.45000000
v -3.67652600 8.22642100 1.45000000
v -3.80388500 8.41093300 1.45000000
v -3.97170000 8.55960400 1.45000000
v -4.17021700 8.66379400 1.45000000
v -4.38790100 8.71744800 1.45000000
v -4.61209900 8.71744800 1.45000000
v -4.82978300 8.66379400 1.45000000
v -5.02830000 8.55960400 1.45000000
v -5.19611500 8.41093300 1.45000000
v -5.32347400 8.22642100 1.45000000
v -5.40297600 8.01679200 1.45000000
v -5.43000000 7.79422900 1.45000000
v -5.40297600 7.57166500 1.45000000
v -5.32347400 7.36203600 1.45000000
v -5.19611500 7.17752500 1.45000000
v -5.02830000 7.02885400 1.45000000
v -4.82978300 6.92466400 1.45000000
v -4.61209900 6.87100900 1.45000000
v -4.38790100 6.87100900 1.45000000
v -4.17021700 6.92466400 1.45000000
v -3.97170000 7.02885400 1.45000000
v -3.80388500 7.17752500 1.45000000
v -3.67652600 7.36203600 1.45000000
v -3.59702400 7.57166500 1.45000000
v 9.82000000 -0.00000000 5.80000000
v 9.79617200 0.19623880 5.80000000
v 9.72607400 0.38107300 5.80000000
v 9.61377900 0.54376060 5.80000000
v 9.46581300 0.67484680 5.80000000
v 9.29077600 0.76671330 5.80000000
v 9.09884000 0.81402130 5.80000000
v 8.90116000 0.81402130 5.80000000
v 8.70922400 0.76671330 5.80000000
v 8.53418700 0.67484680 5.80000000
v 8.38622100 0.54376060 5.80000000
v 8.27392600 0.38107300 5.80000000
v 8.20382800 0.19623880 5.80000000
v 8.18000000 0.00000000 5.80000000
v 8.20382800 -0.19623880 5.80000000
v 8.27392600 -0.38107300 5.80000000
v 8.38622100 -0.54376060 5.80000000
v 8.53418700 -0.67484680 5.80000000
v 8.70922400 -0.76671330 5.80000000
v 8.90116000 -0.81402130 5.80000000
v 9.09884000 -0.81402130 5.80000000
v 9.29077600 -0.76671330 5.80000000
v 9.46581300 -0.67484680 5.80000000
v 9.61377900 -0.54376060 5.80000000
v 9.72607400 -0.38107300 5.80000000
v 9.79617200 -0.19623880 5.80000000
v 8.30388500 -0.61670410 5.80000000
v 8.47170000 -0.76537500 5.80000000
v 8.17652600 -0.43219260 5.80000000
v 8.67021700 -0.86956510 5.80000000
v 8.09702400 -0.22256360 5.80000000
v 8.88790100 -0.92321930 5.80000000
v 8.07000000 0.00000000 5.80000000
v 9.11209900 -0.92321930 5.80000000
v 8.09702400 0.22256360 5.80000000
v 9.32978300 -0.86956510 5.80000000
v 8.17652600 0.43219260 5.80000000
v 9.52830000 -0.76537500 5.80000000
v 8.30388500 0.61670410 5.80000000
v 9.69611500 -0.61670410 5.80000000
v 8.47170000 0.76537500 5.80000000
v 9.82347400 -0.43219260 5.80000000
v 8.67021700 0.86956510 5.80000000
v 9.90297600 -0.22256360 5.80000000
v 8.88790100 0.92321930 5.80000000
v 9.93000000 -0.00000000 5.80000000
v 9.11209900 0.92321930 5.80000000
v 9.90297600 0.22256360 5.80000000
v 9.32978300 0.86956510 5.80000000
v 9.82347400 0.43219260 5.80000000
v 9.52830000 0.76537500 5.80000000
v 9.69611500 0.61670410 5.80000000
v 9.93000000 -0.00000000 1.45000000
v 9.90297600 0.22256360 1.45000000
v 9.82347400 0.43219260 1.45000000
v 9.69611500 0.61670410 1.45000000
v 9.52830000 0.76537500 1.45000000
v 9.32978300 0.86956510 1.45000000
v 9.11209900 0.92321930 1.45000000
v 8.88790100 0.92321930 1.45000000
v 8.67021700 0.86956510 1.45000000
v 8.47170000 0.76537500 1.45000000
v 8.30388500 0.61670410 1.45000000
v 8.17652600 0.43219260 1.45000000
v 8.09702400 0.22256360 1.45000000
v 8.07000000 0.00000000 1.45000000
v 8.09702400 -0.22256360 1.45000000
v 8.17652600 -0.43219260 1.45000000
v 8.30388500 -0.61670410 1.45000000
v 8.47170000 -0.76537500 1.45000000
v 8.67021700 -0.86956510 1.45000000
v 8.88790100 -0.92321930 1.45000000
v 9.11209900 -0.92321930 1.45000000
v 9.32978300 -0.86956510 1.45000000
v 9.52830000 -0.76537500 1.45000000
v 9.69611500 -0.61670410 1.45000000
v 9.82347400 -0.43219260 1.45000000
v 9.90297600 -0.22256360 1.45000000
v 1.50000000 -0.00000000 6.40000000
v 1.45641300 0.35897350 6.40000000
v 1.32818400 0.69708480 6.40000000
v 1.12276600 0.99468400 6.40000000
v 0.85209710 1.23447600 6.40000000
v 0.53190730 1.40252400 6.40000000
v 0.18080500 1.48906300 6.40000000
v -0.18080500 1.48906300 6.40000000
v -0.53190730 1.40252400 6.40000000
v -0.85209710 1.23447600 6.40000000
v -1.12276600 0.99468400 6.40000000
v -1.32818400 0.69708480 6.40000000
v -1.45641300 0.35897350 6.40000000
v -1.50000000 0.00000000 6.40000000
v -1.45641300 -0.35897350 6.40000000
v -1.32818400 -0.69708480 6.40000000
v -1.12276600 -0.99468400 6.40000000
v -0.85209710 -1.23447600 6.40000000
v -0.53190730 -1.40252400 6.40000000
v -0.18080500 -1.48906300 6.40000000
v 0.18080500 -1.48906300 6.40000000
v 0.53190730 -1.40252400 6.40000000
v 0.85209710 -1.23447600 6.40000000
v 1.12276600 -0.99468400 6.40000000
v 1.32818400 -0.69708480 6.40000000
v 1.45641300 -0.35897350 6.40000000
v 6.02353000 -1.17500000 8.10000000
v 6.38904400 -1.85011100 8.10000000
v 6.90483500 -2.41873600 8.10000000
v 7.54121600 -2.84814800 8.10000000
v 8.26155800 -3.11363200 8.10000000
v 9.02440300 -3.19990700 8.10000000
v 9.78584300 -3.10200800 8.10000000
v 10.50205000 -2.82556900 8.10000000
v 11.13181000 -2.38650100 8.10000000
v 11.63887000 -1.81007500 8.10000000
v 11.99404000 -1.12946800 8.10000000
v 12.17689000 -0.38385380 8.10000000
v 12.17689000 0.38385380 8.10000000
v 11.99404000 1.12946800 8.10000000
v 11.63887000 1.81007500 8.10000000
v 11.13181000 2.38650100 8.10000000
v 10.50205000 2.82556900 8.10000000
v 9.78584300 3.10200800 8.10000000
v 9.02440300 3.19990700 8.10000000
v 8.26155800 3.11363200 8.10000000
v 7.54121600 2.84814800 8.10000000
v 6.90483500 2.41873600 8.10000000
v 6.38904400 1.85011100 8.10000000
v 6.02353000 1.17500000 8.10000000
v -7.63267500 -8.44718000 8.10000000
v -7.38700500 -9.17451800 8.10000000
v -6.97517000 -9.82241300 8.10000000
v -7.57933900 -6.92378500 8.10000000
v -7.69804000 -7.68226000 8.10000000
v -6.42087400 -10.35357000 8.10000000
v -5.75602000 -10.73743000 8.10000000
v -2.80401200 -10.50783000 8.10000000
v -5.01887400 -10.95188000 8.10000000
v -4.25186300 -10.98459000 8.10000000
v -3.49913500 -10.83368000 8.10000000
v -6.82726300 -5.59790300 8.10000000
v -7.28340200 -6.21540900 8.10000000
v -6.23717700 -5.10681000 8.10000000
v -1.43429500 -8.71153500 8.10000000
v -2.20650400 -10.02579000 8.10000000
v -1.74100100 -9.41531600 8.10000000
v -4.79676500 -4.60801900 8.10000000
v -5.54710400 -4.77039500 8.10000000
v -4.02934500 -4.62903000 8.10000000
v -1.35773100 -7.18913100 8.10000000
v -1.30403900 -7.95495800 8.10000000
v -1.59227900 -6.45813000 8.10000000
v -1.99418500 -5.80403000 8.10000000
v -2.58616800 -2.12937400 8.10000000
v -0.55100830 -3.30437400 8.10000000
v -0.85209710 -1.23447600 8.10000000
v -1.12276600 -0.99468400 8.10000000
v -1.32818400 -0.69708480 8.10000000
v -3.00293500 -1.48488400 8.10000000
v -0.53190730 -1.40252400 8.10000000
v -1.45641300 -0.35897350 8.10000000
v -3.26208000 -0.76245220 8.10000000
v -0.18080500 -1.48906300 8.10000000
v 0.21552070 -3.34306000 8.10000000
v -1.50000000 0.00000000 8.10000000
v -3.26208000 0.76245220 8.10000000
v -3.35000000 0.00000000 8.10000000
v 0.18080500 -1.48906300 8.10000000
v 0.97073710 -3.20627000 8.10000000
v -1.45641300 0.35897350 8.10000000
v -3.00293500 1.48488400 8.10000000
v 0.53190730 -1.40252400 8.10000000
v 1.67500000 -2.90118500 8.10000000
v -7.57933900 6.92378500 8.10000000
v -7.28340200 6.21540900 8.10000000
v -6.82726300 5.59790300 8.10000000
v -6.23717700 5.10681000 8.10000000
v -1.32818400 0.69708480 8.10000000
v -2.58616800 2.12937400 8.10000000
v 0.85209710 -1.23447600 8.10000000
v 2.29134300 -2.44381800 8.10000000
v -1.12276600 0.99468400 8.10000000
v 1.12276600 -0.99468400 8.10000000
v -0.85209710 1.23447600 8.10000000
v -4.02934500 4.62903000 8.10000000
v -5.54710400 4.77039500 8.10000000
v -4.79676500 4.60801900 8.10000000
v 2.78741500 -1.85817600 8.10000000
v 1.32818400 -0.69708480 8.10000000
v 3.13717600 -1.17500000 8.10000000
v 1.45641300 -0.35897350 8.10000000
v 1.50000000 -0.00000000 8.10000000
v -0.55100830 3.30437400 8.10000000
v -0.53190730 1.40252400 8.10000000
v -0.18080500 1.48906300 8.10000000
v -6.97517000 9.82241300 8.10000000
v -7.38700500 9.17451800 8.10000000
v -7.63267500 8.44718000 8.10000000
v -7.69804000 7.68226000 8.10000000
v 0.21552070 3.34306000 8.10000000
v 0.18080500 1.48906300 8.10000000
v -1.99418500 5.80403000 8.10000000
v 0.97073710 3.20627000 8.10000000
v 0.53190730 1.40252400 8.10000000
v 3.13717600 1.17500000 8.10000000
v 1.45641300 0.35897350 8.10000000
v 1.32818400 0.69708480 8.10000000
v 1.67500000 2.90118500 8.10000000
v 0.85209710 1.23447600 8.10000000
v 2.78741500 1.85817600 8.10000000
v 1.12276600 0.99468400 8.10000000
v 2.29134300 2.44381800 8.10000000
v -5.75602000 10.73743000 8.10000000
v -6.42087400 10.35357000 8.10000000
v -1.35773100 7.18913100 8.10000000
v -1.59227900 6.45813000 8.10000000
v -5.01887400 10.95188000 8.10000000
v -1.30403900 7.95495800 8.10000000
v -1.74100100 9.41531600 8.10000000
v -1.43429500 8.71153500 8.10000000
v -2.80401200 10.50783000 8.10000000
v -3.49913500 10.83368000 8.10000000
v -4.25186300 10.98459000 8.10000000
v -2.20650400 10.02579000 8.10000000
v 1.45641300 0.35897350 15.00000000
v 1.50000000 -0.00000000 15.00000000
v 1.32818400 0.69708480 15.00000000
v 1.12276600 0.99468400 15.00000000
v 0.85209710 1.23447600 15.00000000
v 0.53190730 1.40252400 15.00000000
v 0.18080500 1.48906300 15.00000000
v -0.18080500 1.48906300 15.00000000
v -0.53190730 1.40252400 15.00000000
v -0.85209710 1.23447600 15.00000000
v -1.12276600 0.99468400 15.00000000
v -1.32818400 0.69708480 15.00000000
v -1.45641300 0.35897350 15.00000000
v -1.50000000 0.00000000 15.00000000
v -1.45641300 -0.35897350 15.00000000
v -1.32818400 -0.69708480 15.00000000
v -1.12276600 -0.99468400 15.00000000
v -0.85209710 -1.23447600 15.00000000
v -0.53190730 -1.40252400 15.00000000
v -0.18080500 -1.48906300 15.00000000
v 0.18080500 -1.48906300 15.00000000
v 0.53190730 -1.40252400 15.00000000
v 0.85209710 -1.23447600 15.00000000
v 1.12276600 -0.99468400 15.00000000
v 1.32818400 -0.69708480 15.00000000
v 1.45641300 -0.35897350 15.00000000
f 1 2 3
f 4 2 1
f 4 5 2
f 6 1 3
f 6 3 7
f 8 5 4
f 8 9 5
f 10 6 7
f 10 7 11
f 12 9 8
f 12 13 9
f 14 10 11
f 14 11 15
f 16 13 12
f 16 17 13
f 18 14 15
f 18 15 19
f 20 17 16
f 20 21 17
f 22 18 19
f 22 19 23
f 24 21 20
f 25 22 23
f 25 23 26
f 27 21 24
f 28 27 24
f 29 25 26
f 30 29 26
f 30 31 29
f 32 27 28
f 32 28 33
f 34 31 30
f 34 35 31
f 36 32 33
f 36 33 37
f 38 39 35
f 38 35 34
f 40 36 37
f 40 37 41
f 42 43 44
f 42 44 39
f 42 39 38
f 45 40 41
f 45 41 46
f 47 46 48
f 47 45 46
f 49 43 42
f 49 47 48
f 49 48 50
f 49 50 43
f 51 49 42
f 52 49 51
f 53 51 54
f 53 52 51
f 55 54 51
f 55 51 56
f 57 52 53
f 58 55 56
f 58 56 59
f 60 52 57
f 60 61 52
f 62 58 59
f 62 63 64
f 62 59 63
f 65 61 60
f 65 66 61
f 67 62 64
f 67 64 68
f 69 66 65
f 69 70 66
f 71 67 68
f 72 71 68
f 73 70 69
f 74 70 73
f 75 71 72
f 76 74 73
f 77 75 72
f 78 74 76
f 78 76 79
f 80 79 81
f 80 81 82
f 80 78 79
f 83 84 85
f 86 87 84
f 86 84 83
f 88 85 89
f 88 83 85
f 90 91 87
f 90 87 86
f 92 88 89
f 92 89 93
f 94 95 91
f 94 91 90
f 96 92 93
f 96 93 97
f 98 95 94
f 98 99 95
f 100 97 101
f 100 96 97
f 102 103 104
f 102 104 77
f 102 77 72
f 105 99 98
f 106 100 101
f 106 101 107
f 108 99 105
f 109 106 107
f 110 103 102
f 110 111 103
f 112 72 99
f 112 108 113
f 112 113 114
f 112 102 72
f 112 99 108
f 115 109 107
f 115 116 109
f 117 111 110
f 117 118 111
f 119 80 82
f 119 82 120
f 119 120 121
f 122 118 117
f 122 123 118
f 124 119 121
f 124 121 125
f 126 123 122
f 126 124 125
f 126 125 123
f 127 80 119
f 128 112 114
f 128 114 129
f 130 116 115
f 130 131 116
f 132 129 133
f 132 128 129
f 134 135 131
f 134 131 130
f 136 133 137
f 136 132 133
f 138 135 134
f 138 139 135
f 140 127 119
f 141 136 137
f 141 137 142
f 143 139 138
f 143 144 139
f 145 142 146
f 145 141 142
f 147 144 143
f 147 148 144
f 149 148 147
f 149 145 146
f 149 146 148
f 150 151 152
f 153 154 151
f 153 151 150
f 155 150 152
f 155 152 127
f 156 154 153
f 156 157 154
f 158 155 127
f 159 157 156
f 159 160 157
f 161 158 127
f 161 127 140
f 162 160 159
f 162 163 160
f 164 161 140
f 165 163 162
f 165 166 163
f 167 164 140
f 167 140 168
f 169 166 165
f 169 170 166
f 171 167 168
f 172 170 169
f 173 174 171
f 173 171 168
f 175 170 172
f 175 172 176
f 177 178 174
f 177 174 173
f 179 175 176
f 179 176 180
f 181 182 178
f 181 178 177
f 183 180 184
f 183 179 180
f 185 186 182
f 185 182 181
f 187 184 188
f 187 183 184
f 189 190 186
f 189 186 185
f 191 188 192
f 191 187 188
f 193 194 190
f 193 190 189
f 195 192 196
f 195 191 192
f 197 196 194
f 197 194 193
f 197 195 196
f 46 41 198
f 46 198 199
f 48 199 200
f 48 46 199
f 50 200 201
f 50 48 200
f 43 201 202
f 43 50 201
f 44 202 203
f 44 203 204
f 44 43 202
f 39 44 204
f 35 204 205
f 35 39 204
f 31 205 206
f 31 35 205
f 29 206 207
f 29 31 206
f 25 207 208
f 25 208 209
f 25 29 207
f 22 25 209
f 18 22 209
f 18 209 210
f 14 18 210
f 14 210 211
f 10 14 211
f 10 211 212
f 10 212 213
f 6 10 213
f 1 6 213
f 1 213 214
f 4 1 214
f 4 214 215
f 4 215 216
f 8 4 216
f 12 8 216
f 12 216 217
f 12 217 218
f 16 12 218
f 20 16 218
f 20 218 219
f 24 20 219
f 24 219 220
f 28 24 220
f 28 220 221
f 33 221 222
f 33 222 223
f 33 28 221
f 37 223 198
f 37 33 223
f 41 37 198
f 215 224 225
f 215 214 224
f 213 226 224
f 213 224 214
f 216 225 227
f 216 215 225
f 212 228 226
f 212 226 213
f 217 227 229
f 217 216 227
f 211 230 228
f 211 228 212
f 218 229 231
f 218 217 229
f 210 232 230
f 210 230 211
f 219 231 233
f 219 218 231
f 209 234 232
f 209 232 210
f 220 233 235
f 220 219 233
f 208 236 234
f 208 234 209
f 237 221 220
f 237 220 235
f 238 208 207
f 238 236 208
f 239 221 237
f 239 222 221
f 240 238 207
f 240 207 206
f 241 222 239
f 241 223 222
f 242 240 206
f 242 206 205
f 243 223 241
f 243 198 223
f 199 198 243
f 244 205 204
f 244 242 205
f 245 200 199
f 245 199 243
f 246 204 203
f 246 244 204
f 247 200 245
f 248 203 202
f 248 246 203
f 249 201 200
f 249 202 201
f 249 200 247
f 249 248 202
f 245 243 250
f 245 250 251
f 247 251 252
f 247 245 251
f 249 252 253
f 249 247 252
f 248 253 254
f 248 249 253
f 246 254 255
f 246 248 254
f 244 255 256
f 244 246 255
f 242 256 257
f 242 244 256
f 240 257 258
f 240 242 257
f 238 258 259
f 238 240 258
f 236 259 260
f 236 238 259
f 234 260 261
f 234 236 260
f 232 234 261
f 232 261 262
f 230 232 262
f 230 262 263
f 230 263 264
f 228 230 264
f 226 228 264
f 226 264 265
f 224 226 265
f 224 265 266
f 225 224 266
f 225 266 267
f 225 267 268
f 227 225 268
f 227 268 269
f 229 227 269
f 231 229 269
f 231 269 270
f 231 270 271
f 233 231 271
f 233 271 272
f 235 233 272
f 237 235 272
f 237 272 273
f 239 273 274
f 239 274 275
f 239 237 273
f 241 275 250
f 241 239 275
f 243 241 250
f 261 263 262
f 272 269 268
f 272 270 269
f 272 271 270
f 259 261 260
f 258 261 259
f 275 273 272
f 275 274 273
f 251 250 275
f 252 266 265
f 252 267 266
f 252 268 267
f 252 251 275
f 252 272 268
f 252 275 272
f 253 255 254
f 253 256 255
f 253 257 256
f 253 258 257
f 253 264 263
f 253 265 264
f 253 263 261
f 253 261 258
f 253 252 265
f 137 133 276
f 137 276 277
f 142 277 278
f 142 137 277
f 146 278 279
f 146 142 278
f 148 279 280
f 148 146 279
f 144 280 281
f 144 281 282
f 144 148 280
f 139 144 282
f 135 282 283
f 135 139 282
f 131 283 284
f 131 135 283
f 116 284 285
f 116 131 284
f 109 285 286
f 109 286 287
f 109 116 285
f 106 109 287
f 100 106 287
f 100 287 288
f 96 100 288
f 96 288 289
f 92 96 289
f 92 289 290
f 92 290 291
f 88 92 291
f 83 88 291
f 83 291 292
f 86 83 292
f 86 292 293
f 86 293 294
f 90 86 294
f 94 90 294
f 94 294 295
f 94 295 296
f 98 94 296
f 105 98 296
f 105 296 297
f 108 105 297
f 108 297 298
f 113 108 298
f 113 298 299
f 114 299 300
f 114 300 301
f 114 113 299
f 129 301 276
f 129 114 301
f 133 129 276
f 293 302 303
f 293 292 302
f 291 304 302
f 291 302 292
f 294 303 305
f 294 293 303
f 290 306 304
f 290 304 291
f 295 305 307
f 295 294 305
f 289 308 306
f 289 306 290
f 296 307 309
f 296 295 307
f 288 310 308
f 288 308 289
f 297 309 311
f 297 296 309
f 287 312 310
f 287 310 288
f 298 311 313
f 298 297 311
f 286 314 312
f 286 312 287
f 315 299 298
f 315 298 313
f 316 314 286
f 316 286 285
f 317 299 315
f 317 300 299
f 284 316 285
f 318 316 284
f 319 300 317
f 319 301 300
f 320 318 284
f 320 284 283
f 321 301 319
f 321 276 301
f 322 320 283
f 322 283 282
f 281 322 282
f 323 277 276
f 323 278 277
f 323 276 321
f 324 322 281
f 325 278 323
f 326 280 279
f 326 281 280
f 326 324 281
f 327 279 278
f 327 278 325
f 327 326 279
f 323 321 328
f 323 328 329
f 325 329 330
f 325 323 329
f 327 330 331
f 327 325 330
f 326 331 332
f 326 327 331
f 324 332 333
f 324 326 332
f 322 333 334
f 322 324 333
f 320 334 335
f 320 322 334
f 318 335 336
f 318 320 335
f 316 336 337
f 316 318 336
f 314 337 338
f 314 316 337
f 312 338 339
f 312 314 338
f 310 312 339
f 310 339 340
f 308 310 340
f 308 340 341
f 308 341 342
f 306 308 342
f 304 306 342
f 304 342 343
f 302 304 343
f 302 343 344
f 303 302 344
f 303 344 345
f 303 345 346
f 305 303 346
f 305 346 347
f 307 305 347
f 309 307 347
f 309 347 348
f 309 348 349
f 311 309 349
f 311 349 350
f 313 311 350
f 315 313 350
f 315 350 351
f 317 351 352
f 317 352 353
f 317 315 351
f 319 353 328
f 319 317 353
f 321 319 328
f 350 349 348
f 352 351 350
f 329 353 352
f 329 328 353
f 332 334 333
f 332 335 334
f 331 330 329
f 331 336 335
f 331 337 336
f 331 338 337
f 331 339 338
f 331 340 339
f 331 341 340
f 331 342 341
f 331 343 342
f 331 344 343
f 331 345 344
f 331 346 345
f 331 347 346
f 331 348 347
f 331 350 348
f 331 352 350
f 331 329 352
f 331 335 332
f 188 184 354
f 188 354 355
f 192 355 356
f 192 188 355
f 196 356 357
f 196 192 356
f 194 357 358
f 194 196 357
f 190 358 359
f 190 359 360
f 190 194 358
f 186 190 360
f 182 360 361
f 182 186 360
f 178 361 362
f 178 182 361
f 174 362 363
f 174 178 362
f 171 363 364
f 171 364 365
f 171 174 363
f 167 171 365
f 164 167 365
f 164 365 366
f 161 164 366
f 161 366 367
f 158 161 367
f 158 367 368
f 158 368 369
f 155 158 369
f 150 155 369
f 150 369 370
f 153 150 370
f 153 370 371
f 153 371 372
f 156 153 372
f 159 156 372
f 159 372 373
f 159 373 374
f 162 159 374
f 165 162 374
f 165 374 375
f 169 165 375
f 169 375 376
f 172 169 376
f 172 376 377
f 176 377 378
f 176 378 379
f 176 172 377
f 180 379 354
f 180 176 379
f 184 180 354
f 371 380 381
f 371 370 380
f 369 382 380
f 369 380 370
f 372 381 383
f 372 371 381
f 368 384 382
f 368 382 369
f 373 383 385
f 373 372 383
f 367 386 384
f 367 384 368
f 374 385 387
f 374 373 385
f 366 388 386
f 366 386 367
f 375 387 389
f 375 374 387
f 365 390 388
f 365 388 366
f 376 389 391
f 376 375 389
f 364 392 390
f 364 390 365
f 393 377 376
f 393 376 391
f 394 364 363
f 394 392 364
f 395 377 393
f 395 378 377
f 396 394 363
f 396 363 362
f 397 378 395
f 397 379 378
f 398 396 362
f 398 362 361
f 399 379 397
f 399 354 379
f 355 354 399
f 400 361 360
f 400 398 361
f 401 356 355
f 401 355 399
f 402 360 359
f 402 400 360
f 403 356 401
f 404 359 358
f 404 402 359
f 405 357 356
f 405 358 357
f 405 356 403
f 405 404 358
f 401 399 406
f 401 406 407
f 403 407 408
f 403 401 407
f 405 408 409
f 405 403 408
f 404 409 410
f 404 405 409
f 402 410 411
f 402 404 410
f 400 411 412
f 400 402 411
f 398 412 413
f 398 400 412
f 396 413 414
f 396 398 413
f 394 414 415
f 394 396 414
f 392 415 416
f 392 394 415
f 390 416 417
f 390 392 416
f 388 390 417
f 388 417 418
f 386 388 418
f 386 418 419
f 386 419 420
f 384 386 420
f 382 384 420
f 382 420 421
f 380 382 421
f 380 421 422
f 381 380 422
f 381 422 423
f 381 423 424
f 383 381 424
f 383 424 425
f 385 383 425
f 387 385 425
f 387 425 426
f 387 426 427
f 389 387 427
f 389 427 428
f 391 389 428
f 393 391 428
f 393 428 429
f 395 429 430
f 395 430 431
f 395 393 429
f 397 431 406
f 397 395 431
f 399 397 406
f 417 419 418
f 428 427 426
f 408 407 406
f 409 411 410
f 409 412 411
f 409 413 412
f 409 414 413
f 409 415 414
f 409 416 415
f 409 417 416
f 409 420 419
f 409 421 420
f 409 422 421
f 409 423 422
f 409 424 423
f 409 425 424
f 409 426 425
f 409 429 428
f 409 430 429
f 409 431 430
f 409 406 431
f 409 428 426
f 409 419 417
f 409 408 406
f 120 82 432
f 120 432 433
f 121 433 434
f 121 120 433
f 125 434 435
f 125 121 434
f 123 435 436
f 123 125 435
f 118 436 437
f 118 123 436
f 111 437 438
f 111 118 437
f 103 438 439
f 103 111 438
f 104 439 440
f 104 103 439
f 77 440 441
f 77 104 440
f 75 441 442
f 75 77 441
f 71 442 443
f 71 75 442
f 67 71 443
f 67 443 444
f 62 67 444
f 62 444 445
f 58 62 445
f 58 445 446
f 55 58 446
f 55 446 447
f 54 55 447
f 54 447 448
f 53 54 448
f 53 448 449
f 57 53 449
f 57 449 450
f 60 57 450
f 60 450 451
f 65 60 451
f 65 451 452
f 69 65 452
f 69 452 453
f 73 69 453
f 73 453 454
f 76 73 454
f 76 454 455
f 76 455 456
f 79 76 456
f 81 456 457
f 81 79 456
f 82 457 432
f 82 81 457
f 444 446 445
f 444 447 446
f 444 448 447
f 454 453 452
f 442 444 443
f 457 455 454
f 457 456 455
f 432 457 454
f 437 439 438
f 437 440 439
f 437 441 440
f 437 442 441
f 437 449 448
f 437 450 449
f 437 451 450
f 437 448 444
f 437 444 442
f 435 433 432
f 435 434 433
f 435 437 436
f 435 452 451
f 435 454 452
f 435 451 437
f 435 432 454
f 458 127 152
f 459 458 152
f 460 152 151
f 460 459 152
f 461 151 154
f 461 460 151
f 462 154 157
f 462 461 154
f 463 157 160
f 463 462 157
f 464 160 163
f 464 463 160
f 465 163 166
f 465 464 163
f 466 166 170
f 466 465 166
f 467 170 175
f 467 466 170
f 468 175 179
f 468 467 175
f 469 183 187
f 469 179 183
f 469 468 179
f 470 187 191
f 470 469 187
f 471 470 191
f 472 471 191
f 472 191 195
f 473 472 195
f 473 197 193
f 473 195 197
f 474 473 193
f 475 474 193
f 475 193 189
f 476 475 189
f 476 189 185
f 477 185 181
f 477 476 185
f 478 477 181
f 478 177 173
f 478 181 177
f 479 478 173
f 480 168 140
f 480 173 168
f 480 479 173
f 481 480 140
f 482 483 484
f 485 482 484
f 485 486 482
f 485 484 487
f 485 487 488
f 489 490 491
f 489 491 492
f 493 494 485
f 495 493 485
f 496 497 498
f 499 500 495
f 499 495 485
f 501 485 488
f 501 499 485
f 502 489 497
f 502 497 496
f 502 496 503
f 504 490 489
f 504 488 490
f 504 501 488
f 504 489 502
f 505 501 504
f 506 501 505
f 507 506 505
f 508 506 507
f 508 509 506
f 510 511 506
f 510 506 509
f 512 508 507
f 513 514 511
f 513 511 510
f 515 507 516
f 515 512 507
f 517 518 519
f 517 519 514
f 517 514 513
f 520 516 521
f 520 515 516
f 522 523 518
f 522 518 517
f 524 520 521
f 524 521 525
f 526 527 528
f 526 528 529
f 530 523 522
f 531 523 530
f 532 524 525
f 533 532 525
f 534 531 530
f 535 532 533
f 536 531 534
f 537 526 529
f 537 529 538
f 537 538 539
f 540 541 535
f 540 535 533
f 542 543 541
f 542 544 543
f 542 541 540
f 545 546 547
f 545 536 546
f 545 531 536
f 548 549 550
f 548 550 551
f 548 551 526
f 552 545 547
f 552 547 553
f 554 537 531
f 554 531 545
f 555 552 553
f 555 553 556
f 557 544 542
f 557 558 544
f 557 559 558
f 560 555 556
f 560 556 561
f 562 559 557
f 562 563 559
f 564 560 561
f 564 563 562
f 564 561 563
f 458 557 542
f 458 459 460
f 565 566 548
f 462 460 461
f 567 554 568
f 569 526 537
f 569 548 526
f 569 565 548
f 570 554 567
f 570 537 554
f 464 462 463
f 481 557 458
f 571 537 570
f 571 570 572
f 465 460 462
f 465 462 464
f 465 458 460
f 573 574 575
f 573 575 569
f 573 569 537
f 576 537 571
f 576 573 537
f 479 481 458
f 479 458 465
f 479 480 481
f 479 465 466
f 468 466 467
f 477 478 479
f 475 477 479
f 475 476 477
f 473 479 466
f 473 466 468
f 473 475 479
f 473 474 475
f 473 471 472
f 473 470 471
f 473 469 470
f 473 468 469
f 577 578 544
f 577 544 558
f 579 558 559
f 579 577 558
f 580 559 563
f 580 563 561
f 580 579 559
f 581 580 561
f 582 561 556
f 582 581 561
f 583 556 553
f 583 553 547
f 583 582 556
f 584 547 546
f 584 583 547
f 585 584 546
f 586 546 536
f 586 536 534
f 586 585 546
f 587 586 534
f 588 587 534
f 588 534 530
f 589 588 530
f 589 530 522
f 590 589 522
f 590 522 517
f 591 590 517
f 591 517 513
f 592 591 513
f 592 513 510
f 593 592 510
f 593 510 509
f 594 593 509
f 594 509 508
f 595 594 508
f 595 508 512
f 595 512 515
f 596 595 515
f 597 596 515
f 597 515 520
f 598 597 520
f 598 520 524
f 599 598 524
f 599 524 532
f 600 599 532
f 600 532 535
f 601 535 541
f 601 600 535
f 602 541 543
f 602 601 541
f 578 602 543
f 578 543 544
f 589 590 591
f 589 591 592
f 589 592 593
f 599 597 598
f 587 588 589
f 602 599 600
f 602 600 601
f 578 599 602
f 582 583 584
f 582 584 585
f 582 585 586
f 582 586 587
f 582 593 594
f 582 594 595
f 582 595 596
f 582 589 593
f 582 587 589
f 580 578 577
f 580 577 579
f 580 581 582
f 580 596 597
f 580 597 599
f 580 582 596
f 580 599 578
f 127 542 80
f 458 542 127
f 507 52 61
f 516 507 61
f 521 61 66
f 521 516 61
f 525 66 70
f 525 521 66
f 533 70 74
f 533 74 78
f 533 525 70
f 540 533 78
f 542 78 80
f 542 540 78
f 49 52 507
f 505 49 507
f 499 501 42
f 499 38 34
f 499 42 38
f 500 34 30
f 500 499 34
f 495 30 26
f 495 500 30
f 493 495 26
f 494 26 23
f 494 493 26
f 485 23 19
f 485 494 23
f 486 19 15
f 486 485 19
f 482 15 11
f 482 486 15
f 483 11 7
f 483 482 11
f 484 7 3
f 484 483 7
f 487 2 5
f 487 3 2
f 487 484 3
f 488 487 5
f 490 488 5
f 490 5 9
f 491 490 9
f 491 9 13
f 492 491 13
f 492 13 17
f 489 492 17
f 489 21 27
f 489 17 21
f 497 489 27
f 498 497 27
f 498 27 32
f 496 32 36
f 496 498 32
f 503 496 36
f 503 40 45
f 503 36 40
f 502 503 45
f 504 47 49
f 504 45 47
f 504 502 45
f 505 504 49
f 42 506 51
f 501 506 42
f 531 72 68
f 523 531 68
f 518 68 64
f 518 523 68
f 519 64 63
f 519 518 64
f 514 63 59
f 514 59 56
f 514 519 63
f 511 514 56
f 506 56 51
f 506 511 56
f 99 72 531
f 537 99 531
f 554 112 128
f 568 128 132
f 568 554 128
f 567 568 132
f 570 132 136
f 570 567 132
f 572 136 141
f 572 570 136
f 571 141 145
f 571 572 141
f 576 145 149
f 576 571 145
f 573 147 143
f 573 149 147
f 573 576 149
f 574 573 143
f 575 143 138
f 575 574 143
f 569 138 134
f 569 575 138
f 565 130 115
f 565 134 130
f 565 569 134
f 566 565 115
f 548 566 115
f 548 115 107
f 549 548 107
f 549 107 101
f 550 549 101
f 550 101 97
f 551 550 97
f 551 97 93
f 526 551 93
f 526 89 85
f 526 93 89
f 527 526 85
f 528 527 85
f 528 84 87
f 528 85 84
f 529 528 87
f 538 91 95
f 538 87 91
f 538 529 87
f 539 95 99
f 539 538 95
f 537 539 99
f 112 545 102
f 554 545 112
f 557 119 124
f 562 557 124
f 564 124 126
f 564 562 124
f 560 126 122
f 560 564 126
f 555 122 117
f 555 560 122
f 552 117 110
f 552 110 102
f 552 555 117
f 545 552 102
f 140 119 557
f 481 140 557
