# https://github.com/mikedh/trimesh

o geometry_1
v 1.19761700 -1.06099600 -1.00000000
v 1.67947100 -1.48788100 -1.00000000
v 1.27459500 -1.84657000 -1.00000000
v 0.90890360 -1.31677400 -1.00000000
v 1.41673000 -0.74355710 -1.00000000
v 1.98674200 -1.04272300 -1.00000000
v 0.56736780 -1.49602600 -1.00000000
v 0.79564470 -2.09794300 -1.00000000
v 1.55350700 -0.38290510 -1.00000000
v 2.17855100 -0.53696450 -1.00000000
v 0.19285870 -1.58833400 -1.00000000
v 0.27045420 -2.22739100 -1.00000000
v 1.60000000 0.00000000 -1.00000000
v 2.24375000 0.00000000 -1.00000000
v -0.19285870 -1.58833400 -1.00000000
v -0.27045420 -2.22739100 -1.00000000
v 1.55350700 0.38290510 -1.00000000
v 2.17855100 0.53696450 -1.00000000
v -0.56736780 -1.49602600 -1.00000000
v -0.79564470 -2.09794300 -1.00000000
v 1.41673000 0.74355710 -1.00000000
v 1.98674200 1.04272300 -1.00000000
v -0.90890360 -1.31677400 -1.00000000
v -1.27459500 -1.84657000 -1.00000000
v 1.19761700 1.06099600 -1.00000000
v 1.67947100 1.48788100 -1.00000000
v -1.19761700 -1.06099600 -1.00000000
v -1.67947100 -1.48788100 -1.00000000
v 0.90890360 1.31677400 -1.00000000
v 1.27459500 1.84657000 -1.00000000
v -1.41673000 -0.74355710 -1.00000000
v -1.98674200 -1.04272300 -1.00000000
v 0.79564470 2.09794300 -1.00000000
v 0.56736780 1.49602600 -1.00000000
v -2.17855100 -0.53696450 -1.00000000
v -1.55350700 -0.38290510 -1.00000000
v 0.27045420 2.22739100 -1.00000000
v 0.19285870 1.58833400 -1.00000000
v -0.19285870 1.58833400 -1.00000000
v -2.24375000 0.00000000 -1.00000000
v -1.60000000 0.00000000 -1.00000000
v -0.27045420 2.22739100 -1.00000000
v -2.17855100 0.53696450 -1.00000000
v -1.55350700 0.38290510 -1.00000000
v -0.79564470 2.09794300 -1.00000000
v -0.56736780 1.49602600 -1.00000000
v -1.98674200 1.04272300 -1.00000000
v -1.41673000 0.74355710 -1.00000000
v -1.27459500 1.84657000 -1.00000000
v -0.90890360 1.31677400 -1.00000000
v -1.19761700 1.06099600 -1.00000000
v -1.67947100 1.48788100 -1.00000000
v 2.17855100 0.53696450 -0.22469080
v 2.24375000 0.00000000 -0.22469080
v 1.98674200 1.04272300 -0.22469080
v 1.67947100 1.48788100 -0.22469080
v 1.27459500 1.84657000 -0.22469080
v 0.79564470 2.09794300 -0.22469080
v 0.27045420 2.22739100 -0.22469080
v -0.27045420 2.22739100 -0.22469080
v -0.79564470 2.09794300 -0.22469080
v -1.27459500 1.84657000 -0.22469080
v -1.67947100 1.48788100 -0.22469080
v -1.98674200 1.04272300 -0.22469080
v -2.17855100 0.53696450 -0.22469080
v -2.24375000 0.00000000 -0.22469080
v -2.17855100 -0.53696450 -0.22469080
v -1.98674200 -1.04272300 -0.22469080
v -1.67947100 -1.48788100 -0.22469080
v -1.27459500 -1.84657000 -0.22469080
v -0.79564470 -2.09794300 -0.22469080
v -0.27045420 -2.22739100 -0.22469080
v 0.27045420 -2.22739100 -0.22469080
v 0.79564470 -2.09794300 -0.22469080
v 1.27459500 -1.84657000 -0.22469080
v 1.67947100 -1.48788100 -0.22469080
v 1.98674200 -1.04272300 -0.22469080
v 2.17855100 -0.53696450 -0.22469080
v 2.13299000 0.52573480 -0.17008160
v 2.19682600 0.00000000 -0.17008160
v 2.10112800 0.51788150 -0.10599430
v 2.16401000 0.00000000 -0.10599430
v 2.08474000 0.51384230 -0.03600017
v 2.14713200 0.00000000 -0.03600017
v 2.08474000 0.51384230 0.03600017
v 2.14713200 0.00000000 0.03600017
v 2.10112800 0.51788150 0.10599430
v 2.16401000 0.00000000 0.10599430
v 2.13299000 0.52573480 0.17008160
v 2.17855100 0.53696450 0.22469080
v 2.24375000 0.00000000 0.22469080
v 2.19682600 0.00000000 0.17008160
v 1.94519300 1.02091600 -0.17008160
v 1.91613600 1.00566600 -0.10599430
v 1.90119100 0.99782200 -0.03600017
v 1.90119100 0.99782200 0.03600017
v 1.91613600 1.00566600 0.10599430
v 1.94519300 1.02091600 0.17008160
v 1.98674200 1.04272300 0.22469080
v 1.64434800 1.45676500 -0.17008160
v 1.61978500 1.43500400 -0.10599430
v 1.60715100 1.42381200 -0.03600017
v 1.60715100 1.42381200 0.03600017
v 1.61978500 1.43500400 0.10599430
v 1.64434800 1.45676500 0.17008160
v 1.67947100 1.48788100 0.22469080
v 1.24793900 1.80795200 -0.17008160
v 1.22929800 1.78094500 -0.10599430
v 1.21971000 1.76705500 -0.03600017
v 1.21971000 1.76705500 0.03600017
v 1.22929800 1.78094500 0.10599430
v 1.24793900 1.80795200 0.17008160
v 1.27459500 1.84657000 0.22469080
v 0.77900510 2.05406800 -0.17008160
v 0.76736860 2.02338500 -0.10599430
v 0.76138350 2.00760300 -0.03600017
v 0.76138350 2.00760300 0.03600017
v 0.76736860 2.02338500 0.10599430
v 0.77900510 2.05406800 0.17008160
v 0.79564470 2.09794300 0.22469080
v 0.26479810 2.18080800 -0.17008160
v 0.26084260 2.14823200 -0.10599430
v 0.25880820 2.13147700 -0.03600017
v 0.25880820 2.13147700 0.03600017
v 0.26084260 2.14823200 0.10599430
v 0.26479810 2.18080800 0.17008160
v 0.27045420 2.22739100 0.22469080
v -0.26479810 2.18080800 -0.17008160
v -0.26084260 2.14823200 -0.10599430
v -0.25880820 2.13147700 -0.03600017
v -0.25880820 2.13147700 0.03600017
v -0.26084260 2.14823200 0.10599430
v -0.26479810 2.18080800 0.17008160
v -0.27045420 2.22739100 0.22469080
v -0.77900510 2.05406800 -0.17008160
v -0.76736860 2.02338500 -0.10599430
v -0.76138350 2.00760300 -0.03600017
v -0.76138350 2.00760300 0.03600017
v -0.76736860 2.02338500 0.10599430
v -0.77900510 2.05406800 0.17008160
v -0.79564470 2.09794300 0.22469080
v -1.24793900 1.80795200 -0.17008160
v -1.22929800 1.78094500 -0.10599430
v -1.21971000 1.76705500 -0.03600017
v -1.21971000 1.76705500 0.03600017
v -1.22929800 1.78094500 0.10599430
v -1.24793900 1.80795200 0.17008160
v -1.27459500 1.84657000 0.22469080
v -1.67947100 1.48788100 0.22469080
v -1.64434800 1.45676500 -0.17008160
v -1.61978500 1.43500400 -0.10599430
v -1.60715100 1.42381200 -0.03600017
v -1.60715100 1.42381200 0.03600017
v -1.61978500 1.43500400 0.10599430
v -1.64434800 1.45676500 0.17008160
v -1.94519300 1.02091600 -0.17008160
v -1.91613600 1.00566600 -0.10599430
v -1.90119100 0.99782200 -0.03600017
v -1.90119100 0.99782200 0.03600017
v -1.91613600 1.00566600 0.10599430
v -1.94519300 1.02091600 0.17008160
v -1.98674200 1.04272300 0.22469080
v -2.17855100 0.53696450 0.22469080
v -2.13299000 0.52573480 -0.17008160
v -2.10112800 0.51788150 -0.10599430
v -2.08474000 0.51384230 -0.03600017
v -2.08474000 0.51384230 0.03600017
v -2.10112800 0.51788150 0.10599430
v -2.13299000 0.52573480 0.17008160
v -2.19682600 0.00000000 -0.17008160
v -2.16401000 0.00000000 -0.10599430
v -2.14713200 0.00000000 -0.03600017
v -2.14713200 0.00000000 0.03600017
v -2.16401000 0.00000000 0.10599430
v -2.19682600 0.00000000 0.17008160
v -2.24375000 0.00000000 0.22469080
v -2.13299000 -0.52573480 -0.17008160
v -2.10112800 -0.51788150 -0.10599430
v -2.08474000 -0.51384230 -0.03600017
v -2.08474000 -0.51384230 0.03600017
v -2.10112800 -0.51788150 0.10599430
v -2.13299000 -0.52573480 0.17008160
v -2.17855100 -0.53696450 0.22469080
v -1.98674200 -1.04272300 0.22469080
v -1.94519300 -1.02091600 -0.17008160
v -1.91613600 -1.00566600 -0.10599430
v -1.90119100 -0.99782200 -0.03600017
v -1.90119100 -0.99782200 0.03600017
v -1.91613600 -1.00566600 0.10599430
v -1.94519300 -1.02091600 0.17008160
v -1.67947100 -1.48788100 0.22469080
v -1.64434800 -1.45676500 -0.17008160
v -1.61978500 -1.43500400 -0.10599430
v -1.60715100 -1.42381200 -0.03600017
v -1.60715100 -1.42381200 0.03600017
v -1.61978500 -1.43500400 0.10599430
v -1.64434800 -1.45676500 0.17008160
v -1.24793900 -1.80795200 -0.17008160
v -1.22929800 -1.78094500 -0.10599430
v -1.21971000 -1.76705500 -0.03600017
v -1.21971000 -1.76705500 0.03600017
v -1.22929800 -1.78094500 0.10599430
v -1.24793900 -1.80795200 0.17008160
v -1.27459500 -1.84657000 0.22469080
v -0.79564470 -2.09794300 0.22469080
v -0.77900510 -2.05406800 -0.17008160
v -0.76736860 -2.02338500 -0.10599430
v -0.76138350 -2.00760300 -0.03600017
v -0.76138350 -2.00760300 0.03600017
v -0.76736860 -2.02338500 0.10599430
v -0.77900510 -2.05406800 0.17008160
v -0.26479810 -2.18080800 -0.17008160
v -0.26084260 -2.14823200 -0.10599430
v -0.25880820 -2.13147700 -0.03600017
v -0.25880820 -2.13147700 0.03600017
v -0.26084260 -2.14823200 0.10599430
v -0.26479810 -2.18080800 0.17008160
v -0.27045420 -2.22739100 0.22469080
v 0.26479810 -2.18080800 -0.17008160
v 0.26084260 -2.14823200 -0.10599430
v 0.25880820 -2.13147700 -0.03600017
v 0.25880820 -2.13147700 0.03600017
v 0.26084260 -2.14823200 0.10599430
v 0.26479810 -2.18080800 0.17008160
v 0.27045420 -2.22739100 0.22469080
v 0.77900510 -2.05406800 -0.17008160
v 0.76736860 -2.02338500 -0.10599430
v 0.76138350 -2.00760300 -0.03600017
v 0.76138350 -2.00760300 0.03600017
v 0.76736860 -2.02338500 0.10599430
v 0.77900510 -2.05406800 0.17008160
v 0.79564470 -2.09794300 0.22469080
v 1.24793900 -1.80795200 -0.17008160
v 1.22929800 -1.78094500 -0.10599430
v 1.21971000 -1.76705500 -0.03600017
v 1.21971000 -1.76705500 0.03600017
v 1.22929800 -1.78094500 0.10599430
v 1.24793900 -1.80795200 0.17008160
v 1.27459500 -1.84657000 0.22469080
v 1.64434800 -1.45676500 -0.17008160
v 1.61978500 -1.43500400 -0.10599430
v 1.60715100 -1.42381200 -0.03600017
v 1.60715100 -1.42381200 0.03600017
v 1.61978500 -1.43500400 0.10599430
v 1.64434800 -1.45676500 0.17008160
v 1.67947100 -1.48788100 0.22469080
v 1.94519300 -1.02091600 -0.17008160
v 1.91613600 -1.00566600 -0.10599430
v 1.90119100 -0.99782200 -0.03600017
v 1.90119100 -0.99782200 0.03600017
v 1.91613600 -1.00566600 0.10599430
v 1.94519300 -1.02091600 0.17008160
v 1.98674200 -1.04272300 0.22469080
v 2.13299000 -0.52573480 -0.17008160
v 2.10112800 -0.51788150 -0.10599430
v 2.08474000 -0.51384230 -0.03600017
v 2.08474000 -0.51384230 0.03600017
v 2.10112800 -0.51788150 0.10599430
v 2.13299000 -0.52573480 0.17008160
v 2.17855100 -0.53696450 0.22469080
v 2.17855100 0.53696450 1.00000000
v 2.24375000 0.00000000 1.00000000
v 1.98674200 1.04272300 1.00000000
v 1.67947100 1.48788100 1.00000000
v 1.27459500 1.84657000 1.00000000
v 0.79564470 2.09794300 1.00000000
v 0.27045420 2.22739100 1.00000000
v -0.27045420 2.22739100 1.00000000
v -0.79564470 2.09794300 1.00000000
v -1.27459500 1.84657000 1.00000000
v -1.67947100 1.48788100 1.00000000
v -1.98674200 1.04272300 1.00000000
v -2.17855100 0.53696450 1.00000000
v -2.24375000 0.00000000 1.00000000
v -2.17855100 -0.53696450 1.00000000
v -1.98674200 -1.04272300 1.00000000
v -1.67947100 -1.48788100 1.00000000
v -1.27459500 -1.84657000 1.00000000
v -0.79564470 -2.09794300 1.00000000
v -0.27045420 -2.22739100 1.00000000
v 0.27045420 -2.22739100 1.00000000
v 0.79564470 -2.09794300 1.00000000
v 1.27459500 -1.84657000 1.00000000
v 1.67947100 -1.48788100 1.00000000
v 1.98674200 -1.04272300 1.00000000
v 2.17855100 -0.53696450 1.00000000
v -0.90890360 -1.31677400 1.00000000
v -1.19761700 -1.06099600 1.00000000
v -1.41673000 -0.74355710 1.00000000
v -0.56736780 -1.49602600 1.00000000
v -1.55350700 -0.38290510 1.00000000
v -0.19285870 -1.58833400 1.00000000
v -1.60000000 0.00000000 1.00000000
v 0.19285870 -1.58833400 1.00000000
v -1.55350700 0.38290510 1.00000000
v 0.56736780 -1.49602600 1.00000000
v -1.41673000 0.74355710 1.00000000
v 0.90890360 -1.31677400 1.00000000
v -1.19761700 1.06099600 1.00000000
v 1.19761700 -1.06099600 1.00000000
v -0.90890360 1.31677400 1.00000000
v -0.56736780 1.49602600 1.00000000
v 1.41673000 -0.74355710 1.00000000
v -0.19285870 1.58833400 1.00000000
v 1.55350700 -0.38290510 1.00000000
v 1.60000000 0.00000000 1.00000000
v 0.19285870 1.58833400 1.00000000
v 1.55350700 0.38290510 1.00000000
v 0.56736780 1.49602600 1.00000000
v 1.41673000 0.74355710 1.00000000
v 0.90890360 1.31677400 1.00000000
v 1.19761700 1.06099600 1.00000000
f 1 2 3
f 4 1 3
f 5 6 2
f 5 2 1
f 7 3 8
f 7 4 3
f 9 10 6
f 9 6 5
f 11 8 12
f 11 7 8
f 13 14 10
f 13 10 9
f 15 12 16
f 15 11 12
f 17 18 14
f 17 14 13
f 19 16 20
f 19 15 16
f 21 22 18
f 21 18 17
f 23 20 24
f 23 19 20
f 25 26 22
f 25 22 21
f 27 23 24
f 28 27 24
f 29 26 25
f 30 26 29
f 31 27 28
f 32 31 28
f 33 30 29
f 33 29 34
f 35 31 32
f 35 36 31
f 37 33 34
f 37 34 38
f 37 38 39
f 40 36 35
f 40 41 36
f 42 37 39
f 43 44 41
f 43 41 40
f 45 42 39
f 45 39 46
f 47 44 43
f 47 48 44
f 49 46 50
f 49 50 51
f 49 45 46
f 52 48 47
f 52 51 48
f 52 49 51
f 53 14 18
f 53 54 14
f 55 18 22
f 55 53 18
f 56 22 26
f 56 55 22
f 57 26 30
f 57 56 26
f 58 30 33
f 58 57 30
f 59 33 37
f 59 58 33
f 60 37 42
f 60 59 37
f 61 42 45
f 61 45 49
f 61 60 42
f 62 61 49
f 63 49 52
f 63 62 49
f 64 52 47
f 64 63 52
f 65 64 47
f 65 47 43
f 66 65 43
f 66 43 40
f 67 40 35
f 67 66 40
f 68 67 35
f 68 35 32
f 69 32 28
f 69 68 32
f 70 28 24
f 70 24 20
f 70 69 28
f 71 70 20
f 72 20 16
f 72 71 20
f 73 16 12
f 73 12 8
f 73 72 16
f 74 8 3
f 74 73 8
f 75 3 2
f 75 74 3
f 76 75 2
f 77 2 6
f 77 76 2
f 78 6 10
f 78 77 6
f 54 10 14
f 54 78 10
f 79 54 53
f 79 80 54
f 81 80 79
f 81 82 80
f 83 82 81
f 83 84 82
f 85 86 84
f 85 84 83
f 87 88 86
f 87 86 85
f 89 88 87
f 89 90 91
f 89 92 88
f 89 91 92
f 93 53 55
f 93 79 53
f 94 81 79
f 94 79 93
f 95 83 81
f 95 81 94
f 96 83 95
f 96 85 83
f 97 87 85
f 97 85 96
f 98 87 97
f 98 89 87
f 98 99 90
f 98 90 89
f 100 55 56
f 100 93 55
f 101 94 93
f 101 93 100
f 102 94 101
f 102 95 94
f 103 96 95
f 103 95 102
f 104 96 103
f 104 97 96
f 105 106 99
f 105 98 97
f 105 97 104
f 105 99 98
f 107 56 57
f 107 57 58
f 107 100 56
f 108 101 100
f 108 100 107
f 109 103 102
f 109 102 101
f 109 101 108
f 110 103 109
f 111 104 103
f 111 103 110
f 112 106 105
f 112 113 106
f 112 104 111
f 112 105 104
f 114 107 58
f 115 107 114
f 115 108 107
f 116 108 115
f 116 109 108
f 117 109 116
f 117 110 109
f 118 111 110
f 118 110 117
f 118 112 111
f 119 112 118
f 119 120 113
f 119 113 112
f 121 115 114
f 121 58 59
f 121 114 58
f 122 115 121
f 123 116 115
f 123 115 122
f 124 117 116
f 124 116 123
f 125 118 117
f 125 119 118
f 125 117 124
f 126 120 119
f 126 119 125
f 126 127 120
f 128 59 60
f 128 121 59
f 129 121 128
f 129 122 121
f 130 123 122
f 130 122 129
f 131 124 123
f 131 123 130
f 132 125 124
f 132 124 131
f 133 126 125
f 133 127 126
f 133 134 127
f 133 125 132
f 135 60 61
f 135 128 60
f 136 130 129
f 136 129 128
f 136 128 135
f 137 130 136
f 138 131 130
f 138 130 137
f 139 132 131
f 139 131 138
f 140 132 139
f 140 141 134
f 140 134 133
f 140 133 132
f 142 61 62
f 142 62 63
f 142 135 61
f 143 136 135
f 143 135 142
f 144 137 136
f 144 138 137
f 144 136 143
f 145 138 144
f 146 140 139
f 146 139 138
f 146 138 145
f 147 148 141
f 147 149 148
f 147 141 140
f 147 140 146
f 150 142 63
f 151 143 142
f 151 142 150
f 152 145 144
f 152 144 143
f 152 143 151
f 153 145 152
f 154 146 145
f 154 145 153
f 155 146 154
f 155 149 147
f 155 147 146
f 156 63 64
f 156 64 65
f 156 150 63
f 157 150 156
f 157 151 150
f 158 151 157
f 158 152 151
f 159 152 158
f 159 153 152
f 160 154 153
f 160 153 159
f 161 149 155
f 161 154 160
f 161 162 149
f 161 163 162
f 161 155 154
f 164 156 65
f 165 157 156
f 165 156 164
f 166 159 158
f 166 157 165
f 166 158 157
f 167 159 166
f 168 160 159
f 168 161 160
f 168 159 167
f 169 163 161
f 169 161 168
f 170 164 65
f 170 65 66
f 170 165 164
f 171 166 165
f 171 165 170
f 172 167 166
f 172 166 171
f 173 167 172
f 174 168 167
f 174 167 173
f 175 163 169
f 175 169 168
f 175 176 163
f 175 168 174
f 177 66 67
f 177 67 68
f 177 170 66
f 177 171 170
f 178 171 177
f 179 172 171
f 179 171 178
f 180 173 172
f 180 172 179
f 181 174 173
f 181 173 180
f 182 183 176
f 182 184 183
f 182 174 181
f 182 176 175
f 182 175 174
f 185 68 69
f 185 177 68
f 186 178 177
f 186 177 185
f 187 179 178
f 187 178 186
f 188 179 187
f 188 180 179
f 189 181 180
f 189 182 181
f 189 180 188
f 190 191 184
f 190 184 182
f 190 182 189
f 192 69 70
f 192 185 69
f 193 185 192
f 193 186 185
f 194 187 186
f 194 186 193
f 194 188 187
f 195 188 194
f 196 189 188
f 196 188 195
f 197 189 196
f 197 191 190
f 197 190 189
f 198 192 70
f 199 192 198
f 199 193 192
f 200 194 193
f 200 193 199
f 201 195 194
f 201 194 200
f 202 196 195
f 202 195 201
f 203 197 196
f 203 191 197
f 203 196 202
f 203 204 191
f 203 205 204
f 206 70 71
f 206 198 70
f 207 199 198
f 207 198 206
f 208 200 199
f 208 199 207
f 209 201 200
f 209 200 208
f 210 202 201
f 210 201 209
f 211 203 202
f 211 205 203
f 211 202 210
f 212 71 72
f 212 206 71
f 212 207 206
f 213 208 207
f 213 207 212
f 214 208 213
f 215 209 208
f 215 208 214
f 216 210 209
f 216 211 210
f 216 209 215
f 217 205 211
f 217 218 205
f 217 211 216
f 219 72 73
f 219 73 74
f 219 212 72
f 220 212 219
f 220 213 212
f 221 214 213
f 221 215 214
f 221 213 220
f 222 215 221
f 222 216 215
f 223 216 222
f 224 225 218
f 224 218 217
f 224 217 216
f 224 216 223
f 226 219 74
f 226 220 219
f 227 220 226
f 228 221 220
f 228 220 227
f 229 222 221
f 229 221 228
f 230 222 229
f 230 223 222
f 230 224 223
f 231 232 225
f 231 225 224
f 231 224 230
f 233 74 75
f 233 226 74
f 234 226 233
f 234 228 227
f 234 227 226
f 235 228 234
f 236 228 235
f 236 229 228
f 236 230 229
f 237 230 236
f 238 231 230
f 238 230 237
f 238 239 232
f 238 232 231
f 240 234 233
f 240 75 76
f 240 76 77
f 240 233 75
f 241 234 240
f 242 235 234
f 242 234 241
f 243 236 235
f 243 235 242
f 244 237 236
f 244 236 243
f 245 238 237
f 245 239 238
f 245 237 244
f 245 246 239
f 247 240 77
f 247 241 240
f 247 77 78
f 248 241 247
f 249 242 241
f 249 241 248
f 250 243 242
f 250 242 249
f 251 243 250
f 251 244 243
f 252 244 251
f 252 245 244
f 252 246 245
f 252 253 246
f 254 78 54
f 254 54 80
f 254 80 82
f 254 248 247
f 254 247 78
f 255 254 82
f 255 248 254
f 256 82 84
f 256 84 86
f 256 249 248
f 256 250 249
f 256 255 82
f 256 248 255
f 257 256 86
f 257 250 256
f 258 86 88
f 258 88 92
f 258 257 86
f 258 250 257
f 258 251 250
f 259 92 91
f 259 252 251
f 259 258 92
f 259 253 252
f 259 260 253
f 259 91 260
f 259 251 258
f 261 91 90
f 261 262 91
f 263 90 99
f 263 261 90
f 264 99 106
f 264 263 99
f 265 106 113
f 265 264 106
f 266 113 120
f 266 265 113
f 267 120 127
f 267 266 120
f 268 127 134
f 268 134 141
f 268 267 127
f 269 268 141
f 270 141 148
f 270 269 141
f 271 148 149
f 271 270 148
f 272 149 162
f 272 271 149
f 273 272 162
f 273 162 163
f 274 273 163
f 274 163 176
f 275 176 183
f 275 274 176
f 276 275 183
f 276 183 184
f 277 184 191
f 277 276 184
f 278 191 204
f 278 277 191
f 279 204 205
f 279 278 204
f 280 205 218
f 280 279 205
f 281 218 225
f 281 280 218
f 282 225 232
f 282 281 225
f 283 232 239
f 283 239 246
f 283 282 232
f 284 283 246
f 285 246 253
f 285 284 246
f 286 253 260
f 286 285 253
f 262 260 91
f 262 286 260
f 287 277 278
f 287 288 277
f 289 276 277
f 289 277 288
f 290 278 279
f 290 287 278
f 291 275 276
f 291 276 289
f 292 279 280
f 292 290 279
f 293 274 275
f 293 275 291
f 294 280 281
f 294 292 280
f 295 273 274
f 295 274 293
f 296 281 282
f 296 294 281
f 297 272 273
f 297 273 295
f 298 282 283
f 298 296 282
f 299 271 272
f 299 272 297
f 300 298 283
f 284 300 283
f 270 299 301
f 270 271 299
f 302 270 301
f 285 300 284
f 285 303 300
f 269 270 302
f 304 269 302
f 286 303 285
f 286 305 303
f 268 269 304
f 262 305 286
f 262 306 305
f 267 268 304
f 267 304 307
f 261 308 306
f 261 306 262
f 266 307 309
f 266 267 307
f 263 310 308
f 263 308 261
f 265 311 312
f 265 309 311
f 265 266 309
f 264 312 310
f 264 265 312
f 264 310 263
f 17 306 308
f 17 13 306
f 21 308 310
f 21 17 308
f 25 310 312
f 25 21 310
f 29 312 311
f 29 25 312
f 34 311 309
f 34 29 311
f 38 309 307
f 38 34 309
f 39 307 304
f 39 38 307
f 46 304 302
f 46 302 301
f 46 39 304
f 50 46 301
f 51 301 299
f 51 50 301
f 48 299 297
f 48 51 299
f 44 48 297
f 44 297 295
f 41 44 295
f 41 295 293
f 36 293 291
f 36 41 293
f 31 36 291
f 31 291 289
f 27 289 288
f 27 31 289
f 23 288 287
f 23 27 288
f 19 287 290
f 19 290 292
f 19 23 287
f 15 19 292
f 11 292 294
f 11 294 296
f 11 15 292
f 7 11 296
f 4 296 298
f 4 298 300
f 4 7 296
f 1 4 300
f 5 300 303
f 5 1 300
f 9 303 305
f 9 5 303
f 13 305 306
f 13 9 305
