# https://github.com/mikedh/trimesh

o geometry_1
v 1.50892200 -2.18605100 -1.00000000
v 2.47008500 -2.18830500 -1.00000000
v 1.87461400 -2.71584700 -1.00000000
v 1.98823200 -1.76142000 -1.00000000
v 2.35199300 -1.23442100 -1.00000000
v 2.92200500 -1.53358600 -1.00000000
v 0.94191920 -2.48363700 -1.00000000
v 1.17019600 -3.08555400 -1.00000000
v 2.57906400 -0.63568220 -1.00000000
v 3.20410800 -0.78974170 -1.00000000
v 0.32017560 -2.63688300 -1.00000000
v 0.39777100 -3.27593900 -1.00000000
v 2.65625000 0.00000000 -1.00000000
v 3.30000000 0.00000000 -1.00000000
v 3.20410800 0.78974170 -1.00000000
v -0.32017560 -2.63688300 -1.00000000
v -0.39777100 -3.27593900 -1.00000000
v 2.57906400 0.63568220 -1.00000000
v -0.94191920 -2.48363700 -1.00000000
v -1.17019600 -3.08555400 -1.00000000
v 2.35199300 1.23442100 -1.00000000
v 2.92200500 1.53358600 -1.00000000
v -1.50892200 -2.18605100 -1.00000000
v -1.87461400 -2.71584700 -1.00000000
v 1.98823200 1.76142000 -1.00000000
v 2.47008500 2.18830500 -1.00000000
v -1.98823200 -1.76142000 -1.00000000
v -2.47008500 -2.18830500 -1.00000000
v 1.87461400 2.71584700 -1.00000000
v 1.50892200 2.18605100 -1.00000000
v -2.35199300 -1.23442100 -1.00000000
v -2.92200500 -1.53358600 -1.00000000
v 0.94191920 2.48363700 -1.00000000
v 1.17019600 3.08555400 -1.00000000
v -2.57906400 -0.63568220 -1.00000000
v -3.20410800 -0.78974170 -1.00000000
v 0.39777100 3.27593900 -1.00000000
v 0.32017560 2.63688300 -1.00000000
v -3.30000000 0.00000000 -1.00000000
v -2.65625000 0.00000000 -1.00000000
v -0.39777100 3.27593900 -1.00000000
v -0.32017560 2.63688300 -1.00000000
v -0.94191920 2.48363700 -1.00000000
v -3.20410800 0.78974170 -1.00000000
v -2.57906400 0.63568220 -1.00000000
v -1.17019600 3.08555400 -1.00000000
v -1.50892200 2.18605100 -1.00000000
v -2.92200500 1.53358600 -1.00000000
v -1.98823200 1.76142000 -1.00000000
v -2.35199300 1.23442100 -1.00000000
v -1.87461400 2.71584700 -1.00000000
v -2.47008500 2.18830500 -1.00000000
v 3.20410800 0.78974170 1.00000000
v 3.30000000 0.00000000 1.00000000
v 2.92200500 1.53358600 1.00000000
v 2.47008500 2.18830500 1.00000000
v 1.87461400 2.71584700 1.00000000
v 1.17019600 3.08555400 1.00000000
v 0.39777100 3.27593900 1.00000000
v -0.39777100 3.27593900 1.00000000
v -1.17019600 3.08555400 1.00000000
v -1.87461400 2.71584700 1.00000000
v -2.47008500 2.18830500 1.00000000
v -2.92200500 1.53358600 1.00000000
v -3.20410800 0.78974170 1.00000000
v -3.30000000 0.00000000 1.00000000
v -3.20410800 -0.78974170 1.00000000
v -2.92200500 -1.53358600 1.00000000
v -2.47008500 -2.18830500 1.00000000
v -1.87461400 -2.71584700 1.00000000
v -1.17019600 -3.08555400 1.00000000
v -0.39777100 -3.27593900 1.00000000
v 0.39777100 -3.27593900 1.00000000
v 1.17019600 -3.08555400 1.00000000
v 1.87461400 -2.71584700 1.00000000
v 2.47008500 -2.18830500 1.00000000
v 2.92200500 -1.53358600 1.00000000
v 3.20410800 -0.78974170 1.00000000
v -1.50892200 -2.18605100 1.00000000
v -1.98823200 -1.76142000 1.00000000
v -2.35199300 -1.23442100 1.00000000
v -0.94191920 -2.48363700 1.00000000
v -2.57906400 -0.63568220 1.00000000
v -0.32017560 -2.63688300 1.00000000
v -2.65625000 0.00000000 1.00000000
v 0.32017560 -2.63688300 1.00000000
v -2.57906400 0.63568220 1.00000000
v 0.94191920 -2.48363700 1.00000000
v -2.35199300 1.23442100 1.00000000
v 1.50892200 -2.18605100 1.00000000
v -1.98823200 1.76142000 1.00000000
v 1.98823200 -1.76142000 1.00000000
v -1.50892200 2.18605100 1.00000000
v 2.35199300 -1.23442100 1.00000000
v -0.94191920 2.48363700 1.00000000
v 2.57906400 -0.63568220 1.00000000
v -0.32017560 2.63688300 1.00000000
v 0.32017560 2.63688300 1.00000000
v 2.57906400 0.63568220 1.00000000
v 2.65625000 0.00000000 1.00000000
v 2.35199300 1.23442100 1.00000000
v 0.94191920 2.48363700 1.00000000
v 1.50892200 2.18605100 1.00000000
v 1.98823200 1.76142000 1.00000000
v 2.57906400 0.63568220 0.22469080
v 2.65625000 0.00000000 0.22469080
v 2.35199300 1.23442100 0.22469080
v 1.98823200 1.76142000 0.22469080
v 1.50892200 2.18605100 0.22469080
v 0.94191920 2.48363700 0.22469080
v 0.32017560 2.63688300 0.22469080
v -0.32017560 2.63688300 0.22469080
v -0.94191920 2.48363700 0.22469080
v -1.50892200 2.18605100 0.22469080
v -1.98823200 1.76142000 0.22469080
v -2.35199300 1.23442100 0.22469080
v -2.57906400 0.63568220 0.22469080
v -2.65625000 0.00000000 0.22469080
v -2.57906400 -0.63568220 0.22469080
v -2.35199300 -1.23442100 0.22469080
v -1.98823200 -1.76142000 0.22469080
v -1.50892200 -2.18605100 0.22469080
v -0.94191920 -2.48363700 0.22469080
v -0.32017560 -2.63688300 0.22469080
v 0.32017560 -2.63688300 0.22469080
v 0.94191920 -2.48363700 0.22469080
v 1.50892200 -2.18605100 0.22469080
v 1.98823200 -1.76142000 0.22469080
v 2.35199300 -1.23442100 0.22469080
v 2.57906400 -0.63568220 0.22469080
v 2.62462500 0.64691200 0.17008160
v 2.70317400 0.00000000 0.17008160
v 2.65648700 0.65476520 0.10599430
v 2.73599000 0.00000000 0.10599430
v 2.67287500 0.65880440 0.03600017
v 2.75286800 0.00000000 0.03600017
v 2.67287500 0.65880440 -0.03600017
v 2.75286800 0.00000000 -0.03600017
v 2.65648700 0.65476520 -0.10599430
v 2.73599000 0.00000000 -0.10599430
v 2.62462500 0.64691200 -0.17008160
v 2.57906400 0.63568220 -0.22469080
v 2.65625000 0.00000000 -0.22469080
v 2.70317400 0.00000000 -0.17008160
v 2.39354200 1.25622800 0.17008160
v 2.42259900 1.27147800 0.10599430
v 2.43754400 1.27932200 0.03600017
v 2.43754400 1.27932200 -0.03600017
v 2.42259900 1.27147800 -0.10599430
v 2.39354200 1.25622800 -0.17008160
v 2.35199300 1.23442100 -0.22469080
v 2.02335500 1.79253600 0.17008160
v 2.04791800 1.81429700 0.10599430
v 2.06055100 1.82548900 0.03600017
v 2.06055100 1.82548900 -0.03600017
v 2.04791800 1.81429700 -0.10599430
v 2.02335500 1.79253600 -0.17008160
v 1.98823200 1.76142000 -0.22469080
v 1.53557800 2.22466900 0.17008160
v 1.55421900 2.25167600 0.10599430
v 1.56380700 2.26556600 0.03600017
v 1.56380700 2.26556600 -0.03600017
v 1.55421900 2.25167600 -0.10599430
v 1.53557800 2.22466900 -0.17008160
v 1.50892200 2.18605100 -0.22469080
v 0.95855880 2.52751200 0.17008160
v 0.97019540 2.55819500 0.10599430
v 0.97618040 2.57397600 0.03600017
v 0.97618040 2.57397600 -0.03600017
v 0.97019540 2.55819500 -0.10599430
v 0.95855880 2.52751200 -0.17008160
v 0.94191920 2.48363700 -0.22469080
v 0.32017560 2.63688300 -0.22469080
v 0.32583170 2.68346500 0.17008160
v 0.32978710 2.71604100 0.10599430
v 0.33182160 2.73279600 0.03600017
v 0.33182160 2.73279600 -0.03600017
v 0.32978710 2.71604100 -0.10599430
v 0.32583170 2.68346500 -0.17008160
v -0.32583170 2.68346500 0.17008160
v -0.32978710 2.71604100 0.10599430
v -0.33182160 2.73279600 0.03600017
v -0.33182160 2.73279600 -0.03600017
v -0.32978710 2.71604100 -0.10599430
v -0.32583170 2.68346500 -0.17008160
v -0.32017560 2.63688300 -0.22469080
v -0.95855880 2.52751200 0.17008160
v -0.97019540 2.55819500 0.10599430
v -0.97618040 2.57397600 0.03600017
v -0.97618040 2.57397600 -0.03600017
v -0.97019540 2.55819500 -0.10599430
v -0.95855880 2.52751200 -0.17008160
v -0.94191920 2.48363700 -0.22469080
v -1.53557800 2.22466900 0.17008160
v -1.55421900 2.25167600 0.10599430
v -1.56380700 2.26556600 0.03600017
v -1.56380700 2.26556600 -0.03600017
v -1.55421900 2.25167600 -0.10599430
v -1.53557800 2.22466900 -0.17008160
v -1.50892200 2.18605100 -0.22469080
v -2.02335500 1.79253600 0.17008160
v -2.04791800 1.81429700 0.10599430
v -2.06055100 1.82548900 0.03600017
v -2.06055100 1.82548900 -0.03600017
v -2.04791800 1.81429700 -0.10599430
v -2.02335500 1.79253600 -0.17008160
v -1.98823200 1.76142000 -0.22469080
v -2.39354200 1.25622800 0.17008160
v -2.42259900 1.27147800 0.10599430
v -2.43754400 1.27932200 0.03600017
v -2.43754400 1.27932200 -0.03600017
v -2.42259900 1.27147800 -0.10599430
v -2.39354200 1.25622800 -0.17008160
v -2.35199300 1.23442100 -0.22469080
v -2.62462500 0.64691200 0.17008160
v -2.65648700 0.65476520 0.10599430
v -2.67287500 0.65880440 0.03600017
v -2.67287500 0.65880440 -0.03600017
v -2.65648700 0.65476520 -0.10599430
v -2.62462500 0.64691200 -0.17008160
v -2.57906400 0.63568220 -0.22469080
v -2.70317400 0.00000000 0.17008160
v -2.73599000 0.00000000 0.10599430
v -2.75286800 0.00000000 0.03600017
v -2.75286800 0.00000000 -0.03600017
v -2.73599000 0.00000000 -0.10599430
v -2.70317400 0.00000000 -0.17008160
v -2.65625000 0.00000000 -0.22469080
v -2.62462500 -0.64691200 0.17008160
v -2.65648700 -0.65476520 0.10599430
v -2.67287500 -0.65880440 0.03600017
v -2.67287500 -0.65880440 -0.03600017
v -2.65648700 -0.65476520 -0.10599430
v -2.62462500 -0.64691200 -0.17008160
v -2.57906400 -0.63568220 -0.22469080
v -2.35199300 -1.23442100 -0.22469080
v -2.39354200 -1.25622800 0.17008160
v -2.42259900 -1.27147800 0.10599430
v -2.43754400 -1.27932200 0.03600017
v -2.43754400 -1.27932200 -0.03600017
v -2.42259900 -1.27147800 -0.10599430
v -2.39354200 -1.25622800 -0.17008160
v -2.02335500 -1.79253600 0.17008160
v -2.04791800 -1.81429700 0.10599430
v -2.06055100 -1.82548900 0.03600017
v -2.06055100 -1.82548900 -0.03600017
v -2.04791800 -1.81429700 -0.10599430
v -2.02335500 -1.79253600 -0.17008160
v -1.98823200 -1.76142000 -0.22469080
v -1.53557800 -2.22466900 0.17008160
v -1.55421900 -2.25167600 0.10599430
v -1.56380700 -2.26556600 0.03600017
v -1.56380700 -2.26556600 -0.03600017
v -1.55421900 -2.25167600 -0.10599430
v -1.53557800 -2.22466900 -0.17008160
v -1.50892200 -2.18605100 -0.22469080
v -0.95855880 -2.52751200 0.17008160
v -0.97019540 -2.55819500 0.10599430
v -0.97618040 -2.57397600 0.03600017
v -0.97618040 -2.57397600 -0.03600017
v -0.97019540 -2.55819500 -0.10599430
v -0.95855880 -2.52751200 -0.17008160
v -0.94191920 -2.48363700 -0.22469080
v -0.32017560 -2.63688300 -0.22469080
v -0.32583170 -2.68346500 0.17008160
v -0.32978710 -2.71604100 0.10599430
v -0.33182160 -2.73279600 0.03600017
v -0.33182160 -2.73279600 -0.03600017
v -0.32978710 -2.71604100 -0.10599430
v -0.32583170 -2.68346500 -0.17008160
v 0.32583170 -2.68346500 0.17008160
v 0.32978710 -2.71604100 0.10599430
v 0.33182160 -2.73279600 0.03600017
v 0.33182160 -2.73279600 -0.03600017
v 0.32978710 -2.71604100 -0.10599430
v 0.32583170 -2.68346500 -0.17008160
v 0.32017560 -2.63688300 -0.22469080
v 0.94191920 -2.48363700 -0.22469080
v 0.95855880 -2.52751200 0.17008160
v 0.97019540 -2.55819500 0.10599430
v 0.97618040 -2.57397600 0.03600017
v 0.97618040 -2.57397600 -0.03600017
v 0.97019540 -2.55819500 -0.10599430
v 0.95855880 -2.52751200 -0.17008160
v 1.53557800 -2.22466900 0.17008160
v 1.55421900 -2.25167600 0.10599430
v 1.56380700 -2.26556600 0.03600017
v 1.56380700 -2.26556600 -0.03600017
v 1.55421900 -2.25167600 -0.10599430
v 1.53557800 -2.22466900 -0.17008160
v 1.50892200 -2.18605100 -0.22469080
v 2.02335500 -1.79253600 0.17008160
v 2.04791800 -1.81429700 0.10599430
v 2.06055100 -1.82548900 0.03600017
v 2.06055100 -1.82548900 -0.03600017
v 2.04791800 -1.81429700 -0.10599430
v 2.02335500 -1.79253600 -0.17008160
v 1.98823200 -1.76142000 -0.22469080
v 2.35199300 -1.23442100 -0.22469080
v 2.39354200 -1.25622800 0.17008160
v 2.42259900 -1.27147800 0.10599430
v 2.43754400 -1.27932200 0.03600017
v 2.43754400 -1.27932200 -0.03600017
v 2.42259900 -1.27147800 -0.10599430
v 2.39354200 -1.25622800 -0.17008160
v 2.62462500 -0.64691200 0.17008160
v 2.65648700 -0.65476520 0.10599430
v 2.67287500 -0.65880440 0.03600017
v 2.67287500 -0.65880440 -0.03600017
v 2.65648700 -0.65476520 -0.10599430
v 2.62462500 -0.64691200 -0.17008160
v 2.57906400 -0.63568220 -0.22469080
f 1 2 3
f 1 4 2
f 5 6 2
f 5 2 4
f 7 3 8
f 7 1 3
f 9 10 6
f 9 6 5
f 11 8 12
f 11 7 8
f 13 14 10
f 13 10 9
f 15 14 13
f 16 12 17
f 16 11 12
f 18 15 13
f 19 17 20
f 19 16 17
f 21 22 15
f 21 15 18
f 23 20 24
f 23 19 20
f 25 26 22
f 25 22 21
f 27 23 24
f 28 27 24
f 29 26 25
f 29 25 30
f 31 27 28
f 32 31 28
f 33 29 30
f 34 29 33
f 35 31 32
f 36 35 32
f 37 34 33
f 37 33 38
f 39 35 36
f 39 40 35
f 41 37 38
f 41 38 42
f 41 42 43
f 44 45 40
f 44 40 39
f 46 43 47
f 46 41 43
f 48 49 50
f 48 50 45
f 48 45 44
f 51 46 47
f 52 47 49
f 52 49 48
f 52 51 47
f 53 14 15
f 53 54 14
f 55 15 22
f 55 53 15
f 56 22 26
f 56 55 22
f 57 26 29
f 57 56 26
f 58 29 34
f 58 57 29
f 59 34 37
f 59 58 34
f 60 37 41
f 60 59 37
f 61 41 46
f 61 60 41
f 62 46 51
f 62 51 52
f 62 61 46
f 63 62 52
f 64 63 52
f 64 52 48
f 64 48 44
f 65 64 44
f 66 65 44
f 66 44 39
f 67 66 39
f 67 39 36
f 68 36 32
f 68 67 36
f 69 32 28
f 69 68 32
f 70 28 24
f 70 24 20
f 70 69 28
f 71 70 20
f 72 20 17
f 72 71 20
f 73 17 12
f 73 72 17
f 74 12 8
f 74 73 12
f 75 8 3
f 75 74 8
f 76 3 2
f 76 2 6
f 76 75 3
f 77 76 6
f 78 6 10
f 78 10 14
f 78 77 6
f 54 78 14
f 79 69 70
f 79 80 69
f 81 68 69
f 81 69 80
f 82 70 71
f 82 79 70
f 83 67 68
f 83 68 81
f 84 71 72
f 84 82 71
f 85 66 67
f 85 67 83
f 86 72 73
f 86 84 72
f 87 65 66
f 87 66 85
f 88 73 74
f 88 86 73
f 89 64 65
f 89 65 87
f 90 74 75
f 90 88 74
f 91 63 64
f 91 64 89
f 92 90 75
f 76 92 75
f 62 63 91
f 62 91 93
f 94 92 76
f 77 94 76
f 61 62 93
f 61 93 95
f 96 94 77
f 78 96 77
f 60 61 95
f 60 95 97
f 98 60 97
f 54 96 78
f 54 99 100
f 54 100 96
f 59 60 98
f 53 101 99
f 53 99 54
f 58 102 103
f 58 98 102
f 58 59 98
f 55 101 53
f 57 103 104
f 57 58 103
f 56 104 101
f 56 57 104
f 56 101 55
f 105 100 99
f 105 106 100
f 107 99 101
f 107 105 99
f 108 101 104
f 108 107 101
f 109 104 103
f 109 108 104
f 110 103 102
f 110 109 103
f 111 102 98
f 111 110 102
f 112 98 97
f 112 111 98
f 113 97 95
f 113 95 93
f 113 112 97
f 114 113 93
f 115 93 91
f 115 114 93
f 116 91 89
f 116 115 91
f 117 116 89
f 117 89 87
f 118 117 87
f 118 87 85
f 119 85 83
f 119 118 85
f 120 119 83
f 120 83 81
f 121 81 80
f 121 120 81
f 122 80 79
f 122 79 82
f 122 121 80
f 123 122 82
f 124 82 84
f 124 123 82
f 125 84 86
f 125 86 88
f 125 124 84
f 126 88 90
f 126 125 88
f 127 90 92
f 127 126 90
f 128 127 92
f 129 92 94
f 129 128 92
f 130 94 96
f 130 129 94
f 106 96 100
f 106 130 96
f 131 106 105
f 131 132 106
f 133 132 131
f 133 134 132
f 135 134 133
f 135 136 134
f 137 138 136
f 137 136 135
f 139 140 138
f 139 138 137
f 141 140 139
f 141 142 143
f 141 144 140
f 141 143 144
f 145 105 107
f 145 131 105
f 146 133 131
f 146 131 145
f 147 135 133
f 147 133 146
f 148 135 147
f 148 137 135
f 149 139 137
f 149 137 148
f 150 139 149
f 150 141 139
f 150 151 142
f 150 142 141
f 152 107 108
f 152 145 107
f 153 146 145
f 153 145 152
f 154 146 153
f 154 147 146
f 155 148 147
f 155 147 154
f 156 149 148
f 156 148 155
f 157 149 156
f 157 158 151
f 157 150 149
f 157 151 150
f 159 108 109
f 159 152 108
f 160 153 152
f 160 152 159
f 161 153 160
f 161 154 153
f 161 155 154
f 162 155 161
f 163 156 155
f 163 155 162
f 164 156 163
f 164 165 158
f 164 157 156
f 164 158 157
f 166 109 110
f 166 159 109
f 167 159 166
f 167 160 159
f 168 160 167
f 168 161 160
f 169 162 161
f 169 161 168
f 170 162 169
f 170 164 163
f 170 163 162
f 171 164 170
f 171 172 165
f 171 173 172
f 171 165 164
f 174 110 111
f 174 166 110
f 175 166 174
f 175 167 166
f 176 168 167
f 176 167 175
f 176 169 168
f 177 169 176
f 178 170 169
f 178 169 177
f 179 171 170
f 179 170 178
f 179 173 171
f 180 111 112
f 180 174 111
f 181 174 180
f 181 176 175
f 181 175 174
f 182 176 181
f 183 177 176
f 183 176 182
f 184 178 177
f 184 177 183
f 185 179 178
f 185 173 179
f 185 186 173
f 185 178 184
f 187 112 113
f 187 180 112
f 188 180 187
f 188 181 180
f 189 181 188
f 189 182 181
f 190 182 189
f 190 183 182
f 191 184 183
f 191 185 184
f 191 183 190
f 192 193 186
f 192 186 185
f 192 185 191
f 194 113 114
f 194 187 113
f 195 187 194
f 195 188 187
f 195 189 188
f 196 189 195
f 197 190 189
f 197 191 190
f 197 189 196
f 198 191 197
f 199 200 193
f 199 193 192
f 199 192 191
f 199 191 198
f 201 114 115
f 201 115 116
f 201 194 114
f 202 195 194
f 202 194 201
f 203 196 195
f 203 195 202
f 204 197 196
f 204 196 203
f 205 197 204
f 205 198 197
f 206 198 205
f 206 207 200
f 206 200 199
f 206 199 198
f 208 201 116
f 208 202 201
f 209 202 208
f 210 204 203
f 210 202 209
f 210 203 202
f 211 204 210
f 212 204 211
f 212 205 204
f 213 206 205
f 213 207 206
f 213 205 212
f 213 214 207
f 215 116 117
f 215 208 116
f 216 208 215
f 216 209 208
f 217 210 209
f 217 211 210
f 217 209 216
f 218 211 217
f 219 212 211
f 219 211 218
f 220 213 212
f 220 214 213
f 220 212 219
f 220 221 214
f 222 117 118
f 222 215 117
f 223 216 215
f 223 215 222
f 224 216 223
f 224 217 216
f 225 218 217
f 225 217 224
f 226 219 218
f 226 218 225
f 227 220 219
f 227 221 220
f 227 228 221
f 227 219 226
f 229 118 119
f 229 222 118
f 229 223 222
f 230 223 229
f 230 224 223
f 231 224 230
f 232 225 224
f 232 224 231
f 233 226 225
f 233 225 232
f 234 235 228
f 234 236 235
f 234 226 233
f 234 228 227
f 234 227 226
f 237 119 120
f 237 229 119
f 237 230 229
f 238 230 237
f 239 231 230
f 239 230 238
f 240 231 239
f 240 232 231
f 241 233 232
f 241 234 233
f 241 232 240
f 242 236 234
f 242 234 241
f 243 120 121
f 243 237 120
f 244 237 243
f 244 238 237
f 245 238 244
f 245 239 238
f 246 239 245
f 246 240 239
f 247 240 246
f 247 241 240
f 248 241 247
f 248 249 236
f 248 236 242
f 248 242 241
f 250 121 122
f 250 122 123
f 250 243 121
f 251 243 250
f 251 244 243
f 252 244 251
f 252 245 244
f 253 246 245
f 253 245 252
f 254 247 246
f 254 246 253
f 255 247 254
f 255 248 247
f 255 249 248
f 255 256 249
f 257 123 124
f 257 250 123
f 258 251 250
f 258 250 257
f 259 252 251
f 259 253 252
f 259 251 258
f 260 253 259
f 261 254 253
f 261 253 260
f 262 255 254
f 262 256 255
f 262 254 261
f 262 263 256
f 262 264 263
f 265 257 124
f 265 258 257
f 266 258 265
f 267 258 266
f 267 259 258
f 268 260 259
f 268 259 267
f 269 261 260
f 269 262 261
f 269 260 268
f 270 262 269
f 270 264 262
f 271 124 125
f 271 265 124
f 272 265 271
f 272 267 266
f 272 266 265
f 273 267 272
f 274 267 273
f 274 268 267
f 275 269 268
f 275 268 274
f 276 277 264
f 276 278 277
f 276 269 275
f 276 270 269
f 276 264 270
f 279 125 126
f 279 126 127
f 279 271 125
f 280 272 271
f 280 271 279
f 281 272 280
f 281 273 272
f 282 274 273
f 282 273 281
f 283 274 282
f 283 275 274
f 283 276 275
f 284 278 276
f 284 276 283
f 285 279 127
f 285 280 279
f 286 280 285
f 287 280 286
f 287 281 280
f 287 282 281
f 288 282 287
f 289 282 288
f 289 283 282
f 290 278 284
f 290 284 283
f 290 283 289
f 290 291 278
f 292 127 128
f 292 128 129
f 292 285 127
f 293 286 285
f 293 285 292
f 294 287 286
f 294 286 293
f 294 288 287
f 295 288 294
f 296 289 288
f 296 288 295
f 297 290 289
f 297 291 290
f 297 289 296
f 297 298 291
f 297 299 298
f 300 292 129
f 301 293 292
f 301 292 300
f 302 294 293
f 302 293 301
f 303 295 294
f 303 294 302
f 303 296 295
f 304 297 296
f 304 296 303
f 305 299 297
f 305 297 304
f 306 129 130
f 306 130 106
f 306 300 129
f 306 106 132
f 306 132 134
f 306 301 300
f 307 134 136
f 307 302 301
f 307 301 306
f 307 306 134
f 308 302 307
f 308 307 136
f 309 136 138
f 309 138 140
f 309 303 302
f 309 304 303
f 309 302 308
f 309 308 136
f 310 140 144
f 310 304 309
f 310 309 140
f 311 144 143
f 311 299 305
f 311 305 304
f 311 312 299
f 311 143 312
f 311 304 310
f 311 310 144
f 18 143 142
f 18 13 143
f 21 142 151
f 21 18 142
f 25 151 158
f 25 21 151
f 30 158 165
f 30 25 158
f 33 165 172
f 33 30 165
f 38 172 173
f 38 33 172
f 42 173 186
f 42 186 193
f 42 38 173
f 43 42 193
f 47 193 200
f 47 43 193
f 49 200 207
f 49 47 200
f 50 207 214
f 50 49 207
f 45 50 214
f 45 214 221
f 40 45 221
f 40 221 228
f 35 228 235
f 35 40 228
f 31 35 235
f 31 235 236
f 27 236 249
f 27 31 236
f 23 249 256
f 23 27 249
f 19 256 263
f 19 23 256
f 16 263 264
f 16 19 263
f 11 264 277
f 11 16 264
f 7 277 278
f 7 11 277
f 1 278 291
f 1 291 298
f 1 7 278
f 4 1 298
f 5 298 299
f 5 4 298
f 9 299 312
f 9 5 299
f 13 312 143
f 13 9 312
