# SimpleCAD BREP tessellation for MuJoCo
v 11.5 -2.81668763804e-15 -13
v 11.3252891596 1.99695404317 -13
v 10.806465139 3.93323164825 -13
v 9.95929214352 5.75 -13
v 8.80951109587 7.3920575114 -13
v 7.3920575114 8.80951109587 -13
v 5.75 9.95929214352 -13
v 3.93323164825 10.806465139 -13
v 1.99695404317 11.3252891596 -13
v -6.9563669604e-15 11.5 -13
v -1.99695404317 11.3252891596 -13
v -3.93323164825 10.806465139 -13
v -5.75 9.95929214352 -13
v -7.3920575114 8.80951109587 -13
v -8.80951109587 7.3920575114 -13
v -9.95929214352 5.75 -13
v -10.806465139 3.93323164825 -13
v -11.3252891596 1.99695404317 -13
v -11.5 -2.41267857474e-14 -13
v -11.3252891596 -1.99695404317 -13
v -10.806465139 -3.93323164825 -13
v -9.95929214352 -5.75 -13
v -8.80951109587 -7.3920575114 -13
v -7.3920575114 -8.80951109587 -13
v -5.75 -9.95929214352 -13
v -3.93323164825 -10.806465139 -13
v -1.99695404317 -11.3252891596 -13
v 2.85296397511e-14 -11.5 -13
v 1.99695404317 -11.3252891596 -13
v 3.93323164825 -10.806465139 -13
v 5.75 -9.95929214352 -13
v 7.3920575114 -8.80951109587 -13
v 8.80951109587 -7.3920575114 -13
v 9.95929214352 -5.75 -13
v 10.806465139 -3.93323164825 -13
v 11.3252891596 -1.99695404317 -13
v 11.5 -2.81668763804e-15 -15
v 11.3252891596 1.99695404317 -15
v 10.806465139 3.93323164825 -15
v 9.95929214352 5.75 -15
v 8.80951109587 7.3920575114 -15
v 7.3920575114 8.80951109587 -15
v 5.75 9.95929214352 -15
v 3.93323164825 10.806465139 -15
v 1.99695404317 11.3252891596 -15
v -6.9563669604e-15 11.5 -15
v -1.99695404317 11.3252891596 -15
v -3.93323164825 10.806465139 -15
v -5.75 9.95929214352 -15
v -7.3920575114 8.80951109587 -15
v -8.80951109587 7.3920575114 -15
v -9.95929214352 5.75 -15
v -10.806465139 3.93323164825 -15
v -11.3252891596 1.99695404317 -15
v -11.5 -2.41267857474e-14 -15
v -11.3252891596 -1.99695404317 -15
v -10.806465139 -3.93323164825 -15
v -9.95929214352 -5.75 -15
v -8.80951109587 -7.3920575114 -15
v -7.3920575114 -8.80951109587 -15
v -5.75 -9.95929214352 -15
v -3.93323164825 -10.806465139 -15
v -1.99695404317 -11.3252891596 -15
v 2.85296397511e-14 -11.5 -15
v 1.99695404317 -11.3252891596 -15
v 3.93323164825 -10.806465139 -15
v 5.75 -9.95929214352 -15
v 7.3920575114 -8.80951109587 -15
v 8.80951109587 -7.3920575114 -15
v 9.95929214352 -5.75 -15
v 10.806465139 -3.93323164825 -15
v 11.3252891596 -1.99695404317 -15
v -2.75 -7.36121593217 -13
v -2.77278837048 -7.10074366567 -13
v -2.84046106882 -6.84818571718 -13
v -2.95096189432 -6.61121593217 -13
v -3.10093333532 -6.39703451764 -13
v -3.28581858547 -6.21214926749 -13
v -3.5 -6.06217782649 -13
v -3.73696978501 -5.95167700099 -13
v -3.9895277335 -5.88400430265 -13
v -4.25 -5.86121593217 -13
v -4.5104722665 -5.88400430265 -13
v -4.76303021499 -5.95167700099 -13
v -5 -6.06217782649 -13
v -5.21418141453 -6.21214926749 -13
v -5.39906666468 -6.39703451764 -13
v -5.54903810568 -6.61121593217 -13
v -5.65953893118 -6.84818571718 -13
v -5.72721162952 -7.10074366567 -13
v -5.75 -7.36121593217 -13
v -5.72721162952 -7.62168819867 -13
v -5.65953893118 -7.87424614716 -13
v -5.54903810568 -8.11121593217 -13
v -5.39906666468 -8.3253973467 -13
v -5.21418141453 -8.51028259685 -13
v -5 -8.66025403784 -13
v -4.76303021499 -8.77075486335 -13
v -4.5104722665 -8.83842756169 -13
v -4.25 -8.86121593217 -13
v -3.9895277335 -8.83842756169 -13
v -3.73696978501 -8.77075486335 -13
v -3.5 -8.66025403784 -13
v -3.28581858547 -8.51028259685 -13
v -3.10093333532 -8.3253973467 -13
v -2.95096189432 -8.11121593217 -13
v -2.84046106882 -7.87424614716 -13
v -2.77278837048 -7.62168819867 -13
v 5.75 -7.36121593217 -13
v 5.72721162952 -7.10074366567 -13
v 5.65953893118 -6.84818571718 -13
v 5.54903810568 -6.61121593217 -13
v 5.39906666468 -6.39703451764 -13
v 5.21418141453 -6.21214926749 -13
v 5 -6.06217782649 -13
v 4.76303021499 -5.95167700099 -13
v 4.5104722665 -5.88400430265 -13
v 4.25 -5.86121593217 -13
v 3.9895277335 -5.88400430265 -13
v 3.73696978501 -5.95167700099 -13
v 3.5 -6.06217782649 -13
v 3.28581858547 -6.21214926749 -13
v 3.10093333532 -6.39703451764 -13
v 2.95096189432 -6.61121593217 -13
v 2.84046106882 -6.84818571718 -13
v 2.77278837048 -7.10074366567 -13
v 2.75 -7.36121593217 -13
v 2.77278837048 -7.62168819867 -13
v 2.84046106882 -7.87424614716 -13
v 2.95096189432 -8.11121593217 -13
v 3.10093333532 -8.3253973467 -13
v 3.28581858547 -8.51028259685 -13
v 3.5 -8.66025403784 -13
v 3.73696978501 -8.77075486335 -13
v 3.9895277335 -8.83842756169 -13
v 4.25 -8.86121593217 -13
v 4.5104722665 -8.83842756169 -13
v 4.76303021499 -8.77075486335 -13
v 5 -8.66025403784 -13
v 5.21418141453 -8.51028259685 -13
v 5.39906666468 -8.3253973467 -13
v 5.54903810568 -8.11121593217 -13
v 5.65953893118 -7.87424614716 -13
v 5.72721162952 -7.62168819867 -13
v -7 6.73555739531e-16 -13
v -7.02278837048 0.2604722665 -13
v -7.09046106882 0.513030214989 -13
v -7.20096189432 0.75 -13
v -7.35093333532 0.96418141453 -13
v -7.53581858547 1.14906666468 -13
v -7.75 1.29903810568 -13
v -7.98696978501 1.40953893118 -13
v -8.2395277335 1.47721162952 -13
v -8.5 1.5 -13
v -8.7604722665 1.47721162952 -13
v -9.01303021499 1.40953893118 -13
v -9.25 1.29903810568 -13
v -9.46418141453 1.14906666468 -13
v -9.64906666468 0.96418141453 -13
v -9.79903810568 0.75 -13
v -9.90953893118 0.513030214989 -13
v -9.97721162952 0.2604722665 -13
v -10 -2.10602227473e-15 -13
v -9.97721162952 -0.2604722665 -13
v -9.90953893118 -0.513030214989 -13
v -9.79903810568 -0.75 -13
v -9.64906666468 -0.96418141453 -13
v -9.46418141453 -1.14906666468 -13
v -9.25 -1.29903810568 -13
v -9.01303021499 -1.40953893118 -13
v -8.7604722665 -1.47721162952 -13
v -8.5 -1.5 -13
v -8.2395277335 -1.47721162952 -13
v -7.98696978501 -1.40953893118 -13
v -7.75 -1.29903810568 -13
v -7.53581858547 -1.14906666468 -13
v -7.35093333532 -0.96418141453 -13
v -7.20096189432 -0.75 -13
v -7.09046106882 -0.513030214989 -13
v -7.02278837048 -0.2604722665 -13
v -2.75 7.36121593217 -13
v -2.77278837048 7.62168819867 -13
v -2.84046106882 7.87424614716 -13
v -2.95096189432 8.11121593217 -13
v -3.10093333532 8.3253973467 -13
v -3.28581858547 8.51028259685 -13
v -3.5 8.66025403784 -13
v -3.73696978501 8.77075486335 -13
v -3.9895277335 8.83842756169 -13
v -4.25 8.86121593217 -13
v -4.5104722665 8.83842756169 -13
v -4.76303021499 8.77075486335 -13
v -5 8.66025403784 -13
v -5.21418141453 8.51028259685 -13
v -5.39906666468 8.3253973467 -13
v -5.54903810568 8.11121593217 -13
v -5.65953893118 7.87424614716 -13
v -5.72721162952 7.62168819867 -13
v -5.75 7.36121593217 -13
v -5.72721162952 7.10074366567 -13
v -5.65953893118 6.84818571718 -13
v -5.54903810568 6.61121593217 -13
v -5.39906666468 6.39703451764 -13
v -5.21418141453 6.21214926749 -13
v -5 6.06217782649 -13
v -4.76303021499 5.95167700099 -13
v -4.5104722665 5.88400430265 -13
v -4.25 5.86121593217 -13
v -3.9895277335 5.88400430265 -13
v -3.73696978501 5.95167700099 -13
v -3.5 6.06217782649 -13
v -3.28581858547 6.21214926749 -13
v -3.10093333532 6.39703451764 -13
v -2.95096189432 6.61121593217 -13
v -2.84046106882 6.84818571718 -13
v -2.77278837048 7.10074366567 -13
v 4 -9.79717439318e-16 -13
v 3.93923101205 0.694592710668 -13
v 3.75877048314 1.3680805733 -13
v 3.46410161514 2 -13
v 3.06417777248 2.57115043875 -13
v 2.57115043875 3.06417777248 -13
v 2 3.46410161514 -13
v 1.3680805733 3.75877048314 -13
v 0.694592710668 3.93923101205 -13
v -2.41960589927e-15 4 -13
v -0.694592710668 3.93923101205 -13
v -1.3680805733 3.75877048314 -13
v -2 3.46410161514 -13
v -2.57115043875 3.06417777248 -13
v -3.06417777248 2.57115043875 -13
v -3.46410161514 2 -13
v -3.75877048314 1.3680805733 -13
v -3.93923101205 0.694592710668 -13
v -4 -8.39192547734e-15 -13
v -3.93923101205 -0.694592710668 -13
v -3.75877048314 -1.3680805733 -13
v -3.46410161514 -2 -13
v -3.06417777248 -2.57115043875 -13
v -2.57115043875 -3.06417777248 -13
v -2 -3.46410161514 -13
v -1.3680805733 -3.75877048314 -13
v -0.694592710668 -3.93923101205 -13
v 9.92335295691e-15 -4 -13
v 0.694592710668 -3.93923101205 -13
v 1.3680805733 -3.75877048314 -13
v 2 -3.46410161514 -13
v 2.57115043875 -3.06417777248 -13
v 3.06417777248 -2.57115043875 -13
v 3.46410161514 -2 -13
v 3.75877048314 -1.3680805733 -13
v 3.93923101205 -0.694592710668 -13
v 10 -3.67394039744e-16 -13
v 9.97721162952 0.2604722665 -13
v 9.90953893118 0.513030214989 -13
v 9.79903810568 0.75 -13
v 9.64906666468 0.96418141453 -13
v 9.46418141453 1.14906666468 -13
v 9.25 1.29903810568 -13
v 9.01303021499 1.40953893118 -13
v 8.7604722665 1.47721162952 -13
v 8.5 1.5 -13
v 8.2395277335 1.47721162952 -13
v 7.98696978501 1.40953893118 -13
v 7.75 1.29903810568 -13
v 7.53581858547 1.14906666468 -13
v 7.35093333532 0.96418141453 -13
v 7.20096189432 0.75 -13
v 7.09046106882 0.513030214989 -13
v 7.02278837048 0.2604722665 -13
v 7 -3.146972054e-15 -13
v 7.02278837048 -0.2604722665 -13
v 7.09046106882 -0.513030214989 -13
v 7.20096189432 -0.75 -13
v 7.35093333532 -0.96418141453 -13
v 7.53581858547 -1.14906666468 -13
v 7.75 -1.29903810568 -13
v 7.98696978501 -1.40953893118 -13
v 8.2395277335 -1.47721162952 -13
v 8.5 -1.5 -13
v 8.7604722665 -1.47721162952 -13
v 9.01303021499 -1.40953893118 -13
v 9.25 -1.29903810568 -13
v 9.46418141453 -1.14906666468 -13
v 9.64906666468 -0.96418141453 -13
v 9.79903810568 -0.75 -13
v 9.90953893118 -0.513030214989 -13
v 9.97721162952 -0.2604722665 -13
v 5.75 7.36121593217 -13
v 5.72721162952 7.62168819867 -13
v 5.65953893118 7.87424614716 -13
v 5.54903810568 8.11121593217 -13
v 5.39906666468 8.3253973467 -13
v 5.21418141453 8.51028259685 -13
v 5 8.66025403784 -13
v 4.76303021499 8.77075486335 -13
v 4.5104722665 8.83842756169 -13
v 4.25 8.86121593217 -13
v 3.9895277335 8.83842756169 -13
v 3.73696978501 8.77075486335 -13
v 3.5 8.66025403784 -13
v 3.28581858547 8.51028259685 -13
v 3.10093333532 8.3253973467 -13
v 2.95096189432 8.11121593217 -13
v 2.84046106882 7.87424614716 -13
v 2.77278837048 7.62168819867 -13
v 2.75 7.36121593217 -13
v 2.77278837048 7.10074366567 -13
v 2.84046106882 6.84818571718 -13
v 2.95096189432 6.61121593217 -13
v 3.10093333532 6.39703451764 -13
v 3.28581858547 6.21214926749 -13
v 3.5 6.06217782649 -13
v 3.73696978501 5.95167700099 -13
v 3.9895277335 5.88400430265 -13
v 4.25 5.86121593217 -13
v 4.5104722665 5.88400430265 -13
v 4.76303021499 5.95167700099 -13
v 5 6.06217782649 -13
v 5.21418141453 6.21214926749 -13
v 5.39906666468 6.39703451764 -13
v 5.54903810568 6.61121593217 -13
v 5.65953893118 6.84818571718 -13
v 5.72721162952 7.10074366567 -13
v -3.45 -7.36121593217 -15
v -3.46215379759 -7.22229739003 -15
v -3.49824590337 -7.08759981751 -15
v -3.55717967697 -6.96121593217 -15
v -3.6371644455 -6.84698584442 -15
v -3.73576991225 -6.74838037767 -15
v -3.85 -6.66839560914 -15
v -3.97638388534 -6.60946183554 -15
v -4.11108145787 -6.57336972976 -15
v -4.25 -6.56121593217 -15
v -4.38891854213 -6.57336972976 -15
v -4.52361611466 -6.60946183554 -15
v -4.65 -6.66839560914 -15
v -4.76423008775 -6.74838037767 -15
v -4.8628355545 -6.84698584442 -15
v -4.94282032303 -6.96121593217 -15
v -5.00175409663 -7.08759981751 -15
v -5.03784620241 -7.22229739003 -15
v -5.05 -7.36121593217 -15
v -5.03784620241 -7.5001344743 -15
v -5.00175409663 -7.63483204683 -15
v -4.94282032303 -7.76121593217 -15
v -4.8628355545 -7.87544601992 -15
v -4.76423008775 -7.97405148666 -15
v -4.65 -8.0540362552 -15
v -4.52361611466 -8.1129700288 -15
v -4.38891854213 -8.14906213458 -15
v -4.25 -8.16121593217 -15
v -4.11108145787 -8.14906213458 -15
v -3.97638388534 -8.1129700288 -15
v -3.85 -8.0540362552 -15
v -3.73576991225 -7.97405148666 -15
v -3.6371644455 -7.87544601992 -15
v -3.55717967697 -7.76121593217 -15
v -3.49824590337 -7.63483204683 -15
v -3.46215379759 -7.5001344743 -15
v 5.05 -7.36121593217 -15
v 5.03784620241 -7.22229739003 -15
v 5.00175409663 -7.08759981751 -15
v 4.94282032303 -6.96121593217 -15
v 4.8628355545 -6.84698584442 -15
v 4.76423008775 -6.74838037767 -15
v 4.65 -6.66839560914 -15
v 4.52361611466 -6.60946183554 -15
v 4.38891854213 -6.57336972976 -15
v 4.25 -6.56121593217 -15
v 4.11108145787 -6.57336972976 -15
v 3.97638388534 -6.60946183554 -15
v 3.85 -6.66839560914 -15
v 3.73576991225 -6.74838037767 -15
v 3.6371644455 -6.84698584442 -15
v 3.55717967697 -6.96121593217 -15
v 3.49824590337 -7.08759981751 -15
v 3.46215379759 -7.22229739003 -15
v 3.45 -7.36121593217 -15
v 3.46215379759 -7.5001344743 -15
v 3.49824590337 -7.63483204683 -15
v 3.55717967697 -7.76121593217 -15
v 3.6371644455 -7.87544601992 -15
v 3.73576991225 -7.97405148666 -15
v 3.85 -8.0540362552 -15
v 3.97638388534 -8.1129700288 -15
v 4.11108145787 -8.14906213458 -15
v 4.25 -8.16121593217 -15
v 4.38891854213 -8.14906213458 -15
v 4.52361611466 -8.1129700288 -15
v 4.65 -8.0540362552 -15
v 4.76423008775 -7.97405148666 -15
v 4.8628355545 -7.87544601992 -15
v 4.94282032303 -7.76121593217 -15
v 5.00175409663 -7.63483204683 -15
v 5.03784620241 -7.5001344743 -15
v -7.7 8.45006291412e-16 -15
v -7.71215379759 0.138918542134 -15
v -7.74824590337 0.273616114661 -15
v -7.80717967697 0.4 -15
v -7.8871644455 0.514230087749 -15
v -7.98576991225 0.612835554495 -15
v -8.1 0.692820323028 -15
v -8.22638388534 0.751754096629 -15
v -8.36108145787 0.78784620241 -15
v -8.5 0.8 -15
v -8.63891854213 0.78784620241 -15
v -8.77361611466 0.751754096629 -15
v -8.9 0.692820323028 -15
v -9.01423008775 0.612835554495 -15
v -9.1128355545 0.514230087749 -15
v -9.19282032303 0.4 -15
v -9.25175409663 0.273616114661 -15
v -9.28784620241 0.138918542134 -15
v -9.3 -6.37435316193e-16 -15
v -9.28784620241 -0.138918542134 -15
v -9.25175409663 -0.273616114661 -15
v -9.19282032303 -0.4 -15
v -9.1128355545 -0.514230087749 -15
v -9.01423008775 -0.612835554495 -15
v -8.9 -0.692820323028 -15
v -8.77361611466 -0.751754096629 -15
v -8.63891854213 -0.78784620241 -15
v -8.5 -0.8 -15
v -8.36108145787 -0.78784620241 -15
v -8.22638388534 -0.751754096629 -15
v -8.1 -0.692820323028 -15
v -7.98576991225 -0.612835554495 -15
v -7.8871644455 -0.514230087749 -15
v -7.80717967697 -0.4 -15
v -7.74824590337 -0.273616114661 -15
v -7.71215379759 -0.138918542134 -15
v -3.45 7.36121593217 -15
v -3.46215379759 7.5001344743 -15
v -3.49824590337 7.63483204683 -15
v -3.55717967697 7.76121593217 -15
v -3.6371644455 7.87544601992 -15
v -3.73576991225 7.97405148666 -15
v -3.85 8.0540362552 -15
v -3.97638388534 8.1129700288 -15
v -4.11108145787 8.14906213458 -15
v -4.25 8.16121593217 -15
v -4.38891854213 8.14906213458 -15
v -4.52361611466 8.1129700288 -15
v -4.65 8.0540362552 -15
v -4.76423008775 7.97405148666 -15
v -4.8628355545 7.87544601992 -15
v -4.94282032303 7.76121593217 -15
v -5.00175409663 7.63483204683 -15
v -5.03784620241 7.5001344743 -15
v -5.05 7.36121593217 -15
v -5.03784620241 7.22229739003 -15
v -5.00175409663 7.08759981751 -15
v -4.94282032303 6.96121593217 -15
v -4.8628355545 6.84698584442 -15
v -4.76423008775 6.74838037767 -15
v -4.65 6.66839560914 -15
v -4.52361611466 6.60946183554 -15
v -4.38891854213 6.57336972976 -15
v -4.25 6.56121593217 -15
v -4.11108145787 6.57336972976 -15
v -3.97638388534 6.60946183554 -15
v -3.85 6.66839560914 -15
v -3.73576991225 6.74838037767 -15
v -3.6371644455 6.84698584442 -15
v -3.55717967697 6.96121593217 -15
v -3.49824590337 7.08759981751 -15
v -3.46215379759 7.22229739003 -15
v 1.5 -3.67394039744e-16 -15
v 1.47721162952 0.2604722665 -15
v 1.40953893118 0.513030214989 -15
v 1.29903810568 0.75 -15
v 1.14906666468 0.96418141453 -15
v 0.96418141453 1.14906666468 -15
v 0.75 1.29903810568 -15
v 0.513030214989 1.40953893118 -15
v 0.2604722665 1.47721162952 -15
v -9.07352212227e-16 1.5 -15
v -0.2604722665 1.47721162952 -15
v -0.513030214989 1.40953893118 -15
v -0.75 1.29903810568 -15
v -0.96418141453 1.14906666468 -15
v -1.14906666468 0.96418141453 -15
v -1.29903810568 0.75 -15
v -1.40953893118 0.513030214989 -15
v -1.47721162952 0.2604722665 -15
v -1.5 -3.146972054e-15 -15
v -1.47721162952 -0.2604722665 -15
v -1.40953893118 -0.513030214989 -15
v -1.29903810568 -0.75 -15
v -1.14906666468 -0.96418141453 -15
v -0.96418141453 -1.14906666468 -15
v -0.75 -1.29903810568 -15
v -0.513030214988 -1.40953893118 -15
v -0.2604722665 -1.47721162952 -15
v 3.72125735884e-15 -1.5 -15
v 0.2604722665 -1.47721162952 -15
v 0.513030214989 -1.40953893118 -15
v 0.75 -1.29903810568 -15
v 0.96418141453 -1.14906666468 -15
v 1.14906666468 -0.96418141453 -15
v 1.29903810568 -0.75 -15
v 1.40953893118 -0.513030214989 -15
v 1.47721162952 -0.2604722665 -15
v 9.3 -1.95943487864e-16 -15
v 9.28784620241 0.138918542134 -15
v 9.25175409663 0.273616114661 -15
v 9.19282032303 0.4 -15
v 9.1128355545 0.514230087749 -15
v 9.01423008775 0.612835554495 -15
v 8.9 0.692820323028 -15
v 8.77361611466 0.751754096629 -15
v 8.63891854213 0.78784620241 -15
v 8.5 0.8 -15
v 8.36108145787 0.78784620241 -15
v 8.22638388534 0.751754096629 -15
v 8.1 0.692820323028 -15
v 7.98576991225 0.612835554495 -15
v 7.8871644455 0.514230087749 -15
v 7.80717967697 0.4 -15
v 7.74824590337 0.273616114661 -15
v 7.71215379759 0.138918542134 -15
v 7.7 -1.67838509547e-15 -15
v 7.71215379759 -0.138918542134 -15
v 7.74824590337 -0.273616114661 -15
v 7.80717967697 -0.4 -15
v 7.8871644455 -0.514230087749 -15
v 7.98576991225 -0.612835554495 -15
v 8.1 -0.692820323028 -15
v 8.22638388534 -0.751754096629 -15
v 8.36108145787 -0.78784620241 -15
v 8.5 -0.8 -15
v 8.63891854213 -0.78784620241 -15
v 8.77361611466 -0.751754096629 -15
v 8.9 -0.692820323028 -15
v 9.01423008775 -0.612835554495 -15
v 9.1128355545 -0.514230087749 -15
v 9.19282032303 -0.4 -15
v 9.25175409663 -0.273616114661 -15
v 9.28784620241 -0.138918542134 -15
v 5.05 7.36121593217 -15
v 5.03784620241 7.5001344743 -15
v 5.00175409663 7.63483204683 -15
v 4.94282032303 7.76121593217 -15
v 4.8628355545 7.87544601992 -15
v 4.76423008775 7.97405148666 -15
v 4.65 8.0540362552 -15
v 4.52361611466 8.1129700288 -15
v 4.38891854213 8.14906213458 -15
v 4.25 8.16121593217 -15
v 4.11108145787 8.14906213458 -15
v 3.97638388534 8.1129700288 -15
v 3.85 8.0540362552 -15
v 3.73576991225 7.97405148666 -15
v 3.6371644455 7.87544601992 -15
v 3.55717967697 7.76121593217 -15
v 3.49824590337 7.63483204683 -15
v 3.46215379759 7.5001344743 -15
v 3.45 7.36121593217 -15
v 3.46215379759 7.22229739003 -15
v 3.49824590337 7.08759981751 -15
v 3.55717967697 6.96121593217 -15
v 3.6371644455 6.84698584442 -15
v 3.73576991225 6.74838037767 -15
v 3.85 6.66839560914 -15
v 3.97638388534 6.60946183554 -15
v 4.11108145787 6.57336972976 -15
v 4.25 6.56121593217 -15
v 4.38891854213 6.57336972976 -15
v 4.52361611466 6.60946183554 -15
v 4.65 6.66839560914 -15
v 4.76423008775 6.74838037767 -15
v 4.8628355545 6.84698584442 -15
v 4.94282032303 6.96121593217 -15
v 5.00175409663 7.08759981751 -15
v 5.03784620241 7.22229739003 -15
v -2.75 -7.36121593217 -13.45
v -2.77278837048 -7.10074366567 -13.45
v -2.84046106882 -6.84818571718 -13.45
v -2.95096189432 -6.61121593217 -13.45
v -3.10093333532 -6.39703451764 -13.45
v -3.28581858547 -6.21214926749 -13.45
v -3.5 -6.06217782649 -13.45
v -3.73696978501 -5.95167700099 -13.45
v -3.9895277335 -5.88400430265 -13.45
v -4.25 -5.86121593217 -13.45
v -4.5104722665 -5.88400430265 -13.45
v -4.76303021499 -5.95167700099 -13.45
v -5 -6.06217782649 -13.45
v -5.21418141453 -6.21214926749 -13.45
v -5.39906666468 -6.39703451764 -13.45
v -5.54903810568 -6.61121593217 -13.45
v -5.65953893118 -6.84818571718 -13.45
v -5.72721162952 -7.10074366567 -13.45
v -5.75 -7.36121593217 -13.45
v -5.72721162952 -7.62168819867 -13.45
v -5.65953893118 -7.87424614716 -13.45
v -5.54903810568 -8.11121593217 -13.45
v -5.39906666468 -8.3253973467 -13.45
v -5.21418141453 -8.51028259685 -13.45
v -5 -8.66025403784 -13.45
v -4.76303021499 -8.77075486335 -13.45
v -4.5104722665 -8.83842756169 -13.45
v -4.25 -8.86121593217 -13.45
v -3.9895277335 -8.83842756169 -13.45
v -3.73696978501 -8.77075486335 -13.45
v -3.5 -8.66025403784 -13.45
v -3.28581858547 -8.51028259685 -13.45
v -3.10093333532 -8.3253973467 -13.45
v -2.95096189432 -8.11121593217 -13.45
v -2.84046106882 -7.87424614716 -13.45
v -2.77278837048 -7.62168819867 -13.45
v 5.75 -7.36121593217 -13.45
v 5.72721162952 -7.10074366567 -13.45
v 5.65953893118 -6.84818571718 -13.45
v 5.54903810568 -6.61121593217 -13.45
v 5.39906666468 -6.39703451764 -13.45
v 5.21418141453 -6.21214926749 -13.45
v 5 -6.06217782649 -13.45
v 4.76303021499 -5.95167700099 -13.45
v 4.5104722665 -5.88400430265 -13.45
v 4.25 -5.86121593217 -13.45
v 3.9895277335 -5.88400430265 -13.45
v 3.73696978501 -5.95167700099 -13.45
v 3.5 -6.06217782649 -13.45
v 3.28581858547 -6.21214926749 -13.45
v 3.10093333532 -6.39703451764 -13.45
v 2.95096189432 -6.61121593217 -13.45
v 2.84046106882 -6.84818571718 -13.45
v 2.77278837048 -7.10074366567 -13.45
v 2.75 -7.36121593217 -13.45
v 2.77278837048 -7.62168819867 -13.45
v 2.84046106882 -7.87424614716 -13.45
v 2.95096189432 -8.11121593217 -13.45
v 3.10093333532 -8.3253973467 -13.45
v 3.28581858547 -8.51028259685 -13.45
v 3.5 -8.66025403784 -13.45
v 3.73696978501 -8.77075486335 -13.45
v 3.9895277335 -8.83842756169 -13.45
v 4.25 -8.86121593217 -13.45
v 4.5104722665 -8.83842756169 -13.45
v 4.76303021499 -8.77075486335 -13.45
v 5 -8.66025403784 -13.45
v 5.21418141453 -8.51028259685 -13.45
v 5.39906666468 -8.3253973467 -13.45
v 5.54903810568 -8.11121593217 -13.45
v 5.65953893118 -7.87424614716 -13.45
v 5.72721162952 -7.62168819867 -13.45
v -7 6.73555739531e-16 -13.45
v -7.02278837048 0.2604722665 -13.45
v -7.09046106882 0.513030214989 -13.45
v -7.20096189432 0.75 -13.45
v -7.35093333532 0.96418141453 -13.45
v -7.53581858547 1.14906666468 -13.45
v -7.75 1.29903810568 -13.45
v -7.98696978501 1.40953893118 -13.45
v -8.2395277335 1.47721162952 -13.45
v -8.5 1.5 -13.45
v -8.7604722665 1.47721162952 -13.45
v -9.01303021499 1.40953893118 -13.45
v -9.25 1.29903810568 -13.45
v -9.46418141453 1.14906666468 -13.45
v -9.64906666468 0.96418141453 -13.45
v -9.79903810568 0.75 -13.45
v -9.90953893118 0.513030214989 -13.45
v -9.97721162952 0.2604722665 -13.45
v -10 -2.10602227473e-15 -13.45
v -9.97721162952 -0.2604722665 -13.45
v -9.90953893118 -0.513030214989 -13.45
v -9.79903810568 -0.75 -13.45
v -9.64906666468 -0.96418141453 -13.45
v -9.46418141453 -1.14906666468 -13.45
v -9.25 -1.29903810568 -13.45
v -9.01303021499 -1.40953893118 -13.45
v -8.7604722665 -1.47721162952 -13.45
v -8.5 -1.5 -13.45
v -8.2395277335 -1.47721162952 -13.45
v -7.98696978501 -1.40953893118 -13.45
v -7.75 -1.29903810568 -13.45
v -7.53581858547 -1.14906666468 -13.45
v -7.35093333532 -0.96418141453 -13.45
v -7.20096189432 -0.75 -13.45
v -7.09046106882 -0.513030214989 -13.45
v -7.02278837048 -0.2604722665 -13.45
v -2.75 7.36121593217 -13.45
v -2.77278837048 7.62168819867 -13.45
v -2.84046106882 7.87424614716 -13.45
v -2.95096189432 8.11121593217 -13.45
v -3.10093333532 8.3253973467 -13.45
v -3.28581858547 8.51028259685 -13.45
v -3.5 8.66025403784 -13.45
v -3.73696978501 8.77075486335 -13.45
v -3.9895277335 8.83842756169 -13.45
v -4.25 8.86121593217 -13.45
v -4.5104722665 8.83842756169 -13.45
v -4.76303021499 8.77075486335 -13.45
v -5 8.66025403784 -13.45
v -5.21418141453 8.51028259685 -13.45
v -5.39906666468 8.3253973467 -13.45
v -5.54903810568 8.11121593217 -13.45
v -5.65953893118 7.87424614716 -13.45
v -5.72721162952 7.62168819867 -13.45
v -5.75 7.36121593217 -13.45
v -5.72721162952 7.10074366567 -13.45
v -5.65953893118 6.84818571718 -13.45
v -5.54903810568 6.61121593217 -13.45
v -5.39906666468 6.39703451764 -13.45
v -5.21418141453 6.21214926749 -13.45
v -5 6.06217782649 -13.45
v -4.76303021499 5.95167700099 -13.45
v -4.5104722665 5.88400430265 -13.45
v -4.25 5.86121593217 -13.45
v -3.9895277335 5.88400430265 -13.45
v -3.73696978501 5.95167700099 -13.45
v -3.5 6.06217782649 -13.45
v -3.28581858547 6.21214926749 -13.45
v -3.10093333532 6.39703451764 -13.45
v -2.95096189432 6.61121593217 -13.45
v -2.84046106882 6.84818571718 -13.45
v -2.77278837048 7.10074366567 -13.45
v 4 -9.79717439318e-16 -12
v 3.93923101205 0.694592710668 -12
v 3.75877048314 1.3680805733 -12
v 3.46410161514 2 -12
v 3.06417777248 2.57115043875 -12
v 2.57115043875 3.06417777248 -12
v 2 3.46410161514 -12
v 1.3680805733 3.75877048314 -12
v 0.694592710668 3.93923101205 -12
v -2.41960589927e-15 4 -12
v -0.694592710668 3.93923101205 -12
v -1.3680805733 3.75877048314 -12
v -2 3.46410161514 -12
v -2.57115043875 3.06417777248 -12
v -3.06417777248 2.57115043875 -12
v -3.46410161514 2 -12
v -3.75877048314 1.3680805733 -12
v -3.93923101205 0.694592710668 -12
v -4 -8.39192547734e-15 -12
v -3.93923101205 -0.694592710668 -12
v -3.75877048314 -1.3680805733 -12
v -3.46410161514 -2 -12
v -3.06417777248 -2.57115043875 -12
v -2.57115043875 -3.06417777248 -12
v -2 -3.46410161514 -12
v -1.3680805733 -3.75877048314 -12
v -0.694592710668 -3.93923101205 -12
v 9.92335295691e-15 -4 -12
v 0.694592710668 -3.93923101205 -12
v 1.3680805733 -3.75877048314 -12
v 2 -3.46410161514 -12
v 2.57115043875 -3.06417777248 -12
v 3.06417777248 -2.57115043875 -12
v 3.46410161514 -2 -12
v 3.75877048314 -1.3680805733 -12
v 3.93923101205 -0.694592710668 -12
v 10 -3.67394039744e-16 -13.45
v 9.97721162952 0.2604722665 -13.45
v 9.90953893118 0.513030214989 -13.45
v 9.79903810568 0.75 -13.45
v 9.64906666468 0.96418141453 -13.45
v 9.46418141453 1.14906666468 -13.45
v 9.25 1.29903810568 -13.45
v 9.01303021499 1.40953893118 -13.45
v 8.7604722665 1.47721162952 -13.45
v 8.5 1.5 -13.45
v 8.2395277335 1.47721162952 -13.45
v 7.98696978501 1.40953893118 -13.45
v 7.75 1.29903810568 -13.45
v 7.53581858547 1.14906666468 -13.45
v 7.35093333532 0.96418141453 -13.45
v 7.20096189432 0.75 -13.45
v 7.09046106882 0.513030214989 -13.45
v 7.02278837048 0.2604722665 -13.45
v 7 -3.146972054e-15 -13.45
v 7.02278837048 -0.2604722665 -13.45
v 7.09046106882 -0.513030214989 -13.45
v 7.20096189432 -0.75 -13.45
v 7.35093333532 -0.96418141453 -13.45
v 7.53581858547 -1.14906666468 -13.45
v 7.75 -1.29903810568 -13.45
v 7.98696978501 -1.40953893118 -13.45
v 8.2395277335 -1.47721162952 -13.45
v 8.5 -1.5 -13.45
v 8.7604722665 -1.47721162952 -13.45
v 9.01303021499 -1.40953893118 -13.45
v 9.25 -1.29903810568 -13.45
v 9.46418141453 -1.14906666468 -13.45
v 9.64906666468 -0.96418141453 -13.45
v 9.79903810568 -0.75 -13.45
v 9.90953893118 -0.513030214989 -13.45
v 9.97721162952 -0.2604722665 -13.45
v 5.75 7.36121593217 -13.45
v 5.72721162952 7.62168819867 -13.45
v 5.65953893118 7.87424614716 -13.45
v 5.54903810568 8.11121593217 -13.45
v 5.39906666468 8.3253973467 -13.45
v 5.21418141453 8.51028259685 -13.45
v 5 8.66025403784 -13.45
v 4.76303021499 8.77075486335 -13.45
v 4.5104722665 8.83842756169 -13.45
v 4.25 8.86121593217 -13.45
v 3.9895277335 8.83842756169 -13.45
v 3.73696978501 8.77075486335 -13.45
v 3.5 8.66025403784 -13.45
v 3.28581858547 8.51028259685 -13.45
v 3.10093333532 8.3253973467 -13.45
v 2.95096189432 8.11121593217 -13.45
v 2.84046106882 7.87424614716 -13.45
v 2.77278837048 7.62168819867 -13.45
v 2.75 7.36121593217 -13.45
v 2.77278837048 7.10074366567 -13.45
v 2.84046106882 6.84818571718 -13.45
v 2.95096189432 6.61121593217 -13.45
v 3.10093333532 6.39703451764 -13.45
v 3.28581858547 6.21214926749 -13.45
v 3.5 6.06217782649 -13.45
v 3.73696978501 5.95167700099 -13.45
v 3.9895277335 5.88400430265 -13.45
v 4.25 5.86121593217 -13.45
v 4.5104722665 5.88400430265 -13.45
v 4.76303021499 5.95167700099 -13.45
v 5 6.06217782649 -13.45
v 5.21418141453 6.21214926749 -13.45
v 5.39906666468 6.39703451764 -13.45
v 5.54903810568 6.61121593217 -13.45
v 5.65953893118 6.84818571718 -13.45
v 5.72721162952 7.10074366567 -13.45
v -3.45 -7.36121593217 -13.45
v -3.46215379759 -7.22229739003 -13.45
v -3.49824590337 -7.08759981751 -13.45
v -3.55717967697 -6.96121593217 -13.45
v -3.6371644455 -6.84698584442 -13.45
v -3.73576991225 -6.74838037767 -13.45
v -3.85 -6.66839560914 -13.45
v -3.97638388534 -6.60946183554 -13.45
v -4.11108145787 -6.57336972976 -13.45
v -4.25 -6.56121593217 -13.45
v -4.38891854213 -6.57336972976 -13.45
v -4.52361611466 -6.60946183554 -13.45
v -4.65 -6.66839560914 -13.45
v -4.76423008775 -6.74838037767 -13.45
v -4.8628355545 -6.84698584442 -13.45
v -4.94282032303 -6.96121593217 -13.45
v -5.00175409663 -7.08759981751 -13.45
v -5.03784620241 -7.22229739003 -13.45
v -5.05 -7.36121593217 -13.45
v -5.03784620241 -7.5001344743 -13.45
v -5.00175409663 -7.63483204683 -13.45
v -4.94282032303 -7.76121593217 -13.45
v -4.8628355545 -7.87544601992 -13.45
v -4.76423008775 -7.97405148666 -13.45
v -4.65 -8.0540362552 -13.45
v -4.52361611466 -8.1129700288 -13.45
v -4.38891854213 -8.14906213458 -13.45
v -4.25 -8.16121593217 -13.45
v -4.11108145787 -8.14906213458 -13.45
v -3.97638388534 -8.1129700288 -13.45
v -3.85 -8.0540362552 -13.45
v -3.73576991225 -7.97405148666 -13.45
v -3.6371644455 -7.87544601992 -13.45
v -3.55717967697 -7.76121593217 -13.45
v -3.49824590337 -7.63483204683 -13.45
v -3.46215379759 -7.5001344743 -13.45
v 5.05 -7.36121593217 -13.45
v 5.03784620241 -7.22229739003 -13.45
v 5.00175409663 -7.08759981751 -13.45
v 4.94282032303 -6.96121593217 -13.45
v 4.8628355545 -6.84698584442 -13.45
v 4.76423008775 -6.74838037767 -13.45
v 4.65 -6.66839560914 -13.45
v 4.52361611466 -6.60946183554 -13.45
v 4.38891854213 -6.57336972976 -13.45
v 4.25 -6.56121593217 -13.45
v 4.11108145787 -6.57336972976 -13.45
v 3.97638388534 -6.60946183554 -13.45
v 3.85 -6.66839560914 -13.45
v 3.73576991225 -6.74838037767 -13.45
v 3.6371644455 -6.84698584442 -13.45
v 3.55717967697 -6.96121593217 -13.45
v 3.49824590337 -7.08759981751 -13.45
v 3.46215379759 -7.22229739003 -13.45
v 3.45 -7.36121593217 -13.45
v 3.46215379759 -7.5001344743 -13.45
v 3.49824590337 -7.63483204683 -13.45
v 3.55717967697 -7.76121593217 -13.45
v 3.6371644455 -7.87544601992 -13.45
v 3.73576991225 -7.97405148666 -13.45
v 3.85 -8.0540362552 -13.45
v 3.97638388534 -8.1129700288 -13.45
v 4.11108145787 -8.14906213458 -13.45
v 4.25 -8.16121593217 -13.45
v 4.38891854213 -8.14906213458 -13.45
v 4.52361611466 -8.1129700288 -13.45
v 4.65 -8.0540362552 -13.45
v 4.76423008775 -7.97405148666 -13.45
v 4.8628355545 -7.87544601992 -13.45
v 4.94282032303 -7.76121593217 -13.45
v 5.00175409663 -7.63483204683 -13.45
v 5.03784620241 -7.5001344743 -13.45
v -7.7 8.45006291412e-16 -13.45
v -7.71215379759 0.138918542134 -13.45
v -7.74824590337 0.273616114661 -13.45
v -7.80717967697 0.4 -13.45
v -7.8871644455 0.514230087749 -13.45
v -7.98576991225 0.612835554495 -13.45
v -8.1 0.692820323028 -13.45
v -8.22638388534 0.751754096629 -13.45
v -8.36108145787 0.78784620241 -13.45
v -8.5 0.8 -13.45
v -8.63891854213 0.78784620241 -13.45
v -8.77361611466 0.751754096629 -13.45
v -8.9 0.692820323028 -13.45
v -9.01423008775 0.612835554495 -13.45
v -9.1128355545 0.514230087749 -13.45
v -9.19282032303 0.4 -13.45
v -9.25175409663 0.273616114661 -13.45
v -9.28784620241 0.138918542134 -13.45
v -9.3 -6.37435316193e-16 -13.45
v -9.28784620241 -0.138918542134 -13.45
v -9.25175409663 -0.273616114661 -13.45
v -9.19282032303 -0.4 -13.45
v -9.1128355545 -0.514230087749 -13.45
v -9.01423008775 -0.612835554495 -13.45
v -8.9 -0.692820323028 -13.45
v -8.77361611466 -0.751754096629 -13.45
v -8.63891854213 -0.78784620241 -13.45
v -8.5 -0.8 -13.45
v -8.36108145787 -0.78784620241 -13.45
v -8.22638388534 -0.751754096629 -13.45
v -8.1 -0.692820323028 -13.45
v -7.98576991225 -0.612835554495 -13.45
v -7.8871644455 -0.514230087749 -13.45
v -7.80717967697 -0.4 -13.45
v -7.74824590337 -0.273616114661 -13.45
v -7.71215379759 -0.138918542134 -13.45
v -3.45 7.36121593217 -13.45
v -3.46215379759 7.5001344743 -13.45
v -3.49824590337 7.63483204683 -13.45
v -3.55717967697 7.76121593217 -13.45
v -3.6371644455 7.87544601992 -13.45
v -3.73576991225 7.97405148666 -13.45
v -3.85 8.0540362552 -13.45
v -3.97638388534 8.1129700288 -13.45
v -4.11108145787 8.14906213458 -13.45
v -4.25 8.16121593217 -13.45
v -4.38891854213 8.14906213458 -13.45
v -4.52361611466 8.1129700288 -13.45
v -4.65 8.0540362552 -13.45
v -4.76423008775 7.97405148666 -13.45
v -4.8628355545 7.87544601992 -13.45
v -4.94282032303 7.76121593217 -13.45
v -5.00175409663 7.63483204683 -13.45
v -5.03784620241 7.5001344743 -13.45
v -5.05 7.36121593217 -13.45
v -5.03784620241 7.22229739003 -13.45
v -5.00175409663 7.08759981751 -13.45
v -4.94282032303 6.96121593217 -13.45
v -4.8628355545 6.84698584442 -13.45
v -4.76423008775 6.74838037767 -13.45
v -4.65 6.66839560914 -13.45
v -4.52361611466 6.60946183554 -13.45
v -4.38891854213 6.57336972976 -13.45
v -4.25 6.56121593217 -13.45
v -4.11108145787 6.57336972976 -13.45
v -3.97638388534 6.60946183554 -13.45
v -3.85 6.66839560914 -13.45
v -3.73576991225 6.74838037767 -13.45
v -3.6371644455 6.84698584442 -13.45
v -3.55717967697 6.96121593217 -13.45
v -3.49824590337 7.08759981751 -13.45
v -3.46215379759 7.22229739003 -13.45
v 1.5 -3.67394039744e-16 -12
v 1.47721162952 0.2604722665 -12
v 1.40953893118 0.513030214989 -12
v 1.29903810568 0.75 -12
v 1.14906666468 0.96418141453 -12
v 0.96418141453 1.14906666468 -12
v 0.75 1.29903810568 -12
v 0.513030214989 1.40953893118 -12
v 0.2604722665 1.47721162952 -12
v -9.07352212227e-16 1.5 -12
v -0.2604722665 1.47721162952 -12
v -0.513030214989 1.40953893118 -12
v -0.75 1.29903810568 -12
v -0.96418141453 1.14906666468 -12
v -1.14906666468 0.96418141453 -12
v -1.29903810568 0.75 -12
v -1.40953893118 0.513030214989 -12
v -1.47721162952 0.2604722665 -12
v -1.5 -3.146972054e-15 -12
v -1.47721162952 -0.2604722665 -12
v -1.40953893118 -0.513030214989 -12
v -1.29903810568 -0.75 -12
v -1.14906666468 -0.96418141453 -12
v -0.96418141453 -1.14906666468 -12
v -0.75 -1.29903810568 -12
v -0.513030214988 -1.40953893118 -12
v -0.2604722665 -1.47721162952 -12
v 3.72125735884e-15 -1.5 -12
v 0.2604722665 -1.47721162952 -12
v 0.513030214989 -1.40953893118 -12
v 0.75 -1.29903810568 -12
v 0.96418141453 -1.14906666468 -12
v 1.14906666468 -0.96418141453 -12
v 1.29903810568 -0.75 -12
v 1.40953893118 -0.513030214989 -12
v 1.47721162952 -0.2604722665 -12
v 9.3 -1.95943487864e-16 -13.45
v 9.28784620241 0.138918542134 -13.45
v 9.25175409663 0.273616114661 -13.45
v 9.19282032303 0.4 -13.45
v 9.1128355545 0.514230087749 -13.45
v 9.01423008775 0.612835554495 -13.45
v 8.9 0.692820323028 -13.45
v 8.77361611466 0.751754096629 -13.45
v 8.63891854213 0.78784620241 -13.45
v 8.5 0.8 -13.45
v 8.36108145787 0.78784620241 -13.45
v 8.22638388534 0.751754096629 -13.45
v 8.1 0.692820323028 -13.45
v 7.98576991225 0.612835554495 -13.45
v 7.8871644455 0.514230087749 -13.45
v 7.80717967697 0.4 -13.45
v 7.74824590337 0.273616114661 -13.45
v 7.71215379759 0.138918542134 -13.45
v 7.7 -1.67838509547e-15 -13.45
v 7.71215379759 -0.138918542134 -13.45
v 7.74824590337 -0.273616114661 -13.45
v 7.80717967697 -0.4 -13.45
v 7.8871644455 -0.514230087749 -13.45
v 7.98576991225 -0.612835554495 -13.45
v 8.1 -0.692820323028 -13.45
v 8.22638388534 -0.751754096629 -13.45
v 8.36108145787 -0.78784620241 -13.45
v 8.5 -0.8 -13.45
v 8.63891854213 -0.78784620241 -13.45
v 8.77361611466 -0.751754096629 -13.45
v 8.9 -0.692820323028 -13.45
v 9.01423008775 -0.612835554495 -13.45
v 9.1128355545 -0.514230087749 -13.45
v 9.19282032303 -0.4 -13.45
v 9.25175409663 -0.273616114661 -13.45
v 9.28784620241 -0.138918542134 -13.45
v 5.05 7.36121593217 -13.45
v 5.03784620241 7.5001344743 -13.45
v 5.00175409663 7.63483204683 -13.45
v 4.94282032303 7.76121593217 -13.45
v 4.8628355545 7.87544601992 -13.45
v 4.76423008775 7.97405148666 -13.45
v 4.65 8.0540362552 -13.45
v 4.52361611466 8.1129700288 -13.45
v 4.38891854213 8.14906213458 -13.45
v 4.25 8.16121593217 -13.45
v 4.11108145787 8.14906213458 -13.45
v 3.97638388534 8.1129700288 -13.45
v 3.85 8.0540362552 -13.45
v 3.73576991225 7.97405148666 -13.45
v 3.6371644455 7.87544601992 -13.45
v 3.55717967697 7.76121593217 -13.45
v 3.49824590337 7.63483204683 -13.45
v 3.46215379759 7.5001344743 -13.45
v 3.45 7.36121593217 -13.45
v 3.46215379759 7.22229739003 -13.45
v 3.49824590337 7.08759981751 -13.45
v 3.55717967697 6.96121593217 -13.45
v 3.6371644455 6.84698584442 -13.45
v 3.73576991225 6.74838037767 -13.45
v 3.85 6.66839560914 -13.45
v 3.97638388534 6.60946183554 -13.45
v 4.11108145787 6.57336972976 -13.45
v 4.25 6.56121593217 -13.45
v 4.38891854213 6.57336972976 -13.45
v 4.52361611466 6.60946183554 -13.45
v 4.65 6.66839560914 -13.45
v 4.76423008775 6.74838037767 -13.45
v 4.8628355545 6.84698584442 -13.45
v 4.94282032303 6.96121593217 -13.45
v 5.00175409663 7.08759981751 -13.45
v 5.03784620241 7.22229739003 -13.45
f 2 1 37
f 2 37 38
f 3 38 39
f 3 2 38
f 4 39 40
f 4 3 39
f 5 40 41
f 5 4 40
f 6 41 42
f 6 5 41
f 7 6 42
f 7 42 43
f 8 7 43
f 8 43 44
f 9 8 44
f 9 44 45
f 10 9 45
f 10 45 46
f 11 10 46
f 11 46 47
f 12 11 47
f 12 47 48
f 13 12 48
f 13 48 49
f 14 13 49
f 14 49 50
f 15 14 50
f 15 50 51
f 15 51 52
f 16 15 52
f 17 16 52
f 17 52 53
f 18 17 53
f 18 53 54
f 19 18 54
f 19 54 55
f 20 19 55
f 20 55 56
f 20 56 57
f 21 57 58
f 21 20 57
f 22 21 58
f 23 58 59
f 23 22 58
f 24 59 60
f 24 23 59
f 25 60 61
f 25 24 60
f 26 61 62
f 26 62 63
f 26 25 61
f 27 26 63
f 28 63 64
f 28 27 63
f 29 64 65
f 29 28 64
f 30 65 66
f 30 29 65
f 31 66 67
f 31 67 68
f 31 30 66
f 32 31 68
f 33 32 68
f 33 68 69
f 33 69 70
f 34 33 70
f 35 34 70
f 35 70 71
f 36 35 71
f 36 71 72
f 36 72 37
f 1 36 37
f 95 24 25
f 96 95 25
f 94 24 95
f 97 96 25
f 93 24 94
f 98 97 25
f 92 24 93
f 99 25 26
f 99 98 25
f 91 24 92
f 91 23 24
f 100 99 26
f 90 23 91
f 101 100 26
f 89 23 90
f 102 101 26
f 88 22 23
f 88 23 89
f 103 26 27
f 103 102 26
f 87 22 88
f 104 103 27
f 105 104 27
f 106 27 28
f 106 105 27
f 107 106 28
f 167 20 168
f 166 20 167
f 169 20 21
f 169 168 20
f 165 19 20
f 165 20 166
f 170 169 21
f 164 19 165
f 171 170 21
f 163 19 164
f 172 21 22
f 172 171 21
f 162 19 163
f 173 22 87
f 173 172 22
f 161 19 162
f 174 87 86
f 174 173 87
f 18 19 161
f 160 18 161
f 175 86 85
f 175 174 86
f 159 18 160
f 176 175 85
f 176 85 84
f 158 18 159
f 157 18 158
f 17 155 154
f 17 18 157
f 17 156 155
f 17 157 156
f 239 83 82
f 240 81 80
f 240 82 81
f 240 239 82
f 238 176 84
f 238 177 176
f 238 84 83
f 238 83 239
f 241 79 78
f 241 80 79
f 241 240 80
f 131 29 132
f 130 28 29
f 130 29 131
f 133 29 30
f 133 132 29
f 237 178 177
f 237 177 238
f 242 241 78
f 242 77 76
f 242 78 77
f 129 107 28
f 129 28 130
f 134 133 30
f 128 107 129
f 128 108 107
f 135 134 30
f 236 178 237
f 236 179 178
f 236 180 179
f 243 76 75
f 243 242 76
f 127 73 108
f 127 108 128
f 136 135 30
f 126 74 73
f 126 73 127
f 137 136 30
f 16 154 153
f 16 17 154
f 31 137 30
f 138 137 31
f 235 146 145
f 235 145 180
f 235 180 236
f 244 75 74
f 244 126 125
f 244 74 126
f 244 243 75
f 139 138 31
f 140 139 31
f 234 147 146
f 234 148 147
f 234 146 235
f 245 244 125
f 245 125 124
f 141 140 31
f 233 149 148
f 233 148 234
f 246 245 124
f 246 123 122
f 246 124 123
f 232 150 149
f 232 149 233
f 247 246 122
f 247 121 120
f 247 122 121
f 32 142 141
f 32 143 142
f 32 144 143
f 32 109 144
f 32 141 31
f 248 247 120
f 248 119 118
f 248 120 119
f 249 248 118
f 249 118 117
f 203 16 153
f 204 153 152
f 204 203 153
f 202 15 16
f 202 16 203
f 205 152 151
f 205 204 152
f 201 15 202
f 206 151 150
f 206 150 232
f 206 205 151
f 200 15 201
f 207 206 232
f 207 232 231
f 33 109 32
f 33 110 109
f 33 111 110
f 33 112 111
f 250 249 117
f 250 117 116
f 199 14 15
f 199 15 200
f 208 231 230
f 208 207 231
f 198 14 199
f 209 208 230
f 197 14 198
f 210 209 230
f 210 230 229
f 196 14 197
f 211 210 229
f 195 14 196
f 212 211 229
f 212 229 228
f 213 212 228
f 214 213 228
f 214 228 227
f 215 214 227
f 215 227 226
f 13 14 195
f 13 193 192
f 13 194 193
f 13 195 194
f 34 112 33
f 34 113 112
f 191 13 192
f 216 215 226
f 275 251 250
f 276 250 116
f 276 275 250
f 274 252 251
f 274 251 275
f 277 276 116
f 277 115 114
f 277 116 115
f 273 252 274
f 278 114 113
f 278 277 114
f 272 217 252
f 272 252 273
f 279 113 34
f 279 278 113
f 12 188 187
f 12 189 188
f 12 190 189
f 12 191 190
f 12 13 191
f 271 217 272
f 280 279 34
f 280 34 35
f 270 218 217
f 270 217 271
f 281 280 35
f 269 218 270
f 282 281 35
f 268 218 269
f 268 219 218
f 283 282 35
f 267 220 219
f 267 219 268
f 266 220 267
f 11 12 187
f 11 185 184
f 11 186 185
f 11 187 186
f 36 283 35
f 36 284 283
f 36 285 284
f 36 286 285
f 287 286 36
f 312 224 223
f 311 224 312
f 310 224 311
f 310 225 224
f 313 312 223
f 309 225 310
f 309 226 225
f 314 313 223
f 314 223 222
f 308 216 226
f 308 226 309
f 315 314 222
f 307 216 308
f 307 181 216
f 316 315 222
f 316 222 221
f 306 181 307
f 306 182 181
f 317 316 221
f 317 221 220
f 318 220 266
f 318 266 265
f 318 317 220
f 305 183 182
f 305 182 306
f 319 318 265
f 320 265 264
f 320 319 265
f 10 183 305
f 10 184 183
f 10 305 304
f 10 11 184
f 1 254 253
f 1 255 254
f 1 287 36
f 1 288 287
f 1 253 288
f 321 264 263
f 321 320 264
f 9 10 304
f 9 302 301
f 9 303 302
f 9 304 303
f 2 256 255
f 2 257 256
f 2 258 257
f 2 259 258
f 2 255 1
f 8 9 301
f 8 298 297
f 8 299 298
f 8 300 299
f 8 301 300
f 3 260 259
f 3 261 260
f 3 262 261
f 3 259 2
f 7 294 293
f 7 295 294
f 7 296 295
f 7 297 296
f 7 8 297
f 4 263 262
f 4 262 3
f 4 321 263
f 4 322 321
f 6 7 293
f 6 290 289
f 6 291 290
f 6 292 291
f 6 293 292
f 5 322 4
f 5 6 289
f 5 323 322
f 5 324 323
f 5 289 324
f 347 348 61
f 347 61 60
f 346 347 60
f 349 61 348
f 345 346 60
f 350 61 349
f 344 345 60
f 351 61 350
f 351 62 61
f 343 344 60
f 352 62 351
f 342 343 60
f 342 60 59
f 353 62 352
f 341 342 59
f 354 62 353
f 340 341 59
f 355 62 354
f 339 59 58
f 339 340 59
f 356 63 62
f 356 62 355
f 338 339 58
f 357 63 356
f 358 63 357
f 359 64 63
f 359 63 358
f 360 64 359
f 420 56 419
f 421 56 420
f 418 419 56
f 417 56 55
f 417 418 56
f 422 57 56
f 422 56 421
f 416 417 55
f 423 57 422
f 415 416 55
f 424 57 423
f 414 415 55
f 425 58 57
f 425 57 424
f 413 414 55
f 413 55 54
f 426 58 425
f 426 337 338
f 426 338 58
f 412 413 54
f 427 337 426
f 411 412 54
f 428 336 337
f 428 337 427
f 410 411 54
f 429 336 428
f 429 335 336
f 409 410 54
f 408 409 54
f 53 405 406
f 53 406 407
f 53 407 408
f 53 408 54
f 384 66 65
f 384 65 383
f 52 404 405
f 52 405 53
f 382 383 65
f 385 66 384
f 381 65 64
f 381 382 65
f 386 66 385
f 387 66 386
f 380 64 360
f 380 381 64
f 380 360 325
f 379 380 325
f 388 66 387
f 378 325 326
f 378 379 325
f 389 67 66
f 389 66 388
f 377 326 327
f 377 378 326
f 390 67 389
f 391 67 390
f 392 67 391
f 393 67 392
f 491 333 334
f 492 332 333
f 492 333 491
f 490 335 429
f 490 429 430
f 490 334 335
f 490 491 334
f 493 332 492
f 493 330 331
f 493 331 332
f 489 430 431
f 489 490 430
f 494 329 330
f 494 330 493
f 488 431 432
f 488 489 431
f 495 328 329
f 495 329 494
f 487 397 398
f 487 488 432
f 487 432 397
f 496 328 495
f 496 327 328
f 496 377 327
f 496 376 377
f 68 67 393
f 68 393 394
f 68 394 395
f 68 395 396
f 68 396 361
f 68 361 362
f 486 398 399
f 486 487 398
f 497 376 496
f 497 375 376
f 485 399 400
f 485 486 399
f 498 375 497
f 498 374 375
f 484 400 401
f 484 485 400
f 499 374 498
f 499 372 373
f 499 373 374
f 500 372 499
f 500 371 372
f 501 371 500
f 501 370 371
f 502 370 501
f 502 369 370
f 69 362 363
f 69 363 364
f 69 364 365
f 69 68 362
f 456 404 52
f 455 52 51
f 455 456 52
f 454 455 51
f 457 403 404
f 457 404 456
f 458 402 403
f 458 403 457
f 453 454 51
f 452 453 51
f 452 51 50
f 459 402 458
f 459 401 402
f 459 484 401
f 451 452 50
f 460 484 459
f 460 483 484
f 450 451 50
f 461 483 460
f 461 482 483
f 462 482 461
f 462 481 482
f 449 450 50
f 448 449 50
f 463 481 462
f 464 481 463
f 464 480 481
f 447 448 50
f 465 480 464
f 465 479 480
f 466 479 465
f 466 478 479
f 467 478 466
f 49 447 50
f 49 443 444
f 49 444 445
f 49 445 446
f 49 446 447
f 70 69 365
f 70 365 366
f 48 438 439
f 48 439 440
f 48 440 441
f 48 441 442
f 48 442 443
f 48 443 49
f 527 369 502
f 528 369 527
f 528 368 369
f 529 367 368
f 529 368 528
f 526 502 503
f 526 527 502
f 530 366 367
f 530 367 529
f 530 70 366
f 525 503 504
f 525 526 503
f 531 71 70
f 531 70 530
f 524 504 469
f 524 525 504
f 523 524 469
f 532 71 531
f 522 469 470
f 522 523 469
f 533 71 532
f 521 522 470
f 521 470 471
f 534 71 533
f 520 521 471
f 520 471 472
f 519 520 472
f 47 435 436
f 47 436 437
f 47 437 438
f 47 438 48
f 72 71 534
f 72 534 535
f 72 535 536
f 72 536 537
f 72 537 538
f 72 538 539
f 563 476 477
f 564 476 563
f 564 475 476
f 565 475 564
f 562 563 477
f 562 477 478
f 566 475 565
f 566 474 475
f 561 562 478
f 561 478 467
f 561 467 468
f 567 474 566
f 567 473 474
f 560 561 468
f 559 433 434
f 559 468 433
f 559 560 468
f 568 472 473
f 568 473 567
f 558 559 434
f 569 519 472
f 569 518 519
f 569 472 568
f 570 518 569
f 571 518 570
f 571 517 518
f 46 434 435
f 46 557 558
f 46 435 47
f 46 558 434
f 37 505 506
f 37 506 507
f 37 539 540
f 37 540 505
f 37 72 539
f 572 516 517
f 572 517 571
f 45 554 555
f 45 555 556
f 45 556 557
f 45 557 46
f 38 507 508
f 38 508 509
f 38 509 510
f 38 510 511
f 38 511 512
f 38 37 507
f 44 554 45
f 44 549 550
f 44 550 551
f 44 551 552
f 44 552 553
f 44 553 554
f 39 512 513
f 39 513 514
f 39 514 515
f 39 38 512
f 43 549 44
f 43 545 546
f 43 546 547
f 43 547 548
f 43 548 549
f 40 515 516
f 40 39 515
f 40 572 573
f 40 516 572
f 42 545 43
f 42 541 542
f 42 542 543
f 42 543 544
f 42 544 545
f 42 576 541
f 41 40 573
f 41 576 42
f 41 573 574
f 41 574 575
f 41 575 576
f 74 577 73
f 74 578 577
f 75 579 578
f 75 578 74
f 76 580 579
f 76 579 75
f 77 581 580
f 77 580 76
f 78 582 581
f 78 581 77
f 79 583 582
f 79 582 78
f 80 583 79
f 80 584 583
f 81 584 80
f 81 585 584
f 82 585 81
f 82 586 585
f 83 586 82
f 83 587 586
f 84 587 83
f 84 588 587
f 85 588 84
f 85 589 588
f 85 590 589
f 86 590 85
f 87 590 86
f 87 591 590
f 88 591 87
f 88 592 591
f 89 592 88
f 89 593 592
f 90 593 89
f 90 594 593
f 91 594 90
f 91 595 594
f 91 596 595
f 92 596 91
f 93 596 92
f 93 597 596
f 93 598 597
f 94 598 93
f 95 599 598
f 95 598 94
f 96 600 599
f 96 599 95
f 97 601 600
f 97 600 96
f 98 602 601
f 98 601 97
f 99 603 602
f 99 602 98
f 100 604 603
f 100 605 604
f 100 603 99
f 101 605 100
f 102 606 605
f 102 605 101
f 103 607 606
f 103 608 607
f 103 606 102
f 104 608 103
f 105 609 608
f 105 608 104
f 106 609 105
f 106 610 609
f 107 610 106
f 107 611 610
f 108 611 107
f 108 612 611
f 73 612 108
f 73 577 612
f 110 613 109
f 110 614 613
f 111 615 614
f 111 614 110
f 112 616 615
f 112 615 111
f 113 617 616
f 113 616 112
f 114 618 617
f 114 617 113
f 115 619 618
f 115 618 114
f 116 619 115
f 116 620 619
f 117 620 116
f 117 621 620
f 118 621 117
f 118 622 621
f 119 622 118
f 119 623 622
f 120 623 119
f 120 624 623
f 121 624 120
f 121 625 624
f 121 626 625
f 122 626 121
f 123 626 122
f 123 627 626
f 124 627 123
f 124 628 627
f 125 628 124
f 125 629 628
f 126 629 125
f 126 630 629
f 127 630 126
f 127 631 630
f 127 632 631
f 128 632 127
f 129 632 128
f 129 633 632
f 129 634 633
f 130 634 129
f 131 635 634
f 131 634 130
f 132 636 635
f 132 635 131
f 133 637 636
f 133 636 132
f 134 638 637
f 134 637 133
f 135 639 638
f 135 638 134
f 136 640 639
f 136 641 640
f 136 639 135
f 137 641 136
f 138 642 641
f 138 641 137
f 139 643 642
f 139 644 643
f 139 642 138
f 140 644 139
f 141 645 644
f 141 644 140
f 142 645 141
f 142 646 645
f 143 646 142
f 143 647 646
f 144 647 143
f 144 648 647
f 109 648 144
f 109 613 648
f 146 649 145
f 146 650 649
f 147 651 650
f 147 650 146
f 148 652 651
f 148 651 147
f 149 653 652
f 149 652 148
f 150 654 653
f 150 653 149
f 151 655 654
f 151 654 150
f 152 655 151
f 152 656 655
f 153 656 152
f 153 657 656
f 154 657 153
f 154 658 657
f 155 658 154
f 155 659 658
f 156 659 155
f 156 660 659
f 157 660 156
f 157 661 660
f 157 662 661
f 158 662 157
f 159 662 158
f 159 663 662
f 160 663 159
f 160 664 663
f 161 664 160
f 161 665 664
f 162 665 161
f 162 666 665
f 163 666 162
f 163 667 666
f 163 668 667
f 164 668 163
f 165 668 164
f 165 669 668
f 165 670 669
f 166 670 165
f 167 671 670
f 167 670 166
f 168 672 671
f 168 671 167
f 169 673 672
f 169 672 168
f 170 674 673
f 170 673 169
f 171 675 674
f 171 674 170
f 172 676 675
f 172 677 676
f 172 675 171
f 173 677 172
f 174 678 677
f 174 677 173
f 175 679 678
f 175 680 679
f 175 678 174
f 176 680 175
f 177 681 680
f 177 680 176
f 178 681 177
f 178 682 681
f 179 682 178
f 179 683 682
f 180 683 179
f 180 684 683
f 145 684 180
f 145 649 684
f 182 685 181
f 182 686 685
f 183 687 686
f 183 686 182
f 184 688 687
f 184 687 183
f 185 689 688
f 185 688 184
f 186 690 689
f 186 689 185
f 187 691 690
f 187 690 186
f 188 691 187
f 188 692 691
f 189 692 188
f 189 693 692
f 190 693 189
f 190 694 693
f 191 694 190
f 191 695 694
f 192 695 191
f 192 696 695
f 193 696 192
f 193 697 696
f 193 698 697
f 194 698 193
f 195 698 194
f 195 699 698
f 196 699 195
f 196 700 699
f 197 700 196
f 197 701 700
f 198 701 197
f 198 702 701
f 199 702 198
f 199 703 702
f 199 704 703
f 200 704 199
f 201 704 200
f 201 705 704
f 201 706 705
f 202 706 201
f 203 707 706
f 203 706 202
f 204 708 707
f 204 707 203
f 205 709 708
f 205 708 204
f 206 710 709
f 206 709 205
f 207 711 710
f 207 710 206
f 208 712 711
f 208 713 712
f 208 711 207
f 209 713 208
f 210 714 713
f 210 713 209
f 211 715 714
f 211 716 715
f 211 714 210
f 212 716 211
f 213 717 716
f 213 716 212
f 214 717 213
f 214 718 717
f 215 718 214
f 215 719 718
f 216 719 215
f 216 720 719
f 181 720 216
f 181 685 720
f 722 721 217
f 722 217 218
f 723 218 219
f 723 722 218
f 724 219 220
f 724 723 219
f 725 220 221
f 725 724 220
f 726 221 222
f 726 725 221
f 727 222 223
f 727 726 222
f 728 727 223
f 728 223 224
f 729 728 224
f 729 224 225
f 730 729 225
f 730 225 226
f 730 226 227
f 731 730 227
f 732 731 227
f 732 227 228
f 732 228 229
f 733 732 229
f 734 733 229
f 734 229 230
f 735 734 230
f 735 230 231
f 736 735 231
f 736 231 232
f 737 736 232
f 737 232 233
f 738 737 233
f 738 233 234
f 739 738 234
f 739 234 235
f 740 739 235
f 740 235 236
f 741 740 236
f 741 236 237
f 742 237 238
f 742 741 237
f 742 238 239
f 743 742 239
f 744 239 240
f 744 743 239
f 745 240 241
f 745 744 240
f 746 241 242
f 746 745 241
f 747 242 243
f 747 243 244
f 747 746 242
f 748 747 244
f 749 244 245
f 749 748 244
f 750 245 246
f 750 749 245
f 751 246 247
f 751 750 246
f 752 751 247
f 752 247 248
f 753 752 248
f 753 248 249
f 754 753 249
f 754 249 250
f 754 250 251
f 755 754 251
f 756 755 251
f 756 251 252
f 721 756 252
f 721 252 217
f 254 757 253
f 254 758 757
f 255 759 758
f 255 758 254
f 256 760 759
f 256 759 255
f 257 761 760
f 257 760 256
f 258 762 761
f 258 761 257
f 259 763 762
f 259 762 258
f 260 763 259
f 260 764 763
f 261 764 260
f 261 765 764
f 262 765 261
f 262 766 765
f 263 766 262
f 263 767 766
f 264 767 263
f 264 768 767
f 265 768 264
f 265 769 768
f 265 770 769
f 266 770 265
f 267 770 266
f 267 771 770
f 268 771 267
f 268 772 771
f 269 772 268
f 269 773 772
f 270 773 269
f 270 774 773
f 271 774 270
f 271 775 774
f 271 776 775
f 272 776 271
f 273 776 272
f 273 777 776
f 273 778 777
f 274 778 273
f 275 779 778
f 275 778 274
f 276 780 779
f 276 779 275
f 277 781 780
f 277 780 276
f 278 782 781
f 278 781 277
f 279 783 782
f 279 782 278
f 280 784 783
f 280 785 784
f 280 783 279
f 281 785 280
f 282 786 785
f 282 785 281
f 283 787 786
f 283 788 787
f 283 786 282
f 284 788 283
f 285 789 788
f 285 788 284
f 286 789 285
f 286 790 789
f 287 790 286
f 287 791 790
f 288 791 287
f 288 792 791
f 253 792 288
f 253 757 792
f 290 793 289
f 290 794 793
f 291 795 794
f 291 794 290
f 292 796 795
f 292 795 291
f 293 797 796
f 293 796 292
f 294 798 797
f 294 797 293
f 295 799 798
f 295 798 294
f 296 799 295
f 296 800 799
f 297 800 296
f 297 801 800
f 298 801 297
f 298 802 801
f 299 802 298
f 299 803 802
f 300 803 299
f 300 804 803
f 301 804 300
f 301 805 804
f 301 806 805
f 302 806 301
f 303 806 302
f 303 807 806
f 304 807 303
f 304 808 807
f 305 808 304
f 305 809 808
f 306 809 305
f 306 810 809
f 307 810 306
f 307 811 810
f 307 812 811
f 308 812 307
f 309 812 308
f 309 813 812
f 309 814 813
f 310 814 309
f 311 815 814
f 311 814 310
f 312 816 815
f 312 815 311
f 313 817 816
f 313 816 312
f 314 818 817
f 314 817 313
f 315 819 818
f 315 818 314
f 316 820 819
f 316 821 820
f 316 819 315
f 317 821 316
f 318 822 821
f 318 821 317
f 319 823 822
f 319 824 823
f 319 822 318
f 320 824 319
f 321 825 824
f 321 824 320
f 322 825 321
f 322 826 825
f 323 826 322
f 323 827 826
f 324 827 323
f 324 828 827
f 289 828 324
f 289 793 828
f 830 325 829
f 830 326 325
f 831 327 326
f 831 326 830
f 832 328 327
f 832 327 831
f 833 329 328
f 833 328 832
f 834 330 329
f 834 329 833
f 835 331 330
f 835 330 834
f 836 331 835
f 836 332 331
f 837 332 836
f 837 333 332
f 837 334 333
f 838 334 837
f 839 334 838
f 839 335 334
f 840 335 839
f 840 336 335
f 841 336 840
f 841 337 336
f 841 338 337
f 842 338 841
f 843 338 842
f 843 339 338
f 844 339 843
f 844 340 339
f 845 340 844
f 845 341 340
f 845 342 341
f 846 342 845
f 847 342 846
f 847 343 342
f 847 344 343
f 848 345 344
f 848 344 847
f 849 345 848
f 850 346 345
f 850 345 849
f 851 347 346
f 851 346 850
f 852 348 347
f 852 347 851
f 853 349 348
f 853 348 852
f 854 350 349
f 854 349 853
f 855 351 350
f 855 352 351
f 855 350 854
f 856 352 855
f 857 353 352
f 857 352 856
f 858 354 353
f 858 353 857
f 859 355 354
f 859 354 858
f 860 355 859
f 860 356 355
f 861 356 860
f 861 357 356
f 862 357 861
f 862 358 357
f 863 358 862
f 863 359 358
f 864 359 863
f 864 360 359
f 829 360 864
f 829 325 360
f 866 361 865
f 866 362 361
f 867 363 362
f 867 362 866
f 868 364 363
f 868 363 867
f 869 365 364
f 869 364 868
f 870 366 365
f 870 365 869
f 871 367 366
f 871 366 870
f 872 367 871
f 872 368 367
f 873 368 872
f 873 369 368
f 873 370 369
f 874 370 873
f 875 370 874
f 875 371 370
f 876 371 875
f 876 372 371
f 877 372 876
f 877 373 372
f 877 374 373
f 878 374 877
f 879 374 878
f 879 375 374
f 880 375 879
f 880 376 375
f 881 376 880
f 881 377 376
f 881 378 377
f 882 378 881
f 883 378 882
f 883 379 378
f 883 380 379
f 884 381 380
f 884 380 883
f 885 381 884
f 886 382 381
f 886 381 885
f 887 383 382
f 887 382 886
f 888 384 383
f 888 383 887
f 889 385 384
f 889 384 888
f 890 386 385
f 890 385 889
f 891 387 386
f 891 388 387
f 891 386 890
f 892 388 891
f 893 389 388
f 893 388 892
f 894 390 389
f 894 389 893
f 895 391 390
f 895 390 894
f 896 391 895
f 896 392 391
f 897 392 896
f 897 393 392
f 898 393 897
f 898 394 393
f 899 394 898
f 899 395 394
f 900 395 899
f 900 396 395
f 865 396 900
f 865 361 396
f 902 397 901
f 902 398 397
f 903 399 398
f 903 398 902
f 904 400 399
f 904 399 903
f 905 401 400
f 905 400 904
f 906 402 401
f 906 401 905
f 907 403 402
f 907 402 906
f 908 403 907
f 908 404 403
f 909 404 908
f 909 405 404
f 909 406 405
f 910 406 909
f 911 406 910
f 911 407 406
f 912 407 911
f 912 408 407
f 913 408 912
f 913 409 408
f 913 410 409
f 914 410 913
f 915 410 914
f 915 411 410
f 916 411 915
f 916 412 411
f 917 412 916
f 917 413 412
f 917 414 413
f 918 414 917
f 919 414 918
f 919 415 414
f 919 416 415
f 920 417 416
f 920 416 919
f 921 417 920
f 922 418 417
f 922 417 921
f 923 419 418
f 923 418 922
f 924 420 419
f 924 419 923
f 925 421 420
f 925 420 924
f 926 422 421
f 926 421 925
f 927 423 422
f 927 424 423
f 927 422 926
f 928 424 927
f 929 425 424
f 929 424 928
f 930 426 425
f 930 425 929
f 931 427 426
f 931 426 930
f 932 427 931
f 932 428 427
f 933 428 932
f 933 429 428
f 934 429 933
f 934 430 429
f 935 430 934
f 935 431 430
f 936 431 935
f 936 432 431
f 901 432 936
f 901 397 432
f 938 433 937
f 938 434 433
f 939 435 434
f 939 434 938
f 940 436 435
f 940 435 939
f 941 437 436
f 941 436 940
f 942 438 437
f 942 437 941
f 943 439 438
f 943 438 942
f 944 439 943
f 944 440 439
f 945 440 944
f 945 441 440
f 945 442 441
f 946 442 945
f 947 442 946
f 947 443 442
f 948 443 947
f 948 444 443
f 949 444 948
f 949 445 444
f 949 446 445
f 950 446 949
f 951 446 950
f 951 447 446
f 952 447 951
f 952 448 447
f 953 448 952
f 953 449 448
f 953 450 449
f 954 450 953
f 955 450 954
f 955 451 450
f 955 452 451
f 956 453 452
f 956 452 955
f 957 453 956
f 958 454 453
f 958 453 957
f 959 455 454
f 959 454 958
f 960 456 455
f 960 455 959
f 961 457 456
f 961 456 960
f 962 458 457
f 962 457 961
f 963 459 458
f 963 460 459
f 963 458 962
f 964 460 963
f 965 461 460
f 965 460 964
f 966 462 461
f 966 461 965
f 967 463 462
f 967 462 966
f 968 463 967
f 968 464 463
f 969 464 968
f 969 465 464
f 970 465 969
f 970 466 465
f 971 466 970
f 971 467 466
f 972 467 971
f 972 468 467
f 937 468 972
f 937 433 468
f 974 469 973
f 974 470 469
f 975 471 470
f 975 470 974
f 976 472 471
f 976 473 472
f 976 471 975
f 977 473 976
f 978 474 473
f 978 473 977
f 979 475 474
f 979 474 978
f 980 475 979
f 980 476 475
f 981 476 980
f 981 477 476
f 982 477 981
f 982 478 477
f 983 478 982
f 983 479 478
f 984 479 983
f 984 480 479
f 984 481 480
f 985 481 984
f 986 481 985
f 986 482 481
f 987 482 986
f 987 483 482
f 988 483 987
f 988 484 483
f 988 485 484
f 989 485 988
f 990 485 989
f 990 486 485
f 990 487 486
f 991 487 990
f 992 488 487
f 992 487 991
f 993 489 488
f 993 488 992
f 994 490 489
f 994 491 490
f 994 489 993
f 995 491 994
f 996 491 995
f 996 492 491
f 996 493 492
f 997 493 996
f 998 494 493
f 998 493 997
f 999 495 494
f 999 494 998
f 1000 496 495
f 1000 495 999
f 1001 497 496
f 1001 496 1000
f 1002 498 497
f 1002 497 1001
f 1003 499 498
f 1003 498 1002
f 1004 499 1003
f 1004 500 499
f 1004 501 500
f 1005 501 1004
f 1006 501 1005
f 1006 502 501
f 1007 502 1006
f 1007 503 502
f 1008 503 1007
f 1008 504 503
f 973 504 1008
f 973 469 504
f 1010 505 1009
f 1010 506 505
f 1011 507 506
f 1011 506 1010
f 1012 508 507
f 1012 507 1011
f 1013 509 508
f 1013 508 1012
f 1014 510 509
f 1014 509 1013
f 1015 511 510
f 1015 510 1014
f 1016 511 1015
f 1016 512 511
f 1017 512 1016
f 1017 513 512
f 1017 514 513
f 1018 514 1017
f 1019 514 1018
f 1019 515 514
f 1020 515 1019
f 1020 516 515
f 1021 516 1020
f 1021 517 516
f 1021 518 517
f 1022 518 1021
f 1023 518 1022
f 1023 519 518
f 1024 519 1023
f 1024 520 519
f 1025 520 1024
f 1025 521 520
f 1025 522 521
f 1026 522 1025
f 1027 522 1026
f 1027 523 522
f 1027 524 523
f 1028 525 524
f 1028 524 1027
f 1029 525 1028
f 1030 526 525
f 1030 525 1029
f 1031 527 526
f 1031 526 1030
f 1032 528 527
f 1032 527 1031
f 1033 529 528
f 1033 528 1032
f 1034 530 529
f 1034 529 1033
f 1035 531 530
f 1035 532 531
f 1035 530 1034
f 1036 532 1035
f 1037 533 532
f 1037 532 1036
f 1038 534 533
f 1038 533 1037
f 1039 535 534
f 1039 534 1038
f 1040 535 1039
f 1040 536 535
f 1041 536 1040
f 1041 537 536
f 1042 537 1041
f 1042 538 537
f 1043 538 1042
f 1043 539 538
f 1044 539 1043
f 1044 540 539
f 1009 540 1044
f 1009 505 540
f 1046 541 1045
f 1046 542 541
f 1047 543 542
f 1047 542 1046
f 1048 544 543
f 1048 543 1047
f 1049 545 544
f 1049 544 1048
f 1050 546 545
f 1050 545 1049
f 1051 547 546
f 1051 546 1050
f 1052 547 1051
f 1052 548 547
f 1053 548 1052
f 1053 549 548
f 1053 550 549
f 1054 550 1053
f 1055 550 1054
f 1055 551 550
f 1056 551 1055
f 1056 552 551
f 1057 552 1056
f 1057 553 552
f 1057 554 553
f 1058 554 1057
f 1059 554 1058
f 1059 555 554
f 1060 555 1059
f 1060 556 555
f 1061 556 1060
f 1061 557 556
f 1061 558 557
f 1062 558 1061
f 1063 558 1062
f 1063 559 558
f 1063 560 559
f 1064 561 560
f 1064 560 1063
f 1065 561 1064
f 1066 562 561
f 1066 561 1065
f 1067 563 562
f 1067 562 1066
f 1068 564 563
f 1068 563 1067
f 1069 565 564
f 1069 564 1068
f 1070 566 565
f 1070 565 1069
f 1071 567 566
f 1071 568 567
f 1071 566 1070
f 1072 568 1071
f 1073 569 568
f 1073 568 1072
f 1074 570 569
f 1074 569 1073
f 1075 571 570
f 1075 570 1074
f 1076 571 1075
f 1076 572 571
f 1077 572 1076
f 1077 573 572
f 1078 573 1077
f 1078 574 573
f 1079 574 1078
f 1079 575 574
f 1080 575 1079
f 1080 576 575
f 1045 576 1080
f 1045 541 576
f 852 599 600
f 852 851 599
f 850 598 599
f 850 599 851
f 853 600 601
f 853 852 600
f 849 598 850
f 849 597 598
f 854 853 601
f 854 601 602
f 848 597 849
f 848 596 597
f 855 602 603
f 855 854 602
f 847 596 848
f 847 595 596
f 856 603 604
f 856 855 603
f 846 595 847
f 846 594 595
f 857 856 604
f 857 604 605
f 845 593 594
f 845 594 846
f 858 857 605
f 858 605 606
f 844 592 593
f 844 593 845
f 859 858 606
f 859 606 607
f 843 591 592
f 843 592 844
f 860 859 607
f 860 607 608
f 590 591 843
f 590 843 842
f 609 861 860
f 609 860 608
f 841 590 842
f 589 590 841
f 610 861 609
f 610 862 861
f 588 841 840
f 588 589 841
f 611 862 610
f 611 863 862
f 611 864 863
f 587 840 839
f 587 588 840
f 612 864 611
f 586 839 838
f 586 587 839
f 577 829 864
f 577 864 612
f 578 830 829
f 578 829 577
f 585 838 837
f 585 586 838
f 579 831 830
f 579 832 831
f 579 830 578
f 584 585 837
f 584 836 835
f 584 837 836
f 583 584 835
f 580 832 579
f 582 583 835
f 582 834 833
f 582 835 834
f 581 832 580
f 581 833 832
f 581 582 833
f 888 635 636
f 888 887 635
f 886 634 635
f 886 635 887
f 889 636 637
f 889 888 636
f 885 634 886
f 885 633 634
f 890 889 637
f 890 637 638
f 884 632 633
f 884 633 885
f 891 890 638
f 891 638 639
f 883 631 632
f 883 632 884
f 892 891 639
f 892 639 640
f 882 630 631
f 882 631 883
f 893 892 640
f 893 640 641
f 881 629 630
f 881 630 882
f 894 893 641
f 894 641 642
f 880 628 629
f 880 629 881
f 895 894 642
f 895 642 643
f 879 628 880
f 879 627 628
f 896 643 644
f 896 895 643
f 626 627 879
f 626 879 878
f 645 896 644
f 645 897 896
f 625 878 877
f 625 626 878
f 646 897 645
f 646 898 897
f 624 877 876
f 624 625 877
f 647 898 646
f 647 899 898
f 623 876 875
f 623 624 876
f 648 900 899
f 648 865 900
f 648 899 647
f 622 875 874
f 622 623 875
f 613 865 648
f 621 874 873
f 621 622 874
f 614 866 865
f 614 865 613
f 620 873 872
f 620 621 873
f 615 867 866
f 615 868 867
f 615 866 614
f 619 620 872
f 619 872 871
f 616 868 615
f 618 619 871
f 618 870 869
f 618 871 870
f 617 618 869
f 617 868 616
f 617 869 868
f 924 671 672
f 924 923 671
f 922 670 671
f 922 671 923
f 925 672 673
f 925 924 672
f 921 670 922
f 921 669 670
f 926 925 673
f 926 673 674
f 920 669 921
f 920 668 669
f 927 674 675
f 927 926 674
f 919 668 920
f 919 667 668
f 928 675 676
f 928 927 675
f 918 667 919
f 918 666 667
f 929 676 677
f 929 928 676
f 917 666 918
f 917 665 666
f 930 929 677
f 930 677 678
f 916 664 665
f 916 665 917
f 931 930 678
f 931 678 679
f 915 663 664
f 915 664 916
f 932 679 680
f 932 931 679
f 914 663 915
f 662 663 914
f 681 932 680
f 681 933 932
f 661 914 913
f 661 662 914
f 682 933 681
f 682 934 933
f 682 935 934
f 660 912 911
f 660 913 912
f 660 661 913
f 683 935 682
f 683 936 935
f 659 660 911
f 684 936 683
f 658 659 911
f 658 911 910
f 649 901 936
f 649 936 684
f 657 910 909
f 657 658 910
f 650 902 901
f 650 901 649
f 656 657 909
f 656 908 907
f 656 909 908
f 651 903 902
f 651 904 903
f 651 902 650
f 655 656 907
f 652 904 651
f 654 655 907
f 654 906 905
f 654 907 906
f 653 904 652
f 653 654 905
f 653 905 904
f 960 707 708
f 960 959 707
f 958 706 707
f 958 707 959
f 961 708 709
f 961 960 708
f 957 706 958
f 957 705 706
f 962 961 709
f 962 709 710
f 956 704 705
f 956 705 957
f 963 962 710
f 963 710 711
f 955 704 956
f 955 703 704
f 964 711 712
f 964 963 711
f 954 702 703
f 954 703 955
f 965 964 712
f 965 712 713
f 953 702 954
f 953 701 702
f 966 965 713
f 966 713 714
f 952 700 701
f 952 701 953
f 967 714 715
f 967 966 714
f 951 699 700
f 951 700 952
f 968 967 715
f 968 715 716
f 698 699 951
f 698 951 950
f 717 968 716
f 717 969 968
f 697 950 949
f 697 698 950
f 718 969 717
f 718 970 969
f 718 971 970
f 696 949 948
f 696 697 949
f 719 971 718
f 695 948 947
f 695 696 948
f 720 971 719
f 720 972 971
f 720 937 972
f 694 947 946
f 694 695 947
f 685 937 720
f 686 938 937
f 686 937 685
f 693 945 944
f 693 946 945
f 693 694 946
f 692 693 944
f 687 939 938
f 687 940 939
f 687 938 686
f 691 692 944
f 691 944 943
f 688 940 687
f 690 691 943
f 690 942 941
f 690 943 942
f 689 940 688
f 689 690 941
f 689 941 940
f 995 743 744
f 996 995 744
f 994 742 743
f 994 743 995
f 997 996 744
f 997 744 745
f 993 742 994
f 993 741 742
f 998 997 745
f 998 745 746
f 992 740 741
f 992 741 993
f 999 746 747
f 999 747 748
f 999 998 746
f 991 739 740
f 991 740 992
f 1000 999 748
f 990 739 991
f 990 738 739
f 1001 1000 748
f 1001 748 749
f 989 737 738
f 989 738 990
f 1002 749 750
f 1002 1001 749
f 988 737 989
f 988 736 737
f 1003 1002 750
f 1003 750 751
f 987 735 736
f 987 736 988
f 1004 751 752
f 1004 1003 751
f 734 735 987
f 734 987 986
f 753 1004 752
f 753 1005 1004
f 733 986 985
f 733 734 986
f 754 1005 753
f 754 1006 1005
f 732 984 983
f 732 985 984
f 732 733 985
f 755 1007 1006
f 755 1006 754
f 755 1008 1007
f 731 732 983
f 756 1008 755
f 730 982 981
f 730 983 982
f 730 731 983
f 721 973 1008
f 721 1008 756
f 729 730 981
f 722 974 973
f 722 975 974
f 722 973 721
f 728 729 981
f 728 980 979
f 728 981 980
f 723 975 722
f 727 728 979
f 724 976 975
f 724 977 976
f 724 975 723
f 726 727 979
f 726 979 978
f 725 977 724
f 725 726 978
f 725 978 977
f 1032 779 780
f 1032 1031 779
f 1030 778 779
f 1030 779 1031
f 1033 780 781
f 1033 1032 780
f 1029 778 1030
f 1029 777 778
f 1034 1033 781
f 1034 781 782
f 1028 776 777
f 1028 777 1029
f 1035 1034 782
f 1035 782 783
f 1027 776 1028
f 1027 775 776
f 1036 783 784
f 1036 1035 783
f 1026 774 775
f 1026 775 1027
f 1037 1036 784
f 1037 784 785
f 1025 773 774
f 1025 774 1026
f 1038 1037 785
f 1038 785 786
f 1024 773 1025
f 1024 772 773
f 1039 786 787
f 1039 1038 786
f 1023 771 772
f 1023 772 1024
f 1040 1039 787
f 1040 787 788
f 1041 1040 788
f 770 1023 1022
f 770 771 1023
f 789 1041 788
f 769 770 1022
f 769 1022 1021
f 790 1041 789
f 790 1042 1041
f 768 769 1021
f 768 1020 1019
f 768 1021 1020
f 791 1042 790
f 791 1043 1042
f 767 768 1019
f 792 1043 791
f 792 1044 1043
f 766 1019 1018
f 766 767 1019
f 757 1009 1044
f 757 1044 792
f 758 1010 1009
f 758 1009 757
f 765 1017 1016
f 765 1018 1017
f 765 766 1018
f 759 1011 1010
f 759 1010 758
f 764 765 1016
f 763 764 1016
f 763 1016 1015
f 760 1012 1011
f 760 1011 759
f 762 763 1015
f 762 1015 1014
f 761 1012 760
f 761 762 1014
f 761 1013 1012
f 761 1014 1013
f 1068 815 816
f 1068 1067 815
f 1066 814 815
f 1066 815 1067
f 1069 816 817
f 1069 1068 816
f 1065 814 1066
f 1065 813 814
f 1070 1069 817
f 1070 817 818
f 1064 812 813
f 1064 813 1065
f 1071 1070 818
f 1071 818 819
f 1063 811 812
f 1063 812 1064
f 1072 1071 819
f 1072 819 820
f 1062 811 1063
f 1062 810 811
f 1073 1072 820
f 1073 820 821
f 1061 809 810
f 1061 810 1062
f 1074 1073 821
f 1074 821 822
f 1060 808 809
f 1060 809 1061
f 1075 1074 822
f 1075 822 823
f 1059 807 808
f 1059 808 1060
f 1076 823 824
f 1076 1075 823
f 1058 807 1059
f 1077 1076 824
f 806 807 1058
f 825 1077 824
f 805 1058 1057
f 805 806 1058
f 826 1077 825
f 826 1078 1077
f 826 1079 1078
f 804 1057 1056
f 804 805 1057
f 827 1079 826
f 827 1080 1079
f 803 1056 1055
f 803 804 1056
f 828 1080 827
f 802 803 1055
f 802 1055 1054
f 793 1045 1080
f 793 1080 828
f 794 1046 1045
f 794 1045 793
f 801 1054 1053
f 801 802 1054
f 800 801 1053
f 800 1053 1052
f 795 1047 1046
f 795 1046 794
f 799 800 1052
f 799 1052 1051
f 796 1048 1047
f 796 1047 795
f 798 799 1051
f 798 1050 1049
f 798 1051 1050
f 797 798 1049
f 797 1049 1048
f 797 1048 796
