# SimpleCAD BREP tessellation for MuJoCo
v 3.4 0 7.5
v 3.4 0 9.9
v 1.7 2.94448637287 9.9
v 1.7 2.94448637287 7.5
v 1.7 -2.94448637287 7.5
v 1.7 -2.94448637287 9.9
v -1.7 2.94448637287 9.9
v -1.7 2.94448637287 7.5
v -3.4 4.1637991171e-16 7.5
v -1.7 -2.94448637287 7.5
v 2.72 -6.66207858736e-16 7.5
v 2.70993103582 0.233824252566 7.5
v 2.67979869038 0.465917352174 7.5
v 2.62982605301 0.694560962716 7.5
v 2.56038310363 0.918062286896 7.5
v 2.47198397356 1.13476659911 7.5
v 2.36528313902 1.34306949644 7.5
v 2.24107057566 1.54142877711 7.5
v 2.10026590984 1.72837585842 7.5
v 1.94391161004 1.90252664958 7.5
v 1.77316526879 2.06259179906 7.5
v 1.58929103227 2.2073862405 7.5
v 1.39365024099 2.33583796651 7.5
v 1.18769135092 2.44699596545 7.5
v 0.972939209626 2.5400372624 7.5
v 0.750983766825 2.61427301213 7.5
v 0.523468302961 2.66915359914 7.5
v 0.292077262927 2.70427270675 7.5
v 0.0585237850265 2.71937032539 7.5
v -0.175462982502 2.71433467755 7.5
v -0.408150683497 2.68920304543 7.5
v -0.637816579632 2.64416149483 7.5
v -0.862760304962 2.57954349763 7.5
v -1.08131645485 2.49582746288 7.5
v -1.29186691602 2.39363319481 7.5
v -1.49285284653 2.27371730402 7.5
v -1.68278621687 2.13696760581 7.5
v -1.86026082682 1.98439654712 7.5
v -2.02396271645 1.81713371066 7.5
v -2.17267989425 1.63641745197 7.5
v -2.30531131027 1.443585731 7.5
v -2.4208750079 1.24006620634 7.5
v -2.51851539397 1.02736566535 7.5
v -2.59750957321 0.807058868424 7.5
v -2.65727270035 0.580776889996 7.5
v -2.69736231013 0.350195042671 7.5
v -2.71748159308 0.117020473772 7.5
v -2.71748159308 -0.117020473772 7.5
v -2.69736231013 -0.350195042671 7.5
v -2.65727270035 -0.580776889996 7.5
v -2.59750957321 -0.807058868424 7.5
v -2.51851539397 -1.02736566535 7.5
v -2.4208750079 -1.24006620634 7.5
v -2.30531131027 -1.443585731 7.5
v -2.17267989425 -1.63641745197 7.5
v -2.02396271645 -1.81713371066 7.5
v -1.86026082682 -1.98439654712 7.5
v -1.68278621687 -2.13696760581 7.5
v -1.49285284653 -2.27371730402 7.5
v -1.29186691602 -2.39363319481 7.5
v -1.08131645485 -2.49582746288 7.5
v -0.862760304962 -2.57954349763 7.5
v -0.637816579632 -2.64416149483 7.5
v -0.408150683497 -2.68920304543 7.5
v -0.175462982502 -2.71433467755 7.5
v 0.0585237850265 -2.71937032539 7.5
v 0.292077262927 -2.70427270675 7.5
v 0.523468302961 -2.66915359914 7.5
v 0.750983766825 -2.61427301213 7.5
v 0.972939209626 -2.5400372624 7.5
v 1.18769135092 -2.44699596545 7.5
v 1.39365024099 -2.33583796651 7.5
v 1.58929103227 -2.2073862405 7.5
v 1.77316526879 -2.06259179906 7.5
v 1.94391161004 -1.90252664958 7.5
v 2.10026590984 -1.72837585842 7.5
v 2.24107057566 -1.54142877711 7.5
v 2.36528313902 -1.34306949644 7.5
v 2.47198397356 -1.13476659911 7.5
v 2.56038310363 -0.918062286896 7.5
v 2.62982605301 -0.694560962716 7.5
v 2.67979869038 -0.465917352174 7.5
v 2.70993103582 -0.233824252566 7.5
v -3.4 4.1637991171e-16 9.9
v -1.7 -2.94448637287 9.9
v 2.72 -6.66207858736e-16 7.2
v 2.70993103582 0.233824252566 7.2
v 2.67979869038 0.465917352174 7.2
v 2.62982605301 0.694560962716 7.2
v 2.56038310363 0.918062286896 7.2
v 2.47198397356 1.13476659911 7.2
v 2.36528313902 1.34306949644 7.2
v 2.24107057566 1.54142877711 7.2
v 2.10026590984 1.72837585842 7.2
v 1.94391161004 1.90252664958 7.2
v 1.77316526879 2.06259179906 7.2
v 1.58929103227 2.2073862405 7.2
v 1.39365024099 2.33583796651 7.2
v 1.18769135092 2.44699596545 7.2
v 0.972939209626 2.5400372624 7.2
v 0.750983766825 2.61427301213 7.2
v 0.523468302961 2.66915359914 7.2
v 0.292077262927 2.70427270675 7.2
v 0.0585237850265 2.71937032539 7.2
v -0.175462982502 2.71433467755 7.2
v -0.408150683497 2.68920304543 7.2
v -0.637816579632 2.64416149483 7.2
v -0.862760304962 2.57954349763 7.2
v -1.08131645485 2.49582746288 7.2
v -1.29186691602 2.39363319481 7.2
v -1.49285284653 2.27371730402 7.2
v -1.68278621687 2.13696760581 7.2
v -1.86026082682 1.98439654712 7.2
v -2.02396271645 1.81713371066 7.2
v -2.17267989425 1.63641745197 7.2
v -2.30531131027 1.443585731 7.2
v -2.4208750079 1.24006620634 7.2
v -2.51851539397 1.02736566535 7.2
v -2.59750957321 0.807058868424 7.2
v -2.65727270035 0.580776889996 7.2
v -2.69736231013 0.350195042671 7.2
v -2.71748159308 0.117020473772 7.2
v -2.71748159308 -0.117020473772 7.2
v -2.69736231013 -0.350195042671 7.2
v -2.65727270035 -0.580776889996 7.2
v -2.59750957321 -0.807058868424 7.2
v -2.51851539397 -1.02736566535 7.2
v -2.4208750079 -1.24006620634 7.2
v -2.30531131027 -1.443585731 7.2
v -2.17267989425 -1.63641745197 7.2
v -2.02396271645 -1.81713371066 7.2
v -1.86026082682 -1.98439654712 7.2
v -1.68278621687 -2.13696760581 7.2
v -1.49285284653 -2.27371730402 7.2
v -1.29186691602 -2.39363319481 7.2
v -1.08131645485 -2.49582746288 7.2
v -0.862760304962 -2.57954349763 7.2
v -0.637816579632 -2.64416149483 7.2
v -0.408150683497 -2.68920304543 7.2
v -0.175462982502 -2.71433467755 7.2
v 0.0585237850265 -2.71937032539 7.2
v 0.292077262927 -2.70427270675 7.2
v 0.523468302961 -2.66915359914 7.2
v 0.750983766825 -2.61427301213 7.2
v 0.972939209626 -2.5400372624 7.2
v 1.18769135092 -2.44699596545 7.2
v 1.39365024099 -2.33583796651 7.2
v 1.58929103227 -2.2073862405 7.2
v 1.77316526879 -2.06259179906 7.2
v 1.94391161004 -1.90252664958 7.2
v 2.10026590984 -1.72837585842 7.2
v 2.24107057566 -1.54142877711 7.2
v 2.36528313902 -1.34306949644 7.2
v 2.47198397356 -1.13476659911 7.2
v 2.56038310363 -0.918062286896 7.2
v 2.62982605301 -0.694560962716 7.2
v 2.67979869038 -0.465917352174 7.2
v 2.70993103582 -0.233824252566 7.2
v 2 -4.89858719659e-16 7.2
v 1.99259634987 0.171929597475 7.2
v 1.97044021351 0.342586288363 7.2
v 1.93369562721 0.510706590232 7.2
v 1.88263463503 0.675045799188 7.2
v 1.81763527468 0.834387205225 7.2
v 1.73917877869 0.98755110032 7.2
v 1.64784601152 1.13340351258 7.2
v 1.544313169 1.27086460178 7.2
v 1.42934677209 1.3989166541 7.2
v 1.30379799176 1.51661161696 7.2
v 1.16859634726 1.62307811801 7.2
v 1.02474282426 1.71752791655 7.2
v 0.873302463912 1.7992617393 7.2
v 0.715396477666 1.86767445765 7.2
v 0.552193946195 1.92225956774 7.2
v 0.384903163942 1.96261294054 7.2
v 0.214762693328 1.98843581379 7.2
v 0.0430321948724 1.99953700396 7.2
v -0.129016898899 1.99583432173 7.2
v -0.300110796689 1.97735518046 7.2
v -0.468982779141 1.94423639326 7.2
v -0.634382577178 1.89672316002 7.2
v -0.795085628565 1.83516725212 7.2
v -0.949902144134 1.76002440795 7.2
v -1.09768591657 1.67185095884 7.2
v -1.23734280653 1.57129971016 7.2
v -1.36783884325 1.45911510817 7.2
v -1.48820787974 1.33612772843 7.2
v -1.59755874577 1.20324812645 7.2
v -1.69508184579 1.06146009632 7.2
v -1.78005515287 0.911813387017 7.2
v -1.85184955439 0.755415930408 7.2
v -1.90993350971 0.593425638547 7.2
v -1.95387698555 0.42704183088 7.2
v -1.9833546398 0.257496354905 7.2
v -1.9981482302 0.0860444660091 7.2
v -1.9981482302 -0.0860444660091 7.2
v -1.9833546398 -0.257496354905 7.2
v -1.95387698555 -0.42704183088 7.2
v -1.90993350971 -0.593425638547 7.2
v -1.85184955439 -0.755415930408 7.2
v -1.78005515287 -0.911813387017 7.2
v -1.69508184579 -1.06146009632 7.2
v -1.59755874577 -1.20324812645 7.2
v -1.48820787974 -1.33612772843 7.2
v -1.36783884325 -1.45911510817 7.2
v -1.23734280653 -1.57129971016 7.2
v -1.09768591657 -1.67185095884 7.2
v -0.949902144134 -1.76002440795 7.2
v -0.795085628565 -1.83516725212 7.2
v -0.634382577178 -1.89672316002 7.2
v -0.468982779141 -1.94423639326 7.2
v -0.300110796689 -1.97735518046 7.2
v -0.129016898899 -1.99583432173 7.2
v 0.0430321948724 -1.99953700396 7.2
v 0.214762693328 -1.98843581379 7.2
v 0.384903163942 -1.96261294054 7.2
v 0.552193946195 -1.92225956774 7.2
v 0.715396477666 -1.86767445765 7.2
v 0.873302463912 -1.7992617393 7.2
v 1.02474282426 -1.71752791655 7.2
v 1.16859634726 -1.62307811801 7.2
v 1.30379799176 -1.51661161696 7.2
v 1.42934677209 -1.3989166541 7.2
v 1.544313169 -1.27086460178 7.2
v 1.64784601152 -1.13340351258 7.2
v 1.73917877869 -0.98755110032 7.2
v 1.81763527468 -0.834387205225 7.2
v 1.88263463503 -0.675045799188 7.2
v 1.93369562721 -0.510706590232 7.2
v 1.97044021351 -0.342586288363 7.2
v 1.99259634987 -0.171929597475 7.2
v 2 -4.89858719659e-16 2.6
v 1.99259634987 0.171929597475 2.6
v 1.97044021351 0.342586288363 2.6
v 1.93369562721 0.510706590232 2.6
v 1.88263463503 0.675045799188 2.6
v 1.81763527468 0.834387205225 2.6
v 1.73917877869 0.98755110032 2.6
v 1.64784601152 1.13340351258 2.6
v 1.544313169 1.27086460178 2.6
v 1.42934677209 1.3989166541 2.6
v 1.30379799176 1.51661161696 2.6
v 1.16859634726 1.62307811801 2.6
v 1.02474282426 1.71752791655 2.6
v 0.873302463912 1.7992617393 2.6
v 0.715396477666 1.86767445765 2.6
v 0.552193946195 1.92225956774 2.6
v 0.384903163942 1.96261294054 2.6
v 0.214762693328 1.98843581379 2.6
v 0.0430321948724 1.99953700396 2.6
v -0.129016898899 1.99583432173 2.6
v -0.300110796689 1.97735518046 2.6
v -0.468982779141 1.94423639326 2.6
v -0.634382577178 1.89672316002 2.6
v -0.795085628565 1.83516725212 2.6
v -0.949902144134 1.76002440795 2.6
v -1.09768591657 1.67185095884 2.6
v -1.23734280653 1.57129971016 2.6
v -1.36783884325 1.45911510817 2.6
v -1.48820787974 1.33612772843 2.6
v -1.59755874577 1.20324812645 2.6
v -1.69508184579 1.06146009632 2.6
v -1.78005515287 0.911813387017 2.6
v -1.85184955439 0.755415930408 2.6
v -1.90993350971 0.593425638547 2.6
v -1.95387698555 0.42704183088 2.6
v -1.9833546398 0.257496354905 2.6
v -1.9981482302 0.0860444660091 2.6
v -1.9981482302 -0.0860444660091 2.6
v -1.9833546398 -0.257496354905 2.6
v -1.95387698555 -0.42704183088 2.6
v -1.90993350971 -0.593425638547 2.6
v -1.85184955439 -0.755415930408 2.6
v -1.78005515287 -0.911813387017 2.6
v -1.69508184579 -1.06146009632 2.6
v -1.59755874577 -1.20324812645 2.6
v -1.48820787974 -1.33612772843 2.6
v -1.36783884325 -1.45911510817 2.6
v -1.23734280653 -1.57129971016 2.6
v -1.09768591657 -1.67185095884 2.6
v -0.949902144134 -1.76002440795 2.6
v -0.795085628565 -1.83516725212 2.6
v -0.634382577178 -1.89672316002 2.6
v -0.468982779141 -1.94423639326 2.6
v -0.300110796689 -1.97735518046 2.6
v -0.129016898899 -1.99583432173 2.6
v 0.0430321948724 -1.99953700396 2.6
v 0.214762693328 -1.98843581379 2.6
v 0.384903163942 -1.96261294054 2.6
v 0.552193946195 -1.92225956774 2.6
v 0.715396477666 -1.86767445765 2.6
v 0.873302463912 -1.7992617393 2.6
v 1.02474282426 -1.71752791655 2.6
v 1.16859634726 -1.62307811801 2.6
v 1.30379799176 -1.51661161696 2.6
v 1.42934677209 -1.3989166541 2.6
v 1.544313169 -1.27086460178 2.6
v 1.64784601152 -1.13340351258 2.6
v 1.73917877869 -0.98755110032 2.6
v 1.81763527468 -0.834387205225 2.6
v 1.88263463503 -0.675045799188 2.6
v 1.93369562721 -0.510706590232 2.6
v 1.97044021351 -0.342586288363 2.6
v 1.99259634987 -0.171929597475 2.6
v 2.72 -6.66207858736e-16 2.6
v 2.70993103582 0.233824252566 2.6
v 2.67979869038 0.465917352174 2.6
v 2.62982605301 0.694560962716 2.6
v 2.56038310363 0.918062286896 2.6
v 2.47198397356 1.13476659911 2.6
v 2.36528313902 1.34306949644 2.6
v 2.24107057566 1.54142877711 2.6
v 2.10026590984 1.72837585842 2.6
v 1.94391161004 1.90252664958 2.6
v 1.77316526879 2.06259179906 2.6
v 1.58929103227 2.2073862405 2.6
v 1.39365024099 2.33583796651 2.6
v 1.18769135092 2.44699596545 2.6
v 0.972939209626 2.5400372624 2.6
v 0.750983766825 2.61427301213 2.6
v 0.523468302961 2.66915359914 2.6
v 0.292077262927 2.70427270675 2.6
v 0.0585237850265 2.71937032539 2.6
v -0.175462982502 2.71433467755 2.6
v -0.408150683497 2.68920304543 2.6
v -0.637816579632 2.64416149483 2.6
v -0.862760304962 2.57954349763 2.6
v -1.08131645485 2.49582746288 2.6
v -1.29186691602 2.39363319481 2.6
v -1.49285284653 2.27371730402 2.6
v -1.68278621687 2.13696760581 2.6
v -1.86026082682 1.98439654712 2.6
v -2.02396271645 1.81713371066 2.6
v -2.17267989425 1.63641745197 2.6
v -2.30531131027 1.443585731 2.6
v -2.4208750079 1.24006620634 2.6
v -2.51851539397 1.02736566535 2.6
v -2.59750957321 0.807058868424 2.6
v -2.65727270035 0.580776889996 2.6
v -2.69736231013 0.350195042671 2.6
v -2.71748159308 0.117020473772 2.6
v -2.71748159308 -0.117020473772 2.6
v -2.69736231013 -0.350195042671 2.6
v -2.65727270035 -0.580776889996 2.6
v -2.59750957321 -0.807058868424 2.6
v -2.51851539397 -1.02736566535 2.6
v -2.4208750079 -1.24006620634 2.6
v -2.30531131027 -1.443585731 2.6
v -2.17267989425 -1.63641745197 2.6
v -2.02396271645 -1.81713371066 2.6
v -1.86026082682 -1.98439654712 2.6
v -1.68278621687 -2.13696760581 2.6
v -1.49285284653 -2.27371730402 2.6
v -1.29186691602 -2.39363319481 2.6
v -1.08131645485 -2.49582746288 2.6
v -0.862760304962 -2.57954349763 2.6
v -0.637816579632 -2.64416149483 2.6
v -0.408150683497 -2.68920304543 2.6
v -0.175462982502 -2.71433467755 2.6
v 0.0585237850265 -2.71937032539 2.6
v 0.292077262927 -2.70427270675 2.6
v 0.523468302961 -2.66915359914 2.6
v 0.750983766825 -2.61427301213 2.6
v 0.972939209626 -2.5400372624 2.6
v 1.18769135092 -2.44699596545 2.6
v 1.39365024099 -2.33583796651 2.6
v 1.58929103227 -2.2073862405 2.6
v 1.77316526879 -2.06259179906 2.6
v 1.94391161004 -1.90252664958 2.6
v 2.10026590984 -1.72837585842 2.6
v 2.24107057566 -1.54142877711 2.6
v 2.36528313902 -1.34306949644 2.6
v 2.47198397356 -1.13476659911 2.6
v 2.56038310363 -0.918062286896 2.6
v 2.62982605301 -0.694560962716 2.6
v 2.67979869038 -0.465917352174 2.6
v 2.70993103582 -0.233824252566 2.6
v 2.72 -6.66207858736e-16 2
v 2.70993103582 0.233824252566 2
v 2.67979869038 0.465917352174 2
v 2.62982605301 0.694560962716 2
v 2.56038310363 0.918062286896 2
v 2.47198397356 1.13476659911 2
v 2.36528313902 1.34306949644 2
v 2.24107057566 1.54142877711 2
v 2.10026590984 1.72837585842 2
v 1.94391161004 1.90252664958 2
v 1.77316526879 2.06259179906 2
v 1.58929103227 2.2073862405 2
v 1.39365024099 2.33583796651 2
v 1.18769135092 2.44699596545 2
v 0.972939209626 2.5400372624 2
v 0.750983766825 2.61427301213 2
v 0.523468302961 2.66915359914 2
v 0.292077262927 2.70427270675 2
v 0.0585237850265 2.71937032539 2
v -0.175462982502 2.71433467755 2
v -0.408150683497 2.68920304543 2
v -0.637816579632 2.64416149483 2
v -0.862760304962 2.57954349763 2
v -1.08131645485 2.49582746288 2
v -1.29186691602 2.39363319481 2
v -1.49285284653 2.27371730402 2
v -1.68278621687 2.13696760581 2
v -1.86026082682 1.98439654712 2
v -2.02396271645 1.81713371066 2
v -2.17267989425 1.63641745197 2
v -2.30531131027 1.443585731 2
v -2.4208750079 1.24006620634 2
v -2.51851539397 1.02736566535 2
v -2.59750957321 0.807058868424 2
v -2.65727270035 0.580776889996 2
v -2.69736231013 0.350195042671 2
v -2.71748159308 0.117020473772 2
v -2.71748159308 -0.117020473772 2
v -2.69736231013 -0.350195042671 2
v -2.65727270035 -0.580776889996 2
v -2.59750957321 -0.807058868424 2
v -2.51851539397 -1.02736566535 2
v -2.4208750079 -1.24006620634 2
v -2.30531131027 -1.443585731 2
v -2.17267989425 -1.63641745197 2
v -2.02396271645 -1.81713371066 2
v -1.86026082682 -1.98439654712 2
v -1.68278621687 -2.13696760581 2
v -1.49285284653 -2.27371730402 2
v -1.29186691602 -2.39363319481 2
v -1.08131645485 -2.49582746288 2
v -0.862760304962 -2.57954349763 2
v -0.637816579632 -2.64416149483 2
v -0.408150683497 -2.68920304543 2
v -0.175462982502 -2.71433467755 2
v 0.0585237850265 -2.71937032539 2
v 0.292077262927 -2.70427270675 2
v 0.523468302961 -2.66915359914 2
v 0.750983766825 -2.61427301213 2
v 0.972939209626 -2.5400372624 2
v 1.18769135092 -2.44699596545 2
v 1.39365024099 -2.33583796651 2
v 1.58929103227 -2.2073862405 2
v 1.77316526879 -2.06259179906 2
v 1.94391161004 -1.90252664958 2
v 2.10026590984 -1.72837585842 2
v 2.24107057566 -1.54142877711 2
v 2.36528313902 -1.34306949644 2
v 2.47198397356 -1.13476659911 2
v 2.56038310363 -0.918062286896 2
v 2.62982605301 -0.694560962716 2
v 2.67979869038 -0.465917352174 2
v 2.70993103582 -0.233824252566 2
v 2 -4.89858719659e-16 2
v 1.99259634987 0.171929597475 2
v 1.97044021351 0.342586288363 2
v 1.93369562721 0.510706590232 2
v 1.88263463503 0.675045799188 2
v 1.81763527468 0.834387205225 2
v 1.73917877869 0.98755110032 2
v 1.64784601152 1.13340351258 2
v 1.544313169 1.27086460178 2
v 1.42934677209 1.3989166541 2
v 1.30379799176 1.51661161696 2
v 1.16859634726 1.62307811801 2
v 1.02474282426 1.71752791655 2
v 0.873302463912 1.7992617393 2
v 0.715396477666 1.86767445765 2
v 0.552193946195 1.92225956774 2
v 0.384903163942 1.96261294054 2
v 0.214762693328 1.98843581379 2
v 0.0430321948724 1.99953700396 2
v -0.129016898899 1.99583432173 2
v -0.300110796689 1.97735518046 2
v -0.468982779141 1.94423639326 2
v -0.634382577178 1.89672316002 2
v -0.795085628565 1.83516725212 2
v -0.949902144134 1.76002440795 2
v -1.09768591657 1.67185095884 2
v -1.23734280653 1.57129971016 2
v -1.36783884325 1.45911510817 2
v -1.48820787974 1.33612772843 2
v -1.59755874577 1.20324812645 2
v -1.69508184579 1.06146009632 2
v -1.78005515287 0.911813387017 2
v -1.85184955439 0.755415930408 2
v -1.90993350971 0.593425638547 2
v -1.95387698555 0.42704183088 2
v -1.9833546398 0.257496354905 2
v -1.9981482302 0.0860444660091 2
v -1.9981482302 -0.0860444660091 2
v -1.9833546398 -0.257496354905 2
v -1.95387698555 -0.42704183088 2
v -1.90993350971 -0.593425638547 2
v -1.85184955439 -0.755415930408 2
v -1.78005515287 -0.911813387017 2
v -1.69508184579 -1.06146009632 2
v -1.59755874577 -1.20324812645 2
v -1.48820787974 -1.33612772843 2
v -1.36783884325 -1.45911510817 2
v -1.23734280653 -1.57129971016 2
v -1.09768591657 -1.67185095884 2
v -0.949902144134 -1.76002440795 2
v -0.795085628565 -1.83516725212 2
v -0.634382577178 -1.89672316002 2
v -0.468982779141 -1.94423639326 2
v -0.300110796689 -1.97735518046 2
v -0.129016898899 -1.99583432173 2
v 0.0430321948724 -1.99953700396 2
v 0.214762693328 -1.98843581379 2
v 0.384903163942 -1.96261294054 2
v 0.552193946195 -1.92225956774 2
v 0.715396477666 -1.86767445765 2
v 0.873302463912 -1.7992617393 2
v 1.02474282426 -1.71752791655 2
v 1.16859634726 -1.62307811801 2
v 1.30379799176 -1.51661161696 2
v 1.42934677209 -1.3989166541 2
v 1.544313169 -1.27086460178 2
v 1.64784601152 -1.13340351258 2
v 1.73917877869 -0.98755110032 2
v 1.81763527468 -0.834387205225 2
v 1.88263463503 -0.675045799188 2
v 1.93369562721 -0.510706590232 2
v 1.97044021351 -0.342586288363 2
v 1.99259634987 -0.171929597475 2
v 2 -4.89858719659e-16 -11
v 1.99259634987 0.171929597475 -11
v 1.97044021351 0.342586288363 -11
v 1.93369562721 0.510706590232 -11
v 1.88263463503 0.675045799188 -11
v 1.81763527468 0.834387205225 -11
v 1.73917877869 0.98755110032 -11
v 1.64784601152 1.13340351258 -11
v 1.544313169 1.27086460178 -11
v 1.42934677209 1.3989166541 -11
v 1.30379799176 1.51661161696 -11
v 1.16859634726 1.62307811801 -11
v 1.02474282426 1.71752791655 -11
v 0.873302463912 1.7992617393 -11
v 0.715396477666 1.86767445765 -11
v 0.552193946195 1.92225956774 -11
v 0.384903163942 1.96261294054 -11
v 0.214762693328 1.98843581379 -11
v 0.0430321948724 1.99953700396 -11
v -0.129016898899 1.99583432173 -11
v -0.300110796689 1.97735518046 -11
v -0.468982779141 1.94423639326 -11
v -0.634382577178 1.89672316002 -11
v -0.795085628565 1.83516725212 -11
v -0.949902144134 1.76002440795 -11
v -1.09768591657 1.67185095884 -11
v -1.23734280653 1.57129971016 -11
v -1.36783884325 1.45911510817 -11
v -1.48820787974 1.33612772843 -11
v -1.59755874577 1.20324812645 -11
v -1.69508184579 1.06146009632 -11
v -1.78005515287 0.911813387017 -11
v -1.85184955439 0.755415930408 -11
v -1.90993350971 0.593425638547 -11
v -1.95387698555 0.42704183088 -11
v -1.9833546398 0.257496354905 -11
v -1.9981482302 0.0860444660091 -11
v -1.9981482302 -0.0860444660091 -11
v -1.9833546398 -0.257496354905 -11
v -1.95387698555 -0.42704183088 -11
v -1.90993350971 -0.593425638547 -11
v -1.85184955439 -0.755415930408 -11
v -1.78005515287 -0.911813387017 -11
v -1.69508184579 -1.06146009632 -11
v -1.59755874577 -1.20324812645 -11
v -1.48820787974 -1.33612772843 -11
v -1.36783884325 -1.45911510817 -11
v -1.23734280653 -1.57129971016 -11
v -1.09768591657 -1.67185095884 -11
v -0.949902144134 -1.76002440795 -11
v -0.795085628565 -1.83516725212 -11
v -0.634382577178 -1.89672316002 -11
v -0.468982779141 -1.94423639326 -11
v -0.300110796689 -1.97735518046 -11
v -0.129016898899 -1.99583432173 -11
v 0.0430321948724 -1.99953700396 -11
v 0.214762693328 -1.98843581379 -11
v 0.384903163942 -1.96261294054 -11
v 0.552193946195 -1.92225956774 -11
v 0.715396477666 -1.86767445765 -11
v 0.873302463912 -1.7992617393 -11
v 1.02474282426 -1.71752791655 -11
v 1.16859634726 -1.62307811801 -11
v 1.30379799176 -1.51661161696 -11
v 1.42934677209 -1.3989166541 -11
v 1.544313169 -1.27086460178 -11
v 1.64784601152 -1.13340351258 -11
v 1.73917877869 -0.98755110032 -11
v 1.81763527468 -0.834387205225 -11
v 1.88263463503 -0.675045799188 -11
v 1.93369562721 -0.510706590232 -11
v 1.97044021351 -0.342586288363 -11
v 1.99259634987 -0.171929597475 -11
f 4 2 1
f 4 3 2
f 1 6 5
f 1 2 6
f 8 3 4
f 8 7 3
f 56 57 10
f 58 10 57
f 55 56 10
f 59 10 58
f 54 55 10
f 60 10 59
f 61 10 60
f 62 10 61
f 9 51 52
f 9 52 53
f 9 53 54
f 9 54 10
f 63 10 62
f 50 51 9
f 64 10 63
f 49 50 9
f 65 10 64
f 48 49 9
f 66 10 65
f 47 48 9
f 46 47 9
f 45 46 9
f 44 45 9
f 43 44 9
f 5 66 67
f 5 67 68
f 5 68 69
f 5 69 70
f 5 70 71
f 5 10 66
f 42 43 9
f 72 5 71
f 41 42 9
f 73 5 72
f 74 5 73
f 75 5 74
f 76 5 75
f 77 5 76
f 78 5 77
f 8 35 36
f 8 36 37
f 8 37 38
f 8 38 39
f 8 39 40
f 8 40 41
f 8 41 9
f 34 35 8
f 33 34 8
f 32 33 8
f 31 32 8
f 30 31 8
f 1 11 12
f 1 12 13
f 1 13 14
f 1 5 78
f 1 78 79
f 1 79 80
f 1 80 81
f 1 81 82
f 1 82 83
f 1 83 11
f 15 1 14
f 16 1 15
f 17 1 16
f 4 17 18
f 4 18 19
f 4 19 20
f 4 20 21
f 4 21 22
f 4 22 23
f 4 23 24
f 4 24 25
f 4 25 26
f 4 26 27
f 4 27 28
f 4 1 17
f 4 29 8
f 29 30 8
f 4 28 29
f 2 84 85
f 2 85 6
f 3 7 84
f 3 84 2
f 5 85 10
f 5 6 85
f 84 7 8
f 9 84 8
f 85 84 9
f 10 85 9
f 12 11 86
f 12 86 87
f 13 12 87
f 13 87 88
f 14 13 88
f 14 88 89
f 15 14 89
f 15 89 90
f 16 15 90
f 16 90 91
f 17 16 91
f 17 91 92
f 18 17 92
f 18 92 93
f 19 93 94
f 19 18 93
f 20 94 95
f 20 19 94
f 21 95 96
f 21 96 97
f 21 20 95
f 22 21 97
f 23 22 97
f 23 97 98
f 24 23 98
f 24 98 99
f 25 24 99
f 25 99 100
f 25 100 101
f 26 25 101
f 26 101 102
f 27 26 102
f 28 27 102
f 28 102 103
f 28 103 104
f 29 28 104
f 30 29 104
f 30 104 105
f 31 30 105
f 31 105 106
f 32 31 106
f 32 106 107
f 33 32 107
f 33 107 108
f 34 33 108
f 34 108 109
f 35 34 109
f 35 109 110
f 35 110 111
f 36 35 111
f 37 112 113
f 37 36 111
f 37 111 112
f 38 113 114
f 38 37 113
f 39 38 114
f 40 114 115
f 40 115 116
f 40 39 114
f 41 40 116
f 42 116 117
f 42 41 116
f 43 117 118
f 43 42 117
f 44 118 119
f 44 43 118
f 45 119 120
f 45 44 119
f 46 120 121
f 46 45 120
f 47 121 122
f 47 46 121
f 48 122 123
f 48 123 124
f 48 47 122
f 49 48 124
f 50 49 124
f 50 124 125
f 50 125 126
f 51 50 126
f 52 126 127
f 52 51 126
f 53 52 127
f 53 127 128
f 54 128 129
f 54 129 130
f 54 53 128
f 55 54 130
f 56 130 131
f 56 131 132
f 56 55 130
f 57 56 132
f 58 132 133
f 58 57 132
f 59 133 134
f 59 58 133
f 60 134 135
f 60 59 134
f 61 135 136
f 61 60 135
f 62 136 137
f 62 61 136
f 63 137 138
f 63 138 139
f 63 62 137
f 64 139 140
f 64 63 139
f 65 140 141
f 65 64 140
f 66 65 141
f 67 141 142
f 67 66 141
f 68 142 143
f 68 67 142
f 69 143 144
f 69 144 145
f 69 68 143
f 70 69 145
f 71 145 146
f 71 70 145
f 72 146 147
f 72 71 146
f 73 147 148
f 73 72 147
f 74 73 148
f 74 148 149
f 75 74 149
f 75 149 150
f 76 75 150
f 76 150 151
f 77 76 151
f 77 151 152
f 77 152 153
f 78 77 153
f 79 78 153
f 79 153 154
f 80 79 154
f 80 154 155
f 81 80 155
f 81 155 156
f 82 81 156
f 82 156 157
f 83 82 157
f 83 157 158
f 11 83 158
f 11 158 86
f 204 132 131
f 204 205 132
f 206 133 132
f 206 132 205
f 203 131 130
f 203 204 131
f 207 134 133
f 207 133 206
f 202 130 129
f 202 203 130
f 208 135 134
f 208 134 207
f 201 129 128
f 201 202 129
f 209 136 135
f 209 135 208
f 209 137 136
f 200 128 127
f 200 201 128
f 210 138 137
f 210 137 209
f 199 200 127
f 199 127 126
f 211 138 210
f 198 199 126
f 198 126 125
f 212 138 211
f 212 139 138
f 197 198 125
f 197 125 124
f 213 139 212
f 213 140 139
f 196 197 124
f 196 124 123
f 214 140 213
f 214 141 140
f 195 196 123
f 195 123 122
f 215 141 214
f 215 142 141
f 215 143 142
f 194 122 121
f 194 195 122
f 216 143 215
f 193 121 120
f 193 194 121
f 217 143 216
f 217 144 143
f 192 120 119
f 192 193 120
f 218 144 217
f 218 145 144
f 191 119 118
f 191 192 119
f 219 146 145
f 219 145 218
f 190 191 118
f 190 118 117
f 220 147 146
f 220 146 219
f 189 117 116
f 189 190 117
f 148 147 220
f 221 148 220
f 188 116 115
f 188 189 116
f 222 149 148
f 222 148 221
f 187 115 114
f 187 188 115
f 150 222 223
f 150 149 222
f 113 186 187
f 113 187 114
f 185 186 113
f 151 223 224
f 151 150 223
f 112 185 113
f 152 224 225
f 152 151 224
f 111 185 112
f 111 184 185
f 153 152 225
f 153 225 226
f 110 184 111
f 110 182 183
f 110 183 184
f 154 153 226
f 154 226 227
f 109 182 110
f 155 154 227
f 155 227 228
f 108 182 109
f 108 181 182
f 156 228 229
f 156 155 228
f 107 181 108
f 107 180 181
f 157 229 230
f 157 156 229
f 106 180 107
f 106 179 180
f 158 230 231
f 158 157 230
f 105 179 106
f 105 177 178
f 105 178 179
f 86 231 159
f 86 158 231
f 104 177 105
f 104 176 177
f 87 86 159
f 87 159 160
f 103 176 104
f 88 160 161
f 88 161 162
f 88 87 160
f 102 176 103
f 102 174 175
f 102 175 176
f 89 88 162
f 101 174 102
f 90 89 162
f 90 162 163
f 100 174 101
f 100 172 173
f 100 173 174
f 91 90 163
f 91 163 164
f 99 172 100
f 92 91 164
f 92 164 165
f 98 170 171
f 98 171 172
f 98 172 99
f 93 165 166
f 93 92 165
f 97 170 98
f 97 169 170
f 94 93 166
f 94 166 167
f 96 169 97
f 95 94 167
f 95 169 96
f 95 167 168
f 95 168 169
f 160 159 232
f 160 232 233
f 161 160 233
f 161 233 234
f 162 161 234
f 162 234 235
f 162 235 236
f 163 162 236
f 164 163 236
f 164 236 237
f 165 164 237
f 165 237 238
f 165 238 239
f 166 165 239
f 167 239 240
f 167 166 239
f 168 240 241
f 168 167 240
f 169 241 242
f 169 242 243
f 169 168 241
f 170 169 243
f 171 170 243
f 171 243 244
f 172 171 244
f 172 244 245
f 173 172 245
f 173 245 246
f 174 173 246
f 174 246 247
f 175 174 247
f 175 247 248
f 175 248 249
f 176 175 249
f 177 176 249
f 177 249 250
f 178 177 250
f 178 250 251
f 178 251 252
f 179 178 252
f 180 179 252
f 180 252 253
f 181 180 253
f 181 253 254
f 182 181 254
f 182 254 255
f 183 182 255
f 183 255 256
f 184 183 256
f 184 256 257
f 184 257 258
f 185 184 258
f 186 258 259
f 186 185 258
f 187 259 260
f 187 186 259
f 188 260 261
f 188 261 262
f 188 187 260
f 189 188 262
f 190 262 263
f 190 263 264
f 190 189 262
f 191 264 265
f 191 190 264
f 192 265 266
f 192 191 265
f 193 192 266
f 194 266 267
f 194 193 266
f 195 267 268
f 195 268 269
f 195 194 267
f 196 269 270
f 196 195 269
f 197 196 270
f 197 270 271
f 198 197 271
f 199 198 271
f 199 271 272
f 199 272 273
f 200 273 274
f 200 199 273
f 201 200 274
f 202 274 275
f 202 201 274
f 203 275 276
f 203 202 275
f 204 276 277
f 204 203 276
f 205 277 278
f 205 204 277
f 206 278 279
f 206 205 278
f 207 279 280
f 207 280 281
f 207 206 279
f 208 207 281
f 209 281 282
f 209 282 283
f 209 208 281
f 210 283 284
f 210 209 283
f 211 210 284
f 212 284 285
f 212 211 284
f 213 285 286
f 213 212 285
f 214 286 287
f 214 287 288
f 214 213 286
f 215 214 288
f 216 288 289
f 216 289 290
f 216 215 288
f 217 216 290
f 218 290 291
f 218 217 290
f 219 291 292
f 219 218 291
f 220 292 293
f 220 219 292
f 221 293 294
f 221 220 293
f 222 221 294
f 222 294 295
f 223 222 295
f 223 295 296
f 224 223 296
f 224 296 297
f 224 297 298
f 225 224 298
f 225 298 299
f 226 225 299
f 227 226 299
f 227 299 300
f 228 227 300
f 228 300 301
f 228 301 302
f 229 228 302
f 229 302 303
f 230 229 303
f 231 230 303
f 231 303 304
f 159 231 304
f 159 304 232
f 277 350 351
f 277 351 278
f 279 351 352
f 279 278 351
f 276 349 350
f 276 350 277
f 280 352 353
f 280 279 352
f 275 348 349
f 275 349 276
f 281 353 354
f 281 280 353
f 274 347 348
f 274 348 275
f 282 354 355
f 282 281 354
f 282 355 356
f 273 346 347
f 273 347 274
f 283 356 357
f 283 282 356
f 272 346 273
f 272 345 346
f 284 283 357
f 271 345 272
f 271 344 345
f 285 284 357
f 285 357 358
f 270 344 271
f 270 343 344
f 286 285 358
f 286 358 359
f 269 343 270
f 269 342 343
f 287 286 359
f 287 359 360
f 268 342 269
f 268 341 342
f 288 287 360
f 288 360 361
f 288 361 362
f 267 340 341
f 267 341 268
f 289 288 362
f 266 339 340
f 266 340 267
f 290 289 362
f 290 362 363
f 265 338 339
f 265 339 266
f 291 290 363
f 291 363 364
f 264 337 338
f 264 338 265
f 292 364 365
f 292 291 364
f 263 337 264
f 263 336 337
f 293 365 366
f 293 292 365
f 262 335 336
f 262 336 263
f 367 293 366
f 294 293 367
f 261 334 335
f 261 335 262
f 295 367 368
f 295 294 367
f 260 333 334
f 260 334 261
f 369 296 295
f 369 295 368
f 332 260 259
f 332 333 260
f 258 332 259
f 370 297 296
f 370 296 369
f 331 332 258
f 371 298 297
f 371 297 370
f 330 331 258
f 330 258 257
f 372 298 371
f 372 299 298
f 329 330 257
f 329 256 255
f 329 257 256
f 373 299 372
f 373 300 299
f 328 329 255
f 374 300 373
f 374 301 300
f 327 328 255
f 327 255 254
f 375 302 301
f 375 301 374
f 326 327 254
f 326 254 253
f 376 303 302
f 376 302 375
f 325 326 253
f 325 253 252
f 377 304 303
f 377 303 376
f 324 325 252
f 324 251 250
f 324 252 251
f 305 232 304
f 305 304 377
f 323 324 250
f 323 250 249
f 306 232 305
f 306 233 232
f 322 323 249
f 307 234 233
f 307 235 234
f 307 233 306
f 321 322 249
f 321 248 247
f 321 249 248
f 308 235 307
f 320 321 247
f 309 235 308
f 309 236 235
f 319 320 247
f 319 246 245
f 319 247 246
f 310 236 309
f 310 237 236
f 318 319 245
f 311 237 310
f 311 238 237
f 317 244 243
f 317 245 244
f 317 318 245
f 312 239 238
f 312 238 311
f 316 317 243
f 316 243 242
f 313 239 312
f 313 240 239
f 315 316 242
f 314 240 313
f 314 315 242
f 314 241 240
f 314 242 241
f 306 305 378
f 306 378 379
f 307 306 379
f 307 379 380
f 308 307 380
f 308 380 381
f 309 308 381
f 309 381 382
f 310 309 382
f 310 382 383
f 311 310 383
f 311 383 384
f 312 311 384
f 312 384 385
f 313 385 386
f 313 312 385
f 314 386 387
f 314 313 386
f 315 387 388
f 315 314 387
f 316 388 389
f 316 315 388
f 317 389 390
f 317 316 389
f 318 317 390
f 318 390 391
f 319 318 391
f 319 391 392
f 320 319 392
f 320 392 393
f 321 320 393
f 321 393 394
f 322 321 394
f 322 394 395
f 323 322 395
f 323 395 396
f 323 396 397
f 324 323 397
f 325 324 397
f 325 397 398
f 326 325 398
f 326 398 399
f 327 326 399
f 327 399 400
f 328 327 400
f 328 400 401
f 329 328 401
f 329 401 402
f 330 329 402
f 330 402 403
f 330 403 404
f 331 404 405
f 331 330 404
f 332 331 405
f 333 405 406
f 333 406 407
f 333 332 405
f 334 333 407
f 335 407 408
f 335 334 407
f 336 408 409
f 336 335 408
f 337 409 410
f 337 336 409
f 338 410 411
f 338 337 410
f 339 411 412
f 339 338 411
f 340 412 413
f 340 339 412
f 341 413 414
f 341 340 413
f 342 414 415
f 342 341 414
f 343 342 415
f 343 415 416
f 344 343 416
f 344 416 417
f 345 344 417
f 345 417 418
f 346 418 419
f 346 419 420
f 346 345 418
f 347 346 420
f 348 420 421
f 348 347 420
f 349 421 422
f 349 348 421
f 350 422 423
f 350 423 424
f 350 349 422
f 351 350 424
f 352 424 425
f 352 351 424
f 353 425 426
f 353 352 425
f 354 426 427
f 354 353 426
f 355 427 428
f 355 428 429
f 355 354 427
f 356 355 429
f 357 429 430
f 357 356 429
f 358 430 431
f 358 357 430
f 359 431 432
f 359 432 433
f 359 358 431
f 360 359 433
f 361 433 434
f 361 434 435
f 361 360 433
f 362 435 436
f 362 361 435
f 363 362 436
f 364 436 437
f 364 363 436
f 365 437 438
f 365 364 437
f 366 438 439
f 366 365 438
f 367 439 440
f 367 366 439
f 368 367 440
f 368 440 441
f 369 368 441
f 369 441 442
f 370 369 442
f 370 442 443
f 370 443 444
f 371 370 444
f 372 371 444
f 372 444 445
f 373 372 445
f 373 445 446
f 374 373 446
f 374 446 447
f 375 374 447
f 375 447 448
f 376 375 448
f 376 448 449
f 377 376 449
f 377 449 450
f 305 377 450
f 305 450 378
f 496 424 423
f 496 497 424
f 498 425 424
f 498 424 497
f 495 423 422
f 495 496 423
f 499 426 425
f 499 425 498
f 494 422 421
f 494 495 422
f 500 427 426
f 500 426 499
f 493 421 420
f 493 494 421
f 501 428 427
f 501 427 500
f 501 429 428
f 492 420 419
f 492 493 420
f 502 430 429
f 502 429 501
f 491 492 419
f 491 419 418
f 503 430 502
f 490 491 418
f 490 418 417
f 504 430 503
f 504 431 430
f 489 490 417
f 489 417 416
f 505 431 504
f 505 432 431
f 488 489 416
f 488 416 415
f 506 432 505
f 506 433 432
f 487 488 415
f 487 415 414
f 507 433 506
f 507 434 433
f 507 435 434
f 486 414 413
f 486 487 414
f 508 435 507
f 485 413 412
f 485 486 413
f 509 435 508
f 509 436 435
f 484 412 411
f 484 485 412
f 510 436 509
f 510 437 436
f 483 411 410
f 483 484 411
f 511 438 437
f 511 437 510
f 482 483 410
f 482 410 409
f 512 439 438
f 512 438 511
f 481 409 408
f 481 482 409
f 440 439 512
f 513 440 512
f 480 408 407
f 480 481 408
f 514 441 440
f 514 440 513
f 479 407 406
f 479 480 407
f 442 514 515
f 442 441 514
f 405 478 479
f 405 479 406
f 477 478 405
f 443 515 516
f 443 442 515
f 404 477 405
f 444 516 517
f 444 443 516
f 403 477 404
f 403 476 477
f 445 444 517
f 445 517 518
f 402 476 403
f 402 474 475
f 402 475 476
f 446 445 518
f 446 518 519
f 401 474 402
f 447 446 519
f 447 519 520
f 400 474 401
f 400 473 474
f 448 520 521
f 448 447 520
f 399 473 400
f 399 472 473
f 449 521 522
f 449 448 521
f 398 472 399
f 398 471 472
f 450 522 523
f 450 449 522
f 397 471 398
f 397 469 470
f 397 470 471
f 378 523 451
f 378 450 523
f 396 469 397
f 396 468 469
f 379 378 451
f 379 451 452
f 395 468 396
f 380 452 453
f 380 453 454
f 380 379 452
f 394 468 395
f 394 466 467
f 394 467 468
f 381 380 454
f 393 466 394
f 382 381 454
f 382 454 455
f 392 466 393
f 392 464 465
f 392 465 466
f 383 382 455
f 383 455 456
f 391 464 392
f 384 383 456
f 384 456 457
f 390 462 463
f 390 463 464
f 390 464 391
f 385 457 458
f 385 384 457
f 389 462 390
f 389 461 462
f 386 385 458
f 386 458 459
f 388 461 389
f 387 386 459
f 387 461 388
f 387 459 460
f 387 460 461
f 452 451 524
f 452 524 525
f 453 452 525
f 453 525 526
f 454 453 526
f 454 526 527
f 455 454 527
f 455 527 528
f 456 455 528
f 456 528 529
f 456 529 530
f 457 456 530
f 458 457 530
f 458 530 531
f 459 531 532
f 459 458 531
f 460 532 533
f 460 459 532
f 461 533 534
f 461 534 535
f 461 460 533
f 462 461 535
f 463 462 535
f 463 535 536
f 463 536 537
f 464 463 537
f 464 537 538
f 465 464 538
f 465 538 539
f 466 465 539
f 466 539 540
f 467 466 540
f 467 540 541
f 468 467 541
f 469 468 541
f 469 541 542
f 470 469 542
f 470 542 543
f 471 470 543
f 471 543 544
f 472 471 544
f 472 544 545
f 473 472 545
f 473 545 546
f 473 546 547
f 474 473 547
f 475 474 547
f 475 547 548
f 476 475 548
f 476 548 549
f 477 476 549
f 477 549 550
f 478 550 551
f 478 477 550
f 479 551 552
f 479 478 551
f 480 552 553
f 480 479 552
f 481 553 554
f 481 480 553
f 482 554 555
f 482 555 556
f 482 481 554
f 483 482 556
f 484 556 557
f 484 483 556
f 485 557 558
f 485 484 557
f 486 558 559
f 486 485 558
f 487 559 560
f 487 560 561
f 487 486 559
f 488 561 562
f 488 487 561
f 489 488 562
f 490 489 562
f 490 562 563
f 491 490 563
f 491 563 564
f 492 564 565
f 492 491 564
f 493 492 565
f 493 565 566
f 493 566 567
f 494 493 567
f 495 567 568
f 495 494 567
f 496 568 569
f 496 495 568
f 497 569 570
f 497 496 569
f 498 570 571
f 498 497 570
f 499 571 572
f 499 572 573
f 499 498 571
f 500 573 574
f 500 499 573
f 501 500 574
f 502 574 575
f 502 575 576
f 502 501 574
f 503 576 577
f 503 502 576
f 504 503 577
f 505 577 578
f 505 504 577
f 506 578 579
f 506 505 578
f 507 579 580
f 507 580 581
f 507 506 579
f 508 507 581
f 509 581 582
f 509 582 583
f 509 508 581
f 510 509 583
f 511 583 584
f 511 510 583
f 512 584 585
f 512 511 584
f 513 585 586
f 513 512 585
f 514 513 586
f 514 586 587
f 514 587 588
f 515 514 588
f 516 515 588
f 516 588 589
f 517 516 589
f 517 589 590
f 517 590 591
f 518 517 591
f 519 518 591
f 519 591 592
f 519 592 593
f 520 519 593
f 521 520 593
f 521 593 594
f 522 521 594
f 522 594 595
f 523 522 595
f 523 595 596
f 451 523 596
f 451 596 524
f 574 573 572
f 565 567 566
f 576 575 574
f 563 565 564
f 582 579 578
f 582 580 579
f 582 581 580
f 557 559 558
f 557 560 559
f 556 560 557
f 556 561 560
f 556 562 561
f 584 583 582
f 553 555 554
f 553 556 555
f 587 584 582
f 587 585 584
f 587 586 585
f 589 588 587
f 590 589 587
f 591 590 587
f 548 550 549
f 548 551 550
f 548 552 551
f 592 587 582
f 592 582 578
f 592 569 568
f 592 570 569
f 592 571 570
f 592 572 571
f 592 577 576
f 592 578 577
f 592 591 587
f 592 576 574
f 592 574 572
f 594 593 592
f 545 547 546
f 545 548 547
f 545 552 548
f 595 594 592
f 525 596 595
f 525 524 596
f 526 525 595
f 540 542 541
f 540 543 542
f 540 544 543
f 528 527 526
f 528 526 595
f 538 540 539
f 538 544 540
f 529 595 592
f 529 568 567
f 529 592 568
f 529 528 595
f 536 538 537
f 536 545 544
f 536 552 545
f 536 544 538
f 531 530 529
f 532 531 529
f 532 565 563
f 532 529 567
f 532 567 565
f 534 536 535
f 533 532 563
f 533 553 552
f 533 562 556
f 533 556 553
f 533 563 562
f 533 552 536
f 533 536 534
