# SimpleCAD BREP tessellation for MuJoCo
v 3.43474889912 2.75 3
v 16.5652511009 2.75 3
v 3.18796579146 3.03263484655 3
v 2.91800005365 3.29321661706 3
v 2.62681485478 3.52985038192 3
v 2.31652767012 3.74081535946 3
v 1.98939488306 3.92457742939 3
v 1.64779537685 4.07980028874 3
v 1.29421323554 4.20535516942 3
v 0.931219679957 4.30032904644 3
v 0.561454369959 4.36403127744 3
v 0.18760620906 4.39599862492 3
v -0.187606209061 4.39599862492 3
v -0.561454369959 4.36403127744 3
v -0.931219679957 4.30032904644 3
v -1.29421323554 4.20535516942 3
v -1.64779537685 4.07980028874 3
v -1.98939488306 3.92457742939 3
v -2.31652767012 3.74081535946 3
v -2.62681485478 3.52985038192 3
v -2.91800005365 3.29321661706 3
v -3.18796579146 3.03263484655 3
v -3.43474889912 2.75 3
v -5 2.75 3
v -5 -2.75 3
v -3.43474889912 -2.75 3
v -3.18796579146 -3.03263484655 3
v -2.91800005365 -3.29321661706 3
v -2.62681485478 -3.52985038192 3
v -2.31652767012 -3.74081535946 3
v -1.98939488306 -3.92457742939 3
v -1.64779537685 -4.07980028874 3
v -1.29421323554 -4.20535516942 3
v -0.931219679957 -4.30032904644 3
v -0.561454369959 -4.36403127744 3
v -0.187606209061 -4.39599862492 3
v 0.18760620906 -4.39599862492 3
v 0.561454369959 -4.36403127744 3
v 0.931219679957 -4.30032904644 3
v 1.29421323554 -4.20535516942 3
v 1.64779537685 -4.07980028874 3
v 1.98939488306 -3.92457742939 3
v 2.31652767012 -3.74081535946 3
v 2.62681485478 -3.52985038192 3
v 2.91800005365 -3.29321661706 3
v 3.18796579146 -3.03263484655 3
v 3.43474889912 -2.75 3
v 16.5652511009 -2.75 3
v 16.8120342085 -3.03263484655 3
v 17.0819999463 -3.29321661706 3
v 17.3731851452 -3.52985038192 3
v 17.6834723299 -3.74081535946 3
v 18.0106051169 -3.92457742939 3
v 18.3522046232 -4.07980028874 3
v 18.7057867645 -4.20535516942 3
v 19.06878032 -4.30032904644 3
v 19.43854563 -4.36403127744 3
v 19.8123937909 -4.39599862492 3
v 20.1876062091 -4.39599862492 3
v 20.56145437 -4.36403127744 3
v 20.93121968 -4.30032904644 3
v 21.2942132355 -4.20535516942 3
v 21.6477953768 -4.07980028874 3
v 21.9893948831 -3.92457742939 3
v 22.3165276701 -3.74081535946 3
v 22.6268148548 -3.52985038192 3
v 22.9180000537 -3.29321661706 3
v 23.1879657915 -3.03263484655 3
v 23.4347488991 -2.75 3
v 25 -2.75 3
v 25 2.75 3
v 23.4347488991 2.75 3
v 23.1879657915 3.03263484655 3
v 22.9180000537 3.29321661706 3
v 22.6268148548 3.52985038192 3
v 22.3165276701 3.74081535946 3
v 21.9893948831 3.92457742939 3
v 21.6477953768 4.07980028874 3
v 21.2942132355 4.20535516942 3
v 20.93121968 4.30032904644 3
v 20.56145437 4.36403127744 3
v 20.1876062091 4.39599862492 3
v 19.8123937909 4.39599862492 3
v 19.43854563 4.36403127744 3
v 19.06878032 4.30032904644 3
v 18.7057867645 4.20535516942 3
v 18.3522046232 4.07980028874 3
v 18.0106051169 3.92457742939 3
v 17.6834723299 3.74081535946 3
v 17.3731851452 3.52985038192 3
v 17.0819999463 3.29321661706 3
v 16.8120342085 3.03263484655 3
v 2.3 -5.63337527608e-16 3
v 2.29148580235 0.197719037096 3
v 2.26600624554 0.393974231617 3
v 2.22374997129 0.587312578767 3
v 2.16502983028 0.776302669066 3
v 2.09028056588 0.959545286008 3
v 2.0000555955 1.13568376537 3
v 1.89502291324 1.30341403947 3
v 1.77596014435 1.46149429205 3
v 1.6437487879 1.60875415222 3
v 1.49936769052 1.7441033595 3
v 1.34388579935 1.86653983572 3
v 1.1784542479 1.97515710403 3
v 1.0042978335 2.0691510002 3
v 0.822705949316 2.14782562629 3
v 0.635023038124 2.21059850291 3
v 0.442638638533 2.25700488162 3
v 0.246977097328 2.28670118586 3
v 0.0494870241033 2.29946755455 3
v -0.148369433733 2.29520946999 3
v -0.345127416193 2.27395845753 3
v -0.539330196012 2.23587185225 3
v -0.729539963755 2.18123163403 3
v -0.91434847285 2.11044233994 3
v -1.09238746575 2.02402806914 3
v -1.26233880405 1.92262860266 3
v -1.4229442275 1.80699466668 3
v -1.57301466974 1.6779823744 3
v -1.7114390617 1.53654688769 3
v -1.83719255764 1.38373534542 3
v -1.94934412265 1.22067911077 3
v -2.0470634258 1.04858539507 3
v -2.12962698755 0.868728319969 3
v -2.19642353617 0.682439484329 3
v -2.24695853339 0.491098105512 3
v -2.28085783577 0.296120808141 3
v -2.29787046474 0.0989511359104 3
v -2.29787046474 -0.0989511359104 3
v -2.28085783577 -0.296120808141 3
v -2.24695853339 -0.491098105512 3
v -2.19642353617 -0.682439484329 3
v -2.12962698755 -0.868728319969 3
v -2.0470634258 -1.04858539507 3
v -1.94934412265 -1.22067911077 3
v -1.83719255764 -1.38373534542 3
v -1.7114390617 -1.53654688769 3
v -1.57301466974 -1.6779823744 3
v -1.4229442275 -1.80699466668 3
v -1.26233880405 -1.92262860266 3
v -1.09238746575 -2.02402806914 3
v -0.91434847285 -2.11044233994 3
v -0.729539963755 -2.18123163403 3
v -0.539330196012 -2.23587185225 3
v -0.345127416193 -2.27395845753 3
v -0.148369433733 -2.29520946999 3
v 0.0494870241033 -2.29946755455 3
v 0.246977097328 -2.28670118586 3
v 0.442638638533 -2.25700488162 3
v 0.635023038124 -2.21059850291 3
v 0.822705949316 -2.14782562629 3
v 1.0042978335 -2.0691510002 3
v 1.1784542479 -1.97515710403 3
v 1.34388579935 -1.86653983572 3
v 1.49936769052 -1.7441033595 3
v 1.6437487879 -1.60875415222 3
v 1.77596014435 -1.46149429205 3
v 1.89502291324 -1.30341403947 3
v 2.0000555955 -1.13568376537 3
v 2.09028056588 -0.959545286008 3
v 2.16502983028 -0.776302669066 3
v 2.22374997129 -0.587312578767 3
v 2.26600624554 -0.393974231617 3
v 2.29148580235 -0.197719037096 3
v 9.7 -5.38844591625e-16 3
v 9.69185598486 0.189122557222 3
v 9.66748423486 0.376844917199 3
v 9.62706518993 0.561777249256 3
v 9.57089809853 0.742550379107 3
v 9.49939880215 0.917825925747 3
v 9.41309665656 1.08630621035 3
v 9.31263061267 1.24674386384 3
v 9.1987444859 1.39795106196 3
v 9.07228144929 1.53880831951 3
v 8.93417779093 1.66827277865 3
v 8.78545598198 1.78538592982 3
v 8.62721710668 1.88928070821 3
v 8.4606327103 1.97918791323 3
v 8.28693612543 2.05444190341 3
v 8.10741334081 2.11448552452 3
v 7.92339348034 2.1588742346 3
v 7.73623896266 2.18727939517 3
v 7.54733541436 2.19949070436 3
v 7.35808141121 2.1954177539 3
v 7.16987812364 2.17509069851 3
v 6.98411894295 2.13866003258 3
v 6.8021791651 2.08639547603 3
v 6.62540580858 2.01868397733 3
v 6.45510764145 1.93602684874 3
v 6.29254549177 1.83903605472 3
v 6.13892291282 1.72842968117 3
v 5.99537727243 1.60502661899 3
v 5.86297133228 1.46974050127 3
v 5.74268537965 1.32357293909 3
v 5.63540996964 1.16760610596 3
v 5.54193933184 1.00299472572 3
v 5.46296549017 0.830957523449 3
v 5.39907313932 0.652768202402 3
v 5.35073531589 0.469746013968 3
v 5.31830989622 0.283245990396 3
v 5.30203694678 0.09464891261 3
v 5.30203694678 -0.09464891261 3
v 5.31830989622 -0.283245990396 3
v 5.35073531589 -0.469746013968 3
v 5.39907313932 -0.652768202402 3
v 5.46296549017 -0.830957523449 3
v 5.54193933184 -1.00299472572 3
v 5.63540996964 -1.16760610596 3
v 5.74268537965 -1.32357293909 3
v 5.86297133228 -1.46974050127 3
v 5.99537727243 -1.60502661899 3
v 6.13892291282 -1.72842968117 3
v 6.29254549177 -1.83903605472 3
v 6.45510764145 -1.93602684874 3
v 6.62540580858 -2.01868397733 3
v 6.8021791651 -2.08639547603 3
v 6.98411894295 -2.13866003258 3
v 7.16987812364 -2.17509069851 3
v 7.35808141121 -2.1954177539 3
v 7.54733541436 -2.19949070436 3
v 7.73623896266 -2.18727939517 3
v 7.92339348034 -2.1588742346 3
v 8.10741334081 -2.11448552452 3
v 8.28693612543 -2.05444190341 3
v 8.4606327103 -1.97918791323 3
v 8.62721710668 -1.88928070821 3
v 8.78545598198 -1.78538592982 3
v 8.93417779093 -1.66827277865 3
v 9.07228144929 -1.53880831951 3
v 9.1987444859 -1.39795106196 3
v 9.31263061267 -1.24674386384 3
v 9.41309665656 -1.08630621035 3
v 9.49939880215 -0.917825925747 3
v 9.57089809853 -0.742550379107 3
v 9.62706518993 -0.561777249256 3
v 9.66748423486 -0.376844917199 3
v 9.69185598486 -0.189122557222 3
v 14.7 -5.38844591625e-16 3
v 14.6918559849 0.189122557222 3
v 14.6674842349 0.376844917199 3
v 14.6270651899 0.561777249256 3
v 14.5708980985 0.742550379107 3
v 14.4993988021 0.917825925747 3
v 14.4130966566 1.08630621035 3
v 14.3126306127 1.24674386384 3
v 14.1987444859 1.39795106196 3
v 14.0722814493 1.53880831951 3
v 13.9341777909 1.66827277865 3
v 13.785455982 1.78538592982 3
v 13.6272171067 1.88928070821 3
v 13.4606327103 1.97918791323 3
v 13.2869361254 2.05444190341 3
v 13.1074133408 2.11448552452 3
v 12.9233934803 2.1588742346 3
v 12.7362389627 2.18727939517 3
v 12.5473354144 2.19949070436 3
v 12.3580814112 2.1954177539 3
v 12.1698781236 2.17509069851 3
v 11.9841189429 2.13866003258 3
v 11.8021791651 2.08639547603 3
v 11.6254058086 2.01868397733 3
v 11.4551076415 1.93602684874 3
v 11.2925454918 1.83903605472 3
v 11.1389229128 1.72842968117 3
v 10.9953772724 1.60502661899 3
v 10.8629713323 1.46974050127 3
v 10.7426853796 1.32357293909 3
v 10.6354099696 1.16760610596 3
v 10.5419393318 1.00299472572 3
v 10.4629654902 0.830957523449 3
v 10.3990731393 0.652768202402 3
v 10.3507353159 0.469746013968 3
v 10.3183098962 0.283245990396 3
v 10.3020369468 0.09464891261 3
v 10.3020369468 -0.09464891261 3
v 10.3183098962 -0.283245990396 3
v 10.3507353159 -0.469746013968 3
v 10.3990731393 -0.652768202402 3
v 10.4629654902 -0.830957523449 3
v 10.5419393318 -1.00299472572 3
v 10.6354099696 -1.16760610596 3
v 10.7426853796 -1.32357293909 3
v 10.8629713323 -1.46974050127 3
v 10.9953772724 -1.60502661899 3
v 11.1389229128 -1.72842968117 3
v 11.2925454918 -1.83903605472 3
v 11.4551076415 -1.93602684874 3
v 11.6254058086 -2.01868397733 3
v 11.8021791651 -2.08639547603 3
v 11.9841189429 -2.13866003258 3
v 12.1698781236 -2.17509069851 3
v 12.3580814112 -2.1954177539 3
v 12.5473354144 -2.19949070436 3
v 12.7362389627 -2.18727939517 3
v 12.9233934803 -2.1588742346 3
v 13.1074133408 -2.11448552452 3
v 13.2869361254 -2.05444190341 3
v 13.4606327103 -1.97918791323 3
v 13.6272171067 -1.88928070821 3
v 13.785455982 -1.78538592982 3
v 13.9341777909 -1.66827277865 3
v 14.0722814493 -1.53880831951 3
v 14.1987444859 -1.39795106196 3
v 14.3126306127 -1.24674386384 3
v 14.4130966566 -1.08630621035 3
v 14.4993988021 -0.917825925747 3
v 14.5708980985 -0.742550379107 3
v 14.6270651899 -0.561777249256 3
v 14.6674842349 -0.376844917199 3
v 14.6918559849 -0.189122557222 3
v 22.3 -5.63337527608e-16 3
v 22.2914858023 0.197719037096 3
v 22.2660062455 0.393974231617 3
v 22.2237499713 0.587312578767 3
v 22.1650298303 0.776302669066 3
v 22.0902805659 0.959545286008 3
v 22.0000555955 1.13568376537 3
v 21.8950229132 1.30341403947 3
v 21.7759601443 1.46149429205 3
v 21.6437487879 1.60875415222 3
v 21.4993676905 1.7441033595 3
v 21.3438857993 1.86653983572 3
v 21.1784542479 1.97515710403 3
v 21.0042978335 2.0691510002 3
v 20.8227059493 2.14782562629 3
v 20.6350230381 2.21059850291 3
v 20.4426386385 2.25700488162 3
v 20.2469770973 2.28670118586 3
v 20.0494870241 2.29946755455 3
v 19.8516305663 2.29520946999 3
v 19.6548725838 2.27395845753 3
v 19.460669804 2.23587185225 3
v 19.2704600362 2.18123163403 3
v 19.0856515272 2.11044233994 3
v 18.9076125342 2.02402806914 3
v 18.7376611959 1.92262860266 3
v 18.5770557725 1.80699466668 3
v 18.4269853303 1.6779823744 3
v 18.2885609383 1.53654688769 3
v 18.1628074424 1.38373534542 3
v 18.0506558773 1.22067911077 3
v 17.9529365742 1.04858539507 3
v 17.8703730125 0.868728319969 3
v 17.8035764638 0.682439484329 3
v 17.7530414666 0.491098105512 3
v 17.7191421642 0.296120808141 3
v 17.7021295353 0.0989511359104 3
v 17.7021295353 -0.0989511359104 3
v 17.7191421642 -0.296120808141 3
v 17.7530414666 -0.491098105512 3
v 17.8035764638 -0.682439484329 3
v 17.8703730125 -0.868728319969 3
v 17.9529365742 -1.04858539507 3
v 18.0506558773 -1.22067911077 3
v 18.1628074424 -1.38373534542 3
v 18.2885609383 -1.53654688769 3
v 18.4269853303 -1.6779823744 3
v 18.5770557725 -1.80699466668 3
v 18.7376611959 -1.92262860266 3
v 18.9076125342 -2.02402806914 3
v 19.0856515272 -2.11044233994 3
v 19.2704600362 -2.18123163403 3
v 19.460669804 -2.23587185225 3
v 19.6548725838 -2.27395845753 3
v 19.8516305663 -2.29520946999 3
v 20.0494870241 -2.29946755455 3
v 20.2469770973 -2.28670118586 3
v 20.4426386385 -2.25700488162 3
v 20.6350230381 -2.21059850291 3
v 20.8227059493 -2.14782562629 3
v 21.0042978335 -2.0691510002 3
v 21.1784542479 -1.97515710403 3
v 21.3438857993 -1.86653983572 3
v 21.4993676905 -1.7441033595 3
v 21.6437487879 -1.60875415222 3
v 21.7759601443 -1.46149429205 3
v 21.8950229132 -1.30341403947 3
v 22.0000555955 -1.13568376537 3
v 22.0902805659 -0.959545286008 3
v 22.1650298303 -0.776302669066 3
v 22.2237499713 -0.587312578767 3
v 22.2660062455 -0.393974231617 3
v 22.2914858023 -0.197719037096 3
v 3.61127771682 2.75 3.13914383425
v 3.79344199816 2.75 3.28537108385
v 3.98152601377 2.75 3.43890993906
v 4.17582327212 2.75 3.6
v 4.17582327212 2.75 4.2
v 15.8241767279 2.75 4.2
v 15.8241767279 2.75 3.6
v 16.0184739862 2.75 3.43890993906
v 16.2065580018 2.75 3.28537108385
v 16.3887222832 2.75 3.13914383425
v 3.92433502169 3.09832126119 3.6
v 3.64387355631 3.42376773535 3.6
v 3.33650951224 3.72393666364 3.6
v 3.0045121464 3.99661191037 3.6
v 2.65033258263 4.23978032467 3.6
v 2.27658571506 4.45164660345 3.6
v 1.88603090248 4.6306465461 3.6
v 1.48155159608 4.77545860291 3.6
v 1.06613405108 4.88501363203 3.6
v 0.642845279268 4.95850279287 3.6
v 0.214810405417 4.99538351778 3.6
v -0.214810405417 4.99538351778 3.6
v -0.642845279268 4.95850279287 3.6
v -1.06613405108 4.88501363203 3.6
v -1.48155159608 4.77545860291 3.6
v -1.88603090248 4.6306465461 3.6
v -2.27658571506 4.45164660345 3.6
v -2.65033258263 4.23978032467 3.6
v -3.0045121464 3.99661191037 3.6
v -3.33650951224 3.72393666364 3.6
v -3.64387355631 3.42376773535 3.6
v -3.92433502169 3.09832126119 3.6
v -4.17582327212 2.75 3.6
v -3.98152601377 2.75 3.43890993906
v -3.79344199816 2.75 3.28537108385
v -3.61127771682 2.75 3.13914383425
v 23.6112777168 2.75 3.13914383425
v 23.7934419982 2.75 3.28537108385
v 23.9815260138 2.75 3.43890993906
v 24.1758232721 2.75 3.6
v 23.9243350217 3.09832126119 3.6
v 23.6438735563 3.42376773535 3.6
v 23.3365095122 3.72393666364 3.6
v 23.0045121464 3.99661191037 3.6
v 22.6503325826 4.23978032467 3.6
v 22.2765857151 4.45164660345 3.6
v 21.8860309025 4.6306465461 3.6
v 21.4815515961 4.77545860291 3.6
v 21.0661340511 4.88501363203 3.6
v 20.6428452793 4.95850279287 3.6
v 20.2148104054 4.99538351778 3.6
v 19.7851895946 4.99538351778 3.6
v 19.3571547207 4.95850279287 3.6
v 18.9338659489 4.88501363203 3.6
v 18.5184484039 4.77545860291 3.6
v 18.1139690975 4.6306465461 3.6
v 17.7234142849 4.45164660345 3.6
v 17.3496674174 4.23978032467 3.6
v 16.9954878536 3.99661191037 3.6
v 16.6634904878 3.72393666364 3.6
v 16.3561264437 3.42376773535 3.6
v 16.0756649783 3.09832126119 3.6
v -5 2.75 4.2
v -4.17582327212 2.75 4.2
v 24.1758232721 2.75 4.2
v 25 2.75 4.2
v -5 -2.75 4.2
v -5 1.2375 4.2
v -5 1.2375 5.8
v -5 2.75 5.8
v -5 2.75 7
v -5 -2.75 7
v -5 -2.75 5.8
v -5 -1.2375 5.8
v -5 -1.2375 4.2
v -5 6.12323399574e-16 3.6
v -5 0 4.2
v -5 0 5.8
v -5 6.12323399574e-16 6.4
v 25 -2.75 4.2
v 25 1.2375 4.2
v 25 1.2375 5.8
v 25 2.75 5.8
v 25 2.75 7
v 25 -2.75 7
v 25 -2.75 5.8
v 25 -1.2375 5.8
v 25 -1.2375 4.2
v 25 0 3.6
v 25 -1.27845721435e-15 4.2
v 25 -1.27845721435e-15 5.8
v 25 0 6.4
v -4.17582327212 -2.75 4.2
v -4.17582327212 -2.75 3.6
v -3.98152601377 -2.75 3.43890993906
v -3.79344199816 -2.75 3.28537108385
v -3.61127771682 -2.75 3.13914383425
v 23.6112777168 -2.75 3.13914383425
v 23.7934419982 -2.75 3.28537108385
v 23.9815260138 -2.75 3.43890993906
v 24.1758232721 -2.75 3.6
v 24.1758232721 -2.75 4.2
v -3.92433502169 -3.09832126119 3.6
v -3.64387355631 -3.42376773535 3.6
v -3.33650951224 -3.72393666364 3.6
v -3.0045121464 -3.99661191037 3.6
v -2.65033258263 -4.23978032467 3.6
v -2.27658571506 -4.45164660345 3.6
v -1.88603090248 -4.6306465461 3.6
v -1.48155159608 -4.77545860291 3.6
v -1.06613405108 -4.88501363203 3.6
v -0.642845279268 -4.95850279287 3.6
v -0.214810405417 -4.99538351778 3.6
v 0.214810405417 -4.99538351778 3.6
v 0.642845279268 -4.95850279287 3.6
v 1.06613405108 -4.88501363203 3.6
v 1.48155159608 -4.77545860291 3.6
v 1.88603090248 -4.6306465461 3.6
v 2.27658571506 -4.45164660345 3.6
v 2.65033258263 -4.23978032467 3.6
v 3.0045121464 -3.99661191037 3.6
v 3.33650951224 -3.72393666364 3.6
v 3.64387355631 -3.42376773535 3.6
v 3.92433502169 -3.09832126119 3.6
v 4.17582327212 -2.75 3.6
v 3.61127771682 -2.75 3.13914383425
v 3.79344199816 -2.75 3.28537108385
v 3.98152601377 -2.75 3.43890993906
v 15.8241767279 -2.75 3.6
v 16.0756649783 -3.09832126119 3.6
v 16.3561264437 -3.42376773535 3.6
v 16.6634904878 -3.72393666364 3.6
v 16.9954878536 -3.99661191037 3.6
v 17.3496674174 -4.23978032467 3.6
v 17.7234142849 -4.45164660345 3.6
v 18.1139690975 -4.6306465461 3.6
v 18.5184484039 -4.77545860291 3.6
v 18.9338659489 -4.88501363203 3.6
v 19.3571547207 -4.95850279287 3.6
v 19.7851895946 -4.99538351778 3.6
v 20.2148104054 -4.99538351778 3.6
v 20.6428452793 -4.95850279287 3.6
v 21.0661340511 -4.88501363203 3.6
v 21.4815515961 -4.77545860291 3.6
v 21.8860309025 -4.6306465461 3.6
v 22.2765857151 -4.45164660345 3.6
v 22.6503325826 -4.23978032467 3.6
v 23.0045121464 -3.99661191037 3.6
v 23.3365095122 -3.72393666364 3.6
v 23.6438735563 -3.42376773535 3.6
v 23.9243350217 -3.09832126119 3.6
v 16.0184739862 -2.75 3.43890993906
v 16.2065580018 -2.75 3.28537108385
v 16.3887222832 -2.75 3.13914383425
v 4.17582327212 -2.75 4.2
v 15.8241767279 -2.75 4.2
v 2.3 -5.63337527608e-16 7
v 2.29148580235 0.197719037096 7
v 2.26600624554 0.393974231617 7
v 2.22374997129 0.587312578767 7
v 2.16502983028 0.776302669066 7
v 2.09028056588 0.959545286008 7
v 2.0000555955 1.13568376537 7
v 1.89502291324 1.30341403947 7
v 1.77596014435 1.46149429205 7
v 1.6437487879 1.60875415222 7
v 1.49936769052 1.7441033595 7
v 1.34388579935 1.86653983572 7
v 1.1784542479 1.97515710403 7
v 1.0042978335 2.0691510002 7
v 0.822705949316 2.14782562629 7
v 0.635023038124 2.21059850291 7
v 0.442638638533 2.25700488162 7
v 0.246977097328 2.28670118586 7
v 0.0494870241033 2.29946755455 7
v -0.148369433733 2.29520946999 7
v -0.345127416193 2.27395845753 7
v -0.539330196012 2.23587185225 7
v -0.729539963755 2.18123163403 7
v -0.91434847285 2.11044233994 7
v -1.09238746575 2.02402806914 7
v -1.26233880405 1.92262860266 7
v -1.4229442275 1.80699466668 7
v -1.57301466974 1.6779823744 7
v -1.7114390617 1.53654688769 7
v -1.83719255764 1.38373534542 7
v -1.94934412265 1.22067911077 7
v -2.0470634258 1.04858539507 7
v -2.12962698755 0.868728319969 7
v -2.19642353617 0.682439484329 7
v -2.24695853339 0.491098105512 7
v -2.28085783577 0.296120808141 7
v -2.29787046474 0.0989511359104 7
v -2.29787046474 -0.0989511359104 7
v -2.28085783577 -0.296120808141 7
v -2.24695853339 -0.491098105512 7
v -2.19642353617 -0.682439484329 7
v -2.12962698755 -0.868728319969 7
v -2.0470634258 -1.04858539507 7
v -1.94934412265 -1.22067911077 7
v -1.83719255764 -1.38373534542 7
v -1.7114390617 -1.53654688769 7
v -1.57301466974 -1.6779823744 7
v -1.4229442275 -1.80699466668 7
v -1.26233880405 -1.92262860266 7
v -1.09238746575 -2.02402806914 7
v -0.91434847285 -2.11044233994 7
v -0.729539963755 -2.18123163403 7
v -0.539330196012 -2.23587185225 7
v -0.345127416193 -2.27395845753 7
v -0.148369433733 -2.29520946999 7
v 0.0494870241033 -2.29946755455 7
v 0.246977097328 -2.28670118586 7
v 0.442638638533 -2.25700488162 7
v 0.635023038124 -2.21059850291 7
v 0.822705949316 -2.14782562629 7
v 1.0042978335 -2.0691510002 7
v 1.1784542479 -1.97515710403 7
v 1.34388579935 -1.86653983572 7
v 1.49936769052 -1.7441033595 7
v 1.6437487879 -1.60875415222 7
v 1.77596014435 -1.46149429205 7
v 1.89502291324 -1.30341403947 7
v 2.0000555955 -1.13568376537 7
v 2.09028056588 -0.959545286008 7
v 2.16502983028 -0.776302669066 7
v 2.22374997129 -0.587312578767 7
v 2.26600624554 -0.393974231617 7
v 2.29148580235 -0.197719037096 7
v 9.7 -5.38844591625e-16 7
v 9.69185598486 0.189122557222 7
v 9.66748423486 0.376844917199 7
v 9.62706518993 0.561777249256 7
v 9.57089809853 0.742550379107 7
v 9.49939880215 0.917825925747 7
v 9.41309665656 1.08630621035 7
v 9.31263061267 1.24674386384 7
v 9.1987444859 1.39795106196 7
v 9.07228144929 1.53880831951 7
v 8.93417779093 1.66827277865 7
v 8.78545598198 1.78538592982 7
v 8.62721710668 1.88928070821 7
v 8.4606327103 1.97918791323 7
v 8.28693612543 2.05444190341 7
v 8.10741334081 2.11448552452 7
v 7.92339348034 2.1588742346 7
v 7.73623896266 2.18727939517 7
v 7.54733541436 2.19949070436 7
v 7.35808141121 2.1954177539 7
v 7.16987812364 2.17509069851 7
v 6.98411894295 2.13866003258 7
v 6.8021791651 2.08639547603 7
v 6.62540580858 2.01868397733 7
v 6.45510764145 1.93602684874 7
v 6.29254549177 1.83903605472 7
v 6.13892291282 1.72842968117 7
v 5.99537727243 1.60502661899 7
v 5.86297133228 1.46974050127 7
v 5.74268537965 1.32357293909 7
v 5.63540996964 1.16760610596 7
v 5.54193933184 1.00299472572 7
v 5.46296549017 0.830957523449 7
v 5.39907313932 0.652768202402 7
v 5.35073531589 0.469746013968 7
v 5.31830989622 0.283245990396 7
v 5.30203694678 0.09464891261 7
v 5.30203694678 -0.09464891261 7
v 5.31830989622 -0.283245990396 7
v 5.35073531589 -0.469746013968 7
v 5.39907313932 -0.652768202402 7
v 5.46296549017 -0.830957523449 7
v 5.54193933184 -1.00299472572 7
v 5.63540996964 -1.16760610596 7
v 5.74268537965 -1.32357293909 7
v 5.86297133228 -1.46974050127 7
v 5.99537727243 -1.60502661899 7
v 6.13892291282 -1.72842968117 7
v 6.29254549177 -1.83903605472 7
v 6.45510764145 -1.93602684874 7
v 6.62540580858 -2.01868397733 7
v 6.8021791651 -2.08639547603 7
v 6.98411894295 -2.13866003258 7
v 7.16987812364 -2.17509069851 7
v 7.35808141121 -2.1954177539 7
v 7.54733541436 -2.19949070436 7
v 7.73623896266 -2.18727939517 7
v 7.92339348034 -2.1588742346 7
v 8.10741334081 -2.11448552452 7
v 8.28693612543 -2.05444190341 7
v 8.4606327103 -1.97918791323 7
v 8.62721710668 -1.88928070821 7
v 8.78545598198 -1.78538592982 7
v 8.93417779093 -1.66827277865 7
v 9.07228144929 -1.53880831951 7
v 9.1987444859 -1.39795106196 7
v 9.31263061267 -1.24674386384 7
v 9.41309665656 -1.08630621035 7
v 9.49939880215 -0.917825925747 7
v 9.57089809853 -0.742550379107 7
v 9.62706518993 -0.561777249256 7
v 9.66748423486 -0.376844917199 7
v 9.69185598486 -0.189122557222 7
v 9.31895402636 1.2375 4.2
v 9.20782189472 1.38684691871 4.2
v 9.08446159853 1.52626388373 4.2
v 8.94975640907 1.65475265655 4.2
v 8.80467082808 1.77139324554 4.2
v 8.65024368191 1.87535049317 4.2
v 8.48758068335 1.96588005582 4.2
v 8.31784651472 2.04233373335 4.2
v 8.14225648852 2.10416411027 4.2
v 7.96206784578 2.15092847531 4.2
v 7.77857075403 2.18229199123 4.2
v 7.59307906963 2.19803009233 4.2
v 7.40692093037 2.19803009233 4.2
v 7.22142924597 2.18229199123 4.2
v 7.03793215422 2.15092847531 4.2
v 6.85774351148 2.10416411027 4.2
v 6.68215348528 2.04233373335 4.2
v 6.51241931665 1.96588005582 4.2
v 6.34975631809 1.87535049317 4.2
v 6.19532917192 1.77139324554 4.2
v 6.05024359093 1.65475265655 4.2
v 5.91553840147 1.52626388373 4.2
v 5.79217810528 1.38684691871 4.2
v 5.68104597364 1.2375 4.2
v 9.31895402636 1.2375 5.8
v 9.20782189472 1.38684691871 5.8
v 9.08446159853 1.52626388373 5.8
v 8.94975640907 1.65475265655 5.8
v 8.80467082808 1.77139324554 5.8
v 8.65024368191 1.87535049317 5.8
v 8.48758068335 1.96588005582 5.8
v 8.31784651472 2.04233373335 5.8
v 8.14225648852 2.10416411027 5.8
v 7.96206784578 2.15092847531 5.8
v 7.77857075403 2.18229199123 5.8
v 7.59307906963 2.19803009233 5.8
v 7.40692093037 2.19803009233 5.8
v 7.22142924597 2.18229199123 5.8
v 7.03793215422 2.15092847531 5.8
v 6.85774351148 2.10416411027 5.8
v 6.68215348528 2.04233373335 5.8
v 6.51241931665 1.96588005582 5.8
v 6.34975631809 1.87535049317 5.8
v 6.19532917192 1.77139324554 5.8
v 6.05024359093 1.65475265655 5.8
v 5.91553840147 1.52626388373 5.8
v 5.79217810528 1.38684691871 5.8
v 5.68104597364 1.2375 5.8
v 5.68104597364 -1.2375 4.2
v 5.79217810528 -1.38684691871 4.2
v 5.91553840147 -1.52626388373 4.2
v 6.05024359093 -1.65475265655 4.2
v 6.19532917192 -1.77139324554 4.2
v 6.34975631809 -1.87535049317 4.2
v 6.51241931665 -1.96588005582 4.2
v 6.68215348528 -2.04233373335 4.2
v 6.85774351148 -2.10416411027 4.2
v 7.03793215422 -2.15092847531 4.2
v 7.22142924597 -2.18229199123 4.2
v 7.40692093037 -2.19803009233 4.2
v 7.59307906963 -2.19803009233 4.2
v 7.77857075403 -2.18229199123 4.2
v 7.96206784578 -2.15092847531 4.2
v 8.14225648852 -2.10416411027 4.2
v 8.31784651472 -2.04233373335 4.2
v 8.48758068335 -1.96588005582 4.2
v 8.65024368191 -1.87535049317 4.2
v 8.80467082808 -1.77139324554 4.2
v 8.94975640907 -1.65475265655 4.2
v 9.08446159853 -1.52626388373 4.2
v 9.20782189472 -1.38684691871 4.2
v 9.31895402636 -1.2375 4.2
v 5.68104597364 -1.2375 5.8
v 5.79217810528 -1.38684691871 5.8
v 5.91553840147 -1.52626388373 5.8
v 6.05024359093 -1.65475265655 5.8
v 6.19532917192 -1.77139324554 5.8
v 6.34975631809 -1.87535049317 5.8
v 6.51241931665 -1.96588005582 5.8
v 6.68215348528 -2.04233373335 5.8
v 6.85774351148 -2.10416411027 5.8
v 7.03793215422 -2.15092847531 5.8
v 7.22142924597 -2.18229199123 5.8
v 7.40692093037 -2.19803009233 5.8
v 7.59307906963 -2.19803009233 5.8
v 7.77857075403 -2.18229199123 5.8
v 7.96206784578 -2.15092847531 5.8
v 8.14225648852 -2.10416411027 5.8
v 8.31784651472 -2.04233373335 5.8
v 8.48758068335 -1.96588005582 5.8
v 8.65024368191 -1.87535049317 5.8
v 8.80467082808 -1.77139324554 5.8
v 8.94975640907 -1.65475265655 5.8
v 9.08446159853 -1.52626388373 5.8
v 9.20782189472 -1.38684691871 5.8
v 9.31895402636 -1.2375 5.8
v 14.7 -5.38844591625e-16 7
v 14.6918559849 0.189122557222 7
v 14.6674842349 0.376844917199 7
v 14.6270651899 0.561777249256 7
v 14.5708980985 0.742550379107 7
v 14.4993988021 0.917825925747 7
v 14.4130966566 1.08630621035 7
v 14.3126306127 1.24674386384 7
v 14.1987444859 1.39795106196 7
v 14.0722814493 1.53880831951 7
v 13.9341777909 1.66827277865 7
v 13.785455982 1.78538592982 7
v 13.6272171067 1.88928070821 7
v 13.4606327103 1.97918791323 7
v 13.2869361254 2.05444190341 7
v 13.1074133408 2.11448552452 7
v 12.9233934803 2.1588742346 7
v 12.7362389627 2.18727939517 7
v 12.5473354144 2.19949070436 7
v 12.3580814112 2.1954177539 7
v 12.1698781236 2.17509069851 7
v 11.9841189429 2.13866003258 7
v 11.8021791651 2.08639547603 7
v 11.6254058086 2.01868397733 7
v 11.4551076415 1.93602684874 7
v 11.2925454918 1.83903605472 7
v 11.1389229128 1.72842968117 7
v 10.9953772724 1.60502661899 7
v 10.8629713323 1.46974050127 7
v 10.7426853796 1.32357293909 7
v 10.6354099696 1.16760610596 7
v 10.5419393318 1.00299472572 7
v 10.4629654902 0.830957523449 7
v 10.3990731393 0.652768202402 7
v 10.3507353159 0.469746013968 7
v 10.3183098962 0.283245990396 7
v 10.3020369468 0.09464891261 7
v 10.3020369468 -0.09464891261 7
v 10.3183098962 -0.283245990396 7
v 10.3507353159 -0.469746013968 7
v 10.3990731393 -0.652768202402 7
v 10.4629654902 -0.830957523449 7
v 10.5419393318 -1.00299472572 7
v 10.6354099696 -1.16760610596 7
v 10.7426853796 -1.32357293909 7
v 10.8629713323 -1.46974050127 7
v 10.9953772724 -1.60502661899 7
v 11.1389229128 -1.72842968117 7
v 11.2925454918 -1.83903605472 7
v 11.4551076415 -1.93602684874 7
v 11.6254058086 -2.01868397733 7
v 11.8021791651 -2.08639547603 7
v 11.9841189429 -2.13866003258 7
v 12.1698781236 -2.17509069851 7
v 12.3580814112 -2.1954177539 7
v 12.5473354144 -2.19949070436 7
v 12.7362389627 -2.18727939517 7
v 12.9233934803 -2.1588742346 7
v 13.1074133408 -2.11448552452 7
v 13.2869361254 -2.05444190341 7
v 13.4606327103 -1.97918791323 7
v 13.6272171067 -1.88928070821 7
v 13.785455982 -1.78538592982 7
v 13.9341777909 -1.66827277865 7
v 14.0722814493 -1.53880831951 7
v 14.1987444859 -1.39795106196 7
v 14.3126306127 -1.24674386384 7
v 14.4130966566 -1.08630621035 7
v 14.4993988021 -0.917825925747 7
v 14.5708980985 -0.742550379107 7
v 14.6270651899 -0.561777249256 7
v 14.6674842349 -0.376844917199 7
v 14.6918559849 -0.189122557222 7
v 14.3189540264 1.2375 4.2
v 14.2078218947 1.38684691871 4.2
v 14.0844615985 1.52626388373 4.2
v 13.9497564091 1.65475265655 4.2
v 13.8046708281 1.77139324554 4.2
v 13.6502436819 1.87535049317 4.2
v 13.4875806834 1.96588005582 4.2
v 13.3178465147 2.04233373335 4.2
v 13.1422564885 2.10416411027 4.2
v 12.9620678458 2.15092847531 4.2
v 12.778570754 2.18229199123 4.2
v 12.5930790696 2.19803009233 4.2
v 12.4069209304 2.19803009233 4.2
v 12.221429246 2.18229199123 4.2
v 12.0379321542 2.15092847531 4.2
v 11.8577435115 2.10416411027 4.2
v 11.6821534853 2.04233373335 4.2
v 11.5124193166 1.96588005582 4.2
v 11.3497563181 1.87535049317 4.2
v 11.1953291719 1.77139324554 4.2
v 11.0502435909 1.65475265655 4.2
v 10.9155384015 1.52626388373 4.2
v 10.7921781053 1.38684691871 4.2
v 10.6810459736 1.2375 4.2
v 14.3189540264 1.2375 5.8
v 14.2078218947 1.38684691871 5.8
v 14.0844615985 1.52626388373 5.8
v 13.9497564091 1.65475265655 5.8
v 13.8046708281 1.77139324554 5.8
v 13.6502436819 1.87535049317 5.8
v 13.4875806834 1.96588005582 5.8
v 13.3178465147 2.04233373335 5.8
v 13.1422564885 2.10416411027 5.8
v 12.9620678458 2.15092847531 5.8
v 12.778570754 2.18229199123 5.8
v 12.5930790696 2.19803009233 5.8
v 12.4069209304 2.19803009233 5.8
v 12.221429246 2.18229199123 5.8
v 12.0379321542 2.15092847531 5.8
v 11.8577435115 2.10416411027 5.8
v 11.6821534853 2.04233373335 5.8
v 11.5124193166 1.96588005582 5.8
v 11.3497563181 1.87535049317 5.8
v 11.1953291719 1.77139324554 5.8
v 11.0502435909 1.65475265655 5.8
v 10.9155384015 1.52626388373 5.8
v 10.7921781053 1.38684691871 5.8
v 10.6810459736 1.2375 5.8
v 10.6810459736 -1.2375 4.2
v 10.7921781053 -1.38684691871 4.2
v 10.9155384015 -1.52626388373 4.2
v 11.0502435909 -1.65475265655 4.2
v 11.1953291719 -1.77139324554 4.2
v 11.3497563181 -1.87535049317 4.2
v 11.5124193166 -1.96588005582 4.2
v 11.6821534853 -2.04233373335 4.2
v 11.8577435115 -2.10416411027 4.2
v 12.0379321542 -2.15092847531 4.2
v 12.221429246 -2.18229199123 4.2
v 12.4069209304 -2.19803009233 4.2
v 12.5930790696 -2.19803009233 4.2
v 12.778570754 -2.18229199123 4.2
v 12.9620678458 -2.15092847531 4.2
v 13.1422564885 -2.10416411027 4.2
v 13.3178465147 -2.04233373335 4.2
v 13.4875806834 -1.96588005582 4.2
v 13.6502436819 -1.87535049317 4.2
v 13.8046708281 -1.77139324554 4.2
v 13.9497564091 -1.65475265655 4.2
v 14.0844615985 -1.52626388373 4.2
v 14.2078218947 -1.38684691871 4.2
v 14.3189540264 -1.2375 4.2
v 10.6810459736 -1.2375 5.8
v 10.7921781053 -1.38684691871 5.8
v 10.9155384015 -1.52626388373 5.8
v 11.0502435909 -1.65475265655 5.8
v 11.1953291719 -1.77139324554 5.8
v 11.3497563181 -1.87535049317 5.8
v 11.5124193166 -1.96588005582 5.8
v 11.6821534853 -2.04233373335 5.8
v 11.8577435115 -2.10416411027 5.8
v 12.0379321542 -2.15092847531 5.8
v 12.221429246 -2.18229199123 5.8
v 12.4069209304 -2.19803009233 5.8
v 12.5930790696 -2.19803009233 5.8
v 12.778570754 -2.18229199123 5.8
v 12.9620678458 -2.15092847531 5.8
v 13.1422564885 -2.10416411027 5.8
v 13.3178465147 -2.04233373335 5.8
v 13.4875806834 -1.96588005582 5.8
v 13.6502436819 -1.87535049317 5.8
v 13.8046708281 -1.77139324554 5.8
v 13.9497564091 -1.65475265655 5.8
v 14.0844615985 -1.52626388373 5.8
v 14.2078218947 -1.38684691871 5.8
v 14.3189540264 -1.2375 5.8
v 22.3 -5.63337527608e-16 7
v 22.2914858023 0.197719037096 7
v 22.2660062455 0.393974231617 7
v 22.2237499713 0.587312578767 7
v 22.1650298303 0.776302669066 7
v 22.0902805659 0.959545286008 7
v 22.0000555955 1.13568376537 7
v 21.8950229132 1.30341403947 7
v 21.7759601443 1.46149429205 7
v 21.6437487879 1.60875415222 7
v 21.4993676905 1.7441033595 7
v 21.3438857993 1.86653983572 7
v 21.1784542479 1.97515710403 7
v 21.0042978335 2.0691510002 7
v 20.8227059493 2.14782562629 7
v 20.6350230381 2.21059850291 7
v 20.4426386385 2.25700488162 7
v 20.2469770973 2.28670118586 7
v 20.0494870241 2.29946755455 7
v 19.8516305663 2.29520946999 7
v 19.6548725838 2.27395845753 7
v 19.460669804 2.23587185225 7
v 19.2704600362 2.18123163403 7
v 19.0856515272 2.11044233994 7
v 18.9076125342 2.02402806914 7
v 18.7376611959 1.92262860266 7
v 18.5770557725 1.80699466668 7
v 18.4269853303 1.6779823744 7
v 18.2885609383 1.53654688769 7
v 18.1628074424 1.38373534542 7
v 18.0506558773 1.22067911077 7
v 17.9529365742 1.04858539507 7
v 17.8703730125 0.868728319969 7
v 17.8035764638 0.682439484329 7
v 17.7530414666 0.491098105512 7
v 17.7191421642 0.296120808141 7
v 17.7021295353 0.0989511359104 7
v 17.7021295353 -0.0989511359104 7
v 17.7191421642 -0.296120808141 7
v 17.7530414666 -0.491098105512 7
v 17.8035764638 -0.682439484329 7
v 17.8703730125 -0.868728319969 7
v 17.9529365742 -1.04858539507 7
v 18.0506558773 -1.22067911077 7
v 18.1628074424 -1.38373534542 7
v 18.2885609383 -1.53654688769 7
v 18.4269853303 -1.6779823744 7
v 18.5770557725 -1.80699466668 7
v 18.7376611959 -1.92262860266 7
v 18.9076125342 -2.02402806914 7
v 19.0856515272 -2.11044233994 7
v 19.2704600362 -2.18123163403 7
v 19.460669804 -2.23587185225 7
v 19.6548725838 -2.27395845753 7
v 19.8516305663 -2.29520946999 7
v 20.0494870241 -2.29946755455 7
v 20.2469770973 -2.28670118586 7
v 20.4426386385 -2.25700488162 7
v 20.6350230381 -2.21059850291 7
v 20.8227059493 -2.14782562629 7
v 21.0042978335 -2.0691510002 7
v 21.1784542479 -1.97515710403 7
v 21.3438857993 -1.86653983572 7
v 21.4993676905 -1.7441033595 7
v 21.6437487879 -1.60875415222 7
v 21.7759601443 -1.46149429205 7
v 21.8950229132 -1.30341403947 7
v 22.0000555955 -1.13568376537 7
v 22.0902805659 -0.959545286008 7
v 22.1650298303 -0.776302669066 7
v 22.2237499713 -0.587312578767 7
v 22.2660062455 -0.393974231617 7
v 22.2914858023 -0.197719037096 7
v 15.6104053907 2.39404660903 4.2
v 15.4269048738 2.02158377678 4.2
v 15.274940604 1.63518002184 4.2
v 15.1555605329 1.2375 4.2
v 15.1555605329 1.2375 5.8
v 15.8241767279 2.75 5.8
v 15.6104053907 2.39404660903 5.8
v 15.4269048738 2.02158377678 5.8
v 15.274940604 1.63518002184 5.8
v 15.8241767279 2.75 6.4
v 24.1758232721 2.75 6.4
v 23.9243350217 3.09832126119 6.4
v 23.6438735563 3.42376773535 6.4
v 23.3365095122 3.72393666364 6.4
v 23.0045121464 3.99661191037 6.4
v 22.6503325826 4.23978032467 6.4
v 22.2765857151 4.45164660345 6.4
v 21.8860309025 4.6306465461 6.4
v 21.4815515961 4.77545860291 6.4
v 21.0661340511 4.88501363203 6.4
v 20.6428452793 4.95850279287 6.4
v 20.2148104054 4.99538351778 6.4
v 19.7851895946 4.99538351778 6.4
v 19.3571547207 4.95850279287 6.4
v 18.9338659489 4.88501363203 6.4
v 18.5184484039 4.77545860291 6.4
v 18.1139690975 4.6306465461 6.4
v 17.7234142849 4.45164660345 6.4
v 17.3496674174 4.23978032467 6.4
v 16.9954878536 3.99661191037 6.4
v 16.6634904878 3.72393666364 6.4
v 16.3561264437 3.42376773535 6.4
v 16.0756649783 3.09832126119 6.4
v 24.1758232721 2.75 5.8
v 24.8444394671 1.2375 5.8
v 24.725059396 1.63518002184 5.8
v 24.5730951262 2.02158377678 5.8
v 24.3895946093 2.39404660903 5.8
v 24.8444394671 1.2375 4.2
v 24.725059396 1.63518002184 4.2
v 24.5730951262 2.02158377678 4.2
v 24.3895946093 2.39404660903 4.2
v 4.84443946706 1.2375 4.2
v 4.72505939605 1.63518002184 4.2
v 4.57309512622 2.02158377678 4.2
v 4.38959460928 2.39404660903 4.2
v -4.38959460928 2.39404660903 4.2
v -4.57309512622 2.02158377678 4.2
v -4.72505939605 1.63518002184 4.2
v -4.84443946706 1.2375 4.2
v -4.84443946706 1.2375 5.8
v -4.17582327212 2.75 5.8
v -4.38959460928 2.39404660903 5.8
v -4.57309512622 2.02158377678 5.8
v -4.72505939605 1.63518002184 5.8
v -4.17582327212 2.75 6.4
v 4.17582327212 2.75 6.4
v 3.92433502169 3.09832126119 6.4
v 3.64387355631 3.42376773535 6.4
v 3.33650951224 3.72393666364 6.4
v 3.0045121464 3.99661191037 6.4
v 2.65033258263 4.23978032467 6.4
v 2.27658571506 4.45164660345 6.4
v 1.88603090248 4.6306465461 6.4
v 1.48155159608 4.77545860291 6.4
v 1.06613405108 4.88501363203 6.4
v 0.642845279268 4.95850279287 6.4
v 0.214810405417 4.99538351778 6.4
v -0.214810405417 4.99538351778 6.4
v -0.642845279268 4.95850279287 6.4
v -1.06613405108 4.88501363203 6.4
v -1.48155159608 4.77545860291 6.4
v -1.88603090248 4.6306465461 6.4
v -2.27658571506 4.45164660345 6.4
v -2.65033258263 4.23978032467 6.4
v -3.0045121464 3.99661191037 6.4
v -3.33650951224 3.72393666364 6.4
v -3.64387355631 3.42376773535 6.4
v -3.92433502169 3.09832126119 6.4
v 4.17582327212 2.75 5.8
v 4.84443946706 1.2375 5.8
v 4.72505939605 1.63518002184 5.8
v 4.57309512622 2.02158377678 5.8
v 4.38959460928 2.39404660903 5.8
v -3.43474889912 2.75 7
v -3.61127771682 2.75 6.86085616575
v -3.79344199816 2.75 6.71462891615
v -3.98152601377 2.75 6.56109006094
v 23.4347488991 2.75 7
v 23.1879657915 3.03263484655 7
v 22.9180000537 3.29321661706 7
v 22.6268148548 3.52985038192 7
v 22.3165276701 3.74081535946 7
v 21.9893948831 3.92457742939 7
v 21.6477953768 4.07980028874 7
v 21.2942132355 4.20535516942 7
v 20.93121968 4.30032904644 7
v 20.56145437 4.36403127744 7
v 20.1876062091 4.39599862492 7
v 19.8123937909 4.39599862492 7
v 19.43854563 4.36403127744 7
v 19.06878032 4.30032904644 7
v 18.7057867645 4.20535516942 7
v 18.3522046232 4.07980028874 7
v 18.0106051169 3.92457742939 7
v 17.6834723299 3.74081535946 7
v 17.3731851452 3.52985038192 7
v 17.0819999463 3.29321661706 7
v 16.8120342085 3.03263484655 7
v 16.5652511009 2.75 7
v 3.43474889912 2.75 7
v 3.18796579146 3.03263484655 7
v 2.91800005365 3.29321661706 7
v 2.62681485478 3.52985038192 7
v 2.31652767012 3.74081535946 7
v 1.98939488306 3.92457742939 7
v 1.64779537685 4.07980028874 7
v 1.29421323554 4.20535516942 7
v 0.931219679957 4.30032904644 7
v 0.561454369959 4.36403127744 7
v 0.18760620906 4.39599862492 7
v -0.187606209061 4.39599862492 7
v -0.561454369959 4.36403127744 7
v -0.931219679957 4.30032904644 7
v -1.29421323554 4.20535516942 7
v -1.64779537685 4.07980028874 7
v -1.98939488306 3.92457742939 7
v -2.31652767012 3.74081535946 7
v -2.62681485478 3.52985038192 7
v -2.91800005365 3.29321661706 7
v -3.18796579146 3.03263484655 7
v -3.43474889912 -2.75 7
v -3.18796579146 -3.03263484655 7
v -2.91800005365 -3.29321661706 7
v -2.62681485478 -3.52985038192 7
v -2.31652767012 -3.74081535946 7
v -1.98939488306 -3.92457742939 7
v -1.64779537685 -4.07980028874 7
v -1.29421323554 -4.20535516942 7
v -0.931219679957 -4.30032904644 7
v -0.561454369959 -4.36403127744 7
v -0.187606209061 -4.39599862492 7
v 0.18760620906 -4.39599862492 7
v 0.561454369959 -4.36403127744 7
v 0.931219679957 -4.30032904644 7
v 1.29421323554 -4.20535516942 7
v 1.64779537685 -4.07980028874 7
v 1.98939488306 -3.92457742939 7
v 2.31652767012 -3.74081535946 7
v 2.62681485478 -3.52985038192 7
v 2.91800005365 -3.29321661706 7
v 3.18796579146 -3.03263484655 7
v 3.43474889912 -2.75 7
v 16.5652511009 -2.75 7
v 16.8120342085 -3.03263484655 7
v 17.0819999463 -3.29321661706 7
v 17.3731851452 -3.52985038192 7
v 17.6834723299 -3.74081535946 7
v 18.0106051169 -3.92457742939 7
v 18.3522046232 -4.07980028874 7
v 18.7057867645 -4.20535516942 7
v 19.06878032 -4.30032904644 7
v 19.43854563 -4.36403127744 7
v 19.8123937909 -4.39599862492 7
v 20.1876062091 -4.39599862492 7
v 20.56145437 -4.36403127744 7
v 20.93121968 -4.30032904644 7
v 21.2942132355 -4.20535516942 7
v 21.6477953768 -4.07980028874 7
v 21.9893948831 -3.92457742939 7
v 22.3165276701 -3.74081535946 7
v 22.6268148548 -3.52985038192 7
v 22.9180000537 -3.29321661706 7
v 23.1879657915 -3.03263484655 7
v 23.4347488991 -2.75 7
v -4.17582327212 -2.75 5.8
v -3.61127771682 -2.75 6.86085616575
v -3.79344199816 -2.75 6.71462891615
v -3.98152601377 -2.75 6.56109006094
v -4.17582327212 -2.75 6.4
v -4.84443946706 -1.2375 5.8
v -4.72505939605 -1.63518002184 5.8
v -4.57309512622 -2.02158377678 5.8
v -4.38959460928 -2.39404660903 5.8
v -4.84443946706 -1.2375 4.2
v -4.72505939605 -1.63518002184 4.2
v -4.57309512622 -2.02158377678 4.2
v -4.38959460928 -2.39404660903 4.2
v 23.9815260138 2.75 6.56109006094
v 23.7934419982 2.75 6.71462891615
v 23.6112777168 2.75 6.86085616575
v 24.1758232721 -2.75 5.8
v 24.1758232721 -2.75 6.4
v 23.9815260138 -2.75 6.56109006094
v 23.7934419982 -2.75 6.71462891615
v 23.6112777168 -2.75 6.86085616575
v 24.3895946093 -2.39404660903 5.8
v 24.5730951262 -2.02158377678 5.8
v 24.725059396 -1.63518002184 5.8
v 24.8444394671 -1.2375 5.8
v 24.8444394671 -1.2375 4.2
v 24.3895946093 -2.39404660903 4.2
v 24.5730951262 -2.02158377678 4.2
v 24.725059396 -1.63518002184 4.2
v 4.38959460928 -2.39404660903 4.2
v 4.57309512622 -2.02158377678 4.2
v 4.72505939605 -1.63518002184 4.2
v 4.84443946706 -1.2375 4.2
v 4.84443946706 -1.2375 5.8
v 4.17582327212 -2.75 5.8
v 4.38959460928 -2.39404660903 5.8
v 4.57309512622 -2.02158377678 5.8
v 4.72505939605 -1.63518002184 5.8
v 4.17582327212 -2.75 6.4
v -3.92433502169 -3.09832126119 6.4
v -3.64387355631 -3.42376773535 6.4
v -3.33650951224 -3.72393666364 6.4
v -3.0045121464 -3.99661191037 6.4
v -2.65033258263 -4.23978032467 6.4
v -2.27658571506 -4.45164660345 6.4
v -1.88603090248 -4.6306465461 6.4
v -1.48155159608 -4.77545860291 6.4
v -1.06613405108 -4.88501363203 6.4
v -0.642845279268 -4.95850279287 6.4
v -0.214810405417 -4.99538351778 6.4
v 0.214810405417 -4.99538351778 6.4
v 0.642845279268 -4.95850279287 6.4
v 1.06613405108 -4.88501363203 6.4
v 1.48155159608 -4.77545860291 6.4
v 1.88603090248 -4.6306465461 6.4
v 2.27658571506 -4.45164660345 6.4
v 2.65033258263 -4.23978032467 6.4
v 3.0045121464 -3.99661191037 6.4
v 3.33650951224 -3.72393666364 6.4
v 3.64387355631 -3.42376773535 6.4
v 3.92433502169 -3.09832126119 6.4
v 15.8241767279 -2.75 6.4
v 16.0756649783 -3.09832126119 6.4
v 16.3561264437 -3.42376773535 6.4
v 16.6634904878 -3.72393666364 6.4
v 16.9954878536 -3.99661191037 6.4
v 17.3496674174 -4.23978032467 6.4
v 17.7234142849 -4.45164660345 6.4
v 18.1139690975 -4.6306465461 6.4
v 18.5184484039 -4.77545860291 6.4
v 18.9338659489 -4.88501363203 6.4
v 19.3571547207 -4.95850279287 6.4
v 19.7851895946 -4.99538351778 6.4
v 20.2148104054 -4.99538351778 6.4
v 20.6428452793 -4.95850279287 6.4
v 21.0661340511 -4.88501363203 6.4
v 21.4815515961 -4.77545860291 6.4
v 21.8860309025 -4.6306465461 6.4
v 22.2765857151 -4.45164660345 6.4
v 22.6503325826 -4.23978032467 6.4
v 23.0045121464 -3.99661191037 6.4
v 23.3365095122 -3.72393666364 6.4
v 23.6438735563 -3.42376773535 6.4
v 23.9243350217 -3.09832126119 6.4
v 15.8241767279 -2.75 5.8
v 15.1555605329 -1.2375 5.8
v 15.274940604 -1.63518002184 5.8
v 15.4269048738 -2.02158377678 5.8
v 15.6104053907 -2.39404660903 5.8
v 15.1555605329 -1.2375 4.2
v 15.274940604 -1.63518002184 4.2
v 15.4269048738 -2.02158377678 4.2
v 15.6104053907 -2.39404660903 4.2
v 16.3887222832 2.75 6.86085616575
v 16.2065580018 2.75 6.71462891615
v 16.0184739862 2.75 6.56109006094
v 3.98152601377 2.75 6.56109006094
v 3.79344199816 2.75 6.71462891615
v 3.61127771682 2.75 6.86085616575
v 16.3887222832 -2.75 6.86085616575
v 16.2065580018 -2.75 6.71462891615
v 16.0184739862 -2.75 6.56109006094
v 3.98152601377 -2.75 6.56109006094
v 3.79344199816 -2.75 6.71462891615
v 3.61127771682 -2.75 6.86085616575
f 139 28 27
f 138 139 27
f 138 27 26
f 140 28 139
f 140 29 28
f 137 138 26
f 141 29 140
f 141 30 29
f 136 137 26
f 142 30 141
f 142 31 30
f 135 136 26
f 143 32 31
f 143 31 142
f 134 135 26
f 144 32 143
f 144 33 32
f 133 134 26
f 145 33 144
f 145 34 33
f 132 26 25
f 132 133 26
f 146 35 34
f 146 34 145
f 131 132 25
f 147 35 146
f 147 36 35
f 130 131 25
f 148 37 36
f 148 36 147
f 129 25 24
f 129 130 25
f 149 38 37
f 149 37 148
f 128 129 24
f 150 39 38
f 150 38 149
f 127 128 24
f 151 40 39
f 151 39 150
f 152 41 40
f 152 40 151
f 153 42 41
f 153 41 152
f 154 43 42
f 154 42 153
f 23 123 124
f 23 124 125
f 23 125 126
f 23 126 127
f 23 127 24
f 155 44 43
f 155 43 154
f 122 123 23
f 156 45 44
f 156 44 155
f 121 122 23
f 22 121 23
f 157 45 156
f 120 121 22
f 46 45 157
f 158 46 157
f 21 120 22
f 119 120 21
f 47 46 158
f 47 158 159
f 160 47 159
f 20 119 21
f 20 118 119
f 161 47 160
f 162 47 161
f 19 117 118
f 19 118 20
f 163 47 162
f 18 116 117
f 18 117 19
f 17 115 116
f 17 116 18
f 16 114 115
f 16 115 17
f 15 113 114
f 15 114 16
f 14 112 113
f 14 113 15
f 13 111 112
f 13 112 14
f 211 212 47
f 213 47 212
f 210 211 47
f 214 47 213
f 209 210 47
f 215 47 214
f 208 209 47
f 12 110 111
f 12 111 13
f 216 47 215
f 207 208 47
f 206 207 47
f 206 47 163
f 205 206 163
f 205 163 164
f 11 109 110
f 11 110 12
f 204 205 164
f 204 164 165
f 203 204 165
f 203 165 93
f 10 108 109
f 10 109 11
f 202 203 93
f 202 93 94
f 9 107 108
f 9 108 10
f 201 202 94
f 201 94 95
f 8 106 107
f 8 107 9
f 200 201 95
f 200 95 96
f 7 105 106
f 7 106 8
f 199 200 96
f 6 104 105
f 6 105 7
f 5 103 104
f 5 104 6
f 1 199 96
f 1 96 97
f 1 97 98
f 1 98 99
f 1 99 100
f 1 100 101
f 4 102 103
f 4 103 5
f 3 101 102
f 3 102 4
f 3 1 101
f 198 199 1
f 197 198 1
f 196 197 1
f 195 196 1
f 194 195 1
f 193 194 1
f 192 193 1
f 191 192 1
f 190 191 1
f 189 190 1
f 285 229 230
f 284 230 231
f 284 285 230
f 286 228 229
f 286 229 285
f 283 284 231
f 283 231 232
f 287 227 228
f 287 228 286
f 282 283 232
f 282 232 233
f 288 226 227
f 288 227 287
f 281 233 234
f 281 282 233
f 289 226 288
f 289 225 226
f 280 281 234
f 280 234 235
f 290 224 225
f 290 225 289
f 279 235 236
f 279 280 235
f 291 223 224
f 291 224 290
f 278 279 236
f 278 236 237
f 292 222 223
f 292 223 291
f 277 237 238
f 277 278 237
f 276 238 166
f 276 277 238
f 275 166 167
f 275 276 166
f 274 275 167
f 274 167 168
f 273 274 168
f 273 168 169
f 272 169 170
f 272 273 169
f 271 170 171
f 271 272 170
f 270 271 171
f 270 171 172
f 269 270 172
f 269 172 173
f 268 269 173
f 268 173 174
f 267 268 174
f 267 174 175
f 266 175 176
f 266 267 175
f 265 266 176
f 265 176 177
f 264 265 177
f 264 177 178
f 263 264 178
f 263 178 179
f 262 263 179
f 262 179 180
f 48 303 304
f 48 304 305
f 48 305 306
f 48 306 307
f 48 298 299
f 48 299 300
f 48 300 301
f 48 301 302
f 48 302 303
f 308 48 307
f 261 262 180
f 261 180 181
f 309 48 308
f 260 261 181
f 260 181 182
f 259 260 182
f 259 182 183
f 358 50 49
f 357 49 48
f 357 358 49
f 359 51 50
f 359 50 358
f 356 357 48
f 360 51 359
f 360 52 51
f 355 356 48
f 361 53 52
f 361 52 360
f 354 355 48
f 362 53 361
f 362 54 53
f 353 354 48
f 363 55 54
f 363 54 362
f 352 353 48
f 352 48 309
f 364 56 55
f 364 55 363
f 351 309 310
f 351 352 309
f 365 57 56
f 365 56 364
f 350 351 310
f 350 310 311
f 366 57 365
f 366 58 57
f 349 311 239
f 349 350 311
f 367 59 58
f 367 58 366
f 348 239 240
f 348 349 239
f 368 59 367
f 368 60 59
f 347 240 241
f 347 348 240
f 369 60 368
f 369 61 60
f 346 241 242
f 346 347 241
f 370 62 61
f 370 61 369
f 345 346 242
f 371 63 62
f 371 62 370
f 372 63 371
f 372 64 63
f 373 65 64
f 373 64 372
f 2 342 343
f 2 242 243
f 2 343 344
f 2 344 345
f 2 243 244
f 2 244 245
f 2 245 246
f 2 246 247
f 2 247 248
f 2 248 249
f 2 249 250
f 2 250 251
f 2 251 252
f 2 252 253
f 2 345 242
f 374 65 373
f 374 66 65
f 341 342 2
f 375 66 374
f 375 67 66
f 340 341 2
f 92 340 2
f 376 67 375
f 339 340 92
f 68 67 376
f 377 68 376
f 91 339 92
f 338 339 91
f 69 68 377
f 69 377 378
f 379 69 378
f 90 337 338
f 90 338 91
f 380 69 379
f 381 69 380
f 89 336 337
f 89 337 90
f 382 69 381
f 383 69 382
f 88 335 336
f 88 336 89
f 70 69 383
f 70 383 384
f 312 70 384
f 87 334 335
f 87 335 88
f 86 333 334
f 86 334 87
f 85 332 333
f 85 333 86
f 84 331 332
f 84 332 85
f 83 331 84
f 83 330 331
f 82 330 83
f 82 329 330
f 81 329 82
f 81 328 329
f 80 328 81
f 80 327 328
f 79 327 80
f 79 326 327
f 78 325 326
f 78 326 79
f 77 324 325
f 77 325 78
f 76 323 324
f 76 324 77
f 75 323 76
f 75 322 323
f 72 314 315
f 72 315 316
f 72 316 317
f 72 317 318
f 72 318 319
f 72 319 320
f 74 321 322
f 74 322 75
f 73 320 321
f 73 72 320
f 73 321 74
f 71 312 313
f 71 313 314
f 71 70 312
f 71 314 72
f 2 257 1
f 257 258 1
f 258 259 1
f 259 183 1
f 183 184 1
f 184 185 1
f 185 186 1
f 186 187 1
f 187 188 1
f 188 189 1
f 2 256 257
f 2 255 256
f 2 254 255
f 2 253 254
f 47 221 48
f 221 222 48
f 222 293 48
f 293 294 48
f 294 295 48
f 295 296 48
f 296 297 48
f 297 298 48
f 47 220 221
f 47 219 220
f 47 218 219
f 47 217 218
f 47 216 217
f 222 292 293
f 392 386 387
f 392 387 388
f 392 388 391
f 393 385 386
f 393 386 392
f 394 385 393
f 390 388 389
f 390 391 388
f 2 1 385
f 2 385 394
f 395 388 387
f 386 395 387
f 396 395 386
f 385 396 386
f 3 385 1
f 3 397 396
f 3 396 385
f 4 398 397
f 4 397 3
f 5 399 398
f 5 398 4
f 6 400 399
f 6 399 5
f 7 401 400
f 7 400 6
f 8 402 401
f 8 401 7
f 9 403 402
f 9 402 8
f 10 404 403
f 10 403 9
f 11 404 10
f 11 405 404
f 12 405 11
f 12 406 405
f 13 406 12
f 14 406 13
f 14 407 406
f 15 408 407
f 15 407 14
f 16 409 408
f 16 408 15
f 17 409 16
f 17 410 409
f 18 411 410
f 18 410 17
f 19 412 411
f 19 411 18
f 20 413 412
f 20 412 19
f 21 414 413
f 21 413 20
f 22 415 414
f 22 414 21
f 418 417 416
f 419 418 416
f 419 416 415
f 420 415 22
f 420 419 415
f 23 420 22
f 425 424 423
f 422 425 423
f 426 425 422
f 421 426 422
f 73 421 72
f 73 427 426
f 73 426 421
f 74 428 427
f 74 427 73
f 75 429 428
f 75 428 74
f 76 430 429
f 76 429 75
f 77 431 430
f 77 430 76
f 78 432 431
f 78 431 77
f 79 433 432
f 79 432 78
f 80 434 433
f 80 433 79
f 81 434 80
f 81 435 434
f 82 435 81
f 82 436 435
f 83 436 82
f 84 436 83
f 84 437 436
f 85 438 437
f 85 437 84
f 86 439 438
f 86 438 85
f 87 439 86
f 87 440 439
f 88 441 440
f 88 440 87
f 89 442 441
f 89 441 88
f 90 443 442
f 90 442 89
f 91 444 443
f 91 443 90
f 92 445 444
f 92 444 91
f 392 391 446
f 393 392 446
f 393 446 445
f 394 445 92
f 394 393 445
f 2 394 92
f 417 24 447
f 418 24 417
f 419 24 418
f 420 24 419
f 23 24 420
f 448 417 447
f 71 72 421
f 71 421 422
f 71 422 423
f 71 423 424
f 450 424 449
f 450 71 424
f 452 447 24
f 460 452 24
f 461 452 460
f 453 455 454
f 459 461 460
f 25 460 24
f 25 459 460
f 462 453 452
f 462 452 461
f 463 455 453
f 463 453 462
f 451 459 25
f 458 463 462
f 458 461 459
f 458 462 461
f 456 458 457
f 456 455 463
f 456 463 458
f 465 71 450
f 473 71 465
f 474 473 465
f 466 467 468
f 472 473 474
f 70 71 473
f 70 473 472
f 475 465 466
f 475 474 465
f 475 472 474
f 476 466 468
f 476 475 466
f 464 70 472
f 471 475 476
f 471 472 475
f 469 470 471
f 469 476 468
f 469 471 476
f 478 451 25
f 479 478 25
f 480 479 25
f 481 480 25
f 26 481 25
f 477 451 478
f 70 482 69
f 70 483 482
f 70 484 483
f 70 485 484
f 464 486 485
f 464 485 70
f 487 478 479
f 480 487 479
f 488 487 480
f 481 488 480
f 27 489 488
f 27 481 26
f 27 488 481
f 28 490 489
f 28 489 27
f 29 491 490
f 29 490 28
f 30 492 491
f 30 491 29
f 31 493 492
f 31 492 30
f 32 494 493
f 32 493 31
f 33 495 494
f 33 494 32
f 34 496 495
f 34 495 33
f 35 496 34
f 35 497 496
f 36 497 35
f 37 497 36
f 37 498 497
f 38 499 498
f 38 498 37
f 39 500 499
f 39 499 38
f 40 501 500
f 40 500 39
f 41 502 501
f 41 501 40
f 42 503 502
f 42 502 41
f 43 504 503
f 43 503 42
f 44 505 504
f 44 504 43
f 45 506 505
f 45 505 44
f 46 507 506
f 46 506 45
f 512 509 508
f 511 508 507
f 511 512 508
f 510 507 46
f 510 511 507
f 47 510 46
f 514 513 536
f 537 514 536
f 515 514 537
f 538 515 537
f 49 516 515
f 49 538 48
f 49 515 538
f 50 517 516
f 50 516 49
f 51 518 517
f 51 517 50
f 52 519 518
f 52 518 51
f 53 520 519
f 53 519 52
f 54 521 520
f 54 520 53
f 55 522 521
f 55 521 54
f 56 523 522
f 56 522 55
f 57 523 56
f 57 524 523
f 58 524 57
f 59 524 58
f 59 525 524
f 60 526 525
f 60 525 59
f 61 527 526
f 61 526 60
f 62 528 527
f 62 527 61
f 63 529 528
f 63 528 62
f 64 530 529
f 64 529 63
f 65 531 530
f 65 530 64
f 66 532 531
f 66 531 65
f 67 533 532
f 67 532 66
f 68 534 533
f 68 533 67
f 484 485 535
f 483 535 534
f 483 484 535
f 482 534 68
f 482 483 534
f 69 482 68
f 536 512 511
f 536 509 512
f 536 513 509
f 537 511 510
f 537 536 511
f 538 537 510
f 540 539 509
f 540 509 513
f 48 510 47
f 48 538 510
f 542 93 541
f 542 94 93
f 543 94 542
f 543 95 94
f 543 96 95
f 544 96 543
f 545 96 544
f 545 97 96
f 546 97 545
f 546 98 97
f 547 98 546
f 547 99 98
f 547 100 99
f 548 101 100
f 548 100 547
f 549 101 548
f 550 102 101
f 550 101 549
f 551 103 102
f 551 104 103
f 551 102 550
f 552 104 551
f 553 104 552
f 553 105 104
f 554 105 553
f 554 106 105
f 554 107 106
f 555 107 554
f 556 107 555
f 556 108 107
f 557 108 556
f 557 109 108
f 558 109 557
f 558 110 109
f 559 110 558
f 559 111 110
f 560 111 559
f 560 112 111
f 561 112 560
f 561 113 112
f 562 113 561
f 562 114 113
f 563 114 562
f 563 115 114
f 564 115 563
f 564 116 115
f 565 116 564
f 565 117 116
f 566 117 565
f 566 118 117
f 567 120 119
f 567 118 566
f 567 119 118
f 568 120 567
f 569 121 120
f 569 120 568
f 570 122 121
f 570 121 569
f 571 123 122
f 571 122 570
f 572 124 123
f 572 123 571
f 573 125 124
f 573 126 125
f 573 124 572
f 574 126 573
f 575 127 126
f 575 126 574
f 576 128 127
f 576 129 128
f 576 127 575
f 577 129 576
f 578 130 129
f 578 129 577
f 579 130 578
f 579 131 130
f 579 132 131
f 580 132 579
f 580 133 132
f 581 133 580
f 582 134 133
f 582 133 581
f 583 134 582
f 583 135 134
f 584 136 135
f 584 135 583
f 585 137 136
f 585 138 137
f 585 136 584
f 586 138 585
f 587 139 138
f 587 138 586
f 588 140 139
f 588 139 587
f 589 141 140
f 589 140 588
f 590 142 141
f 590 141 589
f 591 143 142
f 591 142 590
f 592 144 143
f 592 143 591
f 593 145 144
f 593 144 592
f 594 146 145
f 594 145 593
f 595 147 146
f 595 148 147
f 595 146 594
f 596 148 595
f 597 149 148
f 597 150 149
f 597 148 596
f 598 150 597
f 599 151 150
f 599 150 598
f 600 152 151
f 600 151 599
f 601 153 152
f 601 154 153
f 601 152 600
f 602 154 601
f 603 155 154
f 603 154 602
f 604 155 603
f 604 156 155
f 605 156 604
f 605 157 156
f 606 157 605
f 606 158 157
f 606 159 158
f 607 159 606
f 608 159 607
f 608 160 159
f 609 160 608
f 609 161 160
f 609 162 161
f 610 162 609
f 611 162 610
f 611 163 162
f 612 163 611
f 612 164 163
f 613 164 612
f 613 165 164
f 541 165 613
f 541 93 165
f 615 166 614
f 615 167 166
f 616 167 615
f 616 168 167
f 616 169 168
f 617 169 616
f 618 169 617
f 618 170 169
f 619 170 618
f 619 171 170
f 687 173 172
f 620 171 619
f 620 172 171
f 711 687 172
f 711 172 620
f 688 173 687
f 688 174 173
f 621 711 620
f 712 711 621
f 689 174 688
f 689 175 174
f 622 712 621
f 713 712 622
f 690 176 175
f 690 175 689
f 623 713 622
f 714 713 623
f 691 177 176
f 691 176 690
f 624 714 623
f 715 714 624
f 692 177 691
f 692 178 177
f 625 715 624
f 716 715 625
f 693 178 692
f 693 179 178
f 626 716 625
f 717 716 626
f 694 179 693
f 694 180 179
f 627 717 626
f 718 717 627
f 695 180 694
f 695 181 180
f 628 718 627
f 719 718 628
f 696 181 695
f 696 182 181
f 629 719 628
f 720 719 629
f 697 182 696
f 697 183 182
f 630 720 629
f 721 720 630
f 698 183 697
f 698 184 183
f 631 721 630
f 722 721 631
f 699 184 698
f 699 185 184
f 632 722 631
f 723 722 632
f 700 185 699
f 700 186 185
f 633 723 632
f 724 723 633
f 701 186 700
f 701 187 186
f 634 724 633
f 725 724 634
f 702 187 701
f 702 188 187
f 635 725 634
f 726 725 635
f 703 188 702
f 703 189 188
f 636 726 635
f 727 726 636
f 704 189 703
f 704 190 189
f 637 727 636
f 728 727 637
f 705 190 704
f 705 191 190
f 638 728 637
f 729 728 638
f 706 191 705
f 706 192 191
f 639 729 638
f 730 729 639
f 707 193 192
f 707 192 706
f 640 730 639
f 731 730 640
f 708 194 193
f 708 193 707
f 641 731 640
f 641 732 731
f 709 195 194
f 709 194 708
f 642 732 641
f 642 733 732
f 710 196 195
f 710 195 709
f 197 196 710
f 643 733 642
f 643 734 733
f 644 734 643
f 645 197 710
f 645 734 644
f 645 710 734
f 646 198 197
f 646 199 198
f 646 197 645
f 647 199 646
f 648 200 199
f 648 199 647
f 649 201 200
f 649 202 201
f 649 200 648
f 650 202 649
f 651 203 202
f 651 202 650
f 652 204 203
f 652 205 204
f 652 203 651
f 653 206 205
f 653 205 652
f 654 206 653
f 655 206 654
f 655 207 206
f 656 207 655
f 656 208 207
f 735 209 208
f 735 210 209
f 759 208 656
f 759 735 208
f 657 759 656
f 736 210 735
f 736 211 210
f 737 212 211
f 737 211 736
f 658 759 657
f 658 760 759
f 738 212 737
f 213 212 738
f 659 761 760
f 659 760 658
f 739 213 738
f 214 213 739
f 660 762 761
f 660 761 659
f 740 214 739
f 215 214 740
f 661 763 762
f 661 762 660
f 741 215 740
f 216 215 741
f 662 764 763
f 662 763 661
f 742 216 741
f 217 216 742
f 663 765 764
f 663 764 662
f 743 217 742
f 218 217 743
f 664 766 765
f 664 765 663
f 744 218 743
f 219 218 744
f 665 767 766
f 665 766 664
f 745 219 744
f 220 219 745
f 666 768 767
f 666 767 665
f 746 220 745
f 221 220 746
f 667 769 768
f 667 768 666
f 747 221 746
f 222 221 747
f 668 770 769
f 668 769 667
f 748 222 747
f 223 222 748
f 669 770 668
f 669 771 770
f 749 223 748
f 224 223 749
f 670 771 669
f 670 772 771
f 750 224 749
f 225 224 750
f 671 772 670
f 671 773 772
f 751 225 750
f 226 225 751
f 672 773 671
f 672 774 773
f 752 226 751
f 227 226 752
f 673 775 774
f 673 774 672
f 753 227 752
f 228 227 753
f 674 776 775
f 674 775 673
f 754 228 753
f 229 228 754
f 675 777 776
f 675 776 674
f 755 229 754
f 230 229 755
f 676 778 777
f 676 777 675
f 756 230 755
f 231 230 756
f 677 779 778
f 677 778 676
f 757 231 756
f 232 231 757
f 678 780 779
f 678 779 677
f 758 232 757
f 233 232 758
f 679 781 780
f 679 780 678
f 680 782 781
f 680 781 679
f 681 758 782
f 681 782 680
f 681 233 758
f 682 233 681
f 682 234 233
f 682 235 234
f 683 235 682
f 684 235 683
f 684 236 235
f 685 236 684
f 685 237 236
f 686 237 685
f 686 238 237
f 614 238 686
f 614 166 238
f 784 239 783
f 784 240 239
f 785 240 784
f 785 241 240
f 785 242 241
f 786 242 785
f 787 242 786
f 787 243 242
f 788 243 787
f 788 244 243
f 856 246 245
f 789 244 788
f 789 245 244
f 880 856 245
f 880 245 789
f 857 246 856
f 857 247 246
f 790 880 789
f 881 880 790
f 858 247 857
f 858 248 247
f 791 881 790
f 882 881 791
f 859 249 248
f 859 248 858
f 792 882 791
f 883 882 792
f 860 250 249
f 860 249 859
f 793 883 792
f 884 883 793
f 861 250 860
f 861 251 250
f 794 884 793
f 885 884 794
f 862 251 861
f 862 252 251
f 795 885 794
f 886 885 795
f 863 252 862
f 863 253 252
f 796 886 795
f 887 886 796
f 864 253 863
f 864 254 253
f 797 887 796
f 888 887 797
f 865 254 864
f 865 255 254
f 798 888 797
f 889 888 798
f 866 255 865
f 866 256 255
f 799 889 798
f 890 889 799
f 867 256 866
f 867 257 256
f 800 890 799
f 891 890 800
f 868 257 867
f 868 258 257
f 801 891 800
f 892 891 801
f 869 258 868
f 869 259 258
f 802 892 801
f 893 892 802
f 870 259 869
f 870 260 259
f 803 893 802
f 894 893 803
f 871 260 870
f 871 261 260
f 804 894 803
f 895 894 804
f 872 261 871
f 872 262 261
f 805 895 804
f 896 895 805
f 873 262 872
f 873 263 262
f 806 896 805
f 897 896 806
f 874 263 873
f 874 264 263
f 807 897 806
f 898 897 807
f 875 264 874
f 875 265 264
f 808 898 807
f 899 898 808
f 876 266 265
f 876 265 875
f 809 899 808
f 900 899 809
f 877 267 266
f 877 266 876
f 810 900 809
f 810 901 900
f 878 268 267
f 878 267 877
f 811 901 810
f 811 902 901
f 879 269 268
f 879 268 878
f 270 269 879
f 812 902 811
f 812 903 902
f 813 903 812
f 814 270 879
f 814 903 813
f 814 879 903
f 815 271 270
f 815 272 271
f 815 270 814
f 816 272 815
f 817 273 272
f 817 272 816
f 818 274 273
f 818 275 274
f 818 273 817
f 819 275 818
f 820 276 275
f 820 275 819
f 821 277 276
f 821 278 277
f 821 276 820
f 822 279 278
f 822 278 821
f 823 279 822
f 824 279 823
f 824 280 279
f 825 280 824
f 825 281 280
f 904 282 281
f 904 283 282
f 928 281 825
f 928 904 281
f 826 928 825
f 905 283 904
f 905 284 283
f 906 285 284
f 906 284 905
f 827 928 826
f 827 929 928
f 907 285 906
f 286 285 907
f 828 930 929
f 828 929 827
f 908 286 907
f 287 286 908
f 829 931 930
f 829 930 828
f 909 287 908
f 288 287 909
f 830 932 931
f 830 931 829
f 910 288 909
f 289 288 910
f 831 933 932
f 831 932 830
f 911 289 910
f 290 289 911
f 832 934 933
f 832 933 831
f 912 290 911
f 291 290 912
f 833 935 934
f 833 934 832
f 913 291 912
f 292 291 913
f 834 936 935
f 834 935 833
f 914 292 913
f 293 292 914
f 835 937 936
f 835 936 834
f 915 293 914
f 294 293 915
f 836 938 937
f 836 937 835
f 916 294 915
f 295 294 916
f 837 939 938
f 837 938 836
f 917 295 916
f 296 295 917
f 838 939 837
f 838 940 939
f 918 296 917
f 297 296 918
f 839 940 838
f 839 941 940
f 919 297 918
f 298 297 919
f 840 941 839
f 840 942 941
f 920 298 919
f 299 298 920
f 841 942 840
f 841 943 942
f 921 299 920
f 300 299 921
f 842 944 943
f 842 943 841
f 922 300 921
f 301 300 922
f 843 945 944
f 843 944 842
f 923 301 922
f 302 301 923
f 844 946 945
f 844 945 843
f 924 302 923
f 303 302 924
f 845 947 946
f 845 946 844
f 925 303 924
f 304 303 925
f 846 948 947
f 846 947 845
f 926 304 925
f 305 304 926
f 847 949 948
f 847 948 846
f 927 305 926
f 306 305 927
f 848 950 949
f 848 949 847
f 849 951 950
f 849 950 848
f 850 927 951
f 850 951 849
f 850 306 927
f 851 306 850
f 851 307 306
f 851 308 307
f 852 308 851
f 853 308 852
f 853 309 308
f 854 309 853
f 854 310 309
f 855 310 854
f 855 311 310
f 783 311 855
f 783 239 311
f 953 312 952
f 953 313 312
f 954 313 953
f 954 314 313
f 954 315 314
f 955 315 954
f 956 315 955
f 956 316 315
f 957 316 956
f 957 317 316
f 958 317 957
f 958 318 317
f 958 319 318
f 959 320 319
f 959 319 958
f 960 320 959
f 961 321 320
f 961 320 960
f 962 322 321
f 962 323 322
f 962 321 961
f 963 323 962
f 964 323 963
f 964 324 323
f 965 324 964
f 965 325 324
f 965 326 325
f 966 326 965
f 967 326 966
f 967 327 326
f 968 327 967
f 968 328 327
f 969 328 968
f 969 329 328
f 970 329 969
f 970 330 329
f 971 330 970
f 971 331 330
f 972 331 971
f 972 332 331
f 973 332 972
f 973 333 332
f 974 333 973
f 974 334 333
f 975 334 974
f 975 335 334
f 976 335 975
f 976 336 335
f 977 336 976
f 977 337 336
f 978 339 338
f 978 337 977
f 978 338 337
f 979 339 978
f 980 340 339
f 980 339 979
f 981 341 340
f 981 340 980
f 982 342 341
f 982 341 981
f 983 343 342
f 983 342 982
f 984 344 343
f 984 345 344
f 984 343 983
f 985 345 984
f 986 346 345
f 986 345 985
f 987 347 346
f 987 348 347
f 987 346 986
f 988 348 987
f 989 349 348
f 989 348 988
f 990 349 989
f 990 350 349
f 990 351 350
f 991 351 990
f 991 352 351
f 992 352 991
f 993 353 352
f 993 352 992
f 994 353 993
f 994 354 353
f 995 355 354
f 995 354 994
f 996 356 355
f 996 357 356
f 996 355 995
f 997 357 996
f 998 358 357
f 998 357 997
f 999 359 358
f 999 358 998
f 1000 360 359
f 1000 359 999
f 1001 361 360
f 1001 360 1000
f 1002 362 361
f 1002 361 1001
f 1003 363 362
f 1003 362 1002
f 1004 364 363
f 1004 363 1003
f 1005 365 364
f 1005 364 1004
f 1006 366 365
f 1006 367 366
f 1006 365 1005
f 1007 367 1006
f 1008 368 367
f 1008 369 368
f 1008 367 1007
f 1009 369 1008
f 1010 370 369
f 1010 369 1009
f 1011 371 370
f 1011 370 1010
f 1012 372 371
f 1012 373 372
f 1012 371 1011
f 1013 373 1012
f 1014 374 373
f 1014 373 1013
f 1015 374 1014
f 1015 375 374
f 1016 375 1015
f 1016 376 375
f 1017 376 1016
f 1017 377 376
f 1017 378 377
f 1018 378 1017
f 1019 378 1018
f 1019 379 378
f 1020 379 1019
f 1020 380 379
f 1020 381 380
f 1021 381 1020
f 1022 381 1021
f 1022 382 381
f 1023 382 1022
f 1023 383 382
f 1024 383 1023
f 1024 384 383
f 952 384 1024
f 952 312 384
f 1059 1063 1064
f 1060 1059 1064
f 1061 1064 1065
f 1061 1060 1064
f 1062 1065 1066
f 1062 1061 1065
f 425 449 424
f 1058 1066 449
f 1058 1062 1066
f 1036 1035 1058
f 1036 449 425
f 1036 1058 449
f 1037 425 426
f 1037 1036 425
f 1038 1037 426
f 1038 426 427
f 1039 427 428
f 1039 1038 427
f 1040 428 429
f 1040 1039 428
f 1041 429 430
f 1041 1040 429
f 1042 430 431
f 1042 1041 430
f 1043 431 432
f 1043 1042 431
f 1044 432 433
f 1044 433 434
f 1044 1043 432
f 1045 1044 434
f 1046 434 435
f 1046 1045 434
f 1047 435 436
f 1047 436 437
f 1047 1046 435
f 1048 1047 437
f 1049 437 438
f 1049 1048 437
f 1050 438 439
f 1050 439 440
f 1050 1049 438
f 1051 1050 440
f 1052 440 441
f 1052 441 442
f 1052 1051 440
f 1053 442 443
f 1053 1052 442
f 1054 1053 443
f 1055 443 444
f 1055 444 445
f 1055 1054 443
f 1056 1055 445
f 390 446 391
f 1057 445 446
f 1057 1056 445
f 1030 446 390
f 1030 1057 446
f 1034 1057 1030
f 1031 390 1025
f 1031 1025 1026
f 1031 1030 390
f 1032 1026 1027
f 1032 1031 1026
f 1033 1032 1027
f 1029 1027 1028
f 1029 1033 1027
f 710 1068 1067
f 709 1068 710
f 708 1069 1068
f 708 1068 709
f 707 1069 708
f 706 1070 1069
f 706 1069 707
f 705 1070 706
f 704 389 1070
f 704 1070 705
f 703 389 704
f 702 389 703
f 701 389 702
f 700 389 701
f 699 389 700
f 879 688 687
f 878 688 879
f 877 689 688
f 877 690 689
f 877 688 878
f 876 690 877
f 875 691 690
f 875 692 691
f 875 690 876
f 874 693 692
f 874 692 875
f 873 693 874
f 872 694 693
f 872 695 694
f 872 693 873
f 871 695 872
f 1027 857 856
f 1027 858 857
f 1027 856 1028
f 1026 859 858
f 1026 860 859
f 1026 858 1027
f 1025 861 860
f 1025 862 861
f 1025 860 1026
f 390 863 862
f 390 864 863
f 390 865 864
f 390 866 865
f 390 867 866
f 390 862 1025
f 390 389 699
f 390 699 698
f 390 698 697
f 390 697 696
f 390 696 695
f 390 695 868
f 868 695 869
f 869 695 870
f 870 695 871
f 390 868 867
f 1106 1105 1067
f 1106 1067 1068
f 1107 1068 1069
f 1107 1106 1068
f 1108 1069 1070
f 1108 1107 1069
f 395 389 388
f 1104 1070 389
f 1104 1108 1070
f 1082 1081 1104
f 1082 389 395
f 1082 1104 389
f 1083 395 396
f 1083 396 397
f 1083 1082 395
f 1084 397 398
f 1084 1083 397
f 1085 398 399
f 1085 1084 398
f 1086 1085 399
f 1086 399 400
f 1087 400 401
f 1087 1086 400
f 1088 1087 401
f 1089 401 402
f 1089 1088 401
f 1090 402 403
f 1090 403 404
f 1090 1089 402
f 1091 1090 404
f 1092 404 405
f 1092 1091 404
f 1093 405 406
f 1093 1092 405
f 1094 406 407
f 1094 1093 406
f 1095 407 408
f 1095 1094 407
f 1096 408 409
f 1096 1095 408
f 1097 409 410
f 1097 1096 409
f 1098 410 411
f 1098 1097 410
f 1099 411 412
f 1099 1098 411
f 1100 412 413
f 1100 1099 412
f 1101 413 414
f 1101 414 415
f 1101 1100 413
f 1102 415 416
f 1102 1101 415
f 448 416 417
f 1103 1102 416
f 1103 416 448
f 1076 1103 448
f 1080 1103 1076
f 1077 448 1071
f 1077 1076 448
f 1078 1071 1072
f 1078 1077 1071
f 1079 1072 1073
f 1079 1078 1072
f 1075 1073 1074
f 1075 1079 1073
f 1073 452 1074
f 447 1073 1072
f 447 452 1073
f 1071 447 1072
f 448 447 1071
f 1064 1063 465
f 450 1065 1064
f 450 1066 1065
f 450 449 1066
f 450 1064 465
f 1075 1074 452
f 1075 452 453
f 1079 1075 453
f 454 1078 1079
f 454 1079 453
f 1077 1078 454
f 1076 1077 454
f 1080 1076 454
f 1080 454 455
f 1112 1080 455
f 1111 1112 455
f 1110 1111 455
f 1109 1110 455
f 587 1157 1158
f 586 1157 587
f 586 1156 1157
f 588 587 1158
f 588 1158 1159
f 585 1156 586
f 589 588 1159
f 589 1159 1160
f 584 1156 585
f 590 589 1160
f 590 1160 1161
f 583 1156 584
f 591 1161 1162
f 591 590 1161
f 582 1156 583
f 592 1162 1163
f 592 591 1162
f 581 1156 582
f 593 1163 1164
f 593 592 1163
f 580 1156 581
f 580 456 1156
f 594 593 1164
f 594 1164 1165
f 579 456 580
f 595 1165 1166
f 595 594 1165
f 578 456 579
f 596 595 1166
f 596 1166 1167
f 577 455 456
f 577 456 578
f 597 596 1167
f 597 1167 1168
f 576 455 577
f 598 597 1168
f 598 1168 1169
f 575 455 576
f 599 1169 1170
f 599 598 1169
f 600 599 1170
f 600 1170 1171
f 601 600 1171
f 601 1171 1172
f 602 601 1172
f 602 1172 1173
f 1109 572 571
f 1109 573 572
f 1109 574 573
f 1109 575 574
f 1109 455 575
f 603 1173 1174
f 603 602 1173
f 570 1109 571
f 604 1174 1175
f 604 603 1174
f 569 1109 570
f 1155 1109 569
f 605 604 1175
f 568 1155 569
f 1176 605 1175
f 606 605 1176
f 1154 1155 568
f 567 1154 568
f 1177 606 1176
f 1177 607 606
f 608 607 1177
f 1153 1154 567
f 1153 567 566
f 609 608 1177
f 610 609 1177
f 1152 566 565
f 1152 1153 566
f 611 610 1177
f 1151 1152 565
f 1151 565 564
f 1150 564 563
f 1150 1151 564
f 1149 563 562
f 1149 1150 563
f 1148 562 561
f 1148 1149 562
f 1147 561 560
f 1147 1148 561
f 1146 560 559
f 1146 1147 560
f 659 1177 660
f 661 660 1177
f 658 1177 659
f 662 661 1177
f 657 1177 658
f 663 662 1177
f 656 1177 657
f 1145 559 558
f 1145 1146 559
f 664 663 1177
f 655 1177 656
f 654 1177 655
f 654 611 1177
f 653 612 611
f 653 611 654
f 1144 558 557
f 1144 1145 558
f 652 613 612
f 652 612 653
f 651 541 613
f 651 613 652
f 1143 557 556
f 1143 1144 557
f 650 541 651
f 650 542 541
f 1142 556 555
f 1142 1143 556
f 649 542 650
f 649 543 542
f 1141 555 554
f 1141 1142 555
f 648 543 649
f 648 544 543
f 1140 554 553
f 1140 1141 554
f 647 544 648
f 1139 553 552
f 1139 1140 553
f 1138 552 551
f 1138 1139 552
f 1135 544 647
f 1135 545 544
f 1135 546 545
f 1135 547 546
f 1135 548 547
f 1135 549 548
f 1137 551 550
f 1137 1138 551
f 1136 550 549
f 1136 549 1135
f 1136 1137 550
f 646 1135 647
f 645 1135 646
f 644 1135 645
f 643 1135 644
f 642 1135 643
f 641 1135 642
f 640 1135 641
f 639 1135 640
f 638 1135 639
f 637 1135 638
f 829 678 677
f 828 679 678
f 828 678 829
f 830 677 676
f 830 829 677
f 827 679 828
f 827 680 679
f 831 676 675
f 831 830 676
f 826 681 680
f 826 680 827
f 832 675 674
f 832 831 675
f 825 682 681
f 825 681 826
f 833 674 673
f 833 832 674
f 824 682 825
f 824 683 682
f 834 833 673
f 834 673 672
f 823 683 824
f 823 684 683
f 835 672 671
f 835 834 672
f 822 685 684
f 822 684 823
f 836 671 670
f 836 835 671
f 821 686 685
f 821 685 822
f 820 614 686
f 820 686 821
f 819 614 820
f 819 615 614
f 818 615 819
f 818 616 615
f 817 617 616
f 817 616 818
f 816 617 817
f 816 618 617
f 815 619 618
f 815 618 816
f 814 619 815
f 814 620 619
f 813 621 620
f 813 620 814
f 812 621 813
f 812 622 621
f 811 622 812
f 811 623 622
f 810 623 811
f 810 624 623
f 809 625 624
f 809 624 810
f 808 626 625
f 808 625 809
f 807 626 808
f 807 627 626
f 806 627 807
f 806 628 627
f 1178 848 847
f 1178 849 848
f 1178 850 849
f 1178 851 850
f 1178 843 842
f 1178 844 843
f 1178 845 844
f 1178 846 845
f 1178 847 846
f 852 851 1178
f 805 628 806
f 805 629 628
f 853 852 1178
f 804 629 805
f 804 630 629
f 803 630 804
f 803 631 630
f 998 1179 1180
f 997 1179 998
f 997 1178 1179
f 999 1180 1181
f 999 998 1180
f 996 1178 997
f 1000 999 1181
f 1000 1181 1182
f 995 1178 996
f 1001 1182 1183
f 1001 1000 1182
f 994 1178 995
f 1002 1001 1183
f 1002 1183 1184
f 993 1178 994
f 1003 1184 1185
f 1003 1002 1184
f 992 1178 993
f 992 853 1178
f 1004 1003 1185
f 1004 1185 1186
f 991 854 853
f 991 853 992
f 1005 1004 1186
f 1005 1186 1187
f 990 855 854
f 990 854 991
f 1006 1005 1187
f 1006 1187 1188
f 989 783 855
f 989 855 990
f 1007 1188 1189
f 1007 1006 1188
f 988 784 783
f 988 783 989
f 1008 1007 1189
f 1008 1189 1190
f 987 784 988
f 987 785 784
f 1009 1008 1190
f 1009 1190 1191
f 986 786 785
f 986 785 987
f 1010 1191 1192
f 1010 1009 1191
f 985 786 986
f 1011 1192 1193
f 1011 1010 1192
f 1012 1193 1194
f 1012 1011 1193
f 1013 1012 1194
f 1013 1194 1195
f 1134 983 982
f 1134 787 786
f 1134 984 983
f 1134 985 984
f 1134 788 787
f 1134 789 788
f 1134 790 789
f 1134 791 790
f 1134 792 791
f 1134 793 792
f 1134 794 793
f 1134 795 794
f 1134 796 795
f 1134 797 796
f 1134 786 985
f 1014 1013 1195
f 1014 1195 1196
f 981 1134 982
f 1015 1014 1196
f 1015 1196 1197
f 980 1134 981
f 1133 1134 980
f 1016 1015 1197
f 979 1133 980
f 1198 1016 1197
f 1017 1016 1198
f 1132 1133 979
f 978 1132 979
f 1199 1018 1017
f 1199 1017 1198
f 1019 1018 1199
f 1131 1132 978
f 1131 978 977
f 1020 1019 1199
f 1021 1020 1199
f 1130 977 976
f 1130 1131 977
f 1022 1021 1199
f 1023 1022 1199
f 1129 976 975
f 1129 1130 976
f 469 1023 1199
f 469 1024 1023
f 952 1024 469
f 1128 975 974
f 1128 1129 975
f 1127 974 973
f 1127 1128 974
f 1126 973 972
f 1126 1127 973
f 1125 1126 972
f 1125 972 971
f 1124 1125 971
f 1124 971 970
f 1123 1124 970
f 1123 970 969
f 1122 1123 969
f 1122 969 968
f 1121 968 967
f 1121 1122 968
f 1120 967 966
f 1120 1121 967
f 1119 966 965
f 1119 1120 966
f 1118 965 964
f 1118 1119 965
f 1117 1118 964
f 1117 964 963
f 1116 963 962
f 1116 1117 963
f 1113 955 954
f 1113 956 955
f 1113 957 956
f 1113 958 957
f 1113 959 958
f 1113 960 959
f 1115 962 961
f 1115 1116 962
f 1114 961 960
f 1114 1115 961
f 1114 960 1113
f 468 953 952
f 468 954 953
f 468 952 469
f 468 1113 954
f 1134 1135 801
f 801 1135 802
f 802 1135 803
f 803 1135 631
f 631 1135 632
f 632 1135 633
f 633 1135 634
f 634 1135 635
f 635 1135 636
f 636 1135 637
f 1134 801 800
f 1134 800 799
f 1134 799 798
f 1134 798 797
f 1177 1178 669
f 669 1178 670
f 670 1178 837
f 837 1178 838
f 838 1178 839
f 839 1178 840
f 840 1178 841
f 841 1178 842
f 1177 669 668
f 1177 668 667
f 1177 667 666
f 1177 666 665
f 1177 665 664
f 670 837 836
f 1204 457 1200
f 1204 456 457
f 1203 456 1204
f 1202 456 1203
f 1201 456 1202
f 1156 456 1201
f 1208 1200 457
f 1207 1208 457
f 1206 1207 457
f 458 1206 457
f 1205 1206 458
f 1205 459 1209
f 1205 458 459
f 1212 451 477
f 1211 451 1212
f 1210 451 1211
f 459 451 1210
f 1209 459 1210
f 466 465 1063
f 466 1063 1059
f 1060 466 1059
f 467 1060 1061
f 467 1061 1062
f 467 1062 1058
f 467 466 1060
f 467 1058 1035
f 468 1035 1213
f 468 1213 1214
f 468 1214 1215
f 468 1215 1113
f 468 467 1035
f 470 1217 1216
f 469 1218 1217
f 469 1219 1218
f 469 1220 1219
f 469 1199 1220
f 469 1217 470
f 470 1216 1221
f 1222 470 1221
f 1223 470 1222
f 471 1223 1224
f 471 470 1223
f 471 1225 472
f 471 1224 1225
f 464 1226 486
f 1227 1226 464
f 1228 1227 464
f 472 1225 1228
f 472 1228 464
f 1205 1209 1210
f 1206 1205 1210
f 1207 1210 1211
f 1207 1206 1210
f 1208 1211 1212
f 1208 1212 477
f 1208 1207 1211
f 487 477 478
f 1200 477 487
f 1200 1208 477
f 1239 1204 1200
f 1239 1200 487
f 1240 487 488
f 1240 1239 487
f 1241 1240 488
f 1241 488 489
f 1242 489 490
f 1242 490 491
f 1242 1241 489
f 1243 1242 491
f 1244 491 492
f 1244 1243 491
f 1245 492 493
f 1245 1244 492
f 1246 493 494
f 1246 1245 493
f 1247 494 495
f 1247 1246 494
f 1248 495 496
f 1248 1247 495
f 1249 496 497
f 1249 497 498
f 1249 1248 496
f 1250 498 499
f 1250 1249 498
f 1251 1250 499
f 1252 499 500
f 1252 1251 499
f 1253 500 501
f 1253 501 502
f 1253 1252 500
f 1254 1253 502
f 1255 502 503
f 1255 503 504
f 1255 1254 502
f 1256 1255 504
f 1257 504 505
f 1257 505 506
f 1257 1256 504
f 1258 1257 506
f 1259 506 507
f 1259 507 508
f 1259 1258 506
f 539 508 509
f 1260 1259 508
f 1234 539 1229
f 1234 508 539
f 1234 1260 508
f 1238 1260 1234
f 1235 1234 1229
f 1236 1229 1230
f 1236 1235 1229
f 1237 1230 1231
f 1237 1236 1230
f 1233 1231 1232
f 1233 1237 1231
f 1285 1289 1290
f 1286 1285 1290
f 1287 1290 1291
f 1287 1286 1290
f 1288 1291 1292
f 1288 1292 540
f 1288 1287 1291
f 514 540 513
f 1284 540 514
f 1284 1288 540
f 1262 1261 1284
f 1262 1284 514
f 1263 514 515
f 1263 1262 514
f 1264 1263 515
f 1264 515 516
f 1265 516 517
f 1265 517 518
f 1265 1264 516
f 1266 1265 518
f 1267 518 519
f 1267 1266 518
f 1268 519 520
f 1268 1267 519
f 1269 520 521
f 1269 1268 520
f 1270 521 522
f 1270 1269 521
f 1271 522 523
f 1271 1270 522
f 1272 523 524
f 1272 524 525
f 1272 1271 523
f 1273 525 526
f 1273 1272 525
f 1274 1273 526
f 1275 526 527
f 1275 1274 526
f 1276 527 528
f 1276 528 529
f 1276 1275 527
f 1277 1276 529
f 1278 529 530
f 1278 530 531
f 1278 1277 529
f 1279 1278 531
f 1280 531 532
f 1280 532 533
f 1280 1279 531
f 1281 1280 533
f 1282 533 534
f 1282 534 535
f 1282 1281 533
f 486 535 485
f 1283 1282 535
f 1216 486 1226
f 1216 535 486
f 1216 1283 535
f 1217 1283 1216
f 1221 1216 1226
f 1222 1226 1227
f 1222 1221 1226
f 1223 1227 1228
f 1223 1222 1227
f 1224 1228 1225
f 1224 1223 1228
f 737 1231 1230
f 738 737 1230
f 736 1231 737
f 739 1230 1229
f 739 738 1230
f 735 1232 1231
f 735 1231 736
f 740 739 1229
f 741 1229 539
f 741 740 1229
f 742 741 539
f 743 742 539
f 744 743 539
f 745 744 539
f 746 745 539
f 747 746 539
f 748 747 539
f 906 757 756
f 907 906 756
f 907 756 755
f 905 757 906
f 905 758 757
f 908 907 755
f 908 755 754
f 904 758 905
f 909 908 754
f 909 754 753
f 910 909 753
f 910 753 752
f 911 752 751
f 911 910 752
f 912 911 751
f 912 751 750
f 913 912 750
f 913 750 749
f 914 749 748
f 914 913 749
f 540 915 914
f 540 916 915
f 540 917 916
f 540 918 917
f 540 919 918
f 540 920 919
f 540 921 920
f 540 914 748
f 540 748 539
f 1292 922 921
f 1292 923 922
f 1292 921 540
f 1291 924 923
f 1291 925 924
f 1291 923 1292
f 1290 926 925
f 1290 927 926
f 1290 925 1291
f 1289 927 1290
f 734 710 1067
f 734 1067 1105
f 734 1105 1106
f 733 734 1106
f 732 1106 1107
f 732 733 1106
f 731 732 1107
f 730 1107 1108
f 730 731 1107
f 729 730 1108
f 728 1108 1104
f 728 729 1108
f 727 728 1104
f 726 727 1104
f 725 726 1104
f 724 725 1104
f 723 724 1104
f 903 711 712
f 902 903 712
f 901 712 713
f 901 713 714
f 901 902 712
f 900 901 714
f 899 714 715
f 899 715 716
f 899 900 714
f 898 716 717
f 898 899 716
f 897 898 717
f 896 717 718
f 896 718 719
f 896 897 717
f 895 896 719
f 1033 880 881
f 1033 881 882
f 1033 1029 880
f 1032 882 883
f 1032 883 884
f 1032 1033 882
f 1031 884 885
f 1031 885 886
f 1031 1032 884
f 1030 886 887
f 1030 887 888
f 1030 888 889
f 1030 889 890
f 1030 890 891
f 1030 1031 886
f 1030 723 1104
f 1030 722 723
f 1030 721 722
f 1030 720 721
f 1030 719 720
f 1030 892 719
f 892 893 719
f 893 894 719
f 894 895 719
f 1030 891 892
f 903 879 687
f 903 687 711
f 928 758 904
f 928 782 758
f 761 1236 1237
f 762 1236 761
f 760 761 1237
f 763 1235 1236
f 763 1236 762
f 759 1237 1233
f 759 760 1237
f 764 1235 763
f 765 1234 1235
f 765 1235 764
f 766 1234 765
f 767 1234 766
f 768 1234 767
f 769 1234 768
f 770 1234 769
f 771 1234 770
f 772 1234 771
f 930 780 781
f 931 780 930
f 931 779 780
f 929 930 781
f 929 781 782
f 932 779 931
f 932 778 779
f 928 929 782
f 933 778 932
f 933 777 778
f 934 777 933
f 934 776 777
f 935 775 776
f 935 776 934
f 936 775 935
f 936 774 775
f 937 774 936
f 937 773 774
f 938 772 773
f 938 773 937
f 1284 938 939
f 1284 939 940
f 1284 940 941
f 1284 941 942
f 1284 942 943
f 1284 943 944
f 1284 944 945
f 1284 772 938
f 1284 1234 772
f 1288 945 946
f 1288 946 947
f 1288 1284 945
f 1287 947 948
f 1287 948 949
f 1287 1288 947
f 1286 949 950
f 1286 950 951
f 1286 1287 949
f 1285 1286 951
f 759 1232 735
f 759 1233 1232
f 1029 1028 856
f 1029 856 880
f 1285 927 1289
f 1285 951 927
f 1036 1213 1035
f 1214 1213 1036
f 1037 1214 1036
f 1215 1214 1037
f 1114 1113 1215
f 1114 1037 1038
f 1114 1215 1037
f 1115 1038 1039
f 1115 1114 1038
f 1116 1039 1040
f 1116 1115 1039
f 1117 1040 1041
f 1117 1116 1040
f 1118 1041 1042
f 1118 1117 1041
f 1119 1042 1043
f 1119 1118 1042
f 1120 1043 1044
f 1120 1119 1043
f 1121 1044 1045
f 1121 1120 1044
f 1122 1121 1045
f 1122 1045 1046
f 1123 1122 1046
f 1123 1046 1047
f 1124 1123 1047
f 1125 1124 1047
f 1125 1047 1048
f 1126 1048 1049
f 1126 1125 1048
f 1127 1049 1050
f 1127 1126 1049
f 1128 1127 1050
f 1128 1050 1051
f 1129 1051 1052
f 1129 1128 1051
f 1130 1052 1053
f 1130 1129 1052
f 1131 1053 1054
f 1131 1130 1053
f 1132 1054 1055
f 1132 1131 1054
f 1133 1055 1056
f 1133 1132 1055
f 1295 1057 1034
f 1294 1057 1295
f 1294 1056 1057
f 1293 1133 1056
f 1293 1056 1294
f 1134 1133 1293
f 1034 1030 1104
f 1034 1104 1081
f 1295 1081 1296
f 1295 1296 1297
f 1295 1034 1081
f 1294 1297 1298
f 1294 1295 1297
f 1293 1294 1298
f 1135 1134 1293
f 1135 1293 1298
f 1082 1296 1081
f 1297 1296 1082
f 1083 1297 1082
f 1298 1297 1083
f 1136 1135 1298
f 1136 1083 1084
f 1136 1298 1083
f 1137 1084 1085
f 1137 1136 1084
f 1138 1085 1086
f 1138 1137 1085
f 1139 1086 1087
f 1139 1138 1086
f 1140 1087 1088
f 1140 1139 1087
f 1141 1088 1089
f 1141 1140 1088
f 1142 1089 1090
f 1142 1141 1089
f 1143 1090 1091
f 1143 1142 1090
f 1144 1143 1091
f 1144 1091 1092
f 1145 1144 1092
f 1145 1092 1093
f 1146 1145 1093
f 1147 1146 1093
f 1147 1093 1094
f 1148 1094 1095
f 1148 1147 1094
f 1149 1095 1096
f 1149 1148 1095
f 1150 1149 1096
f 1150 1096 1097
f 1151 1097 1098
f 1151 1150 1097
f 1152 1098 1099
f 1152 1151 1098
f 1153 1099 1100
f 1153 1152 1099
f 1154 1100 1101
f 1154 1153 1100
f 1155 1101 1102
f 1155 1154 1101
f 1112 1103 1080
f 1111 1103 1112
f 1111 1102 1103
f 1110 1155 1102
f 1110 1102 1111
f 1109 1155 1110
f 1262 1301 1261
f 1300 1301 1262
f 1263 1300 1262
f 1299 1300 1263
f 1179 1263 1264
f 1179 1178 1299
f 1179 1299 1263
f 1180 1264 1265
f 1180 1179 1264
f 1181 1265 1266
f 1181 1180 1265
f 1182 1266 1267
f 1182 1181 1266
f 1183 1267 1268
f 1183 1182 1267
f 1184 1268 1269
f 1184 1183 1268
f 1185 1269 1270
f 1185 1184 1269
f 1186 1270 1271
f 1186 1185 1270
f 1187 1186 1271
f 1187 1271 1272
f 1188 1187 1272
f 1189 1188 1272
f 1189 1272 1273
f 1190 1273 1274
f 1190 1189 1273
f 1191 1274 1275
f 1191 1190 1274
f 1192 1275 1276
f 1192 1191 1275
f 1193 1276 1277
f 1193 1192 1276
f 1194 1277 1278
f 1194 1193 1277
f 1195 1278 1279
f 1195 1194 1278
f 1196 1279 1280
f 1196 1195 1279
f 1197 1280 1281
f 1197 1196 1280
f 1198 1281 1282
f 1198 1197 1281
f 1218 1283 1217
f 1219 1282 1283
f 1219 1283 1218
f 1220 1198 1282
f 1220 1282 1219
f 1199 1198 1220
f 1261 1234 1284
f 1261 1238 1234
f 1301 1302 1238
f 1301 1303 1302
f 1301 1238 1261
f 1300 1304 1303
f 1300 1303 1301
f 1299 1304 1300
f 1177 1299 1178
f 1177 1304 1299
f 1239 1203 1204
f 1202 1203 1239
f 1240 1202 1239
f 1201 1202 1240
f 1157 1240 1241
f 1157 1156 1201
f 1157 1201 1240
f 1158 1241 1242
f 1158 1157 1241
f 1159 1242 1243
f 1159 1158 1242
f 1160 1243 1244
f 1160 1159 1243
f 1161 1244 1245
f 1161 1160 1244
f 1162 1245 1246
f 1162 1161 1245
f 1163 1246 1247
f 1163 1162 1246
f 1164 1247 1248
f 1164 1163 1247
f 1165 1164 1248
f 1165 1248 1249
f 1166 1165 1249
f 1167 1166 1249
f 1167 1249 1250
f 1168 1250 1251
f 1168 1167 1250
f 1169 1251 1252
f 1169 1168 1251
f 1170 1252 1253
f 1170 1169 1252
f 1171 1253 1254
f 1171 1170 1253
f 1172 1254 1255
f 1172 1171 1254
f 1173 1255 1256
f 1173 1172 1255
f 1174 1256 1257
f 1174 1173 1256
f 1175 1257 1258
f 1175 1174 1257
f 1176 1258 1259
f 1176 1175 1258
f 1302 1260 1238
f 1303 1259 1260
f 1303 1260 1302
f 1304 1176 1259
f 1304 1259 1303
f 1177 1176 1304
