# SimpleCAD BREP tessellation for MuJoCo
v -18 -21 -12
v -18 -21 -4
v -18 21 -12
v -18 21 -4
v 58 -21 -12
v 58 -21 -4
v 58 21 -4
v 2.25 -15 -4
v 2.2416708936 -14.8065792028 -4
v 2.2167452402 -14.6145904256 -4
v 2.17540758061 -14.425455086 -4
v 2.1179639644 -14.2405734759 -4
v 2.04483968401 -14.0613143941 -4
v 1.95657612603 -13.8890050121 -4
v 1.85382676295 -13.7249210483 -4
v 1.73735231512 -13.570277323 -4
v 1.6080151186 -13.4262187641 -4
v 1.46677274073 -13.2938119309 -4
v 1.31467089066 -13.1740371172 -4
v 1.15283567729 -13.0677810939 -4
v 0.982465271901 -12.9758305433 -4
v 0.804821037375 -12.8988662351 -4
v 0.621218189469 -12.8374579863 -4
v 0.433016059434 -12.7920604419 -4
v 0.241608029994 -12.7630097095 -4
v 0.0484112192315 -12.7505208705 -4
v -0.145144011261 -12.7546863881 -4
v -0.337624646275 -12.775475422 -4
v -0.527605626533 -12.8127340576 -4
v -0.713680399325 -12.866186445 -4
v -0.894471332136 -12.9354368414 -4
v -1.06863991215 -13.0199725411 -4
v -1.23489665614 -13.1191676713 -4
v -1.39201065734 -13.2322878261 -4
v -1.53881869866 -13.3584955033 -4
v -1.67423386471 -13.4968563055 -4
v -1.79725358899 -13.6463458577 -4
v -1.90696707651 -13.8058573916 -4
v -2.00256204698 -13.9742099396 -4
v -2.08333074869 -14.1501570783 -4
v -2.14867519842 -14.3323961566 -4
v -2.19811160875 -14.5195779403 -4
v -2.23127396977 -14.7103166007 -4
v -2.24791675898 -14.9031999757 -4
v -2.24791675898 -15.0968000243 -4
v -2.23127396977 -15.2896833993 -4
v -2.19811160875 -15.4804220597 -4
v -2.14867519842 -15.6676038434 -4
v -2.08333074869 -15.8498429217 -4
v -2.00256204698 -16.0257900604 -4
v -1.90696707651 -16.1941426084 -4
v -1.79725358899 -16.3536541423 -4
v -1.67423386471 -16.5031436945 -4
v -1.53881869866 -16.6415044967 -4
v -1.39201065734 -16.7677121739 -4
v -1.23489665614 -16.8808323287 -4
v -1.06863991215 -16.9800274589 -4
v -0.894471332136 -17.0645631586 -4
v -0.713680399325 -17.133813555 -4
v -0.527605626533 -17.1872659424 -4
v -0.337624646275 -17.224524578 -4
v -0.145144011261 -17.2453136119 -4
v 0.0484112192315 -17.2494791295 -4
v 0.241608029994 -17.2369902905 -4
v 0.433016059434 -17.2079395581 -4
v 0.621218189469 -17.1625420137 -4
v 0.804821037375 -17.1011337649 -4
v 0.982465271901 -17.0241694567 -4
v 1.15283567729 -16.9322189061 -4
v 1.31467089066 -16.8259628828 -4
v 1.46677274073 -16.7061880691 -4
v 1.6080151186 -16.5737812359 -4
v 1.73735231512 -16.429722677 -4
v 1.85382676295 -16.2750789517 -4
v 1.95657612603 -16.1109949879 -4
v 2.04483968401 -15.9386856059 -4
v 2.1179639644 -15.7594265241 -4
v 2.17540758061 -15.574544914 -4
v 2.2167452402 -15.3854095744 -4
v 2.2416708936 -15.1934207972 -4
v 42.25 -15 -4
v 42.2416708936 -14.8065792028 -4
v 42.2167452402 -14.6145904256 -4
v 42.1754075806 -14.425455086 -4
v 42.1179639644 -14.2405734759 -4
v 42.044839684 -14.0613143941 -4
v 41.956576126 -13.8890050121 -4
v 41.853826763 -13.7249210483 -4
v 41.7373523151 -13.570277323 -4
v 41.6080151186 -13.4262187641 -4
v 41.4667727407 -13.2938119309 -4
v 41.3146708907 -13.1740371172 -4
v 41.1528356773 -13.0677810939 -4
v 40.9824652719 -12.9758305433 -4
v 40.8048210374 -12.8988662351 -4
v 40.6212181895 -12.8374579863 -4
v 40.4330160594 -12.7920604419 -4
v 40.24160803 -12.7630097095 -4
v 40.0484112192 -12.7505208705 -4
v 39.8548559887 -12.7546863881 -4
v 39.6623753537 -12.775475422 -4
v 39.4723943735 -12.8127340576 -4
v 39.2863196007 -12.866186445 -4
v 39.1055286679 -12.9354368414 -4
v 38.9313600878 -13.0199725411 -4
v 38.7651033439 -13.1191676713 -4
v 38.6079893427 -13.2322878261 -4
v 38.4611813013 -13.3584955033 -4
v 38.3257661353 -13.4968563055 -4
v 38.202746411 -13.6463458577 -4
v 38.0930329235 -13.8058573916 -4
v 37.997437953 -13.9742099396 -4
v 37.9166692513 -14.1501570783 -4
v 37.8513248016 -14.3323961566 -4
v 37.8018883913 -14.5195779403 -4
v 37.7687260302 -14.7103166007 -4
v 37.752083241 -14.9031999757 -4
v 37.752083241 -15.0968000243 -4
v 37.7687260302 -15.2896833993 -4
v 37.8018883913 -15.4804220597 -4
v 37.8513248016 -15.6676038434 -4
v 37.9166692513 -15.8498429217 -4
v 37.997437953 -16.0257900604 -4
v 38.0930329235 -16.1941426084 -4
v 38.202746411 -16.3536541423 -4
v 38.3257661353 -16.5031436945 -4
v 38.4611813013 -16.6415044967 -4
v 38.6079893427 -16.7677121739 -4
v 38.7651033439 -16.8808323287 -4
v 38.9313600878 -16.9800274589 -4
v 39.1055286679 -17.0645631586 -4
v 39.2863196007 -17.133813555 -4
v 39.4723943735 -17.1872659424 -4
v 39.6623753537 -17.224524578 -4
v 39.8548559887 -17.2453136119 -4
v 40.0484112192 -17.2494791295 -4
v 40.24160803 -17.2369902905 -4
v 40.4330160594 -17.2079395581 -4
v 40.6212181895 -17.1625420137 -4
v 40.8048210374 -17.1011337649 -4
v 40.9824652719 -17.0241694567 -4
v 41.1528356773 -16.9322189061 -4
v 41.3146708907 -16.8259628828 -4
v 41.4667727407 -16.7061880691 -4
v 41.6080151186 -16.5737812359 -4
v 41.7373523151 -16.429722677 -4
v 41.853826763 -16.2750789517 -4
v 41.956576126 -16.1109949879 -4
v 42.044839684 -15.9386856059 -4
v 42.1179639644 -15.7594265241 -4
v 42.1754075806 -15.574544914 -4
v 42.2167452402 -15.3854095744 -4
v 42.2416708936 -15.1934207972 -4
v 8 -1.95943487864e-15 -4
v 7.97038539948 0.6877183899 -4
v 7.88176085405 1.37034515345 -4
v 7.73478250884 2.04282636093 -4
v 7.5305385401 2.70018319675 -4
v 7.27054109872 3.3375488209 -4
v 6.95671511477 3.95020440128 -4
v 6.59138404606 4.53361405033 -4
v 6.17725267599 5.08345840712 -4
v 5.71738708834 5.59566661641 -4
v 5.21519196703 6.06644646783 -4
v 4.67438538903 6.49231247206 -4
v 4.09897129703 6.87011166621 -4
v 3.49320985565 7.19704695722 -4
v 2.86158591067 7.47069783058 -4
v 2.20877578478 7.68903827098 -4
v 1.53961265577 7.85045176217 -4
v 0.859050773313 7.95374325515 -4
v 0.17212877949 7.99814801584 -4
v -0.516067595595 7.98333728692 -4
v -1.20044318676 7.90942072186 -4
v -1.87593111656 7.77694557303 -4
v -2.53753030871 7.5868926401 -4
v -3.18034251426 7.34066900848 -4
v -3.79960857654 7.04009763179 -4
v -4.39074366628 6.68740383535 -4
v -4.9493712261 6.28519884063 -4
v -5.471355373 5.83646043269 -4
v -5.95283151897 5.34451091371 -4
v -6.39023498309 4.8129925058 -4
v -6.78032738314 4.2458403853 -4
v -7.12022061148 3.64725354807 -4
v -7.40739821755 3.02166372163 -4
v -7.63973403884 2.37370255419 -4
v -7.81550794222 1.70816732352 -4
v -7.93341855919 1.02998541962 -4
v -7.99259292082 0.344177864036 -4
v -7.99259292082 -0.344177864036 -4
v -7.93341855919 -1.02998541962 -4
v -7.81550794222 -1.70816732352 -4
v -7.63973403884 -2.37370255419 -4
v -7.40739821755 -3.02166372163 -4
v -7.12022061148 -3.64725354807 -4
v -6.78032738314 -4.2458403853 -4
v -6.39023498309 -4.8129925058 -4
v -5.95283151897 -5.34451091371 -4
v -5.471355373 -5.83646043269 -4
v -4.9493712261 -6.28519884063 -4
v -4.39074366628 -6.68740383535 -4
v -3.79960857654 -7.04009763179 -4
v -3.18034251426 -7.34066900848 -4
v -2.53753030871 -7.5868926401 -4
v -1.87593111656 -7.77694557303 -4
v -1.20044318676 -7.90942072186 -4
v -0.516067595595 -7.98333728692 -4
v 0.17212877949 -7.99814801584 -4
v 0.859050773313 -7.95374325515 -4
v 1.53961265577 -7.85045176217 -4
v 2.20877578478 -7.68903827098 -4
v 2.86158591067 -7.47069783058 -4
v 3.49320985565 -7.19704695722 -4
v 4.09897129703 -6.87011166621 -4
v 4.67438538903 -6.49231247206 -4
v 5.21519196703 -6.06644646783 -4
v 5.71738708834 -5.59566661641 -4
v 6.17725267599 -5.08345840712 -4
v 6.59138404606 -4.53361405033 -4
v 6.95671511477 -3.95020440128 -4
v 7.27054109872 -3.3375488209 -4
v 7.5305385401 -2.70018319675 -4
v 7.73478250884 -2.04282636093 -4
v 7.88176085405 -1.37034515345 -4
v 7.97038539948 -0.6877183899 -4
v 2.25 15 -4
v 2.2416708936 15.1934207972 -4
v 2.2167452402 15.3854095744 -4
v 2.17540758061 15.574544914 -4
v 2.1179639644 15.7594265241 -4
v 2.04483968401 15.9386856059 -4
v 1.95657612603 16.1109949879 -4
v 1.85382676295 16.2750789517 -4
v 1.73735231512 16.429722677 -4
v 1.6080151186 16.5737812359 -4
v 1.46677274073 16.7061880691 -4
v 1.31467089066 16.8259628828 -4
v 1.15283567729 16.9322189061 -4
v 0.982465271901 17.0241694567 -4
v 0.804821037375 17.1011337649 -4
v 0.621218189469 17.1625420137 -4
v 0.433016059434 17.2079395581 -4
v 0.241608029994 17.2369902905 -4
v 0.0484112192315 17.2494791295 -4
v -0.145144011261 17.2453136119 -4
v -0.337624646275 17.224524578 -4
v -0.527605626533 17.1872659424 -4
v -0.713680399325 17.133813555 -4
v -0.894471332136 17.0645631586 -4
v -1.06863991215 16.9800274589 -4
v -1.23489665614 16.8808323287 -4
v -1.39201065734 16.7677121739 -4
v -1.53881869866 16.6415044967 -4
v -1.67423386471 16.5031436945 -4
v -1.79725358899 16.3536541423 -4
v -1.90696707651 16.1941426084 -4
v -2.00256204698 16.0257900604 -4
v -2.08333074869 15.8498429217 -4
v -2.14867519842 15.6676038434 -4
v -2.19811160875 15.4804220597 -4
v -2.23127396977 15.2896833993 -4
v -2.24791675898 15.0968000243 -4
v -2.24791675898 14.9031999757 -4
v -2.23127396977 14.7103166007 -4
v -2.19811160875 14.5195779403 -4
v -2.14867519842 14.3323961566 -4
v -2.08333074869 14.1501570783 -4
v -2.00256204698 13.9742099396 -4
v -1.90696707651 13.8058573916 -4
v -1.79725358899 13.6463458577 -4
v -1.67423386471 13.4968563055 -4
v -1.53881869866 13.3584955033 -4
v -1.39201065734 13.2322878261 -4
v -1.23489665614 13.1191676713 -4
v -1.06863991215 13.0199725411 -4
v -0.894471332136 12.9354368414 -4
v -0.713680399325 12.866186445 -4
v -0.527605626533 12.8127340576 -4
v -0.337624646275 12.775475422 -4
v -0.145144011261 12.7546863881 -4
v 0.0484112192315 12.7505208705 -4
v 0.241608029994 12.7630097095 -4
v 0.433016059434 12.7920604419 -4
v 0.621218189469 12.8374579863 -4
v 0.804821037375 12.8988662351 -4
v 0.982465271901 12.9758305433 -4
v 1.15283567729 13.0677810939 -4
v 1.31467089066 13.1740371172 -4
v 1.46677274073 13.2938119309 -4
v 1.6080151186 13.4262187641 -4
v 1.73735231512 13.570277323 -4
v 1.85382676295 13.7249210483 -4
v 1.95657612603 13.8890050121 -4
v 2.04483968401 14.0613143941 -4
v 2.1179639644 14.2405734759 -4
v 2.17540758061 14.425455086 -4
v 2.2167452402 14.6145904256 -4
v 2.2416708936 14.8065792028 -4
v 48 -1.95943487864e-15 -4
v 47.9703853995 0.6877183899 -4
v 47.881760854 1.37034515345 -4
v 47.7347825088 2.04282636093 -4
v 47.5305385401 2.70018319675 -4
v 47.2705410987 3.3375488209 -4
v 46.9567151148 3.95020440128 -4
v 46.5913840461 4.53361405033 -4
v 46.177252676 5.08345840712 -4
v 45.7173870883 5.59566661641 -4
v 45.215191967 6.06644646783 -4
v 44.674385389 6.49231247206 -4
v 44.098971297 6.87011166621 -4
v 43.4932098556 7.19704695722 -4
v 42.8615859107 7.47069783058 -4
v 42.2087757848 7.68903827098 -4
v 41.5396126558 7.85045176217 -4
v 40.8590507733 7.95374325515 -4
v 40.1721287795 7.99814801584 -4
v 39.4839324044 7.98333728692 -4
v 38.7995568132 7.90942072186 -4
v 38.1240688834 7.77694557303 -4
v 37.4624696913 7.5868926401 -4
v 36.8196574857 7.34066900848 -4
v 36.2003914235 7.04009763179 -4
v 35.6092563337 6.68740383535 -4
v 35.0506287739 6.28519884063 -4
v 34.528644627 5.83646043269 -4
v 34.047168481 5.34451091371 -4
v 33.6097650169 4.8129925058 -4
v 33.2196726169 4.2458403853 -4
v 32.8797793885 3.64725354807 -4
v 32.5926017824 3.02166372163 -4
v 32.3602659612 2.37370255419 -4
v 32.1844920578 1.70816732352 -4
v 32.0665814408 1.02998541962 -4
v 32.0074070792 0.344177864036 -4
v 32.0074070792 -0.344177864036 -4
v 32.0665814408 -1.02998541962 -4
v 32.1844920578 -1.70816732352 -4
v 32.3602659612 -2.37370255419 -4
v 32.5926017824 -3.02166372163 -4
v 32.8797793885 -3.64725354807 -4
v 33.2196726169 -4.2458403853 -4
v 33.6097650169 -4.8129925058 -4
v 34.047168481 -5.34451091371 -4
v 34.528644627 -5.83646043269 -4
v 35.0506287739 -6.28519884063 -4
v 35.6092563337 -6.68740383535 -4
v 36.2003914235 -7.04009763179 -4
v 36.8196574857 -7.34066900848 -4
v 37.4624696913 -7.5868926401 -4
v 38.1240688834 -7.77694557303 -4
v 38.7995568132 -7.90942072186 -4
v 39.4839324044 -7.98333728692 -4
v 40.1721287795 -7.99814801584 -4
v 40.8590507733 -7.95374325515 -4
v 41.5396126558 -7.85045176217 -4
v 42.2087757848 -7.68903827098 -4
v 42.8615859107 -7.47069783058 -4
v 43.4932098556 -7.19704695722 -4
v 44.098971297 -6.87011166621 -4
v 44.674385389 -6.49231247206 -4
v 45.215191967 -6.06644646783 -4
v 45.7173870883 -5.59566661641 -4
v 46.177252676 -5.08345840712 -4
v 46.5913840461 -4.53361405033 -4
v 46.9567151148 -3.95020440128 -4
v 47.2705410987 -3.3375488209 -4
v 47.5305385401 -2.70018319675 -4
v 47.7347825088 -2.04282636093 -4
v 47.881760854 -1.37034515345 -4
v 47.9703853995 -0.6877183899 -4
v 42.25 15 -4
v 42.2416708936 15.1934207972 -4
v 42.2167452402 15.3854095744 -4
v 42.1754075806 15.574544914 -4
v 42.1179639644 15.7594265241 -4
v 42.044839684 15.9386856059 -4
v 41.956576126 16.1109949879 -4
v 41.853826763 16.2750789517 -4
v 41.7373523151 16.429722677 -4
v 41.6080151186 16.5737812359 -4
v 41.4667727407 16.7061880691 -4
v 41.3146708907 16.8259628828 -4
v 41.1528356773 16.9322189061 -4
v 40.9824652719 17.0241694567 -4
v 40.8048210374 17.1011337649 -4
v 40.6212181895 17.1625420137 -4
v 40.4330160594 17.2079395581 -4
v 40.24160803 17.2369902905 -4
v 40.0484112192 17.2494791295 -4
v 39.8548559887 17.2453136119 -4
v 39.6623753537 17.224524578 -4
v 39.4723943735 17.1872659424 -4
v 39.2863196007 17.133813555 -4
v 39.1055286679 17.0645631586 -4
v 38.9313600878 16.9800274589 -4
v 38.7651033439 16.8808323287 -4
v 38.6079893427 16.7677121739 -4
v 38.4611813013 16.6415044967 -4
v 38.3257661353 16.5031436945 -4
v 38.202746411 16.3536541423 -4
v 38.0930329235 16.1941426084 -4
v 37.997437953 16.0257900604 -4
v 37.9166692513 15.8498429217 -4
v 37.8513248016 15.6676038434 -4
v 37.8018883913 15.4804220597 -4
v 37.7687260302 15.2896833993 -4
v 37.752083241 15.0968000243 -4
v 37.752083241 14.9031999757 -4
v 37.7687260302 14.7103166007 -4
v 37.8018883913 14.5195779403 -4
v 37.8513248016 14.3323961566 -4
v 37.9166692513 14.1501570783 -4
v 37.997437953 13.9742099396 -4
v 38.0930329235 13.8058573916 -4
v 38.202746411 13.6463458577 -4
v 38.3257661353 13.4968563055 -4
v 38.4611813013 13.3584955033 -4
v 38.6079893427 13.2322878261 -4
v 38.7651033439 13.1191676713 -4
v 38.9313600878 13.0199725411 -4
v 39.1055286679 12.9354368414 -4
v 39.2863196007 12.866186445 -4
v 39.4723943735 12.8127340576 -4
v 39.6623753537 12.775475422 -4
v 39.8548559887 12.7546863881 -4
v 40.0484112192 12.7505208705 -4
v 40.24160803 12.7630097095 -4
v 40.4330160594 12.7920604419 -4
v 40.6212181895 12.8374579863 -4
v 40.8048210374 12.8988662351 -4
v 40.9824652719 12.9758305433 -4
v 41.1528356773 13.0677810939 -4
v 41.3146708907 13.1740371172 -4
v 41.4667727407 13.2938119309 -4
v 41.6080151186 13.4262187641 -4
v 41.7373523151 13.570277323 -4
v 41.853826763 13.7249210483 -4
v 41.956576126 13.8890050121 -4
v 42.044839684 14.0613143941 -4
v 42.1179639644 14.2405734759 -4
v 42.1754075806 14.425455086 -4
v 42.2167452402 14.6145904256 -4
v 42.2416708936 14.8065792028 -4
v 58 21 -12
v 2.25 -15 -12
v 2.2416708936 -14.8065792028 -12
v 2.2167452402 -14.6145904256 -12
v 2.17540758061 -14.425455086 -12
v 2.1179639644 -14.2405734759 -12
v 2.04483968401 -14.0613143941 -12
v 1.95657612603 -13.8890050121 -12
v 1.85382676295 -13.7249210483 -12
v 1.73735231512 -13.570277323 -12
v 1.6080151186 -13.4262187641 -12
v 1.46677274073 -13.2938119309 -12
v 1.31467089066 -13.1740371172 -12
v 1.15283567729 -13.0677810939 -12
v 0.982465271901 -12.9758305433 -12
v 0.804821037375 -12.8988662351 -12
v 0.621218189469 -12.8374579863 -12
v 0.433016059434 -12.7920604419 -12
v 0.241608029994 -12.7630097095 -12
v 0.0484112192315 -12.7505208705 -12
v -0.145144011261 -12.7546863881 -12
v -0.337624646275 -12.775475422 -12
v -0.527605626533 -12.8127340576 -12
v -0.713680399325 -12.866186445 -12
v -0.894471332136 -12.9354368414 -12
v -1.06863991215 -13.0199725411 -12
v -1.23489665614 -13.1191676713 -12
v -1.39201065734 -13.2322878261 -12
v -1.53881869866 -13.3584955033 -12
v -1.67423386471 -13.4968563055 -12
v -1.79725358899 -13.6463458577 -12
v -1.90696707651 -13.8058573916 -12
v -2.00256204698 -13.9742099396 -12
v -2.08333074869 -14.1501570783 -12
v -2.14867519842 -14.3323961566 -12
v -2.19811160875 -14.5195779403 -12
v -2.23127396977 -14.7103166007 -12
v -2.24791675898 -14.9031999757 -12
v -2.24791675898 -15.0968000243 -12
v -2.23127396977 -15.2896833993 -12
v -2.19811160875 -15.4804220597 -12
v -2.14867519842 -15.6676038434 -12
v -2.08333074869 -15.8498429217 -12
v -2.00256204698 -16.0257900604 -12
v -1.90696707651 -16.1941426084 -12
v -1.79725358899 -16.3536541423 -12
v -1.67423386471 -16.5031436945 -12
v -1.53881869866 -16.6415044967 -12
v -1.39201065734 -16.7677121739 -12
v -1.23489665614 -16.8808323287 -12
v -1.06863991215 -16.9800274589 -12
v -0.894471332136 -17.0645631586 -12
v -0.713680399325 -17.133813555 -12
v -0.527605626533 -17.1872659424 -12
v -0.337624646275 -17.224524578 -12
v -0.145144011261 -17.2453136119 -12
v 0.0484112192315 -17.2494791295 -12
v 0.241608029994 -17.2369902905 -12
v 0.433016059434 -17.2079395581 -12
v 0.621218189469 -17.1625420137 -12
v 0.804821037375 -17.1011337649 -12
v 0.982465271901 -17.0241694567 -12
v 1.15283567729 -16.9322189061 -12
v 1.31467089066 -16.8259628828 -12
v 1.46677274073 -16.7061880691 -12
v 1.6080151186 -16.5737812359 -12
v 1.73735231512 -16.429722677 -12
v 1.85382676295 -16.2750789517 -12
v 1.95657612603 -16.1109949879 -12
v 2.04483968401 -15.9386856059 -12
v 2.1179639644 -15.7594265241 -12
v 2.17540758061 -15.574544914 -12
v 2.2167452402 -15.3854095744 -12
v 2.2416708936 -15.1934207972 -12
v 42.25 -15 -12
v 42.2416708936 -14.8065792028 -12
v 42.2167452402 -14.6145904256 -12
v 42.1754075806 -14.425455086 -12
v 42.1179639644 -14.2405734759 -12
v 42.044839684 -14.0613143941 -12
v 41.956576126 -13.8890050121 -12
v 41.853826763 -13.7249210483 -12
v 41.7373523151 -13.570277323 -12
v 41.6080151186 -13.4262187641 -12
v 41.4667727407 -13.2938119309 -12
v 41.3146708907 -13.1740371172 -12
v 41.1528356773 -13.0677810939 -12
v 40.9824652719 -12.9758305433 -12
v 40.8048210374 -12.8988662351 -12
v 40.6212181895 -12.8374579863 -12
v 40.4330160594 -12.7920604419 -12
v 40.24160803 -12.7630097095 -12
v 40.0484112192 -12.7505208705 -12
v 39.8548559887 -12.7546863881 -12
v 39.6623753537 -12.775475422 -12
v 39.4723943735 -12.8127340576 -12
v 39.2863196007 -12.866186445 -12
v 39.1055286679 -12.9354368414 -12
v 38.9313600878 -13.0199725411 -12
v 38.7651033439 -13.1191676713 -12
v 38.6079893427 -13.2322878261 -12
v 38.4611813013 -13.3584955033 -12
v 38.3257661353 -13.4968563055 -12
v 38.202746411 -13.6463458577 -12
v 38.0930329235 -13.8058573916 -12
v 37.997437953 -13.9742099396 -12
v 37.9166692513 -14.1501570783 -12
v 37.8513248016 -14.3323961566 -12
v 37.8018883913 -14.5195779403 -12
v 37.7687260302 -14.7103166007 -12
v 37.752083241 -14.9031999757 -12
v 37.752083241 -15.0968000243 -12
v 37.7687260302 -15.2896833993 -12
v 37.8018883913 -15.4804220597 -12
v 37.8513248016 -15.6676038434 -12
v 37.9166692513 -15.8498429217 -12
v 37.997437953 -16.0257900604 -12
v 38.0930329235 -16.1941426084 -12
v 38.202746411 -16.3536541423 -12
v 38.3257661353 -16.5031436945 -12
v 38.4611813013 -16.6415044967 -12
v 38.6079893427 -16.7677121739 -12
v 38.7651033439 -16.8808323287 -12
v 38.9313600878 -16.9800274589 -12
v 39.1055286679 -17.0645631586 -12
v 39.2863196007 -17.133813555 -12
v 39.4723943735 -17.1872659424 -12
v 39.6623753537 -17.224524578 -12
v 39.8548559887 -17.2453136119 -12
v 40.0484112192 -17.2494791295 -12
v 40.24160803 -17.2369902905 -12
v 40.4330160594 -17.2079395581 -12
v 40.6212181895 -17.1625420137 -12
v 40.8048210374 -17.1011337649 -12
v 40.9824652719 -17.0241694567 -12
v 41.1528356773 -16.9322189061 -12
v 41.3146708907 -16.8259628828 -12
v 41.4667727407 -16.7061880691 -12
v 41.6080151186 -16.5737812359 -12
v 41.7373523151 -16.429722677 -12
v 41.853826763 -16.2750789517 -12
v 41.956576126 -16.1109949879 -12
v 42.044839684 -15.9386856059 -12
v 42.1179639644 -15.7594265241 -12
v 42.1754075806 -15.574544914 -12
v 42.2167452402 -15.3854095744 -12
v 42.2416708936 -15.1934207972 -12
v 2.2 -5.38844591625e-16 -12
v 2.19185598486 0.189122557222 -12
v 2.16748423486 0.376844917199 -12
v 2.12706518993 0.561777249256 -12
v 2.07089809853 0.742550379107 -12
v 1.99939880215 0.917825925747 -12
v 1.91309665656 1.08630621035 -12
v 1.81263061267 1.24674386384 -12
v 1.6987444859 1.39795106196 -12
v 1.57228144929 1.53880831951 -12
v 1.43417779093 1.66827277865 -12
v 1.28545598198 1.78538592982 -12
v 1.12721710668 1.88928070821 -12
v 0.960632710303 1.97918791323 -12
v 0.786936125433 2.05444190341 -12
v 0.607413340814 2.11448552452 -12
v 0.423393480336 2.1588742346 -12
v 0.236238962661 2.18727939517 -12
v 0.0473354143597 2.19949070436 -12
v -0.141918588788 2.1954177539 -12
v -0.330121876358 2.17509069851 -12
v -0.515881057055 2.13866003258 -12
v -0.697820834896 2.08639547603 -12
v -0.874594191422 2.01868397733 -12
v -1.04489235855 1.93602684874 -12
v -1.20745450823 1.83903605472 -12
v -1.36107708718 1.72842968117 -12
v -1.50462272757 1.60502661899 -12
v -1.63702866772 1.46974050127 -12
v -1.75731462035 1.32357293909 -12
v -1.86459003036 1.16760610596 -12
v -1.95806066816 1.00299472572 -12
v -2.03703450983 0.830957523449 -12
v -2.10092686068 0.652768202402 -12
v -2.14926468411 0.469746013968 -12
v -2.18169010378 0.283245990396 -12
v -2.19796305322 0.09464891261 -12
v -2.19796305322 -0.09464891261 -12
v -2.18169010378 -0.283245990396 -12
v -2.14926468411 -0.469746013968 -12
v -2.10092686068 -0.652768202402 -12
v -2.03703450983 -0.830957523449 -12
v -1.95806066816 -1.00299472572 -12
v -1.86459003036 -1.16760610596 -12
v -1.75731462035 -1.32357293909 -12
v -1.63702866772 -1.46974050127 -12
v -1.50462272757 -1.60502661899 -12
v -1.36107708718 -1.72842968117 -12
v -1.20745450823 -1.83903605472 -12
v -1.04489235855 -1.93602684874 -12
v -0.874594191422 -2.01868397733 -12
v -0.697820834896 -2.08639547603 -12
v -0.515881057055 -2.13866003258 -12
v -0.330121876358 -2.17509069851 -12
v -0.141918588788 -2.1954177539 -12
v 0.0473354143597 -2.19949070436 -12
v 0.236238962661 -2.18727939517 -12
v 0.423393480336 -2.1588742346 -12
v 0.607413340814 -2.11448552452 -12
v 0.786936125433 -2.05444190341 -12
v 0.960632710303 -1.97918791323 -12
v 1.12721710668 -1.88928070821 -12
v 1.28545598198 -1.78538592982 -12
v 1.43417779093 -1.66827277865 -12
v 1.57228144929 -1.53880831951 -12
v 1.6987444859 -1.39795106196 -12
v 1.81263061267 -1.24674386384 -12
v 1.91309665656 -1.08630621035 -12
v 1.99939880215 -0.917825925747 -12
v 2.07089809853 -0.742550379107 -12
v 2.12706518993 -0.561777249256 -12
v 2.16748423486 -0.376844917199 -12
v 2.19185598486 -0.189122557222 -12
v 2.25 15 -12
v 2.2416708936 15.1934207972 -12
v 2.2167452402 15.3854095744 -12
v 2.17540758061 15.574544914 -12
v 2.1179639644 15.7594265241 -12
v 2.04483968401 15.9386856059 -12
v 1.95657612603 16.1109949879 -12
v 1.85382676295 16.2750789517 -12
v 1.73735231512 16.429722677 -12
v 1.6080151186 16.5737812359 -12
v 1.46677274073 16.7061880691 -12
v 1.31467089066 16.8259628828 -12
v 1.15283567729 16.9322189061 -12
v 0.982465271901 17.0241694567 -12
v 0.804821037375 17.1011337649 -12
v 0.621218189469 17.1625420137 -12
v 0.433016059434 17.2079395581 -12
v 0.241608029994 17.2369902905 -12
v 0.0484112192315 17.2494791295 -12
v -0.145144011261 17.2453136119 -12
v -0.337624646275 17.224524578 -12
v -0.527605626533 17.1872659424 -12
v -0.713680399325 17.133813555 -12
v -0.894471332136 17.0645631586 -12
v -1.06863991215 16.9800274589 -12
v -1.23489665614 16.8808323287 -12
v -1.39201065734 16.7677121739 -12
v -1.53881869866 16.6415044967 -12
v -1.67423386471 16.5031436945 -12
v -1.79725358899 16.3536541423 -12
v -1.90696707651 16.1941426084 -12
v -2.00256204698 16.0257900604 -12
v -2.08333074869 15.8498429217 -12
v -2.14867519842 15.6676038434 -12
v -2.19811160875 15.4804220597 -12
v -2.23127396977 15.2896833993 -12
v -2.24791675898 15.0968000243 -12
v -2.24791675898 14.9031999757 -12
v -2.23127396977 14.7103166007 -12
v -2.19811160875 14.5195779403 -12
v -2.14867519842 14.3323961566 -12
v -2.08333074869 14.1501570783 -12
v -2.00256204698 13.9742099396 -12
v -1.90696707651 13.8058573916 -12
v -1.79725358899 13.6463458577 -12
v -1.67423386471 13.4968563055 -12
v -1.53881869866 13.3584955033 -12
v -1.39201065734 13.2322878261 -12
v -1.23489665614 13.1191676713 -12
v -1.06863991215 13.0199725411 -12
v -0.894471332136 12.9354368414 -12
v -0.713680399325 12.866186445 -12
v -0.527605626533 12.8127340576 -12
v -0.337624646275 12.775475422 -12
v -0.145144011261 12.7546863881 -12
v 0.0484112192315 12.7505208705 -12
v 0.241608029994 12.7630097095 -12
v 0.433016059434 12.7920604419 -12
v 0.621218189469 12.8374579863 -12
v 0.804821037375 12.8988662351 -12
v 0.982465271901 12.9758305433 -12
v 1.15283567729 13.0677810939 -12
v 1.31467089066 13.1740371172 -12
v 1.46677274073 13.2938119309 -12
v 1.6080151186 13.4262187641 -12
v 1.73735231512 13.570277323 -12
v 1.85382676295 13.7249210483 -12
v 1.95657612603 13.8890050121 -12
v 2.04483968401 14.0613143941 -12
v 2.1179639644 14.2405734759 -12
v 2.17540758061 14.425455086 -12
v 2.2167452402 14.6145904256 -12
v 2.2416708936 14.8065792028 -12
v 42.2 -5.38844591625e-16 -12
v 42.1918559849 0.189122557222 -12
v 42.1674842349 0.376844917199 -12
v 42.1270651899 0.561777249256 -12
v 42.0708980985 0.742550379107 -12
v 41.9993988021 0.917825925747 -12
v 41.9130966566 1.08630621035 -12
v 41.8126306127 1.24674386384 -12
v 41.6987444859 1.39795106196 -12
v 41.5722814493 1.53880831951 -12
v 41.4341777909 1.66827277865 -12
v 41.285455982 1.78538592982 -12
v 41.1272171067 1.88928070821 -12
v 40.9606327103 1.97918791323 -12
v 40.7869361254 2.05444190341 -12
v 40.6074133408 2.11448552452 -12
v 40.4233934803 2.1588742346 -12
v 40.2362389627 2.18727939517 -12
v 40.0473354144 2.19949070436 -12
v 39.8580814112 2.1954177539 -12
v 39.6698781236 2.17509069851 -12
v 39.4841189429 2.13866003258 -12
v 39.3021791651 2.08639547603 -12
v 39.1254058086 2.01868397733 -12
v 38.9551076415 1.93602684874 -12
v 38.7925454918 1.83903605472 -12
v 38.6389229128 1.72842968117 -12
v 38.4953772724 1.60502661899 -12
v 38.3629713323 1.46974050127 -12
v 38.2426853796 1.32357293909 -12
v 38.1354099696 1.16760610596 -12
v 38.0419393318 1.00299472572 -12
v 37.9629654902 0.830957523449 -12
v 37.8990731393 0.652768202402 -12
v 37.8507353159 0.469746013968 -12
v 37.8183098962 0.283245990396 -12
v 37.8020369468 0.09464891261 -12
v 37.8020369468 -0.09464891261 -12
v 37.8183098962 -0.283245990396 -12
v 37.8507353159 -0.469746013968 -12
v 37.8990731393 -0.652768202402 -12
v 37.9629654902 -0.830957523449 -12
v 38.0419393318 -1.00299472572 -12
v 38.1354099696 -1.16760610596 -12
v 38.2426853796 -1.32357293909 -12
v 38.3629713323 -1.46974050127 -12
v 38.4953772724 -1.60502661899 -12
v 38.6389229128 -1.72842968117 -12
v 38.7925454918 -1.83903605472 -12
v 38.9551076415 -1.93602684874 -12
v 39.1254058086 -2.01868397733 -12
v 39.3021791651 -2.08639547603 -12
v 39.4841189429 -2.13866003258 -12
v 39.6698781236 -2.17509069851 -12
v 39.8580814112 -2.1954177539 -12
v 40.0473354144 -2.19949070436 -12
v 40.2362389627 -2.18727939517 -12
v 40.4233934803 -2.1588742346 -12
v 40.6074133408 -2.11448552452 -12
v 40.7869361254 -2.05444190341 -12
v 40.9606327103 -1.97918791323 -12
v 41.1272171067 -1.88928070821 -12
v 41.285455982 -1.78538592982 -12
v 41.4341777909 -1.66827277865 -12
v 41.5722814493 -1.53880831951 -12
v 41.6987444859 -1.39795106196 -12
v 41.8126306127 -1.24674386384 -12
v 41.9130966566 -1.08630621035 -12
v 41.9993988021 -0.917825925747 -12
v 42.0708980985 -0.742550379107 -12
v 42.1270651899 -0.561777249256 -12
v 42.1674842349 -0.376844917199 -12
v 42.1918559849 -0.189122557222 -12
v 42.25 15 -12
v 42.2416708936 15.1934207972 -12
v 42.2167452402 15.3854095744 -12
v 42.1754075806 15.574544914 -12
v 42.1179639644 15.7594265241 -12
v 42.044839684 15.9386856059 -12
v 41.956576126 16.1109949879 -12
v 41.853826763 16.2750789517 -12
v 41.7373523151 16.429722677 -12
v 41.6080151186 16.5737812359 -12
v 41.4667727407 16.7061880691 -12
v 41.3146708907 16.8259628828 -12
v 41.1528356773 16.9322189061 -12
v 40.9824652719 17.0241694567 -12
v 40.8048210374 17.1011337649 -12
v 40.6212181895 17.1625420137 -12
v 40.4330160594 17.2079395581 -12
v 40.24160803 17.2369902905 -12
v 40.0484112192 17.2494791295 -12
v 39.8548559887 17.2453136119 -12
v 39.6623753537 17.224524578 -12
v 39.4723943735 17.1872659424 -12
v 39.2863196007 17.133813555 -12
v 39.1055286679 17.0645631586 -12
v 38.9313600878 16.9800274589 -12
v 38.7651033439 16.8808323287 -12
v 38.6079893427 16.7677121739 -12
v 38.4611813013 16.6415044967 -12
v 38.3257661353 16.5031436945 -12
v 38.202746411 16.3536541423 -12
v 38.0930329235 16.1941426084 -12
v 37.997437953 16.0257900604 -12
v 37.9166692513 15.8498429217 -12
v 37.8513248016 15.6676038434 -12
v 37.8018883913 15.4804220597 -12
v 37.7687260302 15.2896833993 -12
v 37.752083241 15.0968000243 -12
v 37.752083241 14.9031999757 -12
v 37.7687260302 14.7103166007 -12
v 37.8018883913 14.5195779403 -12
v 37.8513248016 14.3323961566 -12
v 37.9166692513 14.1501570783 -12
v 37.997437953 13.9742099396 -12
v 38.0930329235 13.8058573916 -12
v 38.202746411 13.6463458577 -12
v 38.3257661353 13.4968563055 -12
v 38.4611813013 13.3584955033 -12
v 38.6079893427 13.2322878261 -12
v 38.7651033439 13.1191676713 -12
v 38.9313600878 13.0199725411 -12
v 39.1055286679 12.9354368414 -12
v 39.2863196007 12.866186445 -12
v 39.4723943735 12.8127340576 -12
v 39.6623753537 12.775475422 -12
v 39.8548559887 12.7546863881 -12
v 40.0484112192 12.7505208705 -12
v 40.24160803 12.7630097095 -12
v 40.4330160594 12.7920604419 -12
v 40.6212181895 12.8374579863 -12
v 40.8048210374 12.8988662351 -12
v 40.9824652719 12.9758305433 -12
v 41.1528356773 13.0677810939 -12
v 41.3146708907 13.1740371172 -12
v 41.4667727407 13.2938119309 -12
v 41.6080151186 13.4262187641 -12
v 41.7373523151 13.570277323 -12
v 41.853826763 13.7249210483 -12
v 41.956576126 13.8890050121 -12
v 42.044839684 14.0613143941 -12
v 42.1179639644 14.2405734759 -12
v 42.1754075806 14.425455086 -12
v 42.2167452402 14.6145904256 -12
v 42.2416708936 14.8065792028 -12
v 8 -1.95943487864e-15 2
v 7.97038539948 0.6877183899 2
v 7.88176085405 1.37034515345 2
v 7.73478250884 2.04282636093 2
v 7.5305385401 2.70018319675 2
v 7.27054109872 3.3375488209 2
v 6.95671511477 3.95020440128 2
v 6.59138404606 4.53361405033 2
v 6.17725267599 5.08345840712 2
v 5.71738708834 5.59566661641 2
v 5.21519196703 6.06644646783 2
v 4.67438538903 6.49231247206 2
v 4.09897129703 6.87011166621 2
v 3.49320985565 7.19704695722 2
v 2.86158591067 7.47069783058 2
v 2.20877578478 7.68903827098 2
v 1.53961265577 7.85045176217 2
v 0.859050773313 7.95374325515 2
v 0.17212877949 7.99814801584 2
v -0.516067595595 7.98333728692 2
v -1.20044318676 7.90942072186 2
v -1.87593111656 7.77694557303 2
v -2.53753030871 7.5868926401 2
v -3.18034251426 7.34066900848 2
v -3.79960857654 7.04009763179 2
v -4.39074366628 6.68740383535 2
v -4.9493712261 6.28519884063 2
v -5.471355373 5.83646043269 2
v -5.95283151897 5.34451091371 2
v -6.39023498309 4.8129925058 2
v -6.78032738314 4.2458403853 2
v -7.12022061148 3.64725354807 2
v -7.40739821755 3.02166372163 2
v -7.63973403884 2.37370255419 2
v -7.81550794222 1.70816732352 2
v -7.93341855919 1.02998541962 2
v -7.99259292082 0.344177864036 2
v -7.99259292082 -0.344177864036 2
v -7.93341855919 -1.02998541962 2
v -7.81550794222 -1.70816732352 2
v -7.63973403884 -2.37370255419 2
v -7.40739821755 -3.02166372163 2
v -7.12022061148 -3.64725354807 2
v -6.78032738314 -4.2458403853 2
v -6.39023498309 -4.8129925058 2
v -5.95283151897 -5.34451091371 2
v -5.471355373 -5.83646043269 2
v -4.9493712261 -6.28519884063 2
v -4.39074366628 -6.68740383535 2
v -3.79960857654 -7.04009763179 2
v -3.18034251426 -7.34066900848 2
v -2.53753030871 -7.5868926401 2
v -1.87593111656 -7.77694557303 2
v -1.20044318676 -7.90942072186 2
v -0.516067595595 -7.98333728692 2
v 0.17212877949 -7.99814801584 2
v 0.859050773313 -7.95374325515 2
v 1.53961265577 -7.85045176217 2
v 2.20877578478 -7.68903827098 2
v 2.86158591067 -7.47069783058 2
v 3.49320985565 -7.19704695722 2
v 4.09897129703 -6.87011166621 2
v 4.67438538903 -6.49231247206 2
v 5.21519196703 -6.06644646783 2
v 5.71738708834 -5.59566661641 2
v 6.17725267599 -5.08345840712 2
v 6.59138404606 -4.53361405033 2
v 6.95671511477 -3.95020440128 2
v 7.27054109872 -3.3375488209 2
v 7.5305385401 -2.70018319675 2
v 7.73478250884 -2.04282636093 2
v 7.88176085405 -1.37034515345 2
v 7.97038539948 -0.6877183899 2
v 48 -1.95943487864e-15 2
v 47.9703853995 0.6877183899 2
v 47.881760854 1.37034515345 2
v 47.7347825088 2.04282636093 2
v 47.5305385401 2.70018319675 2
v 47.2705410987 3.3375488209 2
v 46.9567151148 3.95020440128 2
v 46.5913840461 4.53361405033 2
v 46.177252676 5.08345840712 2
v 45.7173870883 5.59566661641 2
v 45.215191967 6.06644646783 2
v 44.674385389 6.49231247206 2
v 44.098971297 6.87011166621 2
v 43.4932098556 7.19704695722 2
v 42.8615859107 7.47069783058 2
v 42.2087757848 7.68903827098 2
v 41.5396126558 7.85045176217 2
v 40.8590507733 7.95374325515 2
v 40.1721287795 7.99814801584 2
v 39.4839324044 7.98333728692 2
v 38.7995568132 7.90942072186 2
v 38.1240688834 7.77694557303 2
v 37.4624696913 7.5868926401 2
v 36.8196574857 7.34066900848 2
v 36.2003914235 7.04009763179 2
v 35.6092563337 6.68740383535 2
v 35.0506287739 6.28519884063 2
v 34.528644627 5.83646043269 2
v 34.047168481 5.34451091371 2
v 33.6097650169 4.8129925058 2
v 33.2196726169 4.2458403853 2
v 32.8797793885 3.64725354807 2
v 32.5926017824 3.02166372163 2
v 32.3602659612 2.37370255419 2
v 32.1844920578 1.70816732352 2
v 32.0665814408 1.02998541962 2
v 32.0074070792 0.344177864036 2
v 32.0074070792 -0.344177864036 2
v 32.0665814408 -1.02998541962 2
v 32.1844920578 -1.70816732352 2
v 32.3602659612 -2.37370255419 2
v 32.5926017824 -3.02166372163 2
v 32.8797793885 -3.64725354807 2
v 33.2196726169 -4.2458403853 2
v 33.6097650169 -4.8129925058 2
v 34.047168481 -5.34451091371 2
v 34.528644627 -5.83646043269 2
v 35.0506287739 -6.28519884063 2
v 35.6092563337 -6.68740383535 2
v 36.2003914235 -7.04009763179 2
v 36.8196574857 -7.34066900848 2
v 37.4624696913 -7.5868926401 2
v 38.1240688834 -7.77694557303 2
v 38.7995568132 -7.90942072186 2
v 39.4839324044 -7.98333728692 2
v 40.1721287795 -7.99814801584 2
v 40.8590507733 -7.95374325515 2
v 41.5396126558 -7.85045176217 2
v 42.2087757848 -7.68903827098 2
v 42.8615859107 -7.47069783058 2
v 43.4932098556 -7.19704695722 2
v 44.098971297 -6.87011166621 2
v 44.674385389 -6.49231247206 2
v 45.215191967 -6.06644646783 2
v 45.7173870883 -5.59566661641 2
v 46.177252676 -5.08345840712 2
v 46.5913840461 -4.53361405033 2
v 46.9567151148 -3.95020440128 2
v 47.2705410987 -3.3375488209 2
v 47.5305385401 -2.70018319675 2
v 47.7347825088 -2.04282636093 2
v 47.881760854 -1.37034515345 2
v 47.9703853995 -0.6877183899 2
v 2.2 -5.38844591625e-16 2
v 2.19185598486 0.189122557222 2
v 2.16748423486 0.376844917199 2
v 2.12706518993 0.561777249256 2
v 2.07089809853 0.742550379107 2
v 1.99939880215 0.917825925747 2
v 1.91309665656 1.08630621035 2
v 1.81263061267 1.24674386384 2
v 1.6987444859 1.39795106196 2
v 1.57228144929 1.53880831951 2
v 1.43417779093 1.66827277865 2
v 1.28545598198 1.78538592982 2
v 1.12721710668 1.88928070821 2
v 0.960632710303 1.97918791323 2
v 0.786936125433 2.05444190341 2
v 0.607413340814 2.11448552452 2
v 0.423393480336 2.1588742346 2
v 0.236238962661 2.18727939517 2
v 0.0473354143597 2.19949070436 2
v -0.141918588788 2.1954177539 2
v -0.330121876358 2.17509069851 2
v -0.515881057055 2.13866003258 2
v -0.697820834896 2.08639547603 2
v -0.874594191422 2.01868397733 2
v -1.04489235855 1.93602684874 2
v -1.20745450823 1.83903605472 2
v -1.36107708718 1.72842968117 2
v -1.50462272757 1.60502661899 2
v -1.63702866772 1.46974050127 2
v -1.75731462035 1.32357293909 2
v -1.86459003036 1.16760610596 2
v -1.95806066816 1.00299472572 2
v -2.03703450983 0.830957523449 2
v -2.10092686068 0.652768202402 2
v -2.14926468411 0.469746013968 2
v -2.18169010378 0.283245990396 2
v -2.19796305322 0.09464891261 2
v -2.19796305322 -0.09464891261 2
v -2.18169010378 -0.283245990396 2
v -2.14926468411 -0.469746013968 2
v -2.10092686068 -0.652768202402 2
v -2.03703450983 -0.830957523449 2
v -1.95806066816 -1.00299472572 2
v -1.86459003036 -1.16760610596 2
v -1.75731462035 -1.32357293909 2
v -1.63702866772 -1.46974050127 2
v -1.50462272757 -1.60502661899 2
v -1.36107708718 -1.72842968117 2
v -1.20745450823 -1.83903605472 2
v -1.04489235855 -1.93602684874 2
v -0.874594191422 -2.01868397733 2
v -0.697820834896 -2.08639547603 2
v -0.515881057055 -2.13866003258 2
v -0.330121876358 -2.17509069851 2
v -0.141918588788 -2.1954177539 2
v 0.0473354143597 -2.19949070436 2
v 0.236238962661 -2.18727939517 2
v 0.423393480336 -2.1588742346 2
v 0.607413340814 -2.11448552452 2
v 0.786936125433 -2.05444190341 2
v 0.960632710303 -1.97918791323 2
v 1.12721710668 -1.88928070821 2
v 1.28545598198 -1.78538592982 2
v 1.43417779093 -1.66827277865 2
v 1.57228144929 -1.53880831951 2
v 1.6987444859 -1.39795106196 2
v 1.81263061267 -1.24674386384 2
v 1.91309665656 -1.08630621035 2
v 1.99939880215 -0.917825925747 2
v 2.07089809853 -0.742550379107 2
v 2.12706518993 -0.561777249256 2
v 2.16748423486 -0.376844917199 2
v 2.19185598486 -0.189122557222 2
v 42.2 -5.38844591625e-16 2
v 42.1918559849 0.189122557222 2
v 42.1674842349 0.376844917199 2
v 42.1270651899 0.561777249256 2
v 42.0708980985 0.742550379107 2
v 41.9993988021 0.917825925747 2
v 41.9130966566 1.08630621035 2
v 41.8126306127 1.24674386384 2
v 41.6987444859 1.39795106196 2
v 41.5722814493 1.53880831951 2
v 41.4341777909 1.66827277865 2
v 41.285455982 1.78538592982 2
v 41.1272171067 1.88928070821 2
v 40.9606327103 1.97918791323 2
v 40.7869361254 2.05444190341 2
v 40.6074133408 2.11448552452 2
v 40.4233934803 2.1588742346 2
v 40.2362389627 2.18727939517 2
v 40.0473354144 2.19949070436 2
v 39.8580814112 2.1954177539 2
v 39.6698781236 2.17509069851 2
v 39.4841189429 2.13866003258 2
v 39.3021791651 2.08639547603 2
v 39.1254058086 2.01868397733 2
v 38.9551076415 1.93602684874 2
v 38.7925454918 1.83903605472 2
v 38.6389229128 1.72842968117 2
v 38.4953772724 1.60502661899 2
v 38.3629713323 1.46974050127 2
v 38.2426853796 1.32357293909 2
v 38.1354099696 1.16760610596 2
v 38.0419393318 1.00299472572 2
v 37.9629654902 0.830957523449 2
v 37.8990731393 0.652768202402 2
v 37.8507353159 0.469746013968 2
v 37.8183098962 0.283245990396 2
v 37.8020369468 0.09464891261 2
v 37.8020369468 -0.09464891261 2
v 37.8183098962 -0.283245990396 2
v 37.8507353159 -0.469746013968 2
v 37.8990731393 -0.652768202402 2
v 37.9629654902 -0.830957523449 2
v 38.0419393318 -1.00299472572 2
v 38.1354099696 -1.16760610596 2
v 38.2426853796 -1.32357293909 2
v 38.3629713323 -1.46974050127 2
v 38.4953772724 -1.60502661899 2
v 38.6389229128 -1.72842968117 2
v 38.7925454918 -1.83903605472 2
v 38.9551076415 -1.93602684874 2
v 39.1254058086 -2.01868397733 2
v 39.3021791651 -2.08639547603 2
v 39.4841189429 -2.13866003258 2
v 39.6698781236 -2.17509069851 2
v 39.8580814112 -2.1954177539 2
v 40.0473354144 -2.19949070436 2
v 40.2362389627 -2.18727939517 2
v 40.4233934803 -2.1588742346 2
v 40.6074133408 -2.11448552452 2
v 40.7869361254 -2.05444190341 2
v 40.9606327103 -1.97918791323 2
v 41.1272171067 -1.88928070821 2
v 41.285455982 -1.78538592982 2
v 41.4341777909 -1.66827277865 2
v 41.5722814493 -1.53880831951 2
v 41.6987444859 -1.39795106196 2
v 41.8126306127 -1.24674386384 2
v 41.9130966566 -1.08630621035 2
v 41.9993988021 -0.917825925747 2
v 42.0708980985 -0.742550379107 2
v 42.1270651899 -0.561777249256 2
v 42.1674842349 -0.376844917199 2
v 42.1918559849 -0.189122557222 2
f 1 4 3
f 2 4 1
f 5 2 1
f 6 2 5
f 53 2 54
f 55 54 2
f 52 2 53
f 56 55 2
f 51 2 52
f 57 56 2
f 50 2 51
f 58 57 2
f 49 2 50
f 59 58 2
f 48 2 49
f 60 59 2
f 47 2 48
f 61 60 2
f 46 2 47
f 62 61 2
f 45 2 46
f 63 62 2
f 44 2 45
f 64 63 2
f 43 2 44
f 200 43 42
f 200 2 43
f 199 2 200
f 201 42 41
f 201 200 42
f 198 2 199
f 202 40 39
f 202 41 40
f 202 201 41
f 197 2 198
f 203 202 39
f 203 38 37
f 203 39 38
f 196 2 197
f 204 203 37
f 204 36 35
f 204 37 36
f 195 2 196
f 205 34 33
f 205 35 34
f 205 204 35
f 194 2 195
f 206 32 31
f 206 33 32
f 206 205 33
f 193 2 194
f 207 30 29
f 207 31 30
f 207 206 31
f 192 2 193
f 208 207 29
f 208 28 27
f 208 29 28
f 191 2 192
f 209 208 27
f 209 26 25
f 209 27 26
f 190 2 191
f 210 23 22
f 210 24 23
f 210 25 24
f 210 209 25
f 211 21 20
f 211 22 21
f 211 210 22
f 212 19 18
f 212 20 19
f 212 211 20
f 213 17 16
f 213 18 17
f 213 212 18
f 214 213 16
f 214 15 14
f 214 16 15
f 215 14 13
f 215 214 14
f 216 12 11
f 216 13 12
f 216 215 13
f 217 10 9
f 217 11 10
f 217 216 11
f 218 9 8
f 218 217 9
f 219 218 8
f 219 8 80
f 4 2 190
f 4 182 181
f 4 183 182
f 4 184 183
f 4 185 184
f 4 186 185
f 4 187 186
f 4 188 187
f 4 189 188
f 4 190 189
f 273 177 176
f 272 177 273
f 274 273 176
f 271 177 272
f 271 178 177
f 275 176 175
f 275 274 176
f 270 178 271
f 276 275 175
f 269 178 270
f 269 179 178
f 277 276 175
f 277 175 174
f 268 179 269
f 278 277 174
f 267 179 268
f 267 180 179
f 279 278 174
f 279 174 173
f 266 180 267
f 266 181 180
f 280 279 173
f 265 4 181
f 265 181 266
f 281 280 173
f 281 173 172
f 264 4 265
f 282 281 172
f 263 4 264
f 283 172 171
f 283 282 172
f 262 4 263
f 284 283 171
f 261 4 262
f 285 284 171
f 260 4 261
f 286 171 170
f 286 285 171
f 259 4 260
f 287 286 170
f 258 4 259
f 288 170 169
f 288 287 170
f 257 4 258
f 289 288 169
f 256 4 257
f 290 169 168
f 290 289 169
f 255 4 256
f 291 290 168
f 254 4 255
f 292 291 168
f 292 168 167
f 253 4 254
f 293 292 167
f 252 4 253
f 294 293 167
f 294 167 166
f 251 4 252
f 295 294 166
f 295 166 165
f 250 4 251
f 296 295 165
f 249 4 250
f 297 296 165
f 297 165 164
f 248 4 249
f 298 297 164
f 247 4 248
f 299 298 164
f 299 164 163
f 246 4 247
f 227 299 163
f 227 163 162
f 245 4 246
f 228 227 162
f 127 72 71
f 126 72 127
f 126 73 72
f 128 127 71
f 128 71 70
f 125 74 73
f 125 73 126
f 129 70 69
f 129 128 70
f 124 75 74
f 124 74 125
f 130 69 68
f 130 129 69
f 123 76 75
f 123 75 124
f 131 68 67
f 131 130 68
f 122 77 76
f 122 76 123
f 132 67 66
f 132 131 67
f 121 78 77
f 121 77 122
f 133 132 66
f 133 66 65
f 120 79 78
f 120 78 121
f 134 133 65
f 134 64 2
f 134 65 64
f 119 79 120
f 119 80 79
f 118 80 119
f 118 219 80
f 346 116 115
f 346 117 116
f 345 118 117
f 345 117 346
f 347 115 114
f 347 346 115
f 344 220 219
f 344 118 345
f 344 219 118
f 348 113 112
f 348 114 113
f 348 347 114
f 343 221 220
f 343 220 344
f 349 111 110
f 349 112 111
f 349 348 112
f 342 222 221
f 342 221 343
f 350 109 108
f 350 110 109
f 350 349 110
f 341 223 222
f 341 222 342
f 351 107 106
f 351 108 107
f 351 350 108
f 340 224 223
f 340 223 341
f 352 105 104
f 352 106 105
f 352 351 106
f 339 224 340
f 339 225 224
f 353 352 104
f 353 103 102
f 353 104 103
f 338 226 225
f 338 225 339
f 354 353 102
f 354 101 100
f 354 102 101
f 337 154 226
f 337 226 338
f 355 354 100
f 355 99 98
f 355 100 99
f 336 155 154
f 336 154 337
f 356 355 98
f 356 96 95
f 356 97 96
f 356 98 97
f 335 155 336
f 335 156 155
f 357 356 95
f 357 94 93
f 357 95 94
f 334 157 156
f 334 156 335
f 358 357 93
f 358 92 91
f 358 93 92
f 333 158 157
f 333 157 334
f 359 358 91
f 359 90 89
f 359 91 90
f 332 159 158
f 332 158 333
f 360 359 89
f 360 88 87
f 360 89 88
f 331 160 159
f 331 159 332
f 6 135 134
f 6 136 135
f 6 137 136
f 6 138 137
f 6 139 138
f 6 140 139
f 6 141 140
f 6 142 141
f 6 143 142
f 6 144 143
f 6 145 144
f 6 146 145
f 6 147 146
f 6 148 147
f 6 149 148
f 6 150 149
f 6 151 150
f 6 152 151
f 6 153 152
f 6 81 153
f 6 82 81
f 6 83 82
f 6 134 2
f 361 360 87
f 361 87 86
f 330 161 160
f 330 160 331
f 362 85 84
f 362 86 85
f 362 361 86
f 329 162 161
f 329 161 330
f 363 362 84
f 363 84 83
f 363 83 6
f 364 363 6
f 365 364 6
f 366 365 6
f 367 366 6
f 368 367 6
f 369 368 6
f 370 369 6
f 371 370 6
f 372 371 6
f 300 372 6
f 419 323 322
f 418 323 419
f 420 419 322
f 417 324 323
f 417 323 418
f 421 322 321
f 421 420 322
f 416 324 417
f 422 421 321
f 415 325 324
f 415 324 416
f 423 321 320
f 423 422 321
f 414 325 415
f 424 423 320
f 413 326 325
f 413 325 414
f 425 320 319
f 425 424 320
f 412 327 326
f 412 326 413
f 426 425 319
f 411 327 412
f 427 319 318
f 427 426 319
f 410 328 327
f 410 327 411
f 428 427 318
f 409 329 328
f 409 228 162
f 409 328 410
f 409 162 329
f 429 428 318
f 429 318 317
f 408 229 228
f 408 228 409
f 430 429 317
f 407 229 408
f 407 230 229
f 431 430 317
f 406 231 230
f 406 230 407
f 432 317 316
f 432 431 317
f 405 231 406
f 405 232 231
f 433 432 316
f 404 232 405
f 404 233 232
f 434 316 315
f 434 433 316
f 403 233 404
f 403 234 233
f 435 434 315
f 402 234 403
f 402 235 234
f 436 315 314
f 436 435 315
f 401 235 402
f 401 236 235
f 437 436 314
f 400 237 236
f 400 236 401
f 438 314 313
f 438 437 314
f 399 238 237
f 399 237 400
f 439 438 313
f 398 238 399
f 398 239 238
f 440 313 312
f 440 439 313
f 397 240 239
f 397 239 398
f 441 312 311
f 441 440 312
f 442 441 311
f 443 311 310
f 443 442 311
f 444 443 310
f 7 307 306
f 7 308 307
f 7 309 308
f 7 310 309
f 7 444 310
f 7 300 6
f 7 445 444
f 7 373 445
f 7 374 373
f 7 375 374
f 7 376 375
f 7 377 376
f 7 378 377
f 7 379 378
f 7 380 379
f 7 381 380
f 7 382 381
f 7 383 382
f 7 384 383
f 7 385 384
f 7 386 385
f 7 387 386
f 7 388 387
f 7 389 388
f 7 390 389
f 7 391 390
f 7 301 300
f 7 302 301
f 7 303 302
f 7 304 303
f 7 305 304
f 7 306 305
f 7 4 245
f 7 245 244
f 7 244 243
f 7 243 242
f 7 242 241
f 7 241 240
f 7 240 392
f 392 240 393
f 393 240 394
f 394 240 395
f 395 240 396
f 396 240 397
f 7 392 391
f 446 3 4
f 7 446 4
f 492 493 1
f 494 1 493
f 491 492 1
f 495 1 494
f 490 491 1
f 496 1 495
f 489 490 1
f 497 1 496
f 488 489 1
f 498 1 497
f 487 488 1
f 499 1 498
f 486 487 1
f 500 1 499
f 485 486 1
f 501 1 500
f 484 485 1
f 502 1 501
f 483 484 1
f 503 1 502
f 482 483 1
f 481 482 1
f 480 481 1
f 479 480 1
f 478 479 1
f 639 473 474
f 638 639 474
f 638 474 475
f 640 473 639
f 640 472 473
f 637 638 475
f 637 475 476
f 641 471 472
f 641 472 640
f 636 476 477
f 636 637 476
f 642 470 471
f 642 471 641
f 635 636 477
f 635 477 478
f 635 478 1
f 643 469 470
f 643 470 642
f 634 635 1
f 644 468 469
f 644 469 643
f 633 634 1
f 645 467 468
f 645 468 644
f 632 633 1
f 646 466 467
f 646 467 645
f 631 632 1
f 647 465 466
f 647 466 646
f 630 631 1
f 648 465 647
f 649 464 465
f 649 465 648
f 650 463 464
f 650 464 649
f 651 462 463
f 651 463 650
f 652 461 462
f 652 462 651
f 653 460 461
f 653 461 652
f 654 459 460
f 654 460 653
f 655 458 459
f 655 459 654
f 656 457 458
f 656 458 655
f 657 456 457
f 657 457 656
f 658 455 456
f 658 456 657
f 659 454 455
f 659 455 658
f 660 453 454
f 660 454 659
f 661 452 453
f 661 453 660
f 662 451 452
f 662 452 661
f 3 630 1
f 3 624 625
f 3 625 626
f 3 626 627
f 3 627 628
f 3 628 629
f 3 629 630
f 712 620 621
f 711 712 621
f 711 621 622
f 713 620 712
f 713 619 620
f 710 711 622
f 710 622 623
f 714 619 713
f 714 618 619
f 709 710 623
f 709 623 624
f 715 618 714
f 715 617 618
f 708 624 3
f 708 709 624
f 716 617 715
f 716 616 617
f 707 708 3
f 717 616 716
f 717 615 616
f 706 707 3
f 718 615 717
f 718 614 615
f 705 706 3
f 719 614 718
f 719 613 614
f 704 705 3
f 720 613 719
f 720 612 613
f 703 704 3
f 721 610 611
f 721 611 612
f 721 612 720
f 702 703 3
f 722 609 610
f 722 610 721
f 701 702 3
f 723 608 609
f 723 609 722
f 700 701 3
f 724 607 608
f 724 608 723
f 699 700 3
f 725 606 607
f 725 607 724
f 698 699 3
f 726 605 606
f 726 606 725
f 697 698 3
f 727 604 605
f 727 605 726
f 696 697 3
f 728 603 604
f 728 604 727
f 695 696 3
f 729 603 728
f 729 602 603
f 694 695 3
f 730 602 729
f 730 601 602
f 693 694 3
f 731 601 730
f 731 600 601
f 692 693 3
f 732 600 731
f 732 599 600
f 691 692 3
f 733 599 732
f 733 598 599
f 690 691 3
f 734 598 733
f 734 597 598
f 689 690 3
f 735 597 734
f 688 689 3
f 687 688 3
f 686 687 3
f 685 686 3
f 684 685 3
f 566 510 511
f 565 566 511
f 565 511 512
f 567 510 566
f 567 509 510
f 564 512 513
f 564 565 512
f 568 508 509
f 568 509 567
f 563 513 514
f 563 564 513
f 569 507 508
f 569 508 568
f 562 563 514
f 562 514 515
f 570 506 507
f 570 507 569
f 561 515 516
f 561 562 515
f 571 505 506
f 571 506 570
f 560 561 516
f 560 516 517
f 572 505 571
f 572 504 505
f 559 560 517
f 559 517 518
f 573 504 572
f 573 1 503
f 573 503 504
f 558 559 518
f 558 518 519
f 557 558 519
f 557 519 447
f 556 447 448
f 556 557 447
f 555 448 449
f 555 556 448
f 554 449 450
f 554 555 449
f 553 450 451
f 553 554 450
f 552 553 451
f 552 451 662
f 785 546 547
f 784 547 548
f 784 785 547
f 786 545 546
f 786 546 785
f 783 548 549
f 783 784 548
f 787 544 545
f 787 545 786
f 782 549 550
f 782 783 549
f 5 573 574
f 5 574 575
f 5 575 576
f 5 576 577
f 5 577 578
f 5 578 579
f 5 579 580
f 5 580 581
f 5 581 582
f 5 582 583
f 5 583 584
f 5 584 585
f 5 585 586
f 5 586 587
f 5 587 588
f 5 588 589
f 5 589 590
f 5 590 591
f 5 591 592
f 5 592 520
f 5 520 521
f 5 521 522
f 5 522 523
f 5 523 524
f 5 524 525
f 5 525 526
f 5 1 573
f 788 543 544
f 788 544 787
f 781 550 551
f 781 782 550
f 789 543 788
f 789 542 543
f 780 551 552
f 780 781 551
f 780 552 662
f 790 542 789
f 790 541 542
f 779 662 663
f 779 780 662
f 791 541 790
f 791 540 541
f 778 663 664
f 778 779 663
f 792 540 791
f 792 539 540
f 777 664 665
f 777 778 664
f 793 539 792
f 793 538 539
f 776 665 593
f 776 777 665
f 794 538 793
f 775 593 594
f 775 776 593
f 795 538 794
f 795 537 538
f 774 594 595
f 774 775 594
f 796 537 795
f 796 536 537
f 773 774 595
f 773 595 596
f 797 536 796
f 797 535 536
f 772 596 597
f 772 773 596
f 798 535 797
f 798 534 535
f 771 772 597
f 799 534 798
f 799 533 534
f 800 533 799
f 800 532 533
f 801 531 532
f 801 532 800
f 802 530 531
f 802 531 801
f 803 529 530
f 803 530 802
f 804 528 529
f 804 529 803
f 805 528 804
f 805 527 528
f 806 527 805
f 806 5 526
f 806 526 527
f 807 5 806
f 808 5 807
f 809 5 808
f 810 5 809
f 811 5 810
f 739 5 811
f 858 766 767
f 857 858 767
f 857 767 768
f 859 766 858
f 859 765 766
f 856 768 769
f 856 857 768
f 860 764 765
f 860 765 859
f 855 769 770
f 855 856 769
f 861 763 764
f 861 764 860
f 854 770 771
f 854 855 770
f 862 762 763
f 862 763 861
f 853 854 771
f 853 771 597
f 853 597 735
f 863 761 762
f 863 762 862
f 852 853 735
f 852 735 736
f 864 760 761
f 864 761 863
f 851 852 736
f 851 736 737
f 865 759 760
f 865 760 864
f 850 737 738
f 850 851 737
f 866 758 759
f 866 759 865
f 849 850 738
f 849 738 666
f 867 756 757
f 867 757 758
f 867 758 866
f 848 666 667
f 848 849 666
f 868 755 756
f 868 756 867
f 847 667 668
f 847 848 667
f 869 754 755
f 869 755 868
f 846 847 668
f 846 668 669
f 870 753 754
f 870 754 869
f 845 669 670
f 845 846 669
f 871 752 753
f 871 753 870
f 844 670 671
f 844 845 670
f 872 751 752
f 872 752 871
f 843 671 672
f 843 844 671
f 873 750 751
f 873 751 872
f 842 672 673
f 842 843 672
f 874 749 750
f 874 750 873
f 841 673 674
f 841 842 673
f 875 748 749
f 875 749 874
f 840 841 674
f 840 674 675
f 876 747 748
f 876 748 875
f 839 675 676
f 839 840 675
f 877 746 747
f 877 747 876
f 838 839 676
f 838 676 677
f 878 745 746
f 878 746 877
f 837 677 678
f 837 838 677
f 879 745 878
f 836 678 679
f 836 837 678
f 446 745 879
f 446 5 739
f 446 879 880
f 446 880 881
f 446 881 882
f 446 882 883
f 446 883 884
f 446 884 812
f 446 812 813
f 446 813 814
f 446 814 815
f 446 815 816
f 446 816 817
f 446 817 818
f 446 818 819
f 446 819 820
f 446 820 821
f 446 821 822
f 446 822 823
f 446 823 824
f 446 824 825
f 446 825 826
f 446 826 827
f 446 827 828
f 446 828 829
f 446 829 830
f 446 739 740
f 446 740 741
f 446 741 742
f 446 742 743
f 446 743 744
f 446 744 745
f 446 684 3
f 446 683 684
f 446 682 683
f 446 681 682
f 446 680 681
f 446 679 680
f 446 831 679
f 831 832 679
f 832 833 679
f 833 834 679
f 834 835 679
f 835 836 679
f 446 830 831
f 5 446 7
f 6 5 7
f 8 448 447
f 9 448 8
f 10 448 9
f 10 449 448
f 10 450 449
f 11 450 10
f 12 450 11
f 12 451 450
f 13 451 12
f 13 452 451
f 14 452 13
f 14 453 452
f 14 454 453
f 15 455 454
f 15 454 14
f 16 455 15
f 17 456 455
f 17 455 16
f 18 457 456
f 18 458 457
f 18 456 17
f 19 458 18
f 20 458 19
f 20 459 458
f 21 459 20
f 21 460 459
f 21 461 460
f 22 461 21
f 23 461 22
f 23 462 461
f 24 462 23
f 24 463 462
f 25 463 24
f 25 464 463
f 26 464 25
f 26 465 464
f 27 465 26
f 27 466 465
f 28 466 27
f 28 467 466
f 29 467 28
f 29 468 467
f 30 468 29
f 30 469 468
f 31 469 30
f 31 470 469
f 32 470 31
f 32 471 470
f 33 471 32
f 33 472 471
f 34 474 473
f 34 472 33
f 34 473 472
f 35 474 34
f 36 475 474
f 36 474 35
f 37 476 475
f 37 475 36
f 38 477 476
f 38 476 37
f 39 478 477
f 39 477 38
f 40 479 478
f 40 480 479
f 40 478 39
f 41 480 40
f 42 481 480
f 42 480 41
f 43 482 481
f 43 483 482
f 43 481 42
f 44 483 43
f 45 484 483
f 45 483 44
f 46 484 45
f 46 485 484
f 46 486 485
f 47 486 46
f 47 487 486
f 48 487 47
f 49 488 487
f 49 487 48
f 50 488 49
f 50 489 488
f 51 490 489
f 51 489 50
f 52 491 490
f 52 492 491
f 52 490 51
f 53 492 52
f 54 493 492
f 54 492 53
f 55 494 493
f 55 493 54
f 56 495 494
f 56 494 55
f 57 496 495
f 57 495 56
f 58 497 496
f 58 496 57
f 59 498 497
f 59 497 58
f 60 499 498
f 60 498 59
f 61 500 499
f 61 499 60
f 62 501 500
f 62 502 501
f 62 500 61
f 63 502 62
f 64 503 502
f 64 504 503
f 64 502 63
f 65 504 64
f 66 505 504
f 66 504 65
f 67 506 505
f 67 505 66
f 68 507 506
f 68 508 507
f 68 506 67
f 69 509 508
f 69 508 68
f 70 509 69
f 71 509 70
f 71 510 509
f 72 510 71
f 72 511 510
f 73 511 72
f 73 512 511
f 73 513 512
f 74 513 73
f 75 513 74
f 75 514 513
f 76 514 75
f 76 515 514
f 76 516 515
f 77 516 76
f 78 516 77
f 78 517 516
f 79 517 78
f 79 518 517
f 80 518 79
f 80 519 518
f 8 519 80
f 8 447 519
f 81 521 520
f 82 521 81
f 83 521 82
f 83 522 521
f 83 523 522
f 84 523 83
f 85 523 84
f 85 524 523
f 86 524 85
f 86 525 524
f 87 525 86
f 87 526 525
f 87 527 526
f 88 528 527
f 88 527 87
f 89 528 88
f 90 529 528
f 90 528 89
f 91 530 529
f 91 531 530
f 91 529 90
f 92 531 91
f 93 531 92
f 93 532 531
f 94 532 93
f 94 533 532
f 94 534 533
f 95 534 94
f 96 534 95
f 96 535 534
f 97 535 96
f 97 536 535
f 98 536 97
f 98 537 536
f 99 537 98
f 99 538 537
f 100 538 99
f 100 539 538
f 101 539 100
f 101 540 539
f 102 540 101
f 102 541 540
f 103 541 102
f 103 542 541
f 104 542 103
f 104 543 542
f 105 543 104
f 105 544 543
f 106 544 105
f 106 545 544
f 107 547 546
f 107 545 106
f 107 546 545
f 108 547 107
f 109 548 547
f 109 547 108
f 110 549 548
f 110 548 109
f 111 550 549
f 111 549 110
f 112 551 550
f 112 550 111
f 113 552 551
f 113 553 552
f 113 551 112
f 114 553 113
f 115 554 553
f 115 553 114
f 116 555 554
f 116 556 555
f 116 554 115
f 117 556 116
f 118 557 556
f 118 556 117
f 119 557 118
f 119 558 557
f 119 559 558
f 120 559 119
f 120 560 559
f 121 560 120
f 122 561 560
f 122 560 121
f 123 561 122
f 123 562 561
f 124 563 562
f 124 562 123
f 125 564 563
f 125 565 564
f 125 563 124
f 126 565 125
f 127 566 565
f 127 565 126
f 128 567 566
f 128 566 127
f 129 568 567
f 129 567 128
f 130 569 568
f 130 568 129
f 131 570 569
f 131 569 130
f 132 571 570
f 132 570 131
f 133 572 571
f 133 571 132
f 134 573 572
f 134 572 133
f 135 574 573
f 135 575 574
f 135 573 134
f 136 575 135
f 137 576 575
f 137 577 576
f 137 575 136
f 138 577 137
f 139 578 577
f 139 577 138
f 140 579 578
f 140 578 139
f 141 580 579
f 141 581 580
f 141 579 140
f 142 582 581
f 142 581 141
f 143 582 142
f 144 582 143
f 144 583 582
f 145 583 144
f 145 584 583
f 146 584 145
f 146 585 584
f 146 586 585
f 147 586 146
f 148 586 147
f 148 587 586
f 149 587 148
f 149 588 587
f 149 589 588
f 150 589 149
f 151 589 150
f 151 590 589
f 152 590 151
f 152 591 590
f 153 591 152
f 153 592 591
f 81 592 153
f 81 520 592
f 886 885 154
f 886 154 155
f 886 155 156
f 887 886 156
f 887 156 157
f 888 887 157
f 889 888 157
f 889 157 158
f 889 158 159
f 890 889 159
f 891 890 159
f 891 159 160
f 892 891 160
f 892 160 161
f 893 161 162
f 893 892 161
f 894 162 163
f 894 893 162
f 894 163 164
f 895 894 164
f 896 164 165
f 896 895 164
f 897 165 166
f 897 166 167
f 897 896 165
f 898 897 167
f 899 898 167
f 899 167 168
f 900 899 168
f 900 168 169
f 901 900 169
f 901 169 170
f 902 901 170
f 902 170 171
f 903 902 171
f 903 171 172
f 904 903 172
f 904 172 173
f 904 173 174
f 905 904 174
f 906 905 174
f 906 174 175
f 907 906 175
f 907 175 176
f 907 176 177
f 908 907 177
f 909 908 177
f 909 177 178
f 910 179 180
f 910 909 178
f 910 178 179
f 911 910 180
f 912 180 181
f 912 911 180
f 913 181 182
f 913 912 181
f 914 182 183
f 914 913 182
f 915 183 184
f 915 914 183
f 916 184 185
f 916 915 184
f 917 185 186
f 917 916 185
f 918 186 187
f 918 917 186
f 919 187 188
f 919 918 187
f 920 188 189
f 920 919 188
f 921 189 190
f 921 920 189
f 922 190 191
f 922 921 190
f 923 922 191
f 923 191 192
f 923 192 193
f 924 923 193
f 925 924 193
f 925 193 194
f 926 194 195
f 926 925 194
f 927 926 195
f 927 195 196
f 927 196 197
f 928 197 198
f 928 927 197
f 929 928 198
f 930 198 199
f 930 199 200
f 930 929 198
f 931 930 200
f 932 200 201
f 932 931 200
f 933 201 202
f 933 202 203
f 933 932 201
f 934 933 203
f 935 203 204
f 935 934 203
f 936 204 205
f 936 935 204
f 937 205 206
f 937 936 205
f 938 206 207
f 938 937 206
f 939 207 208
f 939 938 207
f 940 208 209
f 940 209 210
f 940 939 208
f 941 940 210
f 942 210 211
f 942 941 210
f 943 211 212
f 943 942 211
f 944 212 213
f 944 213 214
f 944 943 212
f 945 944 214
f 946 214 215
f 946 945 214
f 947 215 216
f 947 946 215
f 948 947 216
f 948 216 217
f 949 948 217
f 949 217 218
f 949 218 219
f 950 949 219
f 951 950 219
f 951 219 220
f 952 951 220
f 952 220 221
f 953 952 221
f 953 221 222
f 954 953 222
f 954 222 223
f 955 954 223
f 955 223 224
f 956 955 224
f 956 224 225
f 957 956 225
f 957 225 226
f 885 957 226
f 885 226 154
f 227 667 666
f 228 667 227
f 229 667 228
f 229 668 667
f 229 669 668
f 230 669 229
f 231 669 230
f 231 670 669
f 232 670 231
f 232 671 670
f 233 671 232
f 233 672 671
f 233 673 672
f 234 674 673
f 234 673 233
f 235 674 234
f 236 675 674
f 236 674 235
f 237 676 675
f 237 677 676
f 237 675 236
f 238 677 237
f 239 677 238
f 239 678 677
f 240 678 239
f 240 679 678
f 240 680 679
f 241 680 240
f 242 680 241
f 242 681 680
f 243 681 242
f 243 682 681
f 244 682 243
f 244 683 682
f 245 683 244
f 245 684 683
f 246 684 245
f 246 685 684
f 247 685 246
f 247 686 685
f 248 686 247
f 248 687 686
f 249 687 248
f 249 688 687
f 250 688 249
f 250 689 688
f 251 689 250
f 251 690 689
f 252 690 251
f 252 691 690
f 253 693 692
f 253 691 252
f 253 692 691
f 254 693 253
f 255 694 693
f 255 693 254
f 256 695 694
f 256 694 255
f 257 696 695
f 257 695 256
f 258 697 696
f 258 696 257
f 259 698 697
f 259 699 698
f 259 697 258
f 260 699 259
f 261 700 699
f 261 699 260
f 262 701 700
f 262 702 701
f 262 700 261
f 263 702 262
f 264 703 702
f 264 702 263
f 265 703 264
f 265 704 703
f 265 705 704
f 266 705 265
f 266 706 705
f 267 706 266
f 268 707 706
f 268 706 267
f 269 707 268
f 269 708 707
f 270 709 708
f 270 708 269
f 271 710 709
f 271 711 710
f 271 709 270
f 272 711 271
f 273 712 711
f 273 711 272
f 274 713 712
f 274 712 273
f 275 714 713
f 275 713 274
f 276 715 714
f 276 714 275
f 277 716 715
f 277 715 276
f 278 717 716
f 278 716 277
f 279 718 717
f 279 717 278
f 280 719 718
f 280 718 279
f 281 720 719
f 281 721 720
f 281 719 280
f 282 721 281
f 283 722 721
f 283 723 722
f 283 721 282
f 284 723 283
f 285 724 723
f 285 723 284
f 286 725 724
f 286 724 285
f 287 726 725
f 287 727 726
f 287 725 286
f 288 728 727
f 288 727 287
f 289 728 288
f 290 728 289
f 290 729 728
f 291 729 290
f 291 730 729
f 292 730 291
f 292 731 730
f 292 732 731
f 293 732 292
f 294 732 293
f 294 733 732
f 295 733 294
f 295 734 733
f 295 735 734
f 296 735 295
f 297 735 296
f 297 736 735
f 298 736 297
f 298 737 736
f 299 737 298
f 299 738 737
f 227 738 299
f 227 666 738
f 959 958 300
f 959 300 301
f 959 301 302
f 960 959 302
f 960 302 303
f 961 960 303
f 962 961 303
f 962 303 304
f 962 304 305
f 963 962 305
f 964 963 305
f 964 305 306
f 965 964 306
f 965 306 307
f 966 307 308
f 966 965 307
f 967 308 309
f 967 966 308
f 967 309 310
f 968 967 310
f 969 310 311
f 969 968 310
f 970 311 312
f 970 312 313
f 970 969 311
f 971 970 313
f 972 971 313
f 972 313 314
f 973 972 314
f 973 314 315
f 974 973 315
f 974 315 316
f 975 974 316
f 975 316 317
f 976 975 317
f 976 317 318
f 977 976 318
f 977 318 319
f 977 319 320
f 978 977 320
f 979 978 320
f 979 320 321
f 980 979 321
f 980 321 322
f 980 322 323
f 981 980 323
f 982 981 323
f 982 323 324
f 983 325 326
f 983 982 324
f 983 324 325
f 984 983 326
f 985 326 327
f 985 984 326
f 986 327 328
f 986 985 327
f 987 328 329
f 987 986 328
f 988 329 330
f 988 987 329
f 989 330 331
f 989 988 330
f 990 331 332
f 990 989 331
f 991 332 333
f 991 990 332
f 992 333 334
f 992 991 333
f 993 334 335
f 993 992 334
f 994 335 336
f 994 993 335
f 995 336 337
f 995 994 336
f 996 995 337
f 996 337 338
f 996 338 339
f 997 996 339
f 998 997 339
f 998 339 340
f 999 340 341
f 999 998 340
f 1000 999 341
f 1000 341 342
f 1000 342 343
f 1001 343 344
f 1001 1000 343
f 1002 1001 344
f 1003 344 345
f 1003 345 346
f 1003 1002 344
f 1004 1003 346
f 1005 346 347
f 1005 1004 346
f 1006 347 348
f 1006 348 349
f 1006 1005 347
f 1007 1006 349
f 1008 349 350
f 1008 1007 349
f 1009 350 351
f 1009 1008 350
f 1010 351 352
f 1010 1009 351
f 1011 352 353
f 1011 1010 352
f 1012 353 354
f 1012 1011 353
f 1013 354 355
f 1013 355 356
f 1013 1012 354
f 1014 1013 356
f 1015 356 357
f 1015 1014 356
f 1016 357 358
f 1016 1015 357
f 1017 358 359
f 1017 359 360
f 1017 1016 358
f 1018 1017 360
f 1019 360 361
f 1019 1018 360
f 1020 361 362
f 1020 1019 361
f 1021 1020 362
f 1021 362 363
f 1022 1021 363
f 1022 363 364
f 1022 364 365
f 1023 1022 365
f 1024 1023 365
f 1024 365 366
f 1025 1024 366
f 1025 366 367
f 1026 1025 367
f 1026 367 368
f 1027 1026 368
f 1027 368 369
f 1028 1027 369
f 1028 369 370
f 1029 1028 370
f 1029 370 371
f 1030 1029 371
f 1030 371 372
f 958 1030 372
f 958 372 300
f 373 813 812
f 374 813 373
f 375 813 374
f 375 814 813
f 375 815 814
f 376 815 375
f 377 815 376
f 377 816 815
f 378 816 377
f 378 817 816
f 379 817 378
f 379 818 817
f 379 819 818
f 380 820 819
f 380 819 379
f 381 820 380
f 382 821 820
f 382 820 381
f 383 822 821
f 383 823 822
f 383 821 382
f 384 823 383
f 385 823 384
f 385 824 823
f 386 824 385
f 386 825 824
f 386 826 825
f 387 826 386
f 388 826 387
f 388 827 826
f 389 827 388
f 389 828 827
f 390 828 389
f 390 829 828
f 391 829 390
f 391 830 829
f 392 830 391
f 392 831 830
f 393 831 392
f 393 832 831
f 394 832 393
f 394 833 832
f 395 833 394
f 395 834 833
f 396 834 395
f 396 835 834
f 397 835 396
f 397 836 835
f 398 836 397
f 398 837 836
f 399 839 838
f 399 837 398
f 399 838 837
f 400 839 399
f 401 840 839
f 401 839 400
f 402 841 840
f 402 840 401
f 403 842 841
f 403 841 402
f 404 843 842
f 404 842 403
f 405 844 843
f 405 845 844
f 405 843 404
f 406 845 405
f 407 846 845
f 407 845 406
f 408 847 846
f 408 848 847
f 408 846 407
f 409 848 408
f 410 849 848
f 410 848 409
f 411 849 410
f 411 850 849
f 411 851 850
f 412 851 411
f 412 852 851
f 413 852 412
f 414 853 852
f 414 852 413
f 415 853 414
f 415 854 853
f 416 855 854
f 416 854 415
f 417 856 855
f 417 857 856
f 417 855 416
f 418 857 417
f 419 858 857
f 419 857 418
f 420 859 858
f 420 858 419
f 421 860 859
f 421 859 420
f 422 861 860
f 422 860 421
f 423 862 861
f 423 861 422
f 424 863 862
f 424 862 423
f 425 864 863
f 425 863 424
f 426 865 864
f 426 864 425
f 427 866 865
f 427 867 866
f 427 865 426
f 428 867 427
f 429 868 867
f 429 869 868
f 429 867 428
f 430 869 429
f 431 870 869
f 431 869 430
f 432 871 870
f 432 870 431
f 433 872 871
f 433 873 872
f 433 871 432
f 434 874 873
f 434 873 433
f 435 874 434
f 436 874 435
f 436 875 874
f 437 875 436
f 437 876 875
f 438 876 437
f 438 877 876
f 438 878 877
f 439 878 438
f 440 878 439
f 440 879 878
f 441 879 440
f 441 880 879
f 441 881 880
f 442 881 441
f 443 881 442
f 443 882 881
f 444 882 443
f 444 883 882
f 445 883 444
f 445 884 883
f 373 884 445
f 373 812 884
f 1032 593 1031
f 1032 594 593
f 1033 594 1032
f 1033 595 594
f 1034 595 1033
f 1034 596 595
f 1035 596 1034
f 1035 597 596
f 1035 598 597
f 1036 598 1035
f 1037 598 1036
f 1037 599 598
f 1038 599 1037
f 1038 600 599
f 1039 601 600
f 1039 600 1038
f 1040 602 601
f 1040 601 1039
f 1041 603 602
f 1041 602 1040
f 1042 604 603
f 1042 603 1041
f 1043 605 604
f 1043 604 1042
f 1044 605 1043
f 1044 606 605
f 1045 606 1044
f 1045 607 606
f 1046 607 1045
f 1046 608 607
f 1047 608 1046
f 1047 609 608
f 1047 610 609
f 1048 610 1047
f 1048 611 610
f 1049 611 1048
f 1050 611 1049
f 1050 612 611
f 1051 612 1050
f 1051 613 612
f 1051 614 613
f 1052 614 1051
f 1053 614 1052
f 1053 615 614
f 1053 616 615
f 1054 616 1053
f 1054 617 616
f 1055 617 1054
f 1056 617 1055
f 1056 618 617
f 1056 619 618
f 1057 619 1056
f 1058 620 619
f 1058 619 1057
f 1059 621 620
f 1059 620 1058
f 1060 622 621
f 1060 621 1059
f 1061 623 622
f 1061 622 1060
f 1062 624 623
f 1062 625 624
f 1062 623 1061
f 1063 625 1062
f 1064 626 625
f 1064 627 626
f 1064 625 1063
f 1065 627 1064
f 1066 628 627
f 1066 627 1065
f 1067 629 628
f 1067 628 1066
f 1068 630 629
f 1068 629 1067
f 1069 630 1068
f 1069 631 630
f 1069 632 631
f 1070 632 1069
f 1071 632 1070
f 1071 633 632
f 1072 634 633
f 1072 633 1071
f 1073 635 634
f 1073 634 1072
f 1074 636 635
f 1074 635 1073
f 1075 637 636
f 1075 636 1074
f 1076 638 637
f 1076 637 1075
f 1077 639 638
f 1077 638 1076
f 1078 640 639
f 1078 639 1077
f 1079 641 640
f 1079 642 641
f 1079 640 1078
f 1080 643 642
f 1080 642 1079
f 1081 643 1080
f 1082 644 643
f 1082 643 1081
f 1083 644 1082
f 1083 645 644
f 1084 646 645
f 1084 645 1083
f 1085 647 646
f 1085 646 1084
f 1086 648 647
f 1086 647 1085
f 1087 649 648
f 1087 648 1086
f 1088 650 649
f 1088 649 1087
f 1089 651 650
f 1089 650 1088
f 1090 652 651
f 1090 651 1089
f 1091 653 652
f 1091 654 653
f 1091 652 1090
f 1092 655 654
f 1092 654 1091
f 1093 655 1092
f 1094 655 1093
f 1094 656 655
f 1095 656 1094
f 1095 657 656
f 1095 658 657
f 1096 658 1095
f 1097 658 1096
f 1097 659 658
f 1098 659 1097
f 1098 660 659
f 1099 660 1098
f 1099 661 660
f 1100 661 1099
f 1100 662 661
f 1101 662 1100
f 1101 663 662
f 1102 663 1101
f 1102 664 663
f 1103 664 1102
f 1103 665 664
f 1031 665 1103
f 1031 593 665
f 1105 739 1104
f 1105 740 739
f 1106 740 1105
f 1106 741 740
f 1107 741 1106
f 1107 742 741
f 1108 742 1107
f 1108 743 742
f 1108 744 743
f 1109 744 1108
f 1110 744 1109
f 1110 745 744
f 1111 745 1110
f 1111 746 745
f 1112 747 746
f 1112 746 1111
f 1113 748 747
f 1113 747 1112
f 1114 749 748
f 1114 748 1113
f 1115 750 749
f 1115 749 1114
f 1116 751 750
f 1116 750 1115
f 1117 751 1116
f 1117 752 751
f 1118 752 1117
f 1118 753 752
f 1119 753 1118
f 1119 754 753
f 1120 754 1119
f 1120 755 754
f 1120 756 755
f 1121 756 1120
f 1121 757 756
f 1122 757 1121
f 1123 757 1122
f 1123 758 757
f 1124 758 1123
f 1124 759 758
f 1124 760 759
f 1125 760 1124
f 1126 760 1125
f 1126 761 760
f 1126 762 761
f 1127 762 1126
f 1127 763 762
f 1128 763 1127
f 1129 763 1128
f 1129 764 763
f 1129 765 764
f 1130 765 1129
f 1131 766 765
f 1131 765 1130
f 1132 767 766
f 1132 766 1131
f 1133 768 767
f 1133 767 1132
f 1134 769 768
f 1134 768 1133
f 1135 770 769
f 1135 771 770
f 1135 769 1134
f 1136 771 1135
f 1137 772 771
f 1137 773 772
f 1137 771 1136
f 1138 773 1137
f 1139 774 773
f 1139 773 1138
f 1140 775 774
f 1140 774 1139
f 1141 776 775
f 1141 775 1140
f 1142 776 1141
f 1142 777 776
f 1142 778 777
f 1143 778 1142
f 1144 778 1143
f 1144 779 778
f 1145 780 779
f 1145 779 1144
f 1146 781 780
f 1146 780 1145
f 1147 782 781
f 1147 781 1146
f 1148 783 782
f 1148 782 1147
f 1149 784 783
f 1149 783 1148
f 1150 785 784
f 1150 784 1149
f 1151 786 785
f 1151 785 1150
f 1152 787 786
f 1152 788 787
f 1152 786 1151
f 1153 789 788
f 1153 788 1152
f 1154 789 1153
f 1155 790 789
f 1155 789 1154
f 1156 790 1155
f 1156 791 790
f 1157 792 791
f 1157 791 1156
f 1158 793 792
f 1158 792 1157
f 1159 794 793
f 1159 793 1158
f 1160 795 794
f 1160 794 1159
f 1161 796 795
f 1161 795 1160
f 1162 797 796
f 1162 796 1161
f 1163 798 797
f 1163 797 1162
f 1164 799 798
f 1164 800 799
f 1164 798 1163
f 1165 801 800
f 1165 800 1164
f 1166 801 1165
f 1167 801 1166
f 1167 802 801
f 1168 802 1167
f 1168 803 802
f 1168 804 803
f 1169 804 1168
f 1170 804 1169
f 1170 805 804
f 1171 805 1170
f 1171 806 805
f 1172 806 1171
f 1172 807 806
f 1173 807 1172
f 1173 808 807
f 1174 808 1173
f 1174 809 808
f 1175 809 1174
f 1175 810 809
f 1176 810 1175
f 1176 811 810
f 1104 811 1176
f 1104 739 811
f 1076 930 931
f 1076 931 1077
f 1078 931 932
f 1078 932 933
f 1078 1077 931
f 1075 930 1076
f 1075 929 930
f 1079 1078 933
f 1074 929 1075
f 1074 928 929
f 1080 1079 933
f 1080 933 934
f 1073 928 1074
f 1073 927 928
f 1081 1080 934
f 1081 934 935
f 1072 927 1073
f 1072 926 927
f 1082 935 936
f 1082 1081 935
f 1071 926 1072
f 1071 925 926
f 1083 936 937
f 1083 1082 936
f 1070 925 1071
f 1070 924 925
f 1084 1083 937
f 1084 937 938
f 1069 924 1070
f 1069 923 924
f 1085 938 939
f 1085 1084 938
f 1068 923 1069
f 1068 922 923
f 1086 939 940
f 1086 1085 939
f 1067 921 922
f 1067 922 1068
f 1087 1086 940
f 1087 940 941
f 1066 921 1067
f 1066 920 921
f 1088 941 942
f 1088 1087 941
f 1065 920 1066
f 1065 918 919
f 1065 919 920
f 1089 1088 942
f 1089 942 943
f 1064 918 1065
f 1090 1089 943
f 1090 943 944
f 1063 918 1064
f 1063 917 918
f 1091 944 945
f 1091 1090 944
f 1062 916 917
f 1062 917 1063
f 1092 945 946
f 1092 1091 945
f 1061 915 916
f 1061 916 1062
f 1093 946 947
f 1093 1092 946
f 1060 914 915
f 1060 915 1061
f 1094 947 948
f 1094 1093 947
f 1059 913 914
f 1059 914 1060
f 1058 913 1059
f 949 1095 1094
f 949 1094 948
f 1096 1095 949
f 912 913 1058
f 1057 912 1058
f 950 1096 949
f 911 912 1057
f 951 1096 950
f 951 1097 1096
f 910 911 1057
f 910 1056 1055
f 910 1057 1056
f 952 1097 951
f 952 1098 1097
f 909 910 1055
f 953 1099 1098
f 953 1098 952
f 908 909 1055
f 908 1054 1053
f 908 1055 1054
f 954 1100 1099
f 954 1101 1100
f 954 1099 953
f 907 908 1053
f 955 1101 954
f 906 907 1053
f 906 1053 1052
f 956 1102 1101
f 956 1101 955
f 905 906 1052
f 905 1052 1051
f 957 1103 1102
f 957 1031 1103
f 957 1102 956
f 904 1050 1049
f 904 1051 1050
f 904 905 1051
f 885 1031 957
f 903 1049 1048
f 903 904 1049
f 886 1032 1031
f 886 1031 885
f 902 903 1048
f 887 1032 886
f 887 1033 1032
f 887 1034 1033
f 901 902 1048
f 901 1047 1046
f 901 1048 1047
f 888 1034 887
f 900 901 1046
f 889 1035 1034
f 889 1036 1035
f 889 1034 888
f 899 900 1046
f 899 1045 1044
f 899 1046 1045
f 890 1036 889
f 890 1037 1036
f 898 899 1044
f 898 1044 1043
f 891 1037 890
f 897 898 1043
f 897 1043 1042
f 892 1038 1037
f 892 1037 891
f 896 897 1042
f 893 1038 892
f 893 1039 1038
f 895 896 1042
f 895 1042 1041
f 894 1039 893
f 894 895 1041
f 894 1040 1039
f 894 1041 1040
f 1149 1003 1004
f 1149 1004 1150
f 1151 1004 1005
f 1151 1150 1004
f 1148 1003 1149
f 1148 1002 1003
f 1152 1151 1005
f 1152 1005 1006
f 1147 1002 1148
f 1147 1001 1002
f 1153 1006 1007
f 1153 1152 1006
f 1146 1001 1147
f 1146 1000 1001
f 1154 1007 1008
f 1154 1153 1007
f 1145 1000 1146
f 1145 999 1000
f 1155 1154 1008
f 1155 1008 1009
f 1144 999 1145
f 1144 998 999
f 1156 1009 1010
f 1156 1155 1009
f 1143 998 1144
f 1143 997 998
f 1157 1156 1010
f 1157 1010 1011
f 1142 997 1143
f 1142 996 997
f 1158 1011 1012
f 1158 1157 1011
f 1141 995 996
f 1141 996 1142
f 1159 1012 1013
f 1159 1158 1012
f 1140 994 995
f 1140 995 1141
f 1160 1013 1014
f 1160 1014 1015
f 1160 1159 1013
f 1139 994 1140
f 1139 993 994
f 1161 1160 1015
f 1138 991 992
f 1138 992 993
f 1138 993 1139
f 1162 1161 1015
f 1162 1015 1016
f 1137 991 1138
f 1163 1016 1017
f 1163 1162 1016
f 1136 990 991
f 1136 991 1137
f 1164 1163 1017
f 1164 1017 1018
f 1135 989 990
f 1135 990 1136
f 1165 1164 1018
f 1165 1018 1019
f 1134 988 989
f 1134 989 1135
f 1166 1019 1020
f 1166 1165 1019
f 1133 987 988
f 1133 988 1134
f 1167 1020 1021
f 1167 1166 1020
f 1132 986 987
f 1132 987 1133
f 1168 1167 1021
f 1131 986 1132
f 1022 1168 1021
f 1169 1168 1022
f 985 986 1131
f 1130 985 1131
f 1023 1169 1022
f 1023 1170 1169
f 984 985 1130
f 1024 1171 1170
f 1024 1170 1023
f 983 984 1130
f 983 1130 1129
f 1025 1171 1024
f 982 983 1129
f 982 1128 1127
f 982 1129 1128
f 1026 1172 1171
f 1026 1171 1025
f 981 982 1127
f 1027 1173 1172
f 1027 1172 1026
f 980 981 1127
f 980 1127 1126
f 1028 1173 1027
f 1028 1174 1173
f 1028 1175 1174
f 979 980 1126
f 979 1125 1124
f 979 1126 1125
f 1029 1175 1028
f 978 979 1124
f 1030 1176 1175
f 1030 1104 1176
f 1030 1175 1029
f 977 1124 1123
f 977 978 1124
f 958 1104 1030
f 976 1122 1121
f 976 1123 1122
f 976 977 1123
f 959 1104 958
f 959 1105 1104
f 975 976 1121
f 975 1121 1120
f 960 1105 959
f 960 1106 1105
f 960 1107 1106
f 974 975 1120
f 961 1107 960
f 973 974 1120
f 973 1119 1118
f 973 1120 1119
f 962 1107 961
f 962 1108 1107
f 962 1109 1108
f 972 973 1118
f 972 1118 1117
f 963 1109 962
f 971 972 1117
f 964 1109 963
f 964 1110 1109
f 970 971 1117
f 970 1116 1115
f 970 1117 1116
f 965 1110 964
f 965 1111 1110
f 965 1112 1111
f 969 970 1115
f 966 1112 965
f 968 969 1115
f 968 1115 1114
f 967 1112 966
f 967 968 1114
f 967 1113 1112
f 967 1114 1113
