# SimpleCAD BREP tessellation for MuJoCo
v -14 -19.5 -2
v -14 -19.5 1
v -14 -16.5 -2
v -14 -16.5 12
v -14 -19.5 12
v -14 -19.5 11
v -14 -17 11
v -14 -17 1
v -2.5 -19.5 -2
v -2.5 -19.5 1
v 30 -17 1
v -2.5 -21.5 1
v 2.5 -21.5 1
v 2.5 -19.5 1
v 30 -19.5 1
v 30 -17 11
v -2.5 -19.5 11
v -2.5 -21.5 11
v 2.5 -21.5 11
v 2.5 -19.5 11
v 30 -19.5 11
v -2.5 -19.5 12
v -2.5 -16.5 12
v -2.5 -16.5 -2
v -2.5 -16.5 16
v 2.5 -16.5 16
v 2.5 -16.5 12
v 33.5 -16.5 12
v 33.5 -16.5 16
v 38.5 -16.5 16
v 38.5 -16.5 12
v 50 -16.5 12
v 50 -16.5 -2
v 38.5 -16.5 -2
v 38.5 -16.5 -4
v 33.5 -16.5 -4
v 33.5 -16.5 -2
v 2.5 -16.5 -2
v 2.5 -16.5 -4
v -2.5 -16.5 -4
v -2.5 -21.5 -4
v 2.5 -19.5 -2
v 33.5 -19.5 -2
v 2.5 -19.5 12
v 33.5 -19.5 12
v 2.5 -21.5 -4
v 2.5 -21.5 16
v -2.5 -21.5 16
v 33.5 -21.5 16
v 33.5 -21.5 -4
v 38.5 -21.5 16
v 38.5 -21.5 -4
v 38.5 -19.5 -2
v 38.5 -19.5 12
v 50 -19.5 12
v 50 -19.5 -2
f 8 3 1
f 2 8 1
f 4 8 7
f 4 3 8
f 5 7 6
f 5 4 7
f 10 1 9
f 10 2 1
f 10 8 2
f 14 10 12
f 14 12 13
f 11 14 15
f 11 8 10
f 11 10 14
f 16 8 11
f 16 7 8
f 17 6 7
f 20 18 17
f 20 19 18
f 16 21 20
f 16 17 7
f 16 20 17
f 22 6 17
f 22 5 6
f 23 4 5
f 23 5 22
f 38 39 40
f 38 40 24
f 23 24 3
f 23 3 4
f 27 38 24
f 27 24 23
f 26 23 25
f 26 27 23
f 37 38 27
f 34 35 36
f 34 36 37
f 28 37 27
f 31 34 37
f 31 37 28
f 30 28 29
f 30 31 28
f 32 33 34
f 32 34 31
f 24 1 3
f 24 9 1
f 9 24 40
f 41 9 40
f 12 10 9
f 12 9 41
f 21 11 15
f 21 16 11
f 15 14 42
f 43 15 42
f 21 44 20
f 45 21 15
f 45 15 43
f 44 21 45
f 42 39 38
f 46 39 42
f 13 42 14
f 13 46 42
f 13 41 46
f 13 12 41
f 26 44 27
f 19 20 44
f 47 44 26
f 47 19 44
f 47 18 19
f 47 48 18
f 25 23 22
f 18 22 17
f 48 25 22
f 48 22 18
f 26 25 48
f 26 48 47
f 45 27 44
f 28 27 45
f 43 37 36
f 50 43 36
f 45 43 50
f 29 28 45
f 49 29 45
f 49 45 50
f 30 29 49
f 30 49 51
f 53 35 34
f 52 35 53
f 54 52 53
f 30 54 31
f 51 54 30
f 51 52 54
f 32 31 54
f 32 54 55
f 55 56 33
f 55 33 32
f 33 53 34
f 33 56 53
f 35 50 36
f 35 52 50
f 43 42 38
f 37 43 38
f 39 41 40
f 39 46 41
f 51 50 52
f 51 49 50
f 55 53 56
f 55 54 53
