# SimpleCAD BREP tessellation for MuJoCo
v 3.4 0 -2.4
v 3.4 0 0
v 1.7 2.94448637287 0
v 1.7 2.94448637287 -2.4
v 1.7 -2.94448637287 -2.4
v 1.7 -2.94448637287 0
v -1.7 2.94448637287 0
v -1.7 2.94448637287 -2.4
v -3.4 4.1637991171e-16 -2.4
v -1.7 -2.94448637287 -2.4
v 2 -4.89858719659e-16 -2.4
v 1.96961550602 0.347296355334 -2.4
v 1.87938524157 0.684040286651 -2.4
v 1.73205080757 1 -2.4
v 1.53208888624 1.28557521937 -2.4
v 1.28557521937 1.53208888624 -2.4
v 1 1.73205080757 -2.4
v 0.684040286651 1.87938524157 -2.4
v 0.347296355334 1.96961550602 -2.4
v -1.20980294964e-15 2 -2.4
v -0.347296355334 1.96961550602 -2.4
v -0.684040286651 1.87938524157 -2.4
v -1 1.73205080757 -2.4
v -1.28557521937 1.53208888624 -2.4
v -1.53208888624 1.28557521937 -2.4
v -1.73205080757 1 -2.4
v -1.87938524157 0.684040286651 -2.4
v -1.96961550602 0.347296355334 -2.4
v -2 -4.19596273867e-15 -2.4
v -1.96961550602 -0.347296355334 -2.4
v -1.87938524157 -0.684040286651 -2.4
v -1.73205080757 -1 -2.4
v -1.53208888624 -1.28557521937 -2.4
v -1.28557521937 -1.53208888624 -2.4
v -1 -1.73205080757 -2.4
v -0.684040286651 -1.87938524157 -2.4
v -0.347296355334 -1.96961550602 -2.4
v 4.96167647846e-15 -2 -2.4
v 0.347296355334 -1.96961550602 -2.4
v 0.684040286651 -1.87938524157 -2.4
v 1 -1.73205080757 -2.4
v 1.28557521937 -1.53208888624 -2.4
v 1.53208888624 -1.28557521937 -2.4
v 1.73205080757 -1 -2.4
v 1.87938524157 -0.684040286651 -2.4
v 1.96961550602 -0.347296355334 -2.4
v -3.4 4.1637991171e-16 0
v -1.7 -2.94448637287 0
v 2.72 -6.66207858736e-16 0
v 2.67867708819 0.472323043254 0
v 2.55596392854 0.930294789846 0
v 2.35558909829 1.36 0
v 2.08364088528 1.74838229835 0
v 1.74838229835 2.08364088528 0
v 1.36 2.35558909829 0
v 0.930294789846 2.55596392854 0
v 0.472323043254 2.67867708819 0
v -1.6453320115e-15 2.72 0
v -0.472323043254 2.67867708819 0
v -0.930294789846 2.55596392854 0
v -1.36 2.35558909829 0
v -1.74838229835 2.08364088528 0
v -2.08364088528 1.74838229835 0
v -2.35558909829 1.36 0
v -2.55596392854 0.930294789846 0
v -2.67867708819 0.472323043254 0
v -2.72 -5.70650932459e-15 0
v -2.67867708819 -0.472323043254 0
v -2.55596392854 -0.930294789846 0
v -2.35558909829 -1.36 0
v -2.08364088528 -1.74838229835 0
v -1.74838229835 -2.08364088528 0
v -1.36 -2.35558909829 0
v -0.930294789846 -2.55596392854 0
v -0.472323043254 -2.67867708819 0
v 6.7478800107e-15 -2.72 0
v 0.472323043254 -2.67867708819 0
v 0.930294789846 -2.55596392854 0
v 1.36 -2.35558909829 0
v 1.74838229835 -2.08364088528 0
v 2.08364088528 -1.74838229835 0
v 2.35558909829 -1.36 0
v 2.55596392854 -0.930294789846 0
v 2.67867708819 -0.472323043254 0
v 2 -4.89858719659e-16 -7
v 1.96961550602 0.347296355334 -7
v 1.87938524157 0.684040286651 -7
v 1.73205080757 1 -7
v 1.53208888624 1.28557521937 -7
v 1.28557521937 1.53208888624 -7
v 1 1.73205080757 -7
v 0.684040286651 1.87938524157 -7
v 0.347296355334 1.96961550602 -7
v -1.20980294964e-15 2 -7
v -0.347296355334 1.96961550602 -7
v -0.684040286651 1.87938524157 -7
v -1 1.73205080757 -7
v -1.28557521937 1.53208888624 -7
v -1.53208888624 1.28557521937 -7
v -1.73205080757 1 -7
v -1.87938524157 0.684040286651 -7
v -1.96961550602 0.347296355334 -7
v -2 -4.19596273867e-15 -7
v -1.96961550602 -0.347296355334 -7
v -1.87938524157 -0.684040286651 -7
v -1.73205080757 -1 -7
v -1.53208888624 -1.28557521937 -7
v -1.28557521937 -1.53208888624 -7
v -1 -1.73205080757 -7
v -0.684040286651 -1.87938524157 -7
v -0.347296355334 -1.96961550602 -7
v 4.96167647846e-15 -2 -7
v 0.347296355334 -1.96961550602 -7
v 0.684040286651 -1.87938524157 -7
v 1 -1.73205080757 -7
v 1.28557521937 -1.53208888624 -7
v 1.53208888624 -1.28557521937 -7
v 1.73205080757 -1 -7
v 1.87938524157 -0.684040286651 -7
v 1.96961550602 -0.347296355334 -7
v 2.72 -6.66207858736e-16 0.3
v 2.67867708819 0.472323043254 0.3
v 2.55596392854 0.930294789846 0.3
v 2.35558909829 1.36 0.3
v 2.08364088528 1.74838229835 0.3
v 1.74838229835 2.08364088528 0.3
v 1.36 2.35558909829 0.3
v 0.930294789846 2.55596392854 0.3
v 0.472323043254 2.67867708819 0.3
v -1.6453320115e-15 2.72 0.3
v -0.472323043254 2.67867708819 0.3
v -0.930294789846 2.55596392854 0.3
v -1.36 2.35558909829 0.3
v -1.74838229835 2.08364088528 0.3
v -2.08364088528 1.74838229835 0.3
v -2.35558909829 1.36 0.3
v -2.55596392854 0.930294789846 0.3
v -2.67867708819 0.472323043254 0.3
v -2.72 -5.70650932459e-15 0.3
v -2.67867708819 -0.472323043254 0.3
v -2.55596392854 -0.930294789846 0.3
v -2.35558909829 -1.36 0.3
v -2.08364088528 -1.74838229835 0.3
v -1.74838229835 -2.08364088528 0.3
v -1.36 -2.35558909829 0.3
v -0.930294789846 -2.55596392854 0.3
v -0.472323043254 -2.67867708819 0.3
v 6.7478800107e-15 -2.72 0.3
v 0.472323043254 -2.67867708819 0.3
v 0.930294789846 -2.55596392854 0.3
v 1.36 -2.35558909829 0.3
v 1.74838229835 -2.08364088528 0.3
v 2.08364088528 -1.74838229835 0.3
v 2.35558909829 -1.36 0.3
v 2.55596392854 -0.930294789846 0.3
v 2.67867708819 -0.472323043254 0.3
f 4 2 1
f 4 3 2
f 1 6 5
f 1 2 6
f 8 3 4
f 8 7 3
f 34 10 33
f 32 10 9
f 32 33 10
f 35 10 34
f 31 32 9
f 36 10 35
f 30 31 9
f 37 10 36
f 29 30 9
f 38 10 37
f 28 29 9
f 5 38 39
f 5 10 38
f 27 28 9
f 40 5 39
f 26 27 9
f 41 5 40
f 42 5 41
f 43 5 42
f 44 5 43
f 8 22 23
f 8 23 24
f 8 24 25
f 8 25 26
f 8 26 9
f 21 22 8
f 20 21 8
f 1 11 12
f 1 12 13
f 1 13 14
f 1 44 45
f 1 45 46
f 1 46 11
f 1 5 44
f 4 14 15
f 4 1 14
f 4 15 16
f 4 16 17
f 4 17 18
f 4 18 19
f 4 19 20
f 4 20 8
f 72 71 48
f 70 48 71
f 73 72 48
f 74 73 48
f 47 70 69
f 47 48 70
f 68 47 69
f 75 74 48
f 67 47 68
f 76 75 48
f 66 47 67
f 65 47 66
f 6 77 76
f 6 78 77
f 6 76 48
f 64 47 65
f 79 78 6
f 80 79 6
f 81 80 6
f 82 81 6
f 7 62 61
f 7 63 62
f 7 64 63
f 7 47 64
f 60 7 61
f 59 7 60
f 58 7 59
f 2 50 49
f 2 83 82
f 2 84 83
f 2 49 84
f 2 82 6
f 51 50 2
f 52 51 2
f 3 53 52
f 3 54 53
f 3 55 54
f 3 56 55
f 3 52 2
f 3 57 56
f 3 58 57
f 3 7 58
f 5 48 10
f 5 6 48
f 47 7 8
f 9 47 8
f 48 47 9
f 10 48 9
f 12 11 85
f 12 85 86
f 13 86 87
f 13 12 86
f 14 87 88
f 14 13 87
f 15 88 89
f 15 14 88
f 16 89 90
f 16 15 89
f 17 90 91
f 17 16 90
f 18 17 91
f 18 91 92
f 19 18 92
f 19 92 93
f 20 19 93
f 20 93 94
f 21 20 94
f 21 94 95
f 22 21 95
f 22 95 96
f 23 22 96
f 23 96 97
f 24 23 97
f 24 97 98
f 24 98 99
f 25 24 99
f 26 25 99
f 26 99 100
f 26 100 101
f 27 26 101
f 28 27 101
f 28 101 102
f 29 28 102
f 29 102 103
f 30 103 104
f 30 29 103
f 30 104 105
f 31 30 105
f 32 105 106
f 32 106 107
f 32 31 105
f 33 32 107
f 34 33 107
f 34 107 108
f 35 108 109
f 35 109 110
f 35 34 108
f 36 35 110
f 37 110 111
f 37 36 110
f 38 111 112
f 38 37 111
f 39 112 113
f 39 38 112
f 40 113 114
f 40 114 115
f 40 39 113
f 41 40 115
f 42 41 115
f 42 115 116
f 43 42 116
f 43 116 117
f 44 43 117
f 44 117 118
f 44 118 119
f 45 44 119
f 46 45 119
f 46 119 120
f 11 46 120
f 11 120 85
f 122 121 49
f 122 49 50
f 123 50 51
f 123 122 50
f 124 51 52
f 124 123 51
f 125 52 53
f 125 124 52
f 126 53 54
f 126 125 53
f 127 54 55
f 127 126 54
f 128 127 55
f 128 55 56
f 129 128 56
f 129 56 57
f 129 57 58
f 130 129 58
f 131 130 58
f 131 58 59
f 132 131 59
f 132 59 60
f 133 132 60
f 133 60 61
f 134 133 61
f 134 61 62
f 135 134 62
f 135 62 63
f 136 135 63
f 136 63 64
f 137 136 64
f 137 64 65
f 138 137 65
f 138 65 66
f 139 138 66
f 139 66 67
f 140 139 67
f 140 67 68
f 141 140 68
f 141 68 69
f 141 69 70
f 142 141 70
f 143 70 71
f 143 142 70
f 144 71 72
f 144 143 71
f 145 72 73
f 145 144 72
f 146 73 74
f 146 145 73
f 147 74 75
f 147 146 74
f 148 75 76
f 148 147 75
f 149 76 77
f 149 148 76
f 150 77 78
f 150 149 77
f 151 78 79
f 151 79 80
f 151 150 78
f 152 151 80
f 153 80 81
f 153 81 82
f 153 152 80
f 154 153 82
f 155 82 83
f 155 154 82
f 156 155 83
f 156 83 84
f 121 156 84
f 121 84 49
f 111 110 109
f 101 103 102
f 101 104 103
f 101 105 104
f 101 106 105
f 101 107 106
f 101 108 107
f 101 109 108
f 115 114 113
f 117 116 115
f 97 99 98
f 97 100 99
f 85 120 119
f 93 95 94
f 91 93 92
f 91 96 95
f 91 97 96
f 91 95 93
f 88 86 85
f 88 87 86
f 88 118 117
f 88 119 118
f 88 117 115
f 88 115 113
f 88 85 119
f 90 101 100
f 90 112 111
f 90 111 109
f 90 109 101
f 90 100 97
f 90 97 91
f 89 88 113
f 89 113 112
f 89 112 90
f 142 143 144
f 140 141 142
f 138 139 140
f 138 140 142
f 150 147 148
f 150 148 149
f 135 136 137
f 152 146 147
f 152 150 151
f 152 147 150
f 134 137 138
f 134 135 137
f 155 152 153
f 155 153 154
f 131 132 133
f 131 133 134
f 123 121 122
f 127 128 129
f 127 129 130
f 124 144 145
f 124 145 146
f 124 155 156
f 124 156 121
f 124 142 144
f 124 146 152
f 124 138 142
f 124 134 138
f 124 152 155
f 124 121 123
f 125 126 127
f 125 134 124
f 125 130 131
f 125 131 134
f 125 127 130
