# SimpleCAD BREP tessellation for MuJoCo
v 3.43474889912 2.75 3
v 36.5652511009 2.75 3
v 2.94344988099 3.27048968782 3
v 2.37426434497 3.70443906957 3
v 1.74225348838 4.04036542682 3
v 1.064140927 4.26937982469 3
v 0.357870172108 4.38542232173 3
v -0.357870172108 4.38542232173 3
v -1.064140927 4.26937982469 3
v -1.74225348838 4.04036542682 3
v -2.37426434497 3.70443906957 3
v -2.94344988099 3.27048968782 3
v -3.43474889912 2.75 3
v -5 2.75 3
v -5 -2.75 3
v -3.43474889912 -2.75 3
v -2.94344988099 -3.27048968782 3
v -2.37426434497 -3.70443906957 3
v -1.74225348838 -4.04036542682 3
v -1.064140927 -4.26937982469 3
v -0.357870172108 -4.38542232173 3
v 0.357870172108 -4.38542232173 3
v 1.064140927 -4.26937982469 3
v 1.74225348838 -4.04036542682 3
v 2.37426434497 -3.70443906957 3
v 2.94344988099 -3.27048968782 3
v 3.43474889912 -2.75 3
v 36.5652511009 -2.75 3
v 37.056550119 -3.27048968782 3
v 37.625735655 -3.70443906957 3
v 38.2577465116 -4.04036542682 3
v 38.935859073 -4.26937982469 3
v 39.6421298279 -4.38542232173 3
v 40.3578701721 -4.38542232173 3
v 41.064140927 -4.26937982469 3
v 41.7422534884 -4.04036542682 3
v 42.374264345 -3.70443906957 3
v 42.943449881 -3.27048968782 3
v 43.4347488991 -2.75 3
v 45 -2.75 3
v 45 2.75 3
v 43.4347488991 2.75 3
v 42.943449881 3.27048968782 3
v 42.374264345 3.70443906957 3
v 41.7422534884 4.04036542682 3
v 41.064140927 4.26937982469 3
v 40.3578701721 4.38542232173 3
v 39.6421298279 4.38542232173 3
v 38.935859073 4.26937982469 3
v 38.2577465116 4.04036542682 3
v 37.625735655 3.70443906957 3
v 37.056550119 3.27048968782 3
v 2.05 -5.0210518765e-16 3
v 2.01885589368 0.355978764217 3
v 1.92636987261 0.701141293818 3
v 1.77535207776 1.025 3
v 1.57039110839 1.31771459986 3
v 1.31771459986 1.57039110839 3
v 1.025 1.77535207776 3
v 0.701141293818 1.92636987261 3
v 0.355978764217 2.01885589368 3
v -1.24004802338e-15 2.05 3
v -0.355978764217 2.01885589368 3
v -0.701141293818 1.92636987261 3
v -1.025 1.77535207776 3
v -1.31771459986 1.57039110839 3
v -1.57039110839 1.31771459986 3
v -1.77535207776 1.025 3
v -1.92636987261 0.701141293818 3
v -2.01885589368 0.355978764217 3
v -2.05 -4.30086180714e-15 3
v -2.01885589368 -0.355978764217 3
v -1.92636987261 -0.701141293818 3
v -1.77535207776 -1.025 3
v -1.57039110839 -1.31771459986 3
v -1.31771459986 -1.57039110839 3
v -1.025 -1.77535207776 3
v -0.701141293818 -1.92636987261 3
v -0.355978764217 -2.01885589368 3
v 5.08571839042e-15 -2.05 3
v 0.355978764217 -2.01885589368 3
v 0.701141293818 -1.92636987261 3
v 1.025 -1.77535207776 3
v 1.31771459986 -1.57039110839 3
v 1.57039110839 -1.31771459986 3
v 1.77535207776 -1.025 3
v 1.92636987261 -0.701141293818 3
v 2.01885589368 -0.355978764217 3
v 14.7 -5.38844591625e-16 3
v 14.6665770566 0.382025990867 3
v 14.5673237657 0.752444315316 3
v 14.4052558883 1.1 3
v 14.1852977749 1.41413274131 3
v 13.9141327413 1.68529777486 3
v 13.6 1.90525588833 3
v 13.2524443153 2.06732376573 3
v 12.8820259909 2.16657705663 3
v 12.5 2.2 3
v 12.1179740091 2.16657705663 3
v 11.7475556847 2.06732376573 3
v 11.4 1.90525588833 3
v 11.0858672587 1.68529777486 3
v 10.8147022251 1.41413274131 3
v 10.5947441117 1.1 3
v 10.4326762343 0.752444315316 3
v 10.3334229434 0.382025990867 3
v 10.3 -4.61555901254e-15 3
v 10.3334229434 -0.382025990867 3
v 10.4326762343 -0.752444315316 3
v 10.5947441117 -1.1 3
v 10.8147022251 -1.41413274131 3
v 11.0858672587 -1.68529777486 3
v 11.4 -1.90525588833 3
v 11.7475556847 -2.06732376573 3
v 12.1179740091 -2.16657705663 3
v 12.5 -2.2 3
v 12.8820259909 -2.16657705663 3
v 13.2524443153 -2.06732376573 3
v 13.6 -1.90525588833 3
v 13.9141327413 -1.68529777486 3
v 14.1852977749 -1.41413274131 3
v 14.4052558883 -1.1 3
v 14.5673237657 -0.752444315316 3
v 14.6665770566 -0.382025990867 3
v 29.7 -5.38844591625e-16 3
v 29.6665770566 0.382025990867 3
v 29.5673237657 0.752444315316 3
v 29.4052558883 1.1 3
v 29.1852977749 1.41413274131 3
v 28.9141327413 1.68529777486 3
v 28.6 1.90525588833 3
v 28.2524443153 2.06732376573 3
v 27.8820259909 2.16657705663 3
v 27.5 2.2 3
v 27.1179740091 2.16657705663 3
v 26.7475556847 2.06732376573 3
v 26.4 1.90525588833 3
v 26.0858672587 1.68529777486 3
v 25.8147022251 1.41413274131 3
v 25.5947441117 1.1 3
v 25.4326762343 0.752444315316 3
v 25.3334229434 0.382025990867 3
v 25.3 -4.61555901254e-15 3
v 25.3334229434 -0.382025990867 3
v 25.4326762343 -0.752444315316 3
v 25.5947441117 -1.1 3
v 25.8147022251 -1.41413274131 3
v 26.0858672587 -1.68529777486 3
v 26.4 -1.90525588833 3
v 26.7475556847 -2.06732376573 3
v 27.1179740091 -2.16657705663 3
v 27.5 -2.2 3
v 27.8820259909 -2.16657705663 3
v 28.2524443153 -2.06732376573 3
v 28.6 -1.90525588833 3
v 28.9141327413 -1.68529777486 3
v 29.1852977749 -1.41413274131 3
v 29.4052558883 -1.1 3
v 29.5673237657 -0.752444315316 3
v 29.6665770566 -0.382025990867 3
v 42.05 -5.0210518765e-16 3
v 42.0188558937 0.355978764217 3
v 41.9263698726 0.701141293818 3
v 41.7753520778 1.025 3
v 41.5703911084 1.31771459986 3
v 41.3177145999 1.57039110839 3
v 41.025 1.77535207776 3
v 40.7011412938 1.92636987261 3
v 40.3559787642 2.01885589368 3
v 40 2.05 3
v 39.6440212358 2.01885589368 3
v 39.2988587062 1.92636987261 3
v 38.975 1.77535207776 3
v 38.6822854001 1.57039110839 3
v 38.4296088916 1.31771459986 3
v 38.2246479222 1.025 3
v 38.0736301274 0.701141293818 3
v 37.9811441063 0.355978764217 3
v 37.95 -4.30086180714e-15 3
v 37.9811441063 -0.355978764217 3
v 38.0736301274 -0.701141293818 3
v 38.2246479222 -1.025 3
v 38.4296088916 -1.31771459986 3
v 38.6822854001 -1.57039110839 3
v 38.975 -1.77535207776 3
v 39.2988587062 -1.92636987261 3
v 39.6440212358 -2.01885589368 3
v 40 -2.05 3
v 40.3559787642 -2.01885589368 3
v 40.7011412938 -1.92636987261 3
v 41.025 -1.77535207776 3
v 41.3177145999 -1.57039110839 3
v 41.5703911084 -1.31771459986 3
v 41.7753520778 -1.025 3
v 41.9263698726 -0.701141293818 3
v 42.0188558937 -0.355978764217 3
v 3.61127771682 2.75 3.13914383425
v 3.79344199816 2.75 3.28537108385
v 3.98152601377 2.75 3.43890993906
v 4.17582327212 2.75 3.6
v 4.17582327212 2.75 4.2
v 35.8241767279 2.75 4.2
v 35.8241767279 2.75 3.6
v 36.0184739862 2.75 3.43890993906
v 36.2065580018 2.75 3.28537108385
v 36.3887222832 2.75 3.13914383425
v 3.66830279005 3.39758070404 3.6
v 3.061453794 3.95316337472 3.6
v 2.37170824513 4.40170421541 3.6
v 1.61774273703 4.731057856 3.6
v 0.819972780041 4.9323062192 3.6
v -8.04061324838e-16 5 3.6
v -0.819972780041 4.9323062192 3.6
v -1.61774273703 4.731057856 3.6
v -2.37170824513 4.40170421541 3.6
v -3.061453794 3.95316337472 3.6
v -3.66830279005 3.39758070404 3.6
v -4.17582327212 2.75 3.6
v -3.98152601377 2.75 3.43890993906
v -3.79344199816 2.75 3.28537108385
v -3.61127771682 2.75 3.13914383425
v 43.6112777168 2.75 3.13914383425
v 43.7934419982 2.75 3.28537108385
v 43.9815260138 2.75 3.43890993906
v 44.1758232721 2.75 3.6
v 43.6683027901 3.39758070404 3.6
v 43.061453794 3.95316337472 3.6
v 42.3717082451 4.40170421541 3.6
v 41.617742737 4.731057856 3.6
v 40.81997278 4.9323062192 3.6
v 40 5 3.6
v 39.18002722 4.9323062192 3.6
v 38.382257263 4.731057856 3.6
v 37.6282917549 4.40170421541 3.6
v 36.938546206 3.95316337472 3.6
v 36.3316972099 3.39758070404 3.6
v -5 2.75 4.2
v -4.17582327212 2.75 4.2
v 44.1758232721 2.75 4.2
v 45 2.75 4.2
v -5 -2.75 4.2
v -5 1.2375 4.2
v -5 1.2375 5.8
v -5 2.75 5.8
v -5 2.75 7
v -5 -2.75 7
v -5 -2.75 5.8
v -5 -1.2375 5.8
v -5 -1.2375 4.2
v -5 6.12323399574e-16 3.6
v -5 0 4.2
v -5 0 5.8
v -5 6.12323399574e-16 6.4
v 45 -2.75 4.2
v 45 1.2375 4.2
v 45 1.2375 5.8
v 45 2.75 5.8
v 45 2.75 7
v 45 -2.75 7
v 45 -2.75 5.8
v 45 -1.2375 5.8
v 45 -1.2375 4.2
v 45 0 3.6
v 45 -1.27845721435e-15 4.2
v 45 -1.27845721435e-15 5.8
v 45 0 6.4
v -4.17582327212 -2.75 4.2
v -4.17582327212 -2.75 3.6
v -3.98152601377 -2.75 3.43890993906
v -3.79344199816 -2.75 3.28537108385
v -3.61127771682 -2.75 3.13914383425
v 43.6112777168 -2.75 3.13914383425
v 43.7934419982 -2.75 3.28537108385
v 43.9815260138 -2.75 3.43890993906
v 44.1758232721 -2.75 3.6
v 44.1758232721 -2.75 4.2
v -3.66830279005 -3.39758070404 3.6
v -3.061453794 -3.95316337472 3.6
v -2.37170824513 -4.40170421541 3.6
v -1.61774273703 -4.731057856 3.6
v -0.819972780041 -4.9323062192 3.6
v 7.96329909764e-15 -5 3.6
v 0.819972780041 -4.9323062192 3.6
v 1.61774273703 -4.731057856 3.6
v 2.37170824513 -4.40170421541 3.6
v 3.061453794 -3.95316337472 3.6
v 3.66830279005 -3.39758070404 3.6
v 4.17582327212 -2.75 3.6
v 3.61127771682 -2.75 3.13914383425
v 3.79344199816 -2.75 3.28537108385
v 3.98152601377 -2.75 3.43890993906
v 35.8241767279 -2.75 3.6
v 36.3316972099 -3.39758070404 3.6
v 36.938546206 -3.95316337472 3.6
v 37.6282917549 -4.40170421541 3.6
v 38.382257263 -4.731057856 3.6
v 39.18002722 -4.9323062192 3.6
v 40 -5 3.6
v 40.81997278 -4.9323062192 3.6
v 41.617742737 -4.731057856 3.6
v 42.3717082451 -4.40170421541 3.6
v 43.061453794 -3.95316337472 3.6
v 43.6683027901 -3.39758070404 3.6
v 36.0184739862 -2.75 3.43890993906
v 36.2065580018 -2.75 3.28537108385
v 36.3887222832 -2.75 3.13914383425
v 4.17582327212 -2.75 4.2
v 35.8241767279 -2.75 4.2
v 2.05 -5.0210518765e-16 7
v 2.01885589368 0.355978764217 7
v 1.92636987261 0.701141293818 7
v 1.77535207776 1.025 7
v 1.57039110839 1.31771459986 7
v 1.31771459986 1.57039110839 7
v 1.025 1.77535207776 7
v 0.701141293818 1.92636987261 7
v 0.355978764217 2.01885589368 7
v -1.24004802338e-15 2.05 7
v -0.355978764217 2.01885589368 7
v -0.701141293818 1.92636987261 7
v -1.025 1.77535207776 7
v -1.31771459986 1.57039110839 7
v -1.57039110839 1.31771459986 7
v -1.77535207776 1.025 7
v -1.92636987261 0.701141293818 7
v -2.01885589368 0.355978764217 7
v -2.05 -4.30086180714e-15 7
v -2.01885589368 -0.355978764217 7
v -1.92636987261 -0.701141293818 7
v -1.77535207776 -1.025 7
v -1.57039110839 -1.31771459986 7
v -1.31771459986 -1.57039110839 7
v -1.025 -1.77535207776 7
v -0.701141293818 -1.92636987261 7
v -0.355978764217 -2.01885589368 7
v 5.08571839042e-15 -2.05 7
v 0.355978764217 -2.01885589368 7
v 0.701141293818 -1.92636987261 7
v 1.025 -1.77535207776 7
v 1.31771459986 -1.57039110839 7
v 1.57039110839 -1.31771459986 7
v 1.77535207776 -1.025 7
v 1.92636987261 -0.701141293818 7
v 2.01885589368 -0.355978764217 7
v 14.7 -5.38844591625e-16 7
v 14.6665770566 0.382025990867 7
v 14.5673237657 0.752444315316 7
v 14.4052558883 1.1 7
v 14.1852977749 1.41413274131 7
v 13.9141327413 1.68529777486 7
v 13.6 1.90525588833 7
v 13.2524443153 2.06732376573 7
v 12.8820259909 2.16657705663 7
v 12.5 2.2 7
v 12.1179740091 2.16657705663 7
v 11.7475556847 2.06732376573 7
v 11.4 1.90525588833 7
v 11.0858672587 1.68529777486 7
v 10.8147022251 1.41413274131 7
v 10.5947441117 1.1 7
v 10.4326762343 0.752444315316 7
v 10.3334229434 0.382025990867 7
v 10.3 -4.61555901254e-15 7
v 10.3334229434 -0.382025990867 7
v 10.4326762343 -0.752444315316 7
v 10.5947441117 -1.1 7
v 10.8147022251 -1.41413274131 7
v 11.0858672587 -1.68529777486 7
v 11.4 -1.90525588833 7
v 11.7475556847 -2.06732376573 7
v 12.1179740091 -2.16657705663 7
v 12.5 -2.2 7
v 12.8820259909 -2.16657705663 7
v 13.2524443153 -2.06732376573 7
v 13.6 -1.90525588833 7
v 13.9141327413 -1.68529777486 7
v 14.1852977749 -1.41413274131 7
v 14.4052558883 -1.1 7
v 14.5673237657 -0.752444315316 7
v 14.6665770566 -0.382025990867 7
v 14.3189540264 1.2375 4.2
v 14.0951876726 1.51504992956 4.2
v 13.8295294019 1.75281247417 4.2
v 13.5289557814 1.94454364826 4.2
v 13.2013603057 2.08520831611 4.2
v 12.8553461021 2.17111242171 4.2
v 12.5 2.2 4.2
v 12.1446538979 2.17111242171 4.2
v 11.7986396943 2.08520831611 4.2
v 11.4710442186 1.94454364826 4.2
v 11.1704705981 1.75281247417 4.2
v 10.9048123274 1.51504992956 4.2
v 10.6810459736 1.2375 4.2
v 14.3189540264 1.2375 5.8
v 14.0951876726 1.51504992956 5.8
v 13.8295294019 1.75281247417 5.8
v 13.5289557814 1.94454364826 5.8
v 13.2013603057 2.08520831611 5.8
v 12.8553461021 2.17111242171 5.8
v 12.5 2.2 5.8
v 12.1446538979 2.17111242171 5.8
v 11.7986396943 2.08520831611 5.8
v 11.4710442186 1.94454364826 5.8
v 11.1704705981 1.75281247417 5.8
v 10.9048123274 1.51504992956 5.8
v 10.6810459736 1.2375 5.8
v 10.6810459736 -1.2375 4.2
v 10.9048123274 -1.51504992956 4.2
v 11.1704705981 -1.75281247417 4.2
v 11.4710442186 -1.94454364826 4.2
v 11.7986396943 -2.08520831611 4.2
v 12.1446538979 -2.17111242171 4.2
v 12.5 -2.2 4.2
v 12.8553461021 -2.17111242171 4.2
v 13.2013603057 -2.08520831611 4.2
v 13.5289557814 -1.94454364826 4.2
v 13.8295294019 -1.75281247417 4.2
v 14.0951876726 -1.51504992956 4.2
v 14.3189540264 -1.2375 4.2
v 10.6810459736 -1.2375 5.8
v 10.9048123274 -1.51504992956 5.8
v 11.1704705981 -1.75281247417 5.8
v 11.4710442186 -1.94454364826 5.8
v 11.7986396943 -2.08520831611 5.8
v 12.1446538979 -2.17111242171 5.8
v 12.5 -2.2 5.8
v 12.8553461021 -2.17111242171 5.8
v 13.2013603057 -2.08520831611 5.8
v 13.5289557814 -1.94454364826 5.8
v 13.8295294019 -1.75281247417 5.8
v 14.0951876726 -1.51504992956 5.8
v 14.3189540264 -1.2375 5.8
v 29.7 -5.38844591625e-16 7
v 29.6665770566 0.382025990867 7
v 29.5673237657 0.752444315316 7
v 29.4052558883 1.1 7
v 29.1852977749 1.41413274131 7
v 28.9141327413 1.68529777486 7
v 28.6 1.90525588833 7
v 28.2524443153 2.06732376573 7
v 27.8820259909 2.16657705663 7
v 27.5 2.2 7
v 27.1179740091 2.16657705663 7
v 26.7475556847 2.06732376573 7
v 26.4 1.90525588833 7
v 26.0858672587 1.68529777486 7
v 25.8147022251 1.41413274131 7
v 25.5947441117 1.1 7
v 25.4326762343 0.752444315316 7
v 25.3334229434 0.382025990867 7
v 25.3 -4.61555901254e-15 7
v 25.3334229434 -0.382025990867 7
v 25.4326762343 -0.752444315316 7
v 25.5947441117 -1.1 7
v 25.8147022251 -1.41413274131 7
v 26.0858672587 -1.68529777486 7
v 26.4 -1.90525588833 7
v 26.7475556847 -2.06732376573 7
v 27.1179740091 -2.16657705663 7
v 27.5 -2.2 7
v 27.8820259909 -2.16657705663 7
v 28.2524443153 -2.06732376573 7
v 28.6 -1.90525588833 7
v 28.9141327413 -1.68529777486 7
v 29.1852977749 -1.41413274131 7
v 29.4052558883 -1.1 7
v 29.5673237657 -0.752444315316 7
v 29.6665770566 -0.382025990867 7
v 29.3189540264 1.2375 4.2
v 29.0951876726 1.51504992956 4.2
v 28.8295294019 1.75281247417 4.2
v 28.5289557814 1.94454364826 4.2
v 28.2013603057 2.08520831611 4.2
v 27.8553461021 2.17111242171 4.2
v 27.5 2.2 4.2
v 27.1446538979 2.17111242171 4.2
v 26.7986396943 2.08520831611 4.2
v 26.4710442186 1.94454364826 4.2
v 26.1704705981 1.75281247417 4.2
v 25.9048123274 1.51504992956 4.2
v 25.6810459736 1.2375 4.2
v 29.3189540264 1.2375 5.8
v 29.0951876726 1.51504992956 5.8
v 28.8295294019 1.75281247417 5.8
v 28.5289557814 1.94454364826 5.8
v 28.2013603057 2.08520831611 5.8
v 27.8553461021 2.17111242171 5.8
v 27.5 2.2 5.8
v 27.1446538979 2.17111242171 5.8
v 26.7986396943 2.08520831611 5.8
v 26.4710442186 1.94454364826 5.8
v 26.1704705981 1.75281247417 5.8
v 25.9048123274 1.51504992956 5.8
v 25.6810459736 1.2375 5.8
v 25.6810459736 -1.2375 4.2
v 25.9048123274 -1.51504992956 4.2
v 26.1704705981 -1.75281247417 4.2
v 26.4710442186 -1.94454364826 4.2
v 26.7986396943 -2.08520831611 4.2
v 27.1446538979 -2.17111242171 4.2
v 27.5 -2.2 4.2
v 27.8553461021 -2.17111242171 4.2
v 28.2013603057 -2.08520831611 4.2
v 28.5289557814 -1.94454364826 4.2
v 28.8295294019 -1.75281247417 4.2
v 29.0951876726 -1.51504992956 4.2
v 29.3189540264 -1.2375 4.2
v 25.6810459736 -1.2375 5.8
v 25.9048123274 -1.51504992956 5.8
v 26.1704705981 -1.75281247417 5.8
v 26.4710442186 -1.94454364826 5.8
v 26.7986396943 -2.08520831611 5.8
v 27.1446538979 -2.17111242171 5.8
v 27.5 -2.2 5.8
v 27.8553461021 -2.17111242171 5.8
v 28.2013603057 -2.08520831611 5.8
v 28.5289557814 -1.94454364826 5.8
v 28.8295294019 -1.75281247417 5.8
v 29.0951876726 -1.51504992956 5.8
v 29.3189540264 -1.2375 5.8
v 42.05 -5.0210518765e-16 7
v 42.0188558937 0.355978764217 7
v 41.9263698726 0.701141293818 7
v 41.7753520778 1.025 7
v 41.5703911084 1.31771459986 7
v 41.3177145999 1.57039110839 7
v 41.025 1.77535207776 7
v 40.7011412938 1.92636987261 7
v 40.3559787642 2.01885589368 7
v 40 2.05 7
v 39.6440212358 2.01885589368 7
v 39.2988587062 1.92636987261 7
v 38.975 1.77535207776 7
v 38.6822854001 1.57039110839 7
v 38.4296088916 1.31771459986 7
v 38.2246479222 1.025 7
v 38.0736301274 0.701141293818 7
v 37.9811441063 0.355978764217 7
v 37.95 -4.30086180714e-15 7
v 37.9811441063 -0.355978764217 7
v 38.0736301274 -0.701141293818 7
v 38.2246479222 -1.025 7
v 38.4296088916 -1.31771459986 7
v 38.6822854001 -1.57039110839 7
v 38.975 -1.77535207776 7
v 39.2988587062 -1.92636987261 7
v 39.6440212358 -2.01885589368 7
v 40 -2.05 7
v 40.3559787642 -2.01885589368 7
v 40.7011412938 -1.92636987261 7
v 41.025 -1.77535207776 7
v 41.3177145999 -1.57039110839 7
v 41.5703911084 -1.31771459986 7
v 41.7753520778 -1.025 7
v 41.9263698726 -0.701141293818 7
v 42.0188558937 -0.355978764217 7
v 35.5458082517 2.27160204917 4.2
v 35.3220220841 1.765367559 4.2
v 35.1555605329 1.2375 4.2
v 35.1555605329 1.2375 5.8
v 35.8241767279 2.75 5.8
v 35.5458082517 2.27160204917 5.8
v 35.3220220841 1.765367559 5.8
v 35.8241767279 2.75 6.4
v 44.1758232721 2.75 6.4
v 43.6683027901 3.39758070404 6.4
v 43.061453794 3.95316337472 6.4
v 42.3717082451 4.40170421541 6.4
v 41.617742737 4.731057856 6.4
v 40.81997278 4.9323062192 6.4
v 40 5 6.4
v 39.18002722 4.9323062192 6.4
v 38.382257263 4.731057856 6.4
v 37.6282917549 4.40170421541 6.4
v 36.938546206 3.95316337472 6.4
v 36.3316972099 3.39758070404 6.4
v 44.1758232721 2.75 5.8
v 44.8444394671 1.2375 5.8
v 44.6779779159 1.765367559 5.8
v 44.4541917483 2.27160204917 5.8
v 44.8444394671 1.2375 4.2
v 44.6779779159 1.765367559 4.2
v 44.4541917483 2.27160204917 4.2
v 4.84443946706 1.2375 4.2
v 4.6779779159 1.765367559 4.2
v 4.45419174825 2.27160204917 4.2
v -4.45419174825 2.27160204917 4.2
v -4.6779779159 1.765367559 4.2
v -4.84443946706 1.2375 4.2
v -4.84443946706 1.2375 5.8
v -4.17582327212 2.75 5.8
v -4.45419174825 2.27160204917 5.8
v -4.6779779159 1.765367559 5.8
v -4.17582327212 2.75 6.4
v 4.17582327212 2.75 6.4
v 3.66830279005 3.39758070404 6.4
v 3.061453794 3.95316337472 6.4
v 2.37170824513 4.40170421541 6.4
v 1.61774273703 4.731057856 6.4
v 0.819972780041 4.9323062192 6.4
v -8.04061324838e-16 5 6.4
v -0.819972780041 4.9323062192 6.4
v -1.61774273703 4.731057856 6.4
v -2.37170824513 4.40170421541 6.4
v -3.061453794 3.95316337472 6.4
v -3.66830279005 3.39758070404 6.4
v 4.17582327212 2.75 5.8
v 4.84443946706 1.2375 5.8
v 4.6779779159 1.765367559 5.8
v 4.45419174825 2.27160204917 5.8
v -3.43474889912 2.75 7
v -3.61127771682 2.75 6.86085616575
v -3.79344199816 2.75 6.71462891615
v -3.98152601377 2.75 6.56109006094
v 43.4347488991 2.75 7
v 42.943449881 3.27048968782 7
v 42.374264345 3.70443906957 7
v 41.7422534884 4.04036542682 7
v 41.064140927 4.26937982469 7
v 40.3578701721 4.38542232173 7
v 39.6421298279 4.38542232173 7
v 38.935859073 4.26937982469 7
v 38.2577465116 4.04036542682 7
v 37.625735655 3.70443906957 7
v 37.056550119 3.27048968782 7
v 36.5652511009 2.75 7
v 3.43474889912 2.75 7
v 2.94344988099 3.27048968782 7
v 2.37426434497 3.70443906957 7
v 1.74225348838 4.04036542682 7
v 1.064140927 4.26937982469 7
v 0.357870172108 4.38542232173 7
v -0.357870172108 4.38542232173 7
v -1.064140927 4.26937982469 7
v -1.74225348838 4.04036542682 7
v -2.37426434497 3.70443906957 7
v -2.94344988099 3.27048968782 7
v -3.43474889912 -2.75 7
v -2.94344988099 -3.27048968782 7
v -2.37426434497 -3.70443906957 7
v -1.74225348838 -4.04036542682 7
v -1.064140927 -4.26937982469 7
v -0.357870172108 -4.38542232173 7
v 0.357870172108 -4.38542232173 7
v 1.064140927 -4.26937982469 7
v 1.74225348838 -4.04036542682 7
v 2.37426434497 -3.70443906957 7
v 2.94344988099 -3.27048968782 7
v 3.43474889912 -2.75 7
v 36.5652511009 -2.75 7
v 37.056550119 -3.27048968782 7
v 37.625735655 -3.70443906957 7
v 38.2577465116 -4.04036542682 7
v 38.935859073 -4.26937982469 7
v 39.6421298279 -4.38542232173 7
v 40.3578701721 -4.38542232173 7
v 41.064140927 -4.26937982469 7
v 41.7422534884 -4.04036542682 7
v 42.374264345 -3.70443906957 7
v 42.943449881 -3.27048968782 7
v 43.4347488991 -2.75 7
v -4.17582327212 -2.75 5.8
v -3.61127771682 -2.75 6.86085616575
v -3.79344199816 -2.75 6.71462891615
v -3.98152601377 -2.75 6.56109006094
v -4.17582327212 -2.75 6.4
v -4.84443946706 -1.2375 5.8
v -4.6779779159 -1.765367559 5.8
v -4.45419174825 -2.27160204917 5.8
v -4.84443946706 -1.2375 4.2
v -4.6779779159 -1.765367559 4.2
v -4.45419174825 -2.27160204917 4.2
v 43.9815260138 2.75 6.56109006094
v 43.7934419982 2.75 6.71462891615
v 43.6112777168 2.75 6.86085616575
v 44.1758232721 -2.75 5.8
v 44.1758232721 -2.75 6.4
v 43.9815260138 -2.75 6.56109006094
v 43.7934419982 -2.75 6.71462891615
v 43.6112777168 -2.75 6.86085616575
v 44.4541917483 -2.27160204917 5.8
v 44.6779779159 -1.765367559 5.8
v 44.8444394671 -1.2375 5.8
v 44.8444394671 -1.2375 4.2
v 44.4541917483 -2.27160204917 4.2
v 44.6779779159 -1.765367559 4.2
v 4.45419174825 -2.27160204917 4.2
v 4.6779779159 -1.765367559 4.2
v 4.84443946706 -1.2375 4.2
v 4.84443946706 -1.2375 5.8
v 4.17582327212 -2.75 5.8
v 4.45419174825 -2.27160204917 5.8
v 4.6779779159 -1.765367559 5.8
v 4.17582327212 -2.75 6.4
v -3.66830279005 -3.39758070404 6.4
v -3.061453794 -3.95316337472 6.4
v -2.37170824513 -4.40170421541 6.4
v -1.61774273703 -4.731057856 6.4
v -0.819972780041 -4.9323062192 6.4
v 7.96329909764e-15 -5 6.4
v 0.819972780041 -4.9323062192 6.4
v 1.61774273703 -4.731057856 6.4
v 2.37170824513 -4.40170421541 6.4
v 3.061453794 -3.95316337472 6.4
v 3.66830279005 -3.39758070404 6.4
v 35.8241767279 -2.75 6.4
v 36.3316972099 -3.39758070404 6.4
v 36.938546206 -3.95316337472 6.4
v 37.6282917549 -4.40170421541 6.4
v 38.382257263 -4.731057856 6.4
v 39.18002722 -4.9323062192 6.4
v 40 -5 6.4
v 40.81997278 -4.9323062192 6.4
v 41.617742737 -4.731057856 6.4
v 42.3717082451 -4.40170421541 6.4
v 43.061453794 -3.95316337472 6.4
v 43.6683027901 -3.39758070404 6.4
v 35.8241767279 -2.75 5.8
v 35.1555605329 -1.2375 5.8
v 35.3220220841 -1.765367559 5.8
v 35.5458082517 -2.27160204917 5.8
v 35.1555605329 -1.2375 4.2
v 35.3220220841 -1.765367559 4.2
v 35.5458082517 -2.27160204917 4.2
v 36.3887222832 2.75 6.86085616575
v 36.2065580018 2.75 6.71462891615
v 36.0184739862 2.75 6.56109006094
v 3.98152601377 2.75 6.56109006094
v 3.79344199816 2.75 6.71462891615
v 3.61127771682 2.75 6.86085616575
v 36.3887222832 -2.75 6.86085616575
v 36.2065580018 -2.75 6.71462891615
v 36.0184739862 -2.75 6.56109006094
v 3.98152601377 -2.75 6.56109006094
v 3.79344199816 -2.75 6.71462891615
v 3.61127771682 -2.75 6.86085616575
f 75 17 16
f 76 17 75
f 76 18 17
f 74 75 16
f 77 18 76
f 77 19 18
f 73 74 16
f 78 20 19
f 78 19 77
f 72 16 15
f 72 73 16
f 79 20 78
f 79 21 20
f 71 15 14
f 71 72 15
f 80 21 79
f 80 22 21
f 70 71 14
f 81 23 22
f 81 22 80
f 82 23 81
f 82 24 23
f 83 25 24
f 83 24 82
f 13 70 14
f 13 68 69
f 13 69 70
f 67 68 13
f 84 26 25
f 84 25 83
f 85 26 84
f 12 67 13
f 12 66 67
f 27 26 85
f 86 27 85
f 87 27 86
f 11 65 66
f 11 66 12
f 88 27 87
f 53 27 88
f 10 65 11
f 10 64 65
f 9 63 64
f 9 64 10
f 8 63 9
f 8 62 63
f 7 62 8
f 7 61 62
f 6 61 7
f 6 60 61
f 5 59 60
f 5 60 6
f 4 58 59
f 4 59 5
f 1 53 54
f 1 54 55
f 1 55 56
f 1 56 57
f 1 27 53
f 3 58 4
f 3 1 57
f 3 57 58
f 112 27 111
f 110 111 27
f 113 27 112
f 109 110 27
f 108 109 27
f 107 27 1
f 107 108 27
f 106 107 1
f 105 106 1
f 104 105 1
f 103 104 1
f 102 103 1
f 101 102 1
f 148 119 120
f 147 120 121
f 147 148 120
f 146 121 122
f 146 147 121
f 149 119 148
f 145 122 123
f 145 146 122
f 150 117 118
f 150 118 119
f 150 119 149
f 144 123 124
f 144 145 123
f 151 117 150
f 143 144 124
f 143 124 89
f 142 143 89
f 142 89 90
f 141 142 90
f 141 90 91
f 140 91 92
f 140 141 91
f 139 140 92
f 139 92 93
f 138 139 93
f 138 93 94
f 138 94 95
f 137 138 95
f 136 137 95
f 136 95 96
f 28 155 156
f 28 156 157
f 28 157 158
f 28 158 159
f 28 159 160
f 28 160 125
f 184 30 29
f 183 184 29
f 183 29 28
f 185 31 30
f 185 30 184
f 182 183 28
f 181 182 28
f 186 32 31
f 186 31 185
f 180 181 28
f 187 33 32
f 187 32 186
f 179 180 28
f 188 33 187
f 188 34 33
f 189 35 34
f 189 34 188
f 190 35 189
f 190 36 35
f 191 36 190
f 191 37 36
f 2 125 126
f 2 126 127
f 2 127 128
f 2 128 129
f 2 129 130
f 2 130 131
f 2 28 125
f 2 176 177
f 2 177 178
f 2 178 179
f 2 179 28
f 175 176 2
f 192 38 37
f 192 37 191
f 193 38 192
f 52 175 2
f 52 174 175
f 39 38 193
f 194 39 193
f 195 39 194
f 51 174 52
f 51 173 174
f 196 39 195
f 40 39 196
f 40 196 161
f 50 173 51
f 50 172 173
f 49 172 50
f 49 171 172
f 48 170 171
f 48 171 49
f 47 170 48
f 47 169 170
f 46 168 169
f 46 169 47
f 45 168 46
f 45 167 168
f 44 166 167
f 44 167 45
f 42 162 163
f 42 163 164
f 42 164 165
f 43 166 44
f 43 165 166
f 43 42 165
f 41 40 161
f 41 161 162
f 41 162 42
f 2 98 1
f 98 99 1
f 99 100 1
f 100 101 1
f 2 97 98
f 2 96 97
f 2 134 96
f 134 135 96
f 135 136 96
f 2 133 134
f 2 132 133
f 2 131 132
f 27 116 28
f 116 117 28
f 117 152 28
f 152 153 28
f 153 154 28
f 154 155 28
f 27 115 116
f 27 114 115
f 27 113 114
f 117 151 152
f 202 200 201
f 202 203 200
f 2 1 197
f 2 197 206
f 206 197 205
f 205 197 198
f 205 198 199
f 205 199 204
f 204 199 203
f 203 199 200
f 207 199 198
f 207 200 199
f 197 207 198
f 1 207 197
f 3 208 207
f 3 207 1
f 4 209 208
f 4 208 3
f 5 210 209
f 5 209 4
f 6 211 210
f 6 210 5
f 7 212 211
f 7 211 6
f 8 213 212
f 8 212 7
f 9 214 213
f 9 213 8
f 10 215 214
f 10 214 9
f 11 216 215
f 11 215 10
f 12 217 216
f 12 216 11
f 219 218 217
f 220 219 217
f 221 220 217
f 13 217 12
f 13 221 217
f 226 224 223
f 226 225 224
f 222 226 223
f 42 226 222
f 43 227 226
f 43 226 42
f 44 228 227
f 44 227 43
f 45 229 228
f 45 228 44
f 46 230 229
f 46 229 45
f 47 231 230
f 47 230 46
f 48 232 231
f 48 231 47
f 49 233 232
f 49 232 48
f 50 234 233
f 50 233 49
f 51 235 234
f 51 234 50
f 52 236 235
f 52 235 51
f 204 203 236
f 205 204 236
f 206 205 236
f 2 236 52
f 2 206 236
f 218 14 237
f 219 14 218
f 220 14 219
f 221 14 220
f 13 14 221
f 238 218 237
f 41 42 222
f 41 222 223
f 41 223 224
f 41 224 225
f 240 225 239
f 240 41 225
f 242 237 14
f 250 242 14
f 251 242 250
f 243 245 244
f 249 251 250
f 15 250 14
f 15 249 250
f 252 243 242
f 252 242 251
f 253 245 243
f 253 243 252
f 241 249 15
f 248 253 252
f 248 251 249
f 248 252 251
f 246 248 247
f 246 245 253
f 246 253 248
f 255 41 240
f 263 41 255
f 264 263 255
f 256 257 258
f 262 263 264
f 40 41 263
f 40 263 262
f 265 255 256
f 265 264 255
f 265 262 264
f 266 256 258
f 266 265 256
f 254 40 262
f 261 265 266
f 261 262 265
f 259 260 261
f 259 266 258
f 259 261 266
f 268 241 15
f 269 268 15
f 270 269 15
f 271 270 15
f 16 271 15
f 267 241 268
f 40 272 39
f 40 273 272
f 40 274 273
f 40 275 274
f 254 276 275
f 254 275 40
f 277 268 269
f 277 269 270
f 271 277 270
f 16 277 271
f 17 278 277
f 17 277 16
f 18 279 278
f 18 278 17
f 19 280 279
f 19 279 18
f 20 281 280
f 20 280 19
f 21 282 281
f 21 281 20
f 22 283 282
f 22 282 21
f 23 284 283
f 23 283 22
f 24 285 284
f 24 284 23
f 25 286 285
f 25 285 24
f 26 287 286
f 26 286 25
f 291 288 287
f 290 291 287
f 289 290 287
f 27 287 26
f 27 289 287
f 293 292 304
f 293 304 305
f 306 293 305
f 28 293 306
f 29 294 293
f 29 293 28
f 30 295 294
f 30 294 29
f 31 296 295
f 31 295 30
f 32 297 296
f 32 296 31
f 33 298 297
f 33 297 32
f 34 299 298
f 34 298 33
f 35 300 299
f 35 299 34
f 36 301 300
f 36 300 35
f 37 302 301
f 37 301 36
f 38 303 302
f 38 302 37
f 274 275 303
f 273 274 303
f 272 273 303
f 39 303 38
f 39 272 303
f 308 307 288
f 308 288 292
f 28 289 27
f 28 306 289
f 306 305 289
f 305 290 289
f 305 291 290
f 305 304 291
f 304 292 291
f 292 288 291
f 310 53 309
f 310 54 53
f 311 55 54
f 311 54 310
f 312 56 55
f 312 55 311
f 313 57 56
f 313 56 312
f 314 58 57
f 314 57 313
f 315 59 58
f 315 58 314
f 316 59 315
f 316 60 59
f 317 60 316
f 317 61 60
f 318 61 317
f 318 62 61
f 319 62 318
f 319 63 62
f 320 63 319
f 320 64 63
f 321 64 320
f 321 65 64
f 322 65 321
f 322 66 65
f 323 66 322
f 323 67 66
f 323 68 67
f 324 68 323
f 324 69 68
f 325 69 324
f 326 69 325
f 326 70 69
f 326 71 70
f 327 71 326
f 328 72 71
f 328 71 327
f 329 73 72
f 329 72 328
f 330 74 73
f 330 73 329
f 331 75 74
f 331 74 330
f 332 76 75
f 332 75 331
f 333 77 76
f 333 76 332
f 334 78 77
f 334 77 333
f 335 79 78
f 335 80 79
f 335 78 334
f 336 80 335
f 337 81 80
f 337 80 336
f 338 82 81
f 338 81 337
f 339 83 82
f 339 82 338
f 340 83 339
f 340 84 83
f 341 84 340
f 341 85 84
f 342 85 341
f 342 86 85
f 343 86 342
f 343 87 86
f 344 87 343
f 344 88 87
f 344 53 88
f 309 53 344
f 346 89 345
f 346 90 89
f 347 90 346
f 347 91 90
f 381 92 91
f 381 93 92
f 394 91 347
f 394 381 91
f 382 93 381
f 94 93 382
f 348 394 347
f 383 94 382
f 95 94 383
f 349 394 348
f 349 395 394
f 384 95 383
f 96 95 384
f 350 395 349
f 350 396 395
f 385 96 384
f 97 96 385
f 351 396 350
f 351 397 396
f 386 97 385
f 98 97 386
f 352 397 351
f 352 398 397
f 387 98 386
f 353 398 352
f 353 399 398
f 388 99 98
f 388 98 387
f 354 400 399
f 354 399 353
f 401 400 354
f 389 100 99
f 389 99 388
f 355 401 354
f 402 401 355
f 390 100 389
f 390 101 100
f 356 402 355
f 403 402 356
f 391 101 390
f 391 102 101
f 357 403 356
f 404 403 357
f 392 102 391
f 392 103 102
f 358 404 357
f 405 404 358
f 393 103 392
f 393 104 103
f 105 104 393
f 359 405 358
f 359 406 405
f 360 406 359
f 361 105 393
f 361 406 360
f 361 393 406
f 362 105 361
f 362 106 105
f 362 107 106
f 363 107 362
f 364 107 363
f 364 108 107
f 365 109 108
f 365 108 364
f 407 110 109
f 407 111 110
f 420 109 365
f 420 407 109
f 408 111 407
f 112 111 408
f 366 420 365
f 409 112 408
f 113 112 409
f 367 421 420
f 367 420 366
f 410 113 409
f 114 113 410
f 368 422 421
f 368 421 367
f 411 114 410
f 115 114 411
f 369 423 422
f 369 422 368
f 412 115 411
f 116 115 412
f 370 423 369
f 370 424 423
f 413 116 412
f 371 425 424
f 371 424 370
f 414 116 413
f 414 117 116
f 372 425 371
f 372 426 425
f 427 426 372
f 415 117 414
f 415 118 117
f 373 427 372
f 428 427 373
f 416 118 415
f 416 119 118
f 374 428 373
f 429 428 374
f 417 119 416
f 417 120 119
f 375 429 374
f 430 429 375
f 418 120 417
f 418 121 120
f 376 430 375
f 431 430 376
f 419 121 418
f 419 122 121
f 123 419 432
f 123 122 419
f 377 432 431
f 377 431 376
f 378 432 377
f 379 123 432
f 379 432 378
f 380 123 379
f 380 124 123
f 380 89 124
f 345 89 380
f 434 125 433
f 434 126 125
f 435 126 434
f 435 127 126
f 469 128 127
f 469 129 128
f 482 127 435
f 482 469 127
f 470 129 469
f 130 129 470
f 436 482 435
f 471 130 470
f 131 130 471
f 437 482 436
f 437 483 482
f 472 131 471
f 132 131 472
f 438 483 437
f 438 484 483
f 473 132 472
f 133 132 473
f 439 484 438
f 439 485 484
f 474 133 473
f 134 133 474
f 440 485 439
f 440 486 485
f 475 134 474
f 441 486 440
f 441 487 486
f 476 135 134
f 476 134 475
f 442 488 487
f 442 487 441
f 489 488 442
f 477 136 135
f 477 135 476
f 443 489 442
f 490 489 443
f 478 136 477
f 478 137 136
f 444 490 443
f 491 490 444
f 479 137 478
f 479 138 137
f 445 491 444
f 492 491 445
f 480 138 479
f 480 139 138
f 446 492 445
f 493 492 446
f 481 139 480
f 481 140 139
f 141 140 481
f 447 493 446
f 447 494 493
f 448 494 447
f 449 141 481
f 449 494 448
f 449 481 494
f 450 141 449
f 450 142 141
f 450 143 142
f 451 143 450
f 452 143 451
f 452 144 143
f 453 145 144
f 453 144 452
f 495 146 145
f 495 147 146
f 508 145 453
f 508 495 145
f 496 147 495
f 148 147 496
f 454 508 453
f 497 148 496
f 149 148 497
f 455 509 508
f 455 508 454
f 498 149 497
f 150 149 498
f 456 510 509
f 456 509 455
f 499 150 498
f 151 150 499
f 457 511 510
f 457 510 456
f 500 151 499
f 152 151 500
f 458 511 457
f 458 512 511
f 501 152 500
f 459 513 512
f 459 512 458
f 502 152 501
f 502 153 152
f 460 513 459
f 460 514 513
f 515 514 460
f 503 153 502
f 503 154 153
f 461 515 460
f 516 515 461
f 504 154 503
f 504 155 154
f 462 516 461
f 517 516 462
f 505 155 504
f 505 156 155
f 463 517 462
f 518 517 463
f 506 156 505
f 506 157 156
f 464 518 463
f 519 518 464
f 507 157 506
f 507 158 157
f 159 507 520
f 159 158 507
f 465 520 519
f 465 519 464
f 466 520 465
f 467 159 520
f 467 520 466
f 468 159 467
f 468 160 159
f 468 125 160
f 433 125 468
f 522 161 521
f 522 162 161
f 523 163 162
f 523 162 522
f 524 164 163
f 524 163 523
f 525 165 164
f 525 164 524
f 526 166 165
f 526 165 525
f 527 167 166
f 527 166 526
f 528 167 527
f 528 168 167
f 529 168 528
f 529 169 168
f 530 169 529
f 530 170 169
f 531 170 530
f 531 171 170
f 532 171 531
f 532 172 171
f 533 172 532
f 533 173 172
f 534 173 533
f 534 174 173
f 535 174 534
f 535 175 174
f 535 176 175
f 536 176 535
f 536 177 176
f 537 177 536
f 538 177 537
f 538 178 177
f 538 179 178
f 539 179 538
f 540 180 179
f 540 179 539
f 541 181 180
f 541 180 540
f 542 182 181
f 542 181 541
f 543 183 182
f 543 182 542
f 544 184 183
f 544 183 543
f 545 185 184
f 545 184 544
f 546 186 185
f 546 185 545
f 547 187 186
f 547 188 187
f 547 186 546
f 548 188 547
f 549 189 188
f 549 188 548
f 550 190 189
f 550 189 549
f 551 191 190
f 551 190 550
f 552 191 551
f 552 192 191
f 553 192 552
f 553 193 192
f 554 193 553
f 554 194 193
f 555 194 554
f 555 195 194
f 556 195 555
f 556 196 195
f 556 161 196
f 521 161 556
f 578 581 582
f 579 578 582
f 580 582 583
f 580 579 582
f 226 239 225
f 577 583 239
f 577 580 583
f 566 226 227
f 566 565 577
f 566 239 226
f 566 577 239
f 567 566 227
f 568 227 228
f 568 567 227
f 569 228 229
f 569 568 228
f 570 229 230
f 570 569 229
f 571 230 231
f 571 570 230
f 572 231 232
f 572 232 233
f 572 571 231
f 573 572 233
f 574 233 234
f 574 573 233
f 575 574 234
f 575 234 235
f 202 236 203
f 576 575 235
f 576 235 236
f 561 236 202
f 561 576 236
f 561 202 557
f 564 576 561
f 562 561 557
f 563 557 558
f 563 558 559
f 563 562 557
f 560 563 559
f 393 585 584
f 393 586 585
f 392 201 586
f 392 586 393
f 391 201 392
f 390 201 391
f 389 201 390
f 388 201 389
f 481 382 381
f 480 383 382
f 480 382 481
f 479 383 480
f 478 384 383
f 478 383 479
f 477 385 384
f 477 384 478
f 558 469 559
f 557 470 469
f 557 469 558
f 202 470 557
f 202 471 470
f 202 472 471
f 202 473 472
f 202 474 473
f 202 201 387
f 387 201 388
f 202 387 386
f 202 386 385
f 202 385 475
f 475 385 476
f 476 385 477
f 202 475 474
f 609 608 584
f 609 584 585
f 610 585 586
f 610 609 585
f 207 201 200
f 607 586 201
f 607 610 586
f 607 201 207
f 596 595 607
f 596 607 207
f 597 207 208
f 597 596 207
f 598 208 209
f 598 209 210
f 598 597 208
f 599 210 211
f 599 598 210
f 600 599 211
f 601 211 212
f 601 600 211
f 602 212 213
f 602 213 214
f 602 601 212
f 603 214 215
f 603 602 214
f 604 215 216
f 604 603 215
f 605 604 216
f 238 217 218
f 606 605 216
f 606 216 217
f 591 217 238
f 591 606 217
f 594 606 591
f 592 238 587
f 592 591 238
f 593 592 587
f 593 587 588
f 593 588 589
f 590 593 589
f 588 242 589
f 237 242 588
f 587 237 588
f 238 237 587
f 582 581 255
f 240 583 582
f 240 239 583
f 240 582 255
f 590 589 242
f 590 242 243
f 593 590 243
f 244 593 243
f 592 593 244
f 591 592 244
f 594 591 244
f 594 244 245
f 614 594 245
f 613 614 245
f 612 613 245
f 611 612 245
f 331 638 639
f 332 331 639
f 332 639 640
f 330 638 331
f 333 332 640
f 333 640 641
f 329 638 330
f 334 333 641
f 334 641 642
f 328 638 329
f 328 246 638
f 335 334 642
f 335 642 643
f 327 245 246
f 327 246 328
f 336 335 643
f 336 643 644
f 326 245 327
f 337 336 644
f 337 644 645
f 338 337 645
f 338 645 646
f 339 646 647
f 339 338 646
f 611 245 326
f 611 325 324
f 611 326 325
f 323 611 324
f 340 339 647
f 340 647 648
f 341 340 648
f 637 611 323
f 637 323 322
f 649 341 648
f 342 341 649
f 343 342 649
f 636 322 321
f 636 637 322
f 344 343 649
f 309 344 649
f 635 636 321
f 635 321 320
f 634 320 319
f 634 635 320
f 633 634 319
f 633 319 318
f 632 633 318
f 632 318 317
f 631 632 317
f 631 317 316
f 630 631 316
f 630 316 315
f 629 315 314
f 629 630 315
f 627 310 309
f 627 311 310
f 627 312 311
f 627 313 312
f 627 309 649
f 628 629 314
f 628 313 627
f 628 314 313
f 368 367 649
f 366 649 367
f 369 368 649
f 365 649 366
f 364 649 365
f 363 627 649
f 363 649 364
f 362 627 363
f 361 627 362
f 360 627 361
f 359 627 360
f 358 627 359
f 357 627 358
f 456 376 375
f 455 377 376
f 455 376 456
f 454 378 377
f 454 377 455
f 457 456 375
f 453 379 378
f 453 378 454
f 458 374 373
f 458 375 374
f 458 457 375
f 452 380 379
f 452 379 453
f 459 458 373
f 451 380 452
f 451 345 380
f 450 345 451
f 450 346 345
f 449 346 450
f 449 347 346
f 448 348 347
f 448 347 449
f 447 348 448
f 447 349 348
f 446 349 447
f 446 350 349
f 445 350 446
f 445 351 350
f 444 351 445
f 444 352 351
f 650 464 463
f 650 465 464
f 650 466 465
f 650 467 466
f 650 468 467
f 650 433 468
f 544 651 652
f 543 651 544
f 543 650 651
f 545 544 652
f 545 652 653
f 542 650 543
f 541 650 542
f 546 653 654
f 546 545 653
f 540 650 541
f 547 654 655
f 547 546 654
f 539 650 540
f 548 547 655
f 548 655 656
f 549 656 657
f 549 548 656
f 550 549 657
f 550 657 658
f 551 550 658
f 551 658 659
f 626 434 433
f 626 435 434
f 626 436 435
f 626 437 436
f 626 438 437
f 626 439 438
f 626 433 650
f 626 537 536
f 626 538 537
f 626 539 538
f 626 650 539
f 535 626 536
f 552 659 660
f 552 551 659
f 553 552 660
f 625 626 535
f 625 535 534
f 661 553 660
f 554 553 661
f 555 554 661
f 624 625 534
f 624 534 533
f 556 555 661
f 259 556 661
f 259 521 556
f 623 624 533
f 623 533 532
f 622 623 532
f 622 532 531
f 621 531 530
f 621 622 531
f 620 621 530
f 620 530 529
f 619 529 528
f 619 620 529
f 618 619 528
f 618 528 527
f 617 527 526
f 617 618 527
f 615 523 522
f 615 524 523
f 615 525 524
f 616 617 526
f 616 526 525
f 616 525 615
f 258 521 259
f 258 615 522
f 258 522 521
f 626 627 442
f 442 627 443
f 443 627 444
f 444 627 354
f 354 627 355
f 355 627 356
f 356 627 357
f 626 442 441
f 626 441 440
f 626 440 439
f 444 354 353
f 444 353 352
f 649 650 372
f 372 650 373
f 373 650 460
f 460 650 461
f 461 650 462
f 462 650 463
f 649 372 371
f 649 371 370
f 649 370 369
f 373 460 459
f 666 247 662
f 666 246 247
f 665 246 666
f 664 246 665
f 663 246 664
f 638 246 663
f 669 662 247
f 668 669 247
f 248 668 247
f 667 668 248
f 667 249 670
f 667 248 249
f 672 241 267
f 671 241 672
f 249 241 671
f 670 249 671
f 256 255 581
f 256 581 578
f 579 256 578
f 257 579 580
f 257 580 577
f 257 256 579
f 257 577 565
f 258 565 673
f 258 673 674
f 258 674 675
f 258 675 615
f 258 257 565
f 260 677 676
f 259 678 677
f 259 679 678
f 259 680 679
f 259 661 680
f 259 677 260
f 260 676 681
f 682 260 681
f 261 682 683
f 261 260 682
f 261 684 262
f 261 683 684
f 254 685 276
f 686 685 254
f 262 684 686
f 262 686 254
f 667 670 671
f 668 667 671
f 669 671 672
f 669 672 267
f 669 668 671
f 277 267 268
f 662 267 277
f 662 669 267
f 695 666 662
f 695 662 277
f 696 277 278
f 696 695 277
f 697 278 279
f 697 696 278
f 698 279 280
f 698 697 279
f 699 280 281
f 699 698 280
f 700 281 282
f 700 282 283
f 700 699 281
f 701 700 283
f 702 283 284
f 702 701 283
f 703 284 285
f 703 702 284
f 704 703 285
f 704 285 286
f 307 287 288
f 705 704 286
f 705 286 287
f 691 287 307
f 691 705 287
f 691 307 687
f 694 705 691
f 692 691 687
f 693 687 688
f 693 692 687
f 690 688 689
f 690 693 688
f 719 722 723
f 720 719 723
f 721 723 724
f 721 724 308
f 721 720 723
f 293 308 292
f 718 308 293
f 718 721 308
f 707 706 718
f 707 718 293
f 708 293 294
f 708 707 293
f 709 294 295
f 709 708 294
f 710 295 296
f 710 709 295
f 711 296 297
f 711 710 296
f 712 297 298
f 712 298 299
f 712 711 297
f 713 712 299
f 714 299 300
f 714 713 299
f 715 300 301
f 715 714 300
f 716 715 301
f 716 301 302
f 276 303 275
f 717 716 302
f 717 302 303
f 676 303 276
f 676 717 303
f 676 276 685
f 677 717 676
f 681 676 685
f 682 685 686
f 682 681 685
f 683 686 684
f 683 682 686
f 408 687 307
f 409 408 307
f 407 688 687
f 407 689 688
f 407 687 408
f 410 409 307
f 411 410 307
f 412 411 307
f 413 412 307
f 496 419 418
f 497 418 417
f 497 496 418
f 495 419 496
f 498 417 416
f 498 497 417
f 499 416 415
f 499 498 416
f 500 415 414
f 500 499 415
f 501 414 413
f 501 500 414
f 308 502 501
f 308 503 502
f 308 504 503
f 308 505 504
f 308 506 505
f 308 413 307
f 308 501 413
f 724 507 506
f 724 506 308
f 723 507 724
f 722 507 723
f 406 393 584
f 406 584 608
f 406 608 609
f 406 609 610
f 405 610 607
f 405 406 610
f 404 405 607
f 403 404 607
f 402 403 607
f 401 402 607
f 494 394 395
f 493 395 396
f 493 494 395
f 492 493 396
f 491 396 397
f 491 492 396
f 490 397 398
f 490 491 397
f 563 560 482
f 562 482 483
f 562 563 482
f 561 562 483
f 561 483 484
f 561 484 485
f 561 485 486
f 561 486 487
f 561 400 607
f 400 401 607
f 561 399 400
f 561 398 399
f 561 488 398
f 488 489 398
f 489 490 398
f 561 487 488
f 494 481 381
f 494 381 394
f 508 419 495
f 508 432 419
f 421 691 692
f 422 691 421
f 420 692 693
f 420 693 690
f 420 421 692
f 423 691 422
f 424 691 423
f 425 691 424
f 426 691 425
f 509 431 432
f 510 430 431
f 510 431 509
f 508 509 432
f 511 429 430
f 511 430 510
f 512 428 429
f 512 429 511
f 513 427 428
f 513 428 512
f 514 426 427
f 514 427 513
f 718 514 515
f 718 515 516
f 718 516 517
f 718 517 518
f 718 518 519
f 718 691 426
f 718 426 514
f 721 519 520
f 721 718 519
f 720 721 520
f 719 720 520
f 420 689 407
f 420 690 689
f 560 559 469
f 560 469 482
f 719 507 722
f 719 520 507
f 566 673 565
f 566 674 673
f 675 674 566
f 615 675 566
f 616 566 567
f 616 615 566
f 617 567 568
f 617 616 567
f 618 568 569
f 618 617 568
f 619 569 570
f 619 618 569
f 620 570 571
f 620 619 570
f 621 571 572
f 621 620 571
f 622 572 573
f 622 621 572
f 623 573 574
f 623 622 573
f 624 574 575
f 624 623 574
f 625 575 576
f 625 624 575
f 727 576 564
f 726 576 727
f 725 576 726
f 626 625 576
f 626 576 725
f 564 561 607
f 564 607 595
f 627 626 725
f 627 725 730
f 730 725 726
f 730 726 729
f 729 726 727
f 729 727 728
f 728 727 595
f 595 727 564
f 596 728 595
f 596 729 728
f 730 729 596
f 627 730 596
f 628 596 597
f 628 627 596
f 629 597 598
f 629 628 597
f 630 598 599
f 630 629 598
f 631 599 600
f 631 630 599
f 632 600 601
f 632 631 600
f 633 601 602
f 633 632 601
f 634 602 603
f 634 633 602
f 635 603 604
f 635 634 603
f 636 604 605
f 636 635 604
f 637 605 606
f 637 636 605
f 614 606 594
f 613 606 614
f 612 606 613
f 611 637 606
f 611 606 612
f 707 732 733
f 707 733 706
f 731 732 707
f 650 731 707
f 651 707 708
f 651 650 707
f 652 708 709
f 652 651 708
f 653 709 710
f 653 652 709
f 654 710 711
f 654 653 710
f 655 711 712
f 655 654 711
f 656 712 713
f 656 655 712
f 657 713 714
f 657 656 713
f 658 714 715
f 658 657 714
f 659 715 716
f 659 658 715
f 660 716 717
f 660 659 716
f 678 717 677
f 679 717 678
f 680 717 679
f 661 660 717
f 661 717 680
f 706 691 718
f 706 694 691
f 649 731 650
f 649 736 731
f 736 732 731
f 736 735 732
f 735 733 732
f 735 734 733
f 734 694 733
f 694 706 733
f 695 664 665
f 695 665 666
f 663 664 695
f 638 663 695
f 639 695 696
f 639 638 695
f 640 696 697
f 640 639 696
f 641 697 698
f 641 640 697
f 642 698 699
f 642 641 698
f 643 699 700
f 643 642 699
f 644 700 701
f 644 643 700
f 645 701 702
f 645 644 701
f 646 702 703
f 646 645 702
f 647 703 704
f 647 646 703
f 648 704 705
f 648 647 704
f 734 705 694
f 735 705 734
f 736 705 735
f 649 648 705
f 649 705 736
