# SimpleCAD BREP tessellation for MuJoCo
v 24 -17 0
v 24 -17 24
v 24 17 0
v 24 17 24
v 24 12 8
v 24 -12 8
v 24 -12 13
v 24 12 13
v 64 -17 0
v 64 -17 24
v 64 17 24
v 64 17 0
v 26 -16 0
v 26 -14 0
v 62 -14 0
v 62 -16 0
v 26 14 0
v 26 16 0
v 62 16 0
v 62 14 0
v 0 12 8
v -2.083778132 11.8176930361 8
v -4.10424171991 11.2763114494 8
v -6 10.3923048454 8
v -7.71345131624 9.19253331743 8
v -9.19253331743 7.71345131624 8
v -10.3923048454 6 8
v -11.2763114494 4.10424171991 8
v -11.8176930361 2.083778132 8
v -12 -1.98467059138e-14 8
v -11.8176930361 -2.083778132 8
v -11.2763114494 -4.10424171991 8
v -10.3923048454 -6 8
v -9.19253331743 -7.71345131624 8
v -7.71345131624 -9.19253331743 8
v -6 -10.3923048454 8
v -4.10424171991 -11.2763114494 8
v -2.083778132 -11.8176930361 8
v 0 -12 8
v 0 12 13
v -2.083778132 11.8176930361 13
v -4.10424171991 11.2763114494 13
v -6 10.3923048454 13
v -7.71345131624 9.19253331743 13
v -9.19253331743 7.71345131624 13
v -10.3923048454 6 13
v -11.2763114494 4.10424171991 13
v -11.8176930361 2.083778132 13
v -12 -1.98467059138e-14 13
v -11.8176930361 -2.083778132 13
v -11.2763114494 -4.10424171991 13
v -10.3923048454 -6 13
v -9.19253331743 -7.71345131624 13
v -7.71345131624 -9.19253331743 13
v -6 -10.3923048454 13
v -4.10424171991 -11.2763114494 13
v -2.083778132 -11.8176930361 13
v 0 -12 13
v 7 -1.71450551881e-15 13
v 6.89365427109 -1.21553724367 13
v 6.5778483455 -2.39414100328 13
v 6.06217782649 -3.5 13
v 5.36231110183 -4.49951326781 13
v 4.49951326781 -5.36231110183 13
v 3.5 -6.06217782649 13
v 2.39414100328 -6.5778483455 13
v 1.21553724367 -6.89365427109 13
v -9.8805441522e-15 -7 13
v -1.21553724367 -6.89365427109 13
v -2.39414100328 -6.5778483455 13
v -3.5 -6.06217782649 13
v -4.49951326781 -5.36231110183 13
v -5.36231110183 -4.49951326781 13
v -6.06217782649 -3.5 13
v -6.5778483455 -2.39414100328 13
v -6.89365427109 -1.21553724367 13
v -7 2.02246643821e-14 13
v -6.89365427109 1.21553724367 13
v -6.5778483455 2.39414100328 13
v -6.06217782649 3.5 13
v -5.36231110183 4.49951326781 13
v -4.49951326781 5.36231110183 13
v -3.5 6.06217782649 13
v -2.39414100328 6.5778483455 13
v -1.21553724367 6.89365427109 13
v 1.89729341617e-14 7 13
v 1.21553724367 6.89365427109 13
v 2.39414100328 6.5778483455 13
v 3.5 6.06217782649 13
v 4.49951326781 5.36231110183 13
v 5.36231110183 4.49951326781 13
v 6.06217782649 3.5 13
v 6.5778483455 2.39414100328 13
v 6.89365427109 1.21553724367 13
v 26 -16 -4
v 26 -14 -4
v 62 -16 -4
v 62 -14 -4
v 26 14 -4
v 26 16 -4
v 62 14 -4
v 62 16 -4
v 7 -1.71450551881e-15 28
v 6.89365427109 1.21553724367 28
v 6.5778483455 2.39414100328 28
v 6.06217782649 3.5 28
v 5.36231110183 4.49951326781 28
v 4.49951326781 5.36231110183 28
v 3.5 6.06217782649 28
v 2.39414100328 6.5778483455 28
v 1.21553724367 6.89365427109 28
v -4.23431032372e-15 7 28
v -1.21553724367 6.89365427109 28
v -2.39414100328 6.5778483455 28
v -3.5 6.06217782649 28
v -4.49951326781 5.36231110183 28
v -5.36231110183 4.49951326781 28
v -6.06217782649 3.5 28
v -6.5778483455 2.39414100328 28
v -6.89365427109 1.21553724367 28
v -7 -1.46858695853e-14 28
v -6.89365427109 -1.21553724367 28
v -6.5778483455 -2.39414100328 28
v -6.06217782649 -3.5 28
v -5.36231110183 -4.49951326781 28
v -4.49951326781 -5.36231110183 28
v -3.5 -6.06217782649 28
v -2.39414100328 -6.5778483455 28
v -1.21553724367 -6.89365427109 28
v 1.73658676746e-14 -7 28
v 1.21553724367 -6.89365427109 28
v 2.39414100328 -6.5778483455 28
v 3.5 -6.06217782649 28
v 4.49951326781 -5.36231110183 28
v 5.36231110183 -4.49951326781 28
v 6.06217782649 -3.5 28
v 6.5778483455 -2.39414100328 28
v 6.89365427109 -1.21553724367 28
f 8 3 5
f 4 3 8
f 6 3 1
f 6 5 3
f 7 4 8
f 7 6 1
f 2 4 7
f 2 7 1
f 9 2 1
f 10 2 9
f 11 4 2
f 11 2 10
f 14 13 1
f 3 14 1
f 3 17 14
f 18 17 3
f 9 13 16
f 9 1 13
f 15 9 16
f 20 15 14
f 20 14 17
f 12 20 19
f 12 15 20
f 12 9 15
f 12 18 3
f 12 19 18
f 12 3 4
f 11 12 4
f 36 35 34
f 30 32 31
f 30 33 32
f 26 28 27
f 26 29 28
f 26 30 29
f 26 34 33
f 26 37 36
f 26 38 37
f 26 36 34
f 26 33 30
f 24 26 25
f 24 38 26
f 22 24 23
f 22 38 24
f 21 39 38
f 21 38 22
f 5 6 39
f 5 39 21
f 5 21 40
f 8 5 40
f 72 53 54
f 73 52 53
f 73 53 72
f 71 54 55
f 71 72 54
f 74 51 52
f 74 52 73
f 70 55 56
f 70 71 55
f 75 50 51
f 75 51 74
f 69 56 57
f 69 70 56
f 76 49 50
f 76 50 75
f 68 57 58
f 68 69 57
f 77 48 49
f 77 49 76
f 67 68 58
f 78 48 77
f 78 47 48
f 66 67 58
f 79 46 47
f 79 47 78
f 65 66 58
f 80 46 79
f 45 46 80
f 64 65 58
f 81 45 80
f 44 45 81
f 44 81 82
f 43 44 82
f 43 82 83
f 42 43 83
f 42 83 84
f 41 42 84
f 41 84 85
f 40 41 85
f 40 85 86
f 40 86 87
f 40 87 88
f 40 88 89
f 40 89 90
f 7 64 58
f 7 59 60
f 7 60 61
f 7 61 62
f 7 62 63
f 7 63 64
f 8 59 7
f 8 90 91
f 8 91 92
f 8 92 93
f 8 93 94
f 8 94 59
f 8 40 90
f 6 58 39
f 7 58 6
f 10 9 12
f 10 12 11
f 13 96 95
f 13 14 96
f 16 95 97
f 16 13 95
f 16 97 98
f 16 98 15
f 15 98 96
f 15 96 14
f 17 100 99
f 17 18 100
f 20 99 101
f 20 17 99
f 20 101 102
f 20 102 19
f 19 102 100
f 19 100 18
f 41 40 21
f 41 21 22
f 42 22 23
f 42 41 22
f 43 23 24
f 43 42 23
f 44 24 25
f 44 43 24
f 45 25 26
f 45 44 25
f 46 26 27
f 46 45 26
f 47 27 28
f 47 46 27
f 48 28 29
f 48 47 28
f 49 29 30
f 49 48 29
f 50 30 31
f 50 49 30
f 51 31 32
f 51 50 31
f 52 32 33
f 52 51 32
f 53 33 34
f 53 52 33
f 54 34 35
f 54 53 34
f 55 54 35
f 55 35 36
f 55 36 37
f 56 55 37
f 57 56 37
f 57 37 38
f 58 57 38
f 58 38 39
f 103 59 94
f 104 94 93
f 104 103 94
f 105 93 92
f 105 104 93
f 106 92 91
f 106 105 92
f 107 91 90
f 107 106 91
f 108 90 89
f 108 107 90
f 109 89 88
f 109 108 89
f 110 109 88
f 110 88 87
f 111 110 87
f 111 87 86
f 112 111 86
f 112 86 85
f 113 112 85
f 113 85 84
f 114 113 84
f 114 84 83
f 115 114 83
f 115 83 82
f 116 115 82
f 116 82 81
f 117 116 81
f 117 81 80
f 118 117 80
f 118 80 79
f 119 118 79
f 119 79 78
f 120 119 78
f 120 78 77
f 121 120 77
f 121 77 76
f 122 76 75
f 122 121 76
f 123 122 75
f 123 75 74
f 124 123 74
f 125 74 73
f 125 124 74
f 126 72 71
f 126 73 72
f 126 125 73
f 127 126 71
f 128 70 69
f 128 71 70
f 128 127 71
f 129 128 69
f 130 68 67
f 130 69 68
f 130 129 69
f 131 130 67
f 132 66 65
f 132 67 66
f 132 131 67
f 133 65 64
f 133 132 65
f 134 133 64
f 135 63 62
f 135 64 63
f 135 134 64
f 136 135 62
f 137 136 62
f 137 62 61
f 138 137 61
f 138 61 60
f 103 138 60
f 103 60 59
f 97 95 96
f 98 97 96
f 101 99 100
f 102 101 100
f 124 125 126
f 121 122 123
f 121 123 124
f 121 124 126
f 130 127 128
f 130 128 129
f 132 126 127
f 132 130 131
f 132 127 130
f 118 119 120
f 117 120 121
f 117 118 120
f 135 133 134
f 115 116 117
f 115 121 126
f 115 117 121
f 137 132 133
f 137 135 136
f 137 133 135
f 138 126 132
f 138 115 126
f 138 132 137
f 112 113 114
f 112 114 115
f 106 103 104
f 106 104 105
f 106 138 103
f 108 109 110
f 108 110 111
f 108 111 112
f 108 112 115
f 107 108 115
f 107 115 138
f 107 138 106
