# SimpleCAD BREP tessellation for MuJoCo
v 9 -2.20436423847e-15 22
v 9 -2.20436423847e-15 26
v 8.86326977711 1.562833599 26
v 8.45723358707 3.07818128993 26
v 7.79422863406 4.5 26
v 6.89439998807 5.78508848718 26
v 5.78508848718 6.89439998807 26
v 4.5 7.79422863406 26
v 3.07818128993 8.45723358707 26
v 1.562833599 8.86326977711 26
v -5.44411327336e-15 9 26
v -1.562833599 8.86326977711 26
v -3.07818128993 8.45723358707 26
v -4.5 7.79422863406 26
v -5.78508848718 6.89439998807 26
v -6.89439998807 5.78508848718 26
v -7.79422863406 4.5 26
v -8.45723358707 3.07818128993 26
v -8.86326977711 1.562833599 26
v -9 -1.8881832324e-14 26
v -8.86326977711 -1.562833599 26
v -8.45723358707 -3.07818128993 26
v -7.79422863406 -4.5 26
v -6.89439998807 -5.78508848718 26
v -5.78508848718 -6.89439998807 26
v -4.5 -7.79422863406 26
v -3.07818128993 -8.45723358707 26
v -1.562833599 -8.86326977711 26
v 2.23275441531e-14 -9 26
v 1.562833599 -8.86326977711 26
v 3.07818128993 -8.45723358707 26
v 4.5 -7.79422863406 26
v 5.78508848718 -6.89439998807 26
v 6.89439998807 -5.78508848718 26
v 7.79422863406 -4.5 26
v 8.45723358707 -3.07818128993 26
v 8.86326977711 -1.562833599 26
v 8.86326977711 1.562833599 22
v 8.45723358707 3.07818128993 22
v 7.79422863406 4.5 22
v 6.89439998807 5.78508848718 22
v 5.78508848718 6.89439998807 22
v 4.5 7.79422863406 22
v 3.07818128993 8.45723358707 22
v 1.562833599 8.86326977711 22
v -5.44411327336e-15 9 22
v -1.562833599 8.86326977711 22
v -3.07818128993 8.45723358707 22
v -4.5 7.79422863406 22
v -5.78508848718 6.89439998807 22
v -6.89439998807 5.78508848718 22
v -7.79422863406 4.5 22
v -8.45723358707 3.07818128993 22
v -8.86326977711 1.562833599 22
v -9 -1.8881832324e-14 22
v -8.86326977711 -1.562833599 22
v -8.45723358707 -3.07818128993 22
v -7.79422863406 -4.5 22
v -6.89439998807 -5.78508848718 22
v -5.78508848718 -6.89439998807 22
v -4.5 -7.79422863406 22
v -3.07818128993 -8.45723358707 22
v -1.562833599 -8.86326977711 22
v 2.23275441531e-14 -9 22
v 1.562833599 -8.86326977711 22
v 3.07818128993 -8.45723358707 22
v 4.5 -7.79422863406 22
v 5.78508848718 -6.89439998807 22
v 6.89439998807 -5.78508848718 22
v 7.79422863406 -4.5 22
v 8.45723358707 -3.07818128993 22
v 8.86326977711 -1.562833599 22
v 30 -7.34788079488e-15 22
v 29.7080420622 4.1751930288 22
v 28.8378508781 8.26912067451 22
v 27.4063637293 12.2020992923 22
v 25.4414428847 15.897577927 22
v 22.9813332936 19.2836282906 22
v 20.0739181908 22.2943447643 22
v 16.7757871041 24.8711271767 22
v 13.1511344037 26.963821389 22
v 9.27050983125 28.5316954889 22
v 5.20944533001 29.5442325904 22
v 1.04698490107 29.9817248106 22
v -3.13585389803 29.835656861 22
v -7.25765686799 29.1088717883 22
v -11.2381978025 27.815515637 22
v -15 25.9807621135 22
v -18.4698442598 23.6403226082 22
v -21.5801940102 20.8397511138 22
v -24.2705098312 17.6335575688 22
v -26.4884277858 14.0841468836 22
v -28.1907786236 10.2606042998 22
v -29.344428022 6.23735072453 22
v -29.9269215078 2.09269421232 22
v -29.9269215078 -2.09269421232 22
v -29.344428022 -6.23735072453 22
v -28.1907786236 -10.2606042998 22
v -26.4884277858 -14.0841468836 22
v -24.2705098312 -17.6335575688 22
v -21.5801940102 -20.8397511138 22
v -18.4698442598 -23.6403226082 22
v -15 -25.9807621135 22
v -11.2381978025 -27.815515637 22
v -7.25765686799 -29.1088717883 22
v -3.13585389803 -29.835656861 22
v 1.04698490108 -29.9817248106 22
v 5.20944533001 -29.5442325904 22
v 9.27050983125 -28.5316954889 22
v 13.1511344037 -26.963821389 22
v 16.7757871041 -24.8711271767 22
v 20.0739181908 -22.2943447643 22
v 22.9813332936 -19.2836282906 22
v 25.4414428847 -15.897577927 22
v 27.4063637293 -12.2020992923 22
v 28.8378508781 -8.26912067451 22
v 29.7080420622 -4.1751930288 22
v 27 -1.71450551881e-15 22
v 26.8936542711 1.21553724367 22
v 26.5778483455 2.39414100328 22
v 26.0621778265 3.5 22
v 25.3623111018 4.49951326781 22
v 24.4995132678 5.36231110183 22
v 23.5 6.06217782649 22
v 22.3941410033 6.5778483455 22
v 21.2155372437 6.89365427109 22
v 20 7 22
v 18.7844627563 6.89365427109 22
v 17.6058589967 6.5778483455 22
v 16.5 6.06217782649 22
v 15.5004867322 5.36231110183 22
v 14.6376888982 4.49951326781 22
v 13.9378221735 3.5 22
v 13.4221516545 2.39414100328 22
v 13.1063457289 1.21553724367 22
v 13 -1.46858695853e-14 22
v 13.1063457289 -1.21553724367 22
v 13.4221516545 -2.39414100328 22
v 13.9378221735 -3.5 22
v 14.6376888982 -4.49951326781 22
v 15.5004867322 -5.36231110183 22
v 16.5 -6.06217782649 22
v 17.6058589967 -6.5778483455 22
v 18.7844627563 -6.89365427109 22
v 20 -7 22
v 21.2155372437 -6.89365427109 22
v 22.3941410033 -6.5778483455 22
v 23.5 -6.06217782649 22
v 24.4995132678 -5.36231110183 22
v 25.3623111018 -4.49951326781 22
v 26.0621778265 -3.5 22
v 26.5778483455 -2.39414100328 22
v 26.8936542711 -1.21553724367 22
v 30 -7.34788079488e-15 12
v 29.7080420622 4.1751930288 12
v 28.8378508781 8.26912067451 12
v 27.4063637293 12.2020992923 12
v 25.4414428847 15.897577927 12
v 22.9813332936 19.2836282906 12
v 20.0739181908 22.2943447643 12
v 16.7757871041 24.8711271767 12
v 13.1511344037 26.963821389 12
v 9.27050983125 28.5316954889 12
v 5.20944533001 29.5442325904 12
v 1.04698490107 29.9817248106 12
v -3.13585389803 29.835656861 12
v -7.25765686799 29.1088717883 12
v -11.2381978025 27.815515637 12
v -15 25.9807621135 12
v -18.4698442598 23.6403226082 12
v -21.5801940102 20.8397511138 12
v -24.2705098312 17.6335575688 12
v -26.4884277858 14.0841468836 12
v -28.1907786236 10.2606042998 12
v -29.344428022 6.23735072453 12
v -29.9269215078 2.09269421232 12
v -29.9269215078 -2.09269421232 12
v -29.344428022 -6.23735072453 12
v -28.1907786236 -10.2606042998 12
v -26.4884277858 -14.0841468836 12
v -24.2705098312 -17.6335575688 12
v -21.5801940102 -20.8397511138 12
v -18.4698442598 -23.6403226082 12
v -15 -25.9807621135 12
v -11.2381978025 -27.815515637 12
v -7.25765686799 -29.1088717883 12
v -3.13585389803 -29.835656861 12
v 1.04698490108 -29.9817248106 12
v 5.20944533001 -29.5442325904 12
v 9.27050983125 -28.5316954889 12
v 13.1511344037 -26.963821389 12
v 16.7757871041 -24.8711271767 12
v 20.0739181908 -22.2943447643 12
v 22.9813332936 -19.2836282906 12
v 25.4414428847 -15.897577927 12
v 27.4063637293 -12.2020992923 12
v 28.8378508781 -8.26912067451 12
v 29.7080420622 -4.1751930288 12
v 27 -1.71450551881e-15 38
v 26.8936542711 1.21553724367 38
v 26.5778483455 2.39414100328 38
v 26.0621778265 3.5 38
v 25.3623111018 4.49951326781 38
v 24.4995132678 5.36231110183 38
v 23.5 6.06217782649 38
v 22.3941410033 6.5778483455 38
v 21.2155372437 6.89365427109 38
v 20 7 38
v 18.7844627563 6.89365427109 38
v 17.6058589967 6.5778483455 38
v 16.5 6.06217782649 38
v 15.5004867322 5.36231110183 38
v 14.6376888982 4.49951326781 38
v 13.9378221735 3.5 38
v 13.4221516545 2.39414100328 38
v 13.1063457289 1.21553724367 38
v 13 -1.46858695853e-14 38
v 13.1063457289 -1.21553724367 38
v 13.4221516545 -2.39414100328 38
v 13.9378221735 -3.5 38
v 14.6376888982 -4.49951326781 38
v 15.5004867322 -5.36231110183 38
v 16.5 -6.06217782649 38
v 17.6058589967 -6.5778483455 38
v 18.7844627563 -6.89365427109 38
v 20 -7 38
v 21.2155372437 -6.89365427109 38
v 22.3941410033 -6.5778483455 38
v 23.5 -6.06217782649 38
v 24.4995132678 -5.36231110183 38
v 25.3623111018 -4.49951326781 38
v 26.0621778265 -3.5 38
v 26.5778483455 -2.39414100328 38
v 26.8936542711 -1.21553724367 38
v 9 -2.20436423847e-15 12
v 8.86326977711 1.562833599 12
v 8.45723358707 3.07818128993 12
v 7.79422863406 4.5 12
v 6.89439998807 5.78508848718 12
v 5.78508848718 6.89439998807 12
v 4.5 7.79422863406 12
v 3.07818128993 8.45723358707 12
v 1.562833599 8.86326977711 12
v -5.44411327336e-15 9 12
v -1.562833599 8.86326977711 12
v -3.07818128993 8.45723358707 12
v -4.5 7.79422863406 12
v -5.78508848718 6.89439998807 12
v -6.89439998807 5.78508848718 12
v -7.79422863406 4.5 12
v -8.45723358707 3.07818128993 12
v -8.86326977711 1.562833599 12
v -9 -1.8881832324e-14 12
v -8.86326977711 -1.562833599 12
v -8.45723358707 -3.07818128993 12
v -7.79422863406 -4.5 12
v -6.89439998807 -5.78508848718 12
v -5.78508848718 -6.89439998807 12
v -4.5 -7.79422863406 12
v -3.07818128993 -8.45723358707 12
v -1.562833599 -8.86326977711 12
v 2.23275441531e-14 -9 12
v 1.562833599 -8.86326977711 12
v 3.07818128993 -8.45723358707 12
v 4.5 -7.79422863406 12
v 5.78508848718 -6.89439998807 12
v 6.89439998807 -5.78508848718 12
v 7.79422863406 -4.5 12
v 8.45723358707 -3.07818128993 12
v 8.86326977711 -1.562833599 12
v 9 -2.20436423847e-15 0
v 8.86326977711 1.562833599 0
v 8.45723358707 3.07818128993 0
v 7.79422863406 4.5 0
v 6.89439998807 5.78508848718 0
v 5.78508848718 6.89439998807 0
v 4.5 7.79422863406 0
v 3.07818128993 8.45723358707 0
v 1.562833599 8.86326977711 0
v -5.44411327336e-15 9 0
v -1.562833599 8.86326977711 0
v -3.07818128993 8.45723358707 0
v -4.5 7.79422863406 0
v -5.78508848718 6.89439998807 0
v -6.89439998807 5.78508848718 0
v -7.79422863406 4.5 0
v -8.45723358707 3.07818128993 0
v -8.86326977711 1.562833599 0
v -9 -1.8881832324e-14 0
v -8.86326977711 -1.562833599 0
v -8.45723358707 -3.07818128993 0
v -7.79422863406 -4.5 0
v -6.89439998807 -5.78508848718 0
v -5.78508848718 -6.89439998807 0
v -4.5 -7.79422863406 0
v -3.07818128993 -8.45723358707 0
v -1.562833599 -8.86326977711 0
v 2.23275441531e-14 -9 0
v 1.562833599 -8.86326977711 0
v 3.07818128993 -8.45723358707 0
v 4.5 -7.79422863406 0
v 5.78508848718 -6.89439998807 0
v 6.89439998807 -5.78508848718 0
v 7.79422863406 -4.5 0
v 8.45723358707 -3.07818128993 0
v 8.86326977711 -1.562833599 0
f 3 2 1
f 3 1 38
f 4 38 39
f 4 3 38
f 5 39 40
f 5 4 39
f 6 40 41
f 6 5 40
f 7 41 42
f 7 6 41
f 8 42 43
f 8 7 42
f 9 8 43
f 9 43 44
f 9 44 45
f 10 9 45
f 11 10 45
f 11 45 46
f 11 46 47
f 12 11 47
f 13 12 47
f 13 47 48
f 13 48 49
f 14 13 49
f 15 14 49
f 15 49 50
f 15 50 51
f 16 15 51
f 16 51 52
f 17 16 52
f 17 52 53
f 18 17 53
f 19 18 53
f 19 53 54
f 20 19 54
f 20 54 55
f 21 20 55
f 21 55 56
f 22 21 56
f 22 56 57
f 23 57 58
f 23 22 57
f 23 58 59
f 24 23 59
f 25 59 60
f 25 24 59
f 26 60 61
f 26 25 60
f 27 61 62
f 27 26 61
f 28 62 63
f 28 63 64
f 28 27 62
f 29 28 64
f 30 64 65
f 30 29 64
f 31 65 66
f 31 30 65
f 32 66 67
f 32 31 66
f 33 32 67
f 33 67 68
f 34 33 68
f 34 68 69
f 35 34 69
f 35 69 70
f 35 70 71
f 36 35 71
f 37 36 71
f 37 71 72
f 2 37 72
f 2 72 1
f 60 101 102
f 59 100 101
f 59 101 60
f 58 99 100
f 58 100 59
f 61 60 102
f 61 102 103
f 61 103 104
f 57 97 98
f 57 98 99
f 57 99 58
f 62 104 105
f 62 61 104
f 56 96 97
f 56 97 57
f 63 105 106
f 63 62 105
f 55 95 96
f 55 96 56
f 64 106 107
f 64 63 106
f 54 94 95
f 54 95 55
f 65 107 108
f 65 108 109
f 65 64 107
f 53 92 93
f 53 93 94
f 53 94 54
f 66 109 110
f 66 65 109
f 52 91 92
f 52 92 53
f 67 110 111
f 67 66 110
f 51 91 52
f 68 67 111
f 90 91 51
f 50 90 51
f 89 90 50
f 89 50 49
f 140 70 69
f 141 69 68
f 141 140 69
f 139 70 140
f 139 71 70
f 142 141 68
f 142 111 112
f 142 68 111
f 88 89 49
f 138 71 139
f 138 72 71
f 143 112 113
f 143 142 112
f 137 72 138
f 137 1 72
f 144 143 113
f 136 1 137
f 145 113 114
f 145 144 113
f 135 1 136
f 135 38 1
f 146 145 114
f 115 146 114
f 134 39 38
f 134 38 135
f 147 146 115
f 87 88 49
f 87 49 48
f 133 39 134
f 133 40 39
f 148 147 115
f 132 41 40
f 132 40 133
f 116 149 148
f 116 148 115
f 131 42 41
f 131 41 132
f 150 149 116
f 86 48 47
f 86 87 48
f 130 42 131
f 117 151 150
f 117 152 151
f 117 150 116
f 153 152 117
f 85 86 47
f 85 47 46
f 73 118 153
f 73 153 117
f 73 119 118
f 84 85 46
f 84 46 45
f 74 119 73
f 74 120 119
f 74 121 120
f 74 122 121
f 83 84 45
f 75 122 74
f 75 123 122
f 75 124 123
f 82 83 45
f 82 45 44
f 76 124 75
f 76 125 124
f 76 126 125
f 81 82 44
f 81 44 43
f 77 126 76
f 77 127 126
f 80 81 43
f 80 43 42
f 80 42 130
f 78 127 77
f 78 128 127
f 78 129 128
f 79 80 130
f 79 129 78
f 79 130 129
f 26 24 25
f 22 23 24
f 22 24 26
f 29 26 27
f 29 27 28
f 33 29 30
f 33 30 31
f 33 31 32
f 33 26 29
f 36 33 34
f 36 34 35
f 36 26 33
f 12 13 14
f 12 14 15
f 12 15 16
f 12 16 17
f 12 17 18
f 12 18 19
f 2 36 37
f 3 20 21
f 3 21 22
f 3 22 26
f 3 26 36
f 3 36 2
f 10 11 12
f 9 19 20
f 9 12 19
f 9 20 3
f 9 10 12
f 5 3 4
f 7 8 9
f 6 3 5
f 6 7 9
f 6 9 3
f 74 73 154
f 74 154 155
f 75 74 155
f 75 155 156
f 76 75 156
f 76 156 157
f 77 76 157
f 77 157 158
f 78 77 158
f 78 158 159
f 79 78 159
f 79 159 160
f 80 79 160
f 80 160 161
f 81 80 161
f 81 161 162
f 82 81 162
f 82 162 163
f 83 82 163
f 83 163 164
f 83 164 165
f 84 83 165
f 84 165 166
f 85 84 166
f 86 85 166
f 86 166 167
f 87 86 167
f 87 167 168
f 88 87 168
f 88 168 169
f 89 88 169
f 89 169 170
f 90 170 171
f 90 89 170
f 91 171 172
f 91 172 173
f 91 90 171
f 92 91 173
f 93 173 174
f 93 92 173
f 94 174 175
f 94 175 176
f 94 93 174
f 95 176 177
f 95 94 176
f 96 95 177
f 97 177 178
f 97 178 179
f 97 96 177
f 98 97 179
f 99 179 180
f 99 98 179
f 100 99 180
f 100 180 181
f 101 100 181
f 101 181 182
f 102 101 182
f 102 182 183
f 102 183 184
f 103 184 185
f 103 102 184
f 104 103 185
f 105 104 185
f 105 185 186
f 106 105 186
f 106 186 187
f 107 106 187
f 107 187 188
f 108 107 188
f 108 188 189
f 109 108 189
f 109 189 190
f 110 109 190
f 110 190 191
f 111 110 191
f 111 191 192
f 112 111 192
f 112 192 193
f 113 112 193
f 113 193 194
f 113 194 195
f 114 113 195
f 115 114 195
f 115 195 196
f 116 115 196
f 116 196 197
f 117 116 197
f 117 197 198
f 73 117 198
f 73 198 154
f 199 118 119
f 200 199 119
f 201 119 120
f 201 200 119
f 202 120 121
f 202 121 122
f 202 201 120
f 203 202 122
f 204 122 123
f 204 203 122
f 205 123 124
f 205 124 125
f 205 204 123
f 206 205 125
f 206 125 126
f 207 206 126
f 207 126 127
f 208 207 127
f 209 208 127
f 209 127 128
f 210 209 128
f 210 128 129
f 211 210 129
f 211 129 130
f 212 211 130
f 212 130 131
f 213 212 131
f 213 131 132
f 213 132 133
f 214 213 133
f 215 214 133
f 215 133 134
f 216 215 134
f 216 134 135
f 217 216 135
f 217 135 136
f 218 217 136
f 218 136 137
f 219 218 137
f 219 137 138
f 219 138 139
f 220 219 139
f 221 139 140
f 221 220 139
f 222 140 141
f 222 221 140
f 223 141 142
f 223 222 141
f 224 142 143
f 224 223 142
f 225 143 144
f 225 144 145
f 225 224 143
f 226 225 145
f 227 145 146
f 227 226 145
f 228 146 147
f 228 227 146
f 229 147 148
f 229 228 147
f 230 229 148
f 230 148 149
f 231 230 149
f 231 149 150
f 232 231 150
f 232 150 151
f 232 151 152
f 233 232 152
f 234 233 152
f 234 152 153
f 199 234 153
f 199 153 118
f 258 183 182
f 257 182 181
f 257 258 182
f 256 257 181
f 256 181 180
f 259 184 183
f 259 185 184
f 259 183 258
f 255 179 178
f 255 180 179
f 255 256 180
f 260 185 259
f 260 186 185
f 254 255 178
f 254 178 177
f 261 186 260
f 261 187 186
f 253 254 177
f 253 177 176
f 262 188 187
f 262 187 261
f 252 253 176
f 252 176 175
f 263 189 188
f 263 190 189
f 263 188 262
f 251 174 173
f 251 175 174
f 251 252 175
f 264 191 190
f 264 190 263
f 250 173 172
f 250 251 173
f 265 192 191
f 265 191 264
f 249 250 172
f 266 193 192
f 266 192 265
f 171 249 172
f 248 249 171
f 267 193 266
f 194 193 267
f 170 247 248
f 170 248 171
f 195 194 267
f 195 267 268
f 169 247 170
f 196 195 268
f 196 268 269
f 168 246 247
f 168 247 169
f 197 269 270
f 197 196 269
f 167 246 168
f 167 245 246
f 198 197 270
f 198 270 235
f 166 245 167
f 166 244 245
f 154 198 235
f 165 244 166
f 165 243 244
f 155 154 235
f 155 235 236
f 164 243 165
f 156 155 236
f 156 236 237
f 163 243 164
f 163 242 243
f 157 156 237
f 157 237 238
f 162 242 163
f 162 241 242
f 158 157 238
f 158 238 239
f 161 241 162
f 161 240 241
f 159 158 239
f 160 240 161
f 160 159 239
f 160 239 240
f 220 221 222
f 225 223 224
f 217 218 219
f 217 219 220
f 228 222 223
f 228 225 226
f 228 226 227
f 228 223 225
f 214 215 216
f 230 228 229
f 211 212 213
f 211 213 214
f 211 214 216
f 232 230 231
f 232 222 228
f 232 228 230
f 209 210 211
f 234 232 233
f 234 220 222
f 234 217 220
f 234 222 232
f 208 209 211
f 207 208 211
f 205 206 207
f 204 205 207
f 204 216 217
f 204 211 216
f 204 207 211
f 203 199 200
f 203 200 201
f 203 201 202
f 203 234 199
f 203 217 234
f 203 204 217
f 236 235 271
f 236 271 272
f 237 272 273
f 237 236 272
f 238 273 274
f 238 274 275
f 238 237 273
f 239 238 275
f 240 275 276
f 240 239 275
f 241 276 277
f 241 240 276
f 242 241 277
f 242 277 278
f 243 242 278
f 243 278 279
f 244 243 279
f 244 279 280
f 245 244 280
f 245 280 281
f 246 245 281
f 246 281 282
f 246 282 283
f 247 246 283
f 248 247 283
f 248 283 284
f 249 248 284
f 249 284 285
f 250 249 285
f 250 285 286
f 250 286 287
f 251 250 287
f 252 251 287
f 252 287 288
f 252 288 289
f 253 252 289
f 254 289 290
f 254 253 289
f 255 290 291
f 255 254 290
f 256 291 292
f 256 292 293
f 256 255 291
f 257 256 293
f 258 257 293
f 258 293 294
f 258 294 295
f 259 258 295
f 260 295 296
f 260 259 295
f 261 296 297
f 261 260 296
f 262 297 298
f 262 261 297
f 263 298 299
f 263 262 298
f 264 299 300
f 264 263 299
f 265 300 301
f 265 264 300
f 266 265 301
f 266 301 302
f 266 302 303
f 267 266 303
f 268 267 303
f 268 303 304
f 269 268 304
f 269 304 305
f 270 269 305
f 270 305 306
f 235 270 306
f 235 306 271
f 295 294 293
f 291 293 292
f 291 295 293
f 298 296 295
f 298 297 296
f 302 299 298
f 302 300 299
f 302 301 300
f 302 298 295
f 305 303 302
f 305 304 303
f 305 302 295
f 281 283 282
f 281 284 283
f 281 285 284
f 281 286 285
f 281 287 286
f 281 288 287
f 271 306 305
f 272 290 289
f 272 291 290
f 272 295 291
f 272 305 295
f 272 271 305
f 279 281 280
f 278 289 288
f 278 288 281
f 278 272 289
f 278 281 279
f 274 273 272
f 276 278 277
f 275 274 272
f 275 278 276
f 275 272 278
