# SimpleCAD BREP tessellation for MuJoCo
v 0 0 0
v 0 0 20
v 0 120 0
v 0 120 20
v 280 0 0
v 280 0 20
v 280 120 20
v 260 35 20
v 100 35 20
v 100 42 20
v 260 42 20
v 96 60 20
v 95.7044404976 64.6035778206 20
v 94.8226150694 69.1315650207 20
v 93.3690032645 73.5096121757 20
v 91.3674733484 77.6658318721 20
v 88.8508903872 81.5319790977 20
v 85.8605766035 85.0445718217 20
v 82.4456328669 88.1459333688 20
v 78.6621324592 90.7851394682 20
v 74.5722003524 92.9188544286 20
v 70.2429931187 94.5120427093 20
v 65.7455962212 95.5385442029 20
v 61.1538567926 95.9815037832 20
v 56.5431710673 95.8336480662 20
v 51.9892463776 95.0974048385 20
v 47.5668580408 93.7848631938 20
v 43.3486215513 91.9175750294 20
v 39.4038002356 89.5262011655 20
v 35.7971679506 86.6500078947 20
v 32.5879454987 83.3362222311 20
v 29.8288282239 79.6392564436 20
v 27.5651207555 75.6198146082 20
v 25.8339931076 71.3438958489 20
v 24.6638703483 66.8817106332 20
v 24.073965861 62.3065279193 20
v 24.073965861 57.6934720807 20
v 24.6638703483 53.1182893668 20
v 25.8339931076 48.6561041511 20
v 27.5651207555 44.3801853918 20
v 29.8288282239 40.3607435564 20
v 32.5879454987 36.6637777689 20
v 35.7971679506 33.3499921053 20
v 39.4038002356 30.4737988345 20
v 43.3486215513 28.0824249706 20
v 47.5668580408 26.2151368062 20
v 51.9892463776 24.9025951615 20
v 56.5431710673 24.1663519338 20
v 61.1538567926 24.0184962168 20
v 65.7455962212 24.4614557971 20
v 70.2429931187 25.4879572907 20
v 74.5722003524 27.0811455714 20
v 78.6621324592 29.2148605318 20
v 82.4456328669 31.8540666312 20
v 85.8605766035 34.9554281783 20
v 88.8508903872 38.4680209023 20
v 91.3674733484 42.3341681279 20
v 93.3690032645 46.4903878243 20
v 94.8226150694 50.8684349793 20
v 95.7044404976 55.3964221794 20
v 260 78 20
v 100 78 20
v 100 85 20
v 260 85 20
v 280 120 0
v 71 60 0
v 70.8328852831 61.9101299543 0
v 70.3366188286 63.7622215766 0
v 69.5262794416 65.5 0
v 68.4264888743 67.0706637066 0
v 67.0706637066 68.4264888743 0
v 65.5 69.5262794416 0
v 63.7622215766 70.3366188286 0
v 61.9101299543 70.8328852831 0
v 60 71 0
v 58.0898700457 70.8328852831 0
v 56.2377784234 70.3366188286 0
v 54.5 69.5262794416 0
v 52.9293362934 68.4264888743 0
v 51.5735111257 67.0706637066 0
v 50.4737205584 65.5 0
v 49.6633811714 63.7622215766 0
v 49.1671147169 61.9101299543 0
v 49 60 0
v 49.1671147169 58.0898700457 0
v 49.6633811714 56.2377784234 0
v 50.4737205584 54.5 0
v 51.5735111257 52.9293362934 0
v 52.9293362934 51.5735111257 0
v 54.5 50.4737205584 0
v 56.2377784234 49.6633811714 0
v 58.0898700457 49.1671147169 0
v 60 49 0
v 61.9101299543 49.1671147169 0
v 63.7622215766 49.6633811714 0
v 65.5 50.4737205584 0
v 67.0706637066 51.5735111257 0
v 68.4264888743 52.9293362934 0
v 69.5262794416 54.5 0
v 70.3366188286 56.2377784234 0
v 70.8328852831 58.0898700457 0
v 260 35 31
v 100 35 31
v 260 42 31
v 100 42 31
v 96 60 30
v 95.7044404976 64.6035778206 30
v 94.8226150694 69.1315650207 30
v 93.3690032645 73.5096121757 30
v 91.3674733484 77.6658318721 30
v 88.8508903872 81.5319790977 30
v 85.8605766035 85.0445718217 30
v 82.4456328669 88.1459333688 30
v 78.6621324592 90.7851394682 30
v 74.5722003524 92.9188544286 30
v 70.2429931187 94.5120427093 30
v 65.7455962212 95.5385442029 30
v 61.1538567926 95.9815037832 30
v 56.5431710673 95.8336480662 30
v 51.9892463776 95.0974048385 30
v 47.5668580408 93.7848631938 30
v 43.3486215513 91.9175750294 30
v 39.4038002356 89.5262011655 30
v 35.7971679506 86.6500078947 30
v 32.5879454987 83.3362222311 30
v 29.8288282239 79.6392564436 30
v 27.5651207555 75.6198146082 30
v 25.8339931076 71.3438958489 30
v 24.6638703483 66.8817106332 30
v 24.073965861 62.3065279193 30
v 24.073965861 57.6934720807 30
v 24.6638703483 53.1182893668 30
v 25.8339931076 48.6561041511 30
v 27.5651207555 44.3801853918 30
v 29.8288282239 40.3607435564 30
v 32.5879454987 36.6637777689 30
v 35.7971679506 33.3499921053 30
v 39.4038002356 30.4737988345 30
v 43.3486215513 28.0824249706 30
v 47.5668580408 26.2151368062 30
v 51.9892463776 24.9025951615 30
v 56.5431710673 24.1663519338 30
v 61.1538567926 24.0184962168 30
v 65.7455962212 24.4614557971 30
v 70.2429931187 25.4879572907 30
v 74.5722003524 27.0811455714 30
v 78.6621324592 29.2148605318 30
v 82.4456328669 31.8540666312 30
v 85.8605766035 34.9554281783 30
v 88.8508903872 38.4680209023 30
v 91.3674733484 42.3341681279 30
v 93.3690032645 46.4903878243 30
v 94.8226150694 50.8684349793 30
v 95.7044404976 55.3964221794 30
v 260 78 31
v 100 78 31
v 260 85 31
v 100 85 31
v 71 60 30
v 70.8328852831 61.9101299543 30
v 70.3366188286 63.7622215766 30
v 69.5262794416 65.5 30
v 68.4264888743 67.0706637066 30
v 67.0706637066 68.4264888743 30
v 65.5 69.5262794416 30
v 63.7622215766 70.3366188286 30
v 61.9101299543 70.8328852831 30
v 60 71 30
v 58.0898700457 70.8328852831 30
v 56.2377784234 70.3366188286 30
v 54.5 69.5262794416 30
v 52.9293362934 68.4264888743 30
v 51.5735111257 67.0706637066 30
v 50.4737205584 65.5 30
v 49.6633811714 63.7622215766 30
v 49.1671147169 61.9101299543 30
v 49 60 30
v 49.1671147169 58.0898700457 30
v 49.6633811714 56.2377784234 30
v 50.4737205584 54.5 30
v 51.5735111257 52.9293362934 30
v 52.9293362934 51.5735111257 30
v 54.5 50.4737205584 30
v 56.2377784234 49.6633811714 30
v 58.0898700457 49.1671147169 30
v 60 49 30
v 61.9101299543 49.1671147169 30
v 63.7622215766 49.6633811714 30
v 65.5 50.4737205584 30
v 67.0706637066 51.5735111257 30
v 68.4264888743 52.9293362934 30
v 69.5262794416 54.5 30
v 70.3366188286 56.2377784234 30
v 70.8328852831 58.0898700457 30
f 2 3 1
f 2 4 3
f 6 1 5
f 6 2 1
f 42 2 43
f 44 43 2
f 41 2 42
f 45 44 2
f 40 2 41
f 46 45 2
f 39 2 40
f 47 46 2
f 38 2 39
f 48 47 2
f 37 2 38
f 49 48 2
f 36 2 37
f 50 49 2
f 51 50 2
f 4 32 31
f 4 33 32
f 4 34 33
f 4 35 34
f 4 36 35
f 4 2 36
f 30 4 31
f 29 4 30
f 9 53 52
f 9 54 53
f 9 55 54
f 9 56 55
f 9 57 56
f 28 4 29
f 27 4 28
f 10 57 9
f 10 58 57
f 59 58 10
f 26 4 27
f 60 59 10
f 25 4 26
f 12 60 10
f 24 4 25
f 23 4 24
f 62 13 12
f 62 14 13
f 62 15 14
f 62 16 15
f 62 12 10
f 63 17 16
f 63 18 17
f 63 19 18
f 63 20 19
f 63 21 20
f 63 16 62
f 6 51 2
f 6 9 52
f 6 52 51
f 8 9 6
f 11 8 6
f 61 10 11
f 61 62 10
f 7 63 64
f 7 64 61
f 7 11 6
f 7 61 11
f 7 4 23
f 7 23 22
f 7 22 21
f 7 21 63
f 7 65 3
f 7 3 4
f 89 1 88
f 87 88 1
f 90 1 89
f 86 87 1
f 91 1 90
f 85 86 1
f 92 1 91
f 84 85 1
f 93 1 92
f 94 1 93
f 95 1 94
f 3 80 81
f 3 81 82
f 3 82 83
f 3 83 84
f 3 84 1
f 79 80 3
f 78 79 3
f 77 78 3
f 76 77 3
f 75 76 3
f 74 75 3
f 73 74 3
f 5 95 96
f 5 96 97
f 5 97 98
f 5 98 99
f 5 99 100
f 5 100 101
f 5 101 66
f 5 1 95
f 65 66 67
f 65 67 68
f 65 68 69
f 65 69 70
f 65 70 71
f 65 5 66
f 65 71 72
f 65 73 3
f 65 72 73
f 6 5 65
f 6 65 7
f 8 103 9
f 102 103 8
f 104 8 11
f 102 8 104
f 11 10 105
f 104 11 105
f 105 10 9
f 103 105 9
f 107 106 12
f 107 12 13
f 108 107 13
f 108 13 14
f 109 108 14
f 109 14 15
f 110 109 15
f 110 15 16
f 111 110 16
f 111 16 17
f 111 17 18
f 112 111 18
f 113 112 18
f 113 18 19
f 114 113 19
f 114 19 20
f 115 114 20
f 115 20 21
f 116 115 21
f 116 21 22
f 117 116 22
f 117 22 23
f 117 23 24
f 118 117 24
f 118 24 25
f 119 118 25
f 120 119 25
f 120 25 26
f 121 120 26
f 121 26 27
f 122 27 28
f 122 121 27
f 123 28 29
f 123 122 28
f 124 29 30
f 124 123 29
f 125 30 31
f 125 124 30
f 126 31 32
f 126 32 33
f 126 125 31
f 127 126 33
f 128 33 34
f 128 127 33
f 129 34 35
f 129 128 34
f 130 35 36
f 130 129 35
f 131 130 36
f 131 36 37
f 131 37 38
f 132 131 38
f 132 38 39
f 133 132 39
f 134 133 39
f 134 39 40
f 134 40 41
f 135 134 41
f 136 135 41
f 136 41 42
f 137 136 42
f 137 42 43
f 137 43 44
f 138 137 44
f 138 44 45
f 139 138 45
f 140 139 45
f 140 45 46
f 141 140 46
f 141 46 47
f 142 141 47
f 142 47 48
f 142 48 49
f 143 142 49
f 144 143 49
f 144 49 50
f 145 144 50
f 145 50 51
f 146 145 51
f 146 51 52
f 147 146 52
f 147 52 53
f 148 147 53
f 148 53 54
f 149 148 54
f 149 54 55
f 150 149 55
f 150 55 56
f 151 150 56
f 151 56 57
f 152 151 57
f 152 57 58
f 152 58 59
f 153 152 59
f 154 153 59
f 154 59 60
f 106 60 12
f 106 154 60
f 61 156 62
f 155 156 61
f 157 61 64
f 155 61 157
f 64 63 158
f 157 64 158
f 158 63 62
f 156 158 62
f 160 66 159
f 160 67 66
f 161 68 67
f 161 69 68
f 161 67 160
f 162 69 161
f 163 70 69
f 163 69 162
f 164 71 70
f 164 70 163
f 165 71 164
f 165 72 71
f 166 72 165
f 166 73 72
f 167 73 166
f 167 74 73
f 168 74 167
f 168 75 74
f 169 75 168
f 169 76 75
f 169 77 76
f 170 77 169
f 171 77 170
f 171 78 77
f 172 78 171
f 172 79 78
f 173 79 172
f 173 80 79
f 173 81 80
f 174 81 173
f 175 81 174
f 175 82 81
f 176 82 175
f 176 83 82
f 177 83 176
f 177 84 83
f 178 84 177
f 178 85 84
f 179 85 178
f 179 86 85
f 180 87 86
f 180 86 179
f 181 88 87
f 181 87 180
f 182 89 88
f 182 88 181
f 183 90 89
f 183 89 182
f 184 91 90
f 184 90 183
f 185 92 91
f 185 93 92
f 185 91 184
f 186 93 185
f 187 94 93
f 187 93 186
f 188 95 94
f 188 94 187
f 189 96 95
f 189 95 188
f 190 96 189
f 190 97 96
f 191 97 190
f 191 98 97
f 192 98 191
f 192 99 98
f 193 99 192
f 193 100 99
f 194 100 193
f 194 101 100
f 159 101 194
f 159 66 101
f 104 105 103
f 104 103 102
f 181 135 136
f 181 136 137
f 182 181 137
f 182 137 138
f 180 135 181
f 180 134 135
f 183 182 138
f 183 138 139
f 179 134 180
f 179 133 134
f 184 183 139
f 184 139 140
f 184 140 141
f 178 133 179
f 178 131 132
f 178 132 133
f 185 141 142
f 185 184 141
f 177 131 178
f 177 130 131
f 186 142 143
f 186 185 142
f 176 128 129
f 176 130 177
f 176 129 130
f 187 143 144
f 187 144 145
f 187 186 143
f 175 128 176
f 175 127 128
f 188 145 146
f 188 187 145
f 174 126 127
f 174 127 175
f 189 188 146
f 189 146 147
f 189 147 148
f 173 125 126
f 173 126 174
f 190 189 148
f 149 190 148
f 191 190 149
f 124 173 172
f 124 125 173
f 150 191 149
f 150 192 191
f 123 172 171
f 123 124 172
f 151 192 150
f 122 171 170
f 122 123 171
f 152 192 151
f 152 193 192
f 121 122 170
f 153 194 193
f 153 193 152
f 120 121 170
f 120 170 169
f 154 194 153
f 154 159 194
f 119 120 169
f 119 169 168
f 106 159 154
f 118 119 168
f 118 168 167
f 107 159 106
f 107 160 159
f 117 118 167
f 108 160 107
f 108 161 160
f 116 117 167
f 116 167 166
f 109 162 161
f 109 161 108
f 115 116 166
f 115 166 165
f 110 162 109
f 114 115 165
f 111 162 110
f 111 163 162
f 113 114 165
f 113 165 164
f 112 163 111
f 112 164 163
f 112 113 164
f 157 158 156
f 157 156 155
