# SimpleCAD BREP tessellation for MuJoCo
v 10.7238052948 9 10
v 8.998122538 10.7253806828 10
v 6.99905664265 12.1249002517 10
v 4.78734371298 13.156038164 10
v 2.43018054697 13.7874661381 10
v -0.00081695308254 13.9999999762 10
v -2.43178963227 13.7871824237 10
v -4.78887908979 13.1554793551 10
v -7.00047166279 12.1240833261 10
v -8.99937420998 10.7243304606 10
v -10.72485559 8.99874838931 10
v -12.1244918095 6.99976416463 10
v -13.155758782 4.78811140954 10
v -13.7873243044 2.43098509376 10
v -14 2.65835012704e-14 10
v -13.7873243044 -2.43098509376 10
v -13.155758782 -4.78811140954 10
v -12.1244918095 -6.99976416463 10
v -10.72485559 -8.99874838931 10
v -8.99937420998 -10.7243304606 10
v -7.00047166279 -12.1240833261 10
v -4.78887908979 -13.1554793551 10
v -2.43178963227 -13.7871824237 10
v -0.000816953082618 -13.9999999762 10
v 2.43018054697 -13.7874661381 10
v 4.78734371298 -13.156038164 10
v 6.99905664265 -12.1249002517 10
v 8.998122538 -10.7253806828 10
v 10.7238052948 -9 10
v 89.2761947052 -9 10
v 91.001877462 -10.7253806828 10
v 93.0009433574 -12.1249002517 10
v 95.212656287 -13.156038164 10
v 97.569819453 -13.7874661381 10
v 100.000816953 -13.9999999762 10
v 102.431789632 -13.7871824237 10
v 104.78887909 -13.1554793551 10
v 107.000471663 -12.1240833261 10
v 108.99937421 -10.7243304606 10
v 110.72485559 -8.99874838931 10
v 112.12449181 -6.99976416463 10
v 113.155758782 -4.78811140954 10
v 113.787324304 -2.43098509376 10
v 114 8.12954139268e-15 10
v 113.787324304 2.43098509376 10
v 113.155758782 4.78811140954 10
v 112.12449181 6.99976416463 10
v 110.72485559 8.99874838931 10
v 108.99937421 10.7243304606 10
v 107.000471663 12.1240833261 10
v 104.78887909 13.1554793551 10
v 102.431789632 13.7871824237 10
v 100.000816953 13.9999999762 10
v 97.569819453 13.7874661381 10
v 95.212656287 13.156038164 10
v 93.0009433574 12.1249002517 10
v 91.001877462 10.7253806828 10
v 89.2761947052 9 10
v 8 -1.95943487864e-15 10
v 7.8784620241 1.38918542134 10
v 7.51754096629 2.73616114661 10
v 6.92820323028 4 10
v 6.12835554495 5.14230087749 10
v 5.14230087749 6.12835554495 10
v 4 6.92820323028 10
v 2.73616114661 7.51754096629 10
v 1.38918542134 7.8784620241 10
v -4.83921179854e-15 8 10
v -1.38918542134 7.8784620241 10
v -2.73616114661 7.51754096629 10
v -4 6.92820323028 10
v -5.14230087749 6.12835554495 10
v -6.12835554495 5.14230087749 10
v -6.92820323028 4 10
v -7.51754096629 2.73616114661 10
v -7.8784620241 1.38918542134 10
v -8 -1.67838509547e-14 10
v -7.8784620241 -1.38918542134 10
v -7.51754096629 -2.73616114661 10
v -6.92820323028 -4 10
v -6.12835554495 -5.14230087749 10
v -5.14230087749 -6.12835554495 10
v -4 -6.92820323028 10
v -2.73616114661 -7.51754096629 10
v -1.38918542134 -7.8784620241 10
v 1.98467059138e-14 -8 10
v 1.38918542134 -7.8784620241 10
v 2.73616114661 -7.51754096629 10
v 4 -6.92820323028 10
v 5.14230087749 -6.12835554495 10
v 6.12835554495 -5.14230087749 10
v 6.92820323028 -4 10
v 7.51754096629 -2.73616114661 10
v 7.8784620241 -1.38918542134 10
v 108 -1.95943487864e-15 10
v 107.878462024 1.38918542134 10
v 107.517540966 2.73616114661 10
v 106.92820323 4 10
v 106.128355545 5.14230087749 10
v 105.142300877 6.12835554495 10
v 104 6.92820323028 10
v 102.736161147 7.51754096629 10
v 101.389185421 7.8784620241 10
v 100 8 10
v 98.6108145787 7.8784620241 10
v 97.2638388534 7.51754096629 10
v 96 6.92820323028 10
v 94.8576991225 6.12835554495 10
v 93.871644455 5.14230087749 10
v 93.0717967697 4 10
v 92.4824590337 2.73616114661 10
v 92.1215379759 1.38918542134 10
v 92 -1.67838509547e-14 10
v 92.1215379759 -1.38918542134 10
v 92.4824590337 -2.73616114661 10
v 93.0717967697 -4 10
v 93.871644455 -5.14230087749 10
v 94.8576991225 -6.12835554495 10
v 96 -6.92820323028 10
v 97.2638388534 -7.51754096629 10
v 98.6108145787 -7.8784620241 10
v 100 -8 10
v 101.389185421 -7.8784620241 10
v 102.736161147 -7.51754096629 10
v 104 -6.92820323028 10
v 105.142300877 -6.12835554495 10
v 106.128355545 -5.14230087749 10
v 106.92820323 -4 10
v 107.517540966 -2.73616114661 10
v 107.878462024 -1.38918542134 10
v 10.7238052948 9 0
v 8.998122538 10.7253806828 0
v 6.99905664265 12.1249002517 0
v 4.78734371298 13.156038164 0
v 2.43018054697 13.7874661381 0
v -0.00081695308254 13.9999999762 0
v -2.43178963227 13.7871824237 0
v -4.78887908979 13.1554793551 0
v -7.00047166279 12.1240833261 0
v -8.99937420998 10.7243304606 0
v -10.72485559 8.99874838931 0
v -12.1244918095 6.99976416463 0
v -13.155758782 4.78811140954 0
v -13.7873243044 2.43098509376 0
v -14 2.65835012704e-14 0
v -13.7873243044 -2.43098509376 0
v -13.155758782 -4.78811140954 0
v -12.1244918095 -6.99976416463 0
v -10.72485559 -8.99874838931 0
v -8.99937420998 -10.7243304606 0
v -7.00047166279 -12.1240833261 0
v -4.78887908979 -13.1554793551 0
v -2.43178963227 -13.7871824237 0
v -0.000816953082618 -13.9999999762 0
v 2.43018054697 -13.7874661381 0
v 4.78734371298 -13.156038164 0
v 6.99905664265 -12.1249002517 0
v 8.998122538 -10.7253806828 0
v 10.7238052948 -9 0
v 89.2761947052 9 0
v 89.2761947052 -9 0
v 91.001877462 10.7253806828 0
v 93.0009433574 12.1249002517 0
v 95.212656287 13.156038164 0
v 97.569819453 13.7874661381 0
v 100.000816953 13.9999999762 0
v 102.431789632 13.7871824237 0
v 104.78887909 13.1554793551 0
v 107.000471663 12.1240833261 0
v 108.99937421 10.7243304606 0
v 110.72485559 8.99874838931 0
v 112.12449181 6.99976416463 0
v 113.155758782 4.78811140954 0
v 113.787324304 2.43098509376 0
v 114 -1.13988829223e-14 0
v 113.787324304 -2.43098509376 0
v 113.155758782 -4.78811140954 0
v 112.12449181 -6.99976416463 0
v 110.72485559 -8.99874838931 0
v 108.99937421 -10.7243304606 0
v 107.000471663 -12.1240833261 0
v 104.78887909 -13.1554793551 0
v 102.431789632 -13.7871824237 0
v 100.000816953 -13.9999999762 0
v 97.569819453 -13.7874661381 0
v 95.212656287 -13.156038164 0
v 93.0009433574 -12.1249002517 0
v 91.001877462 -10.7253806828 0
v 8 -1.95943487864e-15 0
v 7.8784620241 1.38918542134 0
v 7.51754096629 2.73616114661 0
v 6.92820323028 4 0
v 6.12835554495 5.14230087749 0
v 5.14230087749 6.12835554495 0
v 4 6.92820323028 0
v 2.73616114661 7.51754096629 0
v 1.38918542134 7.8784620241 0
v -4.83921179854e-15 8 0
v -1.38918542134 7.8784620241 0
v -2.73616114661 7.51754096629 0
v -4 6.92820323028 0
v -5.14230087749 6.12835554495 0
v -6.12835554495 5.14230087749 0
v -6.92820323028 4 0
v -7.51754096629 2.73616114661 0
v -7.8784620241 1.38918542134 0
v -8 -1.67838509547e-14 0
v -7.8784620241 -1.38918542134 0
v -7.51754096629 -2.73616114661 0
v -6.92820323028 -4 0
v -6.12835554495 -5.14230087749 0
v -5.14230087749 -6.12835554495 0
v -4 -6.92820323028 0
v -2.73616114661 -7.51754096629 0
v -1.38918542134 -7.8784620241 0
v 1.98467059138e-14 -8 0
v 1.38918542134 -7.8784620241 0
v 2.73616114661 -7.51754096629 0
v 4 -6.92820323028 0
v 5.14230087749 -6.12835554495 0
v 6.12835554495 -5.14230087749 0
v 6.92820323028 -4 0
v 7.51754096629 -2.73616114661 0
v 7.8784620241 -1.38918542134 0
v 108 -1.95943487864e-15 0
v 107.878462024 1.38918542134 0
v 107.517540966 2.73616114661 0
v 106.92820323 4 0
v 106.128355545 5.14230087749 0
v 105.142300877 6.12835554495 0
v 104 6.92820323028 0
v 102.736161147 7.51754096629 0
v 101.389185421 7.8784620241 0
v 100 8 0
v 98.6108145787 7.8784620241 0
v 97.2638388534 7.51754096629 0
v 96 6.92820323028 0
v 94.8576991225 6.12835554495 0
v 93.871644455 5.14230087749 0
v 93.0717967697 4 0
v 92.4824590337 2.73616114661 0
v 92.1215379759 1.38918542134 0
v 92 -1.67838509547e-14 0
v 92.1215379759 -1.38918542134 0
v 92.4824590337 -2.73616114661 0
v 93.0717967697 -4 0
v 93.871644455 -5.14230087749 0
v 94.8576991225 -6.12835554495 0
v 96 -6.92820323028 0
v 97.2638388534 -7.51754096629 0
v 98.6108145787 -7.8784620241 0
v 100 -8 0
v 101.389185421 -7.8784620241 0
v 102.736161147 -7.51754096629 0
v 104 -6.92820323028 0
v 105.142300877 -6.12835554495 0
v 106.128355545 -5.14230087749 0
v 106.92820323 -4 0
v 107.517540966 -2.73616114661 0
v 107.878462024 -1.38918542134 0
f 81 19 20
f 82 20 21
f 82 81 20
f 80 18 19
f 80 19 81
f 83 21 22
f 83 82 21
f 79 17 18
f 79 18 80
f 84 22 23
f 84 83 22
f 78 16 17
f 78 17 79
f 85 23 24
f 85 84 23
f 77 14 15
f 77 15 16
f 77 16 78
f 86 24 25
f 86 85 24
f 76 13 14
f 76 14 77
f 87 25 26
f 87 86 25
f 75 12 13
f 75 13 76
f 88 26 27
f 88 87 26
f 74 12 75
f 89 88 27
f 28 89 27
f 11 12 74
f 73 11 74
f 90 89 28
f 29 90 28
f 29 91 90
f 10 11 73
f 10 73 72
f 92 91 29
f 93 92 29
f 9 72 71
f 9 10 72
f 94 93 29
f 59 94 29
f 8 9 71
f 8 71 70
f 7 8 70
f 7 70 69
f 6 7 69
f 6 69 68
f 5 6 68
f 5 68 67
f 4 5 67
f 4 67 66
f 3 4 66
f 3 66 65
f 2 3 65
f 2 65 64
f 1 59 29
f 1 60 59
f 1 2 64
f 1 61 60
f 1 62 61
f 1 63 62
f 1 64 63
f 118 30 31
f 118 117 30
f 116 30 117
f 119 31 32
f 119 118 31
f 115 30 116
f 120 32 33
f 120 119 32
f 114 30 115
f 121 33 34
f 121 120 33
f 113 30 114
f 122 34 35
f 122 121 34
f 123 35 36
f 123 122 35
f 124 36 37
f 124 123 36
f 125 124 37
f 125 37 38
f 58 111 110
f 58 112 111
f 58 113 112
f 58 29 30
f 58 1 29
f 58 30 113
f 109 58 110
f 126 38 39
f 126 125 38
f 108 58 109
f 127 126 39
f 40 127 39
f 57 58 108
f 107 57 108
f 128 127 40
f 41 129 128
f 41 128 40
f 56 107 106
f 56 57 107
f 42 130 129
f 42 129 41
f 55 106 105
f 55 56 106
f 43 130 42
f 43 95 130
f 54 105 104
f 54 55 105
f 44 95 43
f 53 104 103
f 53 54 104
f 45 95 44
f 45 96 95
f 52 103 102
f 52 53 103
f 46 96 45
f 46 97 96
f 51 102 101
f 51 52 102
f 47 97 46
f 47 98 97
f 50 51 101
f 50 101 100
f 48 98 47
f 48 99 98
f 49 50 100
f 49 99 48
f 49 100 99
f 1 131 132
f 2 1 132
f 3 132 133
f 3 2 132
f 4 133 134
f 4 134 135
f 4 3 133
f 5 4 135
f 6 135 136
f 6 136 137
f 6 5 135
f 7 6 137
f 8 137 138
f 8 7 137
f 9 138 139
f 9 8 138
f 10 139 140
f 10 9 139
f 11 10 140
f 11 140 141
f 11 141 142
f 12 11 142
f 13 12 142
f 13 142 143
f 14 13 143
f 14 143 144
f 15 14 144
f 15 144 145
f 15 145 146
f 16 15 146
f 17 16 146
f 17 146 147
f 17 147 148
f 18 17 148
f 19 18 148
f 19 148 149
f 20 19 149
f 20 149 150
f 21 20 150
f 21 150 151
f 22 21 151
f 22 151 152
f 23 152 153
f 23 22 152
f 24 23 153
f 24 153 154
f 25 154 155
f 25 155 156
f 25 24 154
f 26 25 156
f 27 156 157
f 27 26 156
f 28 157 158
f 28 27 157
f 29 158 159
f 29 28 158
f 160 131 1
f 58 160 1
f 161 29 159
f 30 29 161
f 31 30 161
f 31 161 188
f 32 187 186
f 32 188 187
f 32 31 188
f 33 186 185
f 33 32 186
f 34 185 184
f 34 33 185
f 35 184 183
f 35 34 184
f 36 35 183
f 37 182 181
f 37 183 182
f 37 36 183
f 38 181 180
f 38 37 181
f 39 180 179
f 39 38 180
f 40 39 179
f 41 40 179
f 41 178 177
f 41 179 178
f 42 41 177
f 42 177 176
f 43 42 176
f 43 176 175
f 44 43 175
f 45 44 175
f 45 174 173
f 45 175 174
f 46 45 173
f 47 46 173
f 47 173 172
f 48 47 172
f 48 172 171
f 49 171 170
f 49 48 171
f 50 169 168
f 50 170 169
f 50 49 170
f 51 50 168
f 52 168 167
f 52 51 168
f 53 166 165
f 53 167 166
f 53 52 167
f 54 53 165
f 55 164 163
f 55 165 164
f 55 54 165
f 56 55 163
f 57 163 162
f 57 56 163
f 58 162 160
f 58 57 162
f 59 190 189
f 60 190 59
f 61 191 190
f 61 190 60
f 62 192 191
f 62 191 61
f 63 193 192
f 63 192 62
f 64 194 193
f 64 193 63
f 65 195 194
f 65 194 64
f 66 195 65
f 66 196 195
f 67 196 66
f 67 197 196
f 68 197 67
f 68 198 197
f 69 198 68
f 69 199 198
f 69 200 199
f 70 200 69
f 71 200 70
f 71 201 200
f 71 202 201
f 72 202 71
f 72 203 202
f 73 203 72
f 74 203 73
f 74 204 203
f 75 204 74
f 75 205 204
f 76 205 75
f 76 206 205
f 76 207 206
f 77 207 76
f 78 208 207
f 78 207 77
f 79 209 208
f 79 208 78
f 79 210 209
f 80 211 210
f 80 210 79
f 81 212 211
f 81 211 80
f 82 212 81
f 83 213 212
f 83 214 213
f 83 212 82
f 84 214 83
f 85 215 214
f 85 214 84
f 86 216 215
f 86 217 216
f 86 215 85
f 87 217 86
f 88 218 217
f 88 217 87
f 89 219 218
f 89 218 88
f 90 219 89
f 90 220 219
f 91 220 90
f 91 221 220
f 92 221 91
f 92 222 221
f 92 223 222
f 93 223 92
f 94 223 93
f 94 224 223
f 59 224 94
f 59 189 224
f 95 226 225
f 96 226 95
f 97 227 226
f 97 226 96
f 98 228 227
f 98 227 97
f 99 229 228
f 99 228 98
f 100 230 229
f 100 229 99
f 101 231 230
f 101 230 100
f 102 231 101
f 102 232 231
f 103 232 102
f 103 233 232
f 104 233 103
f 104 234 233
f 105 234 104
f 105 235 234
f 105 236 235
f 106 236 105
f 107 236 106
f 107 237 236
f 107 238 237
f 108 238 107
f 108 239 238
f 109 239 108
f 110 239 109
f 110 240 239
f 111 240 110
f 111 241 240
f 112 241 111
f 112 242 241
f 112 243 242
f 113 243 112
f 114 244 243
f 114 243 113
f 115 245 244
f 115 244 114
f 115 246 245
f 116 247 246
f 116 246 115
f 117 248 247
f 117 247 116
f 118 248 117
f 119 249 248
f 119 250 249
f 119 248 118
f 120 250 119
f 121 251 250
f 121 250 120
f 122 252 251
f 122 253 252
f 122 251 121
f 123 253 122
f 124 254 253
f 124 253 123
f 125 255 254
f 125 254 124
f 126 255 125
f 126 256 255
f 127 256 126
f 127 257 256
f 128 257 127
f 128 258 257
f 128 259 258
f 129 259 128
f 130 259 129
f 130 260 259
f 95 260 130
f 95 225 260
f 211 150 149
f 212 151 150
f 212 150 211
f 210 149 148
f 210 211 149
f 213 152 151
f 213 151 212
f 209 148 147
f 209 210 148
f 214 153 152
f 214 152 213
f 208 147 146
f 208 209 147
f 215 154 153
f 215 153 214
f 207 145 144
f 207 146 145
f 207 208 146
f 216 155 154
f 216 154 215
f 206 144 143
f 206 207 144
f 217 156 155
f 217 155 216
f 205 143 142
f 205 206 143
f 218 157 156
f 218 156 217
f 204 205 142
f 219 157 218
f 158 157 219
f 141 204 142
f 203 204 141
f 220 158 219
f 159 158 220
f 159 220 221
f 140 203 141
f 140 202 203
f 222 159 221
f 223 159 222
f 139 202 140
f 139 201 202
f 224 159 223
f 189 159 224
f 138 201 139
f 138 200 201
f 137 200 138
f 137 199 200
f 136 199 137
f 136 198 199
f 135 198 136
f 135 197 198
f 134 197 135
f 134 196 197
f 133 196 134
f 133 195 196
f 132 195 133
f 132 194 195
f 131 159 189
f 131 189 190
f 131 194 132
f 131 190 191
f 131 191 192
f 131 192 193
f 131 193 194
f 248 188 161
f 247 248 161
f 246 247 161
f 249 187 188
f 249 188 248
f 245 246 161
f 250 186 187
f 250 187 249
f 244 245 161
f 251 185 186
f 251 186 250
f 243 244 161
f 252 184 185
f 252 185 251
f 253 183 184
f 253 184 252
f 254 182 183
f 254 183 253
f 255 182 254
f 255 181 182
f 160 240 241
f 160 241 242
f 160 242 243
f 160 161 159
f 160 159 131
f 160 243 161
f 239 240 160
f 256 181 255
f 256 180 181
f 238 239 160
f 257 180 256
f 179 180 257
f 162 238 160
f 237 238 162
f 258 179 257
f 178 258 259
f 178 179 258
f 163 236 237
f 163 237 162
f 177 259 260
f 177 178 259
f 164 235 236
f 164 236 163
f 176 177 260
f 176 260 225
f 165 234 235
f 165 235 164
f 175 176 225
f 166 233 234
f 166 234 165
f 174 175 225
f 174 225 226
f 167 232 233
f 167 233 166
f 173 174 226
f 173 226 227
f 168 231 232
f 168 232 167
f 172 173 227
f 172 227 228
f 169 231 168
f 169 230 231
f 171 172 228
f 171 228 229
f 170 230 169
f 170 171 229
f 170 229 230
