# SimpleCAD BREP tessellation for MuJoCo
v -28 -103 287
v -28 -102.5 287
v -28 -103 232
v -28 -76 232
v -28 -76 287
v -28 -76.5 287
v -28 -76.5 287.5
v -28 -102.5 287.5
v -27.5 -103 287
v -25 -103 232
v -25 -103 236
v -27.5 -103 287.5
v 27.5 -103 287.5
v 27.5 -103 287
v 28 -103 287
v 28 -103 232
v 25 -103 232
v 25 -103 236
v 17 -103 236
v 17 -103 244
v 25 -103 244
v 25 -103 276
v 17 -103 276
v 17 -103 284
v 25 -103 284
v 25 -103 285.5
v -25 -103 285.5
v -25 -103 284
v -17 -103 284
v -17 -103 276
v -25 -103 276
v -25 -103 244
v -17 -103 244
v -17 -103 236
v -20 -103 242.3
v -19.8413203679 -103 242.294519726
v -19.6833969164 -103 242.278105021
v -19.5269822229 -103 242.250834108
v -19.3728216745 -103 242.212836946
v -19.2216499164 -103 242.164294607
v -19.0741873509 -103 242.10543842
v -18.9311367043 -103 242.036548859
v -18.7931796781 -103 241.957954216
v -18.6609737002 -103 241.870029029
v -18.5351487925 -103 241.773192302
v -18.4163045679 -103 241.667905506
v -18.3050073732 -103 241.554670382
v -18.2017875903 -103 241.434026544
v -18.1071371084 -103 241.306548917
v -18.0215069802 -103 241.17284499
v -17.9453052723 -103 241.033551922
v -17.8788951204 -103 240.889333509
v -17.8225929992 -103 240.740877016
v -17.776667214 -103 240.588889907
v -17.741336622 -103 240.43409647
v -17.7167695896 -103 240.277234365
v -17.7030831898 -103 240.119051112
v -17.7003426447 -103 239.960300526
v -17.7085610141 -103 239.801739126
v -17.7276991338 -103 239.64412253
v -17.757665802 -103 239.488201852
v -17.7983182137 -103 239.334720125
v -17.8494626418 -103 239.18440876
v -17.9108553598 -103 239.037984058
v -17.9822038033 -103 238.896143801
v -18.0631679647 -103 238.759563921
v -18.1533620127 -103 238.628895283
v -18.2523561317 -103 238.504760585
v -18.3596785695 -103 238.387751382
v -18.474817886 -103 238.278425279
v -18.5972253899 -103 238.177303264
v -18.7263177536 -103 238.084867228
v -18.8614797932 -103 238.001557672
v -19.0020674 -103 237.927771604
v -19.1474106102 -103 237.863860648
v -19.2968167971 -103 237.810129368
v -19.4495739721 -103 237.76683382
v -19.6049541779 -103 237.734180325
v -19.7622169569 -103 237.712324493
v -19.9206128804 -103 237.701370477
v -20.0793871196 -103 237.701370477
v -20.2377830431 -103 237.712324493
v -20.3950458221 -103 237.734180325
v -20.5504260279 -103 237.76683382
v -20.7031832029 -103 237.810129368
v -20.8525893898 -103 237.863860648
v -20.9979326 -103 237.927771604
v -21.1385202068 -103 238.001557672
v -21.2736822464 -103 238.084867228
v -21.4027746101 -103 238.177303264
v -21.525182114 -103 238.278425279
v -21.6403214305 -103 238.387751382
v -21.7476438683 -103 238.504760585
v -21.8466379873 -103 238.628895283
v -21.9368320353 -103 238.759563921
v -22.0177961967 -103 238.896143801
v -22.0891446402 -103 239.037984058
v -22.1505373582 -103 239.18440876
v -22.2016817863 -103 239.334720125
v -22.242334198 -103 239.488201852
v -22.2723008662 -103 239.64412253
v -22.2914389859 -103 239.801739126
v -22.2996573553 -103 239.960300526
v -22.2969168102 -103 240.119051112
v -22.2832304104 -103 240.277234365
v -22.258663378 -103 240.43409647
v -22.223332786 -103 240.588889907
v -22.1774070008 -103 240.740877016
v -22.1211048796 -103 240.889333509
v -22.0546947277 -103 241.033551922
v -21.9784930198 -103 241.17284499
v -21.8928628916 -103 241.306548917
v -21.7982124097 -103 241.434026544
v -21.6949926268 -103 241.554670382
v -21.5836954321 -103 241.667905506
v -21.4648512075 -103 241.773192302
v -21.3390262998 -103 241.870029029
v -21.2068203219 -103 241.957954216
v -21.0688632957 -103 242.036548859
v -20.9258126491 -103 242.10543842
v -20.7783500836 -103 242.164294607
v -20.6271783255 -103 242.212836946
v -20.4730177771 -103 242.250834108
v -20.3166030836 -103 242.278105021
v -20.1586796321 -103 242.294519726
v -20 -103 282.3
v -19.8413203679 -103 282.294519726
v -19.6833969164 -103 282.278105021
v -19.5269822229 -103 282.250834108
v -19.3728216745 -103 282.212836946
v -19.2216499164 -103 282.164294607
v -19.0741873509 -103 282.10543842
v -18.9311367043 -103 282.036548859
v -18.7931796781 -103 281.957954216
v -18.6609737002 -103 281.870029029
v -18.5351487925 -103 281.773192302
v -18.4163045679 -103 281.667905506
v -18.3050073732 -103 281.554670382
v -18.2017875903 -103 281.434026544
v -18.1071371084 -103 281.306548917
v -18.0215069802 -103 281.17284499
v -17.9453052723 -103 281.033551922
v -17.8788951204 -103 280.889333509
v -17.8225929992 -103 280.740877016
v -17.776667214 -103 280.588889907
v -17.741336622 -103 280.43409647
v -17.7167695896 -103 280.277234365
v -17.7030831898 -103 280.119051112
v -17.7003426447 -103 279.960300526
v -17.7085610141 -103 279.801739126
v -17.7276991338 -103 279.64412253
v -17.757665802 -103 279.488201852
v -17.7983182137 -103 279.334720125
v -17.8494626418 -103 279.18440876
v -17.9108553598 -103 279.037984058
v -17.9822038033 -103 278.896143801
v -18.0631679647 -103 278.759563921
v -18.1533620127 -103 278.628895283
v -18.2523561317 -103 278.504760585
v -18.3596785695 -103 278.387751382
v -18.474817886 -103 278.278425279
v -18.5972253899 -103 278.177303264
v -18.7263177536 -103 278.084867228
v -18.8614797932 -103 278.001557672
v -19.0020674 -103 277.927771604
v -19.1474106102 -103 277.863860648
v -19.2968167971 -103 277.810129368
v -19.4495739721 -103 277.76683382
v -19.6049541779 -103 277.734180325
v -19.7622169569 -103 277.712324493
v -19.9206128804 -103 277.701370477
v -20.0793871196 -103 277.701370477
v -20.2377830431 -103 277.712324493
v -20.3950458221 -103 277.734180325
v -20.5504260279 -103 277.76683382
v -20.7031832029 -103 277.810129368
v -20.8525893898 -103 277.863860648
v -20.9979326 -103 277.927771604
v -21.1385202068 -103 278.001557672
v -21.2736822464 -103 278.084867228
v -21.4027746101 -103 278.177303264
v -21.525182114 -103 278.278425279
v -21.6403214305 -103 278.387751382
v -21.7476438683 -103 278.504760585
v -21.8466379873 -103 278.628895283
v -21.9368320353 -103 278.759563921
v -22.0177961967 -103 278.896143801
v -22.0891446402 -103 279.037984058
v -22.1505373582 -103 279.18440876
v -22.2016817863 -103 279.334720125
v -22.242334198 -103 279.488201852
v -22.2723008662 -103 279.64412253
v -22.2914389859 -103 279.801739126
v -22.2996573553 -103 279.960300526
v -22.2969168102 -103 280.119051112
v -22.2832304104 -103 280.277234365
v -22.258663378 -103 280.43409647
v -22.223332786 -103 280.588889907
v -22.1774070008 -103 280.740877016
v -22.1211048796 -103 280.889333509
v -22.0546947277 -103 281.033551922
v -21.9784930198 -103 281.17284499
v -21.8928628916 -103 281.306548917
v -21.7982124097 -103 281.434026544
v -21.6949926268 -103 281.554670382
v -21.5836954321 -103 281.667905506
v -21.4648512075 -103 281.773192302
v -21.3390262998 -103 281.870029029
v -21.2068203219 -103 281.957954216
v -21.0688632957 -103 282.036548859
v -20.9258126491 -103 282.10543842
v -20.7783500836 -103 282.164294607
v -20.6271783255 -103 282.212836946
v -20.4730177771 -103 282.250834108
v -20.3166030836 -103 282.278105021
v -20.1586796321 -103 282.294519726
v 20 -103 242.3
v 20.1586796321 -103 242.294519726
v 20.3166030836 -103 242.278105021
v 20.4730177771 -103 242.250834108
v 20.6271783255 -103 242.212836946
v 20.7783500836 -103 242.164294607
v 20.9258126491 -103 242.10543842
v 21.0688632957 -103 242.036548859
v 21.2068203219 -103 241.957954216
v 21.3390262998 -103 241.870029029
v 21.4648512075 -103 241.773192302
v 21.5836954321 -103 241.667905506
v 21.6949926268 -103 241.554670382
v 21.7982124097 -103 241.434026544
v 21.8928628916 -103 241.306548917
v 21.9784930198 -103 241.17284499
v 22.0546947277 -103 241.033551922
v 22.1211048796 -103 240.889333509
v 22.1774070008 -103 240.740877016
v 22.223332786 -103 240.588889907
v 22.258663378 -103 240.43409647
v 22.2832304104 -103 240.277234365
v 22.2969168102 -103 240.119051112
v 22.2996573553 -103 239.960300526
v 22.2914389859 -103 239.801739126
v 22.2723008662 -103 239.64412253
v 22.242334198 -103 239.488201852
v 22.2016817863 -103 239.334720125
v 22.1505373582 -103 239.18440876
v 22.0891446402 -103 239.037984058
v 22.0177961967 -103 238.896143801
v 21.9368320353 -103 238.759563921
v 21.8466379873 -103 238.628895283
v 21.7476438683 -103 238.504760585
v 21.6403214305 -103 238.387751382
v 21.525182114 -103 238.278425279
v 21.4027746101 -103 238.177303264
v 21.2736822464 -103 238.084867228
v 21.1385202068 -103 238.001557672
v 20.9979326 -103 237.927771604
v 20.8525893898 -103 237.863860648
v 20.7031832029 -103 237.810129368
v 20.5504260279 -103 237.76683382
v 20.3950458221 -103 237.734180325
v 20.2377830431 -103 237.712324493
v 20.0793871196 -103 237.701370477
v 19.9206128804 -103 237.701370477
v 19.7622169569 -103 237.712324493
v 19.6049541779 -103 237.734180325
v 19.4495739721 -103 237.76683382
v 19.2968167971 -103 237.810129368
v 19.1474106102 -103 237.863860648
v 19.0020674 -103 237.927771604
v 18.8614797932 -103 238.001557672
v 18.7263177536 -103 238.084867228
v 18.5972253899 -103 238.177303264
v 18.474817886 -103 238.278425279
v 18.3596785695 -103 238.387751382
v 18.2523561317 -103 238.504760585
v 18.1533620127 -103 238.628895283
v 18.0631679647 -103 238.759563921
v 17.9822038033 -103 238.896143801
v 17.9108553598 -103 239.037984058
v 17.8494626418 -103 239.18440876
v 17.7983182137 -103 239.334720125
v 17.757665802 -103 239.488201852
v 17.7276991338 -103 239.64412253
v 17.7085610141 -103 239.801739126
v 17.7003426447 -103 239.960300526
v 17.7030831898 -103 240.119051112
v 17.7167695896 -103 240.277234365
v 17.741336622 -103 240.43409647
v 17.776667214 -103 240.588889907
v 17.8225929992 -103 240.740877016
v 17.8788951204 -103 240.889333509
v 17.9453052723 -103 241.033551922
v 18.0215069802 -103 241.17284499
v 18.1071371084 -103 241.306548917
v 18.2017875903 -103 241.434026544
v 18.3050073732 -103 241.554670382
v 18.4163045679 -103 241.667905506
v 18.5351487925 -103 241.773192302
v 18.6609737002 -103 241.870029029
v 18.7931796781 -103 241.957954216
v 18.9311367043 -103 242.036548859
v 19.0741873509 -103 242.10543842
v 19.2216499164 -103 242.164294607
v 19.3728216745 -103 242.212836946
v 19.5269822229 -103 242.250834108
v 19.6833969164 -103 242.278105021
v 19.8413203679 -103 242.294519726
v 20 -103 282.3
v 20.1586796321 -103 282.294519726
v 20.3166030836 -103 282.278105021
v 20.4730177771 -103 282.250834108
v 20.6271783255 -103 282.212836946
v 20.7783500836 -103 282.164294607
v 20.9258126491 -103 282.10543842
v 21.0688632957 -103 282.036548859
v 21.2068203219 -103 281.957954216
v 21.3390262998 -103 281.870029029
v 21.4648512075 -103 281.773192302
v 21.5836954321 -103 281.667905506
v 21.6949926268 -103 281.554670382
v 21.7982124097 -103 281.434026544
v 21.8928628916 -103 281.306548917
v 21.9784930198 -103 281.17284499
v 22.0546947277 -103 281.033551922
v 22.1211048796 -103 280.889333509
v 22.1774070008 -103 280.740877016
v 22.223332786 -103 280.588889907
v 22.258663378 -103 280.43409647
v 22.2832304104 -103 280.277234365
v 22.2969168102 -103 280.119051112
v 22.2996573553 -103 279.960300526
v 22.2914389859 -103 279.801739126
v 22.2723008662 -103 279.64412253
v 22.242334198 -103 279.488201852
v 22.2016817863 -103 279.334720125
v 22.1505373582 -103 279.18440876
v 22.0891446402 -103 279.037984058
v 22.0177961967 -103 278.896143801
v 21.9368320353 -103 278.759563921
v 21.8466379873 -103 278.628895283
v 21.7476438683 -103 278.504760585
v 21.6403214305 -103 278.387751382
v 21.525182114 -103 278.278425279
v 21.4027746101 -103 278.177303264
v 21.2736822464 -103 278.084867228
v 21.1385202068 -103 278.001557672
v 20.9979326 -103 277.927771604
v 20.8525893898 -103 277.863860648
v 20.7031832029 -103 277.810129368
v 20.5504260279 -103 277.76683382
v 20.3950458221 -103 277.734180325
v 20.2377830431 -103 277.712324493
v 20.0793871196 -103 277.701370477
v 19.9206128804 -103 277.701370477
v 19.7622169569 -103 277.712324493
v 19.6049541779 -103 277.734180325
v 19.4495739721 -103 277.76683382
v 19.2968167971 -103 277.810129368
v 19.1474106102 -103 277.863860648
v 19.0020674 -103 277.927771604
v 18.8614797932 -103 278.001557672
v 18.7263177536 -103 278.084867228
v 18.5972253899 -103 278.177303264
v 18.474817886 -103 278.278425279
v 18.3596785695 -103 278.387751382
v 18.2523561317 -103 278.504760585
v 18.1533620127 -103 278.628895283
v 18.0631679647 -103 278.759563921
v 17.9822038033 -103 278.896143801
v 17.9108553598 -103 279.037984058
v 17.8494626418 -103 279.18440876
v 17.7983182137 -103 279.334720125
v 17.757665802 -103 279.488201852
v 17.7276991338 -103 279.64412253
v 17.7085610141 -103 279.801739126
v 17.7003426447 -103 279.960300526
v 17.7030831898 -103 280.119051112
v 17.7167695896 -103 280.277234365
v 17.741336622 -103 280.43409647
v 17.776667214 -103 280.588889907
v 17.8225929992 -103 280.740877016
v 17.8788951204 -103 280.889333509
v 17.9453052723 -103 281.033551922
v 18.0215069802 -103 281.17284499
v 18.1071371084 -103 281.306548917
v 18.2017875903 -103 281.434026544
v 18.3050073732 -103 281.554670382
v 18.4163045679 -103 281.667905506
v 18.5351487925 -103 281.773192302
v 18.6609737002 -103 281.870029029
v 18.7931796781 -103 281.957954216
v 18.9311367043 -103 282.036548859
v 19.0741873509 -103 282.10543842
v 19.2216499164 -103 282.164294607
v 19.3728216745 -103 282.212836946
v 19.5269822229 -103 282.250834108
v 19.6833969164 -103 282.278105021
v 19.8413203679 -103 282.294519726
v -25 -76 232
v -25 -76 285.5
v -27.5 -76 287
v -27.5 -76 287.5
v 27.5 -76 287.5
v 27.5 -76 287
v 28 -76 287
v 28 -76 232
v 25 -76 232
v 25 -76 285.5
v -27.5 -102.5 288
v -27.5 -76.5 288
v -25 -76.5 285
v -25 -102.5 285
v -25 -100 284
v -25 -100 276
v -25 -100 244
v -25 -100 236
v -17 -100 236
v -17 -100 244
v 27.5 -102.5 288
v -17 -100 276
v 28 -102.5 287
v 28 -102.5 287.5
v -17 -100 284
v 28 -76.5 287
v 28 -76.5 287.5
v 25 -102.5 285
v 25 -76.5 285
v 25 -100 284
v 25 -100 276
v 25 -100 244
v 25 -100 236
v 17 -100 236
v 17 -100 284
v 17 -100 244
v 17 -100 276
v -20 -100 242.3
v -19.8413203679 -100 242.294519726
v -19.6833969164 -100 242.278105021
v -19.5269822229 -100 242.250834108
v -19.3728216745 -100 242.212836946
v -19.2216499164 -100 242.164294607
v -19.0741873509 -100 242.10543842
v -18.9311367043 -100 242.036548859
v -18.7931796781 -100 241.957954216
v -18.6609737002 -100 241.870029029
v -18.5351487925 -100 241.773192302
v -18.4163045679 -100 241.667905506
v -18.3050073732 -100 241.554670382
v -18.2017875903 -100 241.434026544
v -18.1071371084 -100 241.306548917
v -18.0215069802 -100 241.17284499
v -17.9453052723 -100 241.033551922
v -17.8788951204 -100 240.889333509
v -17.8225929992 -100 240.740877016
v -17.776667214 -100 240.588889907
v -17.741336622 -100 240.43409647
v -17.7167695896 -100 240.277234365
v -17.7030831898 -100 240.119051112
v -17.7003426447 -100 239.960300526
v -17.7085610141 -100 239.801739126
v -17.7276991338 -100 239.64412253
v -17.757665802 -100 239.488201852
v -17.7983182137 -100 239.334720125
v -17.8494626418 -100 239.18440876
v -17.9108553598 -100 239.037984058
v -17.9822038033 -100 238.896143801
v -18.0631679647 -100 238.759563921
v -18.1533620127 -100 238.628895283
v -18.2523561317 -100 238.504760585
v -18.3596785695 -100 238.387751382
v -18.474817886 -100 238.278425279
v -18.5972253899 -100 238.177303264
v -18.7263177536 -100 238.084867228
v -18.8614797932 -100 238.001557672
v -19.0020674 -100 237.927771604
v -19.1474106102 -100 237.863860648
v -19.2968167971 -100 237.810129368
v -19.4495739721 -100 237.76683382
v -19.6049541779 -100 237.734180325
v -19.7622169569 -100 237.712324493
v -19.9206128804 -100 237.701370477
v -20.0793871196 -100 237.701370477
v -20.2377830431 -100 237.712324493
v -20.3950458221 -100 237.734180325
v -20.5504260279 -100 237.76683382
v -20.7031832029 -100 237.810129368
v -20.8525893898 -100 237.863860648
v -20.9979326 -100 237.927771604
v -21.1385202068 -100 238.001557672
v -21.2736822464 -100 238.084867228
v -21.4027746101 -100 238.177303264
v -21.525182114 -100 238.278425279
v -21.6403214305 -100 238.387751382
v -21.7476438683 -100 238.504760585
v -21.8466379873 -100 238.628895283
v -21.9368320353 -100 238.759563921
v -22.0177961967 -100 238.896143801
v -22.0891446402 -100 239.037984058
v -22.1505373582 -100 239.18440876
v -22.2016817863 -100 239.334720125
v -22.242334198 -100 239.488201852
v -22.2723008662 -100 239.64412253
v -22.2914389859 -100 239.801739126
v -22.2996573553 -100 239.960300526
v -22.2969168102 -100 240.119051112
v -22.2832304104 -100 240.277234365
v -22.258663378 -100 240.43409647
v -22.223332786 -100 240.588889907
v -22.1774070008 -100 240.740877016
v -22.1211048796 -100 240.889333509
v -22.0546947277 -100 241.033551922
v -21.9784930198 -100 241.17284499
v -21.8928628916 -100 241.306548917
v -21.7982124097 -100 241.434026544
v -21.6949926268 -100 241.554670382
v -21.5836954321 -100 241.667905506
v -21.4648512075 -100 241.773192302
v -21.3390262998 -100 241.870029029
v -21.2068203219 -100 241.957954216
v -21.0688632957 -100 242.036548859
v -20.9258126491 -100 242.10543842
v -20.7783500836 -100 242.164294607
v -20.6271783255 -100 242.212836946
v -20.4730177771 -100 242.250834108
v -20.3166030836 -100 242.278105021
v -20.1586796321 -100 242.294519726
v -20 -100 282.3
v -19.8413203679 -100 282.294519726
v -19.6833969164 -100 282.278105021
v -19.5269822229 -100 282.250834108
v -19.3728216745 -100 282.212836946
v -19.2216499164 -100 282.164294607
v -19.0741873509 -100 282.10543842
v -18.9311367043 -100 282.036548859
v -18.7931796781 -100 281.957954216
v -18.6609737002 -100 281.870029029
v -18.5351487925 -100 281.773192302
v -18.4163045679 -100 281.667905506
v -18.3050073732 -100 281.554670382
v -18.2017875903 -100 281.434026544
v -18.1071371084 -100 281.306548917
v -18.0215069802 -100 281.17284499
v -17.9453052723 -100 281.033551922
v -17.8788951204 -100 280.889333509
v -17.8225929992 -100 280.740877016
v -17.776667214 -100 280.588889907
v -17.741336622 -100 280.43409647
v -17.7167695896 -100 280.277234365
v -17.7030831898 -100 280.119051112
v -17.7003426447 -100 279.960300526
v -17.7085610141 -100 279.801739126
v -17.7276991338 -100 279.64412253
v -17.757665802 -100 279.488201852
v -17.7983182137 -100 279.334720125
v -17.8494626418 -100 279.18440876
v -17.9108553598 -100 279.037984058
v -17.9822038033 -100 278.896143801
v -18.0631679647 -100 278.759563921
v -18.1533620127 -100 278.628895283
v -18.2523561317 -100 278.504760585
v -18.3596785695 -100 278.387751382
v -18.474817886 -100 278.278425279
v -18.5972253899 -100 278.177303264
v -18.7263177536 -100 278.084867228
v -18.8614797932 -100 278.001557672
v -19.0020674 -100 277.927771604
v -19.1474106102 -100 277.863860648
v -19.2968167971 -100 277.810129368
v -19.4495739721 -100 277.76683382
v -19.6049541779 -100 277.734180325
v -19.7622169569 -100 277.712324493
v -19.9206128804 -100 277.701370477
v -20.0793871196 -100 277.701370477
v -20.2377830431 -100 277.712324493
v -20.3950458221 -100 277.734180325
v -20.5504260279 -100 277.76683382
v -20.7031832029 -100 277.810129368
v -20.8525893898 -100 277.863860648
v -20.9979326 -100 277.927771604
v -21.1385202068 -100 278.001557672
v -21.2736822464 -100 278.084867228
v -21.4027746101 -100 278.177303264
v -21.525182114 -100 278.278425279
v -21.6403214305 -100 278.387751382
v -21.7476438683 -100 278.504760585
v -21.8466379873 -100 278.628895283
v -21.9368320353 -100 278.759563921
v -22.0177961967 -100 278.896143801
v -22.0891446402 -100 279.037984058
v -22.1505373582 -100 279.18440876
v -22.2016817863 -100 279.334720125
v -22.242334198 -100 279.488201852
v -22.2723008662 -100 279.64412253
v -22.2914389859 -100 279.801739126
v -22.2996573553 -100 279.960300526
v -22.2969168102 -100 280.119051112
v -22.2832304104 -100 280.277234365
v -22.258663378 -100 280.43409647
v -22.223332786 -100 280.588889907
v -22.1774070008 -100 280.740877016
v -22.1211048796 -100 280.889333509
v -22.0546947277 -100 281.033551922
v -21.9784930198 -100 281.17284499
v -21.8928628916 -100 281.306548917
v -21.7982124097 -100 281.434026544
v -21.6949926268 -100 281.554670382
v -21.5836954321 -100 281.667905506
v -21.4648512075 -100 281.773192302
v -21.3390262998 -100 281.870029029
v -21.2068203219 -100 281.957954216
v -21.0688632957 -100 282.036548859
v -20.9258126491 -100 282.10543842
v -20.7783500836 -100 282.164294607
v -20.6271783255 -100 282.212836946
v -20.4730177771 -100 282.250834108
v -20.3166030836 -100 282.278105021
v -20.1586796321 -100 282.294519726
v 20 -100 242.3
v 20.1586796321 -100 242.294519726
v 20.3166030836 -100 242.278105021
v 20.4730177771 -100 242.250834108
v 20.6271783255 -100 242.212836946
v 20.7783500836 -100 242.164294607
v 20.9258126491 -100 242.10543842
v 21.0688632957 -100 242.036548859
v 21.2068203219 -100 241.957954216
v 21.3390262998 -100 241.870029029
v 21.4648512075 -100 241.773192302
v 21.5836954321 -100 241.667905506
v 21.6949926268 -100 241.554670382
v 21.7982124097 -100 241.434026544
v 21.8928628916 -100 241.306548917
v 21.9784930198 -100 241.17284499
v 22.0546947277 -100 241.033551922
v 22.1211048796 -100 240.889333509
v 22.1774070008 -100 240.740877016
v 22.223332786 -100 240.588889907
v 22.258663378 -100 240.43409647
v 22.2832304104 -100 240.277234365
v 22.2969168102 -100 240.119051112
v 22.2996573553 -100 239.960300526
v 22.2914389859 -100 239.801739126
v 22.2723008662 -100 239.64412253
v 22.242334198 -100 239.488201852
v 22.2016817863 -100 239.334720125
v 22.1505373582 -100 239.18440876
v 22.0891446402 -100 239.037984058
v 22.0177961967 -100 238.896143801
v 21.9368320353 -100 238.759563921
v 21.8466379873 -100 238.628895283
v 21.7476438683 -100 238.504760585
v 21.6403214305 -100 238.387751382
v 21.525182114 -100 238.278425279
v 21.4027746101 -100 238.177303264
v 21.2736822464 -100 238.084867228
v 21.1385202068 -100 238.001557672
v 20.9979326 -100 237.927771604
v 20.8525893898 -100 237.863860648
v 20.7031832029 -100 237.810129368
v 20.5504260279 -100 237.76683382
v 20.3950458221 -100 237.734180325
v 20.2377830431 -100 237.712324493
v 20.0793871196 -100 237.701370477
v 19.9206128804 -100 237.701370477
v 19.7622169569 -100 237.712324493
v 19.6049541779 -100 237.734180325
v 19.4495739721 -100 237.76683382
v 19.2968167971 -100 237.810129368
v 19.1474106102 -100 237.863860648
v 19.0020674 -100 237.927771604
v 18.8614797932 -100 238.001557672
v 18.7263177536 -100 238.084867228
v 18.5972253899 -100 238.177303264
v 18.474817886 -100 238.278425279
v 18.3596785695 -100 238.387751382
v 18.2523561317 -100 238.504760585
v 18.1533620127 -100 238.628895283
v 18.0631679647 -100 238.759563921
v 17.9822038033 -100 238.896143801
v 17.9108553598 -100 239.037984058
v 17.8494626418 -100 239.18440876
v 17.7983182137 -100 239.334720125
v 17.757665802 -100 239.488201852
v 17.7276991338 -100 239.64412253
v 17.7085610141 -100 239.801739126
v 17.7003426447 -100 239.960300526
v 17.7030831898 -100 240.119051112
v 17.7167695896 -100 240.277234365
v 17.741336622 -100 240.43409647
v 17.776667214 -100 240.588889907
v 17.8225929992 -100 240.740877016
v 17.8788951204 -100 240.889333509
v 17.9453052723 -100 241.033551922
v 18.0215069802 -100 241.17284499
v 18.1071371084 -100 241.306548917
v 18.2017875903 -100 241.434026544
v 18.3050073732 -100 241.554670382
v 18.4163045679 -100 241.667905506
v 18.5351487925 -100 241.773192302
v 18.6609737002 -100 241.870029029
v 18.7931796781 -100 241.957954216
v 18.9311367043 -100 242.036548859
v 19.0741873509 -100 242.10543842
v 19.2216499164 -100 242.164294607
v 19.3728216745 -100 242.212836946
v 19.5269822229 -100 242.250834108
v 19.6833969164 -100 242.278105021
v 19.8413203679 -100 242.294519726
v 20 -100 282.3
v 20.1586796321 -100 282.294519726
v 20.3166030836 -100 282.278105021
v 20.4730177771 -100 282.250834108
v 20.6271783255 -100 282.212836946
v 20.7783500836 -100 282.164294607
v 20.9258126491 -100 282.10543842
v 21.0688632957 -100 282.036548859
v 21.2068203219 -100 281.957954216
v 21.3390262998 -100 281.870029029
v 21.4648512075 -100 281.773192302
v 21.5836954321 -100 281.667905506
v 21.6949926268 -100 281.554670382
v 21.7982124097 -100 281.434026544
v 21.8928628916 -100 281.306548917
v 21.9784930198 -100 281.17284499
v 22.0546947277 -100 281.033551922
v 22.1211048796 -100 280.889333509
v 22.1774070008 -100 280.740877016
v 22.223332786 -100 280.588889907
v 22.258663378 -100 280.43409647
v 22.2832304104 -100 280.277234365
v 22.2969168102 -100 280.119051112
v 22.2996573553 -100 279.960300526
v 22.2914389859 -100 279.801739126
v 22.2723008662 -100 279.64412253
v 22.242334198 -100 279.488201852
v 22.2016817863 -100 279.334720125
v 22.1505373582 -100 279.18440876
v 22.0891446402 -100 279.037984058
v 22.0177961967 -100 278.896143801
v 21.9368320353 -100 278.759563921
v 21.8466379873 -100 278.628895283
v 21.7476438683 -100 278.504760585
v 21.6403214305 -100 278.387751382
v 21.525182114 -100 278.278425279
v 21.4027746101 -100 278.177303264
v 21.2736822464 -100 278.084867228
v 21.1385202068 -100 278.001557672
v 20.9979326 -100 277.927771604
v 20.8525893898 -100 277.863860648
v 20.7031832029 -100 277.810129368
v 20.5504260279 -100 277.76683382
v 20.3950458221 -100 277.734180325
v 20.2377830431 -100 277.712324493
v 20.0793871196 -100 277.701370477
v 19.9206128804 -100 277.701370477
v 19.7622169569 -100 277.712324493
v 19.6049541779 -100 277.734180325
v 19.4495739721 -100 277.76683382
v 19.2968167971 -100 277.810129368
v 19.1474106102 -100 277.863860648
v 19.0020674 -100 277.927771604
v 18.8614797932 -100 278.001557672
v 18.7263177536 -100 278.084867228
v 18.5972253899 -100 278.177303264
v 18.474817886 -100 278.278425279
v 18.3596785695 -100 278.387751382
v 18.2523561317 -100 278.504760585
v 18.1533620127 -100 278.628895283
v 18.0631679647 -100 278.759563921
v 17.9822038033 -100 278.896143801
v 17.9108553598 -100 279.037984058
v 17.8494626418 -100 279.18440876
v 17.7983182137 -100 279.334720125
v 17.757665802 -100 279.488201852
v 17.7276991338 -100 279.64412253
v 17.7085610141 -100 279.801739126
v 17.7003426447 -100 279.960300526
v 17.7030831898 -100 280.119051112
v 17.7167695896 -100 280.277234365
v 17.741336622 -100 280.43409647
v 17.776667214 -100 280.588889907
v 17.8225929992 -100 280.740877016
v 17.8788951204 -100 280.889333509
v 17.9453052723 -100 281.033551922
v 18.0215069802 -100 281.17284499
v 18.1071371084 -100 281.306548917
v 18.2017875903 -100 281.434026544
v 18.3050073732 -100 281.554670382
v 18.4163045679 -100 281.667905506
v 18.5351487925 -100 281.773192302
v 18.6609737002 -100 281.870029029
v 18.7931796781 -100 281.957954216
v 18.9311367043 -100 282.036548859
v 19.0741873509 -100 282.10543842
v 19.2216499164 -100 282.164294607
v 19.3728216745 -100 282.212836946
v 19.5269822229 -100 282.250834108
v 19.6833969164 -100 282.278105021
v 19.8413203679 -100 282.294519726
v 27.5 -76.5 288
f 6 5 4
f 2 4 3
f 2 7 6
f 2 6 4
f 1 2 3
f 8 7 2
f 2 1 9
f 11 3 10
f 91 92 11
f 93 11 92
f 90 91 11
f 94 11 93
f 89 90 11
f 95 11 94
f 88 89 11
f 96 11 95
f 87 88 11
f 97 11 96
f 86 87 11
f 98 11 97
f 85 86 11
f 99 11 98
f 84 85 11
f 100 11 99
f 101 11 100
f 102 11 101
f 103 11 102
f 34 74 75
f 34 75 76
f 34 76 77
f 34 77 78
f 34 78 79
f 34 79 80
f 34 80 81
f 34 81 82
f 32 107 108
f 32 108 109
f 32 109 110
f 32 11 103
f 32 103 104
f 32 3 11
f 32 104 105
f 32 105 106
f 32 106 107
f 73 74 34
f 111 32 110
f 72 73 34
f 112 32 111
f 71 72 34
f 113 32 112
f 70 71 34
f 114 32 113
f 69 70 34
f 115 32 114
f 68 69 34
f 116 32 115
f 67 68 34
f 117 32 116
f 66 67 34
f 118 32 117
f 65 66 34
f 119 32 118
f 64 65 34
f 120 32 119
f 63 64 34
f 121 32 120
f 62 63 34
f 122 32 121
f 61 62 34
f 123 32 122
f 60 61 34
f 124 32 123
f 59 60 34
f 58 59 34
f 33 124 125
f 33 125 35
f 33 35 36
f 33 36 37
f 33 37 38
f 33 38 39
f 33 39 40
f 33 32 124
f 33 40 41
f 33 41 42
f 33 58 34
f 33 42 43
f 33 43 44
f 33 44 45
f 33 45 46
f 33 46 47
f 33 47 48
f 33 48 49
f 33 49 50
f 33 50 51
f 33 51 52
f 33 52 53
f 33 53 54
f 33 54 55
f 33 55 56
f 33 56 57
f 33 57 58
f 273 274 19
f 182 183 31
f 275 19 274
f 184 31 183
f 272 273 19
f 181 182 31
f 276 19 275
f 185 31 184
f 271 272 19
f 180 181 31
f 277 19 276
f 186 31 185
f 270 271 19
f 179 180 31
f 278 19 277
f 187 31 186
f 269 270 19
f 178 179 31
f 279 19 278
f 188 31 187
f 268 269 19
f 177 178 31
f 280 19 279
f 189 31 188
f 267 268 19
f 176 177 31
f 281 19 280
f 190 31 189
f 266 267 19
f 175 176 31
f 282 19 281
f 191 31 190
f 265 266 19
f 174 175 31
f 283 19 282
f 192 31 191
f 264 265 19
f 173 174 31
f 284 19 283
f 193 31 192
f 263 264 19
f 285 19 284
f 194 31 193
f 262 263 19
f 261 262 19
f 30 165 166
f 30 166 167
f 30 167 168
f 30 168 169
f 30 169 170
f 30 170 171
f 30 171 172
f 30 172 173
f 30 173 31
f 28 31 194
f 28 194 195
f 28 195 196
f 28 196 197
f 28 197 198
f 28 198 199
f 28 199 200
f 28 200 201
f 1 31 28
f 1 32 31
f 1 3 32
f 164 165 30
f 202 28 201
f 163 164 30
f 203 28 202
f 9 1 28
f 162 163 30
f 204 28 203
f 161 162 30
f 205 28 204
f 160 161 30
f 206 28 205
f 159 160 30
f 207 28 206
f 158 159 30
f 27 12 9
f 27 9 28
f 208 28 207
f 157 158 30
f 209 28 208
f 156 157 30
f 210 28 209
f 18 17 16
f 18 247 248
f 18 248 249
f 18 249 250
f 18 250 251
f 18 251 252
f 18 252 253
f 18 253 254
f 18 254 255
f 18 255 256
f 18 256 257
f 18 257 258
f 18 258 259
f 20 285 286
f 20 286 287
f 20 287 288
f 20 288 289
f 20 289 290
f 20 290 291
f 20 291 292
f 20 292 293
f 20 19 285
f 20 293 294
f 20 294 295
f 20 295 296
f 20 296 297
f 20 297 298
f 20 298 299
f 20 299 300
f 20 300 301
f 246 247 18
f 155 156 30
f 302 20 301
f 211 28 210
f 245 246 18
f 154 155 30
f 303 20 302
f 244 245 18
f 153 154 30
f 304 20 303
f 243 244 18
f 152 153 30
f 305 20 304
f 242 243 18
f 151 152 30
f 306 20 305
f 241 242 18
f 150 151 30
f 307 20 306
f 240 241 18
f 149 150 30
f 217 20 307
f 218 20 217
f 219 20 218
f 29 216 126
f 29 126 127
f 29 127 128
f 29 128 129
f 29 129 130
f 29 130 131
f 29 131 132
f 29 132 133
f 29 133 134
f 29 134 135
f 29 135 136
f 29 136 137
f 29 137 138
f 29 138 139
f 29 139 140
f 29 140 141
f 29 141 142
f 29 142 143
f 29 143 144
f 29 144 145
f 29 145 146
f 29 146 147
f 29 147 148
f 29 148 149
f 29 149 30
f 21 219 220
f 21 220 221
f 21 221 222
f 21 222 223
f 21 223 224
f 21 224 225
f 21 225 226
f 21 226 227
f 21 227 228
f 21 228 229
f 21 229 230
f 21 230 231
f 21 231 232
f 21 232 233
f 21 233 234
f 21 234 235
f 21 235 236
f 21 236 237
f 21 237 238
f 21 238 239
f 21 239 240
f 21 18 16
f 21 240 18
f 21 20 219
f 364 365 23
f 366 23 365
f 363 364 23
f 367 23 366
f 362 363 23
f 368 23 367
f 361 362 23
f 369 23 368
f 360 361 23
f 370 23 369
f 359 360 23
f 371 23 370
f 358 359 23
f 372 23 371
f 357 358 23
f 373 23 372
f 356 357 23
f 374 23 373
f 355 356 23
f 375 23 374
f 354 355 23
f 376 23 375
f 353 354 23
f 352 353 23
f 24 376 377
f 24 377 378
f 24 378 379
f 24 379 380
f 24 380 381
f 24 381 382
f 24 382 383
f 24 383 384
f 24 384 385
f 24 385 386
f 24 386 387
f 24 387 388
f 24 388 389
f 24 389 390
f 24 390 391
f 24 391 392
f 24 23 376
f 22 352 23
f 22 338 339
f 22 339 340
f 22 340 341
f 22 341 342
f 22 342 343
f 22 343 344
f 22 344 345
f 22 345 346
f 22 346 347
f 22 347 348
f 22 348 349
f 22 349 350
f 22 350 351
f 22 351 352
f 337 338 22
f 393 24 392
f 336 337 22
f 394 24 393
f 335 336 22
f 395 24 394
f 334 335 22
f 396 24 395
f 333 334 22
f 397 24 396
f 332 333 22
f 398 24 397
f 331 332 22
f 308 24 398
f 309 24 308
f 25 314 315
f 25 315 316
f 25 316 317
f 25 317 318
f 25 318 319
f 25 319 320
f 25 320 321
f 25 321 322
f 25 331 22
f 25 322 323
f 25 323 324
f 25 324 325
f 25 325 326
f 25 326 327
f 25 327 328
f 25 328 329
f 25 329 330
f 25 330 331
f 14 26 25
f 13 26 14
f 15 25 22
f 15 14 25
f 15 21 16
f 15 22 21
f 18 261 19
f 18 260 261
f 18 259 260
f 24 309 25
f 309 310 25
f 310 311 25
f 311 312 25
f 312 313 25
f 313 314 25
f 26 12 27
f 26 13 12
f 28 216 29
f 28 215 216
f 28 214 215
f 28 213 214
f 28 212 213
f 28 211 212
f 34 82 11
f 82 83 11
f 83 84 11
f 399 3 4
f 399 10 3
f 400 399 4
f 400 4 5
f 400 5 401
f 400 401 402
f 408 406 407
f 403 408 400
f 403 400 402
f 403 404 408
f 405 406 408
f 405 408 404
f 401 5 6
f 401 6 7
f 402 401 7
f 7 8 409
f 410 7 409
f 12 2 9
f 12 8 2
f 416 10 399
f 11 10 416
f 415 416 399
f 411 415 399
f 400 411 399
f 414 415 411
f 31 32 415
f 31 415 414
f 413 414 411
f 412 28 413
f 27 28 412
f 411 412 413
f 417 11 416
f 417 34 11
f 33 34 417
f 33 417 418
f 418 415 32
f 418 32 33
f 13 409 12
f 419 409 13
f 420 31 414
f 420 30 31
f 14 421 422
f 13 14 422
f 29 30 420
f 29 420 423
f 421 14 15
f 423 413 28
f 423 28 29
f 424 406 405
f 421 16 406
f 421 424 425
f 421 406 424
f 15 16 421
f 422 421 425
f 406 17 407
f 406 16 17
f 426 27 412
f 426 26 27
f 431 407 17
f 18 431 17
f 430 407 431
f 427 407 430
f 408 407 427
f 429 427 430
f 22 430 21
f 22 429 430
f 428 427 429
f 426 428 25
f 26 426 25
f 427 428 426
f 431 19 432
f 431 18 19
f 428 433 24
f 428 24 25
f 20 432 19
f 20 434 432
f 24 435 23
f 24 433 435
f 430 434 20
f 430 20 21
f 429 23 435
f 429 22 23
f 437 35 436
f 437 36 35
f 438 37 36
f 438 36 437
f 439 38 37
f 439 37 438
f 440 38 439
f 440 39 38
f 440 40 39
f 441 40 440
f 442 40 441
f 442 41 40
f 443 41 442
f 443 42 41
f 443 43 42
f 444 43 443
f 445 44 43
f 445 43 444
f 446 45 44
f 446 44 445
f 447 46 45
f 447 45 446
f 448 47 46
f 448 48 47
f 448 46 447
f 449 48 448
f 450 49 48
f 450 50 49
f 450 48 449
f 451 50 450
f 452 51 50
f 452 50 451
f 453 52 51
f 453 51 452
f 454 53 52
f 454 52 453
f 455 54 53
f 455 55 54
f 455 53 454
f 456 55 455
f 457 56 55
f 457 57 56
f 457 55 456
f 458 57 457
f 459 58 57
f 459 59 58
f 459 57 458
f 460 59 459
f 461 60 59
f 461 59 460
f 462 61 60
f 462 62 61
f 462 60 461
f 463 62 462
f 464 63 62
f 464 62 463
f 465 64 63
f 465 63 464
f 466 64 465
f 466 65 64
f 467 65 466
f 467 66 65
f 468 66 467
f 468 67 66
f 468 68 67
f 469 68 468
f 470 68 469
f 470 69 68
f 471 70 69
f 471 69 470
f 472 71 70
f 472 70 471
f 473 72 71
f 473 71 472
f 474 73 72
f 474 74 73
f 474 72 473
f 475 74 474
f 476 75 74
f 476 74 475
f 477 76 75
f 477 75 476
f 478 77 76
f 478 76 477
f 479 78 77
f 479 79 78
f 479 77 478
f 480 79 479
f 481 80 79
f 481 79 480
f 482 81 80
f 482 82 81
f 482 80 481
f 483 83 82
f 483 82 482
f 484 83 483
f 485 84 83
f 485 83 484
f 486 85 84
f 486 84 485
f 487 86 85
f 487 85 486
f 488 87 86
f 488 86 487
f 489 88 87
f 489 87 488
f 490 89 88
f 490 88 489
f 491 89 490
f 491 90 89
f 492 90 491
f 492 91 90
f 492 92 91
f 493 92 492
f 494 92 493
f 494 93 92
f 495 93 494
f 495 94 93
f 496 94 495
f 496 95 94
f 497 95 496
f 497 96 95
f 498 96 497
f 498 97 96
f 498 98 97
f 499 98 498
f 499 99 98
f 500 99 499
f 501 99 500
f 501 100 99
f 501 101 100
f 502 101 501
f 503 101 502
f 503 102 101
f 504 102 503
f 504 103 102
f 505 103 504
f 505 104 103
f 506 105 104
f 506 104 505
f 507 106 105
f 507 107 106
f 507 105 506
f 508 107 507
f 509 108 107
f 509 109 108
f 509 107 508
f 510 109 509
f 511 110 109
f 511 109 510
f 512 111 110
f 512 112 111
f 512 110 511
f 513 113 112
f 513 112 512
f 514 113 513
f 515 114 113
f 515 113 514
f 516 114 515
f 516 115 114
f 517 115 516
f 517 116 115
f 518 116 517
f 518 117 116
f 518 118 117
f 519 118 518
f 520 118 519
f 520 119 118
f 521 119 520
f 521 120 119
f 522 120 521
f 522 121 120
f 522 122 121
f 523 122 522
f 524 122 523
f 524 123 122
f 525 123 524
f 525 124 123
f 525 125 124
f 526 125 525
f 436 125 526
f 436 35 125
f 528 126 527
f 528 127 126
f 529 128 127
f 529 127 528
f 530 129 128
f 530 128 529
f 531 129 530
f 531 130 129
f 531 131 130
f 532 131 531
f 533 131 532
f 533 132 131
f 534 132 533
f 534 133 132
f 534 134 133
f 535 134 534
f 536 135 134
f 536 134 535
f 537 136 135
f 537 135 536
f 538 137 136
f 538 136 537
f 539 138 137
f 539 139 138
f 539 137 538
f 540 139 539
f 541 140 139
f 541 141 140
f 541 139 540
f 542 141 541
f 543 142 141
f 543 141 542
f 544 143 142
f 544 142 543
f 545 144 143
f 545 143 544
f 546 145 144
f 546 146 145
f 546 144 545
f 547 146 546
f 548 147 146
f 548 148 147
f 548 146 547
f 549 148 548
f 550 149 148
f 550 150 149
f 550 148 549
f 551 150 550
f 552 151 150
f 552 150 551
f 553 152 151
f 553 153 152
f 553 151 552
f 554 153 553
f 555 154 153
f 555 153 554
f 556 155 154
f 556 154 555
f 557 155 556
f 557 156 155
f 558 156 557
f 558 157 156
f 559 157 558
f 559 158 157
f 559 159 158
f 560 159 559
f 561 159 560
f 561 160 159
f 562 161 160
f 562 160 561
f 563 162 161
f 563 161 562
f 564 163 162
f 564 162 563
f 565 164 163
f 565 165 164
f 565 163 564
f 566 165 565
f 567 166 165
f 567 165 566
f 568 167 166
f 568 166 567
f 569 168 167
f 569 167 568
f 570 169 168
f 570 170 169
f 570 168 569
f 571 170 570
f 572 171 170
f 572 170 571
f 573 172 171
f 573 173 172
f 573 171 572
f 574 174 173
f 574 173 573
f 575 174 574
f 576 175 174
f 576 174 575
f 577 176 175
f 577 175 576
f 578 177 176
f 578 176 577
f 579 178 177
f 579 177 578
f 580 179 178
f 580 178 579
f 581 180 179
f 581 179 580
f 582 180 581
f 582 181 180
f 583 181 582
f 583 182 181
f 583 183 182
f 584 183 583
f 585 183 584
f 585 184 183
f 586 184 585
f 586 185 184
f 587 185 586
f 587 186 185
f 588 186 587
f 588 187 186
f 589 187 588
f 589 188 187
f 589 189 188
f 590 189 589
f 590 190 189
f 591 190 590
f 592 190 591
f 592 191 190
f 592 192 191
f 593 192 592
f 594 192 593
f 594 193 192
f 595 193 594
f 595 194 193
f 596 194 595
f 596 195 194
f 597 196 195
f 597 195 596
f 598 197 196
f 598 198 197
f 598 196 597
f 599 198 598
f 600 199 198
f 600 200 199
f 600 198 599
f 601 200 600
f 602 201 200
f 602 200 601
f 603 202 201
f 603 203 202
f 603 201 602
f 604 204 203
f 604 203 603
f 605 204 604
f 606 205 204
f 606 204 605
f 607 205 606
f 607 206 205
f 608 206 607
f 608 207 206
f 609 207 608
f 609 208 207
f 609 209 208
f 610 209 609
f 611 209 610
f 611 210 209
f 612 210 611
f 612 211 210
f 613 211 612
f 613 212 211
f 613 213 212
f 614 213 613
f 615 213 614
f 615 214 213
f 616 214 615
f 616 215 214
f 616 216 215
f 617 216 616
f 527 216 617
f 527 126 216
f 619 217 618
f 619 218 217
f 620 219 218
f 620 218 619
f 621 220 219
f 621 219 620
f 622 220 621
f 622 221 220
f 622 222 221
f 623 222 622
f 624 222 623
f 624 223 222
f 625 223 624
f 625 224 223
f 625 225 224
f 626 225 625
f 627 226 225
f 627 225 626
f 628 227 226
f 628 226 627
f 629 228 227
f 629 227 628
f 630 229 228
f 630 230 229
f 630 228 629
f 631 230 630
f 632 231 230
f 632 232 231
f 632 230 631
f 633 232 632
f 634 233 232
f 634 232 633
f 635 234 233
f 635 233 634
f 636 235 234
f 636 234 635
f 637 236 235
f 637 237 236
f 637 235 636
f 638 237 637
f 639 238 237
f 639 239 238
f 639 237 638
f 640 239 639
f 641 240 239
f 641 241 240
f 641 239 640
f 642 241 641
f 643 242 241
f 643 241 642
f 644 243 242
f 644 244 243
f 644 242 643
f 645 244 644
f 646 245 244
f 646 244 645
f 647 246 245
f 647 245 646
f 648 246 647
f 648 247 246
f 649 247 648
f 649 248 247
f 650 248 649
f 650 249 248
f 650 250 249
f 651 250 650
f 652 250 651
f 652 251 250
f 653 252 251
f 653 251 652
f 654 253 252
f 654 252 653
f 655 254 253
f 655 253 654
f 656 255 254
f 656 256 255
f 656 254 655
f 657 256 656
f 658 257 256
f 658 256 657
f 659 258 257
f 659 257 658
f 660 259 258
f 660 258 659
f 661 260 259
f 661 261 260
f 661 259 660
f 662 261 661
f 663 262 261
f 663 261 662
f 664 263 262
f 664 264 263
f 664 262 663
f 665 265 264
f 665 264 664
f 666 265 665
f 667 266 265
f 667 265 666
f 668 267 266
f 668 266 667
f 669 268 267
f 669 267 668
f 670 269 268
f 670 268 669
f 671 270 269
f 671 269 670
f 672 271 270
f 672 270 671
f 673 271 672
f 673 272 271
f 674 272 673
f 674 273 272
f 674 274 273
f 675 274 674
f 676 274 675
f 676 275 274
f 677 275 676
f 677 276 275
f 678 276 677
f 678 277 276
f 679 277 678
f 679 278 277
f 680 278 679
f 680 279 278
f 680 280 279
f 681 280 680
f 681 281 280
f 682 281 681
f 683 281 682
f 683 282 281
f 683 283 282
f 684 283 683
f 685 283 684
f 685 284 283
f 686 284 685
f 686 285 284
f 687 285 686
f 687 286 285
f 688 287 286
f 688 286 687
f 689 288 287
f 689 289 288
f 689 287 688
f 690 289 689
f 691 290 289
f 691 291 290
f 691 289 690
f 692 291 691
f 693 292 291
f 693 291 692
f 694 293 292
f 694 294 293
f 694 292 693
f 695 295 294
f 695 294 694
f 696 295 695
f 697 296 295
f 697 295 696
f 698 296 697
f 698 297 296
f 699 297 698
f 699 298 297
f 700 298 699
f 700 299 298
f 700 300 299
f 701 300 700
f 702 300 701
f 702 301 300
f 703 301 702
f 703 302 301
f 704 302 703
f 704 303 302
f 704 304 303
f 705 304 704
f 706 304 705
f 706 305 304
f 707 305 706
f 707 306 305
f 707 307 306
f 708 307 707
f 618 307 708
f 618 217 307
f 710 308 709
f 710 309 308
f 711 310 309
f 711 309 710
f 712 311 310
f 712 310 711
f 713 311 712
f 713 312 311
f 713 313 312
f 714 313 713
f 715 313 714
f 715 314 313
f 716 314 715
f 716 315 314
f 716 316 315
f 717 316 716
f 718 317 316
f 718 316 717
f 719 318 317
f 719 317 718
f 720 319 318
f 720 318 719
f 721 320 319
f 721 321 320
f 721 319 720
f 722 321 721
f 723 322 321
f 723 323 322
f 723 321 722
f 724 323 723
f 725 324 323
f 725 323 724
f 726 325 324
f 726 324 725
f 727 326 325
f 727 325 726
f 728 327 326
f 728 328 327
f 728 326 727
f 729 328 728
f 730 329 328
f 730 330 329
f 730 328 729
f 731 330 730
f 732 331 330
f 732 332 331
f 732 330 731
f 733 332 732
f 734 333 332
f 734 332 733
f 735 334 333
f 735 335 334
f 735 333 734
f 736 335 735
f 737 336 335
f 737 335 736
f 738 337 336
f 738 336 737
f 739 337 738
f 739 338 337
f 740 338 739
f 740 339 338
f 741 339 740
f 741 340 339
f 741 341 340
f 742 341 741
f 743 341 742
f 743 342 341
f 744 343 342
f 744 342 743
f 745 344 343
f 745 343 744
f 746 345 344
f 746 344 745
f 747 346 345
f 747 347 346
f 747 345 746
f 748 347 747
f 749 348 347
f 749 347 748
f 750 349 348
f 750 348 749
f 751 350 349
f 751 349 750
f 752 351 350
f 752 352 351
f 752 350 751
f 753 352 752
f 754 353 352
f 754 352 753
f 755 354 353
f 755 355 354
f 755 353 754
f 756 356 355
f 756 355 755
f 757 356 756
f 758 357 356
f 758 356 757
f 759 358 357
f 759 357 758
f 760 359 358
f 760 358 759
f 761 360 359
f 761 359 760
f 762 361 360
f 762 360 761
f 763 362 361
f 763 361 762
f 764 362 763
f 764 363 362
f 765 363 764
f 765 364 363
f 765 365 364
f 766 365 765
f 767 365 766
f 767 366 365
f 768 366 767
f 768 367 366
f 769 367 768
f 769 368 367
f 770 368 769
f 770 369 368
f 771 369 770
f 771 370 369
f 771 371 370
f 772 371 771
f 772 372 371
f 773 372 772
f 774 372 773
f 774 373 372
f 774 374 373
f 775 374 774
f 776 374 775
f 776 375 374
f 777 375 776
f 777 376 375
f 778 376 777
f 778 377 376
f 779 378 377
f 779 377 778
f 780 379 378
f 780 380 379
f 780 378 779
f 781 380 780
f 782 381 380
f 782 382 381
f 782 380 781
f 783 382 782
f 784 383 382
f 784 382 783
f 785 384 383
f 785 385 384
f 785 383 784
f 786 386 385
f 786 385 785
f 787 386 786
f 788 387 386
f 788 386 787
f 789 387 788
f 789 388 387
f 790 388 789
f 790 389 388
f 791 389 790
f 791 390 389
f 791 391 390
f 792 391 791
f 793 391 792
f 793 392 391
f 794 392 793
f 794 393 392
f 795 393 794
f 795 394 393
f 795 395 394
f 796 395 795
f 797 395 796
f 797 396 395
f 798 396 797
f 798 397 396
f 798 398 397
f 799 398 798
f 709 398 799
f 709 308 398
f 403 402 410
f 800 403 410
f 403 424 404
f 403 425 424
f 405 404 424
f 427 411 400
f 427 400 408
f 410 402 7
f 12 409 8
f 800 410 409
f 800 409 419
f 492 416 493
f 494 493 416
f 491 416 492
f 495 494 416
f 490 416 491
f 496 495 416
f 489 416 490
f 497 496 416
f 488 416 489
f 498 497 416
f 487 416 488
f 499 498 416
f 486 416 487
f 500 499 416
f 485 416 486
f 501 500 416
f 484 416 485
f 502 501 416
f 483 416 484
f 503 502 416
f 504 503 416
f 415 504 416
f 415 505 504
f 415 506 505
f 415 507 506
f 415 508 507
f 415 509 508
f 415 510 509
f 415 511 510
f 417 416 483
f 417 476 475
f 417 477 476
f 417 478 477
f 417 479 478
f 417 480 479
f 417 481 480
f 417 482 481
f 417 483 482
f 474 417 475
f 512 511 415
f 473 417 474
f 513 512 415
f 472 417 473
f 514 513 415
f 471 417 472
f 515 514 415
f 470 417 471
f 516 515 415
f 469 417 470
f 517 516 415
f 468 417 469
f 518 517 415
f 467 417 468
f 519 518 415
f 466 417 467
f 520 519 415
f 465 417 466
f 521 520 415
f 464 417 465
f 522 521 415
f 463 417 464
f 523 522 415
f 462 417 463
f 524 523 415
f 525 524 415
f 418 437 436
f 418 438 437
f 418 439 438
f 418 440 439
f 418 441 440
f 418 442 441
f 418 443 442
f 418 444 443
f 418 445 444
f 418 446 445
f 418 447 446
f 418 448 447
f 418 449 448
f 418 450 449
f 418 451 450
f 418 452 451
f 418 453 452
f 418 454 453
f 418 455 454
f 418 456 455
f 418 525 415
f 418 526 525
f 418 436 526
f 418 417 459
f 459 417 460
f 460 417 461
f 461 417 462
f 418 459 458
f 418 458 457
f 418 457 456
f 583 414 584
f 585 584 414
f 582 414 583
f 586 585 414
f 581 414 582
f 587 586 414
f 580 414 581
f 588 587 414
f 579 414 580
f 589 588 414
f 578 414 579
f 590 589 414
f 577 414 578
f 591 590 414
f 576 414 577
f 592 591 414
f 575 414 576
f 593 592 414
f 574 414 575
f 594 593 414
f 595 594 414
f 413 595 414
f 413 596 595
f 413 597 596
f 413 598 597
f 413 599 598
f 413 600 599
f 413 601 600
f 413 602 601
f 420 414 574
f 420 567 566
f 420 568 567
f 420 569 568
f 420 570 569
f 420 571 570
f 420 572 571
f 420 573 572
f 420 574 573
f 565 420 566
f 603 602 413
f 564 420 565
f 604 603 413
f 563 420 564
f 605 604 413
f 562 420 563
f 606 605 413
f 561 420 562
f 607 606 413
f 560 420 561
f 608 607 413
f 559 420 560
f 609 608 413
f 558 420 559
f 610 609 413
f 557 420 558
f 611 610 413
f 556 420 557
f 612 611 413
f 555 420 556
f 613 612 413
f 554 420 555
f 614 613 413
f 553 420 554
f 615 614 413
f 616 615 413
f 423 528 527
f 423 529 528
f 423 530 529
f 423 531 530
f 423 532 531
f 423 533 532
f 423 534 533
f 423 535 534
f 423 536 535
f 423 537 536
f 423 538 537
f 423 539 538
f 423 540 539
f 423 541 540
f 423 542 541
f 423 543 542
f 423 544 543
f 423 545 544
f 423 546 545
f 423 547 546
f 423 616 413
f 423 617 616
f 423 527 617
f 423 420 550
f 550 420 551
f 551 420 552
f 552 420 553
f 423 550 549
f 423 549 548
f 423 548 547
f 427 412 411
f 427 426 412
f 13 422 419
f 800 419 422
f 800 422 425
f 674 432 675
f 676 675 432
f 673 432 674
f 677 676 432
f 672 432 673
f 678 677 432
f 671 432 672
f 679 678 432
f 670 432 671
f 680 679 432
f 669 432 670
f 681 680 432
f 668 432 669
f 682 681 432
f 667 432 668
f 683 682 432
f 666 432 667
f 684 683 432
f 665 432 666
f 685 684 432
f 664 432 665
f 686 685 432
f 663 432 664
f 662 432 663
f 434 686 432
f 434 687 686
f 434 688 687
f 434 689 688
f 434 690 689
f 434 691 690
f 434 692 691
f 434 693 692
f 434 694 693
f 434 695 694
f 434 696 695
f 434 697 696
f 434 698 697
f 434 699 698
f 434 700 699
f 434 701 700
f 434 702 701
f 431 649 648
f 431 650 649
f 431 651 650
f 431 652 651
f 431 653 652
f 431 654 653
f 431 655 654
f 431 656 655
f 431 657 656
f 431 658 657
f 431 432 662
f 431 659 658
f 431 660 659
f 431 661 660
f 431 662 661
f 647 431 648
f 703 702 434
f 646 431 647
f 704 703 434
f 645 431 646
f 705 704 434
f 644 431 645
f 706 705 434
f 643 431 644
f 707 706 434
f 642 431 643
f 708 707 434
f 641 431 642
f 618 708 434
f 619 618 434
f 620 619 434
f 430 621 620
f 430 622 621
f 430 623 622
f 430 624 623
f 430 625 624
f 430 626 625
f 430 627 626
f 430 628 627
f 430 629 628
f 430 630 629
f 430 631 630
f 430 632 631
f 430 633 632
f 430 634 633
f 430 635 634
f 430 636 635
f 430 637 636
f 430 638 637
f 430 639 638
f 430 640 639
f 430 641 640
f 430 431 641
f 430 620 434
f 765 435 766
f 767 766 435
f 764 435 765
f 768 767 435
f 763 435 764
f 769 768 435
f 762 435 763
f 770 769 435
f 761 435 762
f 771 770 435
f 760 435 761
f 772 771 435
f 759 435 760
f 773 772 435
f 758 435 759
f 774 773 435
f 757 435 758
f 775 774 435
f 756 435 757
f 776 775 435
f 755 435 756
f 777 776 435
f 754 435 755
f 753 435 754
f 433 777 435
f 433 778 777
f 433 779 778
f 433 780 779
f 433 781 780
f 433 782 781
f 433 783 782
f 433 784 783
f 433 785 784
f 433 786 785
f 433 787 786
f 433 788 787
f 433 789 788
f 433 790 789
f 433 791 790
f 433 792 791
f 433 793 792
f 429 740 739
f 429 741 740
f 429 742 741
f 429 743 742
f 429 744 743
f 429 745 744
f 429 746 745
f 429 747 746
f 429 748 747
f 429 749 748
f 429 435 753
f 429 750 749
f 429 751 750
f 429 752 751
f 429 753 752
f 738 429 739
f 794 793 433
f 737 429 738
f 795 794 433
f 736 429 737
f 796 795 433
f 735 429 736
f 797 796 433
f 734 429 735
f 798 797 433
f 733 429 734
f 799 798 433
f 732 429 733
f 709 799 433
f 710 709 433
f 711 710 433
f 428 712 711
f 428 713 712
f 428 714 713
f 428 715 714
f 428 716 715
f 428 717 716
f 428 718 717
f 428 719 718
f 428 720 719
f 428 721 720
f 428 722 721
f 428 723 722
f 428 724 723
f 428 725 724
f 428 726 725
f 428 727 726
f 428 728 727
f 428 729 728
f 428 730 729
f 428 731 730
f 428 732 731
f 428 429 732
f 428 711 433
f 800 425 403
