# SimpleCAD BREP tessellation for MuJoCo
v 284 30.7 300.5
v 284 30.7 303.5
v 284 44.5 300.5
v 284 44.5 303.5
v 284.5 30.2 303.5
v 284.5 30.2 300.5
v 284.5 30.7 300
v 284.5 44.5 300
v 284.5 30.7 304
v 284.5 44.5 304
v 284.5 45 303.5
v 284.5 45 300.5
v 315.5 30.2 303.5
v 315.5 30.2 300.5
v 315.5 30.7 300
v 315.5 44.5 300
v 293.3 35 300
v 293.292136999 35.2276707765 300
v 293.268585465 35.4542565981 300
v 293.229457633 35.6786776802 300
v 293.174939965 35.899864554 300
v 293.105292263 36.1167631635 300
v 293.020846428 36.3283398878 300
v 292.922004885 36.5335864677 300
v 292.809238657 36.7315248097 300
v 292.683085128 36.9212116475 300
v 292.544145477 37.1017430368 300
v 292.393081814 37.2722586634 300
v 292.230614026 37.4319459427 300
v 292.057516346 37.5800438921 300
v 291.874613664 37.7158467574 300
v 291.682777594 37.8387073762 300
v 291.482922323 37.9480402615 300
v 291.276000252 38.0433243924 300
v 291.062997458 38.1241056967 300
v 290.844928997 38.1899992147 300
v 290.622834065 38.2406909337 300
v 290.397771045 38.2759392845 300
v 290.170812465 38.2955762928 300
v 289.943039885 38.2995083793 300
v 289.715538746 38.2877168058 300
v 289.489393195 38.2602577645 300
v 289.265680918 38.2172621102 300
v 289.045468006 38.1589347368 300
v 288.829803873 38.0855536009 300
v 288.619716257 37.9974683968 300
v 288.416206323 37.8950988909 300
v 288.220243886 37.7789329202 300
v 288.032762798 37.6495240687 300
v 287.854656491 37.5074890285 300
v 287.686773723 37.3535046611 300
v 287.529914531 37.1883047722 300
v 287.384826422 37.0126766145 300
v 287.252200805 36.8274571362 300
v 287.132669703 36.6335289924 300
v 287.026802736 36.4318163391 300
v 286.935104408 36.2232804288 300
v 286.858011702 36.0089150303 300
v 286.795892002 35.7897416921 300
v 286.749041336 35.5668048752 300
v 286.717682969 35.3411669749 300
v 286.701966336 35.1139032586 300
v 286.701966336 34.8860967414 300
v 286.717682969 34.6588330251 300
v 286.749041336 34.4331951248 300
v 286.795892002 34.2102583079 300
v 286.858011702 33.9910849697 300
v 286.935104408 33.7767195712 300
v 287.026802736 33.5681836609 300
v 287.132669703 33.3664710076 300
v 287.252200805 33.1725428638 300
v 287.384826422 32.9873233855 300
v 287.529914531 32.8116952278 300
v 287.686773723 32.6464953389 300
v 287.854656491 32.4925109715 300
v 288.032762798 32.3504759313 300
v 288.220243886 32.2210670798 300
v 288.416206323 32.1049011091 300
v 288.619716257 32.0025316032 300
v 288.829803873 31.9144463991 300
v 289.045468006 31.8410652632 300
v 289.265680918 31.7827378898 300
v 289.489393195 31.7397422355 300
v 289.715538746 31.7122831942 300
v 289.943039885 31.7004916207 300
v 290.170812465 31.7044237072 300
v 290.397771045 31.7240607155 300
v 290.622834065 31.7593090663 300
v 290.844928997 31.8100007853 300
v 291.062997458 31.8758943033 300
v 291.276000252 31.9566756076 300
v 291.482922323 32.0519597385 300
v 291.682777594 32.1612926238 300
v 291.874613664 32.2841532426 300
v 292.057516346 32.4199561079 300
v 292.230614026 32.5680540573 300
v 292.393081814 32.7277413366 300
v 292.544145477 32.8982569632 300
v 292.683085128 33.0787883525 300
v 292.809238657 33.2684751903 300
v 292.922004885 33.4664135323 300
v 293.020846428 33.6716601122 300
v 293.105292263 33.8832368365 300
v 293.174939965 34.100135446 300
v 293.229457633 34.3213223198 300
v 293.268585465 34.5457434019 300
v 293.292136999 34.7723292235 300
v 313.3 35 300
v 313.292136999 35.2276707765 300
v 313.268585465 35.4542565981 300
v 313.229457633 35.6786776802 300
v 313.174939965 35.899864554 300
v 313.105292263 36.1167631635 300
v 313.020846428 36.3283398878 300
v 312.922004885 36.5335864677 300
v 312.809238657 36.7315248097 300
v 312.683085128 36.9212116475 300
v 312.544145477 37.1017430368 300
v 312.393081814 37.2722586634 300
v 312.230614026 37.4319459427 300
v 312.057516346 37.5800438921 300
v 311.874613664 37.7158467574 300
v 311.682777594 37.8387073762 300
v 311.482922323 37.9480402615 300
v 311.276000252 38.0433243924 300
v 311.062997458 38.1241056967 300
v 310.844928997 38.1899992147 300
v 310.622834065 38.2406909337 300
v 310.397771045 38.2759392845 300
v 310.170812465 38.2955762928 300
v 309.943039885 38.2995083793 300
v 309.715538746 38.2877168058 300
v 309.489393195 38.2602577645 300
v 309.265680918 38.2172621102 300
v 309.045468006 38.1589347368 300
v 308.829803873 38.0855536009 300
v 308.619716257 37.9974683968 300
v 308.416206323 37.8950988909 300
v 308.220243886 37.7789329202 300
v 308.032762798 37.6495240687 300
v 307.854656491 37.5074890285 300
v 307.686773723 37.3535046611 300
v 307.529914531 37.1883047722 300
v 307.384826422 37.0126766145 300
v 307.252200805 36.8274571362 300
v 307.132669703 36.6335289924 300
v 307.026802736 36.4318163391 300
v 306.935104408 36.2232804288 300
v 306.858011702 36.0089150303 300
v 306.795892002 35.7897416921 300
v 306.749041336 35.5668048752 300
v 306.717682969 35.3411669749 300
v 306.701966336 35.1139032586 300
v 306.701966336 34.8860967414 300
v 306.717682969 34.6588330251 300
v 306.749041336 34.4331951248 300
v 306.795892002 34.2102583079 300
v 306.858011702 33.9910849697 300
v 306.935104408 33.7767195712 300
v 307.026802736 33.5681836609 300
v 307.132669703 33.3664710076 300
v 307.252200805 33.1725428638 300
v 307.384826422 32.9873233855 300
v 307.529914531 32.8116952278 300
v 307.686773723 32.6464953389 300
v 307.854656491 32.4925109715 300
v 308.032762798 32.3504759313 300
v 308.220243886 32.2210670798 300
v 308.416206323 32.1049011091 300
v 308.619716257 32.0025316032 300
v 308.829803873 31.9144463991 300
v 309.045468006 31.8410652632 300
v 309.265680918 31.7827378898 300
v 309.489393195 31.7397422355 300
v 309.715538746 31.7122831942 300
v 309.943039885 31.7004916207 300
v 310.170812465 31.7044237072 300
v 310.397771045 31.7240607155 300
v 310.622834065 31.7593090663 300
v 310.844928997 31.8100007853 300
v 311.062997458 31.8758943033 300
v 311.276000252 31.9566756076 300
v 311.482922323 32.0519597385 300
v 311.682777594 32.1612926238 300
v 311.874613664 32.2841532426 300
v 312.057516346 32.4199561079 300
v 312.230614026 32.5680540573 300
v 312.393081814 32.7277413366 300
v 312.544145477 32.8982569632 300
v 312.683085128 33.0787883525 300
v 312.809238657 33.2684751903 300
v 312.922004885 33.4664135323 300
v 313.020846428 33.6716601122 300
v 313.105292263 33.8832368365 300
v 313.174939965 34.100135446 300
v 313.229457633 34.3213223198 300
v 313.268585465 34.5457434019 300
v 313.292136999 34.7723292235 300
v 315.5 30.7 304
v 315.5 44.5 304
v 303 44.5 304
v 303 35 304
v 297 35 304
v 297 44.5 304
v 293.3 35 304
v 293.292136999 35.2276707765 304
v 293.268585465 35.4542565981 304
v 293.229457633 35.6786776802 304
v 293.174939965 35.899864554 304
v 293.105292263 36.1167631635 304
v 293.020846428 36.3283398878 304
v 292.922004885 36.5335864677 304
v 292.809238657 36.7315248097 304
v 292.683085128 36.9212116475 304
v 292.544145477 37.1017430368 304
v 292.393081814 37.2722586634 304
v 292.230614026 37.4319459427 304
v 292.057516346 37.5800438921 304
v 291.874613664 37.7158467574 304
v 291.682777594 37.8387073762 304
v 291.482922323 37.9480402615 304
v 291.276000252 38.0433243924 304
v 291.062997458 38.1241056967 304
v 290.844928997 38.1899992147 304
v 290.622834065 38.2406909337 304
v 290.397771045 38.2759392845 304
v 290.170812465 38.2955762928 304
v 289.943039885 38.2995083793 304
v 289.715538746 38.2877168058 304
v 289.489393195 38.2602577645 304
v 289.265680918 38.2172621102 304
v 289.045468006 38.1589347368 304
v 288.829803873 38.0855536009 304
v 288.619716257 37.9974683968 304
v 288.416206323 37.8950988909 304
v 288.220243886 37.7789329202 304
v 288.032762798 37.6495240687 304
v 287.854656491 37.5074890285 304
v 287.686773723 37.3535046611 304
v 287.529914531 37.1883047722 304
v 287.384826422 37.0126766145 304
v 287.252200805 36.8274571362 304
v 287.132669703 36.6335289924 304
v 287.026802736 36.4318163391 304
v 286.935104408 36.2232804288 304
v 286.858011702 36.0089150303 304
v 286.795892002 35.7897416921 304
v 286.749041336 35.5668048752 304
v 286.717682969 35.3411669749 304
v 286.701966336 35.1139032586 304
v 286.701966336 34.8860967414 304
v 286.717682969 34.6588330251 304
v 286.749041336 34.4331951248 304
v 286.795892002 34.2102583079 304
v 286.858011702 33.9910849697 304
v 286.935104408 33.7767195712 304
v 287.026802736 33.5681836609 304
v 287.132669703 33.3664710076 304
v 287.252200805 33.1725428638 304
v 287.384826422 32.9873233855 304
v 287.529914531 32.8116952278 304
v 287.686773723 32.6464953389 304
v 287.854656491 32.4925109715 304
v 288.032762798 32.3504759313 304
v 288.220243886 32.2210670798 304
v 288.416206323 32.1049011091 304
v 288.619716257 32.0025316032 304
v 288.829803873 31.9144463991 304
v 289.045468006 31.8410652632 304
v 289.265680918 31.7827378898 304
v 289.489393195 31.7397422355 304
v 289.715538746 31.7122831942 304
v 289.943039885 31.7004916207 304
v 290.170812465 31.7044237072 304
v 290.397771045 31.7240607155 304
v 290.622834065 31.7593090663 304
v 290.844928997 31.8100007853 304
v 291.062997458 31.8758943033 304
v 291.276000252 31.9566756076 304
v 291.482922323 32.0519597385 304
v 291.682777594 32.1612926238 304
v 291.874613664 32.2841532426 304
v 292.057516346 32.4199561079 304
v 292.230614026 32.5680540573 304
v 292.393081814 32.7277413366 304
v 292.544145477 32.8982569632 304
v 292.683085128 33.0787883525 304
v 292.809238657 33.2684751903 304
v 292.922004885 33.4664135323 304
v 293.020846428 33.6716601122 304
v 293.105292263 33.8832368365 304
v 293.174939965 34.100135446 304
v 293.229457633 34.3213223198 304
v 293.268585465 34.5457434019 304
v 293.292136999 34.7723292235 304
v 313.3 35 304
v 313.292136999 35.2276707765 304
v 313.268585465 35.4542565981 304
v 313.229457633 35.6786776802 304
v 313.174939965 35.899864554 304
v 313.105292263 36.1167631635 304
v 313.020846428 36.3283398878 304
v 312.922004885 36.5335864677 304
v 312.809238657 36.7315248097 304
v 312.683085128 36.9212116475 304
v 312.544145477 37.1017430368 304
v 312.393081814 37.2722586634 304
v 312.230614026 37.4319459427 304
v 312.057516346 37.5800438921 304
v 311.874613664 37.7158467574 304
v 311.682777594 37.8387073762 304
v 311.482922323 37.9480402615 304
v 311.276000252 38.0433243924 304
v 311.062997458 38.1241056967 304
v 310.844928997 38.1899992147 304
v 310.622834065 38.2406909337 304
v 310.397771045 38.2759392845 304
v 310.170812465 38.2955762928 304
v 309.943039885 38.2995083793 304
v 309.715538746 38.2877168058 304
v 309.489393195 38.2602577645 304
v 309.265680918 38.2172621102 304
v 309.045468006 38.1589347368 304
v 308.829803873 38.0855536009 304
v 308.619716257 37.9974683968 304
v 308.416206323 37.8950988909 304
v 308.220243886 37.7789329202 304
v 308.032762798 37.6495240687 304
v 307.854656491 37.5074890285 304
v 307.686773723 37.3535046611 304
v 307.529914531 37.1883047722 304
v 307.384826422 37.0126766145 304
v 307.252200805 36.8274571362 304
v 307.132669703 36.6335289924 304
v 307.026802736 36.4318163391 304
v 306.935104408 36.2232804288 304
v 306.858011702 36.0089150303 304
v 306.795892002 35.7897416921 304
v 306.749041336 35.5668048752 304
v 306.717682969 35.3411669749 304
v 306.701966336 35.1139032586 304
v 306.701966336 34.8860967414 304
v 306.717682969 34.6588330251 304
v 306.749041336 34.4331951248 304
v 306.795892002 34.2102583079 304
v 306.858011702 33.9910849697 304
v 306.935104408 33.7767195712 304
v 307.026802736 33.5681836609 304
v 307.132669703 33.3664710076 304
v 307.252200805 33.1725428638 304
v 307.384826422 32.9873233855 304
v 307.529914531 32.8116952278 304
v 307.686773723 32.6464953389 304
v 307.854656491 32.4925109715 304
v 308.032762798 32.3504759313 304
v 308.220243886 32.2210670798 304
v 308.416206323 32.1049011091 304
v 308.619716257 32.0025316032 304
v 308.829803873 31.9144463991 304
v 309.045468006 31.8410652632 304
v 309.265680918 31.7827378898 304
v 309.489393195 31.7397422355 304
v 309.715538746 31.7122831942 304
v 309.943039885 31.7004916207 304
v 310.170812465 31.7044237072 304
v 310.397771045 31.7240607155 304
v 310.622834065 31.7593090663 304
v 310.844928997 31.8100007853 304
v 311.062997458 31.8758943033 304
v 311.276000252 31.9566756076 304
v 311.482922323 32.0519597385 304
v 311.682777594 32.1612926238 304
v 311.874613664 32.2841532426 304
v 312.057516346 32.4199561079 304
v 312.230614026 32.5680540573 304
v 312.393081814 32.7277413366 304
v 312.544145477 32.8982569632 304
v 312.683085128 33.0787883525 304
v 312.809238657 33.2684751903 304
v 312.922004885 33.4664135323 304
v 313.020846428 33.6716601122 304
v 313.105292263 33.8832368365 304
v 313.174939965 34.100135446 304
v 313.229457633 34.3213223198 304
v 313.268585465 34.5457434019 304
v 313.292136999 34.7723292235 304
v 315.5 45 300.5
v 297 45 303.5
v 297 45 316
v 303 45 316
v 303 45 303.5
v 315.5 45 303.5
v 316 30.7 300.5
v 316 30.7 303.5
v 316 44.5 300.5
v 316 44.5 303.5
v 297 35 316
v 297 40 312.1
v 297 39.8551185968 312.094996272
v 297 39.7109276194 312.080008932
v 297 39.5681142035 312.055109403
v 297 39.4273589202 312.020416342
v 297 39.2893325323 311.976095076
v 297 39.1546927986 311.922356818
v 297 39.0240813387 311.859457654
v 297 38.8981205756 311.787697327
v 297 38.7774107698 311.707417809
v 297 38.6625271584 311.619001667
v 297 38.5540172142 311.522870245
v 297 38.4523980364 311.419481653
v 297 38.3581538868 311.309328584
v 297 38.2717338816 311.192935968
v 297 38.1935498515 311.070858469
v 297 38.1239743791 310.943677842
v 297 38.063339023 310.81200016
v 297 38.0119327384 310.676452928
v 297 37.9700004997 310.537682089
v 297 37.9377421331 310.39634895
v 297 37.9153113644 310.253127029
v 297 37.9028150864 310.108698841
v 297 37.9003128495 309.963752654
v 297 37.9078165781 309.818979202
v 297 37.9252905135 309.675068397
v 297 37.9526513844 309.532706039
v 297 37.9897688038 309.392570549
v 297 38.0364658904 309.255329737
v 297 38.0925201111 309.121637618
v 297 38.1576643422 308.992131296
v 297 38.2315881417 308.867427928
v 297 38.313939229 308.748121781
v 297 38.4043251637 308.634781403
v 297 38.5023152157 308.527946914
v 297 38.6074424177 308.428127429
v 297 38.7192057908 308.335798632
v 297 38.8370727315 308.251400512
v 297 38.9604815503 308.175335266
v 297 39.0888441479 308.107965377
v 297 39.221548818 308.049611896
v 297 39.3579631625 308.000552902
v 297 39.497437105 307.961022183
v 297 39.6393059885 307.931208123
v 297 39.7828937432 307.911252798
v 297 39.9275161082 307.901251305
v 297 40.0724838918 307.901251305
v 297 40.2171062568 307.911252798
v 297 40.3606940115 307.931208123
v 297 40.502562895 307.961022183
v 297 40.6420368375 308.000552902
v 297 40.778451182 308.049611896
v 297 40.9111558521 308.107965377
v 297 41.0395184497 308.175335266
v 297 41.1629272685 308.251400512
v 297 41.2807942092 308.335798632
v 297 41.3925575823 308.428127429
v 297 41.4976847843 308.527946914
v 297 41.5956748363 308.634781403
v 297 41.686060771 308.748121781
v 297 41.7684118583 308.867427928
v 297 41.8423356578 308.992131296
v 297 41.9074798889 309.121637618
v 297 41.9635341096 309.255329737
v 297 42.0102311962 309.392570549
v 297 42.0473486156 309.532706039
v 297 42.0747094865 309.675068397
v 297 42.0921834219 309.818979202
v 297 42.0996871505 309.963752654
v 297 42.0971849136 310.108698841
v 297 42.0846886356 310.253127029
v 297 42.0622578669 310.39634895
v 297 42.0299995003 310.537682089
v 297 41.9880672616 310.676452928
v 297 41.936660977 310.81200016
v 297 41.8760256209 310.943677842
v 297 41.8064501485 311.070858469
v 297 41.7282661184 311.192935968
v 297 41.6418461132 311.309328584
v 297 41.5476019636 311.419481653
v 297 41.4459827858 311.522870245
v 297 41.3374728416 311.619001667
v 297 41.2225892302 311.707417809
v 297 41.1018794244 311.787697327
v 297 40.9759186613 311.859457654
v 297 40.8453072014 311.922356818
v 297 40.7106674677 311.976095076
v 297 40.5726410798 312.020416342
v 297 40.4318857965 312.055109403
v 297 40.2890723806 312.080008932
v 297 40.1448814032 312.094996272
v 303 35 316
v 303 40 312.1
v 303 39.8551185968 312.094996272
v 303 39.7109276194 312.080008932
v 303 39.5681142035 312.055109403
v 303 39.4273589202 312.020416342
v 303 39.2893325323 311.976095076
v 303 39.1546927986 311.922356818
v 303 39.0240813387 311.859457654
v 303 38.8981205756 311.787697327
v 303 38.7774107698 311.707417809
v 303 38.6625271584 311.619001667
v 303 38.5540172142 311.522870245
v 303 38.4523980364 311.419481653
v 303 38.3581538868 311.309328584
v 303 38.2717338816 311.192935968
v 303 38.1935498515 311.070858469
v 303 38.1239743791 310.943677842
v 303 38.063339023 310.81200016
v 303 38.0119327384 310.676452928
v 303 37.9700004997 310.537682089
v 303 37.9377421331 310.39634895
v 303 37.9153113644 310.253127029
v 303 37.9028150864 310.108698841
v 303 37.9003128495 309.963752654
v 303 37.9078165781 309.818979202
v 303 37.9252905135 309.675068397
v 303 37.9526513844 309.532706039
v 303 37.9897688038 309.392570549
v 303 38.0364658904 309.255329737
v 303 38.0925201111 309.121637618
v 303 38.1576643422 308.992131296
v 303 38.2315881417 308.867427928
v 303 38.313939229 308.748121781
v 303 38.4043251637 308.634781403
v 303 38.5023152157 308.527946914
v 303 38.6074424177 308.428127429
v 303 38.7192057908 308.335798632
v 303 38.8370727315 308.251400512
v 303 38.9604815503 308.175335266
v 303 39.0888441479 308.107965377
v 303 39.221548818 308.049611896
v 303 39.3579631625 308.000552902
v 303 39.497437105 307.961022183
v 303 39.6393059885 307.931208123
v 303 39.7828937432 307.911252798
v 303 39.9275161082 307.901251305
v 303 40.0724838918 307.901251305
v 303 40.2171062568 307.911252798
v 303 40.3606940115 307.931208123
v 303 40.502562895 307.961022183
v 303 40.6420368375 308.000552902
v 303 40.778451182 308.049611896
v 303 40.9111558521 308.107965377
v 303 41.0395184497 308.175335266
v 303 41.1629272685 308.251400512
v 303 41.2807942092 308.335798632
v 303 41.3925575823 308.428127429
v 303 41.4976847843 308.527946914
v 303 41.5956748363 308.634781403
v 303 41.686060771 308.748121781
v 303 41.7684118583 308.867427928
v 303 41.8423356578 308.992131296
v 303 41.9074798889 309.121637618
v 303 41.9635341096 309.255329737
v 303 42.0102311962 309.392570549
v 303 42.0473486156 309.532706039
v 303 42.0747094865 309.675068397
v 303 42.0921834219 309.818979202
v 303 42.0996871505 309.963752654
v 303 42.0971849136 310.108698841
v 303 42.0846886356 310.253127029
v 303 42.0622578669 310.39634895
v 303 42.0299995003 310.537682089
v 303 41.9880672616 310.676452928
v 303 41.936660977 310.81200016
v 303 41.8760256209 310.943677842
v 303 41.8064501485 311.070858469
v 303 41.7282661184 311.192935968
v 303 41.6418461132 311.309328584
v 303 41.5476019636 311.419481653
v 303 41.4459827858 311.522870245
v 303 41.3374728416 311.619001667
v 303 41.2225892302 311.707417809
v 303 41.1018794244 311.787697327
v 303 40.9759186613 311.859457654
v 303 40.8453072014 311.922356818
v 303 40.7106674677 311.976095076
v 303 40.5726410798 312.020416342
v 303 40.4318857965 312.055109403
v 303 40.2890723806 312.080008932
v 303 40.1448814032 312.094996272
f 2 3 1
f 2 4 3
f 5 2 1
f 5 1 6
f 8 7 1
f 8 1 3
f 4 2 9
f 10 4 9
f 11 3 4
f 11 12 3
f 6 1 7
f 5 9 2
f 13 5 6
f 13 6 14
f 73 74 7
f 75 7 74
f 72 73 7
f 76 7 75
f 71 72 7
f 77 7 76
f 70 71 7
f 78 7 77
f 69 70 7
f 79 7 78
f 68 69 7
f 80 7 79
f 67 68 7
f 81 7 80
f 66 67 7
f 82 7 81
f 65 66 7
f 83 7 82
f 64 65 7
f 84 7 83
f 63 64 7
f 85 7 84
f 62 63 7
f 86 7 85
f 61 62 7
f 87 7 86
f 60 61 7
f 8 37 38
f 8 38 39
f 8 39 40
f 8 40 41
f 8 41 42
f 8 42 43
f 8 43 44
f 8 44 45
f 8 45 46
f 8 46 47
f 8 47 48
f 8 48 49
f 8 49 50
f 8 50 51
f 8 51 52
f 8 52 53
f 8 53 54
f 8 54 55
f 8 60 7
f 8 55 56
f 8 56 57
f 8 57 58
f 8 58 59
f 8 59 60
f 36 37 8
f 35 36 8
f 34 35 8
f 33 34 8
f 165 96 97
f 164 165 97
f 164 97 98
f 166 96 165
f 166 95 96
f 163 164 98
f 163 98 99
f 167 95 166
f 167 94 95
f 162 163 99
f 162 99 100
f 168 93 94
f 168 94 167
f 161 162 100
f 161 100 101
f 169 92 93
f 169 93 168
f 160 161 101
f 160 101 102
f 170 92 169
f 170 91 92
f 159 160 102
f 159 102 103
f 171 90 91
f 171 91 170
f 158 159 103
f 158 103 104
f 172 89 90
f 172 90 171
f 157 158 104
f 157 104 105
f 173 88 89
f 173 89 172
f 156 157 105
f 156 105 106
f 174 88 173
f 174 87 88
f 155 156 106
f 155 106 107
f 154 155 107
f 154 107 17
f 153 17 18
f 153 154 17
f 152 18 19
f 152 153 18
f 151 152 19
f 151 19 20
f 150 20 21
f 150 151 20
f 149 21 22
f 149 150 21
f 148 22 23
f 148 149 22
f 147 23 24
f 147 148 23
f 146 24 25
f 146 147 24
f 145 25 26
f 145 146 25
f 144 26 27
f 144 145 26
f 143 27 28
f 143 144 27
f 142 28 29
f 142 143 28
f 141 29 30
f 141 142 29
f 140 30 31
f 140 141 30
f 139 31 32
f 139 140 31
f 15 7 87
f 15 87 174
f 15 174 175
f 15 175 176
f 15 176 177
f 15 177 178
f 15 178 179
f 15 179 180
f 15 180 181
f 15 181 182
f 15 182 183
f 15 183 184
f 15 184 185
f 15 185 186
f 15 186 187
f 15 187 188
f 15 188 189
f 15 189 190
f 15 190 191
f 138 32 33
f 138 33 8
f 138 139 32
f 192 15 191
f 193 15 192
f 194 15 193
f 195 15 194
f 196 15 195
f 197 15 196
f 198 15 197
f 108 15 198
f 109 15 108
f 110 15 109
f 111 15 110
f 16 113 114
f 16 114 115
f 16 115 116
f 16 116 117
f 16 117 118
f 16 118 119
f 16 119 120
f 16 120 121
f 16 121 122
f 16 122 123
f 16 123 124
f 16 124 125
f 16 125 126
f 16 126 127
f 16 127 128
f 16 128 129
f 16 15 111
f 16 129 130
f 16 130 131
f 16 131 132
f 16 132 133
f 16 133 134
f 16 134 135
f 16 135 136
f 16 136 137
f 16 137 138
f 16 138 8
f 16 111 112
f 16 112 113
f 12 8 3
f 261 9 262
f 263 262 9
f 260 9 261
f 264 263 9
f 259 9 260
f 265 264 9
f 258 9 259
f 266 265 9
f 257 9 258
f 267 266 9
f 256 9 257
f 268 267 9
f 255 9 256
f 269 268 9
f 254 9 255
f 270 269 9
f 253 9 254
f 271 270 9
f 252 9 253
f 272 271 9
f 251 9 252
f 273 272 9
f 250 9 251
f 274 273 9
f 249 9 250
f 275 274 9
f 248 9 249
f 10 228 227
f 10 229 228
f 10 230 229
f 10 231 230
f 10 232 231
f 10 233 232
f 10 234 233
f 10 235 234
f 10 236 235
f 10 237 236
f 10 238 237
f 10 239 238
f 10 9 248
f 10 240 239
f 10 241 240
f 10 242 241
f 10 243 242
f 10 244 243
f 10 245 244
f 10 246 245
f 10 247 246
f 10 248 247
f 203 206 205
f 203 207 206
f 203 208 207
f 203 209 208
f 203 210 209
f 203 211 210
f 203 212 211
f 203 213 212
f 203 214 213
f 203 284 283
f 203 285 284
f 203 286 285
f 203 287 286
f 203 288 287
f 203 289 288
f 203 290 289
f 203 291 290
f 203 292 291
f 203 293 292
f 203 294 293
f 203 295 294
f 203 205 295
f 352 202 353
f 354 202 203
f 354 203 283
f 354 353 202
f 351 202 352
f 355 354 283
f 355 283 282
f 350 202 351
f 356 355 282
f 356 282 281
f 349 202 350
f 357 281 280
f 357 356 281
f 348 202 349
f 358 357 280
f 358 280 279
f 347 202 348
f 359 358 279
f 359 279 278
f 346 202 347
f 360 359 278
f 360 278 277
f 345 202 346
f 361 360 277
f 361 277 276
f 344 202 345
f 362 361 276
f 362 276 275
f 343 202 344
f 204 215 214
f 204 216 215
f 204 217 216
f 204 218 217
f 204 219 218
f 204 220 219
f 204 221 220
f 204 222 221
f 204 223 222
f 204 224 223
f 204 225 224
f 204 226 225
f 204 227 226
f 204 214 203
f 204 10 227
f 342 202 343
f 341 202 342
f 340 202 341
f 339 202 340
f 338 202 339
f 337 202 338
f 336 202 337
f 335 202 336
f 334 202 335
f 333 202 334
f 332 202 333
f 199 362 275
f 199 275 9
f 199 363 362
f 199 364 363
f 199 365 364
f 199 366 365
f 199 367 366
f 199 368 367
f 199 369 368
f 199 370 369
f 199 371 370
f 199 372 371
f 199 373 372
f 199 374 373
f 199 375 374
f 199 376 375
f 199 377 376
f 199 378 377
f 199 379 378
f 380 379 199
f 381 380 199
f 382 381 199
f 383 382 199
f 201 323 322
f 201 324 323
f 201 325 324
f 201 326 325
f 201 327 326
f 201 328 327
f 201 329 328
f 201 330 329
f 201 331 330
f 201 332 331
f 201 202 332
f 384 383 199
f 321 201 322
f 385 384 199
f 320 201 321
f 386 385 199
f 296 386 199
f 297 296 199
f 298 297 199
f 299 298 199
f 200 201 320
f 200 300 299
f 200 301 300
f 200 302 301
f 200 303 302
f 200 304 303
f 200 305 304
f 200 306 305
f 200 307 306
f 200 308 307
f 200 309 308
f 200 310 309
f 200 311 310
f 200 312 311
f 200 313 312
f 200 314 313
f 200 315 314
f 200 316 315
f 200 317 316
f 200 318 317
f 200 319 318
f 200 320 319
f 200 299 199
f 10 11 4
f 388 12 11
f 390 388 389
f 390 391 388
f 392 387 391
f 387 12 388
f 387 388 391
f 15 6 7
f 15 14 6
f 199 9 5
f 199 5 13
f 13 393 394
f 13 14 393
f 387 8 12
f 16 8 387
f 395 393 15
f 16 395 15
f 206 17 205
f 206 18 17
f 207 19 18
f 207 18 206
f 208 20 19
f 208 19 207
f 209 20 208
f 209 21 20
f 210 21 209
f 210 22 21
f 211 22 210
f 211 23 22
f 211 24 23
f 212 24 211
f 213 24 212
f 213 25 24
f 214 26 25
f 214 27 26
f 214 25 213
f 215 27 214
f 216 28 27
f 216 29 28
f 216 27 215
f 217 29 216
f 218 30 29
f 218 31 30
f 218 29 217
f 219 31 218
f 220 32 31
f 220 33 32
f 220 31 219
f 221 33 220
f 222 34 33
f 222 33 221
f 223 35 34
f 223 34 222
f 224 36 35
f 224 35 223
f 225 37 36
f 225 36 224
f 226 38 37
f 226 37 225
f 227 39 38
f 227 40 39
f 227 38 226
f 228 40 227
f 229 41 40
f 229 40 228
f 230 42 41
f 230 41 229
f 231 43 42
f 231 44 43
f 231 42 230
f 232 45 44
f 232 44 231
f 233 45 232
f 234 45 233
f 234 46 45
f 235 46 234
f 235 47 46
f 236 47 235
f 236 48 47
f 236 49 48
f 237 49 236
f 237 50 49
f 238 50 237
f 239 50 238
f 239 51 50
f 240 52 51
f 240 51 239
f 241 53 52
f 241 52 240
f 242 54 53
f 242 53 241
f 243 55 54
f 243 56 55
f 243 54 242
f 244 57 56
f 244 56 243
f 245 57 244
f 246 58 57
f 246 57 245
f 247 59 58
f 247 60 59
f 247 58 246
f 248 60 247
f 249 61 60
f 249 62 61
f 249 60 248
f 250 62 249
f 251 63 62
f 251 62 250
f 252 64 63
f 252 63 251
f 253 65 64
f 253 64 252
f 254 66 65
f 254 65 253
f 255 67 66
f 255 66 254
f 256 68 67
f 256 67 255
f 257 69 68
f 257 68 256
f 258 70 69
f 258 69 257
f 259 71 70
f 259 70 258
f 260 71 259
f 260 72 71
f 260 73 72
f 261 73 260
f 262 73 261
f 262 74 73
f 262 75 74
f 263 75 262
f 264 75 263
f 264 76 75
f 265 76 264
f 265 77 76
f 266 77 265
f 266 78 77
f 266 79 78
f 267 79 266
f 268 79 267
f 268 80 79
f 269 80 268
f 269 81 80
f 270 81 269
f 270 82 81
f 270 83 82
f 271 83 270
f 272 83 271
f 272 84 83
f 273 84 272
f 273 85 84
f 274 85 273
f 274 86 85
f 275 87 86
f 275 86 274
f 276 88 87
f 276 87 275
f 277 89 88
f 277 88 276
f 278 90 89
f 278 91 90
f 278 89 277
f 279 91 278
f 280 92 91
f 280 91 279
f 281 93 92
f 281 94 93
f 281 92 280
f 282 94 281
f 283 95 94
f 283 94 282
f 284 96 95
f 284 97 96
f 284 95 283
f 285 97 284
f 286 97 285
f 286 98 97
f 287 98 286
f 287 99 98
f 288 99 287
f 288 100 99
f 289 100 288
f 289 101 100
f 290 101 289
f 290 102 101
f 290 103 102
f 291 103 290
f 292 103 291
f 292 104 103
f 293 104 292
f 293 105 104
f 293 106 105
f 294 106 293
f 295 106 294
f 295 107 106
f 205 107 295
f 205 17 107
f 297 108 296
f 297 109 108
f 298 110 109
f 298 109 297
f 299 111 110
f 299 110 298
f 300 111 299
f 300 112 111
f 301 112 300
f 301 113 112
f 302 113 301
f 302 114 113
f 302 115 114
f 303 115 302
f 304 115 303
f 304 116 115
f 305 117 116
f 305 118 117
f 305 116 304
f 306 118 305
f 307 119 118
f 307 120 119
f 307 118 306
f 308 120 307
f 309 121 120
f 309 122 121
f 309 120 308
f 310 122 309
f 311 123 122
f 311 124 123
f 311 122 310
f 312 124 311
f 313 125 124
f 313 124 312
f 314 126 125
f 314 125 313
f 315 127 126
f 315 126 314
f 316 128 127
f 316 127 315
f 317 129 128
f 317 128 316
f 318 130 129
f 318 131 130
f 318 129 317
f 319 131 318
f 320 132 131
f 320 131 319
f 321 133 132
f 321 132 320
f 322 134 133
f 322 135 134
f 322 133 321
f 323 136 135
f 323 135 322
f 324 136 323
f 325 136 324
f 325 137 136
f 326 137 325
f 326 138 137
f 327 138 326
f 327 139 138
f 327 140 139
f 328 140 327
f 328 141 140
f 329 141 328
f 330 141 329
f 330 142 141
f 331 143 142
f 331 142 330
f 332 144 143
f 332 143 331
f 333 145 144
f 333 144 332
f 334 146 145
f 334 147 146
f 334 145 333
f 335 148 147
f 335 147 334
f 336 148 335
f 337 149 148
f 337 148 336
f 338 150 149
f 338 151 150
f 338 149 337
f 339 151 338
f 340 152 151
f 340 153 152
f 340 151 339
f 341 153 340
f 342 154 153
f 342 153 341
f 343 155 154
f 343 154 342
f 344 156 155
f 344 155 343
f 345 157 156
f 345 156 344
f 346 158 157
f 346 157 345
f 347 159 158
f 347 158 346
f 348 160 159
f 348 159 347
f 349 161 160
f 349 160 348
f 350 162 161
f 350 161 349
f 351 162 350
f 351 163 162
f 351 164 163
f 352 164 351
f 353 164 352
f 353 165 164
f 353 166 165
f 354 166 353
f 355 166 354
f 355 167 166
f 356 167 355
f 356 168 167
f 357 168 356
f 357 169 168
f 357 170 169
f 358 170 357
f 359 170 358
f 359 171 170
f 360 171 359
f 360 172 171
f 361 172 360
f 361 173 172
f 361 174 173
f 362 174 361
f 363 174 362
f 363 175 174
f 364 175 363
f 364 176 175
f 365 176 364
f 365 177 176
f 366 178 177
f 366 177 365
f 367 179 178
f 367 178 366
f 368 180 179
f 368 179 367
f 369 181 180
f 369 182 181
f 369 180 368
f 370 182 369
f 371 183 182
f 371 182 370
f 372 184 183
f 372 185 184
f 372 183 371
f 373 185 372
f 374 186 185
f 374 185 373
f 375 187 186
f 375 188 187
f 375 186 374
f 376 188 375
f 377 188 376
f 377 189 188
f 378 189 377
f 378 190 189
f 379 190 378
f 379 191 190
f 380 191 379
f 380 192 191
f 381 192 380
f 381 193 192
f 381 194 193
f 382 194 381
f 383 194 382
f 383 195 194
f 384 195 383
f 384 196 195
f 384 197 196
f 385 197 384
f 386 197 385
f 386 198 197
f 296 198 386
f 296 108 198
f 204 11 10
f 204 388 11
f 200 199 394
f 200 394 396
f 454 455 204
f 456 204 455
f 453 454 204
f 457 204 456
f 452 453 204
f 458 204 457
f 451 452 204
f 459 204 458
f 450 451 204
f 460 204 459
f 449 450 204
f 461 204 460
f 448 449 204
f 462 204 461
f 447 448 204
f 463 204 462
f 446 447 204
f 464 204 463
f 445 446 204
f 465 204 464
f 444 445 204
f 466 204 465
f 443 444 204
f 203 438 439
f 203 439 440
f 203 440 441
f 203 443 204
f 203 441 442
f 203 442 443
f 437 438 203
f 436 437 203
f 435 436 203
f 434 435 203
f 433 434 203
f 432 433 203
f 431 432 203
f 430 431 203
f 429 430 203
f 428 429 203
f 389 388 204
f 389 204 466
f 389 466 467
f 389 467 468
f 389 468 469
f 389 469 470
f 389 470 471
f 389 471 472
f 389 472 473
f 389 473 474
f 389 474 475
f 389 475 476
f 389 476 477
f 389 477 478
f 389 478 479
f 389 479 480
f 389 480 481
f 389 481 482
f 427 428 203
f 483 389 482
f 426 427 203
f 484 389 483
f 425 426 203
f 485 389 484
f 424 425 203
f 486 389 485
f 423 424 203
f 487 389 486
f 422 423 203
f 488 389 487
f 421 422 203
f 398 389 488
f 397 398 399
f 397 399 400
f 397 400 401
f 397 401 402
f 397 402 403
f 397 403 404
f 397 404 405
f 397 405 406
f 397 406 407
f 397 407 408
f 397 408 409
f 397 409 410
f 397 410 411
f 397 411 412
f 397 412 413
f 397 413 414
f 397 414 415
f 397 415 416
f 397 416 417
f 397 417 418
f 397 418 419
f 397 419 420
f 397 420 421
f 397 421 203
f 397 389 398
f 392 391 201
f 200 392 201
f 489 203 202
f 489 397 203
f 546 201 547
f 548 547 201
f 545 201 546
f 549 548 201
f 544 201 545
f 550 549 201
f 543 201 544
f 551 550 201
f 542 201 543
f 552 551 201
f 541 201 542
f 553 552 201
f 540 201 541
f 554 553 201
f 539 201 540
f 555 554 201
f 538 201 539
f 556 555 201
f 537 201 538
f 557 556 201
f 536 201 537
f 558 557 201
f 535 201 536
f 202 531 530
f 202 532 531
f 202 533 532
f 202 201 535
f 202 534 533
f 202 535 534
f 529 202 530
f 528 202 529
f 527 202 528
f 526 202 527
f 525 202 526
f 524 202 525
f 523 202 524
f 522 202 523
f 521 202 522
f 520 202 521
f 390 201 391
f 390 558 201
f 390 559 558
f 390 560 559
f 390 561 560
f 390 562 561
f 390 563 562
f 390 564 563
f 390 565 564
f 390 566 565
f 390 567 566
f 390 568 567
f 390 569 568
f 390 570 569
f 390 571 570
f 390 572 571
f 390 573 572
f 390 574 573
f 519 202 520
f 575 574 390
f 518 202 519
f 576 575 390
f 517 202 518
f 577 576 390
f 516 202 517
f 578 577 390
f 515 202 516
f 579 578 390
f 514 202 515
f 580 579 390
f 513 202 514
f 490 580 390
f 489 491 490
f 489 492 491
f 489 493 492
f 489 494 493
f 489 495 494
f 489 496 495
f 489 497 496
f 489 498 497
f 489 499 498
f 489 500 499
f 489 501 500
f 489 502 501
f 489 503 502
f 489 504 503
f 489 505 504
f 489 506 505
f 489 507 506
f 489 508 507
f 489 509 508
f 489 510 509
f 489 511 510
f 489 512 511
f 489 513 512
f 489 202 513
f 489 490 390
f 390 389 397
f 390 397 489
f 392 396 395
f 392 395 387
f 14 15 393
f 13 394 199
f 394 393 395
f 394 395 396
f 387 395 16
f 200 396 392
f 491 398 490
f 491 399 398
f 492 400 399
f 492 399 491
f 493 401 400
f 493 400 492
f 494 401 493
f 494 402 401
f 494 403 402
f 495 403 494
f 496 403 495
f 496 404 403
f 497 404 496
f 497 405 404
f 497 406 405
f 498 406 497
f 499 407 406
f 499 406 498
f 500 408 407
f 500 407 499
f 501 409 408
f 501 408 500
f 502 410 409
f 502 411 410
f 502 409 501
f 503 411 502
f 504 412 411
f 504 413 412
f 504 411 503
f 505 413 504
f 506 414 413
f 506 413 505
f 507 415 414
f 507 414 506
f 508 416 415
f 508 415 507
f 509 417 416
f 509 418 417
f 509 416 508
f 510 418 509
f 511 419 418
f 511 420 419
f 511 418 510
f 512 420 511
f 513 421 420
f 513 422 421
f 513 420 512
f 514 422 513
f 515 423 422
f 515 422 514
f 516 424 423
f 516 425 424
f 516 423 515
f 517 425 516
f 518 426 425
f 518 425 517
f 519 427 426
f 519 426 518
f 520 427 519
f 520 428 427
f 521 428 520
f 521 429 428
f 522 429 521
f 522 430 429
f 522 431 430
f 523 431 522
f 524 431 523
f 524 432 431
f 525 433 432
f 525 432 524
f 526 434 433
f 526 433 525
f 527 435 434
f 527 434 526
f 528 436 435
f 528 437 436
f 528 435 527
f 529 437 528
f 530 438 437
f 530 437 529
f 531 439 438
f 531 438 530
f 532 440 439
f 532 439 531
f 533 441 440
f 533 442 441
f 533 440 532
f 534 442 533
f 535 443 442
f 535 442 534
f 536 444 443
f 536 445 444
f 536 443 535
f 537 446 445
f 537 445 536
f 538 446 537
f 539 447 446
f 539 446 538
f 540 448 447
f 540 447 539
f 541 449 448
f 541 448 540
f 542 450 449
f 542 449 541
f 543 451 450
f 543 450 542
f 544 452 451
f 544 451 543
f 545 452 544
f 545 453 452
f 546 453 545
f 546 454 453
f 546 455 454
f 547 455 546
f 548 455 547
f 548 456 455
f 549 456 548
f 549 457 456
f 550 457 549
f 550 458 457
f 551 458 550
f 551 459 458
f 552 459 551
f 552 460 459
f 552 461 460
f 553 461 552
f 553 462 461
f 554 462 553
f 555 462 554
f 555 463 462
f 555 464 463
f 556 464 555
f 557 464 556
f 557 465 464
f 558 465 557
f 558 466 465
f 559 466 558
f 559 467 466
f 560 468 467
f 560 467 559
f 561 469 468
f 561 470 469
f 561 468 560
f 562 470 561
f 563 471 470
f 563 472 471
f 563 470 562
f 564 472 563
f 565 473 472
f 565 472 564
f 566 474 473
f 566 475 474
f 566 473 565
f 567 476 475
f 567 475 566
f 568 476 567
f 569 477 476
f 569 476 568
f 570 477 569
f 570 478 477
f 571 478 570
f 571 479 478
f 572 479 571
f 572 480 479
f 572 481 480
f 573 481 572
f 574 481 573
f 574 482 481
f 575 482 574
f 575 483 482
f 576 483 575
f 576 484 483
f 576 485 484
f 577 485 576
f 578 485 577
f 578 486 485
f 579 486 578
f 579 487 486
f 579 488 487
f 580 488 579
f 490 488 580
f 490 398 488
