# SimpleCAD BREP tessellation for MuJoCo
v -3.18408167778e-15 71 273
v -3.18408167778e-15 76 273
v 0.896884877256 76 272.96902454
v 1.78949568963 76 272.876245772
v 2.67357874012 76 272.722105829
v 3.54492097036 76 272.507339258
v 4.39937003784 76 272.23296952
v 5.23285410362 76 271.900304111
v 6.04140123657 76 271.510928333
v 6.82115834139 76 271.066697741
v 7.56840952037 76 270.569729293
v 8.27959378135 76 270.022391272
v 8.95132200746 76 269.427291993
v 9.5803931078 76 268.787267374
v 10.1638092721 76 268.105367424
v 10.6987902566 76 267.384841708
v 11.1827866334 76 266.629123857
v 11.6134919392 76 265.841815213
v 11.9888536672 76 265.026667658
v 12.3070830478 76 264.187565743
v 12.566663573 76 263.328508171
v 12.7663582235 76 262.453588741
v 12.9052153633 76 261.566976843
v 12.9825732748 76 260.672897587
v 12.9980633125 76 259.775611668
v 12.9516116592 76 258.879395062
v 12.8434396783 76 257.988518648
v 12.6740628584 76 257.107227859
v 12.4442883572 76 256.239722446
v 12.1552111549 76 255.390136468
v 11.808208836 76 254.56251859
v 11.4049350246 76 253.760812787
v 10.947311504 76 252.988839552
v 10.4375190587 76 252.250277689
v 9.87798708188 76 251.548646782
v 9.2713819982 76 250.887290423
v 8.62059455713 76 250.269360274
v 7.9287260572 76 249.697801055
v 7.19907356689 76 249.175336505
v 6.43511421259 76 248.704456407
v 5.64048860853 76 248.287404717
v 4.81898350759 76 247.926168878
v 3.97451375568 76 247.622470343
v 3.11110363574 76 247.377756373
v 2.23286769019 76 247.193193143
v 1.34399111325 76 247.069660179
v 0.448709806606 76 247.007746173
v -0.448709806606 76 247.007746173
v -1.34399111325 76 247.069660179
v -2.23286769019 76 247.193193143
v -3.11110363574 76 247.377756373
v -3.97451375568 76 247.622470343
v -4.81898350759 76 247.926168878
v -5.64048860853 76 248.287404717
v -6.43511421259 76 248.704456407
v -7.19907356689 76 249.175336505
v -7.9287260572 76 249.697801055
v -8.62059455713 76 250.269360274
v -9.2713819982 76 250.887290423
v -9.87798708188 76 251.548646782
v -10.4375190587 76 252.250277689
v -10.947311504 76 252.988839552
v -11.4049350246 76 253.760812787
v -11.808208836 76 254.56251859
v -12.1552111549 76 255.390136468
v -12.4442883572 76 256.239722446
v -12.6740628584 76 257.107227859
v -12.8434396783 76 257.988518648
v -12.9516116592 76 258.879395062
v -12.9980633125 76 259.775611668
v -12.9825732748 76 260.672897587
v -12.9052153633 76 261.566976843
v -12.7663582235 76 262.453588741
v -12.566663573 76 263.328508171
v -12.3070830478 76 264.187565743
v -11.9888536672 76 265.026667658
v -11.6134919392 76 265.841815213
v -11.1827866334 76 266.629123857
v -10.6987902566 76 267.384841708
v -10.1638092721 76 268.105367424
v -9.5803931078 76 268.787267374
v -8.95132200746 76 269.427291993
v -8.27959378135 76 270.022391272
v -7.56840952037 76 270.569729293
v -6.82115834139 76 271.066697741
v -6.04140123657 76 271.510928333
v -5.23285410362 76 271.900304111
v -4.39937003784 76 272.23296952
v -3.54492097036 76 272.507339258
v -2.67357874012 76 272.722105829
v -1.78949568963 76 272.876245772
v -0.896884877256 76 272.96902454
v 0.896884877256 71 272.96902454
v 1.78949568963 71 272.876245772
v 2.67357874012 71 272.722105829
v 3.54492097036 71 272.507339258
v 4.39937003784 71 272.23296952
v 5.23285410362 71 271.900304111
v 6.04140123657 71 271.510928333
v 6.82115834139 71 271.066697741
v 7.56840952037 71 270.569729293
v 8.27959378135 71 270.022391272
v 8.95132200746 71 269.427291993
v 9.5803931078 71 268.787267374
v 10.1638092721 71 268.105367424
v 10.6987902566 71 267.384841708
v 11.1827866334 71 266.629123857
v 11.6134919392 71 265.841815213
v 11.9888536672 71 265.026667658
v 12.3070830478 71 264.187565743
v 12.566663573 71 263.328508171
v 12.7663582235 71 262.453588741
v 12.9052153633 71 261.566976843
v 12.9825732748 71 260.672897587
v 12.9980633125 71 259.775611668
v 12.9516116592 71 258.879395062
v 12.8434396783 71 257.988518648
v 12.6740628584 71 257.107227859
v 12.4442883572 71 256.239722446
v 12.1552111549 71 255.390136468
v 11.808208836 71 254.56251859
v 11.4049350246 71 253.760812787
v 10.947311504 71 252.988839552
v 10.4375190587 71 252.250277689
v 9.87798708188 71 251.548646782
v 9.2713819982 71 250.887290423
v 8.62059455713 71 250.269360274
v 7.9287260572 71 249.697801055
v 7.19907356689 71 249.175336505
v 6.43511421259 71 248.704456407
v 5.64048860853 71 248.287404717
v 4.81898350759 71 247.926168878
v 3.97451375568 71 247.622470343
v 3.11110363574 71 247.377756373
v 2.23286769019 71 247.193193143
v 1.34399111325 71 247.069660179
v 0.448709806606 71 247.007746173
v -0.448709806606 71 247.007746173
v -1.34399111325 71 247.069660179
v -2.23286769019 71 247.193193143
v -3.11110363574 71 247.377756373
v -3.97451375568 71 247.622470343
v -4.81898350759 71 247.926168878
v -5.64048860853 71 248.287404717
v -6.43511421259 71 248.704456407
v -7.19907356689 71 249.175336505
v -7.9287260572 71 249.697801055
v -8.62059455713 71 250.269360274
v -9.2713819982 71 250.887290423
v -9.87798708188 71 251.548646782
v -10.4375190587 71 252.250277689
v -10.947311504 71 252.988839552
v -11.4049350246 71 253.760812787
v -11.808208836 71 254.56251859
v -12.1552111549 71 255.390136468
v -12.4442883572 71 256.239722446
v -12.6740628584 71 257.107227859
v -12.8434396783 71 257.988518648
v -12.9516116592 71 258.879395062
v -12.9980633125 71 259.775611668
v -12.9825732748 71 260.672897587
v -12.9052153633 71 261.566976843
v -12.7663582235 71 262.453588741
v -12.566663573 71 263.328508171
v -12.3070830478 71 264.187565743
v -11.9888536672 71 265.026667658
v -11.6134919392 71 265.841815213
v -11.1827866334 71 266.629123857
v -10.6987902566 71 267.384841708
v -10.1638092721 71 268.105367424
v -9.5803931078 71 268.787267374
v -8.95132200746 71 269.427291993
v -8.27959378135 71 270.022391272
v -7.56840952037 71 270.569729293
v -6.82115834139 71 271.066697741
v -6.04140123657 71 271.510928333
v -5.23285410362 71 271.900304111
v -4.39937003784 71 272.23296952
v -3.54492097036 71 272.507339258
v -2.67357874012 71 272.722105829
v -1.78949568963 71 272.876245772
v -0.896884877256 71 272.96902454
v 12.8292634239 73.5 262.1
v 12.8299577728 73.3665206259 262.095753612
v 12.8320329631 73.2334099899 262.083009778
v 12.8354680874 73.1009499639 262.061736912
v 12.8402293576 72.9694439966 262.031873608
v 12.8462689864 72.8392226142 261.993332196
v 12.8535238398 72.7106488175 261.946002231
v 12.8619139112 72.5841235135 261.889754018
v 12.8713406622 72.4600911195 261.824442254
v 12.8816852812 72.3390454787 261.749909888
v 12.8928069047 72.2215362232 261.665992305
v 12.9045408524 72.1081757252 261.572521916
v 12.9154682929 72.0102611987 261.480094024
v 12.9254659265 71.925938506 261.390082884
v 12.9355044343 71.8455287824 261.29333872
v 12.9455445339 71.7687798082 261.18864492
v 12.9553776548 71.6967223862 261.076192274
v 12.9647602369 71.6305059665 260.956552134
v 12.9734519779 71.5711515802 260.830387729
v 12.9812239425 71.519551793 260.698444675
v 12.9878663281 71.4764704638 260.561540956
v 12.9931956115 71.442542306 260.420556534
v 12.9967437414 71.4202529416 260.290950373
v 12.9988527243 71.4071139226 260.172707423
v 12.9998899121 71.4006815949 260.053500215
v 12.9998317891 71.4010415443 259.933867926
v 12.9986743948 71.408221803 259.814355241
v 12.9964335457 71.4221922985 259.695508456
v 12.993144638 71.4428642409 259.577871554
v 12.9888626273 71.4700856252 259.461996618
v 12.9837037197 71.5033621102 259.349279344
v 12.9777935957 71.5421625954 259.240478469
v 12.9712378792 71.586100232 259.13571548
v 12.9641410442 71.634804924 259.03509214
v 12.9566054953 71.6879223458 258.938692139
v 12.94873077 71.7451130413 258.846582613
v 12.9406128552 71.8060516017 258.75881553
v 12.9323436104 71.8704259171 258.675428946
v 12.924010288 71.9379364986 258.596448159
v 12.9156951438 72.0082958659 258.521886738
v 12.9074751297 72.081227998 258.451747466
v 12.8994216595 72.1564678409 258.386023182
v 12.8916004409 72.2337608704 258.324697535
v 12.8840713644 72.312862704 258.267745668
v 12.8768884425 72.3935387599 258.215134824
v 12.8700997896 72.4755639571 258.166824891
v 12.8637476357 72.5587224538 258.122768892
v 12.8578650909 72.6428566532 258.082891419
v 12.8524597803 72.7281693777 258.046982429
v 12.8475590603 72.8145994398 258.014999689
v 12.8431924062 72.9020106702 257.98694043
v 12.8393856991 72.9902695823 257.962802205
v 12.8361612196 73.079245002 257.942582903
v 12.8335376425 73.1688077057 257.926280746
v 12.8315300325 73.2588300655 257.913894295
v 12.8301498403 73.3491857013 257.905422456
v 12.8294049 73.4397491361 257.900864477
v 12.8292994274 73.530395456 257.900219955
v 12.8298340186 73.6209999713 257.903488833
v 12.8310056501 73.7114378791 257.910671399
v 12.8328076795 73.8015839255 257.921768292
v 12.835229847 73.8913120657 257.936780492
v 12.8382582782 73.9804951209 257.955709326
v 12.8418754868 74.0690044322 257.978556459
v 12.8460603794 74.1567095074 258.005323895
v 12.8507882604 74.243477662 258.036013969
v 12.8560308375 74.3291736521 258.070629345
v 12.8617570414 74.41367074 258.109178542
v 12.8679531295 74.4971048577 258.151816564
v 12.8745929018 74.5794177859 258.198651237
v 12.8816364808 74.660413066 258.249731007
v 12.8890384674 74.7398840132 258.305099543
v 12.8967478569 74.8176133615 258.364795144
v 12.904707981 74.8933728687 258.428850105
v 12.9128564837 74.9669228752 258.497290008
v 12.9211253392 75.0380118148 258.570132955
v 12.9294409222 75.1063756706 258.647388711
v 12.9377241384 75.1717373749 258.729057769
v 12.9458906237 75.2338061457 258.815130323
v 12.953851022 75.2922767588 258.905585136
v 12.9615113498 75.3468287492 259.000388305
v 12.9687734561 75.3971255383 259.099491913
v 12.9755355875 75.4428134834 259.20283255
v 12.9816930658 75.483520844 259.310329719
v 12.9871320899 75.5188115082 259.421726636
v 12.9917213594 75.5481269129 259.536129193
v 12.9953657687 75.5711184079 259.652914221
v 12.9979914016 75.5875297599 259.771484087
v 12.9995449383 75.5971811129 259.891227776
v 12.9999948904 75.5999683667 260.011526041
v 12.9993322989 75.5958626364 260.131756528
v 12.9975708833 75.5849097948 260.251298892
v 12.9947466415 75.5672301012 260.369539883
v 12.9909169108 75.5430179173 260.485878402
v 12.9861589135 75.5125415111 260.599730503
v 12.9805678216 75.476142947 260.710534322
v 12.9742543871 75.4342380601 260.817754909
v 12.967342195 75.3873165122 260.92088892
v 12.9599646104 75.3359419239 261.019469132
v 12.9522614999 75.2807520786 261.113068748
v 12.9443387082 75.2221802315 261.201705165
v 12.9362460333 75.1602595278 261.285899834
v 12.9280661021 75.0952721628 261.365689116
v 12.9198766271 75.0274855114 261.441106513
v 12.9117497393 74.9571482921 261.512190066
v 12.9037520935 74.8844919423 261.578981324
v 12.8959450078 74.8097318877 261.641524409
v 12.8883846294 74.7330687171 261.699865164
v 12.8811221227 74.6546892692 261.754050381
v 12.8742038728 74.5747676435 261.804127086
v 12.8676716991 74.4934661431 261.850141892
v 12.8615630768 74.4109361575 261.892140398
v 12.8559113593 74.3273189949 261.930166635
v 12.8507459997 74.2427466715 261.964262547
v 12.846092768 74.1573426646 261.994467504
v 12.8419739606 74.0712226391 262.020817836
v 12.8384086002 73.984495152 262.043346394
v 12.8354126247 73.8972623431 262.062082116
v 12.8329990631 73.8096206181 262.077049605
v 12.8311781971 73.7216613297 262.088268712
v 12.8299577098 73.6334714634 262.095754119
v 12.8294371287 73.5667603346 262.098938551
v -1.98392781462e-15 71 268.1
v 0.558828269675 71 268.080699906
v 1.11499346816 71 268.022891596
v 1.665845215 71 267.926850555
v 2.20875845076 71 267.793034461
v 2.74114594665 71 267.622081008
v 3.26047063379 71 267.414804869
v 3.76425769355 71 267.172193808
v 4.25010635117 71 266.895403977
v 4.71570131654 71 266.585754406
v 5.15882381761 71 266.244720716
v 5.57736217388 71 265.873928088
v 5.96932185947 71 265.475143518
v 6.33283500799 71 265.050267395
v 6.66616931374 71 264.601324449
v 6.96773628695 71 264.130454096
v 7.23609882366 71 263.639900248
v 7.46997805418 71 263.132000618
v 7.66825943746 71 262.609175579
v 7.82999807242 71 262.073916629
v 7.95442320079 71 261.528774523
v 8.04094188019 71 260.97634711
v 8.08914180971 71 260.419266958
v 8.09879329473 71 259.860188809
v 8.06985034153 71 259.301776923
v 8.00245087646 71 258.746692388
v 7.89691608867 71 258.197580435
v 7.75374889948 71 257.657057832
v 7.57363156575 71 257.127700415
v 7.3574224286 71 256.612030814
v 7.10615182302 71 256.112506429
v 6.82101716787 71 255.631507721
v 6.50337725965 71 255.171326868
v 6.15474579717 71 254.734156841
v 5.77678416811 71 254.322080956
v 5.37129353175 71 253.93706294
v 4.94020623564 71 253.58093758
v 4.48557660706 71 253.255401976
v 4.00957116323 71 252.962007453
v 3.51445828685 71 252.70215217
v 3.00259741627 71 252.477074455
v 2.47642780161 71 252.287846906
v 1.93845688073 71 252.135371279
v 1.39124833004 71 252.020374189
v 0.837409847486 71 251.94340365
v 0.279580725655 71 251.904826462
v -0.279580725655 71 251.904826462
v -0.837409847486 71 251.94340365
v -1.39124833004 71 252.020374189
v -1.93845688073 71 252.135371279
v -2.47642780161 71 252.287846906
v -3.00259741627 71 252.477074455
v -3.51445828685 71 252.70215217
v -4.00957116323 71 252.962007453
v -4.48557660706 71 253.255401976
v -4.94020623564 71 253.58093758
v -5.37129353175 71 253.93706294
v -5.77678416811 71 254.322080956
v -6.15474579717 71 254.734156841
v -6.50337725965 71 255.171326868
v -6.82101716787 71 255.631507721
v -7.10615182302 71 256.112506429
v -7.3574224286 71 256.612030814
v -7.57363156575 71 257.127700415
v -7.75374889948 71 257.657057832
v -7.89691608867 71 258.197580435
v -8.00245087646 71 258.746692388
v -8.06985034153 71 259.301776923
v -8.09879329473 71 259.860188809
v -8.08914180971 71 260.419266958
v -8.04094188019 71 260.97634711
v -7.95442320079 71 261.528774523
v -7.82999807242 71 262.073916629
v -7.66825943746 71 262.609175579
v -7.46997805418 71 263.132000618
v -7.23609882366 71 263.639900248
v -6.96773628695 71 264.130454096
v -6.66616931374 71 264.601324449
v -6.33283500799 71 265.050267395
v -5.96932185947 71 265.475143518
v -5.57736217388 71 265.873928088
v -5.15882381761 71 266.244720716
v -4.71570131654 71 266.585754406
v -4.25010635117 71 266.895403977
v -3.76425769355 71 267.172193808
v -3.26047063379 71 267.414804869
v -2.74114594665 71 267.622081008
v -2.20875845076 71 267.793034461
v -1.665845215 71 267.926850555
v -1.11499346816 71 268.022891596
v -0.558828269675 71 268.080699906
v -1.98392781462e-15 76 268.1
v 0.558828269675 76 268.080699906
v 1.11499346816 76 268.022891596
v 1.665845215 76 267.926850555
v 2.20875845076 76 267.793034461
v 2.74114594665 76 267.622081008
v 3.26047063379 76 267.414804869
v 3.76425769355 76 267.172193808
v 4.25010635117 76 266.895403977
v 4.71570131654 76 266.585754406
v 5.15882381761 76 266.244720716
v 5.57736217388 76 265.873928088
v 5.96932185947 76 265.475143518
v 6.33283500799 76 265.050267395
v 6.66616931374 76 264.601324449
v 6.96773628695 76 264.130454096
v 7.23609882366 76 263.639900248
v 7.46997805418 76 263.132000618
v 7.66825943746 76 262.609175579
v 7.82999807242 76 262.073916629
v 7.95442320079 76 261.528774523
v 8.04094188019 76 260.97634711
v 8.08914180971 76 260.419266958
v 8.09879329473 76 259.860188809
v 8.06985034153 76 259.301776923
v 8.00245087646 76 258.746692388
v 7.89691608867 76 258.197580435
v 7.75374889948 76 257.657057832
v 7.57363156575 76 257.127700415
v 7.3574224286 76 256.612030814
v 7.10615182302 76 256.112506429
v 6.82101716787 76 255.631507721
v 6.50337725965 76 255.171326868
v 6.15474579717 76 254.734156841
v 5.77678416811 76 254.322080956
v 5.37129353175 76 253.93706294
v 4.94020623564 76 253.58093758
v 4.48557660706 76 253.255401976
v 4.00957116323 76 252.962007453
v 3.51445828685 76 252.70215217
v 3.00259741627 76 252.477074455
v 2.47642780161 76 252.287846906
v 1.93845688073 76 252.135371279
v 1.39124833004 76 252.020374189
v 0.837409847486 76 251.94340365
v 0.279580725655 76 251.904826462
v -0.279580725655 76 251.904826462
v -0.837409847486 76 251.94340365
v -1.39124833004 76 252.020374189
v -1.93845688073 76 252.135371279
v -2.47642780161 76 252.287846906
v -3.00259741627 76 252.477074455
v -3.51445828685 76 252.70215217
v -4.00957116323 76 252.962007453
v -4.48557660706 76 253.255401976
v -4.94020623564 76 253.58093758
v -5.37129353175 76 253.93706294
v -5.77678416811 76 254.322080956
v -6.15474579717 76 254.734156841
v -6.50337725965 76 255.171326868
v -6.82101716787 76 255.631507721
v -7.10615182302 76 256.112506429
v -7.3574224286 76 256.612030814
v -7.57363156575 76 257.127700415
v -7.75374889948 76 257.657057832
v -7.89691608867 76 258.197580435
v -8.00245087646 76 258.746692388
v -8.06985034153 76 259.301776923
v -8.09879329473 76 259.860188809
v -8.08914180971 76 260.419266958
v -8.04094188019 76 260.97634711
v -7.95442320079 76 261.528774523
v -7.82999807242 76 262.073916629
v -7.66825943746 76 262.609175579
v -7.46997805418 76 263.132000618
v -7.23609882366 76 263.639900248
v -6.96773628695 76 264.130454096
v -6.66616931374 76 264.601324449
v -6.33283500799 76 265.050267395
v -5.96932185947 76 265.475143518
v -5.57736217388 76 265.873928088
v -5.15882381761 76 266.244720716
v -4.71570131654 76 266.585754406
v -4.25010635117 76 266.895403977
v -3.76425769355 76 267.172193808
v -3.26047063379 76 267.414804869
v -2.74114594665 76 267.622081008
v -2.20875845076 76 267.793034461
v -1.665845215 76 267.926850555
v -1.11499346816 76 268.022891596
v -0.558828269675 76 268.080699906
v 7.82304288624 73.5 262.1
v 7.82415692522 73.3679705682 262.095845455
v 7.82748437257 73.2363491279 262.083383829
v 7.83298741598 73.1054219764 262.062597442
v 7.84060638355 72.9754923477 262.033443326
v 7.8502585305 72.8468852341 261.995855983
v 7.86183658583 72.7199521767 261.949750077
v 7.87520710825 72.5950761395 261.895023163
v 7.89020870047 72.4726765856 261.831558521
v 7.90665013134 72.3532148716 261.759228209
v 7.92430841501 72.2372000752 261.677896406
v 7.94292689638 72.1251953752 261.587423141
v 7.96221339217 72.0178250992 261.487668501
v 7.97987088414 71.9257257387 261.389841919
v 7.99580885344 71.8468335402 261.295006071
v 8.0117537742 71.7713592652 261.192393113
v 8.02738726195 71.7002927494 261.08215238
v 8.04233096222 71.6347688868 260.964838224
v 8.05621295641 71.5757944017 260.841090254
v 8.06867961129 71.5242492968 260.711624367
v 8.07940672712 71.4808880223 260.577223413
v 8.08810967476 71.4463403344 260.438727633
v 8.09401532405 71.4232034551 260.311313409
v 8.09765302241 71.4090709274 260.194975853
v 8.09962842505 71.4014336516 260.077584283
v 8.09989950385 71.4003876167 259.959652642
v 8.09845301716 71.4059748472 259.841700659
v 8.0953049534 71.4181829765 259.724250437
v 8.0905004405 71.4369447045 259.607823031
v 8.08411312767 71.4621371361 259.492934969
v 8.07628703051 71.4934077034 259.380655674
v 8.0672356259 71.5301544727 259.272189144
v 8.05712190903 71.5719922632 259.167662228
v 8.0461061981 71.6185578056 259.06716816
v 8.03434579869 71.6695050189 258.970782769
v 8.02199392583 71.7245039769 258.878566148
v 8.00919877356 71.7832399778 258.79056416
v 7.9961027221 71.8454127088 258.706809796
v 7.98284167276 71.9107354968 258.627324394
v 7.96954450077 71.9789346349 258.552118747
v 7.95633261609 72.049748778 258.481194096
v 7.94331962243 72.1229283963 258.414543026
v 7.93061106452 72.1982352797 258.352150292
v 7.91830425388 72.275442082 258.293993569
v 7.9064881631 72.3543318987 258.240044154
v 7.89524337889 72.4346978667 258.19026762
v 7.88464210396 72.5163427785 258.144624457
v 7.87474819787 72.5990787022 258.103070688
v 7.86559733276 72.6829189814 258.065477149
v 7.85721732152 72.7679726669 258.031717479
v 7.8496612991 72.854103342 258.001796411
v 7.8429767866 72.9411754556 257.975718612
v 7.83720541432 73.0290555054 257.953488033
v 7.83238282767 73.1176117466 257.935107957
v 7.82853860696 73.2067139042 257.92058104
v 7.82569620118 73.2962328894 257.909909342
v 7.82387287556 73.3860405191 257.903094356
v 7.82307967319 73.4760092366 257.900137025
v 7.82332139034 73.5660118354 257.901037757
v 7.82459656593 73.6559211823 257.905796427
v 7.82689748466 73.7456099416 257.914412379
v 7.83021019426 73.8349502988 257.926884415
v 7.83451453646 73.9238136825 257.943210781
v 7.83978419202 74.0120704854 257.963389141
v 7.84598673955 74.0995897816 257.987416552
v 7.85308372829 74.1862390417 258.015289424
v 7.86103076479 74.2718838432 258.047003478
v 7.86977761349 74.3563875772 258.082553695
v 7.87927497061 74.4396670631 258.121962235
v 7.88949799417 74.5218507801 258.165382571
v 7.90039168058 74.6028096039 258.21287631
v 7.91188909073 74.6823658276 258.264485365
v 7.92391539006 74.7603312291 258.320248501
v 7.93638773946 74.8365066589 258.380200678
v 7.94921522051 74.9106815916 258.444372341
v 7.96229880657 74.9826336347 258.512788661
v 7.97553139091 75.0521279911 258.585468694
v 7.98879788335 75.1189168697 258.662424487
v 8.00197538657 75.1827388404 258.743660086
v 8.01493346369 75.243318128 258.829170468
v 8.02753450812 75.3003638406 258.918940372
v 8.03963422733 75.3535691288 259.012943024
v 8.05108225167 75.4026102687 259.111138757
v 8.06172287964 75.4471456672 259.213473507
v 8.071395971 75.486814782 259.319877184
v 8.07992389419 75.5211803657 259.430061485
v 8.08710629897 75.5497044163 259.543150163
v 8.09280003559 75.5720551204 259.658550769
v 8.09689327244 75.5879848534 259.775680403
v 8.09930565722 75.5973202376 259.893944152
v 8.09998998302 75.5999613534 260.012739741
v 8.09893312437 75.59588112 260.131462143
v 8.09615622883 75.5851248509 260.249508189
v 8.09171416225 75.5678099852 260.366281157
v 8.08569421855 75.5441259953 260.481195343
v 8.07821411736 75.5143344688 260.593680607
v 8.06941932571 75.4787693592 260.703186879
v 8.05947975234 75.4378373996 260.809188584
v 8.04858587606 75.3920186685 260.91118899
v 8.03694438205 75.3418672986 261.008724409
v 8.02477339279 75.2880123125 261.101368233
v 8.01224905217 75.2309347113 261.189060577
v 7.99942571725 75.1705723633 261.272473197
v 7.98642639576 75.1071735153 261.351663169
v 7.97337174961 75.0409922211 261.426654464
v 7.96037474069 74.9722655574 261.497475906
v 7.94754069047 74.9012147911 261.564160183
v 7.93496738793 74.8280464612 261.62674294
v 7.92274523846 74.7529533825 261.685261951
v 7.91095744692 74.6761155792 261.739756355
v 7.89968022849 74.5977011566 261.790265956
v 7.88898304132 74.517867117 261.836830568
v 7.87892883534 74.4367601288 261.87948941
v 7.86957431214 74.3545172535 261.918280542
v 7.86097019114 74.2712666394 261.953240321
v 7.85316147775 74.187128187 261.984402896
v 7.84618772954 74.1022141936 262.011799712
v 7.84008331697 74.0166299816 262.035459035
v 7.83487767566 73.930474518 262.055405484
v 7.83059554733 73.8438410299 262.071659563
v 7.82725720742 73.7568176208 262.084237197
v 7.82487867734 73.6694878939 262.093149262
v 7.82350265113 73.5848152691 262.09828653
f 3 2 1
f 3 1 93
f 4 3 93
f 4 93 94
f 5 4 94
f 5 94 95
f 6 5 95
f 6 95 96
f 7 6 96
f 7 96 97
f 8 7 97
f 8 97 98
f 9 99 100
f 9 8 98
f 9 98 99
f 10 9 100
f 11 100 101
f 11 10 100
f 12 101 102
f 12 11 101
f 13 102 103
f 13 12 102
f 14 103 104
f 14 13 103
f 15 104 105
f 15 14 104
f 16 105 106
f 16 15 105
f 17 106 107
f 17 16 106
f 18 107 108
f 18 17 107
f 19 108 109
f 19 18 108
f 20 109 110
f 20 19 109
f 21 110 111
f 21 20 110
f 188 187 112
f 186 112 187
f 189 188 112
f 185 112 186
f 190 189 112
f 184 112 185
f 191 190 112
f 191 112 113
f 183 111 112
f 183 21 111
f 183 112 184
f 192 191 113
f 193 192 113
f 194 193 113
f 195 194 113
f 196 195 113
f 197 196 113
f 22 302 301
f 22 303 302
f 22 304 303
f 22 183 304
f 22 297 296
f 22 21 183
f 22 298 297
f 22 299 298
f 22 300 299
f 22 301 300
f 295 22 296
f 198 197 113
f 294 22 295
f 199 198 113
f 293 22 294
f 292 22 293
f 114 199 113
f 114 200 199
f 201 200 114
f 202 201 114
f 203 202 114
f 204 203 114
f 205 204 114
f 23 22 292
f 23 286 285
f 23 287 286
f 23 288 287
f 23 289 288
f 23 290 289
f 23 291 290
f 23 292 291
f 284 23 285
f 206 205 114
f 283 23 284
f 282 23 283
f 115 207 206
f 115 208 207
f 115 206 114
f 281 23 282
f 209 208 115
f 210 209 115
f 211 210 115
f 212 211 115
f 24 278 277
f 24 279 278
f 24 280 279
f 24 281 280
f 24 23 281
f 213 212 115
f 276 24 277
f 275 24 276
f 274 24 275
f 116 214 213
f 116 215 214
f 116 213 115
f 216 215 116
f 217 216 116
f 218 217 116
f 219 218 116
f 220 219 116
f 25 24 274
f 25 270 269
f 25 271 270
f 25 272 271
f 25 273 272
f 25 274 273
f 221 220 116
f 222 221 116
f 268 25 269
f 267 25 268
f 117 223 222
f 117 224 223
f 117 222 116
f 225 224 117
f 226 225 117
f 227 226 117
f 228 227 117
f 229 228 117
f 230 229 117
f 231 230 117
f 232 231 117
f 26 260 259
f 26 261 260
f 26 262 261
f 26 25 267
f 26 263 262
f 26 264 263
f 26 265 264
f 26 266 265
f 26 267 266
f 233 232 117
f 258 26 259
f 234 233 117
f 235 234 117
f 118 236 235
f 118 237 236
f 118 238 237
f 118 239 238
f 118 240 239
f 118 235 117
f 27 26 258
f 27 246 245
f 27 247 246
f 27 248 247
f 27 249 248
f 27 250 249
f 27 251 250
f 27 252 251
f 27 253 252
f 27 254 253
f 27 255 254
f 27 256 255
f 27 257 256
f 27 258 257
f 28 240 118
f 28 27 245
f 28 241 240
f 28 242 241
f 28 243 242
f 28 244 243
f 28 245 244
f 29 118 119
f 29 28 118
f 30 119 120
f 30 29 119
f 31 120 121
f 31 30 120
f 32 121 122
f 32 31 121
f 33 122 123
f 33 32 122
f 34 123 124
f 34 33 123
f 35 124 125
f 35 34 124
f 36 125 126
f 36 35 125
f 37 126 127
f 37 36 126
f 38 127 128
f 38 37 127
f 39 128 129
f 39 38 128
f 40 129 130
f 40 39 129
f 41 40 130
f 41 130 131
f 42 41 131
f 42 131 132
f 43 42 132
f 43 132 133
f 44 43 133
f 44 133 134
f 45 44 134
f 45 134 135
f 46 45 135
f 46 135 136
f 46 136 137
f 47 46 137
f 48 47 137
f 48 137 138
f 48 138 139
f 49 48 139
f 49 139 140
f 50 140 141
f 50 49 140
f 51 50 141
f 52 141 142
f 52 51 141
f 53 142 143
f 53 143 144
f 53 52 142
f 54 53 144
f 55 144 145
f 55 54 144
f 56 145 146
f 56 55 145
f 57 146 147
f 57 56 146
f 58 147 148
f 58 57 147
f 59 148 149
f 59 58 148
f 60 149 150
f 60 59 149
f 61 150 151
f 61 151 152
f 61 60 150
f 62 61 152
f 63 152 153
f 63 153 154
f 63 62 152
f 64 63 154
f 65 154 155
f 65 155 156
f 65 64 154
f 66 65 156
f 67 66 156
f 67 156 157
f 68 67 157
f 68 157 158
f 69 68 158
f 69 158 159
f 70 69 159
f 70 159 160
f 70 160 161
f 71 70 161
f 72 71 161
f 72 161 162
f 73 72 162
f 73 162 163
f 74 73 163
f 74 163 164
f 75 74 164
f 75 164 165
f 76 75 165
f 76 165 166
f 77 76 166
f 77 166 167
f 78 77 167
f 78 167 168
f 78 168 169
f 79 78 169
f 80 79 169
f 80 169 170
f 81 80 170
f 81 170 171
f 82 81 171
f 82 171 172
f 83 82 172
f 83 172 173
f 84 173 174
f 84 83 173
f 85 174 175
f 85 84 174
f 86 175 176
f 86 176 177
f 86 85 175
f 87 177 178
f 87 86 177
f 88 87 178
f 89 178 179
f 89 88 178
f 90 179 180
f 90 89 179
f 91 90 180
f 91 180 181
f 92 91 181
f 92 181 182
f 92 182 1
f 2 92 1
f 362 150 149
f 361 362 149
f 361 148 147
f 361 149 148
f 363 150 362
f 360 361 147
f 364 150 363
f 364 151 150
f 364 152 151
f 359 360 147
f 359 146 145
f 359 147 146
f 365 152 364
f 365 153 152
f 358 359 145
f 366 153 365
f 357 358 145
f 357 144 143
f 357 145 144
f 367 153 366
f 367 154 153
f 356 357 143
f 368 155 154
f 368 154 367
f 355 143 142
f 355 356 143
f 369 155 368
f 369 156 155
f 354 142 141
f 354 355 142
f 370 156 369
f 370 157 156
f 370 158 157
f 353 354 141
f 353 141 140
f 371 158 370
f 352 139 138
f 352 140 139
f 352 353 140
f 372 158 371
f 372 159 158
f 351 352 138
f 373 160 159
f 373 159 372
f 350 138 137
f 350 351 138
f 374 160 373
f 374 161 160
f 349 350 137
f 349 137 136
f 375 162 161
f 375 163 162
f 375 161 374
f 348 349 136
f 348 136 135
f 376 163 375
f 347 134 133
f 347 135 134
f 347 348 135
f 377 164 163
f 377 163 376
f 346 347 133
f 378 164 377
f 378 165 164
f 345 132 131
f 345 133 132
f 345 346 133
f 379 165 378
f 379 166 165
f 379 167 166
f 344 345 131
f 380 167 379
f 343 344 131
f 343 131 130
f 381 167 380
f 381 168 167
f 342 130 129
f 342 343 130
f 382 168 381
f 382 169 168
f 341 342 129
f 341 129 128
f 383 169 382
f 383 170 169
f 340 128 127
f 340 341 128
f 384 170 383
f 384 171 170
f 126 339 340
f 126 340 127
f 172 171 384
f 172 384 385
f 125 338 339
f 125 339 126
f 173 172 385
f 173 385 386
f 387 173 386
f 124 336 337
f 124 337 338
f 124 338 125
f 174 387 388
f 174 173 387
f 123 336 124
f 175 388 389
f 175 174 388
f 122 334 335
f 122 335 336
f 122 336 123
f 176 175 389
f 121 334 122
f 121 333 334
f 177 176 389
f 177 389 390
f 177 390 391
f 120 333 121
f 178 177 391
f 119 331 332
f 119 332 333
f 119 333 120
f 179 178 391
f 179 391 392
f 179 392 393
f 118 331 119
f 180 179 393
f 117 329 330
f 117 330 331
f 117 331 118
f 181 180 393
f 181 393 394
f 116 329 117
f 182 181 394
f 182 394 395
f 182 395 305
f 115 328 329
f 115 329 116
f 1 182 305
f 114 327 328
f 114 328 115
f 93 305 306
f 93 1 305
f 113 326 327
f 113 327 114
f 94 93 306
f 94 306 307
f 112 325 326
f 112 326 113
f 95 94 307
f 95 307 308
f 95 308 309
f 111 324 325
f 111 325 112
f 96 95 309
f 110 322 323
f 110 323 324
f 110 324 111
f 97 96 309
f 97 309 310
f 109 322 110
f 98 97 310
f 98 310 311
f 98 311 312
f 108 320 321
f 108 321 322
f 108 322 109
f 99 98 312
f 99 312 313
f 107 319 320
f 107 320 108
f 100 99 313
f 106 319 107
f 101 314 315
f 101 100 313
f 101 313 314
f 105 318 319
f 105 319 106
f 102 315 316
f 102 101 315
f 104 316 317
f 104 317 318
f 104 318 105
f 103 102 316
f 103 316 104
f 453 59 60
f 452 59 453
f 452 57 58
f 452 58 59
f 454 453 60
f 451 57 452
f 455 454 60
f 455 60 61
f 455 61 62
f 450 57 451
f 450 55 56
f 450 56 57
f 456 455 62
f 456 62 63
f 449 55 450
f 457 456 63
f 448 55 449
f 448 53 54
f 448 54 55
f 458 457 63
f 458 63 64
f 447 53 448
f 459 64 65
f 459 458 64
f 446 52 53
f 446 53 447
f 460 459 65
f 460 65 66
f 445 51 52
f 445 52 446
f 461 460 66
f 461 66 67
f 461 67 68
f 444 51 445
f 444 50 51
f 462 461 68
f 443 48 49
f 443 49 50
f 443 50 444
f 463 462 68
f 463 68 69
f 442 48 443
f 464 69 70
f 464 463 69
f 441 47 48
f 441 48 442
f 465 464 70
f 465 70 71
f 440 47 441
f 440 46 47
f 466 71 72
f 466 72 73
f 466 465 71
f 439 46 440
f 439 45 46
f 467 466 73
f 438 43 44
f 438 44 45
f 438 45 439
f 468 73 74
f 468 467 73
f 437 43 438
f 469 468 74
f 469 74 75
f 436 41 42
f 436 42 43
f 436 43 437
f 470 469 75
f 470 75 76
f 470 76 77
f 435 41 436
f 471 470 77
f 434 41 435
f 434 40 41
f 472 471 77
f 472 77 78
f 433 39 40
f 433 40 434
f 473 472 78
f 473 78 79
f 432 39 433
f 432 38 39
f 474 473 79
f 474 79 80
f 431 37 38
f 431 38 432
f 475 474 80
f 475 80 81
f 36 431 430
f 36 37 431
f 82 475 81
f 82 476 475
f 35 430 429
f 35 36 430
f 83 476 82
f 83 477 476
f 478 477 83
f 34 428 427
f 34 429 428
f 34 35 429
f 84 479 478
f 84 478 83
f 33 34 427
f 85 480 479
f 85 479 84
f 32 426 425
f 32 427 426
f 32 33 427
f 86 480 85
f 31 32 425
f 31 425 424
f 87 480 86
f 87 481 480
f 87 482 481
f 30 31 424
f 88 482 87
f 29 423 422
f 29 424 423
f 29 30 424
f 89 482 88
f 89 483 482
f 89 484 483
f 28 29 422
f 90 484 89
f 27 421 420
f 27 422 421
f 27 28 422
f 91 484 90
f 91 485 484
f 26 27 420
f 92 485 91
f 92 486 485
f 92 396 486
f 25 420 419
f 25 26 420
f 2 396 92
f 24 419 418
f 24 25 419
f 3 397 396
f 3 396 2
f 23 418 417
f 23 24 418
f 4 397 3
f 4 398 397
f 22 417 416
f 22 23 417
f 5 398 4
f 5 399 398
f 5 400 399
f 21 416 415
f 21 22 416
f 6 400 5
f 20 414 413
f 20 415 414
f 20 21 415
f 7 400 6
f 7 401 400
f 19 20 413
f 8 401 7
f 8 402 401
f 8 403 402
f 18 412 411
f 18 413 412
f 18 19 413
f 9 403 8
f 9 404 403
f 17 411 410
f 17 18 411
f 10 404 9
f 16 17 410
f 11 406 405
f 11 404 10
f 11 405 404
f 15 410 409
f 15 16 410
f 12 407 406
f 12 406 11
f 14 408 407
f 14 409 408
f 14 15 409
f 13 407 12
f 13 14 407
f 183 488 487
f 184 489 488
f 184 488 183
f 185 490 489
f 185 489 184
f 186 491 490
f 186 490 185
f 187 492 491
f 187 491 186
f 188 493 492
f 188 492 187
f 189 494 493
f 189 493 188
f 190 495 494
f 190 494 189
f 191 496 495
f 191 495 190
f 192 497 496
f 192 496 191
f 193 498 497
f 193 497 192
f 194 499 498
f 194 498 193
f 195 500 499
f 195 499 194
f 196 500 195
f 196 501 500
f 197 501 196
f 197 502 501
f 198 502 197
f 198 503 502
f 199 503 198
f 199 504 503
f 200 504 199
f 200 505 504
f 201 505 200
f 201 506 505
f 202 506 201
f 202 507 506
f 203 507 202
f 203 508 507
f 204 508 203
f 204 509 508
f 205 509 204
f 205 510 509
f 206 510 205
f 206 511 510
f 207 512 511
f 207 511 206
f 208 513 512
f 208 512 207
f 209 514 513
f 209 513 208
f 210 515 514
f 210 514 209
f 211 516 515
f 211 515 210
f 212 517 516
f 212 516 211
f 213 518 517
f 213 517 212
f 214 519 518
f 214 518 213
f 215 520 519
f 215 519 214
f 216 521 520
f 216 520 215
f 217 522 521
f 217 521 216
f 218 523 522
f 218 522 217
f 219 524 523
f 219 523 218
f 220 525 524
f 220 524 219
f 221 526 525
f 221 525 220
f 222 526 221
f 222 527 526
f 223 527 222
f 223 528 527
f 224 528 223
f 224 529 528
f 225 529 224
f 225 530 529
f 226 530 225
f 226 531 530
f 227 531 226
f 227 532 531
f 228 532 227
f 228 533 532
f 229 533 228
f 229 534 533
f 230 534 229
f 230 535 534
f 231 535 230
f 231 536 535
f 232 536 231
f 232 537 536
f 233 537 232
f 233 538 537
f 234 538 233
f 234 539 538
f 235 539 234
f 235 540 539
f 236 540 235
f 236 541 540
f 237 541 236
f 237 542 541
f 238 542 237
f 238 543 542
f 239 543 238
f 239 544 543
f 240 545 544
f 240 544 239
f 241 546 545
f 241 545 240
f 242 547 546
f 242 546 241
f 243 548 547
f 243 547 242
f 244 549 548
f 244 548 243
f 245 550 549
f 245 549 244
f 246 550 245
f 246 551 550
f 247 551 246
f 247 552 551
f 248 552 247
f 248 553 552
f 249 553 248
f 249 554 553
f 250 554 249
f 250 555 554
f 251 555 250
f 251 556 555
f 252 556 251
f 252 557 556
f 253 557 252
f 253 558 557
f 254 558 253
f 254 559 558
f 255 559 254
f 255 560 559
f 256 560 255
f 256 561 560
f 257 561 256
f 257 562 561
f 258 562 257
f 258 563 562
f 259 563 258
f 259 564 563
f 260 564 259
f 260 565 564
f 261 566 565
f 261 565 260
f 262 567 566
f 262 566 261
f 263 568 567
f 263 567 262
f 264 569 568
f 264 568 263
f 265 570 569
f 265 569 264
f 266 571 570
f 266 570 265
f 267 572 571
f 267 571 266
f 268 573 572
f 268 572 267
f 269 574 573
f 269 573 268
f 270 575 574
f 270 574 269
f 271 576 575
f 271 575 270
f 272 577 576
f 272 576 271
f 273 577 272
f 273 578 577
f 273 579 578
f 274 580 579
f 274 579 273
f 275 580 274
f 275 581 580
f 276 582 581
f 276 581 275
f 277 583 582
f 277 582 276
f 278 584 583
f 278 583 277
f 279 585 584
f 279 584 278
f 280 585 279
f 280 586 585
f 281 587 586
f 281 586 280
f 282 588 587
f 282 587 281
f 283 589 588
f 283 588 282
f 284 590 589
f 284 589 283
f 285 591 590
f 285 590 284
f 286 591 285
f 286 592 591
f 287 592 286
f 287 593 592
f 288 594 593
f 288 593 287
f 289 595 594
f 289 594 288
f 290 596 595
f 290 595 289
f 291 597 596
f 291 596 290
f 292 598 597
f 292 597 291
f 293 599 598
f 293 598 292
f 294 600 599
f 294 599 293
f 295 601 600
f 295 600 294
f 296 601 295
f 296 602 601
f 297 602 296
f 297 603 602
f 298 603 297
f 298 604 603
f 299 604 298
f 299 605 604
f 300 605 299
f 300 606 605
f 301 606 300
f 301 607 606
f 302 607 301
f 302 608 607
f 303 608 302
f 303 609 608
f 304 609 303
f 304 487 609
f 183 487 304
f 397 305 396
f 397 306 305
f 398 306 397
f 398 307 306
f 399 307 398
f 399 308 307
f 400 308 399
f 400 309 308
f 401 309 400
f 401 310 309
f 402 310 401
f 402 311 310
f 403 311 402
f 403 312 311
f 404 313 312
f 404 312 403
f 405 314 313
f 405 313 404
f 406 315 314
f 406 316 315
f 406 314 405
f 407 316 406
f 408 317 316
f 408 316 407
f 409 318 317
f 409 319 318
f 409 317 408
f 410 319 409
f 411 320 319
f 411 319 410
f 412 321 320
f 412 320 411
f 413 322 321
f 413 321 412
f 490 324 323
f 491 324 490
f 489 490 323
f 492 324 491
f 488 489 323
f 493 324 492
f 487 488 323
f 494 324 493
f 414 609 487
f 414 323 322
f 414 322 413
f 414 487 323
f 495 324 494
f 608 609 414
f 607 608 414
f 496 324 495
f 496 325 324
f 606 607 414
f 497 325 496
f 498 325 497
f 499 325 498
f 500 325 499
f 501 325 500
f 502 325 501
f 326 325 502
f 415 605 606
f 415 606 414
f 415 597 598
f 415 598 599
f 415 599 600
f 415 600 601
f 415 601 602
f 415 602 603
f 415 603 604
f 415 604 605
f 503 326 502
f 596 597 415
f 504 326 503
f 505 326 504
f 506 326 505
f 327 506 507
f 327 326 506
f 416 596 415
f 416 590 591
f 416 591 592
f 416 592 593
f 416 593 594
f 416 594 595
f 416 595 596
f 508 327 507
f 589 590 416
f 588 589 416
f 509 327 508
f 510 327 509
f 511 327 510
f 328 511 512
f 328 327 511
f 417 585 586
f 417 588 416
f 417 586 587
f 417 587 588
f 584 585 417
f 513 328 512
f 583 584 417
f 514 328 513
f 515 328 514
f 329 328 515
f 329 515 516
f 418 580 581
f 418 581 582
f 418 582 583
f 418 583 417
f 517 329 516
f 579 580 418
f 518 329 517
f 578 579 418
f 519 329 518
f 520 329 519
f 330 520 521
f 330 329 520
f 419 578 418
f 419 575 576
f 419 576 577
f 419 577 578
f 522 330 521
f 574 575 419
f 523 330 522
f 573 574 419
f 524 330 523
f 525 330 524
f 526 330 525
f 331 526 527
f 331 330 526
f 420 573 419
f 420 570 571
f 420 571 572
f 420 572 573
f 528 331 527
f 569 570 420
f 529 331 528
f 568 569 420
f 530 331 529
f 531 331 530
f 532 331 531
f 533 331 532
f 534 331 533
f 535 331 534
f 332 331 535
f 536 332 535
f 421 563 564
f 421 564 565
f 421 565 566
f 421 566 567
f 421 567 568
f 421 568 420
f 562 563 421
f 537 332 536
f 538 332 537
f 539 332 538
f 540 332 539
f 541 332 540
f 542 332 541
f 543 332 542
f 333 332 543
f 333 543 544
f 422 562 421
f 422 553 554
f 422 554 555
f 422 555 556
f 422 556 557
f 422 557 558
f 422 558 559
f 422 559 560
f 422 560 561
f 422 561 562
f 423 553 422
f 423 545 546
f 423 546 547
f 423 547 548
f 423 548 549
f 423 549 550
f 423 550 551
f 423 551 552
f 423 552 553
f 424 544 545
f 424 333 544
f 424 545 423
f 425 334 333
f 425 333 424
f 426 335 334
f 426 336 335
f 426 334 425
f 427 336 426
f 428 337 336
f 428 336 427
f 429 338 337
f 429 337 428
f 430 339 338
f 430 338 429
f 431 340 339
f 431 339 430
f 432 341 340
f 432 340 431
f 433 342 341
f 433 343 342
f 433 341 432
f 434 343 433
f 435 343 434
f 435 344 343
f 435 345 344
f 436 345 435
f 437 345 436
f 437 346 345
f 438 346 437
f 438 347 346
f 439 347 438
f 439 348 347
f 440 348 439
f 440 349 348
f 441 349 440
f 441 350 349
f 442 350 441
f 442 351 350
f 443 351 442
f 443 352 351
f 444 353 352
f 444 354 353
f 444 352 443
f 445 354 444
f 446 355 354
f 446 354 445
f 447 356 355
f 447 357 356
f 447 355 446
f 448 357 447
f 449 358 357
f 449 357 448
f 450 359 358
f 450 358 449
f 451 360 359
f 451 359 450
f 452 361 360
f 452 360 451
f 453 362 361
f 453 363 362
f 453 361 452
f 454 363 453
f 455 364 363
f 455 363 454
f 456 365 364
f 456 366 365
f 456 364 455
f 457 366 456
f 458 367 366
f 458 366 457
f 459 367 458
f 459 368 367
f 460 368 459
f 460 369 368
f 461 369 460
f 461 370 369
f 462 370 461
f 462 371 370
f 463 371 462
f 463 372 371
f 464 372 463
f 464 373 372
f 465 373 464
f 465 374 373
f 466 374 465
f 466 375 374
f 466 376 375
f 467 376 466
f 468 376 467
f 468 377 376
f 469 377 468
f 469 378 377
f 470 378 469
f 470 379 378
f 471 379 470
f 471 380 379
f 472 380 471
f 472 381 380
f 473 381 472
f 473 382 381
f 474 382 473
f 474 383 382
f 475 383 474
f 475 384 383
f 476 385 384
f 476 384 475
f 477 386 385
f 477 387 386
f 477 385 476
f 478 387 477
f 479 388 387
f 479 387 478
f 480 389 388
f 480 388 479
f 481 390 389
f 481 391 390
f 481 389 480
f 482 391 481
f 483 392 391
f 483 391 482
f 484 392 483
f 484 393 392
f 485 393 484
f 485 394 393
f 486 394 485
f 486 395 394
f 396 395 486
f 396 305 395
