# SimpleCAD BREP tessellation for MuJoCo
v -26 -156.5 234.5
v -26 -156.5 285.5
v -26 -107.5 234.5
v -26 -107.5 285.5
v -25.5 -157 285.5
v -25.5 -157 234.5
v -25.5 -156.5 234
v -25.5 -107.5 234
v -25.5 -156.5 286
v -25.5 -107.5 286
v -25.5 -107 285.5
v -25.5 -107 234.5
v 25.5 -157 285.5
v 25.5 -157 234.5
v -2.44929359829e-15 -157 270
v 0.689911444043 -157 269.976172723
v 1.37653514587 -157 269.90480444
v 2.05659903086 -157 269.786235253
v 2.72686228489 -157 269.621030198
v 3.38413079834 -157 269.409976554
v 4.0252723874 -157 269.154080085
v 4.64723172044 -157 268.854560257
v 5.24704487799 -157 268.512844416
v 5.82185347721 -157 268.130560995
v 6.36891829335 -157 267.709531748
v 6.88563231343 -157 267.251763071
v 7.36953315984 -157 266.759436441
v 7.81831482468 -157 266.234898019
v 8.22983865894 -157 265.680647467
v 8.60214356414 -157 265.099326044
v 8.93345533786 -157 264.49370401
v 9.22219512862 -157 263.866667429
v 9.46698695983 -157 263.221204418
v 9.66666428693 -157 262.560390901
v 9.82027555653 -157 261.887375955
v 9.92708874098 -157 261.205366803
v 9.9865948268 -157 260.517613529
v 9.99851024041 -157 259.827393591
v 9.96277819942 -157 259.137996201
v 9.87956898329 -157 258.452706652
v 9.74927912182 -157 257.77479066
v 9.57252950554 -157 257.107478805
v 9.35016242685 -157 256.45395113
v 9.08323756617 -157 255.817321992
v 8.77302694199 -157 255.20062522
v 8.42100884923 -157 254.606799655
v 8.02886081439 -157 254.038675145
v 7.59845160145 -157 253.498959063
v 7.13183230631 -157 252.990223402
v 6.63122658241 -157 252.514892518
v 6.099020044 -157 252.07523158
v 5.53774889761 -157 251.673335773
v 4.95008785584 -157 251.311120313
v 4.33883739118 -157 250.990311321
v 3.70691039045 -157 250.712437599
v 3.0573182736 -157 250.478823341
v 2.39315664288 -157 250.290581826
v 1.71759053091 -157 250.14861011
v 1.03383931788 -157 250.053584753
v 0.345161389697 -157 250.005958594
v -0.345161389697 -157 250.005958594
v -1.03383931788 -157 250.053584753
v -1.71759053091 -157 250.14861011
v -2.39315664288 -157 250.290581826
v -3.0573182736 -157 250.478823341
v -3.70691039045 -157 250.712437599
v -4.33883739118 -157 250.990311321
v -4.95008785584 -157 251.311120313
v -5.53774889761 -157 251.673335773
v -6.099020044 -157 252.07523158
v -6.63122658241 -157 252.514892518
v -7.13183230631 -157 252.990223402
v -7.59845160145 -157 253.498959063
v -8.02886081439 -157 254.038675145
v -8.42100884923 -157 254.606799655
v -8.77302694199 -157 255.20062522
v -9.08323756617 -157 255.817321992
v -9.35016242685 -157 256.45395113
v -9.57252950554 -157 257.107478805
v -9.74927912182 -157 257.77479066
v -9.87956898329 -157 258.452706652
v -9.96277819942 -157 259.137996201
v -9.99851024041 -157 259.827393591
v -9.9865948268 -157 260.517613529
v -9.92708874098 -157 261.205366803
v -9.82027555653 -157 261.887375955
v -9.66666428693 -157 262.560390901
v -9.46698695983 -157 263.221204418
v -9.22219512862 -157 263.866667429
v -8.93345533786 -157 264.49370401
v -8.60214356413 -157 265.099326044
v -8.22983865894 -157 265.680647467
v -7.81831482468 -157 266.234898019
v -7.36953315984 -157 266.759436441
v -6.88563231343 -157 267.251763071
v -6.36891829335 -157 267.709531748
v -5.82185347721 -157 268.130560995
v -5.24704487799 -157 268.512844416
v -4.64723172044 -157 268.854560257
v -4.0252723874 -157 269.154080085
v -3.38413079834 -157 269.409976554
v -2.72686228489 -157 269.621030198
v -2.05659903086 -157 269.786235253
v -1.37653514587 -157 269.90480444
v -0.689911444043 -157 269.976172723
v 25.5 -156.5 234
v 25.5 -107.5 234
v 25.5 -156.5 286
v 25.5 -107.5 286
v 25.5 -107 285.5
v 25.5 -107 234.5
v -20 -107 242.1
v -19.8551185968 -107 242.094996272
v -19.7109276194 -107 242.080008932
v -19.5681142035 -107 242.055109403
v -19.4273589202 -107 242.020416342
v -19.2893325323 -107 241.976095076
v -19.1546927986 -107 241.922356818
v -19.0240813387 -107 241.859457654
v -18.8981205756 -107 241.787697327
v -18.7774107698 -107 241.707417809
v -18.6625271584 -107 241.619001667
v -18.5540172142 -107 241.522870245
v -18.4523980364 -107 241.419481653
v -18.3581538868 -107 241.309328584
v -18.2717338816 -107 241.192935968
v -18.1935498515 -107 241.070858469
v -18.1239743791 -107 240.943677842
v -18.063339023 -107 240.81200016
v -18.0119327384 -107 240.676452928
v -17.9700004997 -107 240.537682089
v -17.9377421331 -107 240.39634895
v -17.9153113644 -107 240.253127029
v -17.9028150864 -107 240.108698841
v -17.9003128495 -107 239.963752654
v -17.9078165781 -107 239.818979202
v -17.9252905135 -107 239.675068397
v -17.9526513844 -107 239.532706039
v -17.9897688038 -107 239.392570549
v -18.0364658904 -107 239.255329737
v -18.0925201111 -107 239.121637618
v -18.1576643422 -107 238.992131296
v -18.2315881417 -107 238.867427928
v -18.313939229 -107 238.748121781
v -18.4043251637 -107 238.634781403
v -18.5023152157 -107 238.527946914
v -18.6074424177 -107 238.428127429
v -18.7192057908 -107 238.335798632
v -18.8370727315 -107 238.251400512
v -18.9604815503 -107 238.175335266
v -19.0888441479 -107 238.107965377
v -19.221548818 -107 238.049611896
v -19.3579631625 -107 238.000552902
v -19.497437105 -107 237.961022183
v -19.6393059885 -107 237.931208123
v -19.7828937432 -107 237.911252798
v -19.9275161082 -107 237.901251305
v -20.0724838918 -107 237.901251305
v -20.2171062568 -107 237.911252798
v -20.3606940115 -107 237.931208123
v -20.502562895 -107 237.961022183
v -20.6420368375 -107 238.000552902
v -20.778451182 -107 238.049611896
v -20.9111558521 -107 238.107965377
v -21.0395184497 -107 238.175335266
v -21.1629272685 -107 238.251400512
v -21.2807942092 -107 238.335798632
v -21.3925575823 -107 238.428127429
v -21.4976847843 -107 238.527946914
v -21.5956748363 -107 238.634781403
v -21.686060771 -107 238.748121781
v -21.7684118583 -107 238.867427928
v -21.8423356578 -107 238.992131296
v -21.9074798889 -107 239.121637618
v -21.9635341096 -107 239.255329737
v -22.0102311962 -107 239.392570549
v -22.0473486156 -107 239.532706039
v -22.0747094865 -107 239.675068397
v -22.0921834219 -107 239.818979202
v -22.0996871505 -107 239.963752654
v -22.0971849136 -107 240.108698841
v -22.0846886356 -107 240.253127029
v -22.0622578669 -107 240.39634895
v -22.0299995003 -107 240.537682089
v -21.9880672616 -107 240.676452928
v -21.936660977 -107 240.81200016
v -21.8760256209 -107 240.943677842
v -21.8064501485 -107 241.070858469
v -21.7282661184 -107 241.192935968
v -21.6418461132 -107 241.309328584
v -21.5476019636 -107 241.419481653
v -21.4459827858 -107 241.522870245
v -21.3374728416 -107 241.619001667
v -21.2225892302 -107 241.707417809
v -21.1018794244 -107 241.787697327
v -20.9759186613 -107 241.859457654
v -20.8453072014 -107 241.922356818
v -20.7106674677 -107 241.976095076
v -20.5726410798 -107 242.020416342
v -20.4318857965 -107 242.055109403
v -20.2890723806 -107 242.080008932
v -20.1448814032 -107 242.094996272
v -20 -107 282.1
v -19.8551185968 -107 282.094996272
v -19.7109276194 -107 282.080008932
v -19.5681142035 -107 282.055109403
v -19.4273589202 -107 282.020416342
v -19.2893325323 -107 281.976095076
v -19.1546927986 -107 281.922356818
v -19.0240813387 -107 281.859457654
v -18.8981205756 -107 281.787697327
v -18.7774107698 -107 281.707417809
v -18.6625271584 -107 281.619001667
v -18.5540172142 -107 281.522870245
v -18.4523980364 -107 281.419481653
v -18.3581538868 -107 281.309328584
v -18.2717338816 -107 281.192935968
v -18.1935498515 -107 281.070858469
v -18.1239743791 -107 280.943677842
v -18.063339023 -107 280.81200016
v -18.0119327384 -107 280.676452928
v -17.9700004997 -107 280.537682089
v -17.9377421331 -107 280.39634895
v -17.9153113644 -107 280.253127029
v -17.9028150864 -107 280.108698841
v -17.9003128495 -107 279.963752654
v -17.9078165781 -107 279.818979202
v -17.9252905135 -107 279.675068397
v -17.9526513844 -107 279.532706039
v -17.9897688038 -107 279.392570549
v -18.0364658904 -107 279.255329737
v -18.0925201111 -107 279.121637618
v -18.1576643422 -107 278.992131296
v -18.2315881417 -107 278.867427928
v -18.313939229 -107 278.748121781
v -18.4043251637 -107 278.634781403
v -18.5023152157 -107 278.527946914
v -18.6074424177 -107 278.428127429
v -18.7192057908 -107 278.335798632
v -18.8370727315 -107 278.251400512
v -18.9604815503 -107 278.175335266
v -19.0888441479 -107 278.107965377
v -19.221548818 -107 278.049611896
v -19.3579631625 -107 278.000552902
v -19.497437105 -107 277.961022183
v -19.6393059885 -107 277.931208123
v -19.7828937432 -107 277.911252798
v -19.9275161082 -107 277.901251305
v -20.0724838918 -107 277.901251305
v -20.2171062568 -107 277.911252798
v -20.3606940115 -107 277.931208123
v -20.502562895 -107 277.961022183
v -20.6420368375 -107 278.000552902
v -20.778451182 -107 278.049611896
v -20.9111558521 -107 278.107965377
v -21.0395184497 -107 278.175335266
v -21.1629272685 -107 278.251400512
v -21.2807942092 -107 278.335798632
v -21.3925575823 -107 278.428127429
v -21.4976847843 -107 278.527946914
v -21.5956748363 -107 278.634781403
v -21.686060771 -107 278.748121781
v -21.7684118583 -107 278.867427928
v -21.8423356578 -107 278.992131296
v -21.9074798889 -107 279.121637618
v -21.9635341096 -107 279.255329737
v -22.0102311962 -107 279.392570549
v -22.0473486156 -107 279.532706039
v -22.0747094865 -107 279.675068397
v -22.0921834219 -107 279.818979202
v -22.0996871505 -107 279.963752654
v -22.0971849136 -107 280.108698841
v -22.0846886356 -107 280.253127029
v -22.0622578669 -107 280.39634895
v -22.0299995003 -107 280.537682089
v -21.9880672616 -107 280.676452928
v -21.936660977 -107 280.81200016
v -21.8760256209 -107 280.943677842
v -21.8064501485 -107 281.070858469
v -21.7282661184 -107 281.192935968
v -21.6418461132 -107 281.309328584
v -21.5476019636 -107 281.419481653
v -21.4459827858 -107 281.522870245
v -21.3374728416 -107 281.619001667
v -21.2225892302 -107 281.707417809
v -21.1018794244 -107 281.787697327
v -20.9759186613 -107 281.859457654
v -20.8453072014 -107 281.922356818
v -20.7106674677 -107 281.976095076
v -20.5726410798 -107 282.020416342
v -20.4318857965 -107 282.055109403
v -20.2890723806 -107 282.080008932
v -20.1448814032 -107 282.094996272
v 20 -107 242.1
v 20.1448814032 -107 242.094996272
v 20.2890723806 -107 242.080008932
v 20.4318857965 -107 242.055109403
v 20.5726410798 -107 242.020416342
v 20.7106674677 -107 241.976095076
v 20.8453072014 -107 241.922356818
v 20.9759186613 -107 241.859457654
v 21.1018794244 -107 241.787697327
v 21.2225892302 -107 241.707417809
v 21.3374728416 -107 241.619001667
v 21.4459827858 -107 241.522870245
v 21.5476019636 -107 241.419481653
v 21.6418461132 -107 241.309328584
v 21.7282661184 -107 241.192935968
v 21.8064501485 -107 241.070858469
v 21.8760256209 -107 240.943677842
v 21.936660977 -107 240.81200016
v 21.9880672616 -107 240.676452928
v 22.0299995003 -107 240.537682089
v 22.0622578669 -107 240.39634895
v 22.0846886356 -107 240.253127029
v 22.0971849136 -107 240.108698841
v 22.0996871505 -107 239.963752654
v 22.0921834219 -107 239.818979202
v 22.0747094865 -107 239.675068397
v 22.0473486156 -107 239.532706039
v 22.0102311962 -107 239.392570549
v 21.9635341096 -107 239.255329737
v 21.9074798889 -107 239.121637618
v 21.8423356578 -107 238.992131296
v 21.7684118583 -107 238.867427928
v 21.686060771 -107 238.748121781
v 21.5956748363 -107 238.634781403
v 21.4976847843 -107 238.527946914
v 21.3925575823 -107 238.428127429
v 21.2807942092 -107 238.335798632
v 21.1629272685 -107 238.251400512
v 21.0395184497 -107 238.175335266
v 20.9111558521 -107 238.107965377
v 20.778451182 -107 238.049611896
v 20.6420368375 -107 238.000552902
v 20.502562895 -107 237.961022183
v 20.3606940115 -107 237.931208123
v 20.2171062568 -107 237.911252798
v 20.0724838918 -107 237.901251305
v 19.9275161082 -107 237.901251305
v 19.7828937432 -107 237.911252798
v 19.6393059885 -107 237.931208123
v 19.497437105 -107 237.961022183
v 19.3579631625 -107 238.000552902
v 19.221548818 -107 238.049611896
v 19.0888441479 -107 238.107965377
v 18.9604815503 -107 238.175335266
v 18.8370727315 -107 238.251400512
v 18.7192057908 -107 238.335798632
v 18.6074424177 -107 238.428127429
v 18.5023152157 -107 238.527946914
v 18.4043251637 -107 238.634781403
v 18.313939229 -107 238.748121781
v 18.2315881417 -107 238.867427928
v 18.1576643422 -107 238.992131296
v 18.0925201111 -107 239.121637618
v 18.0364658904 -107 239.255329737
v 17.9897688038 -107 239.392570549
v 17.9526513844 -107 239.532706039
v 17.9252905135 -107 239.675068397
v 17.9078165781 -107 239.818979202
v 17.9003128495 -107 239.963752654
v 17.9028150864 -107 240.108698841
v 17.9153113644 -107 240.253127029
v 17.9377421331 -107 240.39634895
v 17.9700004997 -107 240.537682089
v 18.0119327384 -107 240.676452928
v 18.063339023 -107 240.81200016
v 18.1239743791 -107 240.943677842
v 18.1935498515 -107 241.070858469
v 18.2717338816 -107 241.192935968
v 18.3581538868 -107 241.309328584
v 18.4523980364 -107 241.419481653
v 18.5540172142 -107 241.522870245
v 18.6625271584 -107 241.619001667
v 18.7774107698 -107 241.707417809
v 18.8981205756 -107 241.787697327
v 19.0240813387 -107 241.859457654
v 19.1546927986 -107 241.922356818
v 19.2893325323 -107 241.976095076
v 19.4273589202 -107 242.020416342
v 19.5681142035 -107 242.055109403
v 19.7109276194 -107 242.080008932
v 19.8551185968 -107 242.094996272
v -2.44929359829e-15 -107 270
v 0.689911444043 -107 269.976172723
v 1.37653514587 -107 269.90480444
v 2.05659903086 -107 269.786235253
v 2.72686228489 -107 269.621030198
v 3.38413079834 -107 269.409976554
v 4.0252723874 -107 269.154080085
v 4.64723172044 -107 268.854560257
v 5.24704487799 -107 268.512844416
v 5.82185347721 -107 268.130560995
v 6.36891829335 -107 267.709531748
v 6.88563231343 -107 267.251763071
v 7.36953315984 -107 266.759436441
v 7.81831482468 -107 266.234898019
v 8.22983865894 -107 265.680647467
v 8.60214356414 -107 265.099326044
v 8.93345533786 -107 264.49370401
v 9.22219512862 -107 263.866667429
v 9.46698695983 -107 263.221204418
v 9.66666428693 -107 262.560390901
v 9.82027555653 -107 261.887375955
v 9.92708874098 -107 261.205366803
v 9.9865948268 -107 260.517613529
v 9.99851024041 -107 259.827393591
v 9.96277819942 -107 259.137996201
v 9.87956898329 -107 258.452706652
v 9.74927912182 -107 257.77479066
v 9.57252950554 -107 257.107478805
v 9.35016242685 -107 256.45395113
v 9.08323756617 -107 255.817321992
v 8.77302694199 -107 255.20062522
v 8.42100884923 -107 254.606799655
v 8.02886081439 -107 254.038675145
v 7.59845160145 -107 253.498959063
v 7.13183230631 -107 252.990223402
v 6.63122658241 -107 252.514892518
v 6.099020044 -107 252.07523158
v 5.53774889761 -107 251.673335773
v 4.95008785584 -107 251.311120313
v 4.33883739118 -107 250.990311321
v 3.70691039045 -107 250.712437599
v 3.0573182736 -107 250.478823341
v 2.39315664288 -107 250.290581826
v 1.71759053091 -107 250.14861011
v 1.03383931788 -107 250.053584753
v 0.345161389697 -107 250.005958594
v -0.345161389697 -107 250.005958594
v -1.03383931788 -107 250.053584753
v -1.71759053091 -107 250.14861011
v -2.39315664288 -107 250.290581826
v -3.0573182736 -107 250.478823341
v -3.70691039045 -107 250.712437599
v -4.33883739118 -107 250.990311321
v -4.95008785584 -107 251.311120313
v -5.53774889761 -107 251.673335773
v -6.099020044 -107 252.07523158
v -6.63122658241 -107 252.514892518
v -7.13183230631 -107 252.990223402
v -7.59845160145 -107 253.498959063
v -8.02886081439 -107 254.038675145
v -8.42100884923 -107 254.606799655
v -8.77302694199 -107 255.20062522
v -9.08323756617 -107 255.817321992
v -9.35016242685 -107 256.45395113
v -9.57252950554 -107 257.107478805
v -9.74927912182 -107 257.77479066
v -9.87956898329 -107 258.452706652
v -9.96277819942 -107 259.137996201
v -9.99851024041 -107 259.827393591
v -9.9865948268 -107 260.517613529
v -9.92708874098 -107 261.205366803
v -9.82027555653 -107 261.887375955
v -9.66666428693 -107 262.560390901
v -9.46698695983 -107 263.221204418
v -9.22219512862 -107 263.866667429
v -8.93345533786 -107 264.49370401
v -8.60214356413 -107 265.099326044
v -8.22983865894 -107 265.680647467
v -7.81831482468 -107 266.234898019
v -7.36953315984 -107 266.759436441
v -6.88563231343 -107 267.251763071
v -6.36891829335 -107 267.709531748
v -5.82185347721 -107 268.130560995
v -5.24704487799 -107 268.512844416
v -4.64723172044 -107 268.854560257
v -4.0252723874 -107 269.154080085
v -3.38413079834 -107 269.409976554
v -2.72686228489 -107 269.621030198
v -2.05659903086 -107 269.786235253
v -1.37653514587 -107 269.90480444
v -0.689911444043 -107 269.976172723
v 20 -107 282.1
v 20.1448814032 -107 282.094996272
v 20.2890723806 -107 282.080008932
v 20.4318857965 -107 282.055109403
v 20.5726410798 -107 282.020416342
v 20.7106674677 -107 281.976095076
v 20.8453072014 -107 281.922356818
v 20.9759186613 -107 281.859457654
v 21.1018794244 -107 281.787697327
v 21.2225892302 -107 281.707417809
v 21.3374728416 -107 281.619001667
v 21.4459827858 -107 281.522870245
v 21.5476019636 -107 281.419481653
v 21.6418461132 -107 281.309328584
v 21.7282661184 -107 281.192935968
v 21.8064501485 -107 281.070858469
v 21.8760256209 -107 280.943677842
v 21.936660977 -107 280.81200016
v 21.9880672616 -107 280.676452928
v 22.0299995003 -107 280.537682089
v 22.0622578669 -107 280.39634895
v 22.0846886356 -107 280.253127029
v 22.0971849136 -107 280.108698841
v 22.0996871505 -107 279.963752654
v 22.0921834219 -107 279.818979202
v 22.0747094865 -107 279.675068397
v 22.0473486156 -107 279.532706039
v 22.0102311962 -107 279.392570549
v 21.9635341096 -107 279.255329737
v 21.9074798889 -107 279.121637618
v 21.8423356578 -107 278.992131296
v 21.7684118583 -107 278.867427928
v 21.686060771 -107 278.748121781
v 21.5956748363 -107 278.634781403
v 21.4976847843 -107 278.527946914
v 21.3925575823 -107 278.428127429
v 21.2807942092 -107 278.335798632
v 21.1629272685 -107 278.251400512
v 21.0395184497 -107 278.175335266
v 20.9111558521 -107 278.107965377
v 20.778451182 -107 278.049611896
v 20.6420368375 -107 278.000552902
v 20.502562895 -107 277.961022183
v 20.3606940115 -107 277.931208123
v 20.2171062568 -107 277.911252798
v 20.0724838918 -107 277.901251305
v 19.9275161082 -107 277.901251305
v 19.7828937432 -107 277.911252798
v 19.6393059885 -107 277.931208123
v 19.497437105 -107 277.961022183
v 19.3579631625 -107 278.000552902
v 19.221548818 -107 278.049611896
v 19.0888441479 -107 278.107965377
v 18.9604815503 -107 278.175335266
v 18.8370727315 -107 278.251400512
v 18.7192057908 -107 278.335798632
v 18.6074424177 -107 278.428127429
v 18.5023152157 -107 278.527946914
v 18.4043251637 -107 278.634781403
v 18.313939229 -107 278.748121781
v 18.2315881417 -107 278.867427928
v 18.1576643422 -107 278.992131296
v 18.0925201111 -107 279.121637618
v 18.0364658904 -107 279.255329737
v 17.9897688038 -107 279.392570549
v 17.9526513844 -107 279.532706039
v 17.9252905135 -107 279.675068397
v 17.9078165781 -107 279.818979202
v 17.9003128495 -107 279.963752654
v 17.9028150864 -107 280.108698841
v 17.9153113644 -107 280.253127029
v 17.9377421331 -107 280.39634895
v 17.9700004997 -107 280.537682089
v 18.0119327384 -107 280.676452928
v 18.063339023 -107 280.81200016
v 18.1239743791 -107 280.943677842
v 18.1935498515 -107 281.070858469
v 18.2717338816 -107 281.192935968
v 18.3581538868 -107 281.309328584
v 18.4523980364 -107 281.419481653
v 18.5540172142 -107 281.522870245
v 18.6625271584 -107 281.619001667
v 18.7774107698 -107 281.707417809
v 18.8981205756 -107 281.787697327
v 19.0240813387 -107 281.859457654
v 19.1546927986 -107 281.922356818
v 19.2893325323 -107 281.976095076
v 19.4273589202 -107 282.020416342
v 19.5681142035 -107 282.055109403
v 19.7109276194 -107 282.080008932
v 19.8551185968 -107 282.094996272
v 26 -156.5 234.5
v 26 -156.5 285.5
v 26 -107.5 234.5
v 26 -107.5 285.5
v -20 -115 242.1
v -19.8551185968 -115 242.094996272
v -19.7109276194 -115 242.080008932
v -19.5681142035 -115 242.055109403
v -19.4273589202 -115 242.020416342
v -19.2893325323 -115 241.976095076
v -19.1546927986 -115 241.922356818
v -19.0240813387 -115 241.859457654
v -18.8981205756 -115 241.787697327
v -18.7774107698 -115 241.707417809
v -18.6625271584 -115 241.619001667
v -18.5540172142 -115 241.522870245
v -18.4523980364 -115 241.419481653
v -18.3581538868 -115 241.309328584
v -18.2717338816 -115 241.192935968
v -18.1935498515 -115 241.070858469
v -18.1239743791 -115 240.943677842
v -18.063339023 -115 240.81200016
v -18.0119327384 -115 240.676452928
v -17.9700004997 -115 240.537682089
v -17.9377421331 -115 240.39634895
v -17.9153113644 -115 240.253127029
v -17.9028150864 -115 240.108698841
v -17.9003128495 -115 239.963752654
v -17.9078165781 -115 239.818979202
v -17.9252905135 -115 239.675068397
v -17.9526513844 -115 239.532706039
v -17.9897688038 -115 239.392570549
v -18.0364658904 -115 239.255329737
v -18.0925201111 -115 239.121637618
v -18.1576643422 -115 238.992131296
v -18.2315881417 -115 238.867427928
v -18.313939229 -115 238.748121781
v -18.4043251637 -115 238.634781403
v -18.5023152157 -115 238.527946914
v -18.6074424177 -115 238.428127429
v -18.7192057908 -115 238.335798632
v -18.8370727315 -115 238.251400512
v -18.9604815503 -115 238.175335266
v -19.0888441479 -115 238.107965377
v -19.221548818 -115 238.049611896
v -19.3579631625 -115 238.000552902
v -19.497437105 -115 237.961022183
v -19.6393059885 -115 237.931208123
v -19.7828937432 -115 237.911252798
v -19.9275161082 -115 237.901251305
v -20.0724838918 -115 237.901251305
v -20.2171062568 -115 237.911252798
v -20.3606940115 -115 237.931208123
v -20.502562895 -115 237.961022183
v -20.6420368375 -115 238.000552902
v -20.778451182 -115 238.049611896
v -20.9111558521 -115 238.107965377
v -21.0395184497 -115 238.175335266
v -21.1629272685 -115 238.251400512
v -21.2807942092 -115 238.335798632
v -21.3925575823 -115 238.428127429
v -21.4976847843 -115 238.527946914
v -21.5956748363 -115 238.634781403
v -21.686060771 -115 238.748121781
v -21.7684118583 -115 238.867427928
v -21.8423356578 -115 238.992131296
v -21.9074798889 -115 239.121637618
v -21.9635341096 -115 239.255329737
v -22.0102311962 -115 239.392570549
v -22.0473486156 -115 239.532706039
v -22.0747094865 -115 239.675068397
v -22.0921834219 -115 239.818979202
v -22.0996871505 -115 239.963752654
v -22.0971849136 -115 240.108698841
v -22.0846886356 -115 240.253127029
v -22.0622578669 -115 240.39634895
v -22.0299995003 -115 240.537682089
v -21.9880672616 -115 240.676452928
v -21.936660977 -115 240.81200016
v -21.8760256209 -115 240.943677842
v -21.8064501485 -115 241.070858469
v -21.7282661184 -115 241.192935968
v -21.6418461132 -115 241.309328584
v -21.5476019636 -115 241.419481653
v -21.4459827858 -115 241.522870245
v -21.3374728416 -115 241.619001667
v -21.2225892302 -115 241.707417809
v -21.1018794244 -115 241.787697327
v -20.9759186613 -115 241.859457654
v -20.8453072014 -115 241.922356818
v -20.7106674677 -115 241.976095076
v -20.5726410798 -115 242.020416342
v -20.4318857965 -115 242.055109403
v -20.2890723806 -115 242.080008932
v -20.1448814032 -115 242.094996272
v -20 -115 282.1
v -19.8551185968 -115 282.094996272
v -19.7109276194 -115 282.080008932
v -19.5681142035 -115 282.055109403
v -19.4273589202 -115 282.020416342
v -19.2893325323 -115 281.976095076
v -19.1546927986 -115 281.922356818
v -19.0240813387 -115 281.859457654
v -18.8981205756 -115 281.787697327
v -18.7774107698 -115 281.707417809
v -18.6625271584 -115 281.619001667
v -18.5540172142 -115 281.522870245
v -18.4523980364 -115 281.419481653
v -18.3581538868 -115 281.309328584
v -18.2717338816 -115 281.192935968
v -18.1935498515 -115 281.070858469
v -18.1239743791 -115 280.943677842
v -18.063339023 -115 280.81200016
v -18.0119327384 -115 280.676452928
v -17.9700004997 -115 280.537682089
v -17.9377421331 -115 280.39634895
v -17.9153113644 -115 280.253127029
v -17.9028150864 -115 280.108698841
v -17.9003128495 -115 279.963752654
v -17.9078165781 -115 279.818979202
v -17.9252905135 -115 279.675068397
v -17.9526513844 -115 279.532706039
v -17.9897688038 -115 279.392570549
v -18.0364658904 -115 279.255329737
v -18.0925201111 -115 279.121637618
v -18.1576643422 -115 278.992131296
v -18.2315881417 -115 278.867427928
v -18.313939229 -115 278.748121781
v -18.4043251637 -115 278.634781403
v -18.5023152157 -115 278.527946914
v -18.6074424177 -115 278.428127429
v -18.7192057908 -115 278.335798632
v -18.8370727315 -115 278.251400512
v -18.9604815503 -115 278.175335266
v -19.0888441479 -115 278.107965377
v -19.221548818 -115 278.049611896
v -19.3579631625 -115 278.000552902
v -19.497437105 -115 277.961022183
v -19.6393059885 -115 277.931208123
v -19.7828937432 -115 277.911252798
v -19.9275161082 -115 277.901251305
v -20.0724838918 -115 277.901251305
v -20.2171062568 -115 277.911252798
v -20.3606940115 -115 277.931208123
v -20.502562895 -115 277.961022183
v -20.6420368375 -115 278.000552902
v -20.778451182 -115 278.049611896
v -20.9111558521 -115 278.107965377
v -21.0395184497 -115 278.175335266
v -21.1629272685 -115 278.251400512
v -21.2807942092 -115 278.335798632
v -21.3925575823 -115 278.428127429
v -21.4976847843 -115 278.527946914
v -21.5956748363 -115 278.634781403
v -21.686060771 -115 278.748121781
v -21.7684118583 -115 278.867427928
v -21.8423356578 -115 278.992131296
v -21.9074798889 -115 279.121637618
v -21.9635341096 -115 279.255329737
v -22.0102311962 -115 279.392570549
v -22.0473486156 -115 279.532706039
v -22.0747094865 -115 279.675068397
v -22.0921834219 -115 279.818979202
v -22.0996871505 -115 279.963752654
v -22.0971849136 -115 280.108698841
v -22.0846886356 -115 280.253127029
v -22.0622578669 -115 280.39634895
v -22.0299995003 -115 280.537682089
v -21.9880672616 -115 280.676452928
v -21.936660977 -115 280.81200016
v -21.8760256209 -115 280.943677842
v -21.8064501485 -115 281.070858469
v -21.7282661184 -115 281.192935968
v -21.6418461132 -115 281.309328584
v -21.5476019636 -115 281.419481653
v -21.4459827858 -115 281.522870245
v -21.3374728416 -115 281.619001667
v -21.2225892302 -115 281.707417809
v -21.1018794244 -115 281.787697327
v -20.9759186613 -115 281.859457654
v -20.8453072014 -115 281.922356818
v -20.7106674677 -115 281.976095076
v -20.5726410798 -115 282.020416342
v -20.4318857965 -115 282.055109403
v -20.2890723806 -115 282.080008932
v -20.1448814032 -115 282.094996272
v 20 -115 242.1
v 20.1448814032 -115 242.094996272
v 20.2890723806 -115 242.080008932
v 20.4318857965 -115 242.055109403
v 20.5726410798 -115 242.020416342
v 20.7106674677 -115 241.976095076
v 20.8453072014 -115 241.922356818
v 20.9759186613 -115 241.859457654
v 21.1018794244 -115 241.787697327
v 21.2225892302 -115 241.707417809
v 21.3374728416 -115 241.619001667
v 21.4459827858 -115 241.522870245
v 21.5476019636 -115 241.419481653
v 21.6418461132 -115 241.309328584
v 21.7282661184 -115 241.192935968
v 21.8064501485 -115 241.070858469
v 21.8760256209 -115 240.943677842
v 21.936660977 -115 240.81200016
v 21.9880672616 -115 240.676452928
v 22.0299995003 -115 240.537682089
v 22.0622578669 -115 240.39634895
v 22.0846886356 -115 240.253127029
v 22.0971849136 -115 240.108698841
v 22.0996871505 -115 239.963752654
v 22.0921834219 -115 239.818979202
v 22.0747094865 -115 239.675068397
v 22.0473486156 -115 239.532706039
v 22.0102311962 -115 239.392570549
v 21.9635341096 -115 239.255329737
v 21.9074798889 -115 239.121637618
v 21.8423356578 -115 238.992131296
v 21.7684118583 -115 238.867427928
v 21.686060771 -115 238.748121781
v 21.5956748363 -115 238.634781403
v 21.4976847843 -115 238.527946914
v 21.3925575823 -115 238.428127429
v 21.2807942092 -115 238.335798632
v 21.1629272685 -115 238.251400512
v 21.0395184497 -115 238.175335266
v 20.9111558521 -115 238.107965377
v 20.778451182 -115 238.049611896
v 20.6420368375 -115 238.000552902
v 20.502562895 -115 237.961022183
v 20.3606940115 -115 237.931208123
v 20.2171062568 -115 237.911252798
v 20.0724838918 -115 237.901251305
v 19.9275161082 -115 237.901251305
v 19.7828937432 -115 237.911252798
v 19.6393059885 -115 237.931208123
v 19.497437105 -115 237.961022183
v 19.3579631625 -115 238.000552902
v 19.221548818 -115 238.049611896
v 19.0888441479 -115 238.107965377
v 18.9604815503 -115 238.175335266
v 18.8370727315 -115 238.251400512
v 18.7192057908 -115 238.335798632
v 18.6074424177 -115 238.428127429
v 18.5023152157 -115 238.527946914
v 18.4043251637 -115 238.634781403
v 18.313939229 -115 238.748121781
v 18.2315881417 -115 238.867427928
v 18.1576643422 -115 238.992131296
v 18.0925201111 -115 239.121637618
v 18.0364658904 -115 239.255329737
v 17.9897688038 -115 239.392570549
v 17.9526513844 -115 239.532706039
v 17.9252905135 -115 239.675068397
v 17.9078165781 -115 239.818979202
v 17.9003128495 -115 239.963752654
v 17.9028150864 -115 240.108698841
v 17.9153113644 -115 240.253127029
v 17.9377421331 -115 240.39634895
v 17.9700004997 -115 240.537682089
v 18.0119327384 -115 240.676452928
v 18.063339023 -115 240.81200016
v 18.1239743791 -115 240.943677842
v 18.1935498515 -115 241.070858469
v 18.2717338816 -115 241.192935968
v 18.3581538868 -115 241.309328584
v 18.4523980364 -115 241.419481653
v 18.5540172142 -115 241.522870245
v 18.6625271584 -115 241.619001667
v 18.7774107698 -115 241.707417809
v 18.8981205756 -115 241.787697327
v 19.0240813387 -115 241.859457654
v 19.1546927986 -115 241.922356818
v 19.2893325323 -115 241.976095076
v 19.4273589202 -115 242.020416342
v 19.5681142035 -115 242.055109403
v 19.7109276194 -115 242.080008932
v 19.8551185968 -115 242.094996272
v 20 -115 282.1
v 20.1448814032 -115 282.094996272
v 20.2890723806 -115 282.080008932
v 20.4318857965 -115 282.055109403
v 20.5726410798 -115 282.020416342
v 20.7106674677 -115 281.976095076
v 20.8453072014 -115 281.922356818
v 20.9759186613 -115 281.859457654
v 21.1018794244 -115 281.787697327
v 21.2225892302 -115 281.707417809
v 21.3374728416 -115 281.619001667
v 21.4459827858 -115 281.522870245
v 21.5476019636 -115 281.419481653
v 21.6418461132 -115 281.309328584
v 21.7282661184 -115 281.192935968
v 21.8064501485 -115 281.070858469
v 21.8760256209 -115 280.943677842
v 21.936660977 -115 280.81200016
v 21.9880672616 -115 280.676452928
v 22.0299995003 -115 280.537682089
v 22.0622578669 -115 280.39634895
v 22.0846886356 -115 280.253127029
v 22.0971849136 -115 280.108698841
v 22.0996871505 -115 279.963752654
v 22.0921834219 -115 279.818979202
v 22.0747094865 -115 279.675068397
v 22.0473486156 -115 279.532706039
v 22.0102311962 -115 279.392570549
v 21.9635341096 -115 279.255329737
v 21.9074798889 -115 279.121637618
v 21.8423356578 -115 278.992131296
v 21.7684118583 -115 278.867427928
v 21.686060771 -115 278.748121781
v 21.5956748363 -115 278.634781403
v 21.4976847843 -115 278.527946914
v 21.3925575823 -115 278.428127429
v 21.2807942092 -115 278.335798632
v 21.1629272685 -115 278.251400512
v 21.0395184497 -115 278.175335266
v 20.9111558521 -115 278.107965377
v 20.778451182 -115 278.049611896
v 20.6420368375 -115 278.000552902
v 20.502562895 -115 277.961022183
v 20.3606940115 -115 277.931208123
v 20.2171062568 -115 277.911252798
v 20.0724838918 -115 277.901251305
v 19.9275161082 -115 277.901251305
v 19.7828937432 -115 277.911252798
v 19.6393059885 -115 277.931208123
v 19.497437105 -115 277.961022183
v 19.3579631625 -115 278.000552902
v 19.221548818 -115 278.049611896
v 19.0888441479 -115 278.107965377
v 18.9604815503 -115 278.175335266
v 18.8370727315 -115 278.251400512
v 18.7192057908 -115 278.335798632
v 18.6074424177 -115 278.428127429
v 18.5023152157 -115 278.527946914
v 18.4043251637 -115 278.634781403
v 18.313939229 -115 278.748121781
v 18.2315881417 -115 278.867427928
v 18.1576643422 -115 278.992131296
v 18.0925201111 -115 279.121637618
v 18.0364658904 -115 279.255329737
v 17.9897688038 -115 279.392570549
v 17.9526513844 -115 279.532706039
v 17.9252905135 -115 279.675068397
v 17.9078165781 -115 279.818979202
v 17.9003128495 -115 279.963752654
v 17.9028150864 -115 280.108698841
v 17.9153113644 -115 280.253127029
v 17.9377421331 -115 280.39634895
v 17.9700004997 -115 280.537682089
v 18.0119327384 -115 280.676452928
v 18.063339023 -115 280.81200016
v 18.1239743791 -115 280.943677842
v 18.1935498515 -115 281.070858469
v 18.2717338816 -115 281.192935968
v 18.3581538868 -115 281.309328584
v 18.4523980364 -115 281.419481653
v 18.5540172142 -115 281.522870245
v 18.6625271584 -115 281.619001667
v 18.7774107698 -115 281.707417809
v 18.8981205756 -115 281.787697327
v 19.0240813387 -115 281.859457654
v 19.1546927986 -115 281.922356818
v 19.2893325323 -115 281.976095076
v 19.4273589202 -115 282.020416342
v 19.5681142035 -115 282.055109403
v 19.7109276194 -115 282.080008932
v 19.8551185968 -115 282.094996272
f 2 3 1
f 2 4 3
f 5 2 1
f 5 1 6
f 8 7 1
f 8 1 3
f 4 2 9
f 10 4 9
f 11 3 4
f 11 12 3
f 6 1 7
f 5 9 2
f 71 72 6
f 73 6 72
f 70 71 6
f 74 6 73
f 69 70 6
f 75 6 74
f 68 69 6
f 76 6 75
f 67 68 6
f 77 6 76
f 66 67 6
f 78 6 77
f 65 66 6
f 79 6 78
f 64 65 6
f 80 6 79
f 63 64 6
f 81 6 80
f 62 63 6
f 82 6 81
f 61 62 6
f 83 6 82
f 60 61 6
f 14 50 51
f 14 51 52
f 14 52 53
f 14 53 54
f 14 60 6
f 14 54 55
f 14 55 56
f 14 56 57
f 14 57 58
f 14 58 59
f 14 59 60
f 5 6 83
f 5 83 84
f 5 84 85
f 5 85 86
f 5 86 87
f 5 87 88
f 5 88 89
f 5 89 90
f 5 90 91
f 5 91 92
f 5 92 93
f 5 93 94
f 49 50 14
f 95 5 94
f 48 49 14
f 96 5 95
f 47 48 14
f 97 5 96
f 46 47 14
f 98 5 97
f 45 46 14
f 99 5 98
f 44 45 14
f 100 5 99
f 43 44 14
f 101 5 100
f 42 43 14
f 102 5 101
f 41 42 14
f 103 5 102
f 40 41 14
f 104 5 103
f 39 40 14
f 105 5 104
f 38 39 14
f 15 5 105
f 13 15 16
f 13 16 17
f 13 17 18
f 13 18 19
f 13 19 20
f 13 20 21
f 13 21 22
f 13 22 23
f 13 23 24
f 13 24 25
f 13 25 26
f 13 26 27
f 13 27 28
f 13 28 29
f 13 5 15
f 13 29 30
f 13 30 31
f 13 31 32
f 13 32 33
f 13 33 34
f 13 34 35
f 13 35 36
f 13 36 37
f 13 37 38
f 13 38 14
f 107 7 8
f 107 106 7
f 12 8 3
f 109 10 9
f 109 9 108
f 10 11 4
f 168 12 169
f 170 169 12
f 167 12 168
f 171 170 12
f 166 12 167
f 172 171 12
f 165 12 166
f 173 172 12
f 164 12 165
f 174 173 12
f 163 12 164
f 175 174 12
f 162 12 163
f 176 175 12
f 161 12 162
f 177 176 12
f 160 12 161
f 178 177 12
f 159 12 160
f 179 178 12
f 158 12 159
f 180 179 12
f 157 12 158
f 181 180 12
f 156 12 157
f 182 181 12
f 155 12 156
f 183 182 12
f 154 12 155
f 184 183 12
f 153 12 154
f 185 184 12
f 152 12 153
f 186 185 12
f 151 12 152
f 187 186 12
f 442 123 122
f 442 124 123
f 441 125 124
f 441 126 125
f 441 124 442
f 443 121 120
f 443 122 121
f 443 442 122
f 440 127 126
f 440 128 127
f 440 126 441
f 444 120 119
f 444 443 120
f 439 128 440
f 439 129 128
f 445 118 117
f 445 119 118
f 445 444 119
f 438 130 129
f 438 131 130
f 438 129 439
f 446 116 115
f 446 117 116
f 446 445 117
f 437 132 131
f 437 133 132
f 437 131 438
f 447 115 114
f 447 446 115
f 436 134 133
f 436 133 437
f 448 113 112
f 448 114 113
f 448 447 114
f 435 135 134
f 435 136 135
f 435 134 436
f 449 448 112
f 449 202 201
f 449 112 202
f 434 137 136
f 434 136 435
f 450 449 201
f 450 201 200
f 433 138 137
f 433 139 138
f 433 137 434
f 451 450 200
f 451 199 198
f 451 200 199
f 432 140 139
f 432 139 433
f 452 451 198
f 452 198 197
f 431 141 140
f 431 142 141
f 431 140 432
f 453 452 197
f 453 197 196
f 430 142 431
f 260 192 191
f 350 146 351
f 350 147 146
f 350 148 147
f 259 192 260
f 259 193 192
f 352 351 146
f 352 146 145
f 261 260 191
f 261 191 190
f 349 148 350
f 258 193 259
f 258 194 193
f 353 352 145
f 353 144 143
f 353 145 144
f 262 261 190
f 262 190 189
f 348 148 349
f 348 149 148
f 257 194 258
f 257 195 194
f 354 353 143
f 263 262 189
f 263 189 188
f 347 149 348
f 347 150 149
f 256 195 257
f 256 196 195
f 355 143 142
f 355 354 143
f 355 142 430
f 264 263 188
f 264 188 187
f 346 150 347
f 346 151 150
f 255 454 453
f 255 196 256
f 255 453 196
f 356 355 430
f 265 264 187
f 265 187 12
f 254 455 454
f 254 454 255
f 357 430 429
f 357 356 430
f 253 455 254
f 358 429 428
f 358 357 429
f 252 455 253
f 252 456 455
f 359 358 428
f 251 456 252
f 251 457 456
f 360 428 427
f 360 359 428
f 250 457 251
f 361 427 426
f 361 360 427
f 249 458 457
f 249 457 250
f 362 361 426
f 248 458 249
f 248 459 458
f 363 362 426
f 363 426 425
f 247 459 248
f 364 425 424
f 364 363 425
f 246 459 247
f 246 460 459
f 365 364 424
f 245 460 246
f 366 424 423
f 366 365 424
f 244 461 460
f 244 460 245
f 367 366 423
f 243 461 244
f 243 462 461
f 368 423 422
f 368 367 423
f 242 462 243
f 369 422 421
f 369 368 422
f 241 462 242
f 241 463 462
f 370 369 421
f 240 463 241
f 371 421 420
f 371 370 421
f 239 463 240
f 239 464 463
f 372 371 420
f 238 464 239
f 373 372 420
f 111 12 151
f 111 330 329
f 111 331 330
f 111 332 331
f 111 333 332
f 111 334 333
f 111 335 334
f 111 336 335
f 111 337 336
f 111 338 337
f 111 339 338
f 111 340 339
f 111 341 340
f 111 342 341
f 111 343 342
f 111 344 343
f 111 345 344
f 111 346 345
f 111 151 346
f 11 266 265
f 11 267 266
f 11 268 267
f 11 269 268
f 11 270 269
f 11 271 270
f 11 272 271
f 11 273 272
f 11 274 273
f 11 265 12
f 11 275 274
f 11 276 275
f 11 277 276
f 11 278 277
f 11 279 278
f 11 280 279
f 11 281 280
f 11 282 281
f 328 111 329
f 237 464 238
f 283 282 11
f 419 373 420
f 419 374 373
f 327 111 328
f 375 374 419
f 284 283 11
f 465 237 236
f 465 464 237
f 326 111 327
f 285 284 11
f 325 111 326
f 286 285 11
f 324 111 325
f 287 286 11
f 323 111 324
f 288 287 11
f 418 375 419
f 418 376 375
f 418 377 376
f 322 111 323
f 289 288 11
f 466 235 234
f 466 236 235
f 466 465 236
f 321 111 322
f 290 289 11
f 320 111 321
f 291 290 11
f 319 111 320
f 292 291 11
f 318 111 319
f 293 292 11
f 317 111 318
f 417 377 418
f 417 378 377
f 203 293 11
f 316 111 317
f 204 203 11
f 467 233 232
f 467 234 233
f 467 466 234
f 315 111 316
f 205 204 11
f 314 111 315
f 206 205 11
f 313 111 314
f 207 206 11
f 312 111 313
f 208 207 11
f 311 111 312
f 209 208 11
f 416 378 417
f 416 379 378
f 416 380 379
f 468 231 230
f 468 232 231
f 468 467 232
f 415 381 380
f 415 382 381
f 415 380 416
f 469 230 229
f 469 468 230
f 414 382 415
f 414 383 382
f 470 469 229
f 470 228 227
f 470 229 228
f 413 383 414
f 413 384 383
f 413 294 384
f 471 226 225
f 471 227 226
f 471 470 227
f 412 294 413
f 412 295 294
f 412 296 295
f 472 225 224
f 472 471 225
f 411 296 412
f 411 297 296
f 473 223 222
f 473 224 223
f 473 472 224
f 410 297 411
f 410 298 297
f 410 299 298
f 474 222 221
f 474 473 222
f 409 299 410
f 409 300 299
f 475 220 219
f 475 221 220
f 475 474 221
f 408 300 409
f 408 301 300
f 385 475 219
f 533 397 396
f 532 397 533
f 534 533 396
f 534 396 395
f 531 397 532
f 531 398 397
f 535 534 395
f 530 398 531
f 536 395 394
f 536 535 395
f 529 399 398
f 529 398 530
f 537 536 394
f 528 399 529
f 538 537 394
f 538 394 393
f 527 399 528
f 527 400 399
f 539 538 393
f 526 400 527
f 526 401 400
f 540 393 392
f 540 539 393
f 525 401 526
f 541 540 392
f 541 392 391
f 524 401 525
f 524 402 401
f 542 541 391
f 523 402 524
f 543 542 391
f 543 391 390
f 522 402 523
f 522 403 402
f 544 543 390
f 521 403 522
f 521 404 403
f 545 544 390
f 545 390 389
f 520 404 521
f 546 545 389
f 546 389 388
f 519 404 520
f 519 405 404
f 547 546 388
f 518 405 519
f 518 406 405
f 548 547 388
f 548 388 387
f 517 406 518
f 549 548 387
f 549 387 386
f 516 406 517
f 516 407 406
f 550 549 386
f 515 407 516
f 515 301 408
f 515 408 407
f 551 385 219
f 551 386 385
f 551 550 386
f 514 301 515
f 514 302 301
f 552 219 218
f 552 551 219
f 513 302 514
f 513 303 302
f 553 218 217
f 553 552 218
f 512 303 513
f 512 304 303
f 554 216 215
f 554 217 216
f 554 553 217
f 511 304 512
f 511 305 304
f 555 554 215
f 510 305 511
f 510 306 305
f 556 214 213
f 556 215 214
f 556 555 215
f 509 306 510
f 509 307 306
f 557 556 213
f 508 307 509
f 558 213 212
f 558 557 213
f 559 211 210
f 559 212 211
f 559 558 212
f 560 559 210
f 561 210 209
f 561 560 210
f 110 562 561
f 110 563 562
f 110 564 563
f 110 565 564
f 110 566 565
f 110 476 566
f 110 209 11
f 110 477 476
f 110 478 477
f 110 479 478
f 110 480 479
f 110 481 480
f 110 482 481
f 110 483 482
f 110 484 483
f 110 485 484
f 110 486 485
f 110 487 486
f 110 488 487
f 110 489 488
f 110 490 489
f 110 491 490
f 110 492 491
f 110 493 492
f 110 494 493
f 110 495 494
f 110 496 495
f 110 497 496
f 110 498 497
f 110 499 498
f 110 500 499
f 110 501 500
f 110 502 501
f 110 503 502
f 110 504 503
f 110 561 209
f 110 111 504
f 504 111 505
f 505 111 506
f 506 111 507
f 507 111 508
f 508 111 311
f 508 311 310
f 508 310 309
f 508 309 308
f 508 308 307
f 106 6 7
f 106 14 6
f 108 9 5
f 108 5 13
f 13 567 568
f 13 14 567
f 386 15 385
f 386 16 15
f 387 17 16
f 387 16 386
f 388 18 17
f 388 17 387
f 389 18 388
f 389 19 18
f 390 19 389
f 390 20 19
f 391 20 390
f 391 21 20
f 392 21 391
f 392 22 21
f 393 24 23
f 393 22 392
f 393 23 22
f 394 25 24
f 394 24 393
f 395 26 25
f 395 25 394
f 396 26 395
f 397 27 26
f 397 26 396
f 398 28 27
f 398 27 397
f 399 29 28
f 399 28 398
f 400 30 29
f 400 31 30
f 400 29 399
f 401 32 31
f 401 31 400
f 402 32 401
f 403 33 32
f 403 32 402
f 404 34 33
f 404 35 34
f 404 33 403
f 405 36 35
f 405 35 404
f 406 36 405
f 407 37 36
f 407 36 406
f 408 38 37
f 408 37 407
f 409 39 38
f 409 38 408
f 410 40 39
f 410 39 409
f 411 41 40
f 411 40 410
f 412 42 41
f 412 43 42
f 412 41 411
f 413 43 412
f 414 43 413
f 414 44 43
f 414 45 44
f 415 45 414
f 416 45 415
f 416 46 45
f 417 46 416
f 417 47 46
f 418 47 417
f 418 48 47
f 418 49 48
f 419 49 418
f 420 50 49
f 420 49 419
f 421 51 50
f 421 52 51
f 421 50 420
f 422 52 421
f 423 53 52
f 423 54 53
f 423 52 422
f 424 55 54
f 424 54 423
f 425 56 55
f 425 55 424
f 426 56 425
f 427 57 56
f 427 56 426
f 428 58 57
f 428 59 58
f 428 57 427
f 429 59 428
f 430 60 59
f 430 59 429
f 431 61 60
f 431 62 61
f 431 60 430
f 432 62 431
f 433 63 62
f 433 62 432
f 434 64 63
f 434 63 433
f 435 65 64
f 435 64 434
f 436 66 65
f 436 65 435
f 437 67 66
f 437 66 436
f 438 68 67
f 438 69 68
f 438 67 437
f 439 69 438
f 440 69 439
f 440 70 69
f 440 71 70
f 441 71 440
f 442 71 441
f 442 72 71
f 443 72 442
f 443 73 72
f 444 73 443
f 444 74 73
f 445 74 444
f 445 75 74
f 446 75 445
f 446 76 75
f 447 76 446
f 447 77 76
f 447 78 77
f 448 78 447
f 449 78 448
f 449 79 78
f 450 79 449
f 450 80 79
f 451 80 450
f 451 81 80
f 451 82 81
f 452 82 451
f 453 82 452
f 453 83 82
f 453 84 83
f 454 85 84
f 454 84 453
f 455 86 85
f 455 85 454
f 456 86 455
f 457 87 86
f 457 86 456
f 458 88 87
f 458 87 457
f 459 89 88
f 459 90 89
f 459 88 458
f 460 91 90
f 460 90 459
f 461 91 460
f 462 92 91
f 462 91 461
f 463 93 92
f 463 92 462
f 464 94 93
f 464 93 463
f 465 94 464
f 465 95 94
f 466 95 465
f 466 96 95
f 467 96 466
f 467 97 96
f 468 97 467
f 468 98 97
f 468 99 98
f 469 99 468
f 470 99 469
f 470 100 99
f 470 101 100
f 471 101 470
f 471 102 101
f 472 102 471
f 472 103 102
f 473 103 472
f 474 103 473
f 474 104 103
f 474 105 104
f 475 105 474
f 385 105 475
f 385 15 105
f 107 8 12
f 107 12 111
f 107 567 106
f 107 569 567
f 110 11 10
f 109 110 10
f 109 108 568
f 109 568 570
f 570 569 111
f 110 570 111
f 113 571 112
f 113 572 571
f 114 573 572
f 114 572 113
f 115 574 573
f 115 573 114
f 116 574 115
f 116 575 574
f 117 575 116
f 117 576 575
f 118 576 117
f 118 577 576
f 118 578 577
f 119 578 118
f 120 578 119
f 120 579 578
f 121 580 579
f 121 581 580
f 121 579 120
f 122 581 121
f 123 582 581
f 123 583 582
f 123 581 122
f 124 583 123
f 125 584 583
f 125 585 584
f 125 583 124
f 126 585 125
f 127 586 585
f 127 587 586
f 127 585 126
f 128 587 127
f 129 588 587
f 129 587 128
f 130 589 588
f 130 588 129
f 131 590 589
f 131 589 130
f 132 591 590
f 132 590 131
f 133 592 591
f 133 591 132
f 134 593 592
f 134 594 593
f 134 592 133
f 135 594 134
f 136 595 594
f 136 594 135
f 137 596 595
f 137 595 136
f 138 597 596
f 138 598 597
f 138 596 137
f 139 599 598
f 139 598 138
f 140 599 139
f 141 599 140
f 141 600 599
f 142 600 141
f 142 601 600
f 143 601 142
f 143 602 601
f 143 603 602
f 144 603 143
f 144 604 603
f 145 604 144
f 146 604 145
f 146 605 604
f 147 606 605
f 147 605 146
f 148 607 606
f 148 606 147
f 149 608 607
f 149 607 148
f 150 609 608
f 150 610 609
f 150 608 149
f 151 611 610
f 151 610 150
f 152 611 151
f 153 612 611
f 153 611 152
f 154 613 612
f 154 614 613
f 154 612 153
f 155 614 154
f 156 615 614
f 156 616 615
f 156 614 155
f 157 616 156
f 158 617 616
f 158 616 157
f 159 618 617
f 159 617 158
f 160 619 618
f 160 618 159
f 161 620 619
f 161 619 160
f 162 621 620
f 162 620 161
f 163 622 621
f 163 621 162
f 164 623 622
f 164 622 163
f 165 624 623
f 165 623 164
f 166 625 624
f 166 624 165
f 167 625 166
f 167 626 625
f 167 627 626
f 168 627 167
f 169 627 168
f 169 628 627
f 169 629 628
f 170 629 169
f 171 629 170
f 171 630 629
f 172 630 171
f 172 631 630
f 173 631 172
f 173 632 631
f 173 633 632
f 174 633 173
f 175 633 174
f 175 634 633
f 176 634 175
f 176 635 634
f 177 635 176
f 177 636 635
f 177 637 636
f 178 637 177
f 179 637 178
f 179 638 637
f 180 638 179
f 180 639 638
f 181 639 180
f 181 640 639
f 182 641 640
f 182 640 181
f 183 642 641
f 183 641 182
f 184 643 642
f 184 642 183
f 185 644 643
f 185 645 644
f 185 643 184
f 186 645 185
f 187 646 645
f 187 645 186
f 188 647 646
f 188 648 647
f 188 646 187
f 189 648 188
f 190 649 648
f 190 648 189
f 191 650 649
f 191 651 650
f 191 649 190
f 192 651 191
f 193 651 192
f 193 652 651
f 194 652 193
f 194 653 652
f 195 653 194
f 195 654 653
f 196 654 195
f 196 655 654
f 197 655 196
f 197 656 655
f 197 657 656
f 198 657 197
f 199 657 198
f 199 658 657
f 200 658 199
f 200 659 658
f 200 660 659
f 201 660 200
f 202 660 201
f 202 661 660
f 112 661 202
f 112 571 661
f 204 662 203
f 204 663 662
f 205 664 663
f 205 663 204
f 206 665 664
f 206 664 205
f 207 665 206
f 207 666 665
f 208 666 207
f 208 667 666
f 209 667 208
f 209 668 667
f 209 669 668
f 210 669 209
f 211 669 210
f 211 670 669
f 212 671 670
f 212 672 671
f 212 670 211
f 213 672 212
f 214 673 672
f 214 674 673
f 214 672 213
f 215 674 214
f 216 675 674
f 216 676 675
f 216 674 215
f 217 676 216
f 218 677 676
f 218 678 677
f 218 676 217
f 219 678 218
f 220 679 678
f 220 678 219
f 221 680 679
f 221 679 220
f 222 681 680
f 222 680 221
f 223 682 681
f 223 681 222
f 224 683 682
f 224 682 223
f 225 684 683
f 225 685 684
f 225 683 224
f 226 685 225
f 227 686 685
f 227 685 226
f 228 687 686
f 228 686 227
f 229 688 687
f 229 689 688
f 229 687 228
f 230 690 689
f 230 689 229
f 231 690 230
f 232 690 231
f 232 691 690
f 233 691 232
f 233 692 691
f 234 692 233
f 234 693 692
f 234 694 693
f 235 694 234
f 235 695 694
f 236 695 235
f 237 695 236
f 237 696 695
f 238 697 696
f 238 696 237
f 239 698 697
f 239 697 238
f 240 699 698
f 240 698 239
f 241 700 699
f 241 701 700
f 241 699 240
f 242 702 701
f 242 701 241
f 243 702 242
f 244 703 702
f 244 702 243
f 245 704 703
f 245 705 704
f 245 703 244
f 246 705 245
f 247 706 705
f 247 707 706
f 247 705 246
f 248 707 247
f 249 708 707
f 249 707 248
f 250 709 708
f 250 708 249
f 251 710 709
f 251 709 250
f 252 711 710
f 252 710 251
f 253 712 711
f 253 711 252
f 254 713 712
f 254 712 253
f 255 714 713
f 255 713 254
f 256 715 714
f 256 714 255
f 257 716 715
f 257 715 256
f 258 716 257
f 258 717 716
f 258 718 717
f 259 718 258
f 260 718 259
f 260 719 718
f 260 720 719
f 261 720 260
f 262 720 261
f 262 721 720
f 263 721 262
f 263 722 721
f 264 722 263
f 264 723 722
f 264 724 723
f 265 724 264
f 266 724 265
f 266 725 724
f 267 725 266
f 267 726 725
f 268 726 267
f 268 727 726
f 268 728 727
f 269 728 268
f 270 728 269
f 270 729 728
f 271 729 270
f 271 730 729
f 272 730 271
f 272 731 730
f 273 732 731
f 273 731 272
f 274 733 732
f 274 732 273
f 275 734 733
f 275 733 274
f 276 735 734
f 276 736 735
f 276 734 275
f 277 736 276
f 278 737 736
f 278 736 277
f 279 738 737
f 279 739 738
f 279 737 278
f 280 739 279
f 281 740 739
f 281 739 280
f 282 741 740
f 282 742 741
f 282 740 281
f 283 742 282
f 284 742 283
f 284 743 742
f 285 743 284
f 285 744 743
f 286 744 285
f 286 745 744
f 287 745 286
f 287 746 745
f 288 746 287
f 288 747 746
f 288 748 747
f 289 748 288
f 290 748 289
f 290 749 748
f 291 749 290
f 291 750 749
f 291 751 750
f 292 751 291
f 293 751 292
f 293 752 751
f 203 752 293
f 203 662 752
f 295 753 294
f 295 754 753
f 296 755 754
f 296 754 295
f 297 756 755
f 297 755 296
f 298 756 297
f 298 757 756
f 299 757 298
f 299 758 757
f 300 758 299
f 300 759 758
f 300 760 759
f 301 760 300
f 302 760 301
f 302 761 760
f 303 762 761
f 303 763 762
f 303 761 302
f 304 763 303
f 305 764 763
f 305 765 764
f 305 763 304
f 306 765 305
f 307 766 765
f 307 767 766
f 307 765 306
f 308 767 307
f 309 768 767
f 309 769 768
f 309 767 308
f 310 769 309
f 311 770 769
f 311 769 310
f 312 771 770
f 312 770 311
f 313 772 771
f 313 771 312
f 314 773 772
f 314 772 313
f 315 774 773
f 315 773 314
f 316 775 774
f 316 776 775
f 316 774 315
f 317 776 316
f 318 777 776
f 318 776 317
f 319 778 777
f 319 777 318
f 320 779 778
f 320 780 779
f 320 778 319
f 321 781 780
f 321 780 320
f 322 781 321
f 323 781 322
f 323 782 781
f 324 782 323
f 324 783 782
f 325 783 324
f 325 784 783
f 325 785 784
f 326 785 325
f 326 786 785
f 327 786 326
f 328 786 327
f 328 787 786
f 329 788 787
f 329 787 328
f 330 789 788
f 330 788 329
f 331 790 789
f 331 789 330
f 332 791 790
f 332 792 791
f 332 790 331
f 333 793 792
f 333 792 332
f 334 793 333
f 335 794 793
f 335 793 334
f 336 795 794
f 336 796 795
f 336 794 335
f 337 796 336
f 338 797 796
f 338 798 797
f 338 796 337
f 339 798 338
f 340 799 798
f 340 798 339
f 341 800 799
f 341 799 340
f 342 801 800
f 342 800 341
f 343 802 801
f 343 801 342
f 344 803 802
f 344 802 343
f 345 804 803
f 345 803 344
f 346 805 804
f 346 804 345
f 347 806 805
f 347 805 346
f 348 807 806
f 348 806 347
f 349 807 348
f 349 808 807
f 349 809 808
f 350 809 349
f 351 809 350
f 351 810 809
f 351 811 810
f 352 811 351
f 353 811 352
f 353 812 811
f 354 812 353
f 354 813 812
f 355 813 354
f 355 814 813
f 355 815 814
f 356 815 355
f 357 815 356
f 357 816 815
f 358 816 357
f 358 817 816
f 359 817 358
f 359 818 817
f 359 819 818
f 360 819 359
f 361 819 360
f 361 820 819
f 362 820 361
f 362 821 820
f 363 821 362
f 363 822 821
f 364 823 822
f 364 822 363
f 365 824 823
f 365 823 364
f 366 825 824
f 366 824 365
f 367 826 825
f 367 827 826
f 367 825 366
f 368 827 367
f 369 828 827
f 369 827 368
f 370 829 828
f 370 830 829
f 370 828 369
f 371 830 370
f 372 831 830
f 372 830 371
f 373 832 831
f 373 833 832
f 373 831 372
f 374 833 373
f 375 833 374
f 375 834 833
f 376 834 375
f 376 835 834
f 377 835 376
f 377 836 835
f 378 836 377
f 378 837 836
f 379 837 378
f 379 838 837
f 379 839 838
f 380 839 379
f 381 839 380
f 381 840 839
f 382 840 381
f 382 841 840
f 382 842 841
f 383 842 382
f 384 842 383
f 384 843 842
f 294 843 384
f 294 753 843
f 477 844 476
f 477 845 844
f 478 846 845
f 478 845 477
f 479 847 846
f 479 846 478
f 480 847 479
f 480 848 847
f 481 848 480
f 481 849 848
f 482 849 481
f 482 850 849
f 482 851 850
f 483 851 482
f 484 851 483
f 484 852 851
f 485 853 852
f 485 854 853
f 485 852 484
f 486 854 485
f 487 855 854
f 487 856 855
f 487 854 486
f 488 856 487
f 489 857 856
f 489 858 857
f 489 856 488
f 490 858 489
f 491 859 858
f 491 860 859
f 491 858 490
f 492 860 491
f 493 861 860
f 493 860 492
f 494 862 861
f 494 861 493
f 495 863 862
f 495 862 494
f 496 864 863
f 496 863 495
f 497 865 864
f 497 864 496
f 498 866 865
f 498 867 866
f 498 865 497
f 499 867 498
f 500 868 867
f 500 867 499
f 501 869 868
f 501 868 500
f 502 870 869
f 502 871 870
f 502 869 501
f 503 872 871
f 503 871 502
f 504 872 503
f 505 872 504
f 505 873 872
f 506 873 505
f 506 874 873
f 507 874 506
f 507 875 874
f 507 876 875
f 508 876 507
f 508 877 876
f 509 877 508
f 510 877 509
f 510 878 877
f 511 879 878
f 511 878 510
f 512 880 879
f 512 879 511
f 513 881 880
f 513 880 512
f 514 882 881
f 514 883 882
f 514 881 513
f 515 884 883
f 515 883 514
f 516 884 515
f 517 885 884
f 517 884 516
f 518 886 885
f 518 887 886
f 518 885 517
f 519 887 518
f 520 888 887
f 520 889 888
f 520 887 519
f 521 889 520
f 522 890 889
f 522 889 521
f 523 891 890
f 523 890 522
f 524 892 891
f 524 891 523
f 525 893 892
f 525 892 524
f 526 894 893
f 526 893 525
f 527 895 894
f 527 894 526
f 528 896 895
f 528 895 527
f 529 897 896
f 529 896 528
f 530 898 897
f 530 897 529
f 531 898 530
f 531 899 898
f 531 900 899
f 532 900 531
f 533 900 532
f 533 901 900
f 533 902 901
f 534 902 533
f 535 902 534
f 535 903 902
f 536 903 535
f 536 904 903
f 537 904 536
f 537 905 904
f 537 906 905
f 538 906 537
f 539 906 538
f 539 907 906
f 540 907 539
f 540 908 907
f 541 908 540
f 541 909 908
f 541 910 909
f 542 910 541
f 543 910 542
f 543 911 910
f 544 911 543
f 544 912 911
f 545 912 544
f 545 913 912
f 546 914 913
f 546 913 545
f 547 915 914
f 547 914 546
f 548 916 915
f 548 915 547
f 549 917 916
f 549 918 917
f 549 916 548
f 550 918 549
f 551 919 918
f 551 918 550
f 552 920 919
f 552 921 920
f 552 919 551
f 553 921 552
f 554 922 921
f 554 921 553
f 555 923 922
f 555 924 923
f 555 922 554
f 556 924 555
f 557 924 556
f 557 925 924
f 558 925 557
f 558 926 925
f 559 926 558
f 559 927 926
f 560 927 559
f 560 928 927
f 561 928 560
f 561 929 928
f 561 930 929
f 562 930 561
f 563 930 562
f 563 931 930
f 564 931 563
f 564 932 931
f 564 933 932
f 565 933 564
f 566 933 565
f 566 934 933
f 476 934 566
f 476 844 934
f 14 106 567
f 13 568 108
f 568 567 569
f 568 569 570
f 111 569 107
f 109 570 110
f 634 630 631
f 634 631 632
f 634 632 633
f 620 621 622
f 636 634 635
f 618 619 620
f 638 636 637
f 640 638 639
f 614 615 616
f 614 616 617
f 642 640 641
f 610 611 612
f 610 612 613
f 610 613 614
f 646 642 643
f 646 643 644
f 646 644 645
f 607 608 609
f 649 640 642
f 649 638 640
f 649 642 646
f 649 646 647
f 649 647 648
f 651 649 650
f 604 605 606
f 652 649 651
f 653 630 634
f 653 634 636
f 653 636 638
f 653 649 652
f 653 638 649
f 653 622 623
f 653 623 624
f 653 624 625
f 653 625 626
f 653 626 627
f 653 627 628
f 653 628 629
f 653 629 630
f 602 603 604
f 602 604 606
f 655 653 654
f 598 599 600
f 598 600 601
f 598 601 602
f 658 656 657
f 659 656 658
f 596 597 598
f 660 653 655
f 660 620 622
f 660 656 659
f 660 618 620
f 660 622 653
f 660 655 656
f 594 596 598
f 594 595 596
f 592 593 594
f 573 571 572
f 574 571 573
f 574 617 618
f 574 614 617
f 574 618 660
f 574 660 661
f 574 661 571
f 589 590 591
f 589 591 592
f 577 574 575
f 577 575 576
f 587 588 589
f 586 587 589
f 586 589 592
f 586 592 594
f 579 577 578
f 579 574 577
f 580 610 614
f 580 614 574
f 580 574 579
f 583 584 585
f 582 580 581
f 582 585 586
f 582 606 607
f 582 609 610
f 582 610 580
f 582 586 594
f 582 602 606
f 582 583 585
f 582 607 609
f 582 598 602
f 582 594 598
f 714 715 716
f 714 716 717
f 724 721 722
f 724 722 723
f 709 710 711
f 731 729 730
f 705 709 711
f 705 706 707
f 705 707 708
f 705 708 709
f 705 711 712
f 705 712 713
f 703 704 705
f 700 701 702
f 700 702 703
f 699 700 703
f 740 738 739
f 697 703 705
f 697 705 713
f 697 698 699
f 697 713 714
f 697 699 703
f 741 738 740
f 695 714 717
f 695 696 697
f 695 717 718
f 695 718 719
f 695 719 720
f 695 697 714
f 743 741 742
f 743 738 741
f 744 737 738
f 744 738 743
f 693 694 695
f 693 695 720
f 691 721 724
f 691 692 693
f 691 720 721
f 691 693 720
f 748 745 746
f 748 746 747
f 689 691 724
f 689 690 691
f 689 724 725
f 689 725 726
f 750 748 749
f 751 748 750
f 686 687 688
f 686 688 689
f 686 726 727
f 686 727 728
f 686 689 726
f 662 748 751
f 662 751 752
f 683 684 685
f 683 685 686
f 683 729 731
f 683 728 729
f 683 686 728
f 665 662 663
f 665 663 664
f 665 745 748
f 665 748 662
f 681 682 683
f 681 683 731
f 681 731 732
f 681 732 733
f 681 733 734
f 679 680 681
f 668 665 666
f 668 666 667
f 668 745 665
f 668 744 745
f 678 679 681
f 678 734 735
f 678 735 736
f 678 736 737
f 678 681 734
f 676 677 678
f 671 669 670
f 675 678 737
f 675 676 678
f 672 668 669
f 672 669 671
f 673 674 675
f 673 744 668
f 673 675 737
f 673 668 672
f 673 737 744
f 816 812 813
f 816 813 814
f 816 814 815
f 802 803 804
f 818 816 817
f 800 801 802
f 820 818 819
f 822 820 821
f 796 797 798
f 796 798 799
f 824 822 823
f 792 793 794
f 792 794 795
f 792 795 796
f 828 824 825
f 828 825 826
f 828 826 827
f 789 790 791
f 831 822 824
f 831 820 822
f 831 824 828
f 831 828 829
f 831 829 830
f 833 831 832
f 786 787 788
f 834 831 833
f 835 812 816
f 835 816 818
f 835 818 820
f 835 831 834
f 835 820 831
f 835 804 805
f 835 805 806
f 835 806 807
f 835 807 808
f 835 808 809
f 835 809 810
f 835 810 811
f 835 811 812
f 784 785 786
f 784 786 788
f 837 835 836
f 780 781 782
f 780 782 783
f 780 783 784
f 840 838 839
f 841 838 840
f 778 779 780
f 842 835 837
f 842 802 804
f 842 838 841
f 842 800 802
f 842 804 835
f 842 837 838
f 776 778 780
f 776 777 778
f 774 775 776
f 755 753 754
f 756 753 755
f 756 799 800
f 756 796 799
f 756 800 842
f 756 842 843
f 756 843 753
f 771 772 773
f 771 773 774
f 759 756 757
f 759 757 758
f 769 770 771
f 768 769 771
f 768 771 774
f 768 774 776
f 761 759 760
f 761 756 759
f 762 792 796
f 762 796 756
f 762 756 761
f 765 766 767
f 764 762 763
f 764 767 768
f 764 788 789
f 764 791 792
f 764 792 762
f 764 768 776
f 764 784 788
f 764 765 767
f 764 789 791
f 764 780 784
f 764 776 780
f 896 897 898
f 896 898 899
f 906 903 904
f 906 904 905
f 891 892 893
f 913 911 912
f 887 891 893
f 887 888 889
f 887 889 890
f 887 890 891
f 887 893 894
f 887 894 895
f 885 886 887
f 882 883 884
f 882 884 885
f 881 882 885
f 922 920 921
f 879 885 887
f 879 887 895
f 879 880 881
f 879 895 896
f 879 881 885
f 923 920 922
f 877 896 899
f 877 878 879
f 877 899 900
f 877 900 901
f 877 901 902
f 877 879 896
f 925 923 924
f 925 920 923
f 926 919 920
f 926 920 925
f 875 876 877
f 875 877 902
f 873 903 906
f 873 874 875
f 873 902 903
f 873 875 902
f 930 927 928
f 930 928 929
f 871 873 906
f 871 872 873
f 871 906 907
f 871 907 908
f 932 930 931
f 933 930 932
f 868 869 870
f 868 870 871
f 868 908 909
f 868 909 910
f 868 871 908
f 844 930 933
f 844 933 934
f 865 866 867
f 865 867 868
f 865 911 913
f 865 910 911
f 865 868 910
f 847 844 845
f 847 845 846
f 847 927 930
f 847 930 844
f 863 864 865
f 863 865 913
f 863 913 914
f 863 914 915
f 863 915 916
f 861 862 863
f 850 847 848
f 850 848 849
f 850 927 847
f 850 926 927
f 860 861 863
f 860 916 917
f 860 917 918
f 860 918 919
f 860 863 916
f 858 859 860
f 853 851 852
f 857 860 919
f 857 858 860
f 854 850 851
f 854 851 853
f 855 856 857
f 855 926 850
f 855 857 919
f 855 850 854
f 855 919 926
